<?xml version="1.0" encoding="iso-8859-1"?>
<!-- Generator: Adobe Illustrator 19.0.0, SVG Export Plug-In . SVG Version: 6.00 Build 0)  -->
<svg version="1.1" id="Capa_1" xmlns="http://www.w3.org/2000/svg" xmlns:xlink="http://www.w3.org/1999/xlink" x="0px" y="0px"
	 viewBox="0 0 512 512" style="enable-background:new 0 0 512 512;" xml:space="preserve">
<g>
	<path style="fill:#70BBEF;" d="M93.854,422.018H20.421c-18.115,0-27.26-21.986-14.424-34.823l38.609-38.609H20.421
		c-11.266,0-20.399-9.134-20.399-20.399c0-11.266,9.134-20.399,20.399-20.399h73.433c18.114,0,27.26,21.986,14.424,34.823
		l-38.609,38.61h24.185c11.266,0,20.399,9.133,20.399,20.399C114.253,412.885,105.119,422.018,93.854,422.018z"/>
	<path style="fill:#70BBEF;" d="M276.371,357.148H166.026c-18.115,0-27.26-21.986-14.424-34.823l75.521-75.521h-61.097
		c-11.266,0-20.399-9.133-20.399-20.399c0-11.266,9.133-20.399,20.399-20.399h110.345c18.114,0,27.26,21.986,14.424,34.823
		l-75.521,75.522h61.097c11.266,0,20.399,9.133,20.399,20.399C296.77,348.014,287.637,357.148,276.371,357.148z"/>
	<path style="fill:#70BBEF;" d="M491.579,286.934H335.424c-18.115,0-27.26-21.986-14.424-34.823L442.332,130.78H335.424
		c-11.266,0-20.399-9.133-20.399-20.399c0-11.267,9.133-20.399,20.399-20.399h156.155c18.114,0,27.26,21.986,14.424,34.823
		l-121.332,121.33h106.908c11.266,0,20.399,9.133,20.399,20.399S502.846,286.934,491.579,286.934z"/>
</g>
<g>
	<path style="fill:#5DB4DB;" d="M34.042,387.195l21.854-21.854c6.183-6.183,1.805-16.756-6.941-16.756l0,0
		c-11.061,0-20.481-8.601-20.875-19.654c-0.413-11.606,8.873-21.144,20.386-21.144H20.911c-11.061,0-20.481,8.6-20.876,19.653
		c-0.414,11.606,8.872,21.144,20.386,21.144h24.185l-38.609,38.61c-12.836,12.838-3.69,34.823,14.424,34.823h28.046
		C30.351,422.018,21.207,400.033,34.042,387.195z"/>
	<path style="fill:#5DB4DB;" d="M179.647,322.324l57.986-57.986c6.471-6.471,1.888-17.535-7.263-17.535h-3.247l-75.521,75.521
		c-12.836,12.838-3.69,34.824,14.424,34.824h28.046C175.957,357.148,166.812,335.162,179.647,322.324z"/>
	<path style="fill:#5DB4DB;" d="M166.026,246.802h28.046c-11.266,0-20.399-9.133-20.399-20.399c0-11.265,9.133-20.399,20.399-20.399
		h-28.046c-11.266,0-20.399,9.134-20.399,20.399C145.628,237.669,154.76,246.802,166.026,246.802z"/>
	<path style="fill:#5DB4DB;" d="M335.424,130.779h28.046c-11.267,0-20.399-9.133-20.399-20.399c0-11.267,9.133-20.399,20.399-20.399
		h-28.046c-11.266,0-20.399,9.133-20.399,20.399C315.025,121.648,324.157,130.779,335.424,130.779z"/>
	<path style="fill:#5DB4DB;" d="M349.045,252.11l101.5-101.5c7.318-7.318,2.135-19.831-8.214-19.831l0,0L321,252.11
		c-12.836,12.838-3.691,34.824,14.424,34.824h28.046C345.355,286.934,336.21,264.949,349.045,252.11z"/>
</g>
<g>
</g>
<g>
</g>
<g>
</g>
<g>
</g>
<g>
</g>
<g>
</g>
<g>
</g>
<g>
</g>
<g>
</g>
<g>
</g>
<g>
</g>
<g>
</g>
<g>
</g>
<g>
</g>
<g>
</g>
</svg>
