<?xml version="1.0" encoding="iso-8859-1"?>
<!-- Generator: Adobe Illustrator 19.0.0, SVG Export Plug-In . SVG Version: 6.00 Build 0)  -->
<svg version="1.1" id="Capa_1" xmlns="http://www.w3.org/2000/svg" xmlns:xlink="http://www.w3.org/1999/xlink" x="0px" y="0px"
	 viewBox="0 0 512 512" style="enable-background:new 0 0 512 512;" xml:space="preserve">
<path style="fill:#F4D44E;" d="M352.142,154.059C215.077,16.995,53.768-41.635,6.259,32.053c-1.497,2.321,1.497,5.15,3.893,2.753
	c50.178-50.178,184.226,2.512,299.402,117.688c60.216,60.216,139.378,166.68,136.533,249.558
	c-10.622,74.289-148.226-10.159-200.254-45.252l-16.123,15.716c-1.869,1.822-2.721,4.445-2.279,7.017l9.659,56.318
	c101.585,71.314,204.594,98.617,247.657,55.554C541.285,434.869,481.916,283.832,352.142,154.059z"/>
<path style="fill:#E8C842;" d="M429.199,471.108c-72.515,12.928-196.112-81.102-200.559-84.508l8.448,49.252
	c101.584,71.314,204.594,98.617,247.657,55.554c31.595-31.594,26.982-92.704-5.875-163.119
	C489.139,388.519,487.928,460.638,429.199,471.108z"/>
<path style="fill:#F7E7A1;" d="M418.827,479.141c-51.086-0.231-101.313-24.118-134.452-44.114
	c-35.643-21.507-59.103-42.681-60.084-43.572c-3.164-2.873-3.401-7.767-0.527-10.932c2.873-3.166,7.765-3.402,10.93-0.53l0,0
	c0.919,0.833,92.87,83.256,184.205,83.67c23.762,0.202,44.789-10.928,48.933-34.627c0.734-4.211,4.746-7.028,8.954-6.293
	c4.21,0.734,7.029,4.744,6.293,8.954c-0.116,0.665-0.238,1.32-0.368,1.966C476.818,463.05,449.964,479.366,418.827,479.141z"/>
<path style="fill:#F4A32C;" d="M171.091,233.082l31.737,64.305c1.154,2.34,3.387,3.962,5.969,4.337l70.965,10.312
	c6.502,0.945,9.099,8.936,4.394,13.522l-51.35,50.055c-1.869,1.822-2.721,4.445-2.279,7.017l12.122,70.679
	c1.11,6.476-5.686,11.415-11.503,8.357l-63.473-33.37c-2.31-1.214-5.068-1.214-7.378,0l-63.473,33.37
	c-5.815,3.057-12.613-1.881-11.503-8.357l12.122-70.679c0.441-2.572-0.412-5.195-2.28-7.017l-51.351-50.055
	c-4.705-4.586-2.109-12.577,4.394-13.522l70.965-10.312c2.582-0.375,4.815-1.997,5.969-4.337l31.737-64.305
	C159.781,227.191,168.183,227.191,171.091,233.082z"/>
<path style="fill:#E89528;" d="M143.871,367.573c0.441-2.571-0.412-5.195-2.279-7.017c-52.48-51.922-52.775-49.629-53.614-54.299
	l-39.774,5.78c-6.503,0.945-9.099,8.936-4.394,13.522l51.351,50.055c1.869,1.821,2.721,4.445,2.28,7.017l-12.122,70.679
	c-1.11,6.476,5.687,11.415,11.503,8.357l35.567-18.699C130.366,438.71,131.959,440.191,143.871,367.573z"/>
<g>
</g>
<g>
</g>
<g>
</g>
<g>
</g>
<g>
</g>
<g>
</g>
<g>
</g>
<g>
</g>
<g>
</g>
<g>
</g>
<g>
</g>
<g>
</g>
<g>
</g>
<g>
</g>
<g>
</g>
</svg>
