<?xml version="1.0" encoding="iso-8859-1"?>
<!-- Generator: Adobe Illustrator 19.0.0, SVG Export Plug-In . SVG Version: 6.00 Build 0)  -->
<svg version="1.1" id="Capa_1" xmlns="http://www.w3.org/2000/svg" xmlns:xlink="http://www.w3.org/1999/xlink" x="0px" y="0px"
	 viewBox="0 0 512 512" style="enable-background:new 0 0 512 512;" xml:space="preserve">
<path style="fill:#F4A32C;" d="M268.298,26.677l54.899,111.239c1.998,4.047,5.859,6.853,10.325,7.502l122.758,17.838
	c11.248,1.634,15.739,15.457,7.6,23.39l-88.829,86.587c-3.232,3.15-4.707,7.689-3.944,12.138l20.969,122.262
	c1.922,11.202-9.836,19.745-19.897,14.457l-109.799-57.725c-3.995-2.1-8.767-2.1-12.762,0L139.82,422.089
	c-10.061,5.289-21.818-3.253-19.897-14.457l20.969-122.262c0.763-4.449-0.712-8.988-3.944-12.138l-88.829-86.587
	c-8.139-7.934-3.648-21.756,7.6-23.39l122.758-17.838c4.467-0.649,8.327-3.455,10.325-7.502l54.899-111.239
	C248.733,16.484,263.267,16.484,268.298,26.677z"/>
<path style="fill:#E89528;" d="M176.862,390.883l20.969-122.262c0.763-4.449-0.711-8.988-3.944-12.138l-88.829-86.587
	c-3.843-3.745-4.868-8.803-3.697-13.272l-45.642,6.632c-11.247,1.634-15.739,15.457-7.6,23.39l88.829,86.587
	c3.232,3.15,4.706,7.689,3.944,12.138l-20.969,122.262c-1.922,11.202,9.836,19.745,19.897,14.457l39.5-20.766
	C177.232,398.514,176.178,394.869,176.862,390.883z"/>
<path style="fill:#F4D44E;" d="M265.773,421.482c-2.608-8.306-14.315-8.442-17.115-0.197c-0.606,1.786-27.034,79.605-26.767,78.817
	c-1.983,5.84,2.359,11.898,8.525,11.898h51.518c6.079,0,10.412-5.901,8.59-11.701L265.773,421.482z"/>
<path style="fill:#E8C842;" d="M255.428,505.948c-0.006,0.833,0.574-81.35,0.587-83.235c0.022-3.163,1.513-5.643,3.642-7.184
	c-4.254-1.173-9.289,0.717-11,5.756c-0.606,1.786-27.035,79.605-26.767,78.817c-1.983,5.84,2.359,11.898,8.525,11.898h27.299
	C256.295,510.415,255.412,508.315,255.428,505.948z"/>
<path style="fill:#F4D44E;" d="M361.432,82.922c-2.854,8.091,6.296,15.118,13.377,10.273c1.679-1.149,68.701-47.01,67.695-46.321
	c5.015-3.432,5.174-10.776,0.312-14.421L402.196,1.999c-4.793-3.593-11.697-1.502-13.689,4.148L361.432,82.922z"/>
<path style="fill:#E8C842;" d="M368.544,84.472c51.66-67.465,48.557-66.233,53.087-67.903l-19.434-14.57
	c-4.793-3.593-11.697-1.502-13.689,4.148l-27.075,76.775c-1.985,5.628,1.839,10.735,6.732,11.697
	C366.296,91.725,366.035,87.791,368.544,84.472z"/>
<path style="fill:#F4D44E;" d="M151.369,83.782c2.891,8.197-6.38,15.316-13.553,10.408c-1.7-1.164-69.6-47.625-68.581-46.928
	c-5.081-3.477-5.241-10.917-0.316-14.61L110.07,1.8c4.856-3.64,11.85-1.521,13.868,4.202L151.369,83.782z"/>
<path style="fill:#E8C842;" d="M144.775,88.835c-1.306-1.595-53.426-65.253-52.644-64.298c-1.94-2.369-2.434-5.337-1.734-7.988
	L68.918,32.651c-4.926,3.693-4.764,11.133,0.316,14.61c-1.019-0.696,66.88,45.764,68.581,46.929
	c4.459,3.051,9.726,1.453,12.381-2.16C148.215,91.703,146.291,90.686,144.775,88.835z"/>
<g>
	<path style="fill:#F7E7A1;" d="M382.705,120.212c-1.314-4.061,0.912-8.417,4.973-9.731l49.641-16.066
		c4.062-1.309,8.417,0.914,9.731,4.972c1.314,4.061-0.912,8.417-4.973,9.731l-49.641,16.066
		C388.376,126.497,384.019,124.274,382.705,120.212z"/>
	<path style="fill:#F7E7A1;" d="M121.743,125.185l-49.641-16.066c-4.06-1.314-6.286-5.67-4.973-9.731
		c1.315-4.059,5.67-6.283,9.731-4.972l49.641,16.066c4.06,1.314,6.286,5.67,4.973,9.731
		C130.16,124.271,125.806,126.498,121.743,125.185z"/>
	<path style="fill:#F7E7A1;" d="M170.773,81.295l-0.307-52.175c-0.025-4.266,3.414-7.747,7.681-7.772c4.38,0,7.747,3.5,7.772,7.681
		l0.306,52.175c0.025,4.266-3.414,7.747-7.681,7.772C174.166,88.978,170.798,85.478,170.773,81.295z"/>
	<path style="fill:#F7E7A1;" d="M332.855,88.978c-4.267-0.025-7.706-3.505-7.681-7.772l0.307-52.175
		c0.025-4.251,3.48-7.681,7.725-7.681c4.281,0,7.753,3.483,7.727,7.772l-0.306,52.175C340.603,85.472,337.242,88.978,332.855,88.978
		z"/>
	<path style="fill:#F7E7A1;" d="M183.758,460.919c-3.258-2.755-3.667-7.631-0.911-10.891l33.69-39.843
		c2.756-3.257,7.631-3.664,10.889-0.912c3.258,2.755,3.666,7.631,0.911,10.891l-33.69,39.843
		C191.888,463.271,187.013,463.671,183.758,460.919z"/>
	<path style="fill:#F7E7A1;" d="M319.762,460.008l-33.69-39.843c-2.755-3.258-2.348-8.134,0.911-10.891
		c3.258-2.753,8.134-2.347,10.889,0.912l33.69,39.843c2.755,3.258,2.348,8.134-0.911,10.891
		C327.404,463.663,322.528,463.278,319.762,460.008z"/>
</g>
<g>
</g>
<g>
</g>
<g>
</g>
<g>
</g>
<g>
</g>
<g>
</g>
<g>
</g>
<g>
</g>
<g>
</g>
<g>
</g>
<g>
</g>
<g>
</g>
<g>
</g>
<g>
</g>
<g>
</g>
</svg>
