<?xml version="1.0" encoding="iso-8859-1"?>
<!-- Generator: Adobe Illustrator 19.0.0, SVG Export Plug-In . SVG Version: 6.00 Build 0)  -->
<svg version="1.1" id="Capa_1" xmlns="http://www.w3.org/2000/svg" xmlns:xlink="http://www.w3.org/1999/xlink" x="0px" y="0px"
	 viewBox="0 0 512.001 512.001" style="enable-background:new 0 0 512.001 512.001;" xml:space="preserve">
<path style="fill:#7C6359;" d="M459.932,386.774h-1.611c23.376-29.92,1.846-73.817-36.887-73.817h-2.478
	c-1.088,0,19.356-11.469,18.995-37.818c-0.345-25.128-21.36-45.079-46.49-45.079h-2.854l-7.225-12.113
	c23.245-30.373,0.612-73.458-37.178-73.458c-0.21,0-3.087,0-2.981,0c-0.113,0-14.236,0-13.389,0c-0.485,0-2.894,0-2.787,0
	c-0.104,0-1.144,0-1.041,0c-0.846,0-8.274,0-7.844,0c-0.017-0.022-0.023-0.031-0.039-0.053
	c21.217-72.988-46.316-109.52-79.464-122.723c-6.27-2.497-12.768,2.902-11.583,9.547c2.522,14.131-9.559,36.641-34.992,62.075
	c-10.837,10.828-12.359,26.986-5.202,39.43l6.742,11.724c-0.107,0-10.362,0-10.258,0c-0.198,0-2.787,0-2.647,0
	c-0.104,0-1.286,0-1.182,0c-0.103,0-0.539,0-0.436,0c-0.138,0-2.057,0-1.951,0c-0.105,0-7.367,0-7.16,0h-0.194
	c-37.793,0-60.42,43.088-37.178,73.458l-7.225,12.113h-2.854c-25.131,0-46.147,19.952-46.491,45.08
	c-0.212,15.543,7.341,29.326,19.019,37.743c0.198,0.145-0.561,0.035-2.502,0.074c-38.733,0-60.264,43.897-36.887,73.817h-1.611
	C23.43,386.774,0,410.205,0,438.841v0.001c0,28.637,23.43,52.068,52.068,52.068h407.866c28.637,0,52.068-23.431,52.068-52.068
	v-0.001C512,410.205,488.57,386.774,459.932,386.774z"/>
<path style="fill:#705850;" d="M277.696,43.892c-14.422-10.453-29.73-17.676-41.038-22.179c-6.27-2.497-12.768,2.902-11.583,9.547
	c2.522,14.131-9.559,36.641-34.992,62.075c-10.837,10.828-12.359,26.987-5.202,39.43l6.742,11.724c-0.107,0-10.362,0-10.258,0
	c-0.198,0-2.787,0-2.647,0c-0.104,0-1.286,0-1.182,0c-0.103,0-0.539,0-0.436,0c-0.138,0-2.057,0-1.951,0c-0.105,0-7.367,0-7.16,0
	h-0.194c-37.793,0-60.42,43.088-37.178,73.458l-7.225,12.113h-2.854c-25.131,0-46.148,19.953-46.491,45.082
	c-0.211,15.543,7.341,29.324,19.019,37.741c0.198,0.145-0.561,0.035-2.502,0.074c-38.733,0-60.264,43.897-36.887,73.817h-1.611
	C23.431,386.774,0,410.205,0,438.842l0,0c0,28.637,23.431,52.068,52.068,52.068h53.603c-28.637,0-52.068-23.431-52.068-52.068
	v-0.001c0-24.646,17.359-45.423,40.452-50.737c2.971-0.683,5.476-2.667,6.824-5.401l0,0c1.017-2.061,1.03-4.451,0.142-6.571
	c-10.402-24.847,3.839-54.06,30.164-61.42c2.338-0.653,4.319-2.206,5.393-4.384l0.088-0.179c1.275-2.586,1.022-5.657-0.644-8.011
	c-5.253-7.419-8.352-16.471-8.375-26.249c-0.06-25.209,21.286-45.831,46.495-45.831h2.854l7.225-12.113
	c-23.242-30.37-0.615-73.458,37.178-73.458h0.194c-0.206,0,7.055,0,7.16,0c-0.106,0,1.813,0,1.951,0c-0.103,0,0.332,0,0.436,0
	c-0.104,0,1.078,0,1.182,0c-0.14,0,2.45,0,2.647,0c4.56,0,7.421-4.933,5.148-8.885l-1.632-2.839
	c-7.157-12.444-5.635-28.602,5.202-39.43C262.506,74.515,274.005,57.301,277.696,43.892z"/>
<circle style="fill:#EAE9E8;" cx="174.811" cy="252.444" r="56.078"/>
<path style="fill:#DBDBDB;" d="M148.627,267.563c-13.261-22.969-8.413-51.407,10.092-68.832c-4.084,1.227-8.094,2.926-11.947,5.15
	c-26.821,15.485-36.011,49.782-20.526,76.604s49.782,36.011,76.604,20.526c3.854-2.224,7.329-4.848,10.433-7.771
	C188.941,300.554,161.888,290.532,148.627,267.563z"/>
<path style="fill:#EAE9E8;" d="M143.818,360.739c46.418,89.327,173.226,91.66,223.56,6.004c5.918-10.071-1.311-22.762-12.991-22.762
	H154.008C145.404,343.981,139.851,353.105,143.818,360.739z"/>
<path style="fill:#DBDBDB;" d="M195.128,360.739c-3.065-7.635,1.225-16.759,7.873-16.759h-48.993
	c-8.604,0-14.157,9.124-10.19,16.759c26.307,50.628,78.437,73.298,127.833,67.856C240.882,424.206,211.518,401.564,195.128,360.739z
	"/>
<circle style="fill:#EAE9E8;" cx="337.189" cy="252.444" r="56.078"/>
<path style="fill:#DBDBDB;" d="M311.004,267.563c-13.261-22.969-8.413-51.407,10.092-68.832c-4.084,1.227-8.094,2.926-11.947,5.15
	c-26.821,15.485-36.011,49.782-20.526,76.604s49.782,36.011,76.604,20.526c3.854-2.224,7.329-4.848,10.433-7.771
	C351.318,300.554,324.265,290.532,311.004,267.563z"/>
<g>
	<circle style="fill:#656566;" cx="321.698" cy="252.444" r="12.094"/>
	<circle style="fill:#656566;" cx="190.302" cy="252.444" r="12.094"/>
</g>
<g>
</g>
<g>
</g>
<g>
</g>
<g>
</g>
<g>
</g>
<g>
</g>
<g>
</g>
<g>
</g>
<g>
</g>
<g>
</g>
<g>
</g>
<g>
</g>
<g>
</g>
<g>
</g>
<g>
</g>
</svg>
