<?xml version="1.0" encoding="iso-8859-1"?>
<!-- Generator: Adobe Illustrator 19.0.0, SVG Export Plug-In . SVG Version: 6.00 Build 0)  -->
<svg version="1.1" id="Capa_1" xmlns="http://www.w3.org/2000/svg" xmlns:xlink="http://www.w3.org/1999/xlink" x="0px" y="0px"
	 viewBox="0 0 511.96 511.96" style="enable-background:new 0 0 511.96 511.96;" xml:space="preserve">
<circle style="fill:#F4D44E;" cx="256" cy="255.961" r="255.96"/>
<path style="fill:#E8C842;" d="M172.714,451.824C11.266,358.611,1.463,130.355,150.783,22.624
	C103.51,43.893,62.233,79.663,34.334,127.982c-70.68,122.423-28.735,278.964,93.687,349.645
	c90.093,52.015,198.66,43.029,277.89-14.133C333.415,496.111,246.817,494.606,172.714,451.824z"/>
<g>
	<circle style="fill:#ED694A;" cx="403.889" cy="251.512" r="19.371"/>
	<circle style="fill:#ED694A;" cx="108.111" cy="251.512" r="19.371"/>
</g>
<g>
	<path style="fill:#D8553A;" d="M403.901,232.156c-3.295-0.005-6.635,0.814-9.694,2.58c-9.265,5.349-12.439,17.197-7.091,26.462
		c7.503,12.994,26.181,12.781,33.542-0.015C413.975,261.172,396.456,245.093,403.901,232.156z"/>
	<path style="fill:#D8553A;" d="M108.117,232.155c-14.77-0.02-24.284,16.052-16.785,29.042c7.502,12.993,26.179,12.782,33.544-0.015
		C109.977,261.16,100.671,245.095,108.117,232.155z"/>
</g>
<g>
	<path style="fill:#656566;" d="M272.022,378.385l-24.808-7.92c-4.072-1.3-8.428,0.947-9.729,5.02
		c-1.301,4.073,0.947,8.428,5.02,9.729c23.336,7.092,25.697,9.074,32.34,9.074c6.768,0,13.321-2.752,18.157-7.862
		c10.45-11.042,9.201-28.547,1.133-37.05c9.762-10.235,7.5-27.929-1.133-37.05c-6.61-6.983-16.423-9.562-25.688-6.708l-24.808,7.92
		c-4.072,1.301-6.319,5.656-5.02,9.729c1.301,4.073,5.658,6.318,9.729,5.02l24.733-7.896c3.522-1.083,7.279-0.096,9.81,2.579
		c3.815,4.031,4.409,12.443,1.116,15.794c-4.256,4.329-9.369,2.402-15.569,2.874c-4.275,0-7.741,3.466-7.741,7.741
		c0,4.275,3.466,7.741,7.741,7.741c6.197,0.471,11.314-1.456,15.569,2.874c3.293,3.35,2.699,11.763-1.116,15.793
		C279.224,378.456,275.464,379.444,272.022,378.385z"/>
	<path style="fill:#656566;" d="M301.84,225.981c3.552,2.383,8.361,1.431,10.74-2.119c7.88-11.754,19.151-11.881,27.117,0
		c2.394,3.57,7.209,4.489,10.74,2.119c3.552-2.381,4.501-7.189,2.12-10.74c-6.701-9.997-16.331-15.73-26.418-15.73
		c-10.088,0-19.717,5.733-26.419,15.73C297.339,218.791,298.288,223.6,301.84,225.981z"/>
	<path style="fill:#656566;" d="M157.231,215.087c-2.381,3.551-1.431,8.359,2.12,10.74c3.552,2.381,8.36,1.431,10.74-2.12
		c7.881-11.754,19.151-11.881,27.117,0.001c2.382,3.552,7.192,4.502,10.74,2.119c3.552-2.381,4.501-7.189,2.12-10.74
		C196.061,194.194,171.332,194.05,157.231,215.087z"/>
	<path style="fill:#656566;" d="M319.596,165.084c16.493-4.304,34.267-1.602,50.047,7.606c3.692,2.152,8.432,0.91,10.588-2.785
		c2.155-3.692,0.908-8.432-2.784-10.588c-19.343-11.286-41.278-14.558-61.759-9.214c-4.137,1.079-6.615,5.307-5.536,9.444
		C311.231,163.685,315.462,166.167,319.596,165.084z"/>
	<path style="fill:#656566;" d="M142.357,172.689c15.781-9.208,33.554-11.908,50.047-7.606c4.135,1.082,8.365-1.399,9.444-5.536
		c1.079-4.137-1.399-8.365-5.536-9.444c-20.484-5.345-42.417-2.072-61.759,9.214c-3.692,2.155-4.939,6.894-2.784,10.588
		C133.935,173.616,138.682,174.834,142.357,172.689z"/>
</g>
<g>
</g>
<g>
</g>
<g>
</g>
<g>
</g>
<g>
</g>
<g>
</g>
<g>
</g>
<g>
</g>
<g>
</g>
<g>
</g>
<g>
</g>
<g>
</g>
<g>
</g>
<g>
</g>
<g>
</g>
</svg>
