<?xml version="1.0" encoding="iso-8859-1"?>
<!-- Generator: Adobe Illustrator 19.0.0, SVG Export Plug-In . SVG Version: 6.00 Build 0)  -->
<svg version="1.1" id="Capa_1" xmlns="http://www.w3.org/2000/svg" xmlns:xlink="http://www.w3.org/1999/xlink" x="0px" y="0px"
	 viewBox="0 0 512 512" style="enable-background:new 0 0 512 512;" xml:space="preserve">
<path style="fill:#92A4CC;" d="M433.292,73.836C274.171-85.269,4.822,30.623,5.279,251.425
	c0.205,7.131,7.011,169.675,215.268,253.407c21.057,8.467,45.501,9.992,67.004,1.55c212.074-83.258,218.963-247.782,219.17-254.957
	C506.863,182.404,478.884,119.431,433.292,73.836z"/>
<path style="fill:#859BC1;" d="M271.89,504.833C63.632,421.101,56.827,258.556,56.621,251.425
	C56.333,111.533,164.345,13.754,284.01,1.341C145.819-13.128,4.948,91.691,5.279,251.425c0.205,7.131,7.011,169.675,215.268,253.407
	c19.286,7.753,41.404,9.66,61.509,3.446C278.603,507.302,275.201,506.164,271.89,504.833z"/>
<ellipse transform="matrix(0.5 -0.866 0.866 0.5 -66.4109 433.6597)" style="fill:#656566;" cx="342.36" cy="274.344" rx="71.208" ry="49.225"/>
<path style="fill:#4F4F51;" d="M389.769,223.849c-3.08-4.584-7.009-8.396-11.795-11.16c-23.544-13.594-58.569,2.996-78.232,37.052
	c-25.726,44.559-11.133,91.202,25.57,91.007C298.574,300.955,340.735,224.108,389.769,223.849z"/>
<ellipse transform="matrix(0.5 0.866 -0.866 0.5 322.4196 -9.7293)" style="fill:#656566;" cx="169.636" cy="274.363" rx="71.208" ry="49.225"/>
<path style="fill:#4F4F51;" d="M157.557,284.975c-16.22-28.094-16.904-59.284-3.436-76.979c-7.157-0.301-14.013,1.181-20.099,4.695
	c-23.544,13.593-26.69,52.221-7.028,86.278c23.371,40.48,67.73,55.303,88.696,27.755
	C195.161,325.862,172.137,310.228,157.557,284.975z"/>
<path style="fill:#656566;" d="M219.535,402.89c-2.956-3.079-2.856-7.971,0.222-10.925c3.078-2.958,7.97-2.856,10.925,0.222
	c16.022,16.691,33.692,17.647,50.633,0c2.955-3.078,7.846-3.178,10.925-0.222c3.079,2.955,3.178,7.846,0.222,10.925
	C269.918,426.375,242.109,426.404,219.535,402.89z"/>
<g>
</g>
<g>
</g>
<g>
</g>
<g>
</g>
<g>
</g>
<g>
</g>
<g>
</g>
<g>
</g>
<g>
</g>
<g>
</g>
<g>
</g>
<g>
</g>
<g>
</g>
<g>
</g>
<g>
</g>
</svg>
