<?xml version="1.0" encoding="iso-8859-1"?>
<!-- Generator: Adobe Illustrator 19.0.0, SVG Export Plug-In . SVG Version: 6.00 Build 0)  -->
<svg version="1.1" id="Capa_1" xmlns="http://www.w3.org/2000/svg" xmlns:xlink="http://www.w3.org/1999/xlink" x="0px" y="0px"
	 viewBox="0 0 512 512" style="enable-background:new 0 0 512 512;" xml:space="preserve">
<path style="fill:#DBDBDB;" d="M473.549,285.494c-8.535-17.026-6.722-4.512-6.723-74.51c0-55.335-21.678-105.948-56.76-143.516
	C284.425-67.329,62.514,12.945,46.021,192.63c-1.646,18.059-0.382,60.459-0.817,72.842c0,16.677-14.991,23.034-13.276,52.812
	c0.988,16.774,8.223,32.487,19.182,43.739c8.719,8.89,10.288,8.86,61.361,39.031c12.745,7.53,21.862,19.94,25.236,34.354
	c4.035,17.235,5.442,34.75,5.04,52.423c0,0.107,0,8.022,0,7.896c0.109,2.193,0.058,1.481,0.201,2.433
	c0.305,2.03,0.965,4.022,2.178,6.016c1.492,2.452,3.386,3.978,3.28,3.881c2.338,2.172,6.299,3.938,10.566,3.938l0,0h0.001l0,0h0.001
	c0.11-0.032,9.255,0.152,14.039-8.126c1.061-1.836,3.453-1.578,4.418,0.072c2.816,4.816,8.026,8.054,13.997,8.054l0,0h0.001l0,0
	h0.001c0.11-0.032,9.191,0.16,13.994-8.062c1.1-1.884,3.488-1.68,4.45-0.026c5.394,9.274,17.942,10.8,25.409,3.394l0,0l0,0
	c2.972-2.934,2.579-4.707,4.389-4.707c1.311,0,1.933,1.218,1.933,1.218l0.003-0.003c6.212,10.856,22.415,10.935,28.736,0.143v0.001
	c0.396-0.732,1.041-1.36,1.878-1.36c1.227,0,1.98,1.434,1.98,1.434l0.002-0.005c0.771,1.298,1.66,2.406,2.544,3.278l0,0l0,0
	c5.095,5.053,11.295,4.652,11.398,4.694c0.111-0.032,9.282,0.144,14.054-8.163c0.753-1.311,2.249-1.267,2.147-1.238
	c0.919,0,1.766,0.49,2.227,1.285c4.944,8.54,13.924,8.087,14.027,8.117c0.111-0.033,9.341,0.146,14.099-8.243
	c0.695-1.226,2.113-1.187,2.01-1.159c0.977,0,1.874,0.523,2.368,1.366c8.143,13.882,29.355,8.608,30.164-7.39
	c0.064-1.242,0.042-8.846,0.042-8.738c0-0.173,0-8.96,0-8.789c0-14.69,1.691-29.331,5.04-43.634
	c3.375-14.414,12.491-26.824,25.236-34.354c52.284-30.881,48.721-28.706,51.396-30.557
	C478.886,351.077,487.707,313.896,473.549,285.494z"/>
<path style="fill:#C1BEBC;" d="M194.243,494.153c0,0.137,0-8.545,0-8.662c0.402-19.386-1.005-38.598-5.04-57.503
	c-3.375-15.811-12.491-29.423-25.236-37.684c-51.073-33.095-52.642-33.063-61.361-42.814
	c-10.958-12.343-18.194-29.579-19.182-47.978c-1.715-32.664,13.276-39.636,13.276-57.929c0.435-13.583-0.829-60.091,0.817-79.9
	c4.38-52.34,23.246-96.99,50.949-131.576C93.756,62.451,52.756,119.248,46.02,192.63c-1.645,18.059-0.382,60.459-0.817,72.842
	c0,16.677-14.991,23.034-13.276,52.811c0.988,16.774,8.223,32.487,19.182,43.739c8.719,8.89,10.288,8.86,61.361,39.031
	c12.745,7.53,21.862,19.94,25.236,34.354c4.035,17.235,5.442,34.75,5.04,52.423c0,0.107,0,8.022,0,7.896
	c0.109,2.193,0.058,1.482,0.201,2.433c0.305,2.03,0.965,4.022,2.178,6.016c1.492,2.452,3.386,3.978,3.28,3.881
	c2.338,2.172,6.299,3.938,10.566,3.938l0,0h0.001l0,0h0.001c0.11-0.032,9.255,0.152,14.039-8.126
	c1.061-1.835,3.453-1.578,4.418,0.072c2.816,4.816,8.026,8.054,13.997,8.054l0,0h0.001l0,0h0.001c0.082-0.024,5.124,0.07,9.68-3.258
	C197.072,505.563,194.545,500.806,194.243,494.153z"/>
<path style="fill:#656566;" d="M238.256,356.744l-11.557,16.859c-6.499,9.48,3.051,21.699,13.823,17.69
	c13.307-4.954,14.932-5.737,18.939-4.281l11.809,4.293c10.818,3.933,20.317-8.324,13.809-17.818l-11.476-16.743
	C265.091,344.328,246.766,344.328,238.256,356.744z"/>
<path style="fill:#4F4F51;" d="M281.364,368.068c-2.81,1.705-6.374,2.267-10.095,0.915l-11.809-4.293
	c-4.007-1.457-5.632-0.672-18.939,4.281c-3.7,1.378-7.257,0.84-10.068-0.845l-3.754,5.478c-6.499,9.479,3.051,21.698,13.823,17.689
	c13.307-4.954,14.932-5.737,18.939-4.281l11.809,4.293c10.818,3.933,20.317-8.323,13.809-17.818L281.364,368.068z"/>
<path style="fill:#656566;" d="M383.65,269.353c0-27.373-23.755-49.565-53.059-49.565c-3.937,0-3.959-0.043-6.511,0l0,0
	c-42.349,1.829-45.82,62.398-6.016,90.856c30.78,22.007,65.202,7.183,65.582-27.754h0.004v-13.537H383.65z"/>
<path style="fill:#4F4F51;" d="M343.811,304.466c-32.633-23.333-36.172-68.241-13.052-84.673c-5.005-0.022-4.831-0.035-6.68-0.004
	v0.001c-42.349,1.829-45.82,62.398-6.016,90.856c18.184,13,37.632,13.141,50.589,3.882
	C360.594,313.604,352.073,310.373,343.811,304.466z"/>
<path style="fill:#656566;" d="M128.385,269.353c0-27.373,23.755-49.565,53.059-49.565c2.702-0.003,5.007-0.025,6.511,0l0,0
	c42.349,1.829,45.819,62.398,6.016,90.856c-30.78,22.007-65.202,7.183-65.582-27.754h-0.004v-13.537H128.385z"/>
<path style="fill:#4F4F51;" d="M154.372,268.501h-0.004c1.011-7.219-4.603-28.33,14.151-47.224
	c-23.055,5.393-40.132,24.869-40.132,48.077v13.538h0.004c0.411,37.822,40.386,51.526,72.078,22.481
	C176.241,311.142,154.671,296.113,154.372,268.501z"/>
<g>
</g>
<g>
</g>
<g>
</g>
<g>
</g>
<g>
</g>
<g>
</g>
<g>
</g>
<g>
</g>
<g>
</g>
<g>
</g>
<g>
</g>
<g>
</g>
<g>
</g>
<g>
</g>
<g>
</g>
</svg>
