<?xml version="1.0" encoding="iso-8859-1"?>
<!-- Generator: Adobe Illustrator 19.0.0, SVG Export Plug-In . SVG Version: 6.00 Build 0)  -->
<svg version="1.1" id="Capa_1" xmlns="http://www.w3.org/2000/svg" xmlns:xlink="http://www.w3.org/1999/xlink" x="0px" y="0px"
	 viewBox="0 0 512.001 512.001" style="enable-background:new 0 0 512.001 512.001;" xml:space="preserve">
<path style="fill:#D8A982;" d="M449.63,140.302c-4.893,0-9.597,0.793-14.005,2.237c6.875,19.052,10.265,39.042,9.988,59.567
	c4.747,8.917,8.859,18.037,12.33,27.309c20.85-3.901,36.635-22.185,36.635-44.167C494.577,160.425,474.454,140.302,449.63,140.302z"
	/>
<path style="fill:#CC9D72;" d="M487.672,161.321c4.369,6.931,6.905,15.131,6.905,23.928c0,21.982-15.784,40.267-36.635,44.167
	c-2.808-7.503-6.045-14.903-9.69-22.18C468.058,199.646,483.133,182.424,487.672,161.321z"/>
<path style="fill:#755E56;" d="M448.528,122.854c-6.603,0-12.972,1.016-18.964,2.896c3.689,7.583,6.821,15.452,9.366,23.556
	c24.199-6.28,47.84,12.085,47.84,37.021c0,18.271-12.882,33.582-30.039,37.347c3.198,7.881,5.931,15.881,8.187,23.968
	c27.078-7.245,47.082-31.982,47.082-61.315C512,151.328,483.526,122.854,448.528,122.854z"/>
<path style="fill:#68504A;" d="M486.77,186.327c0-4.934-0.938-9.605-2.61-13.884c3.166-7.538,4.928-15.806,4.928-24.482
	c0-3.832-0.361-7.581-1.015-11.228C502.641,148.373,512,166.272,512,186.327c0,29.332-20.003,54.07-47.082,61.315
	c-2.256-8.087-4.989-16.086-8.187-23.968C473.888,219.908,486.77,204.598,486.77,186.327z"/>
<path style="fill:#D8A982;" d="M62.37,140.302c4.892,0,9.597,0.793,14.005,2.237c-6.875,19.052-10.265,39.042-9.989,59.567
	c-4.747,8.917-8.859,18.037-12.33,27.309c-20.85-3.901-36.635-22.185-36.635-44.167C17.423,160.425,37.546,140.302,62.37,140.302z"
	/>
<path style="fill:#CC9D72;" d="M24.328,161.321c-4.369,6.931-6.905,15.131-6.905,23.928c0,21.982,15.784,40.267,36.635,44.167
	c2.808-7.503,6.045-14.903,9.69-22.18C43.942,199.646,28.867,182.424,24.328,161.321z"/>
<path style="fill:#755E56;" d="M63.472,122.854c6.603,0,12.972,1.016,18.964,2.896c-3.689,7.583-6.821,15.452-9.366,23.556
	c-24.199-6.28-47.84,12.085-47.84,37.021c0,18.271,12.882,33.582,30.039,37.347c-3.198,7.881-5.932,15.881-8.187,23.968
	C20.004,240.396,0,215.659,0,186.327C0,151.328,28.474,122.854,63.472,122.854z"/>
<path style="fill:#68504A;" d="M25.23,186.327c0-4.934,0.938-9.605,2.61-13.884c-3.166-7.538-4.928-15.806-4.928-24.482
	c0-3.832,0.361-7.581,1.015-11.228C9.359,148.373,0,166.272,0,186.327c0,29.332,20.003,54.07,47.082,61.315
	c2.256-8.087,4.989-16.086,8.187-23.968C38.112,219.908,25.23,204.598,25.23,186.327z"/>
<path style="fill:#7C6359;" d="M447.885,202.106c1.359-100.803-85.9-181.518-191.822-181.518
	c-105.654,0-193.15,80.437-191.822,181.518c-19.032,35.757-27.866,74.771-26.046,113.747c1.255,26.878,11.594,52.847,29.616,74.753
	l0,0c13.41,16.299,30.061,29.996,48.892,40.643l278.942-0.124c43.472-24.657,75.969-65.657,78.287-115.271
	C475.753,276.876,466.918,237.862,447.885,202.106z"/>
<path style="fill:#705850;" d="M182.927,390.606L182.927,390.606c-18.022-21.905-28.36-47.874-29.616-74.753
	c-1.821-38.976,7.014-77.99,26.046-113.747c-1.077-81.953,56.237-150.332,134.275-173.277c-18.21-5.354-37.555-8.24-57.569-8.24
	c-105.654,0-193.15,80.437-191.822,181.518c-19.032,35.757-27.866,74.771-26.046,113.747c1.255,26.878,11.594,52.847,29.616,74.753
	l0,0c13.41,16.299,30.061,29.996,48.892,40.643l115.027-0.051C212.936,420.557,196.316,406.88,182.927,390.606z"/>
<path style="fill:#F2C29E;" d="M406.61,202.741c3.254-81.781-69.542-126.159-113.623-85.26l-8.536,7.919
	c-16.01,14.854-40.765,14.854-56.775,0c-4.815-3.504-18.376-22.264-44.643-23.133c-63.718-2.128-101.257,91.38-61.25,154.992
	c4.992,7.948,5.177,18.282,0.369,26.351c-24.567,41.208-22.036,91.893,8.656,131.599l8.151-9.269
	c16.34,29.593,42.375,42.649,68.443,41.424l-10.224,15.436c37.549,13.807,80.484,13.8,118.086-0.116l-10.243-15.307
	c0.154,0.007,0.311,0.017,0.465,0.023c3.071,0.11,6.117,0.013,9.126-0.279c0.299-0.029,0.595-0.067,0.894-0.1
	c0.414-0.046,0.828-0.089,1.239-0.142c0.337-0.043,0.672-0.094,1.008-0.142c0.372-0.053,0.744-0.107,1.115-0.166
	c0.343-0.055,0.683-0.115,1.025-0.175c0.362-0.063,0.724-0.128,1.085-0.198c1.045-0.2,2.252-0.464,3.108-0.67
	c1.241-0.299,2.788-0.712,4.106-1.115c1.377-0.42,3.114-1.009,4.833-1.675c1.284-0.496,2.528-1.012,3.963-1.667
	c1.181-0.539,2.546-1.205,3.815-1.879c1.59-0.844,2.794-1.545,4.102-2.353c0.947-0.583,2.185-1.367,3.875-2.563
	c10.811-7.649,18.105-16.907,24.48-28.493l0,0l8.187,9.268c30.509-39.593,33.152-90.111,8.531-131.44
	c-4.808-8.069-4.624-18.404,0.369-26.351C399.608,242.519,405.775,223.672,406.61,202.741z"/>
<path style="fill:#EAB794;" d="M186.401,420.906c-35.003-40.444-39.099-93.985-13.289-137.278
	c4.808-8.069,4.623-18.404-0.369-26.351c-32.495-51.669-14.112-127.407,32.832-149.109c-9.127-4.692-21.082-7.734-36.188-4.814
	c-57.659,11.143-83.461,97.096-47.721,153.924c4.992,7.948,5.177,18.282,0.369,26.351c-25.81,43.294-21.715,96.835,13.289,137.278
	c35.78,41.328,92.969,58.216,146.199,50.361C245.221,465.926,210.824,449.115,186.401,420.906z"/>
<g>
	<path style="fill:#755E56;" d="M372.224,404.749c-16.175,29.403-41.869,42.55-67.774,41.617c-0.154-0.005-0.311-0.016-0.465-0.023
		l26.231,38.691c2.667,3.986,7.147,6.378,11.942,6.378h93.834c5.015,0,7.684-5.918,4.364-9.677L372.224,404.749z"/>
	<path style="fill:#755E56;" d="M139.991,404.907l-67.682,76.828c-3.32,3.758-0.652,9.677,4.364,9.677h93.834
		c4.795,0,9.275-2.393,11.942-6.378l25.985-38.703C182.574,447.547,156.435,434.686,139.991,404.907z"/>
</g>
<g>
	<path style="fill:#68504A;" d="M372.721,405.31l-0.497-0.561c-0.202,0.369-0.414,0.723-0.619,1.087
		C371.978,405.665,372.349,405.485,372.721,405.31z"/>
	<path style="fill:#68504A;" d="M362.268,480.765l-27.286-40.247c-9.741,4.316-20.118,6.221-30.532,5.846
		c-0.154-0.006-0.311-0.016-0.466-0.023l26.231,38.691c2.667,3.986,7.146,6.378,11.942,6.378H382.2
		C374.197,491.412,366.719,487.418,362.268,480.765z"/>
	<path style="fill:#68504A;" d="M106.755,481.735l49.105-55.74c-5.903-5.746-11.265-12.754-15.867-21.088L72.31,481.735
		c-3.32,3.759-0.652,9.677,4.364,9.677h34.444C106.102,491.412,103.434,485.495,106.755,481.735z"/>
</g>
<path style="fill:#C6976F;" d="M257.067,287.661c-11.63,1.698-21.988,9.493-28.264,19.429
	c-14.071,22.276-12.466,57.298,16.542,102.215c18.541,28.709,40.878,37.401,60.138,38.094c24.805,0.894,48.067-11.696,62.013-32.229
	c13.313-19.601,26.183-50.456,5.998-81.029c-10.06-15.236-28.653-21.749-46.122-13.015
	C327.372,321.127,291.788,282.592,257.067,287.661z"/>
<path style="fill:#BF8C62;" d="M270.727,409.305c-29.009-44.917-30.614-79.938-16.542-102.215
	c5.252-8.314,13.367-15.115,22.687-18.112c-20.686-5.295-37.54,1.444-48.069,18.112c-14.07,22.276-12.466,57.298,16.542,102.215
	c18.541,28.71,40.878,37.401,60.138,38.095c5.146,0.185,10.223-0.217,15.167-1.143C304.005,443.102,286.068,433.059,270.727,409.305
	z"/>
<path style="fill:#CC9D72;" d="M228.803,307.09c6.095-9.649,16.042-17.26,27.26-19.249c-34.785-6.163-71.205,33.236-71.309,33.284
	c-17.44-8.72-36.046-2.244-46.122,13.015c-20.185,30.574-7.315,61.428,5.998,81.029c24.773,36.475,77.147,45.85,111.434,8.176
	C237.148,402.562,204.701,345.248,228.803,307.09z"/>
<path style="fill:#BF8C62;" d="M158.718,364.145c10.076-15.26,28.682-21.735,46.122-13.015c0.042-0.02,6.016-6.465,15.413-13.733
	c0.513-27.632,17.058-46.231,35.81-49.555c-34.785-6.163-71.205,33.236-71.309,33.284c-17.44-8.72-36.046-2.244-46.122,13.015
	c-20.185,30.574-7.315,61.428,5.998,81.029c2.985,4.396,6.374,8.392,10.082,11.965C146.878,408.992,143.961,386.496,158.718,364.145
	z"/>
<g>
	<path style="fill:#B27F59;" d="M265.524,382.899c1.521,2.059,3.867,3.147,6.243,3.147c6.253,0,10.055-7.187,6.231-12.362
		l-49.195-66.594l0,0c-3.129,4.954-5.478,10.542-6.928,16.725L265.524,382.899z"/>
	<path style="fill:#B27F59;" d="M343.692,317.195c-4.938-0.049-10.408,0.996-16.228,3.888c5.191,7.195,14.781,21.44,20.659,36.016
		c1.604,3.977,6.123,5.891,10.093,4.291c3.972-1.602,5.893-6.121,4.291-10.094C357.228,338.206,349.461,325.654,343.692,317.195z"/>
	<path style="fill:#B27F59;" d="M308.118,350.362l-50.64-62.753c-5.542,0.758-10.61,2.791-15.244,5.806l53.814,66.686
		c2.69,3.335,7.572,3.855,10.904,1.165C310.286,358.578,310.808,353.695,308.118,350.362z"/>
	<path style="fill:#B27F59;" d="M220.826,329.524l-18.28,22.652c-2.69,3.334-2.168,8.215,1.164,10.905
		c3.334,2.689,8.216,2.167,10.904-1.165l6.874-8.519C219.992,344.743,219.831,336.772,220.826,329.524z"/>
	<path style="fill:#B27F59;" d="M158.879,362.989c3.166,0,6.14-1.954,7.287-5.102c5.09-13.969,12.841-27.707,18.475-36.814
		c-5.653-2.805-10.978-3.871-15.804-3.882c-5.642,9.487-12.436,22.193-17.244,35.387
		C149.745,357.649,153.524,362.989,158.879,362.989z"/>
</g>
<ellipse style="fill:#656566;" cx="306.939" cy="248.275" rx="14.66" ry="18.608"/>
<path style="fill:#4F4F51;" d="M307.646,229.713c-9.098-0.543-15.362,8.853-15.362,18.563c0,17.198,16.934,25.191,25.781,12.102
	C305.792,259.639,299.788,241.339,307.646,229.713z"/>
<ellipse style="fill:#656566;" cx="205.181" cy="248.275" rx="14.66" ry="18.608"/>
<path style="fill:#4F4F51;" d="M202.349,241.815c0-4.625,1.338-8.847,3.537-12.102c-0.234-0.014-0.465-0.045-0.702-0.045
	c-8.096,0-14.66,8.331-14.66,18.608s6.564,18.608,14.66,18.608c4.453,0,8.433-2.529,11.122-6.507
	C208.538,259.91,202.349,251.791,202.349,241.815z"/>
<g>
</g>
<g>
</g>
<g>
</g>
<g>
</g>
<g>
</g>
<g>
</g>
<g>
</g>
<g>
</g>
<g>
</g>
<g>
</g>
<g>
</g>
<g>
</g>
<g>
</g>
<g>
</g>
<g>
</g>
</svg>
