<?xml version="1.0" encoding="iso-8859-1"?>
<!-- Generator: Adobe Illustrator 19.0.0, SVG Export Plug-In . SVG Version: 6.00 Build 0)  -->
<svg version="1.1" id="Capa_1" xmlns="http://www.w3.org/2000/svg" xmlns:xlink="http://www.w3.org/1999/xlink" x="0px" y="0px"
	 viewBox="0 0 512 512" style="enable-background:new 0 0 512 512;" xml:space="preserve">
<path style="fill:#7C6359;" d="M435.351,254.602c-9.641-15.606-10.674-43.435-10.674-43.435c1.12-86.893-2.483-87.349,3.234-96.018
	c-31.717-57.623-98.04-97.041-172.159-97.041c-73.944,0-140.137,39.235-171.932,96.638c2.202,3.171,3.502,6.967,3.502,11.11v85.31
	c0,0-1.034,27.828-10.674,43.435l0.003-0.005l-0.033,143.771c25.379,25.446,61.425,43.055,98.853,50.544h160.562
	c37.673-7.538,73.915-25.331,99.348-51.045l-0.033-143.27L435.351,254.602z"/>
<path style="fill:#705850;" d="M174.009,427.728L174.009,427.728c-17.957-24.053-28.258-52.567-29.509-82.081
	c-1.814-42.798,6.989-85.636,25.953-124.898c-1.127-94.509,61.921-172.567,145.665-193.67c-19.096-5.817-39.418-8.97-60.364-8.97
	c-73.944,0-140.137,39.235-171.932,96.638c2.202,3.171,3.502,6.967,3.502,11.11v85.31c0,0-1.034,27.828-10.674,43.435l0.003-0.005
	l-0.033,143.771c25.379,25.446,61.425,43.055,98.853,50.544h17.204C185.928,442.388,179.675,435.318,174.009,427.728z"/>
<path style="fill:#F2C29E;" d="M330.527,99.461c-14.466,0-27.778,5.722-37.984,15.193l-8.505,7.891
	c-15.952,14.801-40.617,14.801-56.57,0c-5.157-3.752-23.203-28.706-57.962-21.986c-57.451,11.103-83.16,96.746-47.549,153.369
	c4.974,7.918,5.158,18.216,0.367,26.256c-25.718,43.137-21.637,96.484,13.241,136.783c58.434,67.493,174.171,69.574,235.924,4.896
	c39.737-41.598,43.875-97.733,17.694-141.68c-4.791-8.04-4.607-18.338,0.367-26.256C428.766,191.526,393.256,99.461,330.527,99.461z
	"/>
<path style="fill:#EAB794;" d="M186.457,416.967c-34.878-40.298-38.959-93.646-13.241-136.783c4.791-8.04,4.607-18.338-0.368-26.256
	c-32.378-51.483-14.06-126.948,32.713-148.572c-9.094-4.675-21.006-7.707-36.057-4.796c-57.451,11.103-83.16,96.746-47.549,153.369
	c4.974,7.918,5.158,18.217,0.368,26.256c-25.717,43.137-21.636,96.484,13.242,136.783c35.652,41.179,92.634,58.006,145.672,50.18
	C245.064,461.825,210.792,445.074,186.457,416.967z"/>
<path style="fill:#656566;" d="M186.624,347.683c28.941,55.694,108.003,57.148,139.385,3.743c3.689-6.278-0.818-14.192-8.1-14.192
	H192.977C187.613,337.234,184.15,342.923,186.624,347.683z"/>
<path style="fill:#4F4F51;" d="M212.38,347.683c-2.474-4.76,0.989-10.448,6.353-10.448h-25.756c-5.364,0-8.827,5.689-6.353,10.448
	c17.098,32.905,51.692,46.871,83.612,41.782C246.847,385.74,224.913,371.801,212.38,347.683z"/>
<path style="fill:#ED694A;" d="M263.55,363.496c-13.322,5.485-17.459-5.452-40.335-4.368c-8.595,0.408-16.71,2.702-23.993,6.445
	c30.187,32.682,83.994,33.429,115.356,0.934C298.142,357.366,279.393,356.972,263.55,363.496z"/>
<path style="fill:#D8553A;" d="M219.784,359.399c-7.322,0.785-14.251,2.932-20.554,6.17c18.392,19.72,45.496,28.052,70.984,23.891
	C250.924,386.383,232.632,376.352,219.784,359.399z"/>
<g>
	<path style="fill:#CC9D72;" d="M242.42,304.416c-4.267,0-7.727-3.459-7.727-7.727v-3.23c0-4.268,3.46-7.727,7.727-7.727
		s7.727,3.459,7.727,7.727v3.23C250.147,300.957,246.688,304.416,242.42,304.416z"/>
	<path style="fill:#CC9D72;" d="M269.084,304.416c-4.267,0-7.727-3.459-7.727-7.727v-3.23c0-4.268,3.46-7.727,7.727-7.727
		s7.727,3.459,7.727,7.727v3.23C276.811,300.957,273.352,304.416,269.084,304.416z"/>
</g>
<path style="fill:#755E56;" d="M511.925,478.009l-13.574-235.404c-15.155,20.499-41.317,23.646-55.098,18.138
	c-4.066-1.625-7.336-4.978-9.966-9.237l0.052,227.983c-0.733,7.739,5.795,14.4,14.114,14.4h49.049
	C505.656,493.89,512.815,486.518,511.925,478.009z"/>
<path style="fill:#68504A;" d="M459.096,479.49l-0.05-216.383c-5.995,0.229-11.495-0.646-15.793-2.364
	c-4.066-1.625-7.335-4.978-9.966-9.237l0.052,227.983c-0.733,7.739,5.795,14.4,14.114,14.4h25.756
	C464.891,493.89,458.362,487.229,459.096,479.49z"/>
<path style="fill:#755E56;" d="M0.075,478.009l13.574-235.404c15.155,20.499,41.317,23.646,55.098,18.138
	c4.067-1.625,7.336-4.978,9.966-9.237L78.66,479.49c0.733,7.739-5.795,14.4-14.114,14.4h-49.05
	C6.343,493.89-0.816,486.518,0.075,478.009z"/>
<path style="fill:#68504A;" d="M27.83,478.009l12.51-216.968c-9.71-2.823-19.456-8.647-26.692-18.436L0.075,478.009
	c-0.891,8.509,6.268,15.881,15.422,15.881h27.756C34.099,493.89,26.94,486.518,27.83,478.009z"/>
<path style="fill:#CC9D72;" d="M422.616,211.167c0,0,1.671,45.088,20.637,52.668c23.008,9.196,80.544-5.712,63.706-85.273
	c-10.771-50.896-34.578-67.028-56.664-72.522c-13.971-3.475-27.679,6.342-27.679,19.816L422.616,211.167z"/>
<path style="fill:#BF8C62;" d="M468.981,263.835c-18.966-7.581-20.637-52.668-20.637-52.668v-85.31
	c0-7.382,4.12-13.661,10.14-17.263c-2.737-1.04-5.476-1.878-8.188-2.552c-13.971-3.475-27.679,6.342-27.679,19.816v85.31
	c0,0,1.671,45.088,20.637,52.668c6.967,2.784,17.099,3.353,27.374,0.591C470.064,264.241,469.51,264.047,468.981,263.835z"/>
<path style="fill:#B27F59;" d="M466.433,112.255c-5.34-2.92-10.789-4.884-16.138-6.214c-4.426-1.101-8.824-0.865-12.77,0.397
	c0.116,0.055,0.229,0.115,0.35,0.165c16.28,6.716,27.231,31.255,32.551,72.937c0.498,3.902,3.822,6.75,7.655,6.75
	c4.648,0,8.265-4.072,7.674-8.706C482.009,148.236,475.708,126.752,466.433,112.255z"/>
<path style="fill:#CC9D72;" d="M89.383,211.167c0,0-1.671,45.088-20.637,52.668c-23.008,9.196-80.544-5.712-63.706-85.273
	c10.771-50.896,34.578-67.028,56.664-72.522c13.971-3.475,27.679,6.342,27.679,19.816L89.383,211.167z"/>
<path style="fill:#BF8C62;" d="M30.796,175.336c8.36-40.958,24.574-60.195,41.741-69.421c-3.425-0.775-7.118-0.798-10.833,0.126
	c-22.086,5.494-45.893,21.624-56.664,72.522c-16.478,77.861,38.271,93.798,62.181,85.824
	C43.534,257.834,19.041,232.923,30.796,175.336z"/>
<path style="fill:#B27F59;" d="M74.125,106.604c0.12-0.05,0.232-0.11,0.35-0.165c-3.946-1.26-8.344-1.497-12.77-0.397
	c-5.348,1.331-10.796,3.293-16.137,6.214c-9.275,14.496-15.577,35.98-19.323,65.33c-0.54,4.232,2.454,8.102,6.686,8.643
	c4.249,0.541,8.104-2.468,8.643-6.686C46.893,137.858,57.845,113.318,74.125,106.604z"/>
<ellipse style="fill:#656566;" cx="306.699" cy="244.888" rx="14.607" ry="18.541"/>
<path style="fill:#4F4F51;" d="M303.871,238.456c0-4.608,1.333-8.815,3.525-12.059c-0.233-0.014-0.464-0.045-0.699-0.045
	c-8.067,0-14.607,8.301-14.607,18.541s6.54,18.541,14.607,18.541c4.437,0,8.403-2.52,11.082-6.483
	C310.038,256.485,303.871,248.395,303.871,238.456z"/>
<ellipse style="fill:#656566;" cx="205.301" cy="244.888" rx="14.607" ry="18.541"/>
<path style="fill:#4F4F51;" d="M202.479,238.456c0-4.608,1.333-8.815,3.525-12.059c-0.233-0.014-0.464-0.045-0.699-0.045
	c-8.067,0-14.607,8.301-14.607,18.541s6.54,18.541,14.607,18.541c4.437,0,8.403-2.52,11.082-6.483
	C208.646,256.485,202.479,248.395,202.479,238.456z"/>
<g>
</g>
<g>
</g>
<g>
</g>
<g>
</g>
<g>
</g>
<g>
</g>
<g>
</g>
<g>
</g>
<g>
</g>
<g>
</g>
<g>
</g>
<g>
</g>
<g>
</g>
<g>
</g>
<g>
</g>
</svg>
