<?xml version="1.0" encoding="iso-8859-1"?>
<!-- Generator: Adobe Illustrator 19.0.0, SVG Export Plug-In . SVG Version: 6.00 Build 0)  -->
<svg version="1.1" id="Capa_1" xmlns="http://www.w3.org/2000/svg" xmlns:xlink="http://www.w3.org/1999/xlink" x="0px" y="0px"
	 viewBox="0 0 512 512" style="enable-background:new 0 0 512 512;" xml:space="preserve">
<path style="fill:#D8A982;" d="M435.9,142.947c6.851,18.983,10.228,38.902,9.952,59.353c4.729,8.885,8.827,17.973,12.285,27.211
	c20.775-3.887,36.502-22.105,36.502-44.008C494.64,155.05,464.84,133.461,435.9,142.947z"/>
<path style="fill:#CC9D72;" d="M487.76,161.661c4.352,6.905,6.88,15.075,6.88,23.842c0,21.903-15.728,40.121-36.502,44.008
	c-2.798-7.476-6.023-14.85-9.655-22.1C468.216,199.849,483.236,182.688,487.76,161.661z"/>
<path style="fill:#755E56;" d="M448.756,123.333c-6.579,0-12.926,1.012-18.895,2.885c3.676,7.556,6.796,15.396,9.332,23.471
	c24.112-6.257,47.667,12.041,47.667,36.888c0,18.206-12.836,33.46-29.93,37.213c3.187,7.853,5.91,15.824,8.158,23.882
	C492.069,240.452,512,215.804,512,186.577C512,151.704,483.629,123.333,448.756,123.333z"/>
<path style="fill:#68504A;" d="M486.861,186.577c0-4.917-0.935-9.57-2.601-13.834c3.154-7.511,4.91-15.749,4.91-24.394
	c0-3.819-0.359-7.554-1.011-11.188C502.675,148.76,512,166.595,512,186.577c0,29.226-19.931,53.874-46.912,61.094
	c-2.248-8.058-4.971-16.028-8.158-23.882C474.025,220.037,486.861,204.782,486.861,186.577z"/>
<path style="fill:#D8A982;" d="M77.945,142.947c-6.851,18.983-10.228,38.902-9.952,59.353c-4.729,8.885-8.827,17.973-12.285,27.211
	c-20.776-3.888-36.503-22.106-36.503-44.009C19.204,155.05,49.005,133.461,77.945,142.947z"/>
<path style="fill:#CC9D72;" d="M26.085,161.661c-4.353,6.905-6.88,15.075-6.88,23.842c0,21.903,15.728,40.121,36.502,44.008
	c2.798-7.476,6.023-14.85,9.655-22.1C45.628,199.849,30.609,182.688,26.085,161.661z"/>
<path style="fill:#755E56;" d="M65.088,123.333c6.579,0,12.926,1.012,18.895,2.885c-3.676,7.556-6.796,15.396-9.332,23.471
	c-24.112-6.257-47.668,12.041-47.668,36.888c0,18.206,12.836,33.46,29.93,37.213c-3.187,7.853-5.91,15.824-8.158,23.882
	c-26.981-7.219-46.912-31.867-46.912-61.094C1.845,151.704,30.216,123.333,65.088,123.333z"/>
<path style="fill:#68504A;" d="M26.985,186.577c0-4.917,0.935-9.57,2.601-13.834c-3.154-7.511-4.91-15.749-4.91-24.394
	c0-3.819,0.359-7.554,1.011-11.188C11.171,148.76,1.846,166.595,1.846,186.577c0,29.226,19.931,53.874,46.912,61.094
	c2.248-8.058,4.971-16.028,8.158-23.882C39.821,220.037,26.985,204.782,26.985,186.577z"/>
<path style="fill:#7C6359;" d="M255.753,18.109c-105.75,0-192.481,80.619-191.13,180.863C45.658,234.6,36.856,273.474,38.67,312.309
	c1.021,21.865,8.077,43.124,20.404,62.07l393.625-0.408c12.163-18.843,19.124-39.954,20.138-61.662
	c1.814-38.837-6.989-77.711-25.954-113.338C448.237,98.537,361.298,18.109,255.753,18.109z"/>
<path style="fill:#705850;" d="M153.327,312.309c-1.814-38.836,6.989-77.709,25.953-113.337
	c-1.096-81.338,55.8-149.751,133.79-172.666c-18.13-5.326-37.392-8.197-57.318-8.197c-105.75,0-192.481,80.619-191.13,180.863
	C45.658,234.6,36.856,273.474,38.67,312.309c1.021,21.865,8.077,43.124,20.404,62.07l114.583-0.118
	C161.377,355.345,154.346,334.129,153.327,312.309z"/>
<path style="fill:#F2C29E;" d="M404.306,170.931c-13.471-66.221-74.638-89.969-110.949-56.279l-8.505,7.891
	c-15.952,14.801-40.617,14.801-56.57,0l-8.506-7.891c-36.174-33.563-97.448-10.079-110.949,56.279
	c-5.758,28.308-1.02,59.205,13.942,82.996c4.974,7.918,5.158,18.216,0.367,26.256c-3.011,5.05-5.506,10.068-7.639,15.163
	c-20.607,49.291-5.188,106.064,42.914,142.076c45.747,34.242,96.183,31.277,98.154,31.604c113.747,0,183.991-103.971,133.43-188.843
	c-4.791-8.04-4.607-18.338,0.367-26.256C405.529,229.795,409.985,198.848,404.306,170.931z"/>
<path style="fill:#EAB794;" d="M174.049,280.183c4.791-8.04,4.607-18.338-0.368-26.256c-32.378-51.483-14.06-126.948,32.713-148.572
	c-9.094-4.675-21.006-7.707-36.057-4.796c-57.451,11.103-83.16,96.746-47.549,153.369c4.974,7.918,5.158,18.217,0.368,26.256
	c-25.717,43.138-21.636,96.485,13.241,136.783c35.652,41.179,92.634,58.006,145.671,50.18
	C182.268,452.463,127.798,357.763,174.049,280.183z"/>
<g>
	<path style="fill:#CC9D72;" d="M242.421,304.416c-4.267,0-7.727-3.459-7.727-7.727v-3.23c0-4.268,3.46-7.727,7.727-7.727
		s7.727,3.459,7.727,7.727v3.23C250.148,300.956,246.689,304.416,242.421,304.416z"/>
	<path style="fill:#CC9D72;" d="M269.085,304.416c-4.267,0-7.727-3.459-7.727-7.727v-3.23c0-4.268,3.46-7.727,7.727-7.727
		c4.267,0,7.727,3.459,7.727,7.727v3.23C276.811,300.956,273.352,304.416,269.085,304.416z"/>
</g>
<path style="fill:#755E56;" d="M510.503,477.084l-108.027-194.98c-19.265,27.133-45.084,35.751-68.169,30.823l72.557,167.604
	c3.568,8.155,11.186,13.358,19.555,13.358h75.277C509.705,493.89,514.643,484.468,510.503,477.084z"/>
<path style="fill:#68504A;" d="M442.272,479.362l-73.361-169.46c-11.468,4.601-23.36,5.426-34.604,3.026l72.558,167.604
	c3.568,8.155,11.186,13.358,19.555,13.358h37.121C454.437,493.89,446.151,488.23,442.272,479.362z"/>
<path style="fill:#755E56;" d="M1.497,477.084l108.027-194.98c19.32,27.211,45.17,35.733,68.169,30.823l-72.558,167.604
	c-3.568,8.155-11.186,13.358-19.555,13.358H10.303C2.294,493.89-2.643,484.468,1.497,477.084z"/>
<path style="fill:#68504A;" d="M35.495,477.084l95.994-173.261c-7.842-5.156-15.294-12.321-21.965-21.718L1.497,477.084
	c-4.14,7.384,0.798,16.807,8.806,16.807h33.998C36.292,493.89,31.355,484.468,35.495,477.084z"/>
<path style="fill:#CC9D72;" d="M198.456,152.557c10.872-0.058,21.425,6.08,28.539,14.935c15.949,19.853,19.321,54.596-1.008,103.166
	c-24.524,58.592-80.8,59.029-110.926,23.959c-14.887-17.331-30.923-45.813-16.684-78.939c7.106-16.529,23.227-25.685,40.391-19.687
	C138.769,195.99,165.994,152.73,198.456,152.557z"/>
<path style="fill:#BF8C62;" d="M124.106,236.283c7.106-16.529,23.227-25.685,40.391-19.687c0.103-0.069,32.514-50.909,66.97-42.549
	c-8.477-14.625-21.575-21.551-33.011-21.49c-32.46,0.173-59.687,43.434-59.687,43.434c-17.164-5.998-33.285,3.158-40.391,19.687
	c-14.24,33.126,1.797,61.608,16.684,78.939c6.747,7.854,14.807,13.921,23.527,17.959
	C124.398,295.07,110.567,267.779,124.106,236.283z"/>
<g>
	<path style="fill:#B27F59;" d="M197.584,152.579l-37.76,69.563c-2.036,3.75-0.646,8.441,3.104,10.477
		c3.726,2.022,8.428,0.669,10.477-3.105l39.792-73.306C208.269,153.726,203.102,152.417,197.584,152.579z"/>
	<path style="fill:#B27F59;" d="M226.684,167.123l-36.081,73.507c-1.881,3.83-0.3,8.461,3.532,10.34
		c3.822,1.879,8.458,0.307,10.34-3.532l31.374-63.916C233.663,177.452,230.636,171.932,226.684,167.123z"/>
	<path style="fill:#B27F59;" d="M124.144,234.578c2.871-15.11,10.872-30.453,14.354-38.673c-6.097-2.078-11.542-2.157-16.249-1.159
		c-3.723,9.303-10.646,23.036-13.288,36.948c-0.797,4.192,1.957,8.237,6.149,9.033C119.302,241.522,123.348,238.77,124.144,234.578z
		"/>
</g>
<path style="fill:#CC9D72;" d="M313.544,152.557c-10.872-0.058-21.425,6.08-28.539,14.935
	c-15.949,19.853-19.321,54.596,1.008,103.166c24.524,58.592,80.8,59.029,110.926,23.959c14.887-17.331,30.923-45.813,16.684-78.939
	c-7.106-16.529-23.227-25.685-40.391-19.687C373.231,195.99,346.006,152.73,313.544,152.557z"/>
<path style="fill:#BF8C62;" d="M311.769,265.713c-20.329-48.571-16.957-83.314-1.008-103.167c2.897-3.606,6.369-6.748,10.196-9.218
	c-31.576-6.323-70.275,32.915-34.944,117.329c18.652,44.566,55.673,55.48,85.586,42.724
	C348.474,312.644,325.293,298.026,311.769,265.713z"/>
<g>
	<path style="fill:#B27F59;" d="M314.416,152.579l37.76,69.563c2.81,5.178-0.992,11.414-6.783,11.414
		c-2.742,0-5.398-1.463-6.797-4.042l-39.792-73.306C303.731,153.726,308.898,152.417,314.416,152.579z"/>
	<path style="fill:#B27F59;" d="M285.316,167.123l36.082,73.507c1.881,3.83,0.3,8.461-3.532,10.34
		c-3.822,1.879-8.458,0.307-10.34-3.532l-31.374-63.916C278.337,177.452,281.363,171.932,285.316,167.123z"/>
	<path style="fill:#B27F59;" d="M387.855,234.578c-2.871-15.11-10.872-30.453-14.354-38.673c6.097-2.078,11.542-2.157,16.249-1.159
		c3.723,9.303,10.646,23.036,13.288,36.948c0.797,4.192-1.957,8.237-6.149,9.033C392.698,241.522,388.652,238.77,387.855,234.578z"
		/>
</g>
<path style="fill:#656566;" d="M186.056,347.683c28.941,55.694,108.003,57.148,139.385,3.743c3.689-6.279-0.818-14.192-8.1-14.192
	H192.41C187.045,337.234,183.584,342.922,186.056,347.683z"/>
<path style="fill:#4F4F51;" d="M211.813,347.683c-2.474-4.76,0.989-10.448,6.353-10.448H192.41c-5.364,0-8.827,5.689-6.353,10.448
	c17.098,32.905,51.692,46.871,83.612,41.782C246.28,385.74,224.345,371.802,211.813,347.683z"/>
<path style="fill:#ED694A;" d="M262.983,363.495c-13.322,5.485-17.459-5.452-40.335-4.368c-8.595,0.408-16.71,2.702-23.993,6.445
	c30.187,32.682,83.994,33.429,115.356,0.934C297.575,357.365,278.826,356.972,262.983,363.495z"/>
<path style="fill:#D8553A;" d="M219.217,359.398c-7.322,0.785-14.251,2.932-20.554,6.17c18.41,19.74,45.561,28.042,70.984,23.891
	C250.357,386.383,232.065,376.352,219.217,359.398z"/>
<g>
</g>
<g>
</g>
<g>
</g>
<g>
</g>
<g>
</g>
<g>
</g>
<g>
</g>
<g>
</g>
<g>
</g>
<g>
</g>
<g>
</g>
<g>
</g>
<g>
</g>
<g>
</g>
<g>
</g>
</svg>
