<?xml version="1.0" encoding="iso-8859-1"?>
<!-- Generator: Adobe Illustrator 19.0.0, SVG Export Plug-In . SVG Version: 6.00 Build 0)  -->
<svg version="1.1" id="Capa_1" xmlns="http://www.w3.org/2000/svg" xmlns:xlink="http://www.w3.org/1999/xlink" x="0px" y="0px"
	 viewBox="0 0 512.001 512.001" style="enable-background:new 0 0 512.001 512.001;" xml:space="preserve">
<path style="fill:#ED694A;" d="M460.246,257.662L460.246,257.662c-14.096-17.337-34.389-11.784-34.494-11.791
	c-44.484,9.618-68.336,1.183-80.892-8.707l0,0c-7.614-7.569-12.678-17.108-14.822-27.332h-2.857v-33.794
	c-66.248,2.025-119.719-68.748-146.01-66.867c-7.813,0.559-15.384-3.492-18.43-10.709c-5.233-12.399,3.183-24.945,15.312-25.932
	c49.822-4.055,98.312,74.198,153.906,66.273c2.124-0.31,4.209-0.22,6.201,0.177c3.419-30.447,3.594-70.58-4.718-100.307
	c-4.778-13.166-16.902-15.648-23.627-15.962c-1.894,0.058-2.948,0.074-4.668,0.107l-0.002-0.004
	c-45.594,0.632-94.054-9.587-119.136-17.511C115.478-16.977,45.408,33.525,42.423,108.413
	c-5.647,141.69,15.874,339.596,179.607,395.206c19.485,6.617,42.005,9.683,64.371,7.865c3.85-0.342,31.792-3.864,37.844-34.41
	c3.8-23.335-5.315-38.693-7.377-91.472c0,0-3.783-58.29,27.066-57.327l76.454,2.385c18.614,0,33.389-6.497,42.889-20.891
	C473.858,293.735,472.366,272.569,460.246,257.662z"/>
<path style="fill:#D8553A;" d="M275.059,503.619C111.326,448.009,89.804,250.103,95.452,108.413
	c2.108-52.914,37.712-93.646,83.304-105.138C110.75-13.476,45.305,36.094,42.423,108.413
	c-5.647,141.69,15.874,339.596,179.607,395.206c19.484,6.618,42.005,9.683,64.371,7.865c1.281-0.114,5.232-0.586,10.151-2.281
	C289.108,507.813,281.894,505.94,275.059,503.619z"/>
<path style="fill:#656566;" d="M193.854,305.122C147.369,293.001,80.816,266.787,44.2,212.1
	c4.095,50.224,13.66,101.548,32.463,147.487c26.285-12.077,66.71-27.687,116.597-37.387
	C202.424,320.417,202.888,307.478,193.854,305.122z"/>
<path style="fill:#4F4F51;" d="M122.737,341.155c-8.175-23.503-14.195-48.123-18.507-73.071
	c-22.901-14.144-44.248-32.413-60.031-55.983c9.209,100.55,29.845,138.422,32.463,147.487
	C89.044,353.899,104.568,347.425,122.737,341.155z"/>
<path style="fill:#EAE9E8;" d="M332.024,175.774c-26.211,2.212-50.508-7.31-72.03-19.798c-32.826,14.713-28.499,59.704,8.277,75.774
	c24.291,10.615,51.336,2.393,60.407-18.364c0.512-1.171,0.954-2.359,1.36-3.553C326.976,195.231,330.792,185.81,332.024,175.774z"/>
<path style="fill:#DBDBDB;" d="M294.472,231.75c-31.661-13.835-39.246-49.09-19.804-68.022c-5.021-2.377-9.915-4.992-14.674-7.752
	c-32.826,14.713-28.499,59.704,8.277,75.774c11.699,5.112,24.032,5.843,34.693,2.922
	C300.118,233.938,297.276,232.975,294.472,231.75z"/>
<path style="fill:#EAE9E8;" d="M237.148,399.302c-3.629,2.37-4.65,7.233-2.279,10.863c2.36,3.612,7.217,4.659,10.862,2.278
	c0.287-0.187,28.756-18.44,71.542-18.968c-0.295-4.722-0.605-10.958-0.538-15.69C269.633,378.46,238.472,398.438,237.148,399.302z"
	/>
<g>
	<circle style="fill:#656566;" cx="298.494" cy="200.632" r="10.537"/>
	<path style="fill:#656566;" d="M181.035,109.183c-10.121,0.824-18.993-6.713-19.817-16.834
		c-0.824-10.121,6.713-18.993,16.834-19.817c49.823-4.055,98.312,74.197,153.906,66.273c10.043-1.466,19.364,5.556,20.796,15.608
		c1.432,10.053-5.557,19.364-15.608,20.795C266.191,185.324,208.581,106.94,181.035,109.183z"/>
</g>
<path style="fill:#4F4F51;" d="M345.086,159.512c-70.955,10.116-128.565-68.268-156.11-66.026
	c-10.121,0.824-18.993-6.713-19.817-16.834c-0.025-0.313-0.019-0.62-0.029-0.931c-5.238,3.611-8.465,9.831-7.911,16.628
	c0.824,10.121,9.696,17.657,19.817,16.834c27.545-2.241,85.155,76.143,156.11,66.026c9.375-1.336,16.079-9.526,15.779-18.778
	C350.652,158,348.004,159.096,345.086,159.512z"/>
<g>
</g>
<g>
</g>
<g>
</g>
<g>
</g>
<g>
</g>
<g>
</g>
<g>
</g>
<g>
</g>
<g>
</g>
<g>
</g>
<g>
</g>
<g>
</g>
<g>
</g>
<g>
</g>
<g>
</g>
</svg>
