<?xml version="1.0" encoding="iso-8859-1"?>
<!-- Generator: Adobe Illustrator 19.0.0, SVG Export Plug-In . SVG Version: 6.00 Build 0)  -->
<svg version="1.1" id="Capa_1" xmlns="http://www.w3.org/2000/svg" xmlns:xlink="http://www.w3.org/1999/xlink" x="0px" y="0px"
	 viewBox="0 0 512 512" style="enable-background:new 0 0 512 512;" xml:space="preserve">
<path style="fill:#ED694A;" d="M354.465,55.373c3.065,1.333,6.152,2.782,9.254,4.358l12.863-40.058
	c2.72-7.675-1.296-16.1-8.97-18.821c-7.672-2.719-16.098,1.299-18.82,8.97l-12.586,39.226
	C342.415,50.696,348.522,52.789,354.465,55.373z"/>
<path style="fill:#D8553A;" d="M361.306,16.002c2.083-5.873,7.512-9.592,13.385-9.798c-1.695-2.388-4.109-4.3-7.079-5.353
	c-7.672-2.719-16.098,1.299-18.82,8.97l-12.586,39.227c4.438,1.179,8.821,2.595,13.134,4.245L361.306,16.002z"/>
<path style="fill:#ED694A;" d="M148.271,59.735c9.977-5.068,18.457-8.28,27.512-10.686L163.207,9.822
	c-2.719-7.673-11.149-11.691-18.82-8.97c-7.673,2.72-11.69,11.146-8.969,18.821L148.271,59.735z"/>
<path style="fill:#D8553A;" d="M148.697,16.067c-2.021-5.7-0.32-11.81,3.83-15.694c-2.618-0.589-5.425-0.485-8.14,0.479
	c-7.674,2.72-11.69,11.146-8.969,18.821l12.853,40.062c4.437-2.253,8.57-4.124,12.596-5.735L148.697,16.067z"/>
<path style="fill:#656566;" d="M439.605,158.083l0.003-0.001c-7.3-11.534-21.462-33.911-25.276-39.938
	c-0.563-0.89,0.076-2.05,1.129-2.05h11.081c1.822,0,2.849-2.094,1.742-3.541c-23.236-30.374-49.261-48.561-73.818-59.24
	c-43.25-18.808-82.555-7.398-82.082-7.431c-17.881,4.011-32.875-0.012-32.769,0c-61.336-13.758-117.604,16.611-155.9,66.67
	c-1.107,1.447-0.079,3.541,1.742,3.541h11.081c1.053,0,1.692,1.161,1.129,2.05c-7.51,11.864-24.018,37.949-25.276,39.938
	l0.003,0.001c-23.753,38.21-32.349,82.333-26.652,125.414l1.727,13.066c0.186,1.411,1.799,2.127,2.971,1.32l8.933-6.154
	c6.186-4.261-11.695,55.62,36.339,112.948l-0.005,0.004c1.468,1.609,4.992,6.135,12.034,12.178l39.094,33.549
	c1.857,1.593,4.739,0.468,5.026-1.962l0.626-5.317c0.216-1.834,2.301-2.788,3.826-1.749c0,0,46.413,30.858,93.134,68.239
	c3.6,2.881,8.911,3.36,12.768,0.271c46.835-37.502,93.473-68.51,93.473-68.51c1.526-1.039,3.61-0.084,3.826,1.749l0.626,5.317
	c0.287,2.43,3.169,3.555,5.026,1.962c37.179-32.377,41.968-34.849,50.917-45.489c0.088-0.105,0.298-0.343,0.209-0.237l-0.005-0.004
	c23.711-28.3,34.923-62.734,34.923-97.292v-14.912c0-0.727,0.817-1.157,1.416-0.743l8.933,6.154c1.172,0.808,2.783,0.091,2.97-1.32
	l1.727-13.066C471.947,240.471,463.388,196.339,439.605,158.083z"/>
<path style="fill:#4F4F51;" d="M227.274,424.634C90.33,321.607,117.109,181.933,117.109,181.933l0,0
	c3.649-18.545,8.783-35.92,16.011-47.547l-0.003-0.001c1.258-1.988,17.767-28.073,25.276-39.938c0.563-0.89-0.076-2.05-1.129-2.05
	h-11.081c-1.822,0-2.85-2.094-1.742-3.541c13.692-17.896,29.68-33.274,47.377-45.021c-42.303,5.911-80.03,32.023-108.102,68.716
	c-1.107,1.447-0.079,3.541,1.742,3.541h11.081c1.053,0,1.692,1.161,1.129,2.05c-7.51,11.864-24.018,37.949-25.276,39.938
	l0.003,0.001c-23.753,38.21-32.348,82.333-26.652,125.414l1.727,13.067c0.186,1.411,1.798,2.127,2.971,1.32l8.933-6.154
	c6.186-4.261-11.695,55.62,36.339,112.949l-0.005,0.004c1.468,1.609,4.992,6.135,12.033,12.178l39.094,33.549
	c1.857,1.593,4.739,0.468,5.027-1.962l0.626-5.317c0.216-1.834,2.301-2.788,3.826-1.749c0,0,46.414,30.858,93.134,68.239
	c3.6,2.881,8.911,3.359,12.768,0.272c13.638-10.92,27.255-21.288,39.713-30.501C271.395,455.416,242.171,434.875,227.274,424.634z"
	/>
<path style="fill:#ED694A;" d="M401.447,218.742c9.487-65.758-44.615-122.115-111.84-122.115h-67.17
	c-67.22,0-121.354,56.352-111.868,122.115c-40.929,95.673,37.874,202.412,145.439,202.412
	C363.823,421.155,442.278,314.187,401.447,218.742z"/>
<path style="fill:#D8553A;" d="M158.394,228.054c2.108-6.097,2.982-12.551,2.651-18.993
	c-3.153-61.516,48.919-112.434,112.814-112.434h-51.424c-67.22,0-121.354,56.353-111.868,122.115
	c-40.929,95.673,37.874,202.412,145.44,202.412c8.788,0,17.376-0.722,25.724-2.08C191.116,404.338,128.906,313.352,158.394,228.054z
	"/>
<circle style="fill:#EAE9E8;" cx="316.728" cy="199.48" r="31.993"/>
<path style="fill:#DBDBDB;" d="M311.324,202.6c-6.544-11.333-5.357-25.002,1.911-34.922c-4.281,0.468-8.537,1.805-12.505,4.095
	c-15.303,8.835-20.545,28.402-11.711,43.704c8.835,15.303,28.401,20.546,43.704,11.711c3.969-2.291,7.254-5.309,9.8-8.782
	C330.298,219.741,317.868,213.934,311.324,202.6z"/>
<circle style="fill:#656566;" cx="316.728" cy="206.364" r="10.332"/>
<circle style="fill:#EAE9E8;" cx="195.271" cy="199.48" r="31.993"/>
<path style="fill:#DBDBDB;" d="M189.872,202.6c-6.544-11.333-5.357-25.002,1.911-34.922c-4.281,0.468-8.537,1.805-12.505,4.095
	c-15.303,8.835-20.545,28.402-11.711,43.704c8.835,15.303,28.401,20.546,43.704,11.711c3.969-2.291,7.254-5.309,9.8-8.782
	C208.845,219.741,196.414,213.934,189.872,202.6z"/>
<circle style="fill:#656566;" cx="195.271" cy="206.364" r="10.332"/>
<path style="fill:#D8553A;" d="M267.151,239.108c1.772,4.374,3.966,7.86,5.871,10.399c2.045,2.723,5.337,4.276,8.731,3.989
	c12.135-1.03,24.676,11.31,17.32,23.649c-5.539,9.289-14.165,9.741-19.224,9.04c-2.63-0.365-5.266,0.328-7.433,1.865
	c-6.889,4.888-14.565,5.446-16.237,5.51v0.01c-0.074,0-0.435,0-0.36,0v-0.01c-1.67-0.064-9.347-0.622-16.237-5.51
	c-2.166-1.537-4.801-2.229-7.433-1.865c-5.059,0.701-13.685,0.249-19.223-9.04c-7.357-12.34,5.184-24.679,17.318-23.65
	c3.394,0.288,6.686-1.264,8.732-3.989c1.902-2.533,4.09-6.011,5.86-10.371c3.226-7.948,11.449-7.726,11.177-7.637
	C260.939,231.498,265.301,234.543,267.151,239.108z"/>
<path style="fill:#CC4732;" d="M251.579,258.385c2.619,0.352,5.161-1.546,6.74-4.875c1.468-3.095,3.156-7.345,4.523-12.676
	c0.566-2.209,1.334-3.899,2.176-5.194c-2.233-2.571-5.471-4.144-9.004-4.144c0.273-0.089-7.951-0.311-11.177,7.637
	c-1.77,4.362-3.959,7.838-5.86,10.371c-2.045,2.723-5.338,4.276-8.732,3.989c-12.134-1.029-24.675,11.31-17.318,23.65
	c5.538,9.289,14.164,9.741,19.223,9.04c2.09-0.29,4.18,0.097,6.038,1.036C232.565,272.162,242.228,257.13,251.579,258.385z"/>
<path style="fill:#F99D91;" d="M256,324.794c-50.1,0-76.78-16.189-89.163-30.304c-1.919-2.187-5.474-0.137-4.502,2.605
	c22.574,63.703,79.296,71.958,93.624,71.794l0,0l0,0l0,0c14.206,0.177,71.092-7.971,93.707-71.793
	c0.972-2.742-2.583-4.793-4.503-2.606C332.78,308.607,306.1,324.794,256,324.794z"/>
<path style="fill:#FC8B75;" d="M224.49,322.346c-30.312-5.046-48.177-17.053-57.654-27.856c-1.919-2.187-5.474-0.137-4.502,2.605
	c22.574,63.703,79.296,71.958,93.624,71.794c3.259,0.041,8.768-0.36,15.59-1.766C258.364,363.318,238.321,352.136,224.49,322.346z"
	/>
<g>
	<path style="fill:#EAE9E8;" d="M263.727,368.403v-20.228c0-4.268-3.46-7.727-7.727-7.727c-4.267,0-7.727,3.459-7.727,7.727v20.232
		C253.869,369.072,258.283,369.051,263.727,368.403z"/>
	<path style="fill:#EAE9E8;" d="M305.879,339.073c-1.689-3.92-6.236-5.725-10.155-4.038c-3.919,1.69-5.726,6.236-4.037,10.155
		l5.61,13.012c4.423-2.205,8.925-4.841,13.383-7.991L305.879,339.073z"/>
	<path style="fill:#EAE9E8;" d="M214.108,357.912l5.484-12.722c1.689-3.919-0.117-8.466-4.037-10.155
		c-3.92-1.688-8.466,0.119-10.155,4.038l-4.633,10.748C205.206,353,209.693,355.676,214.108,357.912z"/>
	<path style="fill:#EAE9E8;" d="M194.793,313.896l-17.569,30.414c-2.134,3.695-0.87,8.422,2.827,10.556
		c3.696,2.135,8.421,0.87,10.556-2.826l19.034-32.951C204.192,317.575,199.252,315.82,194.793,313.896z"/>
	<path style="fill:#EAE9E8;" d="M230.251,323.204l-2.802,13.016c-0.898,4.171,1.755,8.281,5.928,9.18
		c4.226,0.908,8.293-1.807,9.18-5.928l3.211-14.916C240.288,324.3,235.123,323.839,230.251,323.204z"/>
	<path style="fill:#EAE9E8;" d="M317.206,313.896c-4.459,1.924-9.398,3.679-14.847,5.194l19.034,32.951
		c1.431,2.477,4.028,3.863,6.698,3.863c5.893,0,9.671-6.422,6.683-11.594L317.206,313.896z"/>
	<path style="fill:#EAE9E8;" d="M281.048,323.295c-4.878,0.615-10.046,1.059-15.528,1.297l3.203,14.881
		c0.781,3.624,3.984,6.103,7.546,6.103c4.921,0,8.599-4.537,7.562-9.354L281.048,323.295z"/>
</g>
<g>
</g>
<g>
</g>
<g>
</g>
<g>
</g>
<g>
</g>
<g>
</g>
<g>
</g>
<g>
</g>
<g>
</g>
<g>
</g>
<g>
</g>
<g>
</g>
<g>
</g>
<g>
</g>
<g>
</g>
</svg>
