<?xml version="1.0" encoding="iso-8859-1"?>
<!-- Generator: Adobe Illustrator 19.0.0, SVG Export Plug-In . SVG Version: 6.00 Build 0)  -->
<svg version="1.1" id="Capa_1" xmlns="http://www.w3.org/2000/svg" xmlns:xlink="http://www.w3.org/1999/xlink" x="0px" y="0px"
	 viewBox="0 0 512 512" style="enable-background:new 0 0 512 512;" xml:space="preserve">
<path style="fill:#DBBC3B;" d="M348.861,128.223c4.585-22.705,8.291-56.217,4.35-94.377c-1.081-10.458-9.038-14.952-16.74-9.384
	c-15.383,11.122-41.217,34.415-67.492,72.937C298.067,101.651,325.161,112.403,348.861,128.223z"/>
<path style="fill:#CCAF36;" d="M336.471,24.461c-15.383,11.122-41.217,34.415-67.492,72.937
	c15.285,2.234,30.012,6.279,43.992,11.896c7.806-52.459,40.239-75.449,40.239-75.449C352.13,23.388,344.173,18.893,336.471,24.461z"
	/>
<path style="fill:#F4D44E;" d="M471.643,352.996c-0.716-4.84-4.473-11.472-8.08-14.78c-7.136-6.545-22.365-19.271-22.365-27.954
	c-0.489-5.6,3.527-48.672-18.637-97.346c-28.831-63.314-87.413-109.405-156.22-118.987l-121.31,24.405
	C83.457,154.185,40.095,223.244,40.095,302.132C40.095,418.039,130.006,512,240.916,512c77.328,0,149.179-54.059,183.284-121.971
	c3.386-6.743,10.5-10.87,18.007-10.119C460.202,381.711,473.996,368.885,471.643,352.996z"/>
<path style="fill:#E8C842;" d="M303.622,489.337c-118.23,0-214.075-100.163-214.075-223.72c0-55.489,20.129-106.414,52.679-145.619
	c-60.081,36.297-102.13,104.45-102.13,182.135C40.095,418.039,130.006,512,240.916,512c31.97,0,63.002-9.247,90.819-24.887
	C322.475,488.569,313.088,489.337,303.622,489.337z"/>
<g>
	<path style="fill:#656566;" d="M281.3,330.417h-92.589c-4.267,0-7.727-3.459-7.727-7.727c0-4.268,3.46-7.727,7.727-7.727H281.3
		c4.267,0,7.727,3.459,7.727,7.727C289.027,326.958,285.568,330.417,281.3,330.417z"/>
	<path style="fill:#656566;" d="M208.602,381.006l79.329-28.847c4.01-1.46,8.443,0.611,9.902,4.621
		c1.459,4.011-0.61,8.445-4.621,9.903l-79.329,28.847C204.156,399.069,199.108,384.459,208.602,381.006z"/>
	<path style="fill:#656566;" d="M287.931,293.221l-79.329-28.847c-4.011-1.459-6.08-5.892-4.621-9.903
		c1.458-4.009,5.893-6.079,9.902-4.621l79.329,28.847c4.011,1.459,6.08,5.892,4.621,9.903
		C296.375,292.61,291.94,294.678,287.931,293.221z"/>
	<path style="fill:#656566;" d="M409.109,413.483c-23.951-4.023-45.674-0.32-64.565,11.005c-3.848,2.306-4.963,7.087-2.492,10.678
		c2.461,3.574,7.579,4.641,11.441,2.326c13.689-8.207,29.368-11.418,46.674-9.604c3.576-4.581,6.975-9.283,10.182-14.092
		C409.95,413.665,409.539,413.555,409.109,413.483z"/>
</g>
<path style="fill:#4F4F51;" d="M377.805,265.13v-0.065l-20.977-23.728c-2.827-3.197-7.709-3.496-10.906-0.671
	c-3.197,2.827-3.498,7.71-0.671,10.907l25.3,28.62c3.433,3.885,9.652,3.346,12.369-1.069
	C382.542,273.598,380.647,268.678,377.805,265.13z"/>
<path style="fill:#DBBC3B;" d="M152.918,147.663l106.79-20.462c5.849-1.121,9.846-6.533,9.238-12.457
	c-2.989-29.128-9.256-63.365-21.391-100.241c-4.939-15.007-17.995-19.143-27.574-8.737c-0.145,0.158-0.294,0.313-0.45,0.461
	c-3.791,3.599-56.442,54.487-79.692,126.701C137.177,141.199,144.385,149.298,152.918,147.663"/>
<path style="fill:#CCAF36;" d="M219.738,6.015c-35.186,35.922-64.494,79.065-79.899,126.914c-2.662,8.27,4.546,16.368,13.079,14.734
	l34.678-6.644c1.255-82.916,32.152-134.995,32.152-134.995L219.738,6.015z"/>
<ellipse style="fill:#656566;" cx="367.017" cy="281.15" rx="15.98" ry="21.751"/>
<path style="fill:#4F4F51;" d="M363.929,273.598c0-5.407,1.458-10.341,3.857-14.146c-0.255-0.016-0.507-0.052-0.766-0.052
	c-8.826,0-15.98,9.738-15.98,21.751c0,12.012,7.155,21.751,15.98,21.751c4.853,0,9.194-2.956,12.125-7.606
	C370.676,294.748,363.929,285.259,363.929,273.598z"/>
<g>
</g>
<g>
</g>
<g>
</g>
<g>
</g>
<g>
</g>
<g>
</g>
<g>
</g>
<g>
</g>
<g>
</g>
<g>
</g>
<g>
</g>
<g>
</g>
<g>
</g>
<g>
</g>
<g>
</g>
</svg>
