<?xml version="1.0" encoding="iso-8859-1"?>
<!-- Generator: Adobe Illustrator 19.0.0, SVG Export Plug-In . SVG Version: 6.00 Build 0)  -->
<svg version="1.1" id="Capa_1" xmlns="http://www.w3.org/2000/svg" xmlns:xlink="http://www.w3.org/1999/xlink" x="0px" y="0px"
	 viewBox="0 0 512 512" style="enable-background:new 0 0 512 512;" xml:space="preserve">
<path style="fill:#DBBC3B;" d="M408.237,166.191c19.278-54.362,19.416-102.05,16.63-127.404
	c-1.234-11.232-11.625-18.611-21.794-15.554c-51.398,15.453-82.29,44.393-95.525,59.593
	C349.931,96.461,385.648,126.562,408.237,166.191z"/>
<path style="fill:#CCAF36;" d="M422.08,30.723c-3.745-5.478-8.528-7.903-13.589-8.16c-3.077-0.144-5.521,0.702-5.419,0.671
	c-40.342,12.186-73.865,34.709-95.525,59.593c12.252,3.941,23.942,9.267,34.924,15.793c12.255-19.037,33.664-44.679,68.415-65.784
	C414.401,30.7,418.339,30.078,422.08,30.723z"/>
<path style="fill:#DBBC3B;" d="M205.033,82.822c-13.237-15.201-44.128-44.137-95.52-59.588
	c-10.171-3.057-20.561,4.322-21.794,15.554c-2.786,25.353-2.648,73.039,16.629,127.401
	C126.936,126.561,162.651,96.456,205.033,82.822z"/>
<path style="fill:#CCAF36;" d="M109.513,23.235c-4.187-1.138-8.14-0.882-12.015,1.073c-4.503,2.273-6.403,5.72-6.993,6.415
	c3.741-0.645,7.678-0.022,11.193,2.112c34.749,21.104,56.157,46.743,68.412,65.78c10.982-6.526,22.671-11.852,34.922-15.793
	C196.65,75.121,169.502,41.385,109.513,23.235z"/>
<path style="fill:#F4D44E;" d="M440.336,228.998c-7.296-6.959-12.416-16.104-15.56-26.01
	c-23.846-75.13-90.248-129.198-168.484-129.198c-76.704,0-142.032,51.971-167.033,124.809c-4.233,12.334-10.695,23.753-19.516,32.89
	c-30.3,31.379-33.724,81.962-8.198,117.621c0.016,0.03,38.062,73.857,124.61,122.023c43.896,24.43,96.361,24.438,140.258,0.012
	c86.485-48.122,124.545-121.872,124.627-122.031C477.451,312.221,472.669,259.839,440.336,228.998z"/>
<path style="fill:#E8C842;" d="M237.41,485.519c-86.547-49.909-124.594-126.41-124.61-126.441
	c-25.526-36.95-22.101-89.364,8.198-121.879c8.822-9.467,15.283-21.299,19.516-34.08c22.19-66.987,76.149-116.936,141.632-127.324
	C196.586,62.455,117.573,116.111,89.258,198.6c-4.233,12.334-10.695,23.753-19.516,32.89c-30.3,31.379-33.723,81.962-8.198,117.621
	c0.016,0.03,38.062,73.857,124.61,122.022c18.102,10.074,37.661,15.984,57.475,17.751
	C241.54,487.812,239.462,486.702,237.41,485.519z"/>
<path style="fill:#DBBC3B;" d="M257.623,286.486c-19.011-1.138-29.962,21.896-17.336,33.058l11.223,9.921
	c2.739,2.421,6.853,2.421,9.593,0l11.108-9.819C284.416,308.854,274.875,287.518,257.623,286.486z"/>
<path style="fill:#CCAF36;" d="M252.38,313.107c-3.416-10.974,3.814-22.264,12.972-24.638
	c-21.269-10.079-40.256,17.645-25.065,31.074l11.223,9.921c2.221,1.963,5.335,2.306,7.898,1.086
	C256.142,328.603,256.477,324.904,252.38,313.107z"/>
<path style="fill:#656566;" d="M358.762,355.317c-3.505,1.151-7.08,2.089-10.713,2.879c-0.268,0.058-0.542,0.104-0.811,0.16
	l-14.365,31.514c-1.306,2.706-4.982,3.137-6.878,0.805c-2.383-2.929-6.118-4.398-9.862-3.9c-8.869,1.182-28.028,3.073-59.827,3.073
	c-63.124,0-63.323-6.995-68.918-0.118c-2.254,2.771-6.624,2.259-8.176-0.958l-13.395-29.439c-0.287-0.073-0.576-0.14-0.863-0.215
	c-3.637-0.948-7.219-2.042-10.734-3.325c-8.519-3.111-16.088,7.005-11.561,15.57c50.991,96.459,178.876,93.262,227.363-0.611
	C374.338,362.403,367.097,352.58,358.762,355.317z"/>
<path style="fill:#4F4F51;" d="M182.156,391.302c-3.212-0.992-3.312-4.064-4.98-7.009c-2.717-4.09-5.28-8.4-7.674-12.928
	c-1.176-2.225-1.53-4.553-1.269-6.728l-2.412-5.302c-0.287-0.073-0.576-0.14-0.863-0.215c-3.637-0.948-7.219-2.042-10.734-3.325
	c-8.519-3.111-16.088,7.005-11.561,15.57c27.826,52.637,78.549,75.594,126.773,70.337
	C236.687,438.157,204.957,421.512,182.156,391.302z"/>
<path style="fill:#EAE9E8;" d="M265.638,362.593c-36.468,1.507-71.014,4.449-101.36-3.646l14.936,32.826
	c1.553,3.217,5.922,3.729,8.176,0.958c5.595-6.877,5.794,0.118,68.918,0.118c31.798,0,50.958-1.891,59.826-3.073
	c3.743-0.498,7.477,0.971,9.862,3.9c1.896,2.332,5.572,1.9,6.878-0.805l15.87-34.815
	C323.563,363.693,295.427,361.362,265.638,362.593z"/>
<path style="fill:#DBDBDB;" d="M192,363.53c-9.563-0.79-18.824-2.209-27.722-4.583l14.936,32.826
	c1.552,3.217,5.922,3.729,8.176,0.958c3.187-3.917,4.629-3.333,16.938-2.106L192,363.53z"/>
<g>
	<path style="fill:#656566;" d="M504.5,312.736h-89.876c-4.142,0-7.5-3.357-7.5-7.5s3.358-7.5,7.5-7.5H504.5
		c4.142,0,7.5,3.357,7.5,7.5S508.642,312.736,504.5,312.736z"/>
	<path style="fill:#656566;" d="M480.064,375.942l-77.005-28.002c-3.893-1.416-5.901-5.719-4.485-9.613
		c1.415-3.892,5.719-5.9,9.612-4.485l77.005,28.002c3.893,1.416,5.901,5.719,4.485,9.613
		C488.261,375.349,483.955,377.357,480.064,375.942z"/>
	<path style="fill:#656566;" d="M398.574,272.145c-1.416-3.894,0.593-8.197,4.485-9.613l77.005-28.002
		c3.892-1.417,8.197,0.593,9.612,4.485c1.416,3.894-0.593,8.197-4.485,9.613l-77.005,28.002
		C404.301,278.043,399.992,276.044,398.574,272.145z"/>
	<path style="fill:#656566;" d="M97.377,312.736H7.5c-4.142,0-7.5-3.357-7.5-7.5s3.358-7.5,7.5-7.5h89.876
		c4.142,0,7.5,3.357,7.5,7.5S101.519,312.736,97.377,312.736z"/>
	<path style="fill:#656566;" d="M22.323,371.456c-1.416-3.894,0.593-8.197,4.485-9.613l77.005-28.002
		c3.892-1.416,8.196,0.593,9.612,4.485c1.416,3.894-0.593,8.197-4.485,9.613l-77.005,28.002
		C28.051,377.355,23.741,375.356,22.323,371.456z"/>
	<path style="fill:#656566;" d="M103.814,276.63L26.81,248.628c-3.893-1.416-5.901-5.719-4.485-9.613
		c1.415-3.892,5.719-5.898,9.612-4.485l77.005,28.002c3.893,1.416,5.901,5.719,4.485,9.613
		C112.01,276.038,107.705,278.045,103.814,276.63z"/>
	<path style="fill:#656566;" d="M336.62,285.35c-7.633-11.387-18.556-11.513-26.274,0c-2.307,3.441-6.966,4.359-10.407,2.054
		c-3.44-2.307-4.36-6.965-2.053-10.406c13.572-20.246,37.533-20.378,51.194,0c2.306,3.44,1.387,8.099-2.053,10.406
		C343.586,289.711,338.928,288.793,336.62,285.35z"/>
	<path style="fill:#656566;" d="M198.56,285.201c-7.634-11.389-18.556-11.513-26.274,0c-2.307,3.44-6.966,4.358-10.407,2.053
		c-3.441-2.307-4.36-6.965-2.053-10.407c13.571-20.242,37.53-20.38,51.193,0c2.307,3.441,1.387,8.1-2.053,10.407
		C205.525,289.562,200.867,288.643,198.56,285.201z"/>
	<path style="fill:#656566;" d="M365.637,235.768c-15.291-8.921-32.511-11.538-48.491-7.368c-4.008,1.049-8.105-1.355-9.152-5.363
		c-1.046-4.008,1.355-8.104,5.363-9.151c19.846-5.177,41.097-2.008,59.839,8.928c3.578,2.087,4.786,6.68,2.698,10.258
		C373.816,236.637,369.223,237.863,365.637,235.768z"/>
	<path style="fill:#656566;" d="M135.156,233.069c-2.087-3.577-0.879-8.171,2.698-10.258c18.742-10.936,39.993-14.104,59.839-8.928
		c4.008,1.046,6.409,5.143,5.363,9.151s-5.143,6.412-9.152,5.363c-15.979-4.169-33.2-1.552-48.491,7.368
		C141.83,237.863,137.237,236.638,135.156,233.069z"/>
</g>
<path style="fill:#9CD7F2;" d="M407.808,352.885l-49.166-34.917c-4.515-3.207-10.771-0.001-10.805,5.537l-0.381,61.835
	c1.571,26.596,29.941,42.819,53.659,30.684l0,0C425.479,403.56,429.017,370.179,407.808,352.885z"/>
<path style="fill:#71C5DB;" d="M372.513,382.004l-19.682-58.621c-0.84-2.501-0.162-4.95,1.341-6.668
	c-3.329,0.263-6.311,2.971-6.334,6.789l-0.38,61.836c1.571,26.596,29.94,42.818,53.659,30.684l0,0
	c5.822-2.979,10.441-7.16,13.832-12.024C398.233,407.803,379.745,399.642,372.513,382.004z"/>
<path style="fill:#9CD7F2;" d="M102.828,352.885l49.166-34.917c4.515-3.207,10.771-0.001,10.805,5.537l0.381,61.835
	c-1.571,26.596-29.941,42.819-53.659,30.684l0,0C85.157,403.56,81.619,370.179,102.828,352.885z"/>
<path style="fill:#71C5DB;" d="M120.85,370.016l36.831-47.749c1.065-1.381,2.482-2.202,3.974-2.517
	c-2.017-3.008-6.314-4.159-9.662-1.782l-49.166,34.917c-21.209,17.294-17.671,50.675,6.692,63.14l0,0
	c5.975,3.057,12.245,4.31,18.306,4.055C113.862,408.212,109.551,386.875,120.85,370.016z"/>
<path style="fill:#DBBC3B;" d="M257.844,286.065c-19.011-1.138-29.962,21.896-17.336,33.058l11.223,9.921
	c2.739,2.421,6.853,2.421,9.593,0l11.108-9.819C284.637,308.433,275.095,287.098,257.844,286.065z"/>
<path style="fill:#CCAF36;" d="M252.601,312.687c-3.416-10.974,3.814-22.264,12.972-24.638
	c-21.269-10.079-40.256,17.645-25.065,31.074l11.223,9.921c2.221,1.963,5.335,2.306,7.898,1.086
	C256.363,328.183,256.697,324.483,252.601,312.687z"/>
<g>
</g>
<g>
</g>
<g>
</g>
<g>
</g>
<g>
</g>
<g>
</g>
<g>
</g>
<g>
</g>
<g>
</g>
<g>
</g>
<g>
</g>
<g>
</g>
<g>
</g>
<g>
</g>
<g>
</g>
</svg>
