<?xml version="1.0" encoding="iso-8859-1"?>
<!-- Generator: Adobe Illustrator 19.0.0, SVG Export Plug-In . SVG Version: 6.00 Build 0)  -->
<svg version="1.1" id="Capa_1" xmlns="http://www.w3.org/2000/svg" xmlns:xlink="http://www.w3.org/1999/xlink" x="0px" y="0px"
	 viewBox="0 0 512 512" style="enable-background:new 0 0 512 512;" xml:space="preserve">
<path style="fill:#DBBC3B;" d="M409.832,152.499c19.229-54.224,19.366-101.79,16.587-127.079
	c-1.231-11.203-11.595-18.564-21.739-15.515c-51.267,15.413-82.081,44.28-95.282,59.441
	C351.674,82.946,387.299,112.971,409.832,152.499z"/>
<path style="fill:#CCAF36;" d="M423.639,17.375c-3.736-5.464-8.506-7.883-13.554-8.139c-3.069-0.144-5.507,0.701-5.405,0.67
	c-40.239,12.155-73.676,34.621-95.282,59.441c12.221,3.931,23.881,9.244,34.835,15.752c12.224-18.989,33.578-44.565,68.241-65.617
	C415.98,17.353,419.907,16.732,423.639,17.375z"/>
<path style="fill:#DBBC3B;" d="M207.145,69.341c-13.203-15.162-44.016-44.024-95.278-59.436
	c-10.145-3.049-20.508,4.311-21.739,15.515c-2.779,25.289-2.641,72.853,16.586,127.077
	C129.246,112.969,164.87,82.941,207.145,69.341z"/>
<path style="fill:#CCAF36;" d="M111.867,9.906c-4.176-1.135-8.119-0.88-11.984,1.071c-4.491,2.267-6.387,5.706-6.975,6.399
	c3.731-0.643,7.659-0.022,11.165,2.106c34.66,21.05,56.014,46.624,68.238,65.613c10.954-6.509,22.613-11.822,34.834-15.753
	C198.782,61.66,171.704,28.009,111.867,9.906z"/>
<path style="fill:#F4D44E;" d="M441.849,215.146c-7.277-6.941-12.385-16.063-15.521-25.944
	c-23.785-74.938-90.019-128.869-168.055-128.869c-76.509,0-141.671,51.839-166.608,124.492
	c-4.223,12.303-10.668,23.693-19.467,32.806c-30.223,31.299-33.638,81.754-8.177,117.321c0.016,0.03,37.965,73.669,124.293,121.712
	c43.785,24.366,96.116,24.374,139.901,0.011c86.265-48,124.228-121.562,124.31-121.721
	C478.87,298.158,474.099,245.909,441.849,215.146z"/>
<path style="fill:#E8C842;" d="M239.439,471.013c-86.327-49.782-124.277-126.089-124.293-126.119
	c-25.461-36.856-22.045-89.136,8.177-121.569c8.8-9.443,15.244-21.245,19.466-33.994c22.133-66.816,75.955-116.638,141.271-127.001
	c-8.42-1.313-17.029-1.998-25.79-1.998c-76.509,0-141.671,51.839-166.609,124.492c-4.223,12.303-10.667,23.693-19.466,32.806
	c-30.223,31.299-33.638,81.754-8.177,117.322c0.016,0.029,37.965,73.669,124.293,121.712c18.056,10.049,37.565,15.943,57.329,17.706
	C243.558,473.301,241.487,472.195,239.439,471.013z"/>
<path style="fill:#DBBC3B;" d="M259.6,272.487c-18.963-1.135-29.886,21.84-17.291,32.974l11.194,9.896
	c2.732,2.415,6.836,2.415,9.569,0l11.079-9.794C286.326,294.798,276.808,273.517,259.6,272.487z"/>
<path style="fill:#CCAF36;" d="M258.64,312.752l-4.268-13.711c-3.408-10.946,3.805-22.208,12.939-24.576
	c-2.329-1.103-4.915-1.812-7.709-1.979c-18.963-1.135-29.886,21.84-17.291,32.974l11.194,9.896c2.215,1.958,5.322,2.3,7.878,1.083
	C260.16,315.712,259.164,314.434,258.64,312.752z"/>
<path style="fill:#656566;" d="M246.952,362.487c5.499,2.23,11.621,2.229,17.12,0c5.975-2.423,12.373-4.018,19.049-4.658v-2.223
	c0-15.25-12.363-27.613-27.612-27.613c-15.25,0-27.613,12.363-27.613,27.613v2.223C234.576,358.467,240.975,360.063,246.952,362.487
	z"/>
<path style="fill:#4F4F51;" d="M252.509,357.828v-2.196v-0.027c0-10.827,6.234-20.192,15.306-24.717
	c-3.706-1.849-7.883-2.894-12.306-2.894c-15.25,0-27.613,12.363-27.613,27.613v2.223c6.678,0.64,13.078,2.236,19.055,4.659
	c1.799,0.729,3.668,1.196,5.557,1.448L252.509,357.828L252.509,357.828z"/>
<path style="fill:#EAE9E8;" d="M352.082,261.368c-13.779,10.943-33.819,8.645-44.763-5.134l-10.321-12.995
	c-10.943-13.779-8.645-33.819,5.134-44.763c13.779-10.943,33.819-8.645,44.763,5.134l10.321,12.995
	C368.16,230.384,365.861,250.425,352.082,261.368z"/>
<path style="fill:#DBDBDB;" d="M330.161,238.093l-10.321-12.995c-7.552-9.509-8.486-22.244-3.549-33.031
	c-5.015,0.9-9.888,3.017-14.157,6.408c-13.779,10.943-16.077,30.984-5.134,44.763l10.321,12.995
	c10.943,13.779,30.984,16.077,44.763,5.134c4.27-3.391,7.434-7.657,9.448-12.339C349.906,251.395,337.712,247.602,330.161,238.093z"
	/>
<path style="fill:#EAE9E8;" d="M158.937,261.368c13.779,10.943,33.819,8.645,44.763-5.134l10.321-12.995
	c10.943-13.779,8.645-33.819-5.134-44.763c-13.779-10.943-33.819-8.645-44.763,5.134l-10.321,12.995
	C142.859,230.384,145.158,250.425,158.937,261.368z"/>
<path style="fill:#DBDBDB;" d="M208.885,198.476c-3.918-3.112-8.342-5.149-12.921-6.16c4.667,10.313,3.331,23.149-4.5,33.01
	l-10.321,12.995c-7.831,9.861-20.032,14.068-31.133,11.857c2.021,4.229,5.007,8.078,8.926,11.19
	c13.779,10.943,33.819,8.645,44.763-5.134l10.321-12.995C224.962,229.46,222.663,209.42,208.885,198.476z"/>
<g>
	<path style="fill:#656566;" d="M504.5,299.837h-89.876c-4.142,0-7.5-3.357-7.5-7.5s3.358-7.5,7.5-7.5H504.5
		c4.142,0,7.5,3.357,7.5,7.5S508.642,299.837,504.5,299.837z"/>
	<path style="fill:#656566;" d="M480.064,363.042l-77.005-28.002c-3.893-1.416-5.901-5.719-4.485-9.613
		c1.416-3.892,5.718-5.897,9.612-4.485l77.005,28.002c3.893,1.416,5.901,5.719,4.485,9.613
		C488.26,362.45,483.955,364.457,480.064,363.042z"/>
	<path style="fill:#656566;" d="M398.573,259.246c-1.416-3.894,0.592-8.196,4.485-9.613l77.005-28.002
		c3.891-1.418,8.197,0.593,9.612,4.485c1.416,3.894-0.592,8.197-4.485,9.613l-77.005,28.002
		C404.301,265.144,399.991,263.146,398.573,259.246z"/>
	<path style="fill:#656566;" d="M97.377,299.837H7.5c-4.142,0-7.5-3.357-7.5-7.5s3.358-7.5,7.5-7.5h89.876
		c4.142,0,7.5,3.357,7.5,7.5S101.519,299.837,97.377,299.837z"/>
	<path style="fill:#656566;" d="M22.323,358.557c-1.416-3.894,0.592-8.197,4.485-9.613l77.005-28.002
		c3.892-1.417,8.195,0.593,9.612,4.485c1.416,3.894-0.592,8.197-4.485,9.613l-77.005,28.002
		C28.052,364.455,23.741,362.457,22.323,358.557z"/>
	<path style="fill:#656566;" d="M103.814,263.732L26.81,235.73c-3.893-1.416-5.901-5.719-4.485-9.613
		c1.416-3.892,5.72-5.898,9.612-4.485l77.005,28.002c3.893,1.416,5.901,5.719,4.485,9.613
		C112.01,263.14,107.706,265.146,103.814,263.732z"/>
</g>
<path style="fill:#E8C842;" d="M363.961,502.786h31.392c16.007,0,28.547-13.083,27.913-29.077
	c-0.923-23.286-0.402-55.617,25.799-99.797c11.749-19.811-12.379-41.367-30.726-27.442c-36.354,27.593-68.135,70.029-75.301,132.745
	C341.605,491.762,351.333,502.786,363.961,502.786z"/>
<path style="fill:#DBBC3B;" d="M368.039,479.216c7.164-62.716,38.946-105.152,75.301-132.745c0.06-0.045,0.121-0.081,0.181-0.125
	c-6.844-5.145-16.639-6.359-25.183,0.125c-36.354,27.593-68.135,70.03-75.301,132.745c-1.433,12.546,8.296,23.57,20.923,23.57
	h25.002C376.335,502.786,366.606,491.762,368.039,479.216z"/>
<path style="fill:#E8C842;" d="M147.058,502.786h-31.392c-16.007,0-28.547-13.083-27.913-29.077
	c0.923-23.286,0.402-55.617-25.799-99.797c-11.749-19.811,12.379-41.367,30.726-27.442c36.354,27.593,68.135,70.029,75.301,132.745
	C169.414,491.762,159.686,502.786,147.058,502.786z"/>
<path style="fill:#DBBC3B;" d="M113.088,473.71c0.923-23.286,0.402-55.617-25.799-99.797c-6.234-10.514-2.365-21.516,5.38-27.45
	c-18.346-13.909-42.462,7.641-30.715,27.45c26.2,44.18,26.721,76.511,25.799,99.797c-0.634,15.994,11.906,29.077,27.913,29.077
	h25.335C124.994,502.786,112.454,489.704,113.088,473.71z"/>
<path style="fill:#ED694A;" d="M283.122,400.733v-45.102c-6.945,0.419-13.584,1.968-19.739,4.463
	c-12.487,5.063-16.254-3.306-35.485-4.463v45.102c0,15.25,12.363,27.613,27.613,27.613
	C270.76,428.346,283.122,415.983,283.122,400.733z"/>
<path style="fill:#D8553A;" d="M252.509,400.733v-39.361c-6.099-1.161-12.064-4.984-24.611-5.74v45.102
	c0,15.25,12.363,27.613,27.613,27.613c4.423,0,8.6-1.045,12.306-2.894C258.744,420.925,252.509,411.56,252.509,400.733z"/>
<g>
</g>
<g>
</g>
<g>
</g>
<g>
</g>
<g>
</g>
<g>
</g>
<g>
</g>
<g>
</g>
<g>
</g>
<g>
</g>
<g>
</g>
<g>
</g>
<g>
</g>
<g>
</g>
<g>
</g>
</svg>
