<?xml version="1.0" encoding="iso-8859-1"?>
<!-- Generator: Adobe Illustrator 19.0.0, SVG Export Plug-In . SVG Version: 6.00 Build 0)  -->
<svg version="1.1" id="Capa_1" xmlns="http://www.w3.org/2000/svg" xmlns:xlink="http://www.w3.org/1999/xlink" x="0px" y="0px"
	 viewBox="0 0 512 512" style="enable-background:new 0 0 512 512;" xml:space="preserve">
<path style="fill:#DBBC3B;" d="M407.457,166.191c19.278-54.362,19.416-102.05,16.63-127.404
	c-1.234-11.232-11.625-18.611-21.794-15.554c-51.398,15.453-82.29,44.393-95.525,59.593
	C349.151,96.461,384.867,126.562,407.457,166.191z"/>
<path style="fill:#CCAF36;" d="M421.299,30.723c-3.745-5.478-8.528-7.903-13.589-8.16c-3.077-0.144-5.521,0.702-5.419,0.671
	c-40.342,12.186-73.864,34.709-95.525,59.593c12.252,3.941,23.942,9.267,34.924,15.793c12.255-19.037,33.664-44.679,68.415-65.784
	C413.621,30.7,417.558,30.078,421.299,30.723z"/>
<path style="fill:#DBBC3B;" d="M204.252,82.822c-13.237-15.201-44.128-44.137-95.52-59.588
	c-10.171-3.057-20.561,4.322-21.794,15.554c-2.786,25.353-2.648,73.039,16.629,127.401
	C126.156,126.561,161.871,96.456,204.252,82.822z"/>
<path style="fill:#CCAF36;" d="M108.733,23.235c-4.187-1.138-8.14-0.882-12.015,1.073c-4.503,2.273-6.403,5.72-6.993,6.415
	c3.741-0.645,7.678-0.022,11.193,2.112c34.749,21.104,56.157,46.743,68.412,65.78c10.982-6.526,22.671-11.852,34.922-15.793
	C195.87,75.121,168.722,41.385,108.733,23.235z"/>
<path style="fill:#F4D44E;" d="M439.556,228.998c-7.296-6.959-12.416-16.104-15.56-26.01
	c-23.846-75.13-90.248-129.198-168.484-129.198c-76.704,0-142.032,51.971-167.033,124.809c-4.233,12.334-10.695,23.753-19.516,32.89
	c-30.3,31.379-33.724,81.962-8.198,117.621c0.016,0.03,38.062,73.857,124.61,122.023c43.896,24.43,96.361,24.438,140.258,0.012
	c86.485-48.122,124.545-121.872,124.627-122.031C476.671,312.221,471.889,259.839,439.556,228.998z"/>
<path style="fill:#E8C842;" d="M236.63,485.519c-86.547-49.909-124.594-126.41-124.61-126.441
	c-25.526-36.95-22.101-89.364,8.198-121.879c8.822-9.467,15.283-21.299,19.516-34.08c22.19-66.987,76.149-116.936,141.632-127.324
	c-8.44-1.316-17.073-2.003-25.856-2.003c-76.704,0-142.032,51.972-167.033,124.809c-4.233,12.334-10.695,23.753-19.516,32.89
	c-30.3,31.379-33.723,81.962-8.198,117.621c0.016,0.03,38.062,73.857,124.61,122.022c18.102,10.074,37.661,15.984,57.475,17.751
	C240.76,487.812,238.682,486.702,236.63,485.519z"/>
<path style="fill:#DBBC3B;" d="M256.843,286.486c-19.011-1.138-29.962,21.896-17.336,33.058l11.223,9.921
	c2.739,2.421,6.853,2.421,9.593,0l11.108-9.819C283.636,308.854,274.094,287.518,256.843,286.486z"/>
<path style="fill:#CCAF36;" d="M255.879,326.854l-4.279-13.746c-3.416-10.974,3.814-22.264,12.972-24.638
	c-2.334-1.106-4.928-1.816-7.729-1.984c-19.011-1.138-29.962,21.896-17.335,33.058l11.223,9.921
	c2.221,1.963,5.335,2.306,7.898,1.086C257.404,329.82,256.405,328.539,255.879,326.854z"/>
<g>
	<path style="fill:#656566;" d="M504.5,313.157h-89.876c-4.142,0-7.5-3.357-7.5-7.5s3.358-7.5,7.5-7.5H504.5
		c4.142,0,7.5,3.357,7.5,7.5S508.642,313.157,504.5,313.157z"/>
	<path style="fill:#656566;" d="M482.626,376.815c-0.851,0-1.716-0.146-2.563-0.453l-77.005-28.002
		c-3.893-1.416-5.901-5.719-4.485-9.613c1.416-3.892,5.719-5.9,9.612-4.485l77.005,28.002c3.893,1.416,5.901,5.719,4.485,9.613
		C488.568,374.922,485.691,376.815,482.626,376.815z"/>
	<path style="fill:#656566;" d="M398.573,272.565c-1.416-3.894,0.592-8.197,4.485-9.613l77.005-28.002
		c3.892-1.418,8.197,0.592,9.612,4.485c1.415,3.893-0.592,8.197-4.485,9.613l-77.005,28.002
		C404.301,278.463,399.991,276.465,398.573,272.565z"/>
	<path style="fill:#656566;" d="M97.377,313.157H7.5c-4.142,0-7.5-3.357-7.5-7.5s3.358-7.5,7.5-7.5h89.876
		c4.142,0,7.5,3.357,7.5,7.5S101.519,313.157,97.377,313.157z"/>
	<path style="fill:#656566;" d="M29.373,376.815c-3.064,0-5.941-1.892-7.049-4.938c-1.416-3.894,0.592-8.197,4.485-9.613
		l77.005-28.002c3.891-1.419,8.196,0.592,9.612,4.485c1.415,3.893-0.592,8.197-4.485,9.613l-77.005,28.002
		C31.09,376.669,30.224,376.815,29.373,376.815z"/>
	<path style="fill:#656566;" d="M103.814,277.05L26.81,249.048c-3.893-1.416-5.901-5.719-4.485-9.613
		c1.416-3.892,5.718-5.9,9.612-4.485l77.005,28.002c3.893,1.416,5.901,5.719,4.485,9.613
		C112.01,276.458,107.706,278.465,103.814,277.05z"/>
	<path style="fill:#656566;" d="M243.278,391.91c-12.722,0-21.827-2.011-22.78-2.23c-4.037-0.929-6.556-4.955-5.626-8.992
		c0.929-4.034,4.948-6.546,8.982-5.629c0.683,0.152,52.513,11.333,79.086-25.192c2.437-3.35,7.127-4.092,10.478-1.652
		c3.35,2.437,4.089,7.127,1.653,10.478C294.86,386.47,264.189,391.91,243.278,391.91z"/>
</g>
<g>
	<path style="fill:#4F4F51;" d="M350.914,226.035c-3.103-2.744-7.843-2.45-10.587,0.651l-20.317,22.983v0.059
		c-2.783,3.447-4.641,8.245-5.009,13.638c2.652,4.306,8.687,4.792,12.007,1.037l24.56-27.781
		C354.31,233.519,354.018,228.779,350.914,226.035z"/>
	<path style="fill:#4F4F51;" d="M190.127,248.708v-0.037l-19.435-21.984c-2.744-3.104-7.484-3.394-10.587-0.651
		c-3.104,2.743-3.395,7.483-0.652,10.588l24.559,27.781c2.747,3.107,7.487,3.391,10.587,0.651c0.557-0.492,1.019-1.05,1.394-1.65
		C195.595,257.444,193.404,252.198,190.127,248.708z"/>
</g>
<ellipse style="fill:#656566;" cx="330.44" cy="265.326" rx="15.512" ry="21.111"/>
<path style="fill:#4F4F51;" d="M327.435,258c0-5.248,1.415-10.039,3.743-13.732c-0.248-0.016-0.492-0.051-0.743-0.051
	c-8.568,0-15.512,9.453-15.512,21.114c0,11.661,6.945,21.114,15.512,21.114c4.711,0,8.925-2.869,11.769-7.382
	C333.984,278.531,327.435,269.32,327.435,258z"/>
<ellipse style="fill:#656566;" cx="180.581" cy="265.326" rx="15.512" ry="21.111"/>
<path style="fill:#4F4F51;" d="M177.585,258c0-5.248,1.415-10.039,3.743-13.732c-0.248-0.016-0.492-0.051-0.743-0.051
	c-8.568,0-15.512,9.453-15.512,21.114c0,11.661,6.945,21.114,15.512,21.114c4.711,0,8.925-2.869,11.769-7.382
	C184.134,278.531,177.585,269.32,177.585,258z"/>
<g>
</g>
<g>
</g>
<g>
</g>
<g>
</g>
<g>
</g>
<g>
</g>
<g>
</g>
<g>
</g>
<g>
</g>
<g>
</g>
<g>
</g>
<g>
</g>
<g>
</g>
<g>
</g>
<g>
</g>
</svg>
