<?xml version="1.0" encoding="iso-8859-1"?>
<!-- Generator: Adobe Illustrator 19.0.0, SVG Export Plug-In . SVG Version: 6.00 Build 0)  -->
<svg version="1.1" id="Capa_1" xmlns="http://www.w3.org/2000/svg" xmlns:xlink="http://www.w3.org/1999/xlink" x="0px" y="0px"
	 viewBox="0 0 512 512" style="enable-background:new 0 0 512 512;" xml:space="preserve">
<path style="fill:#DBBC3B;" d="M407.948,166.191c19.278-54.362,19.416-102.05,16.63-127.404
	c-1.234-11.232-11.625-18.611-21.794-15.554c-51.398,15.453-82.29,44.393-95.525,59.593
	C349.641,96.461,385.358,126.562,407.948,166.191z"/>
<path style="fill:#CCAF36;" d="M421.791,30.723c-3.745-5.478-8.528-7.903-13.589-8.16c-3.077-0.144-5.521,0.702-5.419,0.671
	c-40.342,12.186-73.864,34.709-95.525,59.593c12.252,3.941,23.942,9.267,34.924,15.793c12.255-19.037,33.664-44.679,68.415-65.784
	C414.111,30.7,418.049,30.078,421.791,30.723z"/>
<path style="fill:#DBBC3B;" d="M204.743,82.822c-13.237-15.201-44.128-44.137-95.52-59.588
	c-10.171-3.057-20.561,4.322-21.794,15.554c-2.786,25.353-2.648,73.039,16.629,127.401
	C126.646,126.561,162.361,96.456,204.743,82.822z"/>
<path style="fill:#CCAF36;" d="M109.223,23.235c-4.187-1.138-8.14-0.882-12.015,1.073c-4.503,2.273-6.403,5.72-6.993,6.415
	c3.741-0.645,7.678-0.022,11.193,2.112c34.749,21.104,56.157,46.743,68.412,65.78c10.982-6.526,22.671-11.852,34.922-15.793
	C196.36,75.121,169.212,41.385,109.223,23.235z"/>
<path style="fill:#F4D44E;" d="M440.046,228.998c-7.296-6.959-12.416-16.104-15.56-26.01
	c-23.846-75.13-90.248-129.198-168.484-129.198c-76.704,0-142.032,51.971-167.033,124.809c-4.234,12.334-10.695,23.753-19.516,32.89
	c-30.3,31.379-33.723,81.962-8.198,117.621c0.016,0.03,38.062,73.857,124.61,122.023c43.896,24.43,96.361,24.438,140.258,0.012
	c86.485-48.122,124.545-121.872,124.627-122.031C477.162,312.221,472.379,259.839,440.046,228.998z"/>
<path style="fill:#E8C842;" d="M237.12,485.519c-86.547-49.909-124.594-126.41-124.61-126.441
	c-25.526-36.95-22.101-89.364,8.198-121.879c8.822-9.467,15.283-21.299,19.516-34.08c22.19-66.987,76.15-116.936,141.632-127.324
	c-8.44-1.316-17.073-2.003-25.856-2.003c-76.704,0-142.032,51.972-167.033,124.809c-4.233,12.334-10.695,23.753-19.516,32.89
	c-30.3,31.379-33.723,81.962-8.198,117.621c0.016,0.03,38.062,73.857,124.61,122.022c18.102,10.074,37.661,15.984,57.475,17.751
	C241.25,487.812,239.173,486.702,237.12,485.519z"/>
<path style="fill:#DBBC3B;" d="M257.333,286.486c-19.011-1.138-29.962,21.896-17.336,33.058l11.223,9.921
	c2.739,2.421,6.853,2.421,9.593,0l11.108-9.819C284.127,308.854,274.585,287.518,257.333,286.486z"/>
<path style="fill:#CCAF36;" d="M256.37,326.854l-4.279-13.746c-3.416-10.974,3.814-22.264,12.972-24.638
	c-2.334-1.106-4.928-1.816-7.729-1.984c-19.011-1.138-29.962,21.896-17.335,33.058l11.223,9.921
	c2.221,1.963,5.335,2.306,7.898,1.086C257.894,329.82,256.895,328.539,256.37,326.854z"/>
<g>
	<path style="fill:#656566;" d="M504.5,313.157h-89.876c-4.142,0-7.5-3.357-7.5-7.5s3.358-7.5,7.5-7.5H504.5
		c4.142,0,7.5,3.357,7.5,7.5S508.642,313.157,504.5,313.157z"/>
	<path style="fill:#656566;" d="M480.064,376.362l-77.005-28.002c-3.893-1.416-5.901-5.719-4.485-9.613
		c1.416-3.892,5.719-5.9,9.612-4.485l77.005,28.002c3.893,1.416,5.901,5.719,4.485,9.613
		C488.26,375.77,483.955,377.776,480.064,376.362z"/>
	<path style="fill:#656566;" d="M398.573,272.565c-1.416-3.894,0.592-8.197,4.485-9.613l77.005-28.002
		c3.893-1.418,8.197,0.592,9.612,4.485c1.415,3.893-0.592,8.197-4.485,9.613l-77.005,28.002
		C404.301,278.463,399.991,276.465,398.573,272.565z"/>
	<path style="fill:#656566;" d="M97.377,313.157H7.5c-4.142,0-7.5-3.357-7.5-7.5s3.358-7.5,7.5-7.5h89.876
		c4.142,0,7.5,3.357,7.5,7.5S101.519,313.157,97.377,313.157z"/>
	<path style="fill:#656566;" d="M22.323,371.877c-1.416-3.894,0.592-8.197,4.485-9.613l77.005-28.002
		c3.892-1.419,8.196,0.592,9.612,4.485c1.415,3.893-0.592,8.197-4.485,9.613l-77.005,28.002
		C28.052,377.775,23.741,375.776,22.323,371.877z"/>
	<path style="fill:#656566;" d="M103.814,277.05L26.81,249.048c-3.893-1.416-5.901-5.719-4.485-9.613
		c1.416-3.892,5.718-5.9,9.612-4.485l77.005,28.002c3.893,1.416,5.901,5.719,4.485,9.613
		C112.01,276.458,107.706,278.465,103.814,277.05z"/>
	<path style="fill:#656566;" d="M292.589,361.209c-5.569-5.882-13.838-8.059-21.653-5.648l-19.504,6.228
		c-3.946,1.26-6.124,5.48-4.863,9.427c1.26,3.945,5.482,6.124,9.427,4.863l19.43-6.204c7.426-2.282,10.575,8.635,7.166,12.102
		c-2.784,2.833-6.057,1.493-11.233,1.836c-4.142,0-7.5,3.357-7.5,7.5s3.358,7.5,7.5,7.5c5.133,0.341,8.445-0.998,11.233,1.836
		c3.375,3.433,0.302,14.39-7.092,12.125l-19.504-6.227c-3.947-1.258-8.166,0.917-9.427,4.863s0.917,8.167,4.863,9.427l19.578,6.25
		c7.705,2.373,15.985,0.238,21.58-5.673c6.959-7.353,8.947-21.386,1.75-30.102C301.537,382.596,299.549,368.563,292.589,361.209z"/>
	<path style="fill:#656566;" d="M299.94,287.825c-3.44-2.306-4.36-6.965-2.054-10.406c13.572-20.246,37.533-20.379,51.194,0
		c2.307,3.44,1.387,8.099-2.053,10.406c-3.442,2.306-8.1,1.388-10.407-2.054c-7.634-11.388-18.556-11.513-26.274,0
		C308.043,289.206,303.388,290.135,299.94,287.825z"/>
	<path style="fill:#656566;" d="M198.56,285.621c-7.635-11.389-18.556-11.513-26.274,0c-2.306,3.441-6.965,4.358-10.407,2.053
		c-3.44-2.307-4.36-6.966-2.053-10.407c13.571-20.242,37.53-20.38,51.193,0c2.307,3.44,1.387,8.1-2.053,10.407
		C205.518,289.986,200.862,289.056,198.56,285.621z"/>
	<path style="fill:#656566;" d="M365.637,236.188c-15.291-8.922-32.511-11.537-48.492-7.368c-4.01,1.05-8.104-1.354-9.151-5.363
		c-1.046-4.008,1.355-8.104,5.363-9.151c19.846-5.179,41.097-2.008,59.839,8.928c3.578,2.087,4.786,6.68,2.698,10.258
		C373.82,237.05,369.23,238.287,365.637,236.188z"/>
	<path style="fill:#656566;" d="M135.156,233.491c-2.087-3.578-0.879-8.172,2.698-10.259c18.741-10.936,39.992-14.106,59.839-8.928
		c4.008,1.046,6.409,5.143,5.363,9.151c-1.045,4.008-5.144,6.412-9.151,5.363c-15.981-4.17-33.201-1.554-48.491,7.368
		C141.824,238.287,137.234,237.052,135.156,233.491z"/>
</g>
<g>
</g>
<g>
</g>
<g>
</g>
<g>
</g>
<g>
</g>
<g>
</g>
<g>
</g>
<g>
</g>
<g>
</g>
<g>
</g>
<g>
</g>
<g>
</g>
<g>
</g>
<g>
</g>
<g>
</g>
</svg>
