<?xml version="1.0" encoding="iso-8859-1"?>
<!-- Generator: Adobe Illustrator 19.0.0, SVG Export Plug-In . SVG Version: 6.00 Build 0)  -->
<svg version="1.1" id="Capa_1" xmlns="http://www.w3.org/2000/svg" xmlns:xlink="http://www.w3.org/1999/xlink" x="0px" y="0px"
	 viewBox="0 0 512 512" style="enable-background:new 0 0 512 512;" xml:space="preserve">
<path style="fill:#CC9D72;" d="M477.174,277.346c0.003-12.327,0.004-20.849,0.005-22.541c0-77.883-43.805-146.643-110.888-183.754
	l-220.575-0.004C77.775,108.601,34.821,177.806,34.821,254.805c0.015,50.906,0.01,46.331,0,63.165
	c1.589,45.072,7.041,106.445,23.391,157.234c4.814,14.956,19.979,24.038,35.418,21.128c69.229-12.648,58.918-8.256,257.351-9.143
	c21.965,1.992,45.715,5.024,67.39,9.143c15.44,2.909,30.605-6.173,35.418-21.128c16.35-50.789,21.802-112.162,23.391-157.234
	c-0.006-12.381,0.011-1.102-0.01-14.947C477.172,290.982,477.173,279.304,477.174,277.346z"/>
<path style="fill:#C19067;" d="M160.742,475.204c-16.35-50.789-21.802-112.162-23.391-157.234c0.01-16.834,0.015-12.259,0-63.165
	c0-76.998,42.954-146.203,110.893-183.756l-102.527-0.002C77.775,108.6,34.821,177.805,34.821,254.804
	c0.015,50.906,0.01,46.331,0,63.165c1.589,45.072,7.041,106.445,23.391,157.234c4.814,14.956,19.979,24.038,35.418,21.128
	c32.412-5.922,47.39-8.108,74.518-8.849C164.85,484.113,162.271,479.957,160.742,475.204z"/>
<path style="fill:#F4D44E;" d="M425.718,272.993c-87.772-19.617-167.299-67.395-214.34-118.146c-1.33-1.435-3.666-1.167-4.624,0.538
	c-8.565,15.233-46.216,74.712-117.436,85.906c-3.584,1.552-3.115,4.992-3.115,8.993c-0.005,25.319-0.016,98.906-0.016,99.043
	c0,90.289,77.069,163.818,171.632,162.66c91.761-0.803,167.912-72.36,167.912-162.844
	C425.73,345.45,425.724,303.729,425.718,272.993z"/>
<path style="fill:#E8C842;" d="M137.699,349.327c0-0.133,0.01-96.285,0.015-124.705c-13.961,7.702-30.064,13.787-48.397,16.669
	c-3.583,1.552-3.115,4.992-3.115,8.993c-0.005,25.32-0.016,98.906-0.016,99.043c0,90.289,77.069,163.818,171.632,162.66
	c8.079-0.071,16.032-0.701,23.828-1.833C200.178,498.313,137.699,430.62,137.699,349.327z"/>
<path style="fill:#F4D44E;" d="M172.508,128.392h167.258c6.196,0,11.635-4.126,13.304-10.093
	c2.481-8.866,20.419-72.977,23.302-83.286c1.613-7.903-5.72-14.32-13.006-12.448c-2.858,0.732-0.779,0.11-44.235,26.879
	c-3.174,1.972-7.119,2.12-10.405,0.469c-3.03-1.522-1.174-0.641-44.988-46.588c-4.214-4.451-11.283-4.419-15.468,0
	c-44.045,46.189-41.905,45.04-44.988,46.588c-3.237,1.626-7.183,1.531-10.405-0.469c-44.483-27.402-42.917-27.759-48.061-27.125
	c-5.88,0.722-10.49,6.252-9.181,12.694c1.148,4.104,15.541,55.545,23.232,83.033C160.579,124.166,166.154,128.392,172.508,128.392z"
	/>
<path style="fill:#E8C842;" d="M185.108,118.047c-7.691-27.487-22.084-78.928-23.233-83.033c-0.343-1.686-0.272-3.305,0.113-4.796
	c-13.289-8.3-13.726-8.322-17.173-7.897c-5.88,0.722-10.49,6.252-9.181,12.694c1.148,4.104,15.542,55.545,23.232,83.033
	c1.712,6.119,7.288,10.345,13.642,10.345h26.241C192.395,128.392,186.819,124.166,185.108,118.047z"/>
<path style="fill:#656566;" d="M309.031,407.826c-30.107-2.153-26.765-1.883-27.006-1.893c-17.003-0.71-25.071,3.762-26.298,4.087
	c-1.532-0.406-9.051-4.808-26.298-4.087c-0.123,0.005-0.48-0.005-27.006,1.893c-2.356,0.158-3.042,3.295-0.969,4.424l30.612,16.653
	c5.397,2.605,17.693,3.786,23.66,1.726c5.968,2.061,18.264,0.88,23.66-1.726l30.612-16.653
	C312.073,411.121,311.386,407.984,309.031,407.826z"/>
<path style="fill:#4F4F51;" d="M309.999,409.564l-30.612,9.662c-5.398,1.512-17.693,2.197-23.66,1.002
	c-5.968,1.195-18.264,0.51-23.66-1.002l-30.613-9.662c-0.429-0.135-0.733-0.323-0.936-0.532c-0.57,1.055-0.346,2.52,0.936,3.217
	l30.613,16.653c5.397,2.606,17.693,3.786,23.66,1.726c5.967,2.061,18.263,0.88,23.66-1.726l30.612-16.653
	c1.283-0.697,1.507-2.162,0.936-3.217C310.732,409.242,310.428,409.429,309.999,409.564z"/>
<g>
	<path style="fill:#656566;" d="M365.561,288.914c-16.795-14.037-41.291-14.018-58.062,0c-3.022,2.525-7.524,2.126-10.053-0.892
		c-2.53-3.019-2.13-7.513,0.893-10.04c22.056-18.432,54.272-18.478,76.383,0c3.022,2.527,3.423,7.021,0.893,10.04
		C373.076,291.05,368.573,291.432,365.561,288.914z"/>
	<path style="fill:#656566;" d="M205.674,288.914c-16.831-14.066-41.323-13.989-58.061,0c-3.022,2.528-7.523,2.128-10.053-0.891
		c-2.53-3.018-2.13-7.513,0.893-10.039c22.096-18.469,54.318-18.443,76.382,0c3.023,2.526,3.423,7.021,0.893,10.039
		C213.189,291.05,208.685,291.433,205.674,288.914z"/>
	<path style="fill:#656566;" d="M195.693,305.264c-6.074-10.507-19.527-14.107-30.049-8.041
		c-10.522,6.066-14.126,19.501-8.052,30.008c6.074,10.507,19.527,14.107,30.049,8.041
		C198.163,329.204,201.768,315.77,195.693,305.264z"/>
</g>
<path style="fill:#4F4F51;" d="M176.643,316.247c-4.07-7.041-3.789-15.393,0.002-21.965c-3.739-0.004-7.529,0.939-11,2.941
	c-10.522,6.066-14.126,19.501-8.052,30.008c6.075,10.507,19.528,14.107,30.049,8.041c3.471-2.001,6.184-4.807,8.05-8.043
	C188.097,327.22,180.714,323.287,176.643,316.247z"/>
<path style="fill:#DBBC3B;" d="M270.045,331.553h-26.918c-3.644,0-6.626,2.978-6.626,6.617v5.032c0,8.557,5.425,16.315,13.6,18.879
	c13.847,4.342,26.57-5.866,26.57-19.043v-4.868C276.671,334.531,273.69,331.553,270.045,331.553z"/>
<path style="fill:#CCAF37;" d="M256.587,338.17c0-3.639,2.982-6.617,6.626-6.617h-20.085c-3.644,0-6.626,2.978-6.626,6.617v5.032
	c0,16.081,17.229,24.551,30.017,17.269C254.243,353.508,256.924,339.824,256.587,338.17z"/>
<path style="fill:#656566;" d="M355.58,305.264c-6.075-10.507-19.527-14.107-30.049-8.041c-10.522,6.066-14.126,19.501-8.052,30.008
	c6.074,10.507,19.527,14.107,30.049,8.041C358.049,329.204,361.654,315.77,355.58,305.264z"/>
<path style="fill:#4F4F51;" d="M336.531,294.282c-16.792-0.017-27.555,18.241-19.052,32.948
	c8.502,14.705,29.717,14.529,38.098-0.003C347.984,327.22,328.082,308.93,336.531,294.282z"/>
<g>
</g>
<g>
</g>
<g>
</g>
<g>
</g>
<g>
</g>
<g>
</g>
<g>
</g>
<g>
</g>
<g>
</g>
<g>
</g>
<g>
</g>
<g>
</g>
<g>
</g>
<g>
</g>
<g>
</g>
</svg>
