<?xml version="1.0" encoding="iso-8859-1"?>
<!-- Generator: Adobe Illustrator 19.0.0, SVG Export Plug-In . SVG Version: 6.00 Build 0)  -->
<svg version="1.1" id="Capa_1" xmlns="http://www.w3.org/2000/svg" xmlns:xlink="http://www.w3.org/1999/xlink" x="0px" y="0px"
	 viewBox="0 0 512.001 512.001" style="enable-background:new 0 0 512.001 512.001;" xml:space="preserve">
<g>
	<path style="fill:#DBBC3B;" d="M50.331,245.277C23.218,247.286,0,268.516,0,294.435c0,26.092,23.523,47.423,50.862,49.192
		C43.327,311.48,42.992,277.691,50.331,245.277z"/>
	<path style="fill:#DBBC3B;" d="M461.698,244.834c7.432,30.837,7.931,64.407-0.448,99.233c27.336-2.05,50.75-23.476,50.75-49.633
		C512,268.424,488.843,247.083,461.698,244.834z"/>
</g>
<g>
	<path style="fill:#CCAF37;" d="M5.013,274.138C1.814,280.327,0,287.197,0,294.435c0,26.091,23.523,47.423,50.862,49.192
		c-3.172-13.531-5.052-27.355-5.637-41.244C27.777,299.497,12.545,288.711,5.013,274.138z"/>
	<path style="fill:#CCAF37;" d="M467.157,302.716c-0.622,13.517-2.534,27.329-5.907,41.351c27.337-2.05,50.75-23.476,50.75-49.633
		c0-7.23-1.793-14.098-4.961-20.296C499.587,288.728,484.505,299.594,467.157,302.716z"/>
</g>
<path style="fill:#F4D44E;" d="M298.11,84.904c0.038,0.027,0.077,0.055,0.115,0.082c-26.907-5.369-55.703-5.653-84.032,0
	c0.038-0.027,0.077-0.055,0.115-0.082C111.686,105.707,41.012,192.995,42.974,299.491c1.718,97.395,68.865,183.535,171.335,204.308
	c-0.038-0.027-0.077-0.055-0.115-0.082c26.961,5.38,55.758,5.642,84.032,0c-0.038,0.027-0.077,0.055-0.115,0.081
	c50.923-10.323,94.341-36.647,125.221-75.909C520.415,307.93,459.97,117.715,298.11,84.904z"/>
<path style="fill:#CC9D72;" d="M323.034,110.248c-19.606-36.667-65.421-49.827-101.412-29.479c-2.799,1.583-5.438,2.707-7.947,4.584
	c3.637-0.622,10.699-2.128,21.833-3.192c15.909-0.955,37.798,10.68,48.028,30.904c20.93,41.374-15.169,88.974-60.644,80.063
	c-3.416-0.669-6.869,0.931-8.436,4.039l-0.062,0.122c-1.573,3.121-0.613,6.952,2.286,8.903
	c22.912,15.426,53.644,17.359,79.118,2.154C329.418,188.28,341.498,144.776,323.034,110.248z"/>
<path style="fill:#C19067;" d="M300.331,110.979c-16.735-31.296-55.688-42.645-86.514-25.651c3.675-0.636,10.693-2.116,21.691-3.167
	c15.908-0.955,37.798,10.68,48.028,30.904c20.93,41.374-15.169,88.974-60.644,80.063c-3.283-0.643-6.585,0.826-8.229,3.7
	c18.891,10.016,42.434,10.269,62.268-1.568C305.816,178.02,316.194,140.644,300.331,110.979z"/>
<path style="fill:#656566;" d="M188.684,388.848c27.94,53.768,104.269,55.172,134.565,3.614c3.562-6.062-0.789-13.701-7.819-13.701
	H194.818C189.638,378.76,186.296,384.252,188.684,388.848z"/>
<path style="fill:#4F4F51;" d="M214.294,388.848c-1.938-4.595,0.775-10.088,4.977-10.088h-24.453c-5.179,0-8.522,5.492-6.134,10.088
	c15.54,29.906,46.05,43.604,75.284,41.007C244.048,427.654,224.885,413.967,214.294,388.848z"/>
<path style="fill:#DBBC3B;" d="M240.94,321.553c-3.752,0-6.495,3.693-5.248,7.232c6.726,19.081,33.742,19.398,40.879,0.423
	c1.391-3.697-1.285-7.655-5.234-7.655L240.94,321.553L240.94,321.553z"/>
<path style="fill:#CCAF37;" d="M256.318,328.785c-0.624-3.539,0.747-7.232,2.623-7.232H240.94c-3.752,0-6.496,3.693-5.247,7.232
	c4.321,12.259,17.014,16.76,27.433,13.387C260.152,340.249,257.551,335.785,256.318,328.785z"/>
<g>
	<path style="fill:#656566;" d="M357.984,246.939c-8.611-3.604-21.802-3.61-30.427,0c-3.936,1.647-8.464-0.208-10.112-4.145
		c-1.647-3.937,0.208-8.464,4.145-10.112c12.445-5.206,29.894-5.215,42.361,0c3.937,1.648,5.792,6.175,4.145,10.112
		C366.446,246.735,361.918,248.583,357.984,246.939z"/>
	<path style="fill:#656566;" d="M184.86,246.939c-8.611-3.604-21.803-3.61-30.427,0c-3.936,1.647-8.464-0.208-10.112-4.145
		c-1.647-3.937,0.208-8.464,4.145-10.112c12.445-5.206,29.894-5.215,42.361,0c3.937,1.648,5.792,6.175,4.145,10.112
		C193.322,246.736,188.793,248.583,184.86,246.939z"/>
</g>
<path style="fill:#9CD7F2;" d="M16.833,81.242c0-102.557,478.334-103.02,478.334,0c0,24.391-25.611,43.955-76.123,58.148
	C283.631,177.441,16.833,158.183,16.833,81.242z M100.481,49.876c-40.962,11.51-55.83,25.064-55.83,31.366
	c0,6.302,14.868,19.856,55.83,31.366c85.576,24.047,225.447,24.051,311.036,0c40.962-11.51,55.83-25.064,55.83-31.366
	c0-6.302-14.868-19.856-55.83-31.366C325.942,25.829,186.071,25.825,100.481,49.876z"/>
<g>
	<path style="fill:#71C5DB;" d="M411.519,40.439c-85.577-29.223-225.447-29.228-311.036,0c-40.962,13.987-55.83,30.459-55.83,38.118
		c0,0.453,0.063,0.942,0.17,1.454c1.741-6.716,17.195-19.326,55.66-30.134c85.59-24.051,225.46-24.047,311.036,0
		c38.467,10.809,53.92,23.42,55.66,30.135c0.107-0.512,0.17-1.002,0.17-1.455C467.349,70.898,452.481,54.426,411.519,40.439z"/>
	<path style="fill:#71C5DB;" d="M419.044,126.07C287.643,162.993,32.537,145.951,17.533,74.607
		c-0.455,2.163-0.699,4.373-0.699,6.635c0,76.939,266.797,96.199,402.212,58.148c50.512-14.193,76.123-33.757,76.123-58.148
		c0-2.237-0.24-4.422-0.681-6.561C490.124,95.948,464.801,113.213,419.044,126.07z"/>
</g>
<path style="fill:#656566;" d="M363.395,273.391c-6.576-11.375-21.141-15.272-32.532-8.705c-11.39,6.568-15.293,21.112-8.717,32.487
	c6.577,11.374,21.141,15.272,32.532,8.705C366.068,299.311,369.971,284.766,363.395,273.391z"/>
<path style="fill:#4F4F51;" d="M342.77,285.282c-4.407-7.622-4.102-16.665,0.002-23.779c-4.048-0.004-8.151,1.017-11.909,3.183
	c-11.39,6.567-15.293,21.112-8.717,32.486c6.576,11.375,21.141,15.272,32.532,8.705c3.757-2.166,6.695-5.205,8.715-8.708
	C355.171,297.162,347.177,292.904,342.77,285.282z"/>
<path style="fill:#656566;" d="M190.27,273.391c-6.576-11.375-21.141-15.272-32.532-8.705c-11.39,6.568-15.293,21.112-8.717,32.487
	c6.577,11.374,21.141,15.272,32.532,8.705C192.944,299.311,196.846,284.766,190.27,273.391z"/>
<path style="fill:#4F4F51;" d="M169.646,285.282c-4.407-7.622-4.102-16.665,0.002-23.779c-4.048-0.004-8.151,1.017-11.909,3.183
	c-11.39,6.567-15.293,21.112-8.717,32.486c6.576,11.375,21.141,15.272,32.532,8.705c3.757-2.166,6.695-5.205,8.715-8.708
	C182.047,297.162,174.053,292.904,169.646,285.282z"/>
<g>
</g>
<g>
</g>
<g>
</g>
<g>
</g>
<g>
</g>
<g>
</g>
<g>
</g>
<g>
</g>
<g>
</g>
<g>
</g>
<g>
</g>
<g>
</g>
<g>
</g>
<g>
</g>
<g>
</g>
</svg>
