<?xml version="1.0" encoding="iso-8859-1"?>
<!-- Generator: Adobe Illustrator 19.0.0, SVG Export Plug-In . SVG Version: 6.00 Build 0)  -->
<svg version="1.1" id="Capa_1" xmlns="http://www.w3.org/2000/svg" xmlns:xlink="http://www.w3.org/1999/xlink" x="0px" y="0px"
	 viewBox="0 0 512 512" style="enable-background:new 0 0 512 512;" xml:space="preserve">
<path style="fill:#CC9D72;" d="M248.543,0.138C135.469,3.913,45.198,92.981,45.198,202.119c0,19.624-0.019,47.461-0.043,62.877
	l421.769-0.681c0.006-26.836,0.011-59.405,0.011-62.195C466.935,87.216,367.291-4.038,248.543,0.138z"/>
<path style="fill:#C19067;" d="M143.652,202.119c0-95.33,68.878-175.343,161.663-196.58c-18.167-4.172-37.208-6.089-56.772-5.402
	C135.469,3.913,45.198,92.981,45.198,202.119c0,19.624-0.019,47.461-0.043,62.877l98.454-0.159
	C143.634,249.39,143.652,221.678,143.652,202.119z"/>
<g>
	<path style="fill:#DBBC3B;" d="M474.018,273.552c0,15.88-15.936,28.75-32.816,28.75v-57.498
		C458.082,244.804,474.018,257.674,474.018,273.552z"/>
	<path style="fill:#DBBC3B;" d="M37.982,273.79c0,16.012,16.068,28.99,33.089,28.99v-57.976
		C54.052,244.804,37.982,257.781,37.982,273.79z"/>
</g>
<g>
	<path style="fill:#CCAF37;" d="M441.202,277.651v24.651c16.88,0,32.816-12.87,32.816-28.75c0-4.412-1.233-8.59-3.373-12.325
		C465.085,270.937,453.392,277.651,441.202,277.651z"/>
	<path style="fill:#CCAF37;" d="M41.327,261.465c-2.121,3.741-3.345,7.916-3.345,12.325c0,16.011,16.068,28.989,33.089,28.989
		v-24.651C58.738,278.129,46.909,271.311,41.327,261.465z"/>
</g>
<path style="fill:#F4D44E;" d="M441.176,244.691c-1.213-2.034-22.757-22.322-22.757-57.794v-14.216v-4.829
	c0-0.744-0.017-1.463-0.039-2.171c-0.018-0.191-0.042-0.394-0.069-0.6c-0.002-0.013-0.004-0.027-0.006-0.04
	c-0.029-0.211-0.063-0.43-0.104-0.655c0,0,4.349-63.87-51.829-50.134c-47.605,11.641-108.496,13.051-110.372,13.093
	c-1.876-0.041-62.767-1.453-110.372-13.093c-56.177-13.737-51.829,50.134-51.829,50.134c-0.29,1.595-0.217,1.21-0.217,22.511
	c0,35.285-21.571,55.806-22.757,57.794c0,8.41-0.092-29.56-0.092,89.786c0,99.255,84.811,178.761,187.297,177.507
	c100.137-0.876,183.239-78.964,183.239-177.708C441.243,211.171,441.176,254.982,441.176,244.691z"/>
<path style="fill:#E8C842;" d="M122.244,334.478c0-59.307,0.023-79.759,0.046-86.367c0.315-3.898,2.314-6.142,2.314-6.142h-0.001
	c5.795-6.883,20.491-25.939,20.491-55.072c0-21.301-0.071-20.916,0.217-22.511c0,0-2.247-33.022,17.374-46.471
	c-5.789-1.092-11.513-2.307-17.056-3.662c-56.177-13.737-51.829,50.134-51.829,50.134c-0.29,1.595-0.217,1.21-0.217,22.511
	c0,35.285-21.571,55.806-22.757,57.794c0,8.409-0.092-29.56-0.092,89.786c0,99.255,84.811,178.761,187.297,177.507
	c8.011-0.07,15.911-0.64,23.67-1.669C192.139,498.407,122.244,424.583,122.244,334.478z"/>
<g>
	<path style="fill:#656566;" d="M374.032,261.652c-18.184-15.198-44.705-15.178-62.864,0c-3.272,2.733-8.146,2.301-10.884-0.966
		c-2.739-3.268-2.306-8.134,0.966-10.87c23.88-19.957,58.761-20.006,82.7,0c3.272,2.735,3.705,7.602,0.966,10.87
		C382.168,263.964,377.294,264.378,374.032,261.652z"/>
	<path style="fill:#656566;" d="M200.922,261.651c-18.223-15.23-44.74-15.147-62.864,0c-3.271,2.736-8.145,2.304-10.884-0.965
		c-2.739-3.267-2.307-8.134,0.966-10.869c23.923-19.997,58.81-19.968,82.7,0c3.272,2.734,3.705,7.602,0.966,10.869
		C209.059,263.964,204.183,264.378,200.922,261.651z"/>
	<path style="fill:#656566;" d="M201.424,411.095c22.6,43.434,84.344,44.568,108.851,2.92c2.882-4.897-0.638-11.068-6.325-11.068
		h-97.564C202.196,402.948,199.493,407.383,201.424,411.095z"/>
</g>
<path style="fill:#4F4F51;" d="M227.119,411.095c-1.48-3.712,0.592-8.149,3.801-8.149h-24.534c-4.189,0-6.893,4.437-4.962,8.149
	c12.192,23.43,37.418,35.957,62.584,33.034C249.868,441.987,235.18,431.315,227.119,411.095z"/>
<path style="fill:#656566;" d="M190.115,279.352c-6.577-11.375-21.142-15.273-32.534-8.706
	c-11.391,6.568-15.294,21.114-8.717,32.489s21.142,15.273,32.534,8.705C192.79,305.274,196.692,290.728,190.115,279.352z"/>
<path style="fill:#4F4F51;" d="M169.49,291.244c-4.407-7.623-4.102-16.666,0.002-23.78c-4.048-0.004-8.152,1.017-11.91,3.183
	c-11.391,6.568-15.294,21.114-8.718,32.489c6.577,11.376,21.142,15.273,32.534,8.706c3.758-2.167,6.695-5.205,8.716-8.708
	C181.891,303.126,173.898,298.867,169.49,291.244z"/>
<path style="fill:#DBBC3B;" d="M270.617,315.029h-29.144c-3.946,0-7.174,3.224-7.174,7.164v5.449c0,9.264,5.873,17.665,14.724,20.44
	c14.992,4.701,28.767-6.351,28.767-20.618v-5.27C277.791,318.252,274.562,315.029,270.617,315.029z"/>
<path style="fill:#CCAF37;" d="M256.045,322.193c0-3.941,3.228-7.164,7.174-7.164h-21.745c-3.946,0-7.174,3.224-7.174,7.164v5.449
	c0,17.411,18.653,26.581,32.499,18.697C253.508,338.799,256.411,323.983,256.045,322.193z"/>
<path style="fill:#656566;" d="M363.225,279.352c-6.577-11.375-21.142-15.273-32.534-8.706
	c-11.391,6.568-15.294,21.114-8.717,32.489s21.142,15.273,32.534,8.705C365.899,305.274,369.802,290.728,363.225,279.352z"/>
<path style="fill:#4F4F51;" d="M342.601,267.464c-18.181-0.018-29.833,19.75-20.627,35.673c9.205,15.921,32.175,15.731,41.25-0.003
	C355.001,303.126,333.454,283.323,342.601,267.464z"/>
<g>
</g>
<g>
</g>
<g>
</g>
<g>
</g>
<g>
</g>
<g>
</g>
<g>
</g>
<g>
</g>
<g>
</g>
<g>
</g>
<g>
</g>
<g>
</g>
<g>
</g>
<g>
</g>
<g>
</g>
</svg>
