<?xml version="1.0" encoding="iso-8859-1"?>
<!-- Generator: Adobe Illustrator 19.0.0, SVG Export Plug-In . SVG Version: 6.00 Build 0)  -->
<svg version="1.1" id="Capa_1" xmlns="http://www.w3.org/2000/svg" xmlns:xlink="http://www.w3.org/1999/xlink" x="0px" y="0px"
	 viewBox="0 0 512.001 512.001" style="enable-background:new 0 0 512.001 512.001;" xml:space="preserve">
<path style="fill:#CC9D72;" d="M401.813,45.249c-99.05-68.942-233.875-57.621-321.424,23.849
	c-91.799,85.237-98.017,245.57,1.206,325.378l348.878-0.117C534.041,310.886,527.596,131.876,401.813,45.249z"/>
<path style="fill:#C19067;" d="M193.73,40.937c15.94-16.116,33.453-29.694,52.026-40.691c-60.144,2.551-119.3,25.985-165.366,68.851
	c-91.799,85.237-98.017,245.57,1.206,325.378l113.298-0.038C95.714,307.709,101.944,133.538,193.73,40.937z"/>
<path style="fill:#F4D44E;" d="M422.564,239.922c-23.999-41.185-56.168-71.675-103.436-90.269
	c-26.157-10.29-46.472-27.663-56.389-37.254c-2.908-2.811-6.531-2.611-6.429-2.59c-2.724,0-5.335,1.05-7.302,2.936
	c-10.073,9.657-30.263,26.74-56.109,36.908c-46.742,18.388-79.949,49.067-104.639,92.359
	c-20.955,36.774-17.483,47.007-17.483,92.507c0,95.865,78.876,172.686,175.736,177.267c2.479,0.117,4.969,0.187,7.471,0.209
	c0.677,0.008,1.353,0.004,2.029,0.005c0.676-0.001,1.352,0.004,2.029-0.005c2.502-0.022,4.993-0.092,7.471-0.209
	c96.601-4.569,175.736-81.072,175.736-177.469C441.238,289.249,444.97,278.388,422.564,239.922z"/>
<path style="fill:#E8C842;" d="M123.012,334.519c0-35.048-2.057-100.506,6.575-145.538c-16.037,14.875-29.638,32.538-41.326,53.032
	c-20.955,36.774-17.483,47.007-17.483,92.507c0,95.865,78.876,172.686,175.736,177.267c2.479,0.117,4.969,0.187,7.471,0.209
	c0.677,0.008,1.353,0.004,2.029,0.005c0.676-0.001,1.352,0.004,2.029-0.005c2.502-0.022,4.993-0.092,7.471-0.209
	c5.603-0.266,11.144-0.783,16.616-1.521C193.027,498.24,123.012,424.837,123.012,334.519z"/>
<g>
	<path style="fill:#656566;" d="M375.956,263.729c-19.116-8.001-47.654-8.015-66.804,0c-3.934,1.645-8.462-0.209-10.109-4.144
		c-1.647-3.936,0.208-8.462,4.144-10.11c22.974-9.613,55.723-9.629,78.735,0c3.936,1.647,5.791,6.173,4.144,10.11
		C384.418,263.52,379.895,265.376,375.956,263.729z"/>
	<path style="fill:#656566;" d="M202.876,263.729c-19.15-8.016-47.687-8.001-66.804,0c-3.934,1.645-8.462-0.209-10.109-4.144
		c-1.647-3.936,0.208-8.462,4.144-10.11c22.974-9.613,55.724-9.629,78.735,0c3.936,1.647,5.791,6.173,4.144,10.11
		C211.338,263.52,206.815,265.376,202.876,263.729z"/>
	<path style="fill:#656566;" d="M309.103,400.536c-24.398-1.064-36-4.759-52.564,1.901l-0.731,0.294
		c-1.094-0.35-12.341-5.932-30.18-3.749l-23.114,1.555c-2.355,0.158-3.041,3.295-0.968,4.423l30.607,16.65
		c5.396,2.605,17.69,3.786,23.656,1.725c5.967,2.06,18.26,0.88,23.656-1.725l30.607-16.65
		C312.144,403.831,311.458,400.695,309.103,400.536z"/>
	<path style="fill:#656566;" d="M190.102,286.938c-6.576-11.374-21.139-15.271-32.529-8.704
		c-11.389,6.567-15.292,21.11-8.716,32.483c6.576,11.373,21.139,15.271,32.529,8.704
		C192.775,312.854,196.677,298.311,190.102,286.938z"/>
</g>
<path style="fill:#4F4F51;" d="M169.479,298.827c-4.407-7.621-4.102-16.663,0.002-23.776c-4.048-0.004-8.15,1.017-11.908,3.183
	c-11.389,6.567-15.292,21.11-8.716,32.483c6.576,11.374,21.139,15.271,32.529,8.704c3.757-2.166,6.694-5.204,8.714-8.707
	C181.879,310.706,173.886,306.449,169.479,298.827z"/>
<path style="fill:#DBBC3B;" d="M270.589,315.396H241.45c-3.945,0-7.173,3.223-7.173,7.163v5.448c0,9.263,5.872,17.661,14.722,20.437
	c14.989,4.7,28.763-6.35,28.763-20.614v-5.269C277.762,318.62,274.534,315.396,270.589,315.396z"/>
<path style="fill:#CCAF37;" d="M256.019,322.559c0-3.94,3.227-7.163,7.173-7.163H241.45c-3.945,0-7.173,3.223-7.173,7.163v5.448
	c0,17.408,18.65,26.577,32.493,18.694C253.484,339.164,256.385,324.351,256.019,322.559z"/>
<path style="fill:#656566;" d="M363.182,286.938c-6.576-11.374-21.139-15.271-32.529-8.704c-11.389,6.567-15.292,21.11-8.716,32.483
	s21.139,15.271,32.529,8.704C365.855,312.854,369.757,298.311,363.182,286.938z"/>
<path style="fill:#4F4F51;" d="M342.561,275.051c-18.177-0.018-29.828,19.747-20.624,35.667c9.203,15.918,32.17,15.728,41.243-0.003
	C354.959,310.706,333.415,290.907,342.561,275.051z"/>
<g>
</g>
<g>
</g>
<g>
</g>
<g>
</g>
<g>
</g>
<g>
</g>
<g>
</g>
<g>
</g>
<g>
</g>
<g>
</g>
<g>
</g>
<g>
</g>
<g>
</g>
<g>
</g>
<g>
</g>
</svg>
