<?xml version="1.0" encoding="iso-8859-1"?>
<!-- Generator: Adobe Illustrator 19.0.0, SVG Export Plug-In . SVG Version: 6.00 Build 0)  -->
<svg version="1.1" id="Capa_1" xmlns="http://www.w3.org/2000/svg" xmlns:xlink="http://www.w3.org/1999/xlink" x="0px" y="0px"
	 viewBox="0 0 511.96 511.96" style="enable-background:new 0 0 511.96 511.96;" xml:space="preserve">
<circle style="fill:#F4D44E;" cx="256" cy="255.961" r="255.96"/>
<path style="fill:#E8C842;" d="M172.714,451.823C11.266,358.611,1.463,130.355,150.782,22.624
	c-47.271,21.269-88.55,57.037-116.447,105.358c-70.681,122.423-28.736,278.964,93.686,349.645
	c90.093,52.015,198.659,43.029,277.889-14.133C333.415,496.111,246.817,494.606,172.714,451.823z"/>
<path style="fill:#ED694A;" d="M410.618,167.199c-8.314-15.122-27.51-20.431-42.84-12.508l-4.861,2.512
	c-1.56,0.807-3.479,0.209-4.305-1.341l-2.576-4.827c-8.125-15.225-26.942-21.748-42.37-14.017
	c-15.956,7.995-22.098,27.51-13.747,43.158c7.274,13.63,30.124,56.447,28.672,53.727c2.833,5.306,9.403,7.352,14.747,4.591
	c11.355-5.868,42.806-22.122,54.102-27.96C413.197,202.39,419.217,182.837,410.618,167.199z"/>
<path style="fill:#D8553A;" d="M354.394,229.774L354.394,229.774c-1.303-2.442-21.847-40.936-28.673-53.727
	c-7.711-14.45-3.058-32.19,10.263-41.118c-26.45-7.377-49.134,20.76-36.066,45.247c6.826,12.791,27.369,51.285,28.673,53.728
	c2.833,5.306,9.403,7.352,14.747,4.59c3.029-1.565,7.494-3.873,12.617-6.521C355.388,231.347,354.801,230.544,354.394,229.774z"/>
<path style="fill:#ED694A;" d="M98.461,168.859c8.137-15.219,27.267-20.753,42.69-13.01l4.89,2.455
	c1.569,0.788,3.481,0.168,4.289-1.391l2.519-4.857c7.946-15.319,26.684-22.063,42.202-14.514
	c16.049,7.807,22.42,27.248,14.253,42.994c-7.221,13.923-29.43,56.744-28.039,54.061c-2.769,5.339-9.316,7.463-14.692,4.763
	c-11.422-5.734-43.065-21.618-54.426-27.322C96.296,204.079,90.046,184.598,98.461,168.859z"/>
<g>
	<path style="fill:#D8553A;" d="M188.397,220.846c-13.549-6.802-40.216-20.188-50.446-25.323
		c-15.817-7.941-22.071-27.351-13.74-43.071c-32.327,2.229-40.525,45.298-12.064,59.585c11.361,5.703,43.004,21.588,54.426,27.322
		c5.376,2.698,11.922,0.576,14.692-4.764c-0.013,0.025-0.019,0.037-0.028,0.054C181.566,234.015,184.487,228.385,188.397,220.846z"
		/>
	<path style="fill:#D8553A;" d="M181.238,234.649C181.197,234.727,181.197,234.728,181.238,234.649L181.238,234.649z"/>
</g>
<path style="fill:#656566;" d="M132.373,339.344c50.645,97.464,188.88,99.72,243.633,6.543c6.449-10.974-1.429-24.806-14.158-24.806
	H143.478C134.102,321.081,128.05,331.024,132.373,339.344z"/>
<path style="fill:#4F4F51;" d="M158.177,339.344c-4.323-8.32,1.728-18.263,11.105-18.263h-25.803
	c-9.376,0-15.428,9.943-11.105,18.263c26.694,51.378,81.448,79.548,136.869,74.402C222.457,409.424,180.416,382.149,158.177,339.344
	z"/>
<path style="fill:#ED694A;" d="M264.142,370.245c-16.882,6.845-22.125-6.803-51.118-5.451c-17.26,0.806-33.018,7.475-45.401,18.004
	c50.007,40.877,123.089,42.857,175.351,1.162c-12.58-11.205-28.863-18.337-46.756-19.167
	C284.833,364.265,273.978,366.257,264.142,370.245z"/>
<path style="fill:#D8553A;" d="M182.535,372.868c-5.361,2.724-10.363,6.063-14.908,9.926c27.962,22.871,64.6,34.364,101.57,30.946
	C236.907,410.747,205.947,396.607,182.535,372.868z"/>
<g>
</g>
<g>
</g>
<g>
</g>
<g>
</g>
<g>
</g>
<g>
</g>
<g>
</g>
<g>
</g>
<g>
</g>
<g>
</g>
<g>
</g>
<g>
</g>
<g>
</g>
<g>
</g>
<g>
</g>
</svg>
