<?xml version="1.0" encoding="iso-8859-1"?>
<!-- Generator: Adobe Illustrator 19.0.0, SVG Export Plug-In . SVG Version: 6.00 Build 0)  -->
<svg version="1.1" id="Capa_1" xmlns="http://www.w3.org/2000/svg" xmlns:xlink="http://www.w3.org/1999/xlink" x="0px" y="0px"
	 viewBox="0 0 512.002 512.002" style="enable-background:new 0 0 512.002 512.002;" xml:space="preserve">
<path style="fill:#CC9D72;" d="M248.544,0.162C135.474,3.938,45.206,93.003,45.206,202.139c0,19.623-0.019,47.46-0.043,62.876
	l421.758-0.681c0.006-26.835,0.01-59.403,0.011-62.194C466.931,87.238,367.29-4.014,248.544,0.162z"/>
<path style="fill:#C19067;" d="M123.004,202.139c0-98.836,74.036-181.209,171.994-198.681c-15.016-2.688-30.562-3.855-46.455-3.295
	C135.474,3.938,45.206,93.003,45.206,202.139c0,19.623-0.019,47.46-0.043,62.876l77.8-0.125
	C122.985,249.447,123.004,221.71,123.004,202.139z"/>
<g>
	<path style="fill:#DBBC3B;" d="M474.014,273.893c0,16.058-16.116,29.073-33.185,29.073v-58.144
		C457.899,244.822,474.014,257.837,474.014,273.893z"/>
	<path style="fill:#DBBC3B;" d="M37.988,273.587c0,15.889,15.945,28.766,32.835,28.766v-57.53
		C53.935,244.823,37.988,257.701,37.988,273.587z"/>
</g>
<g>
	<path style="fill:#CCAF37;" d="M440.829,278.385v24.581c17.069,0,33.185-13.014,33.185-29.073c0-4.394-1.213-8.557-3.315-12.29
		C465.117,271.515,453.227,278.385,440.829,278.385z"/>
	<path style="fill:#CCAF37;" d="M41.34,261.298c-2.125,3.727-3.352,7.892-3.352,12.29c0,15.889,15.945,28.766,32.835,28.766v-24.581
		C58.61,277.773,46.893,271.036,41.34,261.298z"/>
</g>
<path style="fill:#F4D44E;" d="M441.173,244.71l-3.309-3.981c-24.668-29.672-18.535-61.01-19.448-68.028
	c-0.069-31.901,0.4-92.087-18.367-118.198c-81.532-73.065-207.591-72.356-288.257,0.24c-20.486,28.924-18.204,99.208-18.204,132.173
	c0,19.658-6.88,38.697-19.448,53.812l-3.309,3.981c0,0.576-0.072-8.357-0.092,89.583c0,0.077,0,0.144,0,0.201
	c0,98.138,82.763,176.623,183.234,177.503c0.678,0.008,1.353,0.003,2.029,0.005c0.676-0.001,1.351,0.004,2.029-0.005
	c100.134-0.876,183.234-78.962,183.234-177.703C441.245,236.584,441.173,245.261,441.173,244.71z"/>
<path style="fill:#E8C842;" d="M122.557,334.494c0-0.057,0-0.124,0-0.201c0.01-48.05,0.032-70.367,0.052-80.713
	c0-8.079,2.542-11.833,3.195-12.666l0.153-0.184c12.568-15.117,19.448-34.155,19.448-53.812c0-23.373-1.147-72.235,5.486-109.003
	c3.97-22.003,16.562-41.495,35.042-54.078c13.1-8.918,27.03-16.239,41.493-21.959c-42.037,5.508-82.635,23.167-115.636,52.867
	c-20.485,28.922-18.203,99.206-18.203,132.171c0,19.658-6.88,38.697-19.448,53.812l-3.309,3.981c0,0.576-0.072-8.357-0.092,89.583
	c0,0.077,0,0.144,0,0.201c0,98.138,82.763,176.623,183.234,177.503c0.678,0.008,1.353,0.003,2.029,0.005
	c0.676-0.001,1.351,0.004,2.029-0.005c8.081-0.071,16.048-0.651,23.872-1.698C192.531,498.345,122.557,424.73,122.557,334.494z"/>
<g>
	<path style="fill:#656566;" d="M375.962,256.483c-19.119-8.002-47.661-8.016-66.815,0c-3.935,1.644-8.463-0.208-10.111-4.145
		c-1.648-3.937,0.208-8.463,4.144-10.111c22.978-9.615,55.731-9.631,78.746,0c3.936,1.648,5.792,6.174,4.144,10.111
		C384.425,256.273,379.901,258.129,375.962,256.483z"/>
	<path style="fill:#656566;" d="M201.964,258.585c-18.665-10.822-46.399-10.802-65.029,0c-3.688,2.142-8.419,0.884-10.56-2.808
		c-2.14-3.691-0.883-8.419,2.808-10.56c23.396-13.566,57.066-13.605,80.53,0c3.691,2.14,4.95,6.868,2.808,10.56
		C210.393,259.451,205.671,260.735,201.964,258.585z"/>
	<path style="fill:#656566;" d="M201.427,411.501c22.6,43.433,84.341,44.567,108.848,2.92c2.882-4.897-0.638-11.068-6.325-11.068
		h-97.561C202.199,403.353,199.495,407.789,201.427,411.501z"/>
</g>
<path style="fill:#4F4F51;" d="M227.121,411.502c-1.48-3.712,0.592-8.149,3.801-8.149h-24.534c-4.189,0-6.892,4.437-4.962,8.149
	c12.191,23.43,37.417,35.956,62.582,33.033C249.87,442.391,235.183,431.719,227.121,411.502z"/>
<path style="fill:#656566;" d="M190.119,279.761c-6.577-11.375-21.142-15.273-32.533-8.705
	c-11.391,6.568-15.294,21.113-8.717,32.488c6.577,11.375,21.142,15.273,32.533,8.705
	C192.792,305.682,196.695,291.137,190.119,279.761z"/>
<path style="fill:#4F4F51;" d="M169.494,291.653c-4.407-7.622-4.102-16.666,0.002-23.78c-4.048-0.004-8.152,1.017-11.909,3.183
	c-11.391,6.568-15.294,21.113-8.717,32.488c6.577,11.375,21.142,15.273,32.533,8.705c3.758-2.167,6.695-5.205,8.716-8.708
	C181.894,303.533,173.901,299.275,169.494,291.653z"/>
<path style="fill:#DBBC3B;" d="M270.618,315.436h-29.143c-3.946,0-7.174,3.223-7.174,7.164v5.449c0,9.264,5.873,17.665,14.724,20.44
	c14.992,4.701,28.767-6.351,28.767-20.617v-5.27C277.792,318.66,274.563,315.436,270.618,315.436z"/>
<path style="fill:#CCAF37;" d="M256.046,322.6c0-3.94,3.228-7.164,7.174-7.164h-21.745c-3.946,0-7.174,3.223-7.174,7.164v5.449
	c0,17.411,18.653,26.58,32.498,18.696C253.509,339.206,256.412,324.392,256.046,322.6z"/>
<path style="fill:#656566;" d="M363.224,279.761c-6.577-11.375-21.142-15.273-32.533-8.705c-11.39,6.568-15.294,21.113-8.717,32.488
	s21.142,15.273,32.533,8.705C365.898,305.682,369.8,291.137,363.224,279.761z"/>
<path style="fill:#4F4F51;" d="M342.6,267.872c-18.18-0.018-29.832,19.749-20.627,35.672c9.204,15.921,32.174,15.73,41.249-0.003
	C355.001,303.533,333.453,283.731,342.6,267.872z"/>
<g>
</g>
<g>
</g>
<g>
</g>
<g>
</g>
<g>
</g>
<g>
</g>
<g>
</g>
<g>
</g>
<g>
</g>
<g>
</g>
<g>
</g>
<g>
</g>
<g>
</g>
<g>
</g>
<g>
</g>
</svg>
