<?xml version="1.0" encoding="iso-8859-1"?>
<!-- Generator: Adobe Illustrator 19.0.0, SVG Export Plug-In . SVG Version: 6.00 Build 0)  -->
<svg version="1.1" id="Capa_1" xmlns="http://www.w3.org/2000/svg" xmlns:xlink="http://www.w3.org/1999/xlink" x="0px" y="0px"
	 viewBox="0 0 512 512" style="enable-background:new 0 0 512 512;" xml:space="preserve">
<path style="fill:#CC9D72;" d="M354.999,484.529c30.445,2.611,57.752,6.485,78.179,10.384c16.848,3.174,33.395-6.735,38.648-23.055
	c17.841-55.42,23.789-122.39,25.524-171.572c-0.019-11.989,0-67.396,0-68.926c0-70.924-33.349-135.877-89.05-179.427
	C252.107-69.964,14.651,36.071,14.651,231.36c0.011,39.143,0.017,49.628,0,68.926c1.734,49.182,7.683,116.152,25.524,171.572
	c5.254,16.32,21.801,26.229,38.648,23.055c25.445-4.77,51.68-8.115,78.102-10.377"/>
<path style="fill:#C19067;" d="M152.502,470.651c-17.841-58.252-28.94-128.642-30.674-180.336c0.017-20.284,0.011-31.303,0-72.446
	c0-101.326,57.864-179.787,135.249-217.86C132.699,0.35,14.651,93.666,14.651,231.36c0.011,39.143,0.017,49.628,0,68.926
	c1.734,49.182,7.683,116.152,25.524,171.572c5.254,16.32,21.801,26.229,38.648,23.055c25.445-4.771,51.68-8.115,78.102-10.377h3.469
	C156.885,480.706,154.142,476.007,152.502,470.651z"/>
<path style="fill:#F4D44E;" d="M441.197,251.207c-78.408-17.524-138.503-51.63-178.541-80.816
	c-21.42-14.655-38.718-30.165-55.345-48.104c-1.451-1.566-4-1.274-5.046,0.587c-9.346,16.621-50.43,81.524-128.146,93.74
	c-3.992,1.728-3.4,5.524-3.4,9.813c-0.006,27.629-0.017,107.926-0.017,108.075c0,96.274,80.898,177.343,185.254,177.498
	c103.799-0.154,185.254-80.55,185.254-177.699C441.209,330.272,441.203,284.745,441.197,251.207z"/>
<path style="fill:#E8C842;" d="M123.049,334.503c0-0.142,0.01-100.071,0.016-134.006c-14.321,7.421-30.613,13.236-48.947,16.117
	c-3.992,1.728-3.4,5.524-3.4,9.813c-0.006,27.629-0.017,107.926-0.017,108.075c0,96.274,80.898,177.343,185.254,177.498
	c8.899-0.013,17.63-0.63,26.164-1.784C190.724,497.874,123.049,422.555,123.049,334.503z"/>
<path style="fill:#656566;" d="M309.305,401.788c-36.608-2.389-35.13-3.605-53.3,2.194c-1.532-0.406-9.051-4.807-26.296-4.087
	c-0.123,0.005-0.48-0.005-27.004,1.893c-2.355,0.158-3.042,3.295-0.968,4.424l30.61,16.651c5.397,2.605,17.692,3.786,23.658,1.725
	c5.967,2.061,18.262,0.88,23.658-1.725l30.61-16.651C312.347,405.083,311.661,401.946,309.305,401.788z"/>
<path style="fill:#4F4F51;" d="M310.274,403.592l-30.61,9.845c-5.397,1.54-17.692,2.238-23.658,1.02
	c-5.967,1.218-18.262,0.52-23.658-1.02l-30.61-9.845c-0.442-0.142-0.751-0.34-0.953-0.561c-0.547,1.052-0.315,2.491,0.953,3.181
	l30.61,16.651c5.397,2.605,17.692,3.786,23.658,1.725c5.967,2.06,18.262,0.88,23.658-1.725l30.61-16.651
	c1.267-0.69,1.5-2.129,0.953-3.181C311.025,403.252,310.716,403.449,310.274,403.592z"/>
<g>
	<path style="fill:#656566;" d="M373.984,269.601c-18.183-15.197-44.701-15.177-62.859,0c-3.272,2.733-8.146,2.301-10.883-0.966
		c-2.739-3.268-2.305-8.134,0.966-10.869c23.879-19.955,58.757-20.005,82.694,0c3.272,2.735,3.705,7.601,0.966,10.869
		C382.119,271.913,377.245,272.327,373.984,269.601z"/>
	<path style="fill:#656566;" d="M200.887,269.6c-18.222-15.229-44.737-15.145-62.859,0c-3.271,2.736-8.145,2.304-10.883-0.965
		c-2.738-3.267-2.307-8.134,0.966-10.868c23.922-19.995,58.806-19.967,82.694,0c3.272,2.734,3.705,7.601,0.966,10.868
		C209.023,271.913,204.147,272.327,200.887,269.6z"/>
	<path style="fill:#656566;" d="M190.081,287.3c-6.576-11.375-21.141-15.272-32.532-8.705c-11.39,6.567-15.293,21.112-8.717,32.487
		s21.141,15.272,32.532,8.705C192.755,313.22,196.657,298.676,190.081,287.3z"/>
</g>
<path style="fill:#4F4F51;" d="M169.457,299.192c-4.407-7.622-4.102-16.665,0.002-23.779c-4.048-0.004-8.151,1.017-11.909,3.183
	c-11.39,6.567-15.293,21.112-8.717,32.486c6.576,11.375,21.141,15.272,32.532,8.705c3.757-2.166,6.695-5.205,8.715-8.708
	C181.857,311.072,173.864,306.814,169.457,299.192z"/>
<path style="fill:#DBBC3B;" d="M270.577,315.763h-29.142c-3.946,0-7.173,3.223-7.173,7.164v5.448
	c0,9.263,5.873,17.663,14.723,20.439c14.991,4.701,28.765-6.351,28.765-20.616v-5.27
	C277.75,318.986,274.522,315.763,270.577,315.763z"/>
<path style="fill:#CCAF37;" d="M256.005,322.926c0-3.94,3.228-7.164,7.173-7.164h-21.744c-3.946,0-7.173,3.223-7.173,7.164v5.448
	c0,17.41,18.652,26.579,32.497,18.694C253.469,339.531,256.371,324.718,256.005,322.926z"/>
<path style="fill:#656566;" d="M363.177,287.3c-6.576-11.375-21.141-15.272-32.532-8.705c-11.39,6.567-15.293,21.112-8.717,32.487
	c6.576,11.375,21.141,15.272,32.532,8.705C365.852,313.22,369.754,298.676,363.177,287.3z"/>
<path style="fill:#4F4F51;" d="M342.555,275.412c-18.18-0.018-29.831,19.749-20.626,35.671c9.204,15.92,32.173,15.73,41.247-0.003
	C354.954,311.072,333.408,291.271,342.555,275.412z"/>
<g>
</g>
<g>
</g>
<g>
</g>
<g>
</g>
<g>
</g>
<g>
</g>
<g>
</g>
<g>
</g>
<g>
</g>
<g>
</g>
<g>
</g>
<g>
</g>
<g>
</g>
<g>
</g>
<g>
</g>
</svg>
