<?xml version="1.0" encoding="iso-8859-1"?>
<!-- Generator: Adobe Illustrator 19.0.0, SVG Export Plug-In . SVG Version: 6.00 Build 0)  -->
<svg version="1.1" id="Capa_1" xmlns="http://www.w3.org/2000/svg" xmlns:xlink="http://www.w3.org/1999/xlink" x="0px" y="0px"
	 viewBox="0 0 511.999 511.999" style="enable-background:new 0 0 511.999 511.999;" xml:space="preserve">
<path style="fill:#CC9D72;" d="M248.542,0.138C135.469,3.913,45.198,92.981,45.198,202.119c0,19.624-0.019,53.642-0.043,69.059
	l421.769-0.681c0.005-26.836,0.01-65.586,0.011-68.378C466.935,87.216,367.29-4.038,248.542,0.138z"/>
<path style="fill:#C19067;" d="M143.016,202.119c0-95.437,69.03-175.526,161.973-196.654c-18.069-4.12-36.999-6.011-56.447-5.327
	C135.469,3.913,45.198,92.981,45.198,202.119c0,19.624-0.019,53.642-0.043,69.059l97.818-0.158
	C142.997,255.533,143.016,221.679,143.016,202.119z"/>
<g>
	<path style="fill:#DBBC3B;" d="M474.017,273.735c0,15.981-16.038,28.935-33.027,28.935v-57.866
		C457.979,244.804,474.017,257.756,474.017,273.735z"/>
	<path style="fill:#DBBC3B;" d="M37.982,273.968c0,16.109,16.167,29.167,33.291,29.167v-58.331
		C54.149,244.804,37.982,257.86,37.982,273.968z"/>
</g>
<g>
	<path style="fill:#CCAF37;" d="M440.991,276.413v26.256c16.988,0,33.027-12.952,33.027-28.935c0-4.728-1.413-9.187-3.829-13.128
		C464.435,269.987,452.952,276.413,440.991,276.413z"/>
	<path style="fill:#CCAF37;" d="M41.778,260.84c-2.398,3.947-3.796,8.404-3.796,13.128c0,16.109,16.168,29.167,33.291,29.167
		v-26.257C59.171,276.877,47.555,270.352,41.778,260.84z"/>
</g>
<path style="fill:#F4D44E;" d="M441.175,244.691l-3.309-3.981c-26.497-31.871-17.648-65.194-19.665-76.325
	c0,0,4.349-63.87-51.829-50.134C318.766,125.892,257.875,127.303,256,127.344c-1.876-0.041-62.767-1.453-110.372-13.093
	c-56.177-13.737-51.829,50.134-51.829,50.134c-0.305,1.682-0.238,13.554-0.217,22.511c0,35.285-21.571,55.806-22.757,57.794
	c0,0-0.092-0.243-0.092,89.786c0,99.255,84.811,178.761,187.297,177.507c100.137-0.876,183.239-78.964,183.239-177.708
	C441.242,211.171,441.175,254.982,441.175,244.691z"/>
<path style="fill:#E8C842;" d="M122.784,334.478c0-42.898,0.021-65.299,0.043-76.996c0.014-7.733,2.505-15.227,6.988-21.527
	c6.705-9.424,15.819-26.122,15.819-49.057c-0.021-8.958-0.087-20.829,0.217-22.511c0,0-2.237-32.892,17.261-46.391
	c-5.935-1.113-11.804-2.355-17.484-3.743c-56.177-13.737-51.829,50.134-51.829,50.134c-0.305,1.682-0.238,13.554-0.217,22.511
	c0,35.285-21.57,55.806-22.757,57.794c0,0-0.092-0.242-0.092,89.786c0,99.255,84.811,178.761,187.297,177.507
	c8.098-0.071,16.082-0.654,23.922-1.705C192.529,498.251,122.784,424.486,122.784,334.478z"/>
<g>
	<path style="fill:#656566;" d="M374.656,262.102c-18.184-15.198-44.705-15.178-62.864,0c-3.272,2.733-8.146,2.301-10.884-0.966
		c-2.739-3.268-2.306-8.134,0.966-10.87c23.88-19.957,58.761-20.006,82.7,0c3.272,2.735,3.705,7.602,0.966,10.87
		C382.794,264.415,377.919,264.828,374.656,262.102z"/>
	<path style="fill:#656566;" d="M201.547,262.101c-18.223-15.23-44.74-15.147-62.864,0c-3.271,2.736-8.145,2.303-10.884-0.965
		c-2.739-3.267-2.307-8.134,0.966-10.869c23.923-19.997,58.81-19.968,82.7,0c3.272,2.734,3.705,7.602,0.966,10.869
		C209.684,264.415,204.808,264.829,201.547,262.101z"/>
	<path style="fill:#656566;" d="M202.049,410.516c22.6,43.434,84.344,44.568,108.851,2.92c2.882-4.897-0.638-11.068-6.325-11.068
		h-97.564C202.822,402.367,200.117,406.804,202.049,410.516z"/>
</g>
<path style="fill:#4F4F51;" d="M227.743,410.516c-1.48-3.712,0.592-8.149,3.801-8.149h-24.534c-4.189,0-6.893,4.437-4.962,8.149
	c12.192,23.43,37.418,35.957,62.584,33.034C250.494,441.408,235.806,430.735,227.743,410.516z"/>
<path style="fill:#656566;" d="M190.741,279.803c-6.577-11.375-21.142-15.273-32.534-8.706
	c-11.391,6.568-15.294,21.114-8.717,32.489s21.142,15.273,32.534,8.706C193.414,305.725,197.318,291.179,190.741,279.803z"/>
<path style="fill:#4F4F51;" d="M170.115,291.695c-4.407-7.623-4.102-16.666,0.002-23.78c-4.048-0.004-8.152,1.017-11.91,3.183
	c-11.391,6.568-15.294,21.114-8.718,32.489c6.577,11.376,21.142,15.273,32.534,8.706c3.758-2.167,6.695-5.205,8.716-8.708
	C182.517,303.575,174.522,299.318,170.115,291.695z"/>
<path style="fill:#DBBC3B;" d="M271.242,315.479h-29.144c-3.946,0-7.174,3.224-7.174,7.164v5.449c0,9.264,5.873,17.665,14.724,20.44
	c14.992,4.701,28.767-6.351,28.767-20.618v-5.27C278.416,318.703,275.188,315.479,271.242,315.479z"/>
<path style="fill:#CCAF37;" d="M256.67,322.643c0-3.941,3.228-7.164,7.174-7.164h-21.745c-3.946,0-7.174,3.224-7.174,7.164v5.449
	c0,17.411,18.653,26.581,32.499,18.697C254.133,339.25,257.036,324.434,256.67,322.643z"/>
<path style="fill:#656566;" d="M363.85,279.803c-6.577-11.375-21.142-15.273-32.534-8.706c-11.391,6.568-15.294,21.114-8.717,32.489
	s21.142,15.273,32.534,8.706S370.427,291.179,363.85,279.803z"/>
<path style="fill:#4F4F51;" d="M343.227,267.914c-18.181-0.018-29.833,19.75-20.627,35.673c9.205,15.921,32.175,15.731,41.25-0.003
	C355.626,303.575,334.079,283.774,343.227,267.914z"/>
<path style="fill:#E2A86A;" d="M348.242,371.667c-19.638,12.199-39.778,2.013-56.418-0.722
	c-17.065-2.805-30.484,9.243-34.243,13.057c-0.38,0.385-0.902,0.597-1.446,0.597l0,0c-0.66,0-1.288-0.257-1.75-0.721
	c-3.922-3.943-17.235-15.708-34.12-12.932c-16.641,2.735-36.78,12.921-56.419,0.722c-2.912-1.809-6.516,0.915-5.423,4.133
	c7.228,21.286,30.418,64.306,95.325,35.327c1.461-0.652,3.13-0.653,4.591-0.001c64.907,28.98,88.097-14.038,95.326-35.325
	C354.758,372.582,351.153,369.859,348.242,371.667z"/>
<g>
	<path style="fill:#C19067;" d="M226.062,370.539c-0.606-0.013-1.218-0.006-1.837,0.017
		C224.842,370.542,225.457,370.531,226.062,370.539z"/>
	<path style="fill:#C19067;" d="M287.851,370.556c-0.626-0.023-1.246-0.03-1.86-0.016
		C286.602,370.532,287.226,370.542,287.851,370.556z"/>
	<path style="fill:#C19067;" d="M353.665,373.734c-7.228,12.951-30.419,39.126-95.326,21.493c-1.461-0.397-3.13-0.397-4.591,0.001
		c-64.907,17.631-88.097-8.543-95.325-21.494c-0.02-0.036-0.028-0.071-0.044-0.106c-0.204,0.659-0.217,1.4,0.044,2.171
		c7.228,21.286,30.418,64.306,95.325,35.327c1.461-0.652,3.13-0.653,4.591-0.001c64.907,28.98,88.097-14.038,95.326-35.325
		c0.263-0.772,0.248-1.513,0.044-2.172C353.692,373.663,353.685,373.698,353.665,373.734z"/>
</g>
<g>
</g>
<g>
</g>
<g>
</g>
<g>
</g>
<g>
</g>
<g>
</g>
<g>
</g>
<g>
</g>
<g>
</g>
<g>
</g>
<g>
</g>
<g>
</g>
<g>
</g>
<g>
</g>
<g>
</g>
</svg>
