<?xml version="1.0" encoding="iso-8859-1"?>
<!-- Generator: Adobe Illustrator 19.0.0, SVG Export Plug-In . SVG Version: 6.00 Build 0)  -->
<svg version="1.1" id="Capa_1" xmlns="http://www.w3.org/2000/svg" xmlns:xlink="http://www.w3.org/1999/xlink" x="0px" y="0px"
	 viewBox="0 0 512 512" style="enable-background:new 0 0 512 512;" xml:space="preserve">
<path style="fill:#CC9D72;" d="M76.094,372.799l-54.869,33.747c-14.48,9.077-20.472,27.447-13.066,40.056l0,0
	c8.166,13.902,19.945,24.959,34.337,32.228c13.053,6.594,31.008-0.548,39.149-15.574l19.107-33.362
	C89.283,412.688,80.825,393.434,76.094,372.799z"/>
<path style="fill:#C19067;" d="M38.062,427.373l46.274-28.461c-3.414-8.406-6.182-17.128-8.242-26.114l-54.869,33.748
	c-14.48,9.077-20.472,27.447-13.066,40.056l0,0c4.445,7.567,9.967,14.283,16.392,20.012
	C17.856,454.04,23.889,436.257,38.062,427.373z"/>
<path style="fill:#CC9D72;" d="M490.774,406.546l-54.868-33.747c-4.731,20.635-13.19,39.89-24.66,57.096l19.107,33.361
	c8.142,15.026,26.096,22.168,39.149,15.574c14.391-7.27,26.17-18.326,34.337-32.228l0,0
	C511.247,433.993,505.255,415.623,490.774,406.546z"/>
<path style="fill:#C19067;" d="M445.573,438.167l-19.856-34.669c-4.064,9.229-8.909,18.055-14.47,26.398l19.107,33.361
	c8.142,15.026,26.096,22.168,39.149,15.574c8.268-4.177,15.669-9.609,22.022-16.107
	C474.722,465.805,455.212,455.956,445.573,438.167z"/>
<path style="fill:#CC9D72;" d="M466.935,202.12c0-114.903-99.644-206.158-218.393-201.982
	C135.468,3.914,45.198,92.982,45.198,202.12c0,11.644-0.007,29.081-0.017,44.557h-0.026c0.022,9.494,0.019,13.955,0,26.562h0.031
	c0.008,10.432,0.012,21.114,0.012,27.487c0,23.102,12.336,43.136,28.616,59.782l364.374,0.475
	c16.28-16.734,28.676-36.873,28.741-60.014C466.921,291.826,466.934,206.196,466.935,202.12z"/>
<path style="fill:#C19067;" d="M180.992,360.506c-16.28-16.646-28.616-36.68-28.616-59.782c0-6.371-0.005-17.054-0.012-27.487
	h-0.031c0.019-12.607,0.022-17.069,0-26.562h0.026c0.011-15.476,0.017-32.913,0.017-44.557c0-93.826,66.719-172.818,157.286-195.535
	c-19.468-4.897-39.989-7.19-61.121-6.447C135.468,3.914,45.198,92.982,45.198,202.12c0,11.644-0.007,29.081-0.017,44.557h-0.026
	c0.022,9.494,0.019,13.955,0,26.562h0.031c0.008,10.432,0.012,21.114,0.012,27.487c0,23.102,12.336,43.136,28.616,59.782
	l107.178,0.475c0.045-0.046-0.045-0.093,0-0.139V360.506z"/>
<g>
	<path style="fill:#DBBC3B;" d="M474.017,273.736c0,15.981-16.038,28.935-33.027,28.935v-57.866
		C457.979,244.804,474.017,257.756,474.017,273.736z"/>
	<path style="fill:#DBBC3B;" d="M37.982,274.036c0,16.148,16.205,29.235,33.369,29.235v-58.467
		C54.186,244.804,37.982,257.892,37.982,274.036z"/>
</g>
<g>
	<path style="fill:#CCAF37;" d="M440.991,277.954v24.716c16.988,0,33.027-12.952,33.027-28.935c0-4.422-1.232-8.61-3.369-12.358
		C465.064,271.176,453.278,277.954,440.991,277.954z"/>
	<path style="fill:#CCAF37;" d="M41.316,261.679c-2.114,3.754-3.334,7.94-3.334,12.358c0,16.148,16.205,29.235,33.369,29.235
		v-24.716C58.884,278.555,46.928,271.647,41.316,261.679z"/>
</g>
<path style="fill:#F4D44E;" d="M441.226,248.503c-0.013-1.279-0.985-4.593-0.051-3.779c0.059,0.052-13.469-25.167-22.973-42.875
	c-5.19-9.67-15.791-15.184-26.677-13.791c-30.405,3.888-93.051,4.681-129.526-45.514c-6.764-8.347-11.556-0.312-11.967-0.039
	l-0.003-0.002c-36.47,50.236-99.142,49.445-129.555,45.555c-10.886-1.392-21.488,4.121-26.677,13.791
	c-9.504,17.708-23.033,42.927-22.973,42.875c0.934-0.814-0.038,2.5-0.051,3.779c-0.041,4.199-0.041,85.83-0.041,85.975
	c0,98.53,84.104,178.77,187.297,177.507c100.137-0.876,183.238-78.964,183.238-177.708
	C441.249,245.883,441.261,252.069,441.226,248.503z"/>
<path style="fill:#E8C842;" d="M123.467,334.478c0-0.145,0.001-85.897,0.041-90.096c0.013-1.279,0.985-4.593,0.051-3.779
	c-0.06,0.052,13.469-25.167,22.973-42.875c1.746-3.253,4.115-6.023,6.891-8.231c-12.73,0.542-24.181-0.319-32.949-1.44
	c-10.886-1.392-21.488,4.121-26.677,13.791c-9.504,17.708-23.033,42.927-22.973,42.875c0.934-0.814-0.038,2.5-0.051,3.779
	c-0.041,4.199-0.041,85.83-0.041,85.975c0,98.53,84.104,178.77,187.297,177.507c8.203-0.072,16.288-0.671,24.225-1.748
	C192.519,498.018,123.467,423.758,123.467,334.478z"/>
<g>
	<path style="fill:#656566;" d="M374.031,261.832c-18.184-15.198-44.705-15.178-62.864,0c-3.272,2.733-8.146,2.301-10.884-0.966
		c-2.739-3.268-2.305-8.134,0.966-10.87c23.88-19.957,58.761-20.006,82.7,0c3.272,2.735,3.705,7.602,0.966,10.87
		C382.168,264.146,377.292,264.559,374.031,261.832z"/>
	<path style="fill:#656566;" d="M200.921,261.831c-18.223-15.23-44.74-15.147-62.864,0c-3.271,2.736-8.145,2.303-10.884-0.965
		c-2.739-3.267-2.307-8.134,0.966-10.869c23.923-19.997,58.81-19.968,82.7,0c3.272,2.734,3.705,7.602,0.966,10.869
		C209.058,264.146,204.182,264.559,200.921,261.831z"/>
	<path style="fill:#656566;" d="M201.423,408.186c22.6,43.434,84.344,44.568,108.851,2.92c2.882-4.897-0.638-11.068-6.325-11.068
		h-97.564C202.195,400.038,199.492,404.474,201.423,408.186z"/>
</g>
<path style="fill:#4F4F51;" d="M227.118,408.186c-1.48-3.712,0.592-8.149,3.801-8.149h-24.534c-4.189,0-6.893,4.437-4.962,8.149
	c12.192,23.43,37.418,35.957,62.584,33.034C249.868,439.078,235.18,428.405,227.118,408.186z"/>
<path style="fill:#656566;" d="M190.115,279.534c-6.577-11.375-21.142-15.273-32.534-8.706
	c-11.391,6.568-15.294,21.114-8.717,32.489c6.577,11.375,21.142,15.273,32.534,8.706
	C192.789,305.456,196.692,290.909,190.115,279.534z"/>
<path style="fill:#4F4F51;" d="M169.49,291.425c-4.407-7.623-4.102-16.666,0.002-23.78c-4.048-0.004-8.152,1.017-11.91,3.183
	c-11.391,6.568-15.294,21.114-8.718,32.489c6.577,11.376,21.142,15.273,32.534,8.706c3.758-2.167,6.695-5.205,8.716-8.708
	C181.891,303.306,173.896,299.048,169.49,291.425z"/>
<path style="fill:#DBBC3B;" d="M270.616,315.21h-29.144c-3.946,0-7.174,3.224-7.174,7.164v5.449c0,9.264,5.873,17.665,14.724,20.44
	c14.992,4.701,28.767-6.351,28.767-20.618v-5.27C277.79,318.434,274.562,315.21,270.616,315.21z"/>
<path style="fill:#CCAF37;" d="M256.045,322.374c0-3.941,3.228-7.164,7.174-7.164h-21.745c-3.946,0-7.174,3.224-7.174,7.164v5.449
	c0,17.411,18.653,26.581,32.499,18.697C253.508,338.98,256.41,324.165,256.045,322.374z"/>
<path style="fill:#656566;" d="M363.225,279.534c-6.577-11.375-21.142-15.273-32.534-8.706
	c-11.391,6.567-15.294,21.114-8.717,32.489s21.142,15.273,32.534,8.706C365.898,305.456,369.802,290.909,363.225,279.534z"/>
<path style="fill:#4F4F51;" d="M342.601,267.645c-18.18-0.018-29.833,19.75-20.627,35.673c9.205,15.921,32.175,15.731,41.25-0.003
	C355.001,303.306,333.453,283.504,342.601,267.645z"/>
<g>
</g>
<g>
</g>
<g>
</g>
<g>
</g>
<g>
</g>
<g>
</g>
<g>
</g>
<g>
</g>
<g>
</g>
<g>
</g>
<g>
</g>
<g>
</g>
<g>
</g>
<g>
</g>
<g>
</g>
</svg>
