<?xml version="1.0" encoding="iso-8859-1"?>
<!-- Generator: Adobe Illustrator 19.0.0, SVG Export Plug-In . SVG Version: 6.00 Build 0)  -->
<svg version="1.1" id="Capa_1" xmlns="http://www.w3.org/2000/svg" xmlns:xlink="http://www.w3.org/1999/xlink" x="0px" y="0px"
	 viewBox="0 0 511.999 511.999" style="enable-background:new 0 0 511.999 511.999;" xml:space="preserve">
<path style="fill:#CC9D72;" d="M248.543,0.138C135.469,3.913,45.199,92.981,45.199,202.119c0,19.624-0.019,51.582-0.043,66.998
	l421.77-0.681c0.005-26.836,0.01-63.525,0.011-66.317C466.935,87.216,367.292-4.038,248.543,0.138z"/>
<path style="fill:#C19067;" d="M145.669,202.119c0-94.992,68.392-174.767,160.677-196.344c-18.476-4.338-37.868-6.338-57.802-5.637
	C135.469,3.913,45.199,92.981,45.199,202.119c0,19.624-0.019,51.582-0.043,66.998l100.47-0.162
	C145.65,253.48,145.669,221.677,145.669,202.119z"/>
<g>
	<path style="fill:#DBBC3B;" d="M474.018,273.994c0,16.124-16.182,29.192-33.32,29.192v-58.382
		C457.838,244.804,474.018,257.872,474.018,273.994z"/>
	<path style="fill:#DBBC3B;" d="M37.981,273.941c0,16.093,16.151,29.137,33.258,29.137v-58.273
		C54.131,244.806,37.981,257.849,37.981,273.941z"/>
</g>
<g>
	<path style="fill:#CCAF37;" d="M440.698,279.21v23.976c17.139,0,33.32-13.068,33.32-29.192c0-4.274-1.146-8.329-3.137-11.987
		C465.362,272.148,453.294,279.21,440.698,279.21z"/>
	<path style="fill:#CCAF37;" d="M41.124,261.953c-1.995,3.657-3.143,7.713-3.143,11.987c0,16.093,16.151,29.137,33.258,29.137
		v-23.976C58.676,279.102,46.637,272.064,41.124,261.953z"/>
</g>
<path style="fill:#F4D44E;" d="M441.176,244.692l-3.309-3.981c-25.399-30.551-18.208-62.452-19.448-72.858
	c0-10.891-7.05-13.697-17.709-10.716c-84.416,27.702-145.495-1.04-145.495-1.04l7.761,10.703c5.884,8.114,3.91,22.585-14.51,23.732
	c-0.771-0.124-1.245,0.103-6.947-0.235l0,0c-15.763-0.936-57.364-6.122-101.892-33.954l-0.004,0.018
	c-31.792-19.339-46.041,0.257-46.041,16.321v14.219c0,35.285-21.57,55.802-22.757,57.791c0,0-0.092-0.237-0.092,89.786
	c0,99.416,84.955,178.74,187.298,177.507c100.137-0.876,183.239-78.965,183.239-177.708
	C441.243,212.392,441.176,253.771,441.176,244.692z"/>
<path style="fill:#E8C842;" d="M122.898,334.478c0-41.752,0.02-64.087,0.041-76.035c0.015-8.164,2.508-16.129,7.212-22.802
	c6.683-9.479,15.596-26.058,15.596-48.74v-14.219c0-3.747,0.787-7.682,2.379-11.275c-2.817-1.599-5.652-3.283-8.5-5.064
	l-0.004,0.018c-31.792-19.339-46.041,0.257-46.041,16.321v14.219c0,35.285-21.57,55.802-22.757,57.791c0,0-0.092-0.237-0.092,89.786
	c0,99.416,84.955,178.74,187.298,177.507c8.123-0.071,16.13-0.658,23.994-1.715C192.723,498.222,122.898,424.607,122.898,334.478z"
	/>
<g>
	<path style="fill:#656566;" d="M373.988,262.035c-18.184-15.198-44.705-15.178-62.864,0c-3.272,2.733-8.146,2.301-10.884-0.966
		c-2.739-3.268-2.305-8.134,0.966-10.87c23.88-19.957,58.761-20.006,82.7,0c3.272,2.735,3.705,7.602,0.966,10.87
		C382.125,264.348,377.249,264.762,373.988,262.035z"/>
	<path style="fill:#656566;" d="M200.878,262.034c-18.223-15.23-44.74-15.147-62.864,0c-3.271,2.737-8.145,2.303-10.884-0.965
		c-2.739-3.267-2.307-8.134,0.966-10.869c23.923-19.997,58.81-19.968,82.7,0c3.272,2.734,3.705,7.602,0.966,10.869
		C209.015,264.348,204.138,264.762,200.878,262.034z"/>
	<path style="fill:#656566;" d="M201.38,408.389c22.6,43.434,84.344,44.568,108.851,2.92c2.882-4.897-0.638-11.068-6.325-11.068
		h-97.564C202.152,400.24,199.448,404.677,201.38,408.389z"/>
</g>
<path style="fill:#4F4F51;" d="M227.074,408.389c-1.48-3.712,0.592-8.149,3.801-8.149h-24.534c-4.189,0-6.893,4.437-4.962,8.149
	c12.192,23.43,37.418,35.957,62.584,33.034C249.824,439.281,235.137,428.608,227.074,408.389z"/>
<path style="fill:#656566;" d="M190.072,279.737c-6.577-11.375-21.142-15.273-32.534-8.706
	c-11.391,6.568-15.294,21.114-8.717,32.489s21.142,15.273,32.534,8.706C192.745,305.659,196.648,291.112,190.072,279.737z"/>
<path style="fill:#4F4F51;" d="M169.446,291.628c-4.407-7.623-4.102-16.666,0.002-23.78c-4.048-0.004-8.152,1.017-11.91,3.183
	c-11.391,6.568-15.294,21.114-8.718,32.489c6.577,11.376,21.142,15.273,32.534,8.706c3.758-2.167,6.695-5.205,8.716-8.708
	C181.848,303.509,173.853,299.251,169.446,291.628z"/>
<path style="fill:#DBBC3B;" d="M270.573,315.413h-29.144c-3.946,0-7.174,3.224-7.174,7.164v5.449c0,9.264,5.873,17.665,14.724,20.44
	c14.992,4.701,28.767-6.351,28.767-20.618v-5.27C277.747,318.636,274.519,315.413,270.573,315.413z"/>
<path style="fill:#CCAF37;" d="M256,322.577c0-3.941,3.228-7.164,7.174-7.164h-21.745c-3.946,0-7.174,3.224-7.174,7.164v5.449
	c0,17.411,18.653,26.581,32.499,18.697C253.464,339.183,256.366,324.368,256,322.577z"/>
<path style="fill:#656566;" d="M363.181,279.737c-6.577-11.375-21.142-15.273-32.534-8.706
	c-11.391,6.568-15.294,21.114-8.717,32.489c6.577,11.375,21.142,15.273,32.534,8.706
	C365.855,305.659,369.758,291.112,363.181,279.737z"/>
<path style="fill:#4F4F51;" d="M342.557,267.848c-18.181-0.018-29.833,19.75-20.627,35.673c9.205,15.921,32.175,15.731,41.25-0.003
	C354.957,303.509,333.41,283.707,342.557,267.848z"/>
<g>
</g>
<g>
</g>
<g>
</g>
<g>
</g>
<g>
</g>
<g>
</g>
<g>
</g>
<g>
</g>
<g>
</g>
<g>
</g>
<g>
</g>
<g>
</g>
<g>
</g>
<g>
</g>
<g>
</g>
</svg>
