<?xml version="1.0" encoding="iso-8859-1"?>
<!-- Generator: Adobe Illustrator 19.0.0, SVG Export Plug-In . SVG Version: 6.00 Build 0)  -->
<svg version="1.1" id="Capa_1" xmlns="http://www.w3.org/2000/svg" xmlns:xlink="http://www.w3.org/1999/xlink" x="0px" y="0px"
	 viewBox="0 0 512 512" style="enable-background:new 0 0 512 512;" xml:space="preserve">
<g>
	<path style="fill:#DBBC3B;" d="M50.331,211.512C23.218,213.522,0,234.752,0,260.671c0,26.092,23.523,47.423,50.862,49.192
		C43.327,277.717,42.992,243.928,50.331,211.512z"/>
	<path style="fill:#DBBC3B;" d="M461.698,211.07c7.432,30.837,7.931,64.407-0.448,99.233c27.336-2.05,50.75-23.476,50.75-49.633
		C512,234.661,488.843,213.32,461.698,211.07z"/>
</g>
<g>
	<path style="fill:#CCAF37;" d="M3.686,243.191C1.324,248.625,0,254.513,0,260.671c0,26.092,23.523,47.423,50.862,49.192
		c-2.739-11.685-4.514-23.587-5.327-35.56C26.851,271.318,10.674,259.267,3.686,243.191z"/>
	<path style="fill:#CCAF37;" d="M466.818,274.645c-0.853,11.696-2.666,23.599-5.568,35.659c27.336-2.05,50.75-23.476,50.75-49.633
		c0-6.153-1.31-12.04-3.647-17.479C501.435,259.285,485.407,271.414,466.818,274.645z"/>
</g>
<path style="fill:#F4D44E;" d="M187.773,58.25c0.047,0.004,0.094,0.009,0.141,0.013c-25.986,8.803-51.067,22.956-72.774,42.016
	c0.02-0.042,0.039-0.086,0.059-0.129c-126.024,111.338-77.125,305.793,63.05,359.644c46.355,18.555,97.116,19.656,146.397,3.129
	c-0.047-0.004-0.094-0.009-0.141-0.013c26.039-8.821,51.109-22.993,72.774-42.016c-0.02,0.042-0.039,0.086-0.059,0.128
	c38.94-34.402,63.379-78.907,70.49-128.35C491.028,145.178,348.211,4.442,187.773,58.25z"/>
<path style="fill:#E8C842;" d="M384.987,430.897c-4.893,2.075-9.835,3.962-14.816,5.648c0.047,0.004,0.094,0.009,0.141,0.013
	c-49.28,16.528-100.041,15.426-146.397-3.129c-140.175-53.85-189.074-248.306-63.05-359.643c-0.02,0.042-0.039,0.086-0.059,0.128
	c3.988-3.502,8.092-6.834,12.292-10.003c-20.654,8.761-40.409,20.959-57.958,36.368c0.02-0.042,0.039-0.086,0.059-0.129
	c-126.024,111.338-77.125,305.794,63.05,359.644c46.355,18.555,97.117,19.656,146.397,3.129c-0.047-0.004-0.094-0.009-0.141-0.013
	C345.752,455.712,366.354,444.949,384.987,430.897z"/>
<path style="fill:#CC9D72;" d="M323.034,76.485c-19.606-36.667-65.421-49.827-101.412-29.479c-2.799,1.583-5.438,2.707-7.947,4.584
	c3.637-0.622,10.699-2.128,21.833-3.192c15.909-0.955,37.798,10.68,48.028,30.904c20.93,41.374-15.169,88.974-60.644,80.063
	c-3.416-0.669-6.869,0.931-8.436,4.039l-0.062,0.122c-1.573,3.121-0.613,6.952,2.286,8.903
	c22.912,15.426,53.644,17.359,79.118,2.154C329.418,154.517,341.498,111.013,323.034,76.485z"/>
<path style="fill:#C19067;" d="M301.375,77.119c-14.543-27.197-45.167-39.949-73.583-33.218c-2.082,0.935-4.143,1.959-6.169,3.105
	c-2.799,1.583-5.438,2.707-7.947,4.584c3.637-0.622,10.699-2.127,21.833-3.192c15.909-0.955,37.798,10.68,48.028,30.904
	c20.93,41.374-15.169,88.974-60.644,80.063c-3.416-0.669-6.869,0.931-8.437,4.039l-0.062,0.122
	c-0.652,1.295-0.863,2.709-0.686,4.063c19.408,9.572,43.151,9.477,63.248-2.517C307.098,147.08,317.928,108.076,301.375,77.119z"/>
<path style="fill:#656566;" d="M188.137,354.124c28.2,54.269,105.17,55.525,135.657,3.643c3.591-6.111-0.796-13.812-7.883-13.812
	h-121.59C189.1,343.955,185.73,349.492,188.137,354.124z"/>
<path style="fill:#4F4F51;" d="M214.283,354.124c-1.948-4.633,0.779-10.169,5.003-10.169h-24.965c-5.221,0-8.591,5.537-6.183,10.169
	c15.695,30.203,46.495,43.977,75.981,41.318C244.137,393.2,224.92,379.427,214.283,354.124z"/>
<path style="fill:#DBBC3B;" d="M239.702,286.283c-3.116,0-5.442,2.967-4.595,5.966c5.829,20.662,34.916,21.366,41.848,1.148
	c1.196-3.491-1.474-7.114-5.164-7.114H239.702z"/>
<path style="fill:#CCAF37;" d="M253.523,292.249c-0.476-2.999,0.833-5.966,2.587-5.966h-16.408c-3.116,0-5.442,2.967-4.595,5.966
	c3.632,12.875,16.293,17.997,26.999,15.141C258.241,305.571,254.836,300.51,253.523,292.249z"/>
<g>
	<path style="fill:#656566;" d="M317.944,206.884c-1.661-3.969,0.21-8.533,4.178-10.194c12.416-5.195,30.031-5.305,42.704,0.001
		c3.969,1.66,5.839,6.225,4.178,10.193c-1.661,3.969-6.227,5.841-10.194,4.178c-8.691-3.637-22-3.631-30.675,0.001
		C324.175,212.72,319.608,210.861,317.944,206.884z"/>
	<path style="fill:#656566;" d="M184.282,211.063c-8.69-3.639-22-3.632-30.674,0c-3.968,1.659-8.532-0.21-10.194-4.179
		c-1.661-3.969,0.209-8.533,4.178-10.194c12.563-5.257,30.165-5.247,42.704,0c3.969,1.661,5.839,6.225,4.178,10.194
		C192.813,210.859,188.247,212.721,184.282,211.063z"/>
	<circle style="fill:#656566;" cx="168.95" cy="249.718" r="24.008"/>
</g>
<path style="fill:#4F4F51;" d="M168.945,249.718c-4.441-7.691-4.121-16.808,0.011-23.989c-4.084-0.006-8.223,1.009-12.014,3.198
	c-11.483,6.63-15.417,21.313-8.787,32.795c6.629,11.482,21.313,15.417,32.795,8.787c3.791-2.189,6.739-5.266,8.776-8.806
	C181.44,261.691,173.386,257.409,168.945,249.718z"/>
<circle style="fill:#656566;" cx="343.471" cy="249.718" r="24.008"/>
<path style="fill:#4F4F51;" d="M343.475,249.718c-4.441-7.691-4.121-16.808,0.011-23.989c-4.084-0.006-8.223,1.009-12.014,3.198
	c-11.483,6.63-15.417,21.313-8.787,32.795c6.629,11.482,21.313,15.417,32.795,8.787c3.791-2.189,6.739-5.266,8.776-8.806
	C355.97,261.691,347.916,257.409,343.475,249.718z"/>
<g>
</g>
<g>
</g>
<g>
</g>
<g>
</g>
<g>
</g>
<g>
</g>
<g>
</g>
<g>
</g>
<g>
</g>
<g>
</g>
<g>
</g>
<g>
</g>
<g>
</g>
<g>
</g>
<g>
</g>
</svg>
