<?xml version="1.0" encoding="iso-8859-1"?>
<!-- Generator: Adobe Illustrator 19.0.0, SVG Export Plug-In . SVG Version: 6.00 Build 0)  -->
<svg version="1.1" id="Capa_1" xmlns="http://www.w3.org/2000/svg" xmlns:xlink="http://www.w3.org/1999/xlink" x="0px" y="0px"
	 viewBox="0 0 512 512" style="enable-background:new 0 0 512 512;" xml:space="preserve">
<path style="fill:#F4D44E;" d="M420.473,252.041H91.531l-0.014,86.089c0,87.728,74.432,157.04,165.175,157.04
	c86.249,0.473,163.795-67.298,163.795-157.04L420.473,252.041z"/>
<path style="fill:#E8C842;" d="M153.478,338.13l0.014-86.089H91.531l-0.014,86.089c0,87.728,74.432,157.04,165.175,157.04
	c10.471,0.057,20.814-0.9,30.906-2.771C211.531,478.704,153.478,415.605,153.478,338.13z"/>
<path style="fill:#9F9FA0;" d="M410.375,252.547l0.013,86.984c0,39.156-15.895,76.016-44.756,103.793
	c-95.604,92.005-264.013,29.432-264.013-103.793l0.013-86.984c-22.234-0.1-22.071,0.224-25.061-0.277l-0.013,87.26
	c0,97.026,82.765,173.758,181.383,172.453c97.171-0.85,177.508-76.832,177.508-172.453l-0.013-87.26
	C432.428,252.775,432.292,252.448,410.375,252.547z"/>
<g>
	<path style="fill:#656566;" d="M226.656,408.898c3.625-2.252,8.389-1.137,10.64,2.489c7.02,11.325,30.797,10.713,37.403,0.016
		c2.242-3.632,7.004-4.758,10.634-2.514c3.631,2.241,4.756,7.004,2.514,10.634c-3.247,5.259-8.421,9.501-14.962,12.266
		C242.48,444.647,212.383,417.757,226.656,408.898z"/>
	<circle style="fill:#656566;" cx="178.018" cy="324.404" r="21.457"/>
	<circle style="fill:#656566;" cx="333.982" cy="324.404" r="21.457"/>
</g>
<g>
	<path style="fill:#4F4F51;" d="M178.022,324.4c-3.969-6.874-3.683-15.022,0.01-21.441c-3.65-0.005-7.349,0.902-10.739,2.859
		c-10.263,5.926-13.779,19.048-7.853,29.311c5.926,10.263,19.048,13.779,29.31,7.854c3.389-1.957,6.024-4.707,7.844-7.87
		C189.19,335.1,181.991,331.274,178.022,324.4z"/>
	<path style="fill:#4F4F51;" d="M333.983,324.4c-3.969-6.874-3.683-15.022,0.01-21.44c-3.65-0.005-7.349,0.902-10.738,2.858
		c-10.263,5.926-13.779,19.048-7.854,29.311s19.048,13.779,29.311,7.853c3.389-1.957,6.024-4.706,7.844-7.87
		C345.151,335.1,337.952,331.273,333.983,324.4z"/>
</g>
<g>
	<path style="fill:#656566;" d="M361.81,298.289c-16.097-13.473-39.578-13.455-55.654,0c-3.272,2.738-8.146,2.306-10.884-0.967
		c-2.738-3.272-2.307-8.145,0.966-10.885c21.802-18.245,53.641-18.285,75.49,0c3.272,2.739,3.705,7.612,0.966,10.885
		C369.948,300.604,365.072,301.019,361.81,298.289z"/>
	<path style="fill:#656566;" d="M205.849,298.289c-16.097-13.473-39.578-13.455-55.654,0c-3.272,2.738-8.146,2.306-10.884-0.967
		c-2.738-3.272-2.307-8.145,0.966-10.885c21.802-18.245,53.641-18.285,75.49,0c3.272,2.739,3.705,7.612,0.966,10.885
		C213.986,300.604,209.112,301.019,205.849,298.289z"/>
	<path style="fill:#656566;" d="M450.454,236.154c-0.32-1.441-0.689-2.468-1.209-3.615c-0.511-1.124-1.133-2.182-1.746-3.05
		c-1.062-1.497-2.413-2.91-3.952-4.078c-1.565-1.188-3.274-2.104-5.126-2.746h-0.001c0-7.473,0-93.54,0-111.849
		C438.417,49.614,388.804,0,327.602,0H184.403C123.201,0,73.587,49.614,73.587,110.815c0,18.592,0,104.85,0,111.849
		c-20.856,8.61-13.359,36.062,6.062,36.062c47.295,0,337.333,0,343.426,0h9.282c10.244,0,18.548-8.304,18.548-18.548
		C450.905,238.85,450.715,237.333,450.454,236.154z"/>
</g>
<path style="fill:#4F4F51;" d="M143.554,226.732c4.302-3.892,6.573-9.553,6.573-15.354V110.815C150.126,49.614,199.74,0,260.942,0
	h-76.54C123.201,0,73.587,49.614,73.587,110.815v111.85c-20.855,8.61-13.359,36.063,6.062,36.063c12.26,0,40.832,0,76.539,0
	C139.217,258.728,131.353,237.765,143.554,226.732z"/>
<path style="fill:#DBBC3B;" d="M269.145,338.976h-26.283c-3.558,0-6.47,2.908-6.47,6.461v4.914c0,8.355,5.297,15.931,13.279,18.434
	c13.52,4.24,25.944-5.728,25.944-18.594v-4.753C275.615,341.884,272.703,338.976,269.145,338.976z"/>
<path style="fill:#CCAF37;" d="M256.003,345.438c0-3.554,2.912-6.461,6.47-6.461h-19.611c-3.558,0-6.47,2.908-6.47,6.461v4.914
	c0,15.703,16.823,23.972,29.309,16.861C253.715,360.414,256.333,347.053,256.003,345.438z"/>
<g>
</g>
<g>
</g>
<g>
</g>
<g>
</g>
<g>
</g>
<g>
</g>
<g>
</g>
<g>
</g>
<g>
</g>
<g>
</g>
<g>
</g>
<g>
</g>
<g>
</g>
<g>
</g>
<g>
</g>
</svg>
