<?xml version="1.0" encoding="iso-8859-1"?>
<!-- Generator: Adobe Illustrator 19.0.0, SVG Export Plug-In . SVG Version: 6.00 Build 0)  -->
<svg version="1.1" id="Capa_1" xmlns="http://www.w3.org/2000/svg" xmlns:xlink="http://www.w3.org/1999/xlink" x="0px" y="0px"
	 viewBox="0 0 512.001 512.001" style="enable-background:new 0 0 512.001 512.001;" xml:space="preserve">
<path style="fill:#F4D44E;" d="M441.177,235.418l-0.739-0.89c-40.412,0-305.441,0-368.874,0l-0.739,0.89
	c0,0-0.092-4.657-0.092,99.059c0,99.26,84.816,178.763,187.299,177.509c100.138-0.876,183.24-78.965,183.24-177.709
	C441.247,226.586,441.177,236.022,441.177,235.418z"/>
<path style="fill:#E8C842;" d="M122.695,334.477c0-103.717,0.092-99.059,0.092-99.059l0.74-0.89c-22.267,0-40.443,0-51.964,0
	l-0.74,0.89c0,0-0.092-4.657-0.092,99.059c0,99.26,84.816,178.763,187.299,177.509c8.084-0.071,16.053-0.652,23.881-1.699
	C192.467,498.276,122.695,424.505,122.695,334.477z"/>
<g>
	<path style="fill:#DBBC3B;" d="M441.27,244.801v57.383c16.846,0,32.75-12.844,32.75-28.692
		C474.02,257.646,458.116,244.801,441.27,244.801z"/>
	<path style="fill:#DBBC3B;" d="M37.98,273.491c0,15.848,15.904,28.692,32.75,28.692V244.8
		C53.885,244.801,37.98,257.646,37.98,273.491z"/>
</g>
<g>
	<path style="fill:#CCAF37;" d="M441.27,280.595v21.589c16.846,0,32.75-12.844,32.75-28.692c0-3.819-0.932-7.462-2.57-10.794
		C466.291,273.192,454.055,280.595,441.27,280.595z"/>
	<path style="fill:#CCAF37;" d="M40.55,262.698c-1.638,3.332-2.57,6.975-2.57,10.794c0,15.848,15.904,28.692,32.75,28.692v-21.589
		C57.944,280.595,45.71,273.192,40.55,262.698z"/>
</g>
<g>
	<path style="fill:#656566;" d="M221.384,410.92c-2.248-3.627-1.132-8.389,2.495-10.639c3.627-2.248,8.389-1.133,10.639,2.495
		c8.078,13.01,35.262,12.477,42.959,0.012c2.241-3.63,7.004-4.755,10.634-2.515c3.631,2.242,4.756,7.004,2.515,10.635
		c-3.511,5.685-9.118,10.277-16.216,13.278C255.589,432.145,231.176,426.727,221.384,410.92z"/>
	<path style="fill:#656566;" d="M310.304,288.12c-2.376-3.545-1.429-8.344,2.116-10.72c3.544-2.378,8.344-1.431,10.72,2.116
		c7.891,11.771,19.175,11.879,27.139,0c2.376-3.547,7.175-4.492,10.72-2.116s4.492,7.175,2.116,10.72
		C349.117,309.004,324.399,309.148,310.304,288.12z"/>
	<path style="fill:#656566;" d="M147.212,288.274c-2.376-3.545-1.429-8.344,2.116-10.72c3.544-2.378,8.344-1.431,10.72,2.116
		c7.891,11.771,19.175,11.879,27.14,0c2.376-3.547,7.176-4.492,10.72-2.116c3.545,2.376,4.492,7.175,2.116,10.72
		C186.026,309.159,161.307,309.302,147.212,288.274z"/>
</g>
<path style="fill:#A9DBA9;" d="M256.749,0.006C141.314,1.016,46.043,93.41,44.187,205.715H474.02
	C472.163,93.41,376.891,1.016,261.458,0.006c-0.787-0.01-1.57-0.004-2.355-0.005C258.318,0.002,257.534-0.004,256.749,0.006z"/>
<path style="fill:#9BCE9B;" d="M297.906,3.42c-11.856-2.133-24.035-3.305-36.448-3.414c-0.787-0.01-1.57-0.004-2.355-0.005
	c-0.786,0.002-1.568-0.004-2.355,0.005C141.314,1.016,46.043,93.41,44.187,205.715h77.608
	C123.45,105.488,199.513,21.124,297.906,3.42z"/>
<path style="fill:#77B777;" d="M471.947,202.625c-24.645,0-409.862,0-431.894,0c-11.37,0-20.588,9.218-20.588,20.588
	c0,11.37,9.217,20.587,20.588,20.587c103.82,0,334.96,0,431.894,0c11.37,0,20.588-9.217,20.588-20.587
	C492.535,211.843,483.317,202.625,471.947,202.625z"/>
<path style="fill:#6AAA6A;" d="M105.867,223.213c0-11.37,9.218-20.588,20.588-20.588c-46.387,0-80.305,0-86.402,0
	c-11.37,0-20.587,9.218-20.587,20.588c0,11.37,9.217,20.587,20.587,20.587c23.349,0,53.149,0,86.402,0
	C115.085,243.8,105.867,234.583,105.867,223.213z"/>
<path style="fill:#77B777;" d="M298.414,97.521h-23.311c-2.403,0-4.351-1.948-4.351-4.352V69.86c0-2.403-1.948-4.352-4.352-4.352
	h-21.286c-2.403,0-4.352,1.948-4.352,4.352v23.311c0,2.404-1.948,4.352-4.352,4.352h-23.311c-2.403,0-4.352,1.948-4.352,4.352
	v21.286c0,2.404,1.948,4.352,4.352,4.352h23.311c2.404,0,4.352,1.948,4.352,4.352v23.311c0,2.403,1.948,4.352,4.352,4.352h21.286
	c2.404,0,4.352-1.948,4.352-4.352v-23.311c0-2.403,1.948-4.352,4.351-4.352h23.311c2.403,0,4.351-1.948,4.351-4.352v-21.286
	C302.765,99.469,300.817,97.521,298.414,97.521z"/>
<g>
	<path style="fill:#6AAA6A;" d="M256.733,93.17V69.86c0-2.403,1.948-4.352,4.352-4.352h-15.968c-2.403,0-4.352,1.948-4.352,4.352
		v23.311c0,2.404-1.948,4.352-4.352,4.352h15.968C254.784,97.521,256.733,95.574,256.733,93.17z"/>
	<path style="fill:#6AAA6A;" d="M224.719,123.158v-21.286c0-2.404,1.948-4.352,4.352-4.352h-15.968
		c-2.404,0-4.352,1.948-4.352,4.352v21.286c0,2.404,1.948,4.352,4.352,4.352h15.968C226.668,127.51,224.719,125.561,224.719,123.158
		z"/>
	<path style="fill:#6AAA6A;" d="M256.733,155.171V131.86c0-2.404-1.948-4.352-4.351-4.352h-15.968c2.403,0,4.352,1.948,4.352,4.352
		v23.311c0,2.403,1.948,4.352,4.352,4.352h15.968C258.68,159.522,256.733,157.575,256.733,155.171z"/>
</g>
<path style="fill:#DBBC3B;" d="M270.33,320.485h-29.144c-3.946,0-7.174,3.224-7.174,7.164v5.449c0,9.264,5.873,17.665,14.725,20.44
	c14.992,4.701,28.768-6.351,28.768-20.618v-5.27C277.504,323.709,274.276,320.485,270.33,320.485z"/>
<path style="fill:#CCAF37;" d="M255.758,327.649c0-3.941,3.228-7.164,7.174-7.164h-21.746c-3.946,0-7.174,3.224-7.174,7.164v5.449
	c0,17.411,18.653,26.581,32.499,18.697C253.221,344.256,256.124,329.44,255.758,327.649z"/>
<g>
</g>
<g>
</g>
<g>
</g>
<g>
</g>
<g>
</g>
<g>
</g>
<g>
</g>
<g>
</g>
<g>
</g>
<g>
</g>
<g>
</g>
<g>
</g>
<g>
</g>
<g>
</g>
<g>
</g>
</svg>
