<?xml version="1.0" encoding="iso-8859-1"?>
<!-- Generator: Adobe Illustrator 19.0.0, SVG Export Plug-In . SVG Version: 6.00 Build 0)  -->
<svg version="1.1" id="Capa_1" xmlns="http://www.w3.org/2000/svg" xmlns:xlink="http://www.w3.org/1999/xlink" x="0px" y="0px"
	 viewBox="0 0 512 512" style="enable-background:new 0 0 512 512;" xml:space="preserve">
<path style="fill:#E2A86A;" d="M465.503,162.233l-418.964,0.054c-1.787,20.836-1.345,24.134-1.434,105.402l421.781-0.948
	C466.897,191.161,467.34,183.653,465.503,162.233z"/>
<path style="fill:#C19067;" d="M122.889,162.233l-77.519,0.054c-0.331,20.836-0.248,24.134-0.266,105.402l78.04-0.948
	C123.147,191.161,123.229,183.653,122.889,162.233z"/>
<g>
	<path style="fill:#DBBC3B;" d="M474.024,273.912c0,16.077-16.135,29.108-33.225,29.108v-58.214
		C457.89,244.806,474.024,257.837,474.024,273.912z"/>
	<path style="fill:#DBBC3B;" d="M37.976,274.299c0,16.291,16.349,29.495,33.666,29.495v-58.986
		C54.325,244.806,37.976,258.01,37.976,274.299z"/>
</g>
<g>
	<path style="fill:#CCAF37;" d="M440.799,280.042v22.978c17.09,0,33.225-13.03,33.225-29.108c0-4.081-1.043-7.964-2.875-11.488
		C465.767,272.786,453.551,280.042,440.799,280.042z"/>
	<path style="fill:#CCAF37;" d="M40.806,262.81c-1.806,3.531-2.83,7.413-2.83,11.488c0,16.291,16.349,29.495,33.666,29.495v-22.978
		C58.658,280.814,46.219,273.392,40.806,262.81z"/>
</g>
<path style="fill:#F4D44E;" d="M441.181,244.695c-1.022-1.764-14.765-13.861-21.098-45.283l-327.982-0.931
	c-6.09,32.073-20.208,44.357-21.282,46.214c0,0.008-0.092-0.025-0.092,89.788C70.727,431.911,152.736,511.808,256,512
	c0.676-0.001,1.352,0.004,2.029-0.005c100.476-0.879,183.244-79.368,183.244-177.512c0-0.057,0-0.124,0-0.2
	C441.253,236.309,441.181,245.285,441.181,244.695z"/>
<path style="fill:#E8C842;" d="M123.155,334.483c0-58.145,0.038-107.986,0.065-135.914l-31.12-0.088
	c-6.091,32.073-20.208,44.357-21.282,46.214c0,0.008-0.092-0.026-0.092,89.788c0,97.427,82.008,177.324,185.273,177.517
	c0.676-0.001,1.352,0.004,2.029-0.005c8.265-0.072,16.407-0.68,24.397-1.77C191.733,497.991,123.155,423.572,123.155,334.483z"/>
<path style="fill:#607793;" d="M471.792,102.513C427.321,52.884,349.316,0,256,0S84.68,52.884,40.209,102.513
	c-44.47,49.629,21.807,88.177,21.807,88.177l0,0c1.596,0.701,3.249,1.386,4.932,2.06c1.75-0.702,3.563-1.386,5.404-2.06H439.65
	c1.841,0.674,3.653,1.358,5.404,2.06c1.682-0.675,3.336-1.36,4.933-2.06l0,0C449.99,190.687,516.26,152.141,471.792,102.513z"/>
<path style="fill:#526B84;" d="M136.536,190.119c0,0-66.346-53.841-21.966-123.329c8.902-13.939,19.157-28.062,30.612-41.736
	c-43.59,20.002-79.7,49.253-104.973,77.458c-44.47,49.629,21.807,88.177,21.807,88.177c1.596,0.701,3.249,1.386,4.932,2.06
	c1.75-0.702,3.563-1.386,5.404-2.06h65.144C137.176,190.5,136.851,190.312,136.536,190.119z"/>
<path style="fill:#F4D44E;" d="M291.208,57.887c-11.844,5.317-26.125,0.66-32.358-11.221c-0.557-1.061-1.644-1.735-2.844-1.735l0,0
	c-1.206,0-2.3,0.678-2.861,1.745c-6.23,11.863-20.502,16.53-32.353,11.21c-1.862-0.836-3.965,0.493-3.965,2.534v11.66
	c0,23.949,16.337,44.267,38.415,50.364c5.329,1.472,39.929-14.261,39.929-50.364V60.42C295.172,58.38,293.07,57.051,291.208,57.887z
	"/>
<path style="fill:#E8C842;" d="M242.35,62.92v-5.577c-6.569,3.336-14.492,3.714-21.557,0.543c-1.862-0.836-3.965,0.493-3.965,2.533
	v11.66c0,23.95,16.337,44.267,38.415,50.364c2.601,0.718,12.178-2.676,21.301-10.527C256.637,104.532,242.35,85.316,242.35,62.92z"
	/>
<path style="fill:#656566;" d="M62.015,190.69c86.447,37.978,301.685,37.905,387.97,0
	C363.594,152.738,148.366,152.754,62.015,190.69z"/>
<path style="fill:#4F4F51;" d="M119.793,173.877c-22.436,4.375-42.209,9.974-57.777,16.814
	c39.691,17.437,106.532,26.846,175.576,28.261C192.072,214.76,148.862,199.741,119.793,173.877z"/>
<g>
	<path style="fill:#656566;" d="M374.035,262.05c-18.184-15.199-44.706-15.178-62.866,0c-3.272,2.734-8.147,2.301-10.884-0.966
		c-2.739-3.268-2.306-8.134,0.966-10.87c23.881-19.957,58.763-20.007,82.703,0c3.272,2.736,3.705,7.602,0.966,10.87
		C382.173,264.362,377.297,264.776,374.035,262.05z"/>
	<path style="fill:#656566;" d="M200.921,262.049c-18.224-15.23-44.741-15.147-62.865,0c-3.271,2.737-8.146,2.303-10.884-0.965
		c-2.739-3.267-2.307-8.134,0.966-10.869c23.924-19.997,58.812-19.969,82.702,0c3.272,2.735,3.705,7.602,0.966,10.869
		C209.058,264.362,204.181,264.776,200.921,262.049z"/>
	<path style="fill:#656566;" d="M201.423,408.408c22.601,43.435,84.346,44.569,108.854,2.92c2.882-4.897-0.638-11.069-6.325-11.069
		h-97.567C202.195,400.259,199.491,404.695,201.423,408.408z"/>
</g>
<path style="fill:#4F4F51;" d="M227.118,408.408c-1.48-3.712,0.592-8.149,3.801-8.149h-24.535c-4.189,0-6.893,4.437-4.962,8.149
	c12.192,23.431,37.419,35.958,62.586,33.035C249.868,439.3,235.181,428.627,227.118,408.408z"/>
<path style="fill:#656566;" d="M190.115,279.751c-6.577-11.376-21.143-15.274-32.535-8.706c-11.391,6.568-15.295,21.114-8.718,32.49
	s21.143,15.274,32.535,8.706C192.788,305.674,196.691,291.128,190.115,279.751z"/>
<path style="fill:#4F4F51;" d="M169.488,291.644c-4.407-7.623-4.102-16.667,0.002-23.781c-4.049-0.004-8.152,1.017-11.91,3.184
	c-11.391,6.568-15.295,21.114-8.718,32.49s21.143,15.274,32.535,8.706c3.758-2.167,6.695-5.205,8.716-8.709
	C181.89,303.525,173.895,299.267,169.488,291.644z"/>
<path style="fill:#DBBC3B;" d="M270.618,315.428h-29.145c-3.946,0-7.174,3.224-7.174,7.164v5.449
	c0,9.264,5.873,17.665,14.725,20.441c14.992,4.701,28.768-6.352,28.768-20.618v-5.27
	C277.792,318.652,274.564,315.428,270.618,315.428z"/>
<path style="fill:#CCAF37;" d="M256.045,322.593c0-3.941,3.228-7.164,7.174-7.164h-21.746c-3.946,0-7.174,3.224-7.174,7.164v5.449
	c0,17.412,18.654,26.582,32.5,18.697C253.508,339.199,256.411,324.384,256.045,322.593z"/>
<path style="fill:#656566;" d="M363.229,279.751c-6.577-11.376-21.143-15.274-32.535-8.706c-11.391,6.568-15.295,21.114-8.718,32.49
	c6.577,11.376,21.143,15.274,32.535,8.706C365.903,305.674,369.806,291.128,363.229,279.751z"/>
<path style="fill:#4F4F51;" d="M342.604,267.862c-18.181-0.018-29.834,19.751-20.628,35.674
	c9.205,15.922,32.176,15.731,41.251-0.003C355.005,303.525,333.457,283.722,342.604,267.862z"/>
<g>
</g>
<g>
</g>
<g>
</g>
<g>
</g>
<g>
</g>
<g>
</g>
<g>
</g>
<g>
</g>
<g>
</g>
<g>
</g>
<g>
</g>
<g>
</g>
<g>
</g>
<g>
</g>
<g>
</g>
</svg>
