<?xml version="1.0" encoding="iso-8859-1"?>
<!-- Generator: Adobe Illustrator 19.0.0, SVG Export Plug-In . SVG Version: 6.00 Build 0)  -->
<svg version="1.1" id="Capa_1" xmlns="http://www.w3.org/2000/svg" xmlns:xlink="http://www.w3.org/1999/xlink" x="0px" y="0px"
	 viewBox="0 0 511.999 511.999" style="enable-background:new 0 0 511.999 511.999;" xml:space="preserve">
<path style="fill:#CC9D72;" d="M256.064,134.22c-111.845,24.107-182.39,58.392-210.843,74.141
	c-0.003,18.931-0.021,42.78-0.042,56.621l421.72-0.681c0.004-20.651,0.008-44.682,0.01-55.938
	C438.458,192.614,367.912,158.327,256.064,134.22z"/>
<g>
	<path style="fill:#C19067;" d="M122.3,173.304c-36.73,13.982-62.461,26.967-77.079,35.057c-0.003,18.931-0.021,42.78-0.042,56.621
		l77.08-0.124C122.278,242.369,122.294,205.337,122.3,173.304z"/>
	<path style="fill:#C19067;" d="M218.21,264.702L466.9,264.3c0-0.107,0-0.215,0-0.323L218.21,264.702z"/>
</g>
<path style="fill:#F4D44E;" d="M441.153,244.679c-0.449-0.833-20.012-19.876-22.559-57.207l0.195-0.974
	c-35.154-15.912-89.476-36.364-162.725-52.152c-73.249,15.788-127.575,36.235-162.725,52.148v1.874
	c-2.933,37.156-21.923,55.256-22.494,56.311c0,0.008-0.092-0.025-0.092,89.775c0,98.518,84.093,178.749,187.276,177.487
	c100.125-0.876,183.217-78.955,183.217-177.687C441.226,236.714,441.153,245.249,441.153,244.679z"/>
<path style="fill:#E8C842;" d="M122.259,334.455c0-67.828,0.053-132.585,0.078-160.222c-10.79,4.266-20.464,8.397-28.998,12.261
	v1.874c-2.933,37.156-21.923,55.256-22.494,56.311c0,0.008-0.092-0.026-0.092,89.775c0,106.764,98.283,190.755,210.924,175.819
	C191.636,498.327,122.259,423.938,122.259,334.455z"/>
<g>
	<path style="fill:#DBBC3B;" d="M473.992,273.477c0,15.846-15.902,28.689-32.746,28.689v-57.375
		C458.09,244.791,473.992,257.633,473.992,273.477z"/>
	<path style="fill:#DBBC3B;" d="M38.007,273.477c0,15.846,15.902,28.689,32.746,28.689v-57.375
		C53.909,244.791,38.007,257.633,38.007,273.477z"/>
</g>
<g>
	<path style="fill:#CCAF37;" d="M441.246,278.014v24.152c22.032,0,40.466-21.197,29.503-40.764
		C465.253,271.211,453.503,278.014,441.246,278.014z"/>
	<path style="fill:#CCAF37;" d="M41.25,261.403c-10.978,19.592,7.534,40.764,29.503,40.764v-24.152
		C58.497,278.014,46.746,271.211,41.25,261.403z"/>
</g>
<g>
	<path style="fill:#656566;" d="M373.972,261.854c-18.182-15.217-44.699-15.197-62.857,0c-3.272,2.737-8.145,2.304-10.883-0.967
		c-2.738-3.272-2.305-8.144,0.966-10.883c23.878-19.982,58.754-20.031,82.69,0c3.272,2.739,3.705,7.611,0.966,10.883
		C382.109,264.169,377.234,264.583,373.972,261.854z"/>
	<path style="fill:#656566;" d="M200.883,261.853c-18.221-15.249-44.735-15.165-62.856,0c-3.271,2.74-8.144,2.306-10.883-0.966
		c-2.738-3.271-2.307-8.144,0.966-10.882c23.921-20.022,58.803-19.993,82.69,0c3.272,2.738,3.705,7.611,0.966,10.882
		C209.019,264.17,204.144,264.584,200.883,261.853z"/>
</g>
<path style="fill:#CECECE;" d="M248.543,0.152C135.482,3.929,45.222,92.986,45.222,202.112c0,5.057-0.001,9.969-0.004,14.748
	c1.672-1.107,137.094-90.277,401.631-100.908C411.931,45.051,335.347-2.899,248.543,0.152z"/>
<path style="fill:#C1BEBC;" d="M233.204,1.202C127.429,12.109,45.222,97.97,45.222,202.111c0,5.057-0.001,9.969-0.004,14.749
	c0.728-0.483,26.87-17.693,78.022-37.837C129.962,102.033,172.67,36.208,233.204,1.202z"/>
<path style="fill:#DBDBDB;" d="M50.986,155.045c53.208-26.549,174.696-75.643,362.781-87.061
	C300.431-54.288,90.403-3.331,50.986,155.045z"/>
<path style="fill:#CECECE;" d="M232.963,1.347C142.228,11.227,71.19,73.877,50.986,155.045
	c19.345-9.652,47.726-22.286,85.042-35.004C154.068,69.137,188.732,27.005,232.963,1.347z"/>
<path style="fill:#EAE9E8;" d="M81.453,88.82C136.219,65.532,227.421,35.659,354.4,23.306
	C260.924-24.068,142.687,2.262,81.453,88.82z"/>
<g>
	<path style="fill:#DBDBDB;" d="M169.472,57.851c17.431-23.015,38.989-42.292,63.492-56.505
		C168.536,8.361,114.861,41.567,81.468,88.813C104.415,79.057,133.782,68.147,169.472,57.851z"/>
	<path style="fill:#DBDBDB;" d="M256.064,139.497c138.768,29.909,209.639,76.564,210.846,77.363
		c-0.012-23.193,1.21-57.68-20.072-100.907C373.205,118.912,309.589,127.96,256.064,139.497z"/>
</g>
<path style="fill:#EAE9E8;" d="M377.954,120.674c36.401,12.502,64.157,24.876,83.181,34.368
	c-3.277-13.194-8.07-26.404-14.312-39.089C422.797,116.919,399.845,118.537,377.954,120.674z"/>
<path style="fill:#656566;" d="M201.385,408.391c22.598,43.488,84.334,44.623,108.838,2.923c2.881-4.903-0.638-11.082-6.324-11.082
	h-97.553C202.157,400.232,199.453,404.674,201.385,408.391z"/>
<path style="fill:#4F4F51;" d="M227.076,408.391c-1.48-3.717,0.591-8.159,3.8-8.159h-24.531c-4.189,0-6.892,4.442-4.961,8.159
	c12.19,23.459,37.414,36.001,62.577,33.075C249.824,439.32,235.138,428.634,227.076,408.391z"/>
<circle style="fill:#656566;" cx="169.451" cy="291.49" r="23.814"/>
<path style="fill:#4F4F51;" d="M169.455,291.483c-4.407-7.632-4.102-16.687,0.002-23.811c-4.048-0.004-8.151,1.018-11.908,3.187
	c-11.39,6.576-15.293,21.14-8.717,32.53c6.576,11.39,21.14,15.293,32.531,8.716c3.757-2.169,6.694-5.211,8.715-8.719
	C181.855,303.38,173.861,299.116,169.455,291.483z"/>
<path style="fill:#DBBC3B;" d="M270.57,315.298h-29.141c-3.945,0-7.173,3.228-7.173,7.173v5.455c0,9.276,5.872,17.687,14.723,20.466
	c14.99,4.707,28.764-6.359,28.764-20.644v-5.276C277.743,318.525,274.515,315.298,270.57,315.298z"/>
<path style="fill:#CCAF37;" d="M256,322.471c0-3.945,3.228-7.173,7.173-7.173h-21.743c-3.945,0-7.173,3.228-7.173,7.173v5.455
	c0,17.433,18.651,26.614,32.495,18.72C253.463,339.097,256.366,324.264,256,322.471z"/>
<circle style="fill:#656566;" cx="342.549" cy="291.49" r="23.814"/>
<path style="fill:#4F4F51;" d="M342.546,267.673c-18.178-0.018-29.83,19.775-20.625,35.718c9.204,15.941,32.171,15.75,41.245-0.003
	C354.944,303.38,333.4,283.553,342.546,267.673z"/>
<g>
</g>
<g>
</g>
<g>
</g>
<g>
</g>
<g>
</g>
<g>
</g>
<g>
</g>
<g>
</g>
<g>
</g>
<g>
</g>
<g>
</g>
<g>
</g>
<g>
</g>
<g>
</g>
<g>
</g>
</svg>
