<?xml version="1.0" encoding="iso-8859-1"?>
<!-- Generator: Adobe Illustrator 19.0.0, SVG Export Plug-In . SVG Version: 6.00 Build 0)  -->
<svg version="1.1" id="Capa_1" xmlns="http://www.w3.org/2000/svg" xmlns:xlink="http://www.w3.org/1999/xlink" x="0px" y="0px"
	 viewBox="0 0 512.001 512.001" style="enable-background:new 0 0 512.001 512.001;" xml:space="preserve">
<path style="fill:#F4D44E;" d="M127.646,34.727C-74.029,150.921-26.933,457.167,201.59,506.265
	c98.678,21.313,202.32-17.733,261.907-101.182c15.268-21.298,27.412-45.075,35.808-71.369
	C570.157,110.542,327.293-80.78,127.646,34.727z"/>
<path style="fill:#E8C842;" d="M75.703,353.016c-62.549-114.29-28.225-255.775,74.922-330.05
	c-224.19,100.95-189.872,431.621,50.964,483.3c68.984,14.9,143.4,0.73,203.505-42.547
	C284.88,517.864,140.289,471.473,75.703,353.016z"/>
<circle style="fill:#656566;" cx="183.25" cy="226.924" r="22.309"/>
<path style="fill:#4F4F51;" d="M183.248,226.919c-4.126-7.147-3.83-15.619,0.01-22.292c-3.795-0.006-7.641,0.937-11.164,2.971
	c-10.671,6.16-14.326,19.804-8.166,30.475c6.16,10.67,19.804,14.326,30.475,8.166c3.523-2.034,6.263-4.893,8.156-8.183
	C194.859,238.044,187.374,234.065,183.248,226.919z"/>
<g>
	<path style="fill:#656566;" d="M301.337,226.279c1.322,0.886,2.819,1.311,4.299,1.311c2.493,0,4.939-1.203,6.431-3.429
		c3.831-5.713,8.641-8.861,13.546-8.861c4.905,0,9.716,3.147,13.547,8.861c2.38,3.548,7.186,4.498,10.731,2.117
		c3.549-2.378,4.497-7.183,2.118-10.731c-6.696-9.989-16.317-15.716-26.396-15.716c-10.08,0-19.7,5.728-26.395,15.717
		C296.841,219.095,297.789,223.899,301.337,226.279z"/>
	<path style="fill:#656566;" d="M323.211,141.27c-4.215-0.637-8.163,2.268-8.802,6.494c-0.638,4.223,2.27,8.165,6.494,8.802
		c21.685,3.274,41.132,14.539,54.759,31.722c1.527,1.925,3.785,2.928,6.065,2.928c1.683,0,3.38-0.548,4.801-1.674
		c3.348-2.655,3.909-7.519,1.254-10.866C371.712,158.414,348.781,145.129,323.211,141.27z"/>
	<path style="fill:#656566;" d="M190.896,114.581c-0.639-4.224-4.593-7.128-8.802-6.494c-25.57,3.86-48.501,17.144-64.57,37.404
		c-2.655,3.347-2.094,8.212,1.254,10.866c1.421,1.128,3.117,1.674,4.801,1.674c2.28,0,4.538-1.003,6.065-2.928
		c13.628-17.182,33.075-28.448,54.759-31.722C188.626,122.746,191.533,118.806,190.896,114.581z"/>
	<path style="fill:#656566;" d="M314.965,332.879c1.762-3.892,0.033-8.474-3.859-10.234c-3.894-1.762-8.474-0.032-10.234,3.86
		c-4.304,9.513-11.374,17.31-20.446,22.548c-11.518,6.649-24.937,8.413-37.779,4.973c-12.845-3.442-23.582-11.68-30.231-23.198
		c-0.801-1.388-1.552-2.848-2.229-4.339c-1.77-3.888-6.354-5.609-10.243-3.838c-3.889,1.769-5.606,6.354-3.838,10.242
		c0.884,1.944,1.865,3.851,2.915,5.669c8.715,15.095,22.787,25.893,39.622,30.405c5.622,1.506,11.328,2.252,16.997,2.252
		c11.307,0,22.466-2.965,32.521-8.771C300.052,355.584,309.32,345.359,314.965,332.879z"/>
</g>
<g>
</g>
<g>
</g>
<g>
</g>
<g>
</g>
<g>
</g>
<g>
</g>
<g>
</g>
<g>
</g>
<g>
</g>
<g>
</g>
<g>
</g>
<g>
</g>
<g>
</g>
<g>
</g>
<g>
</g>
</svg>
