<?xml version="1.0" encoding="iso-8859-1"?>
<!-- Generator: Adobe Illustrator 19.0.0, SVG Export Plug-In . SVG Version: 6.00 Build 0)  -->
<svg version="1.1" id="Capa_1" xmlns="http://www.w3.org/2000/svg" xmlns:xlink="http://www.w3.org/1999/xlink" x="0px" y="0px"
	 viewBox="0 0 511.999 511.999" style="enable-background:new 0 0 511.999 511.999;" xml:space="preserve">
<path style="fill:#CC9D72;" d="M248.551,0.34C135.519,4.116,45.282,93.149,45.282,202.246c0,19.617-0.019,44.353-0.043,59.764
	l421.611-0.681c0.006-26.827,0.01-56.293,0.011-59.083C466.861,87.386,367.254-3.834,248.551,0.34z"/>
<path style="fill:#C19067;" d="M124.396,192.758c0-76.649,33.179-144.743,84.493-187.459
	C115.129,25.828,45.282,106.267,45.282,202.246c0,19.617-0.019,44.353-0.043,59.764l79.113-0.127
	C124.377,244.017,124.396,215.436,124.396,192.758z"/>
<g>
	<path style="fill:#DBBC3B;" d="M38.07,273.759c0,15.933,15.99,28.847,32.927,28.847v-57.692
		C54.059,244.915,38.07,257.828,38.07,273.759z"/>
	<path style="fill:#DBBC3B;" d="M473.941,273.679c0,15.889-15.945,28.767-32.835,28.767v-57.531
		C457.996,244.915,473.941,257.792,473.941,273.679z"/>
</g>
<g>
	<path style="fill:#CCAF37;" d="M41.338,261.605c-11.041,19.68,7.533,41.002,29.658,41.002v-24.311
		C58.678,278.296,46.867,271.461,41.338,261.605z"/>
	<path style="fill:#CCAF37;" d="M441.106,278.134v24.311c16.889,0,32.835-12.878,32.835-28.767c0-4.345-1.199-8.462-3.278-12.155
		C465.141,271.334,453.376,278.134,441.106,278.134z"/>
</g>
<path style="fill:#F4D44E;" d="M441.111,244.802c-0.449-0.832-20.008-19.872-22.554-57.193l0.119-0.796
	c-103.671-45.023-221.625-45.013-325.289,0.032v1.659c-2.932,37.146-21.917,55.242-22.488,56.297c0,0-0.092-0.156-0.092,89.752
	c0,98.104,82.734,176.562,183.169,177.44c0.677,0.008,1.353,0.003,2.028,0.004c0.676-0.001,1.351,0.004,2.029-0.004
	c100.099-0.876,183.169-78.935,183.169-177.641C441.184,236.425,441.111,245.394,441.111,244.802z"/>
<path style="fill:#E8C842;" d="M122.489,334.555c0-0.057,0-0.123,0-0.201c0.015-71.302,0.057-131.335,0.079-158.873
	c-9.834,3.402-19.569,7.19-29.18,11.365v1.659c-2.932,37.146-21.917,55.242-22.488,56.297c0,0-0.092-0.159-0.092,89.752
	c0,98.104,82.734,176.562,183.17,177.44c0.677,0.008,1.353,0.003,2.028,0.004c0.676-0.001,1.351,0.004,2.029-0.004
	c8.057-0.071,16.003-0.648,23.805-1.689C192.469,498.382,122.489,424.78,122.489,334.555z"/>
<path style="fill:#656566;" d="M201.405,408.471c22.592,43.477,84.312,44.612,108.81,2.922c2.88-4.901-0.638-11.079-6.323-11.079
	h-97.527C202.177,400.314,199.474,404.755,201.405,408.471z"/>
<path style="fill:#4F4F51;" d="M227.09,408.471c-1.479-3.716,0.591-8.157,3.8-8.157h-24.525c-4.188,0-6.89,4.441-4.959,8.157
	c12.187,23.453,37.404,35.992,62.561,33.066C249.831,439.393,235.148,428.709,227.09,408.471z"/>
<circle style="fill:#656566;" cx="169.485" cy="291.595" r="23.808"/>
<path style="fill:#4F4F51;" d="M169.485,267.79c-18.174-0.018-29.822,19.769-20.62,35.708c9.201,15.936,32.163,15.746,41.234-0.003
	C171.77,303.477,160.341,283.666,169.485,267.79z"/>
<g>
	<path style="fill:#656566;" d="M373.947,261.973c-18.176-15.213-44.688-15.193-62.84,0c-3.272,2.737-8.144,2.304-10.88-0.967
		c-2.738-3.272-2.305-8.143,0.966-10.88c23.871-19.977,58.739-20.026,82.669,0c3.271,2.739,3.704,7.61,0.966,10.88
		C382.082,264.288,377.208,264.702,373.947,261.973z"/>
	<path style="fill:#656566;" d="M200.903,261.972c-18.216-15.245-44.724-15.161-62.84,0c-3.27,2.74-8.143,2.306-10.88-0.966
		c-2.738-3.271-2.306-8.143,0.966-10.879c23.914-20.017,58.788-19.988,82.669,0c3.272,2.738,3.704,7.609,0.966,10.879
		C209.037,264.288,204.162,264.702,200.903,261.972z"/>
</g>
<path style="fill:#7C6359;" d="M466.861,216.991c-0.01-19.444,0.594-36.227-5.773-61.802l0,0
	c-2.594-10.444-6.125-20.832-10.465-30.785v-0.001c-1.413-3.238-3.161-6.938-3.829-8.294l0.012-0.001
	c-8.634-17.531-19.819-33.656-33.074-47.955h0.001c-0.978-0.843-20.255-23.304-52.779-41.192
	C238.34-40.641,83.447,25.071,51.051,155.169c-0.002,0.008-0.004,0.016-0.006,0.023l0,0c-6.416,25.777-5.757,43.466-5.767,61.798
	c0.347-0.229,6.45-4.249,18.268-10.57c120.221-64.299,264.824-64.299,385.044,0C460.411,212.742,466.514,216.761,466.861,216.991z"
	/>
<path style="fill:#6B544D;" d="M128.271,143.413L128.271,143.413c1.291-3.268,12.655-81.638,80.577-138.114
	C134.381,21.948,70.542,76.895,51.051,155.169c-0.002,0.008-0.004,0.016-0.006,0.023h0.001c-6.416,25.777-5.757,43.466-5.767,61.798
	c14.151-9.362,45.259-25.338,77.899-36.572C123.894,169.429,125.34,157.431,128.271,143.413z"/>
<path style="fill:#77B777;" d="M336.837,116.109l0.005-0.001c-3.659-17.531-8.4-33.656-14.018-47.955l0,0
	c-7.09-17.795-16.695-36.455-30.154-50.198C275.394,0.337,254.635-5.553,233.708,6.558c-18.191,10.572-30.319,32.389-30.249,32.274
	c-29.103,48.051-33.967,115.061-34.346,116.361l0,0c-0.439,4.156-0.815,8.367-1.138,12.618
	c57.964-12.796,117.988-12.829,176.057-0.03C342.598,148.968,340.048,131.482,336.837,116.109z"/>
<path style="fill:#6AAA6A;" d="M194.948,155.192L194.948,155.192c0.379-1.3,5.243-68.309,34.346-116.36
	c-1.199,1.981,14.907-28.368,39.635-36.518c-11.268-3.716-23.216-2.703-35.222,4.245c-18.191,10.572-30.319,32.389-30.249,32.274
	c-29.103,48.051-33.967,115.061-34.346,116.361l0,0c-0.439,4.156-0.815,8.367-1.138,12.618c8.705-1.922,17.458-3.549,26.242-4.895
	C194.44,160.324,194.679,157.745,194.948,155.192z"/>
<path style="fill:#DBBC3B;" d="M270.572,315.402h-29.133c-3.944,0-7.172,3.227-7.172,7.172v5.454
	c0,9.273,5.871,17.682,14.719,20.461c14.987,4.706,28.757-6.358,28.757-20.638v-5.276
	C277.743,318.63,274.516,315.402,270.572,315.402z"/>
<path style="fill:#CCAF37;" d="M256.005,322.574c0-3.944,3.227-7.172,7.172-7.172h-21.737c-3.944,0-7.172,3.227-7.172,7.172v5.454
	c0,17.429,18.646,26.607,32.487,18.715C253.47,339.197,256.371,324.367,256.005,322.574z"/>
<circle style="fill:#F4D44E;" cx="256.001" cy="99.433" r="21.737"/>
<path style="fill:#E8C842;" d="M256.005,99.435c-4.02-6.964-3.732-15.219,0.01-21.721c-16.574-0.024-27.252,18.013-18.835,32.589
	c6.002,10.397,19.297,13.959,29.695,7.956c3.433-1.982,6.102-4.769,7.947-7.973C267.319,110.276,260.026,106.399,256.005,99.435z"/>
<circle style="fill:#656566;" cx="342.527" cy="291.595" r="23.808"/>
<path style="fill:#4F4F51;" d="M342.527,291.595c-4.405-7.631-4.1-16.682,0.002-23.805c-4.047-0.004-8.149,1.018-11.905,3.186
	c-11.387,6.574-15.288,21.135-8.715,32.521c6.574,11.387,21.135,15.288,32.521,8.714c3.757-2.169,6.693-5.211,8.713-8.717
	C354.925,303.488,346.933,299.225,342.527,291.595z"/>
<g>
</g>
<g>
</g>
<g>
</g>
<g>
</g>
<g>
</g>
<g>
</g>
<g>
</g>
<g>
</g>
<g>
</g>
<g>
</g>
<g>
</g>
<g>
</g>
<g>
</g>
<g>
</g>
<g>
</g>
</svg>
