<?xml version="1.0" encoding="iso-8859-1"?>
<!-- Generator: Adobe Illustrator 19.0.0, SVG Export Plug-In . SVG Version: 6.00 Build 0)  -->
<svg version="1.1" id="Capa_1" xmlns="http://www.w3.org/2000/svg" xmlns:xlink="http://www.w3.org/1999/xlink" x="0px" y="0px"
	 viewBox="0 0 511.96 511.96" style="enable-background:new 0 0 511.96 511.96;" xml:space="preserve">
<circle style="fill:#F4D44E;" cx="256" cy="255.96" r="255.96"/>
<path style="fill:#E8C842;" d="M172.397,451.935C11.245,358.893,1.461,131.055,150.506,23.522
	c-47.185,21.23-88.388,56.934-116.234,105.165C-36.279,250.886,5.589,407.14,127.786,477.691
	c89.928,51.919,198.295,42.95,277.381-14.107C332.804,496.142,246.364,494.639,172.397,451.935z"/>
<g>
	<path style="fill:#656566;" d="M354.196,352.808H157.804c-4.267,0-7.727-3.459-7.727-7.727c0-4.268,3.46-7.727,7.727-7.727h196.392
		c4.267,0,7.727,3.459,7.727,7.727C361.923,349.349,358.463,352.808,354.196,352.808z"/>
	<path style="fill:#656566;" d="M196.942,226.676h-45.969c-4.267,0-7.727-3.459-7.727-7.727c0-4.268,3.46-7.727,7.727-7.727h45.969
		c4.267,0,7.727,3.459,7.727,7.727C204.669,223.217,201.21,226.676,196.942,226.676z"/>
	<path style="fill:#656566;" d="M361.027,226.676h-45.969c-4.267,0-7.727-3.459-7.727-7.727c0-4.268,3.46-7.727,7.727-7.727h45.969
		c4.267,0,7.727,3.459,7.727,7.727C368.754,223.217,365.294,226.676,361.027,226.676z"/>
</g>
<g>
</g>
<g>
</g>
<g>
</g>
<g>
</g>
<g>
</g>
<g>
</g>
<g>
</g>
<g>
</g>
<g>
</g>
<g>
</g>
<g>
</g>
<g>
</g>
<g>
</g>
<g>
</g>
<g>
</g>
</svg>
