<?xml version="1.0" encoding="iso-8859-1"?>
<!-- Generator: Adobe Illustrator 19.0.0, SVG Export Plug-In . SVG Version: 6.00 Build 0)  -->
<svg version="1.1" id="Capa_1" xmlns="http://www.w3.org/2000/svg" xmlns:xlink="http://www.w3.org/1999/xlink" x="0px" y="0px"
	 viewBox="0 0 511.96 511.96" style="enable-background:new 0 0 511.96 511.96;" xml:space="preserve">
<circle style="fill:#F4D44E;" cx="256" cy="255.96" r="255.96"/>
<path style="fill:#E8C842;" d="M172.398,451.935C11.245,358.893,1.46,131.055,150.506,23.523
	C103.321,44.752,62.118,80.456,34.272,128.687C-36.279,250.886,5.589,407.14,127.787,477.691
	c89.928,51.919,198.295,42.951,277.38-14.107C332.804,496.141,246.365,494.639,172.398,451.935z"/>
<g>
	<path style="fill:#656566;" d="M369.65,172.675c-15.783-9.21-33.561-11.911-50.058-7.607c-4.13,1.08-8.35-1.397-9.427-5.526
		c-1.077-4.129,1.397-8.349,5.526-9.427c20.481-5.341,42.409-2.073,61.748,9.213c3.686,2.15,4.931,6.881,2.779,10.568
		C378.074,173.57,373.343,174.833,369.65,172.675z"/>
	<path style="fill:#656566;" d="M131.781,169.897c-2.15-3.686-0.906-8.418,2.779-10.568c19.338-11.284,41.268-14.558,61.748-9.213
		c4.129,1.077,6.603,5.298,5.526,9.427c-1.077,4.129-5.296,6.605-9.427,5.526c-16.497-4.305-34.274-1.603-50.058,7.607
		C138.68,174.816,133.942,173.599,131.781,169.897z"/>
	<path style="fill:#656566;" d="M245.327,386.555c-13.102,0-22.484-2.072-23.466-2.297c-4.159-0.957-6.754-5.104-5.796-9.263
		c0.957-4.155,5.101-6.751,9.252-5.799c0.635,0.142,54.082,11.7,81.475-25.954c2.511-3.451,7.342-4.214,10.794-1.702
		c3.451,2.51,4.213,7.342,1.702,10.793C298.466,380.953,266.87,386.555,245.327,386.555z"/>
</g>
<g>
	<path style="fill:#4F4F51;" d="M348.911,241.355c0-4.268-3.46-7.727-7.727-7.727h-31.606c-4.267,0-7.727,3.459-7.727,7.727
		c0,4.268,3.46,7.727,7.727,7.727h31.606C345.452,249.082,348.911,245.624,348.911,241.355z"/>
	<path style="fill:#4F4F51;" d="M200.123,241.355c0-4.268-3.46-7.727-7.727-7.727H160.79c-4.267,0-7.727,3.459-7.727,7.727
		c0,4.268,3.46,7.727,7.727,7.727h31.606C196.663,249.082,200.123,245.624,200.123,241.355z"/>
</g>
<circle style="fill:#656566;" cx="192.826" cy="251.902" r="18.266"/>
<path style="fill:#4F4F51;" d="M192.822,251.898c-3.379-5.851-3.135-12.788,0.008-18.252c-3.107-0.005-6.256,0.768-9.141,2.433
	c-8.736,5.044-11.73,16.216-6.686,24.952c5.044,8.737,16.216,11.73,24.952,6.686c2.885-1.665,5.128-4.007,6.678-6.7
	C202.33,261.008,196.201,257.749,192.822,251.898z"/>
<circle style="fill:#656566;" cx="341.607" cy="251.902" r="18.266"/>
<path style="fill:#4F4F51;" d="M341.611,251.898c-3.379-5.851-3.135-12.788,0.008-18.252c-3.107-0.005-6.256,0.768-9.141,2.433
	c-8.736,5.044-11.73,16.216-6.686,24.952c5.044,8.737,16.216,11.73,24.952,6.686c2.885-1.665,5.128-4.007,6.678-6.7
	C351.119,261.008,344.99,257.749,341.611,251.898z"/>
<g>
</g>
<g>
</g>
<g>
</g>
<g>
</g>
<g>
</g>
<g>
</g>
<g>
</g>
<g>
</g>
<g>
</g>
<g>
</g>
<g>
</g>
<g>
</g>
<g>
</g>
<g>
</g>
<g>
</g>
</svg>
