<?xml version="1.0" encoding="iso-8859-1"?>
<!-- Generator: Adobe Illustrator 19.0.0, SVG Export Plug-In . SVG Version: 6.00 Build 0)  -->
<svg version="1.1" id="Capa_1" xmlns="http://www.w3.org/2000/svg" xmlns:xlink="http://www.w3.org/1999/xlink" x="0px" y="0px"
	 viewBox="0 0 512.001 512.001" style="enable-background:new 0 0 512.001 512.001;" xml:space="preserve">
<path style="fill:#F4D44E;" d="M302.563,55.559l0.007-0.006C176.264,29.486,52.667,112.97,29.343,239.236
	c0,0-0.014,0.003-0.022,0.005C8.547,351.154,72.732,461.134,179.143,498.738c0,0,0.01-0.011,0.015-0.016
	c122.843,43.585,255.688-24.11,295.688-144.779l-0.009,0.003C518.397,223.067,437.485,83.232,302.563,55.559z"/>
<path style="fill:#E8C842;" d="M223.771,472.964c-0.005,0.006-0.01,0.011-0.015,0.016C117.345,435.377,53.16,325.398,73.934,213.483
	l0.014-0.003c11.035-59.702,44.487-109.827,90.035-143.343C96.232,99.81,43.724,161.383,29.343,239.236c0,0-0.014,0.003-0.022,0.005
	C8.547,351.154,72.732,461.134,179.143,498.738c0,0,0.01-0.011,0.015-0.016c75.299,26.716,154.349,11.611,213.477-31.866
	C341.225,489.367,281.397,493.41,223.771,472.964z"/>
<g>
	<path style="fill:#656566;" d="M144.292,349.695c-1.766-3.885-0.048-8.466,3.836-10.231c3.886-1.767,8.466-0.049,10.232,3.837
		c38.478,84.622,157.837,82.759,195.273,0.012c1.758-3.888,6.337-5.615,10.225-3.854c3.889,1.758,5.614,6.336,3.855,10.225
		C324.885,444.35,188.31,446.534,144.292,349.695z"/>
	<path style="fill:#656566;" d="M347.076,265.895c-2.49,0-4.935-1.201-6.426-3.426l-10.749-16.033
		c-1.918-2.861-3.547-3.018-5.571,0.001l-10.749,16.032c-2.376,3.546-7.176,4.492-10.721,2.116
		c-3.545-2.377-4.492-7.176-2.115-10.72l10.749-16.033c6.584-9.821,15.83-9.147,15.623-9.089c6.057,0,11.75,3.313,15.622,9.089
		l10.748,16.033C356.958,259.041,353.161,265.895,347.076,265.895z"/>
	<path style="fill:#656566;" d="M198.418,262.315l-10.749-16.033c-1.971-2.939-3.597-2.944-5.57,0l-10.75,16.034
		c-2.376,3.545-7.176,4.491-10.721,2.115c-3.545-2.377-4.492-7.176-2.115-10.721l10.749-16.033
		c8.129-12.128,23.129-12.105,31.244,0.001l10.748,16.033c2.377,3.545,1.429,8.344-2.115,10.72
		C205.593,266.806,200.793,265.86,198.418,262.315z"/>
</g>
<path style="fill:#9CD7F2;" d="M16.841,77.085c0-76.934,266.743-96.209,402.199-58.146c50.51,14.193,76.121,33.756,76.121,58.146
	s-25.61,43.953-76.121,58.146C283.63,173.281,16.841,154.022,16.841,77.085z M100.486,45.72
	c-40.96,11.509-55.828,25.064-55.828,31.365s14.868,19.856,55.828,31.365c85.574,24.046,225.439,24.05,311.027,0
	c40.961-11.509,55.828-25.063,55.828-31.365c0-6.302-14.868-19.856-55.828-31.365C325.94,21.674,186.074,21.67,100.486,45.72z"/>
<g>
	<path style="fill:#71C5DB;" d="M100.486,45.72c85.587-24.05,225.453-24.046,311.027,0c37.727,10.601,53.307,22.932,55.533,29.737
		c0.194-0.721,0.295-1.397,0.295-2.012c0-7.743-14.868-24.397-55.829-38.539c-85.573-29.546-225.439-29.551-311.027,0
		C59.526,49.048,44.658,65.702,44.658,73.445c0,0.615,0.1,1.29,0.295,2.012C47.18,68.651,62.76,56.321,100.486,45.72z"/>
	<path style="fill:#71C5DB;" d="M419.04,120.291C288.125,157.078,34.417,140.297,17.717,69.615c-0.573,2.427-0.876,4.916-0.876,7.47
		c0,76.937,266.789,96.196,402.199,58.146c50.51-14.193,76.121-33.756,76.121-58.146c0-2.544-0.296-5.032-0.852-7.47
		C489.53,90.555,464.282,107.579,419.04,120.291z"/>
</g>
<g>
</g>
<g>
</g>
<g>
</g>
<g>
</g>
<g>
</g>
<g>
</g>
<g>
</g>
<g>
</g>
<g>
</g>
<g>
</g>
<g>
</g>
<g>
</g>
<g>
</g>
<g>
</g>
<g>
</g>
</svg>
