<?xml version="1.0" encoding="iso-8859-1"?>
<!-- Generator: Adobe Illustrator 19.0.0, SVG Export Plug-In . SVG Version: 6.00 Build 0)  -->
<svg version="1.1" id="Capa_1" xmlns="http://www.w3.org/2000/svg" xmlns:xlink="http://www.w3.org/1999/xlink" x="0px" y="0px"
	 viewBox="0 0 511.96 511.96" style="enable-background:new 0 0 511.96 511.96;" xml:space="preserve">
<circle style="fill:#F4D44E;" cx="255.98" cy="255.96" r="255.96"/>
<path style="fill:#E8C842;" d="M172.847,451.935C11.695,358.894,1.909,131.055,150.955,23.523
	C103.77,44.752,62.567,80.456,34.721,128.687C-35.83,250.886,6.038,407.14,128.237,477.691
	c89.928,51.919,198.295,42.951,277.38-14.107C333.253,496.141,246.814,494.639,172.847,451.935z"/>
<circle style="fill:#656566;" cx="328.752" cy="193.678" r="22.288"/>
<path style="fill:#4F4F51;" d="M328.757,193.683c-4.122-7.14-3.825-15.603,0.01-22.27c-3.791-0.005-7.634,0.937-11.154,2.969
	c-10.66,6.154-14.312,19.786-8.158,30.445c6.154,10.66,19.786,14.312,30.445,8.158c3.52-2.032,6.257-4.889,8.148-8.175
	C340.358,204.799,332.879,200.823,328.757,193.683z"/>
<circle style="fill:#656566;" cx="183.468" cy="193.678" r="22.288"/>
<path style="fill:#4F4F51;" d="M183.469,193.683c-4.122-7.14-3.825-15.603,0.01-22.27c-3.791-0.005-7.634,0.937-11.154,2.969
	c-10.66,6.154-14.312,19.786-8.158,30.445c6.154,10.66,19.786,14.312,30.445,8.158c3.52-2.032,6.257-4.889,8.148-8.175
	C195.07,204.799,187.592,200.823,183.469,193.683z"/>
<g>
</g>
<g>
</g>
<g>
</g>
<g>
</g>
<g>
</g>
<g>
</g>
<g>
</g>
<g>
</g>
<g>
</g>
<g>
</g>
<g>
</g>
<g>
</g>
<g>
</g>
<g>
</g>
<g>
</g>
</svg>
