<?xml version="1.0" encoding="iso-8859-1"?>
<!-- Generator: Adobe Illustrator 19.0.0, SVG Export Plug-In . SVG Version: 6.00 Build 0)  -->
<svg version="1.1" id="Capa_1" xmlns="http://www.w3.org/2000/svg" xmlns:xlink="http://www.w3.org/1999/xlink" x="0px" y="0px"
	 viewBox="0 0 511.96 511.96" style="enable-background:new 0 0 511.96 511.96;" xml:space="preserve">
<circle style="fill:#F4D44E;" cx="255.998" cy="255.725" r="255.725"/>
<path style="fill:#E8C842;" d="M172.792,451.88C11.492,358.753,1.698,130.707,150.881,23.075
	C103.653,44.324,62.412,80.061,34.54,128.336c-70.616,122.31-28.709,278.708,93.601,349.323
	c90.01,51.967,198.477,42.99,277.634-14.12C333.346,496.127,246.827,494.624,172.792,451.88z"/>
<g>
	<path style="fill:#656566;" d="M373.355,192.752c-13.191-12.617-29.833-19.352-46.859-19.027c-4.274,0.089-7.803-3.303-7.89-7.574
		c-0.087-4.27,3.304-7.803,7.575-7.89c21.158-0.45,41.697,7.848,57.865,23.312c3.086,2.953,3.195,7.848,0.243,10.934
		C381.342,195.593,376.446,195.706,373.355,192.752z"/>
	<path style="fill:#656566;" d="M127.714,192.508c-2.952-3.086-2.843-7.982,0.243-10.934c16.17-15.464,36.735-23.759,57.865-23.312
		c4.27,0.087,7.662,3.619,7.575,7.89c-0.087,4.27-3.602,7.684-7.89,7.574c-17.032-0.327-33.668,6.41-46.859,19.027
		C135.564,195.701,130.668,195.598,127.714,192.508z"/>
</g>
<path style="fill:#ED694A;" d="M256.002,402.404c-13.749,0-24.895-11.146-24.895-24.895v-6.036
	c0-13.749,11.146-24.895,24.895-24.895c13.749,0,24.895,11.146,24.895,24.895v6.036
	C280.897,391.259,269.751,402.404,256.002,402.404z"/>
<path style="fill:#D8553A;" d="M256.002,377.51v-6.036c0-9.214,5.008-17.251,12.448-21.556c-3.663-2.119-7.911-3.338-12.448-3.338
	c-13.749,0-24.895,11.146-24.895,24.895v6.036c0,13.749,11.146,24.895,24.895,24.895c4.536,0,8.785-1.219,12.448-3.338
	C261.011,394.76,256.002,386.722,256.002,377.51z"/>
<circle style="fill:#656566;" cx="328.713" cy="258.448" r="22.308"/>
<path style="fill:#4F4F51;" d="M328.713,258.444c-4.126-7.146-3.829-15.618,0.01-22.29c-3.795-0.005-7.641,0.937-11.164,2.971
	c-10.67,6.16-14.326,19.804-8.165,30.473c6.16,10.67,19.804,14.325,30.473,8.165c3.523-2.034,6.263-4.893,8.155-8.182
	C340.323,269.569,332.838,265.59,328.713,258.444z"/>
<circle style="fill:#656566;" cx="183.292" cy="258.448" r="22.308"/>
<path style="fill:#4F4F51;" d="M183.291,258.444c-4.126-7.146-3.829-15.618,0.01-22.29c-3.795-0.005-7.641,0.937-11.164,2.971
	c-10.67,6.16-14.326,19.804-8.165,30.473c6.16,10.67,19.804,14.325,30.473,8.165c3.523-2.034,6.262-4.893,8.155-8.182
	C194.902,269.569,187.418,265.59,183.291,258.444z"/>
<g>
</g>
<g>
</g>
<g>
</g>
<g>
</g>
<g>
</g>
<g>
</g>
<g>
</g>
<g>
</g>
<g>
</g>
<g>
</g>
<g>
</g>
<g>
</g>
<g>
</g>
<g>
</g>
<g>
</g>
</svg>
