<?xml version="1.0" encoding="iso-8859-1"?>
<!-- Generator: Adobe Illustrator 19.0.0, SVG Export Plug-In . SVG Version: 6.00 Build 0)  -->
<svg version="1.1" id="Capa_1" xmlns="http://www.w3.org/2000/svg" xmlns:xlink="http://www.w3.org/1999/xlink" x="0px" y="0px"
	 viewBox="0 0 511.961 511.961" style="enable-background:new 0 0 511.961 511.961;" xml:space="preserve">
<circle style="fill:#F4D44E;" cx="256.001" cy="255.96" r="255.96"/>
<path style="fill:#E8C842;" d="M172.715,451.825C11.268,358.614,1.464,130.356,150.783,22.626
	C103.511,43.895,62.232,79.664,34.335,127.984c-70.681,122.422-28.736,278.964,93.687,349.644
	c90.093,52.016,198.659,43.029,277.889-14.133C333.416,496.113,246.818,494.607,172.715,451.825z"/>
<g>
	<path style="fill:#656566;" d="M216.32,357.411c-2.92-3.124-2.753-8.023,0.37-10.941c10.314-9.64,26.493-17.457,44.387-21.447
		c49.499-11.038,77.661,12.238,65.914,22.258c-3.253,2.772-8.14,2.386-10.913-0.868c-12.303-14.424-64.839-11.041-88.816,11.367
		C225.769,359.177,219.246,360.542,216.32,357.411z"/>
	<ellipse style="fill:#656566;" cx="174.812" cy="205.792" rx="23.392" ry="29.824"/>
</g>
<path style="fill:#4F4F51;" d="M192.706,223.276c-12.918,0-23.392-13.352-23.392-29.824c0-6.52,1.646-12.547,4.43-17.455
	c-12.421,0.714-22.32,13.776-22.32,29.789c0,16.471,10.472,29.824,23.392,29.824c7.804,0,14.712-4.879,18.961-12.369
	C193.423,223.262,193.066,223.276,192.706,223.276z"/>
<ellipse style="fill:#656566;" cx="337.189" cy="205.792" rx="23.392" ry="29.824"/>
<path style="fill:#4F4F51;" d="M355.076,223.276c-12.918,0-23.392-13.352-23.392-29.824c0-6.52,1.646-12.547,4.43-17.455
	c-12.421,0.714-22.32,13.776-22.32,29.789c0,16.471,10.472,29.824,23.392,29.824c7.804,0,14.712-4.879,18.961-12.369
	C355.792,223.262,355.435,223.276,355.076,223.276z"/>
<g>
</g>
<g>
</g>
<g>
</g>
<g>
</g>
<g>
</g>
<g>
</g>
<g>
</g>
<g>
</g>
<g>
</g>
<g>
</g>
<g>
</g>
<g>
</g>
<g>
</g>
<g>
</g>
<g>
</g>
</svg>
