<?xml version="1.0" encoding="iso-8859-1"?>
<!-- Generator: Adobe Illustrator 19.0.0, SVG Export Plug-In . SVG Version: 6.00 Build 0)  -->
<svg version="1.1" id="Capa_1" xmlns="http://www.w3.org/2000/svg" xmlns:xlink="http://www.w3.org/1999/xlink" x="0px" y="0px"
	 viewBox="0 0 511.96 511.96" style="enable-background:new 0 0 511.96 511.96;" xml:space="preserve">
<circle style="fill:#F4D44E;" cx="256" cy="255.96" r="255.96"/>
<path style="fill:#E8C842;" d="M172.398,451.935C11.245,358.893,1.46,131.055,150.506,23.523
	C103.321,44.752,62.118,80.456,34.272,128.687C-36.279,250.886,5.589,407.14,127.787,477.691
	c89.928,51.919,198.295,42.951,277.38-14.107C332.804,496.142,246.365,494.639,172.398,451.935z"/>
<path style="fill:#EAE9E8;" d="M322.328,348.371H189.619c-17.247,0-31.228-13.981-31.228-31.228l0,0
	c0-17.247,13.981-31.228,31.228-31.228h132.709c17.247,0,31.228,13.981,31.228,31.228l0,0
	C353.556,334.39,339.575,348.371,322.328,348.371z"/>
<g>
	<path style="fill:#DBDBDB;" d="M184.73,317.143L184.73,317.143c0-17.247,13.981-31.228,31.228-31.228h-26.338
		c-17.247,0-31.229,13.981-31.229,31.228l0,0c0,17.247,13.981,31.228,31.229,31.228h26.338
		C198.711,348.371,184.73,334.39,184.73,317.143z"/>
	<path style="fill:#DBDBDB;" d="M189.619,348.371h132.709c17.247,0,31.229-13.981,31.229-31.228l0,0H158.39l0,0
		C158.39,334.39,172.372,348.371,189.619,348.371z"/>
</g>
<path style="fill:#C9C6C5;" d="M184.73,317.143L184.73,317.143h-26.338l0,0c0,17.386,14.134,31.228,31.229,31.228h26.338
	C198.711,348.371,184.73,334.39,184.73,317.143z"/>
<circle style="fill:#656566;" cx="328.772" cy="193.678" r="22.288"/>
<path style="fill:#4F4F51;" d="M328.777,193.683c-4.122-7.14-3.825-15.603,0.01-22.27c-3.791-0.005-7.634,0.937-11.154,2.969
	c-10.66,6.154-14.312,19.786-8.158,30.445c6.154,10.66,19.786,14.312,30.445,8.158c3.52-2.032,6.257-4.889,8.148-8.175
	C340.378,204.799,332.899,200.823,328.777,193.683z"/>
<circle style="fill:#656566;" cx="183.488" cy="193.678" r="22.288"/>
<path style="fill:#4F4F51;" d="M183.489,193.683c-4.122-7.14-3.825-15.603,0.01-22.27c-3.791-0.005-7.634,0.937-11.154,2.969
	c-10.66,6.154-14.312,19.786-8.158,30.445c6.154,10.66,19.786,14.312,30.445,8.158c3.52-2.032,6.257-4.889,8.148-8.175
	C195.09,204.799,187.611,200.823,183.489,193.683z"/>
<g>
</g>
<g>
</g>
<g>
</g>
<g>
</g>
<g>
</g>
<g>
</g>
<g>
</g>
<g>
</g>
<g>
</g>
<g>
</g>
<g>
</g>
<g>
</g>
<g>
</g>
<g>
</g>
<g>
</g>
</svg>
