<?xml version="1.0" encoding="iso-8859-1"?>
<!-- Generator: Adobe Illustrator 19.0.0, SVG Export Plug-In . SVG Version: 6.00 Build 0)  -->
<svg version="1.1" id="Capa_1" xmlns="http://www.w3.org/2000/svg" xmlns:xlink="http://www.w3.org/1999/xlink" x="0px" y="0px"
	 viewBox="0 0 511.96 511.96" style="enable-background:new 0 0 511.96 511.96;" xml:space="preserve">
<circle style="fill:#F4D44E;" cx="256.001" cy="255.96" r="255.96"/>
<path style="fill:#E8C842;" d="M172.715,451.825C11.267,358.613,1.463,130.356,150.783,22.627
	c-47.272,21.269-88.55,57.038-116.448,105.358c-70.681,122.422-28.735,278.964,93.687,349.644
	c90.093,52.015,198.66,43.029,277.89-14.133C333.416,496.113,246.818,494.608,172.715,451.825z"/>
<g>
	<circle style="fill:#656566;" cx="328.773" cy="258.686" r="22.329"/>
	<circle style="fill:#656566;" cx="183.228" cy="258.686" r="22.329"/>
</g>
<g>
	<path style="fill:#4F4F51;" d="M328.778,258.681c-4.13-7.153-3.832-15.633,0.01-22.311c-3.798-0.005-7.648,0.938-11.174,2.974
		c-10.68,6.166-14.338,19.822-8.173,30.501c6.166,10.68,19.822,14.339,30.501,8.173c3.526-2.036,6.268-4.898,8.163-8.19
		C340.399,269.816,332.908,265.835,328.778,258.681z"/>
	<path style="fill:#4F4F51;" d="M183.223,258.681c-4.13-7.153-3.832-15.633,0.01-22.311c-3.798-0.005-7.648,0.938-11.174,2.974
		c-10.68,6.166-14.338,19.822-8.173,30.501c6.166,10.68,19.822,14.339,30.501,8.173c3.526-2.036,6.268-4.898,8.163-8.19
		C194.845,269.816,187.353,265.835,183.223,258.681z"/>
</g>
<path style="fill:#ED694A;" d="M256.001,402.774c-18.429,0-33.369-14.94-33.369-33.369v-8.092c0-18.429,14.94-33.369,33.369-33.369
	s33.369,14.94,33.369,33.369v8.092C289.37,387.834,274.43,402.774,256.001,402.774z"/>
<path style="fill:#D8553A;" d="M248.435,369.793v-7.998c0-14.091,8.902-26.111,21.424-30.835c-4.222-1.931-8.912-3.015-13.858-3.015
	c-18.429,0-33.369,14.94-33.369,33.369v8.092c0,18.429,14.94,33.369,33.369,33.369c4.542,0,8.869-0.911,12.816-2.554
	C256.845,395.235,248.435,383.49,248.435,369.793z"/>
<g>
</g>
<g>
</g>
<g>
</g>
<g>
</g>
<g>
</g>
<g>
</g>
<g>
</g>
<g>
</g>
<g>
</g>
<g>
</g>
<g>
</g>
<g>
</g>
<g>
</g>
<g>
</g>
<g>
</g>
</svg>
