<?xml version="1.0" encoding="iso-8859-1"?>
<!-- Generator: Adobe Illustrator 19.0.0, SVG Export Plug-In . SVG Version: 6.00 Build 0)  -->
<svg version="1.1" id="Capa_1" xmlns="http://www.w3.org/2000/svg" xmlns:xlink="http://www.w3.org/1999/xlink" x="0px" y="0px"
	 viewBox="0 0 511.96 511.96" style="enable-background:new 0 0 511.96 511.96;" xml:space="preserve">
<circle style="fill:#F4D44E;" cx="256" cy="255.961" r="255.96"/>
<path style="fill:#E8C842;" d="M172.714,451.824C11.267,358.612,1.463,130.355,150.783,22.624
	C103.51,43.894,62.232,79.663,34.334,127.982c-70.68,122.423-28.735,278.964,93.687,349.645
	c90.093,52.015,198.659,43.029,277.889-14.133C333.415,496.111,246.817,494.606,172.714,451.824z"/>
<circle style="fill:#ED694A;" cx="403.889" cy="251.512" r="19.371"/>
<path style="fill:#D8553A;" d="M403.901,232.155c-14.77-0.021-24.284,16.051-16.785,29.042c7.502,12.993,26.18,12.782,33.544-0.015
	C405.76,261.16,396.455,245.094,403.901,232.155z"/>
<circle style="fill:#ED694A;" cx="108.111" cy="251.512" r="19.371"/>
<path style="fill:#D8553A;" d="M108.116,232.156c-14.77-0.021-24.284,16.051-16.785,29.042c7.502,12.993,26.18,12.783,33.543-0.015
	C109.975,261.16,100.672,245.093,108.116,232.156z"/>
<g>
	<path style="fill:#656566;" d="M301.84,225.981c3.552,2.383,8.36,1.431,10.74-2.119c7.88-11.754,19.151-11.881,27.117,0
		c2.394,3.57,7.209,4.489,10.74,2.119c3.552-2.381,4.501-7.189,2.12-10.74c-14.006-20.895-38.738-21.032-52.835,0
		C297.339,218.791,298.288,223.6,301.84,225.981z"/>
	<path style="fill:#656566;" d="M157.23,215.086c-2.381,3.551-1.433,8.36,2.12,10.74c3.552,2.382,8.361,1.432,10.74-2.119
		c7.871-11.741,19.14-11.896,27.117-0.001c1.493,2.228,3.942,3.432,6.437,3.432c6.097,0,9.899-6.866,6.423-12.052
		c-6.701-9.997-16.329-15.731-26.418-15.731C173.561,199.357,163.931,205.091,157.23,215.086z"/>
	<path style="fill:#656566;" d="M319.596,165.801c16.492-4.304,34.266-1.603,50.047,7.606c1.227,0.715,2.569,1.056,3.895,1.056
		c2.662,0,5.254-1.375,6.693-3.84c2.155-3.692,0.908-8.432-2.784-10.588c-19.343-11.286-41.276-14.56-61.759-9.214
		c-4.137,1.079-6.615,5.307-5.536,9.444C311.232,164.403,315.464,166.882,319.596,165.801z"/>
	<path style="fill:#656566;" d="M142.357,173.407c15.781-9.209,33.555-11.908,50.047-7.606c4.134,1.08,8.365-1.399,9.444-5.536
		c1.079-4.137-1.399-8.365-5.536-9.444c-20.484-5.344-42.416-2.073-61.759,9.214c-3.692,2.155-4.939,6.894-2.784,10.588
		C133.935,174.334,138.682,175.551,142.357,173.407z"/>
	<path style="fill:#656566;" d="M200.363,322.438c-3.892,1.77-5.611,6.359-3.841,10.251c0.884,1.942,1.865,3.85,2.917,5.674
		c12.085,20.93,34.082,32.643,56.672,32.643c11.073,0,22.288-2.814,32.546-8.737c11.9-6.87,21.176-17.103,26.827-29.594
		c1.762-3.896,0.033-8.482-3.862-10.244c-3.896-1.763-8.481-0.033-10.244,3.862c-4.309,9.523-11.385,17.327-20.463,22.568
		c-23.796,13.737-54.33,5.555-68.068-18.237c-0.804-1.393-1.555-2.856-2.232-4.345C208.843,322.388,204.255,320.665,200.363,322.438
		z"/>
</g>
<g>
</g>
<g>
</g>
<g>
</g>
<g>
</g>
<g>
</g>
<g>
</g>
<g>
</g>
<g>
</g>
<g>
</g>
<g>
</g>
<g>
</g>
<g>
</g>
<g>
</g>
<g>
</g>
<g>
</g>
</svg>
