<?xml version="1.0" encoding="iso-8859-1"?>
<!-- Generator: Adobe Illustrator 19.0.0, SVG Export Plug-In . SVG Version: 6.00 Build 0)  -->
<svg version="1.1" id="Capa_1" xmlns="http://www.w3.org/2000/svg" xmlns:xlink="http://www.w3.org/1999/xlink" x="0px" y="0px"
	 viewBox="0 0 511.994 511.994" style="enable-background:new 0 0 511.994 511.994;" xml:space="preserve">
<path style="fill:#776AB7;" d="M378.829,58.39c14.942-13.525,28.964-30.969,39.281-50.622c6.337-12.071,24.282-9.528,26.873,3.858
	c4.863,25.119,6.348,60.285-5.361,96.826C422.656,89.066,402.305,72.069,378.829,58.39z"/>
<path style="fill:#6B63AA;" d="M378.829,58.39c14.942-13.525,28.963-30.969,39.281-50.622c2.469-4.702,6.699-7.177,11.096-7.667
	c3.091,2.888,4.953,7.162,4.315,12.205c-2.482,19.639-8.764,44.362-21.904,68.935C401.489,72.874,390.548,65.218,378.829,58.39z"/>
<path style="fill:#776AB7;" d="M133.224,58.39C118.281,44.865,104.26,27.421,93.943,7.767C87.605-4.304,69.661-1.761,67.07,11.625
	c-4.863,25.119-6.348,60.285,5.361,96.826C89.397,89.066,109.748,72.069,133.224,58.39z"/>
<path style="fill:#6B63AA;" d="M133.224,58.39c-14.942-13.525-28.963-30.969-39.281-50.622C91.474,3.065,87.243,0.59,82.847,0.1
	c-3.091,2.888-4.953,7.162-4.315,12.205c2.482,19.639,8.764,44.362,21.904,68.935C110.564,72.874,121.505,65.218,133.224,58.39z"/>
<circle style="fill:#9F91CE;" cx="256.02" cy="268.067" r="243.889"/>
<path style="fill:#8880BA;" d="M179.163,453.251c-116.651-67.348-156.619-216.509-89.27-333.16
	c17.533-30.369,40.62-55.526,67.225-74.959C111.508,65.321,71.65,99.622,44.801,146.125
	c-67.348,116.651-27.381,265.811,89.269,333.16c86.283,49.815,190.342,40.903,265.935-14.31
	C331.207,495.427,249.31,493.751,179.163,453.251z"/>
<path style="fill:#656566;" d="M292.041,345.092c-3.217-6.08-17.572-12.368-36.024-12.368c-18.452,0-32.806,6.288-36.024,12.368
	c-1.997,3.772-6.671,5.21-10.444,3.215c-3.771-1.996-5.211-6.671-3.215-10.444c14.487-27.376,84.841-27.445,99.365,0
	c1.996,3.771,0.557,8.448-3.215,10.444C298.703,350.308,294.034,348.857,292.041,345.092z"/>
<g>
	<path style="fill:#4F4F51;" d="M361.687,199.749c-2.134-3.697-6.861-4.965-10.555-2.832c-29.808,17.96-34.026,17.847-38.98,24.892
		c-2.052,6.691,5.182,12.454,11.241,8.957l35.462-20.463C362.552,208.17,363.82,203.445,361.687,199.749z"/>
	<path style="fill:#4F4F51;" d="M160.902,196.918c-3.697-2.134-8.423-0.867-10.555,2.832c-2.133,3.695-0.866,8.422,2.831,10.554
		c36.9,20.872,35.63,21.498,39.317,21.498c5.176,0,8.909-4.985,7.392-9.974C194.937,214.776,190.506,214.736,160.902,196.918z"/>
</g>
<g>
	<circle style="fill:#656566;" cx="330.416" cy="234.631" r="22.328"/>
	<circle style="fill:#656566;" cx="181.624" cy="234.631" r="22.328"/>
</g>
<g>
	<path style="fill:#4F4F51;" d="M330.411,234.627c-4.131-7.156-3.846-15.646,0.002-22.326c-3.795-0.004-7.642,0.955-11.166,2.989
		c-10.679,6.166-14.338,19.822-8.173,30.501c6.166,10.679,19.822,14.338,30.501,8.173c3.523-2.034,6.276-4.887,8.171-8.175
		C342.038,245.78,334.543,241.783,330.411,234.627z"/>
	<path style="fill:#4F4F51;" d="M181.623,234.627c-4.131-7.156-3.846-15.646,0.002-22.326c-3.795-0.004-7.642,0.954-11.166,2.989
		c-10.679,6.166-14.338,19.822-8.173,30.501c6.166,10.679,19.822,14.338,30.501,8.173c3.523-2.034,6.276-4.887,8.171-8.175
		C193.249,245.78,185.754,241.783,181.623,234.627z"/>
</g>
<g>
</g>
<g>
</g>
<g>
</g>
<g>
</g>
<g>
</g>
<g>
</g>
<g>
</g>
<g>
</g>
<g>
</g>
<g>
</g>
<g>
</g>
<g>
</g>
<g>
</g>
<g>
</g>
<g>
</g>
</svg>
