<?xml version="1.0" encoding="iso-8859-1"?>
<!-- Generator: Adobe Illustrator 19.0.0, SVG Export Plug-In . SVG Version: 6.00 Build 0)  -->
<svg version="1.1" id="Capa_1" xmlns="http://www.w3.org/2000/svg" xmlns:xlink="http://www.w3.org/1999/xlink" x="0px" y="0px"
	 viewBox="0 0 511.995 511.995" style="enable-background:new 0 0 511.995 511.995;" xml:space="preserve">
<path style="fill:#776AB7;" d="M378.831,58.389c14.943-13.524,28.964-30.969,39.282-50.622c6.337-12.072,24.281-9.528,26.872,3.858
	c4.862,25.12,6.349,60.286-5.36,96.826C422.659,89.066,402.308,72.068,378.831,58.389z"/>
<path style="fill:#6B63AA;" d="M378.831,58.389c14.943-13.524,28.964-30.969,39.282-50.622c2.469-4.702,6.699-7.177,11.096-7.667
	c3.091,2.888,4.953,7.162,4.315,12.205c-2.482,19.638-8.764,44.362-21.904,68.936C401.491,72.875,390.551,65.218,378.831,58.389z"/>
<path style="fill:#776AB7;" d="M133.226,58.389c-14.943-13.524-28.964-30.968-39.282-50.622C87.607-4.304,69.663-1.76,67.072,11.625
	c-4.863,25.12-6.349,60.286,5.36,96.826C89.399,89.066,109.75,72.068,133.226,58.389z"/>
<path style="fill:#6B63AA;" d="M133.226,58.389c-14.943-13.524-28.964-30.968-39.282-50.622c-2.469-4.702-6.699-7.177-11.096-7.667
	c-3.091,2.888-4.953,7.162-4.315,12.205c2.482,19.638,8.764,44.362,21.904,68.936C110.566,72.875,121.507,65.218,133.226,58.389z"/>
<circle style="fill:#9F91CE;" cx="256.019" cy="268.074" r="243.886"/>
<path style="fill:#8880BA;" d="M179.165,453.252c-116.651-67.349-156.618-216.509-89.27-333.16
	c17.533-30.368,40.619-55.525,67.225-74.959C111.511,65.321,71.653,99.622,44.805,146.125
	c-67.349,116.651-27.38,265.811,89.269,333.16c86.283,49.815,190.342,40.904,265.934-14.311
	C331.209,495.427,249.312,493.751,179.165,453.252z"/>
<path style="fill:#656566;" d="M196.554,320.067c-1.766-3.885-0.048-8.466,3.836-10.232c3.882-1.764,8.466-0.049,10.232,3.837
	c17.889,39.337,73.395,38.456,90.788,0.013c1.759-3.889,6.337-5.615,10.225-3.855c3.888,1.758,5.614,6.336,3.856,10.224
	c-5.649,12.487-14.924,22.718-26.822,29.589C255.556,368.759,212.627,355.435,196.554,320.067z"/>
<g>
	<path style="fill:#4F4F51;" d="M365.006,208.65c-16.3-3.573-33.279-0.611-47.201,8.097c-2.483,1.703-4.601,3.894-6.222,6.436
		c-1.892,7.006,6.087,12.509,11.96,8.297c10.924-7.834,24.831-10.653,38.155-7.734c4.169,0.911,8.288-1.724,9.202-5.894
		C371.813,213.684,369.175,209.564,365.006,208.65z"/>
	<path style="fill:#4F4F51;" d="M194.226,216.742c-13.921-8.704-30.896-11.663-47.193-8.092c-4.169,0.914-6.807,5.034-5.894,9.202
		c0.914,4.168,5.032,6.807,9.202,5.894c13.322-2.924,27.23-0.1,38.155,7.734c5.905,4.234,13.824-1.31,11.967-8.274
		C198.839,220.652,196.718,218.45,194.226,216.742z"/>
</g>
<circle style="fill:#656566;" cx="330.415" cy="235.16" r="22.329"/>
<path style="fill:#4F4F51;" d="M330.414,235.161c-4.131-7.156-3.846-15.646,0.002-22.326c-3.795-0.004-7.642,0.955-11.166,2.989
	c-10.68,6.166-14.338,19.822-8.173,30.501c6.165,10.679,19.822,14.339,30.501,8.173c3.523-2.034,6.277-4.887,8.171-8.175
	C342.04,246.314,334.546,242.317,330.414,235.161z"/>
<circle style="fill:#656566;" cx="181.624" cy="235.16" r="22.329"/>
<path style="fill:#4F4F51;" d="M181.625,235.161c-4.131-7.156-3.846-15.646,0.001-22.326c-3.795-0.004-7.642,0.955-11.166,2.989
	c-10.68,6.166-14.339,19.822-8.173,30.501c6.166,10.68,19.822,14.338,30.501,8.173c3.523-2.034,6.277-4.887,8.171-8.175
	C193.252,246.314,185.756,242.317,181.625,235.161z"/>
<g>
</g>
<g>
</g>
<g>
</g>
<g>
</g>
<g>
</g>
<g>
</g>
<g>
</g>
<g>
</g>
<g>
</g>
<g>
</g>
<g>
</g>
<g>
</g>
<g>
</g>
<g>
</g>
<g>
</g>
</svg>
