<?xml version="1.0" encoding="iso-8859-1"?>
<!-- Generator: Adobe Illustrator 19.0.0, SVG Export Plug-In . SVG Version: 6.00 Build 0)  -->
<svg version="1.1" id="Capa_1" xmlns="http://www.w3.org/2000/svg" xmlns:xlink="http://www.w3.org/1999/xlink" x="0px" y="0px"
	 viewBox="0 0 511.96 511.96" style="enable-background:new 0 0 511.96 511.96;" xml:space="preserve">
<circle style="fill:#F4D44E;" cx="256" cy="255.96" r="255.96"/>
<path style="fill:#E8C842;" d="M172.714,451.824C11.266,358.612,1.462,130.357,150.782,22.626
	c-47.271,21.269-88.55,57.037-116.447,105.358C-36.346,250.406,5.6,406.948,128.022,477.628
	c90.093,52.015,198.659,43.029,277.889-14.133C333.415,496.113,246.817,494.608,172.714,451.824z"/>
<g>
	<path style="fill:#656566;" d="M373.462,192.929c-13.205-12.629-29.861-19.37-46.903-19.044c-4.277,0.038-7.81-3.307-7.897-7.581
		c-0.087-4.274,3.307-7.81,7.582-7.897c21.159-0.441,41.733,7.856,57.918,23.334c3.09,2.955,3.199,7.855,0.244,10.944
		C381.452,195.773,376.553,195.885,373.462,192.929z"/>
	<path style="fill:#656566;" d="M127.593,192.684c-2.955-3.089-2.846-7.99,0.244-10.944c16.185-15.479,36.773-23.76,57.918-23.334
		c4.274,0.087,7.669,3.622,7.582,7.897c-0.088,4.274-3.597,7.668-7.897,7.581c-17.044-0.346-33.698,6.416-46.903,19.044
		C135.455,195.878,130.555,195.781,127.593,192.684z"/>
	<path style="fill:#656566;" d="M302.293,384.575c10.777,0,15.259-13.701,6.629-20.157c-31.883-23.853-74.993-23.18-105.957,0.114
		c-8.534,6.421-3.897,20.042,6.783,20.042h92.545V384.575z"/>
</g>
<path style="fill:#4F4F51;" d="M227.775,364.533c10.532-10.217,22.875-16.08,35.501-17.433c-21.166-1.734-42.701,4.185-60.31,17.433
	c-8.534,6.421-3.897,20.042,6.783,20.042h23.286C224.753,384.575,221.157,370.954,227.775,364.533z"/>
<circle style="fill:#656566;" cx="328.772" cy="258.685" r="22.329"/>
<path style="fill:#4F4F51;" d="M328.777,258.681c-4.13-7.153-3.833-15.633,0.01-22.311c-3.798-0.005-7.648,0.938-11.174,2.974
	c-10.68,6.166-14.339,19.822-8.173,30.501c6.166,10.68,19.822,14.338,30.501,8.173c3.526-2.036,6.268-4.898,8.163-8.19
	C340.398,269.816,332.907,265.834,328.777,258.681z"/>
<circle style="fill:#656566;" cx="183.227" cy="258.685" r="22.329"/>
<path style="fill:#4F4F51;" d="M183.223,258.681c-4.13-7.153-3.832-15.633,0.01-22.311c-3.798-0.005-7.648,0.938-11.174,2.974
	c-10.68,6.166-14.339,19.822-8.173,30.501c6.166,10.68,19.822,14.338,30.501,8.173c3.526-2.036,6.268-4.898,8.163-8.19
	C194.844,269.816,187.353,265.834,183.223,258.681z"/>
<g>
</g>
<g>
</g>
<g>
</g>
<g>
</g>
<g>
</g>
<g>
</g>
<g>
</g>
<g>
</g>
<g>
</g>
<g>
</g>
<g>
</g>
<g>
</g>
<g>
</g>
<g>
</g>
<g>
</g>
</svg>
