<?xml version="1.0" encoding="iso-8859-1"?>
<!-- Generator: Adobe Illustrator 19.0.0, SVG Export Plug-In . SVG Version: 6.00 Build 0)  -->
<svg version="1.1" id="Capa_1" xmlns="http://www.w3.org/2000/svg" xmlns:xlink="http://www.w3.org/1999/xlink" x="0px" y="0px"
	 viewBox="0 0 511.96 511.96" style="enable-background:new 0 0 511.96 511.96;" xml:space="preserve">
<circle style="fill:#F4D44E;" cx="256" cy="255.96" r="255.96"/>
<path style="fill:#E8C842;" d="M75.497,352.863C12.894,238.475,47.248,96.868,150.484,22.529
	c-6.414,2.888-12.606,5.973-18.597,9.224C54.23,76.177,1.144,160.146,0.011,252.526c-0.001,0.112-0.003,0.224-0.004,0.337
	c-0.01,0.928-0.006,1.859-0.006,2.787c0.003,1.003,0.004,2.007,0.018,3.01c0.003,0.228,0.008,0.458,0.012,0.687
	c0.024,1.429,0.056,2.858,0.103,4.285c0.003,0.098,0.007,0.196,0.011,0.295c0.046,1.359,0.104,2.715,0.171,4.073
	c0.034,0.68,0.072,1.362,0.112,2.043c0.035,0.623,0.072,1.245,0.111,1.868c2.085,31.291,10.211,63.281,25.414,94.8
	c43.873,91.375,134.892,144.604,229.625,145.249c52.368-0.056,104.927-16.141,149.591-48.299
	C284.853,517.851,140.139,471.423,75.497,352.863z"/>
<path style="fill:#656566;" d="M302.347,384.575c10.777,0,15.259-13.701,6.629-20.157c-31.883-23.853-74.993-23.18-105.957,0.114
	c-8.534,6.421-3.897,20.042,6.783,20.042h92.545V384.575z"/>
<path style="fill:#4F4F51;" d="M227.829,364.533c10.532-10.217,22.875-16.08,35.501-17.433c-21.166-1.734-42.701,4.185-60.31,17.433
	c-8.534,6.421-3.897,20.042,6.783,20.042h23.286C224.807,384.575,221.211,370.954,227.829,364.533z"/>
<circle style="fill:#656566;" cx="328.832" cy="258.685" r="22.329"/>
<path style="fill:#4F4F51;" d="M328.831,258.681c-4.13-7.153-3.832-15.633,0.01-22.311c-3.798-0.005-7.648,0.938-11.174,2.974
	c-10.68,6.166-14.339,19.822-8.173,30.501c6.166,10.68,19.822,14.338,30.501,8.173c3.526-2.036,6.268-4.898,8.163-8.19
	C340.453,269.816,332.961,265.834,328.831,258.681z"/>
<circle style="fill:#656566;" cx="183.278" cy="258.685" r="22.329"/>
<path style="fill:#4F4F51;" d="M183.277,258.681c-4.13-7.153-3.832-15.633,0.01-22.311c-3.798-0.005-7.648,0.938-11.174,2.974
	c-10.679,6.166-14.339,19.822-8.173,30.501c6.166,10.68,19.822,14.338,30.501,8.173c3.526-2.036,6.268-4.898,8.163-8.19
	C194.899,269.816,187.407,265.834,183.277,258.681z"/>
<g>
</g>
<g>
</g>
<g>
</g>
<g>
</g>
<g>
</g>
<g>
</g>
<g>
</g>
<g>
</g>
<g>
</g>
<g>
</g>
<g>
</g>
<g>
</g>
<g>
</g>
<g>
</g>
<g>
</g>
</svg>
