<?xml version="1.0" encoding="iso-8859-1"?>
<!-- Generator: Adobe Illustrator 19.0.0, SVG Export Plug-In . SVG Version: 6.00 Build 0)  -->
<svg version="1.1" id="Capa_1" xmlns="http://www.w3.org/2000/svg" xmlns:xlink="http://www.w3.org/1999/xlink" x="0px" y="0px"
	 viewBox="0 0 511.96 511.96" style="enable-background:new 0 0 511.96 511.96;" xml:space="preserve">
<circle style="fill:#F4D44E;" cx="256" cy="255.96" r="255.96"/>
<path style="fill:#E8C842;" d="M172.714,451.825C11.267,358.613,1.463,130.357,150.783,22.626
	C103.51,43.895,62.232,79.664,34.334,127.984c-70.68,122.422-28.735,278.964,93.687,349.644
	c90.093,52.015,198.659,43.029,277.889-14.133C333.415,496.113,246.817,494.608,172.714,451.825z"/>
<g>
	<path style="fill:#656566;" d="M301.475,384.858c-17.712-39.147-73.291-38.865-90.954,0.01c-1.768,3.893-6.357,5.614-10.25,3.846
		c-3.893-1.767-5.614-6.356-3.847-10.249c23.418-51.562,96.28-50.551,119.156,0.01c1.762,3.896,0.033,8.482-3.862,10.244
		C307.832,390.479,303.24,388.76,301.475,384.858z"/>
	<path style="fill:#656566;" d="M373.462,192.929c-13.205-12.629-29.857-19.369-46.903-19.044c-4.276,0.038-7.81-3.307-7.897-7.581
		c-0.087-4.274,3.307-7.81,7.582-7.897c21.162-0.455,41.733,7.856,57.918,23.334c3.09,2.955,3.199,7.855,0.244,10.944
		C381.455,195.773,376.555,195.886,373.462,192.929z"/>
	<path style="fill:#656566;" d="M127.593,192.685c-2.955-3.089-2.846-7.99,0.244-10.944c16.185-15.479,36.766-23.76,57.918-23.334
		c4.274,0.087,7.669,3.622,7.582,7.897c-0.087,4.274-3.593,7.668-7.897,7.581c-17.043-0.346-33.697,6.416-46.903,19.044
		C135.456,195.878,130.554,195.782,127.593,192.685z"/>
	<circle style="fill:#656566;" cx="328.772" cy="258.695" r="22.329"/>
</g>
<path style="fill:#4F4F51;" d="M328.777,258.691c-4.13-7.153-3.832-15.633,0.01-22.311c-3.798-0.005-7.648,0.938-11.174,2.974
	c-10.68,6.166-14.339,19.822-8.173,30.501c6.166,10.68,19.822,14.338,30.501,8.173c3.526-2.036,6.268-4.898,8.163-8.19
	C340.399,269.827,332.907,265.844,328.777,258.691z"/>
<circle style="fill:#656566;" cx="183.228" cy="258.695" r="22.329"/>
<path style="fill:#4F4F51;" d="M183.223,258.691c-4.13-7.153-3.832-15.633,0.01-22.311c-3.798-0.005-7.648,0.938-11.174,2.974
	c-10.68,6.166-14.339,19.822-8.173,30.501c6.166,10.68,19.822,14.338,30.501,8.173c3.526-2.036,6.268-4.898,8.163-8.19
	C194.845,269.827,187.353,265.844,183.223,258.691z"/>
<g>
</g>
<g>
</g>
<g>
</g>
<g>
</g>
<g>
</g>
<g>
</g>
<g>
</g>
<g>
</g>
<g>
</g>
<g>
</g>
<g>
</g>
<g>
</g>
<g>
</g>
<g>
</g>
<g>
</g>
</svg>
