<?xml version="1.0" encoding="iso-8859-1"?>
<!-- Generator: Adobe Illustrator 19.0.0, SVG Export Plug-In . SVG Version: 6.00 Build 0)  -->
<svg version="1.1" id="Capa_1" xmlns="http://www.w3.org/2000/svg" xmlns:xlink="http://www.w3.org/1999/xlink" x="0px" y="0px"
	 viewBox="0 0 511.96 511.96" style="enable-background:new 0 0 511.96 511.96;" xml:space="preserve">
<circle style="fill:#F4D44E;" cx="256.001" cy="255.96" r="255.96"/>
<path style="fill:#E8C842;" d="M172.715,451.825C11.267,358.613,1.463,130.357,150.783,22.627
	C103.511,43.895,62.232,79.664,34.335,127.984c-70.681,122.422-28.735,278.964,93.687,349.644
	c90.093,52.015,198.659,43.029,277.889-14.133C333.416,496.113,246.818,494.608,172.715,451.825z"/>
<g>
	<path style="fill:#656566;" d="M383.784,187.705c-13.011-12.442-28.694-19.041-47.063-19.041c-4.202,0-7.65-3.363-7.736-7.583
		c-0.087-4.274,3.307-7.81,7.582-7.897c21.186-0.45,41.734,7.854,57.918,23.333c3.09,2.955,3.199,7.855,0.244,10.944
		C391.777,190.549,386.876,190.662,383.784,187.705z"/>
	<path style="fill:#656566;" d="M117.273,187.461c-2.955-3.089-2.846-7.99,0.244-10.944c16.185-15.479,36.76-23.772,57.918-23.333
		c4.274,0.087,7.669,3.622,7.582,7.897c-0.087,4.274-3.621,7.68-7.897,7.581c-17.033-0.324-33.698,6.417-46.903,19.043
		C125.13,190.657,120.229,190.554,117.273,187.461z"/>
	<path style="fill:#656566;" d="M354.213,235.87l14.617-14.617c3.023-3.024,3.023-7.924,0-10.948c-3.023-3.022-7.924-3.022-10.947,0
		l-14.617,14.617l-14.617-14.617c-3.023-3.022-7.924-3.022-10.947,0c-3.023,3.024-3.023,7.924,0,10.948l14.617,14.617
		l-14.617,14.617c-3.023,3.024-3.023,7.924,0,10.948c3.023,3.022,7.923,3.023,10.947,0l14.617-14.617l14.617,14.617
		c3.023,3.022,7.923,3.023,10.947,0c3.023-3.024,3.023-7.924,0-10.948L354.213,235.87z"/>
	<path style="fill:#656566;" d="M194.299,210.306c-3.023-3.022-7.924-3.022-10.947,0l-14.617,14.617l-14.617-14.617
		c-3.023-3.022-7.924-3.022-10.947,0c-3.023,3.024-3.023,7.924,0,10.948l14.617,14.617l-14.617,14.617
		c-3.023,3.024-3.023,7.924,0,10.948c3.023,3.022,7.923,3.023,10.947,0l14.617-14.617l14.617,14.617
		c3.024,3.023,7.924,3.023,10.947,0c3.023-3.024,3.023-7.924,0-10.948l-14.617-14.617l14.617-14.617
		C197.322,218.231,197.322,213.329,194.299,210.306z"/>
	<path style="fill:#656566;" d="M288.795,319.277h-65.586c-0.99,5.308-0.4,6.484-0.576,35.087c23.252,1.4,27.79,11.514,42.884,5.395
		c7.439-3.016,15.461-4.888,23.855-5.394C289.192,325.503,289.783,324.577,288.795,319.277z"/>
</g>
<path style="fill:#4F4F51;" d="M248.784,360.397c-0.043-0.696-0.073-1.397-0.073-2.104v-5.995c0.004,0,0.008,0.001,0.011,0.001
	c0.136-26.587-0.401-27.846,0.564-33.023h-26.079c-0.99,5.308-0.4,6.484-0.576,35.087
	C235.354,355.129,242.472,358.501,248.784,360.397z"/>
<path style="fill:#ED694A;" d="M289.371,358.293v-5.994c-8.393,0.506-16.416,2.378-23.855,5.394
	c-15.089,6.119-19.642-3.995-42.884-5.395v5.995c0,18.429,14.94,33.369,33.369,33.369S289.371,376.723,289.371,358.293z"/>
<path style="fill:#D8553A;" d="M248.711,358.311c-6.297-1.901-13.41-5.249-26.08-6.013v5.995c0,18.429,14.94,33.369,33.369,33.369
	c4.627,0,9.034-0.943,13.039-2.645C257.097,383.941,248.719,372.106,248.711,358.311z"/>
<path style="fill:#EAE9E8;" d="M222.89,321.341h66.221c-2.018-16.498-16.067-29.279-33.111-29.279
	C238.957,292.062,224.908,304.843,222.89,321.341z"/>
<path style="fill:#DBDBDB;" d="M249.287,319.277h0.009c2.07-11.094,9.622-20.258,19.74-24.564
	c-4.005-1.702-8.407-2.651-13.034-2.651c-17.043,0-31.093,12.781-33.111,29.279h26.069
	C249.043,320.677,249.149,320.016,249.287,319.277z"/>
<g>
</g>
<g>
</g>
<g>
</g>
<g>
</g>
<g>
</g>
<g>
</g>
<g>
</g>
<g>
</g>
<g>
</g>
<g>
</g>
<g>
</g>
<g>
</g>
<g>
</g>
<g>
</g>
<g>
</g>
</svg>
