<?xml version="1.0" encoding="iso-8859-1"?>
<!-- Generator: Adobe Illustrator 19.0.0, SVG Export Plug-In . SVG Version: 6.00 Build 0)  -->
<svg version="1.1" id="Capa_1" xmlns="http://www.w3.org/2000/svg" xmlns:xlink="http://www.w3.org/1999/xlink" x="0px" y="0px"
	 viewBox="0 0 511.961 511.961" style="enable-background:new 0 0 511.961 511.961;" xml:space="preserve">
<circle style="fill:#F4D44E;" cx="256.001" cy="255.96" r="255.96"/>
<path style="fill:#E8C842;" d="M172.715,451.825C11.268,358.614,1.464,130.356,150.783,22.626
	C103.511,43.895,62.232,79.664,34.335,127.984c-70.681,122.422-28.736,278.964,93.687,349.644
	c90.093,52.016,198.659,43.029,277.889-14.133C333.416,496.113,246.818,494.607,172.715,451.825z"/>
<g>
	<path style="fill:#656566;" d="M383.784,187.705c-13.204-12.627-29.869-19.385-46.903-19.043c-4.281,0.077-7.81-3.307-7.897-7.581
		c-0.087-4.274,3.307-7.81,7.582-7.897c21.159-0.454,41.734,7.854,57.918,23.333c3.09,2.955,3.199,7.855,0.244,10.944
		C391.768,190.555,386.869,190.656,383.784,187.705z"/>
	<path style="fill:#656566;" d="M122.868,189.851c-2.039,0-4.075-0.801-5.596-2.391c-2.955-3.089-2.846-7.99,0.244-10.944
		c16.185-15.479,36.757-23.772,57.918-23.333c4.274,0.087,7.669,3.622,7.582,7.897c-0.087,4.274-3.608,7.68-7.897,7.581
		c-17.035-0.324-33.698,6.417-46.903,19.043C126.718,189.139,124.791,189.851,122.868,189.851z"/>
	<path style="fill:#656566;" d="M240.626,337.263c9.881,4.007,20.88,4.006,30.761-0.001c9.63-3.905,19.873-6.599,30.538-7.949V328.9
		c0-25.363-20.56-45.923-45.923-45.923s-45.923,20.56-45.923,45.923v0.413C220.745,330.661,230.993,333.356,240.626,337.263z"/>
</g>
<path style="fill:#4F4F51;" d="M235.881,329.313L235.881,329.313l-0.001-0.413l0.001-0.005v-2.421
	c0.021,0.001,0.042,0.004,0.063,0.005c1.029-19.811,14.615-36.293,32.946-41.655c-4.091-1.194-8.413-1.848-12.891-1.848
	c-25.363,0-45.923,20.56-45.923,45.923v0.413c8.935,1.129,17.571,3.216,25.804,6.157L235.881,329.313L235.881,329.313z"/>
<g>
	<path style="fill:#656566;" d="M354.214,235.87l14.617-14.617c3.023-3.024,3.023-7.924,0-10.948c-3.023-3.022-7.924-3.022-10.947,0
		l-14.617,14.617l-14.617-14.617c-3.023-3.022-7.924-3.022-10.947,0c-3.023,3.024-3.023,7.924,0,10.948l14.617,14.617
		l-14.617,14.617c-3.023,3.024-3.023,7.924,0,10.948c3.023,3.022,7.923,3.023,10.947,0l14.617-14.617l14.617,14.617
		c3.024,3.023,7.924,3.023,10.947,0c3.023-3.024,3.023-7.924,0-10.948L354.214,235.87z"/>
	<path style="fill:#656566;" d="M194.299,210.306c-3.023-3.022-7.924-3.022-10.947,0l-14.617,14.617l-14.617-14.617
		c-3.023-3.022-7.924-3.022-10.947,0c-3.023,3.024-3.023,7.924,0,10.948l14.617,14.617l-14.617,14.617
		c-3.023,3.024-3.023,7.924,0,10.948c3.023,3.022,7.923,3.023,10.947,0l14.617-14.617l14.617,14.617
		c3.024,3.023,7.924,3.023,10.947,0c3.023-3.024,3.023-7.924,0-10.948l-14.617-14.617l14.617-14.617
		C197.322,218.231,197.322,213.329,194.299,210.306z"/>
</g>
<path style="fill:#ED694A;" d="M301.923,347.109v-20.634c-11.551,0.696-22.592,3.272-32.829,7.423
	c-8.409,3.41-17.769,3.411-26.178,0.001c-10.239-4.152-21.285-6.729-32.838-7.424v20.635c0,25.363,20.56,45.923,45.923,45.923
	S301.923,372.472,301.923,347.109z"/>
<path style="fill:#D8553A;" d="M235.881,347.109v-15.758c-8.205-2.656-16.849-4.338-25.804-4.878v20.635
	c0,25.363,20.56,45.923,45.923,45.923c4.482,0,8.807-0.653,12.902-1.851C249.824,385.605,235.881,367.991,235.881,347.109z"/>
<g>
</g>
<g>
</g>
<g>
</g>
<g>
</g>
<g>
</g>
<g>
</g>
<g>
</g>
<g>
</g>
<g>
</g>
<g>
</g>
<g>
</g>
<g>
</g>
<g>
</g>
<g>
</g>
<g>
</g>
</svg>
