<?xml version="1.0" encoding="iso-8859-1"?>
<!-- Generator: Adobe Illustrator 19.0.0, SVG Export Plug-In . SVG Version: 6.00 Build 0)  -->
<svg version="1.1" id="Capa_1" xmlns="http://www.w3.org/2000/svg" xmlns:xlink="http://www.w3.org/1999/xlink" x="0px" y="0px"
	 viewBox="0 0 512 512" style="enable-background:new 0 0 512 512;" xml:space="preserve">
<path style="fill:#F4D44E;" d="M264.325,43.177c0,0.016-0.001,0.032-0.001,0.048C71.212,19.796-64.738,227.413,31.916,394.416
	C127.79,560.878,376.034,547.601,452.26,368.74c0.014,0.008,0.028,0.015,0.042,0.023C513.523,224.801,419.011,62.066,264.325,43.177
	z"/>
<path style="fill:#E8C842;" d="M76.492,368.679C11.914,257.099,51.178,127.394,141.945,60.578
	C20.865,113.447-42.438,265.945,31.916,394.416c73.826,128.18,237.993,149.778,344.402,71.273
	C272.922,510.945,140.623,480.025,76.492,368.679z"/>
<path style="fill:#ED694A;" d="M235.665,404.4c-13.73,0-24.86-11.13-24.86-24.86v-6.028c0-13.73,11.13-24.86,24.86-24.86
	c13.73,0,24.86,11.13,24.86,24.86v6.028C260.525,393.269,249.395,404.4,235.665,404.4z"/>
<path style="fill:#D8553A;" d="M235.665,379.54v-6.028c0-9.2,5.002-17.226,12.431-21.526c-3.658-2.117-7.901-3.335-12.431-3.335
	c-13.729,0-24.86,11.13-24.86,24.86v6.028c0,13.73,11.13,24.86,24.86,24.86c4.53,0,8.772-1.217,12.431-3.335
	C240.667,396.767,235.665,388.74,235.665,379.54z"/>
<g>
	<path style="fill:#656566;" d="M287.625,281.108c-2.374-3.541-1.427-8.338,2.114-10.712c3.541-2.376,8.337-1.429,10.712,2.114
		c7.885,11.763,19.162,11.871,27.119,0c2.374-3.544,7.17-4.489,10.712-2.114c3.542,2.374,4.489,7.17,2.114,10.712
		C326.409,301.977,301.709,302.12,287.625,281.108z"/>
	<path style="fill:#656566;" d="M130.933,281.262c-2.374-3.541-1.427-8.337,2.114-10.712c3.541-2.376,8.338-1.429,10.712,2.114
		c7.887,11.763,19.161,11.871,27.119,0c2.374-3.544,7.171-4.489,10.712-2.114c3.541,2.375,4.488,7.17,2.114,10.712
		C169.717,302.131,145.018,302.274,130.933,281.262z"/>
</g>
<g>
	<path style="fill:#70BBEF;" d="M249.668,147.042h-46.07c-11.365,0-17.102-13.793-9.049-21.847l24.222-24.222h-15.173
		c-7.068,0-12.797-5.73-12.797-12.797s5.73-12.797,12.797-12.797h46.07c11.365,0,17.102,13.793,9.049,21.847l-24.222,24.222h15.173
		c7.068,0,12.797,5.729,12.797,12.797C262.466,141.313,256.735,147.042,249.668,147.042z"/>
	<path style="fill:#70BBEF;" d="M366.116,95.336h-69.227c-11.365,0-17.102-13.793-9.049-21.847l47.38-47.38h-38.331
		c-7.068,0-12.797-5.729-12.797-12.797s5.729-12.797,12.797-12.797h69.227c11.365,0,17.102,13.793,9.049,21.847l-47.38,47.38h38.331
		c7.068,0,12.797,5.729,12.797,12.797S373.184,95.336,366.116,95.336z"/>
	<path style="fill:#70BBEF;" d="M499.188,161.527h-97.967c-11.365,0-17.102-13.793-9.049-21.847l76.119-76.119h-67.07
		c-7.068,0-12.797-5.729-12.797-12.797s5.729-12.797,12.797-12.797h97.967c11.365,0,17.102,13.793,9.049,21.847l-76.119,76.119
		h67.07c7.068,0,12.797,5.729,12.797,12.797C511.986,155.797,506.256,161.527,499.188,161.527z"/>
</g>
<g>
	<path style="fill:#5DB4DB;" d="M296.889,26.11h17.628c-7.068,0-12.798-5.729-12.798-12.797s5.729-12.797,12.798-12.797h-17.628
		c-7.068,0-12.798,5.73-12.798,12.797C284.091,20.38,289.821,26.11,296.889,26.11z"/>
	<path style="fill:#5DB4DB;" d="M401.222,63.56h17.628c-7.069,0-12.798-5.729-12.798-12.797s5.729-12.797,12.798-12.797h-17.628
		c-7.069,0-12.798,5.729-12.798,12.797S394.153,63.56,401.222,63.56z"/>
	<path style="fill:#5DB4DB;" d="M409.801,139.679l66.67-66.67l0,0c6.913-6.913,2.66-8.939-1.893-9.45h-6.285l-76.119,76.119
		c-8.052,8.054-2.315,21.847,9.05,21.847h17.628C407.485,161.527,401.747,147.734,409.801,139.679z"/>
	<path style="fill:#5DB4DB;" d="M305.468,73.49l36.969-36.969c0,0,0-0.001,0.001-0.001c8.075-8.076,2.273-10.018-2.558-10.41h-4.661
		l-47.38,47.38c-8.052,8.053-2.315,21.847,9.049,21.847h17.628C303.153,95.336,297.415,81.543,305.468,73.49z"/>
	<path style="fill:#5DB4DB;" d="M212.177,125.196l15.273-15.273c7.174-7.175,1.227-8.686-2.968-8.95h-3.257
		c-7.068,0-12.798-5.73-12.798-12.797c0-7.068,5.729-12.798,12.798-12.798h-17.628c-7.068,0-12.798,5.73-12.798,12.798
		s5.729,12.797,12.798,12.797h15.173l-24.222,24.222c-8.052,8.053-2.315,21.847,9.05,21.847h17.628
		C209.862,147.042,204.125,133.249,212.177,125.196z"/>
</g>
<g>
</g>
<g>
</g>
<g>
</g>
<g>
</g>
<g>
</g>
<g>
</g>
<g>
</g>
<g>
</g>
<g>
</g>
<g>
</g>
<g>
</g>
<g>
</g>
<g>
</g>
<g>
</g>
<g>
</g>
</svg>
