<?xml version="1.0" encoding="iso-8859-1"?>
<!-- Generator: Adobe Illustrator 19.0.0, SVG Export Plug-In . SVG Version: 6.00 Build 0)  -->
<svg version="1.1" id="Capa_1" xmlns="http://www.w3.org/2000/svg" xmlns:xlink="http://www.w3.org/1999/xlink" x="0px" y="0px"
	 viewBox="0 0 511.96 511.96" style="enable-background:new 0 0 511.96 511.96;" xml:space="preserve">
<circle style="fill:#F4D44E;" cx="256.001" cy="255.96" r="255.96"/>
<path style="fill:#E8C842;" d="M172.715,451.825C11.267,358.613,1.463,130.356,150.783,22.627
	c-47.272,21.269-88.55,57.038-116.448,105.358c-70.681,122.422-28.735,278.964,93.687,349.644
	c90.093,52.015,198.66,43.029,277.89-14.133C333.416,496.113,246.818,494.608,172.715,451.825z"/>
<g>
	<path style="fill:#656566;" d="M390.568,198.089c-13.205-12.628-29.848-19.361-46.903-19.044c-4.275,0.046-7.81-3.307-7.897-7.581
		c-0.087-4.274,3.307-7.81,7.582-7.897c21.17-0.438,41.733,7.855,57.918,23.334c3.09,2.955,3.199,7.855,0.244,10.944
		C398.561,200.933,393.66,201.047,390.568,198.089z"/>
	<path style="fill:#656566;" d="M110.488,197.846c-2.955-3.089-2.846-7.99,0.244-10.944c16.185-15.478,36.769-23.785,57.918-23.334
		c4.274,0.087,7.669,3.622,7.582,7.897c-0.088,4.274-3.593,7.679-7.897,7.581c-17.034-0.332-33.698,6.416-46.903,19.044
		C118.351,201.038,113.449,200.942,110.488,197.846z"/>
</g>
<path style="fill:#EAE9E8;" d="M0.312,268.425c0.446,9.295,1.413,18.597,2.89,27.867c14.01,0,110.394,0,127.14,0v-27.867
	C105.24,268.425,25.243,268.425,0.312,268.425z"/>
<path style="fill:#DBDBDB;" d="M53.461,296.292c-2.418-9.188-4.302-18.495-5.695-27.867c-19.817,0-37.768,0-47.442,0
	c0.06,1.216,0.136,2.431,0.213,3.646c0.041,0.659,0.076,1.32,0.122,1.979c0.127,1.768,0.276,3.534,0.439,5.297
	c0.025,0.268,0.047,0.536,0.072,0.804c0.184,1.922,0.389,3.84,0.615,5.755c0.009,0.077,0.018,0.154,0.027,0.231
	c0.406,3.397,0.894,6.781,1.435,10.156C9.276,296.292,30.162,296.292,53.461,296.292z"/>
<path style="fill:#EAE9E8;" d="M22.385,360.566c4.463,9.935,9.248,18.96,14.633,27.867c19.429,0,72.178,0,93.324,0v-27.867
	C107.071,360.566,45.543,360.566,22.385,360.566z"/>
<path style="fill:#DBDBDB;" d="M80.166,360.566c-22.429,0-45.493,0-57.774,0c0.057,0.128,0.113,0.257,0.171,0.386
	c4.413,9.782,9.142,18.69,14.456,27.482c12.614,0,39.267,0,62.202,0C92.198,379.505,85.831,370.198,80.166,360.566z"/>
<g>
	<path style="fill:#EAE9E8;" d="M380.626,268.425v27.867c26.05,0,102.077,0,128.139,0c1.476-9.214,2.46-18.517,2.924-27.867
		C485.271,268.425,407.111,268.425,380.626,268.425z"/>
	<path style="fill:#EAE9E8;" d="M380.626,360.566v27.867c13.85,0,81.65,0,94.434,0c5.436-9.006,10.293-18.315,14.56-27.867
		C468.427,360.566,401.928,360.566,380.626,360.566z"/>
</g>
<path style="fill:#DBDBDB;" d="M373.626,415.097H138.375c-7.256,0-13.193-5.937-13.193-13.193V256.563
	c0-7.256,5.937-13.193,13.193-13.193h235.251c7.256,0,13.193,5.937,13.193,13.193v145.341
	C386.819,409.161,380.882,415.097,373.626,415.097z"/>
<path style="fill:#C9C6C5;" d="M176.789,401.904V256.563c0-7.256,5.937-13.193,13.193-13.193h-51.607
	c-7.256,0-13.193,5.937-13.193,13.193v145.341c0,7.256,5.937,13.193,13.193,13.193h51.607
	C182.725,415.097,176.789,409.161,176.789,401.904z"/>
<g>
</g>
<g>
</g>
<g>
</g>
<g>
</g>
<g>
</g>
<g>
</g>
<g>
</g>
<g>
</g>
<g>
</g>
<g>
</g>
<g>
</g>
<g>
</g>
<g>
</g>
<g>
</g>
<g>
</g>
</svg>
