<?xml version="1.0" encoding="iso-8859-1"?>
<!-- Generator: Adobe Illustrator 19.0.0, SVG Export Plug-In . SVG Version: 6.00 Build 0)  -->
<svg version="1.1" id="Capa_1" xmlns="http://www.w3.org/2000/svg" xmlns:xlink="http://www.w3.org/1999/xlink" x="0px" y="0px"
	 viewBox="0 0 511.96 511.96" style="enable-background:new 0 0 511.96 511.96;" xml:space="preserve">
<circle style="fill:#F4D44E;" cx="256" cy="255.961" r="255.96"/>
<path style="fill:#E8C842;" d="M172.714,451.824C11.266,358.612,1.463,130.355,150.783,22.624
	C103.51,43.894,62.232,79.663,34.334,127.982c-70.68,122.423-28.735,278.964,93.687,349.645
	c90.093,52.015,198.659,43.029,277.889-14.133C333.415,496.111,246.817,494.606,172.714,451.824z"/>
<g>
	<circle style="fill:#ED694A;" cx="405.001" cy="245.31" r="19.371"/>
	<circle style="fill:#ED694A;" cx="109.213" cy="245.31" r="19.371"/>
</g>
<g>
	<path style="fill:#D8553A;" d="M405.008,225.954c-14.77-0.021-24.284,16.052-16.785,29.042c5.349,9.265,17.197,12.439,26.462,7.091
		c3.059-1.766,5.438-4.249,7.082-7.106C406.866,254.959,397.563,238.892,405.008,225.954z"/>
	<path style="fill:#D8553A;" d="M109.224,225.954c-14.773-0.021-24.283,16.053-16.785,29.042
		c7.502,12.993,26.179,12.783,33.544-0.015C111.084,254.959,101.778,238.894,109.224,225.954z"/>
</g>
<g>
	<path style="fill:#656566;" d="M364.054,321.838c-3.899-1.762-8.483-0.032-10.244,3.863
		c-37.456,82.792-157.009,84.898-195.626-0.015c-1.771-3.892-6.36-5.614-10.252-3.841c-3.892,1.77-5.611,6.359-3.842,10.251
		c30.098,66.156,110.383,92.017,173.352,55.662c22.39-12.927,39.843-32.179,50.473-55.676
		C369.678,328.186,367.949,323.6,364.054,321.838z"/>
	<path style="fill:#656566;" d="M302.946,219.779c3.551,2.382,8.36,1.431,10.74-2.119c17.269-24.382,9.847-24.384,27.117,0
		c1.494,2.228,3.942,3.432,6.437,3.432c6.099-0.002,9.899-6.866,6.423-12.053l-10.768-16.062c-8.145-12.15-23.171-12.126-31.3,0
		l-10.768,16.062C298.446,212.59,299.394,217.399,302.946,219.779z"/>
	<path style="fill:#656566;" d="M160.457,219.626c3.552,2.381,8.361,1.431,10.74-2.12c11.241-15.872,12.357-22.017,16.349-16.063
		l10.768,16.063c2.384,3.557,7.196,4.496,10.74,2.12c3.552-2.381,4.501-7.189,2.12-10.741l-10.768-16.063
		c-8.145-12.15-23.171-12.126-31.3,0l-10.768,16.063C155.958,212.437,156.906,217.245,160.457,219.626z"/>
</g>
<g>
</g>
<g>
</g>
<g>
</g>
<g>
</g>
<g>
</g>
<g>
</g>
<g>
</g>
<g>
</g>
<g>
</g>
<g>
</g>
<g>
</g>
<g>
</g>
<g>
</g>
<g>
</g>
<g>
</g>
</svg>
