<?xml version="1.0" encoding="iso-8859-1"?>
<!-- Generator: Adobe Illustrator 19.0.0, SVG Export Plug-In . SVG Version: 6.00 Build 0)  -->
<svg version="1.1" id="Capa_1" xmlns="http://www.w3.org/2000/svg" xmlns:xlink="http://www.w3.org/1999/xlink" x="0px" y="0px"
	 viewBox="0 0 511.96 511.96" style="enable-background:new 0 0 511.96 511.96;" xml:space="preserve">
<circle style="fill:#F4D44E;" cx="256" cy="255.96" r="255.96"/>
<path style="fill:#FC8B75;" d="M388.705,373.638l-29.925-40.406c-18.115,35.969-52.983,58.577-90.404,62.601l32.009,43.217
	c18.063,24.389,52.477,29.518,76.866,11.454C401.64,432.441,406.768,398.026,388.705,373.638z"/>
<path style="fill:#EA7363;" d="M321.405,420.505L297.79,388.62c-9.435,3.681-19.33,6.127-29.414,7.212l32.009,43.217
	c18.063,24.389,52.476,29.518,76.866,11.454c5.225-3.87,9.559-8.494,12.976-13.605C366.784,448.707,337.559,442.317,321.405,420.505
	z"/>
<path style="fill:#E8C842;" d="M172.397,451.935C11.245,358.893,1.461,131.055,150.506,23.522
	c-47.185,21.23-88.388,56.934-116.234,105.165C-36.279,250.886,5.589,407.14,127.786,477.691
	c89.928,51.919,198.295,42.95,277.381-14.107C332.804,496.142,246.364,494.639,172.397,451.935z"/>
<g>
	<path style="fill:#656566;" d="M340.813,217.651c-17.025-24.389-10.114-24.389-27.139,0c-2.376,3.545-7.175,4.494-10.721,2.116
		c-3.545-2.376-4.492-7.175-2.116-10.72l10.768-16.063c8.14-12.141,23.152-12.119,31.277-0.001l10.768,16.064
		c2.376,3.545,1.429,8.344-2.116,10.72C347.989,222.143,343.19,221.197,340.813,217.651z"/>
	<path style="fill:#656566;" d="M198.325,217.497l-10.768-16.062c-1.977-2.949-3.627-2.95-5.605,0l-10.768,16.062
		c-2.376,3.547-7.176,4.492-10.721,2.116c-3.545-2.377-4.492-7.175-2.115-10.72l10.768-16.062c8.14-12.143,23.152-12.119,31.276,0
		l10.768,16.062c2.377,3.545,1.429,8.343-2.115,10.72C205.5,221.99,200.701,221.043,198.325,217.497z"/>
</g>
<path style="fill:#F99D91;" d="M333.923,405.949l-18.705-25.255c-2.54-3.43-1.819-8.268,1.61-10.808
	c3.43-2.538,8.269-1.818,10.808,1.611l18.705,25.255c2.54,3.43,1.819,8.268-1.61,10.808
	C341.272,410.118,336.441,409.349,333.923,405.949z"/>
<path style="fill:#656566;" d="M144.103,332.086c-1.765-3.885-0.047-8.466,3.838-10.231c3.885-1.762,8.466-0.047,10.231,3.839
	c38.021,83.686,157.574,84.172,195.65,0.011c1.758-3.888,6.337-5.614,10.225-3.854c3.888,1.758,5.614,6.336,3.855,10.225
	C324.788,427.373,188.031,428.767,144.103,332.086z"/>
<g>
</g>
<g>
</g>
<g>
</g>
<g>
</g>
<g>
</g>
<g>
</g>
<g>
</g>
<g>
</g>
<g>
</g>
<g>
</g>
<g>
</g>
<g>
</g>
<g>
</g>
<g>
</g>
<g>
</g>
</svg>
