<?xml version="1.0" encoding="iso-8859-1"?>
<!-- Generator: Adobe Illustrator 19.0.0, SVG Export Plug-In . SVG Version: 6.00 Build 0)  -->
<svg version="1.1" id="Capa_1" xmlns="http://www.w3.org/2000/svg" xmlns:xlink="http://www.w3.org/1999/xlink" x="0px" y="0px"
	 viewBox="0 0 511.96 511.96" style="enable-background:new 0 0 511.96 511.96;" xml:space="preserve">
<circle style="fill:#F4D44E;" cx="256.001" cy="255.96" r="255.96"/>
<path style="fill:#E8C842;" d="M172.633,451.872C11.147,358.639,1.399,130.348,150.738,22.645
	C103.486,43.917,62.224,79.679,34.335,127.984c-70.681,122.422-28.735,278.964,93.687,349.644
	c90.078,52.007,198.625,43.033,277.852-14.105C333.37,496.16,246.75,494.663,172.633,451.872z"/>
<g>
	<path style="fill:#656566;" d="M341.634,254.398l-29.947-19.724c-12.186-8.169-12.198-23.17-0.052-31.311l16.061-10.768
		c3.545-2.377,8.344-1.43,10.721,2.115c2.377,3.546,1.429,8.344-2.115,10.721l-16.062,10.768c-2.95,1.978-2.951,3.625-0.001,5.604
		l29.894,19.688c3.564,2.348,4.55,7.139,2.203,10.703C349.993,255.754,345.203,256.749,341.634,254.398z"/>
	<path style="fill:#656566;" d="M148.941,252.359c-2.438-3.503-1.575-8.318,1.928-10.756c29.505-20.662,30.916-20.892,30.916-22.756
		c-0.001-2.237-4.846-4.169-18.312-13.571c-3.545-2.377-4.492-7.175-2.115-10.721c2.377-3.543,7.177-4.492,10.721-2.115
		l16.062,10.768c12.135,8.134,12.105,23.109,0.061,31.235l-28.504,19.842C156.218,256.709,151.396,255.885,148.941,252.359z"/>
	<path style="fill:#656566;" d="M94.606,337.989c41.968,97.228,158.877,135.335,249.765,82.861
		c34.175-19.731,59.219-49.193,73.681-82.861H94.606z"/>
</g>
<path style="fill:#EAE9E8;" d="M414.115,301.006H98.509c-8.027,0-13.801,7.684-11.607,15.405c2.37,8.34,5.391,16.583,9.066,24.668
	h320.723c3.616-7.994,6.639-16.234,9.027-24.654C427.909,308.698,422.148,301.006,414.115,301.006z"/>
<path style="fill:#4F4F51;" d="M120.362,337.989H94.606c30.09,69.711,100.45,111.475,174.778,106.005
	C213.166,439.877,146.669,398.935,120.362,337.989z"/>
<path style="fill:#DBDBDB;" d="M124.265,301.006H98.509c-8.027,0-13.801,7.684-11.607,15.405c2.37,8.34,5.391,16.583,9.066,24.668
	h25.756c-3.675-8.085-6.696-16.329-9.066-24.668C110.464,308.69,116.239,301.006,124.265,301.006z"/>
<path style="fill:#ED694A;" d="M246.817,389.611c-31.06-12.595-67.662-3.403-88.938,24.77
	c58.655,39.484,136.273,40.741,196.855-0.008c-13.184-17.453-33.704-29.127-56.913-30.204
	C269.039,382.833,263.607,396.419,246.817,389.611z"/>
<path style="fill:#D8553A;" d="M168.496,402.954c-3.909,3.436-7.469,7.259-10.609,11.415
	c31.876,21.454,70.982,32.529,111.342,29.611C232.527,441.26,197.095,427.087,168.496,402.954z"/>
<g>
</g>
<g>
</g>
<g>
</g>
<g>
</g>
<g>
</g>
<g>
</g>
<g>
</g>
<g>
</g>
<g>
</g>
<g>
</g>
<g>
</g>
<g>
</g>
<g>
</g>
<g>
</g>
<g>
</g>
</svg>
