<?xml version="1.0" encoding="iso-8859-1"?>
<!-- Generator: Adobe Illustrator 19.0.0, SVG Export Plug-In . SVG Version: 6.00 Build 0)  -->
<svg version="1.1" id="Capa_1" xmlns="http://www.w3.org/2000/svg" xmlns:xlink="http://www.w3.org/1999/xlink" x="0px" y="0px"
	 viewBox="0 0 511.96 511.96" style="enable-background:new 0 0 511.96 511.96;" xml:space="preserve">
<circle style="fill:#656566;" cx="256" cy="255.96" r="255.96"/>
<circle style="fill:#F4D44E;" cx="256" cy="255.96" r="255.96"/>
<path style="fill:#E8C842;" d="M172.398,451.935C11.245,358.893,1.46,131.055,150.506,23.523
	C103.321,44.752,62.118,80.456,34.272,128.687C-36.279,250.886,5.589,407.14,127.787,477.691
	c89.928,51.919,198.295,42.951,277.38-14.107C332.804,496.141,246.365,494.639,172.398,451.935z"/>
<g>
	<path style="fill:#656566;" d="M313.976,197.359c-3.71-2.109-5.008-6.826-2.898-10.536c2.109-3.71,6.826-5.009,10.536-2.898
		c14.82,8.427,32.691,10.419,50.32,5.608c4.117-1.123,8.365,1.304,9.489,5.42c1.123,4.117-1.303,8.364-5.42,9.489
		C353.957,210.458,331.988,207.602,313.976,197.359z"/>
	<path style="fill:#656566;" d="M135.996,204.443c-4.117-1.124-6.543-5.372-5.42-9.489c1.124-4.117,5.372-6.545,9.489-5.42
		c17.628,4.81,35.5,2.82,50.32-5.608c3.709-2.111,8.426-0.813,10.536,2.898c2.11,3.709,0.813,8.427-2.898,10.536
		C180.002,207.606,158.03,210.456,135.996,204.443z"/>
	<path style="fill:#656566;" d="M341.633,297.609l-29.946-19.723c-12.183-8.168-12.202-23.166-0.053-31.312l16.062-10.767
		c3.545-2.377,8.344-1.431,10.721,2.116c2.376,3.545,1.429,8.344-2.116,10.72c-16.007,11.175-21.989,12.396-16.062,16.372
		l29.893,19.687c3.564,2.348,4.551,7.139,2.203,10.703C349.991,298.966,345.201,299.96,341.633,297.609z"/>
	<path style="fill:#656566;" d="M148.941,295.571c-2.438-3.503-1.575-8.318,1.928-10.756c29.491-20.659,30.914-20.887,30.916-22.755
		c0-2.237-4.845-4.169-18.312-13.57c-3.545-2.376-4.492-7.175-2.116-10.72c2.377-3.545,7.176-4.491,10.721-2.116l16.062,10.767
		c12.132,8.134,12.108,23.109,0.061,31.235l-28.505,19.842C156.217,299.921,151.396,299.096,148.941,295.571z"/>
	<path style="fill:#656566;" d="M312.31,377.504c-17.954,0-20.196-18.544-28.16-18.544c-8.006,0-10.188,18.544-28.156,18.544
		c-17.948,0-20.199-18.544-28.155-18.544c-8.006,0-10.187,18.544-28.155,18.544c-17.948,0-20.199-18.544-28.155-18.544
		c-4.267,0-7.727-3.459-7.727-7.727c0-4.268,3.46-7.727,7.727-7.727c17.948,0,20.199,18.544,28.155,18.544
		c8.006,0,10.187-18.544,28.155-18.544c17.948,0,20.199,18.544,28.155,18.544c8.007,0,10.188-18.544,28.156-18.544
		c17.954,0,20.196,18.544,28.16,18.544c8.007,0,10.19-18.544,28.16-18.544c4.267,0,7.727,3.459,7.727,7.727
		c0,4.268-3.46,7.727-7.727,7.727c-2.943,0-4.429,1.612-7.926,6.218C328.595,370.379,323.185,377.504,312.31,377.504z"/>
</g>
<g>
</g>
<g>
</g>
<g>
</g>
<g>
</g>
<g>
</g>
<g>
</g>
<g>
</g>
<g>
</g>
<g>
</g>
<g>
</g>
<g>
</g>
<g>
</g>
<g>
</g>
<g>
</g>
<g>
</g>
</svg>
