<?xml version="1.0" encoding="iso-8859-1"?>
<!-- Generator: Adobe Illustrator 19.0.0, SVG Export Plug-In . SVG Version: 6.00 Build 0)  -->
<svg version="1.1" id="Capa_1" xmlns="http://www.w3.org/2000/svg" xmlns:xlink="http://www.w3.org/1999/xlink" x="0px" y="0px"
	 viewBox="0 0 512.001 512.001" style="enable-background:new 0 0 512.001 512.001;" xml:space="preserve">
<path style="fill:#F4D44E;" d="M454.688,94.746c-0.008,0.009-0.017,0.017-0.026,0.026c-31.702-39.028-73.391-66.778-119.133-81.656
	c0.014-0.016,0.027-0.034,0.041-0.05C122.637-56.528-71.55,165.012,25.938,367.128C82.153,484.209,215.991,538.503,335.57,499.421
	c-0.014-0.016-0.027-0.033-0.041-0.05c45.743-14.877,87.431-42.628,119.133-81.656c0.009,0.009,0.017,0.017,0.026,0.026
	C531.581,323.273,530.5,187.886,454.688,94.746z"/>
<path style="fill:#E8C842;" d="M75.342,353.319C12.915,239.251,47.174,98.042,150.119,23.911c-6.395,2.88-12.57,5.956-18.545,9.198
	C21.784,95.916-37.146,236.34,25.938,367.128c43.75,91.119,134.515,144.199,228.983,144.841
	c52.221-0.056,104.633-16.095,149.172-48.163C284.111,517.845,139.802,471.546,75.342,353.319z"/>
<g>
	<path style="fill:#656566;" d="M313.457,248.107c-2.374-3.541-1.428-8.336,2.114-10.71c3.541-2.375,8.337-1.43,10.71,2.114
		c7.884,11.76,19.157,11.868,27.114,0c2.373-3.543,7.169-4.487,10.71-2.114c3.541,2.374,4.487,7.169,2.114,10.71
		C352.234,268.971,327.539,269.115,313.457,248.107z"/>
	<path style="fill:#656566;" d="M172.888,263.97c-10.073,0-19.688-5.725-26.381-15.709c-2.374-3.541-1.428-8.336,2.114-10.71
		c3.541-2.375,8.337-1.43,10.71,2.114c3.833,5.717,8.647,8.866,13.557,8.866c4.91,0,9.724-3.149,13.557-8.866
		c2.373-3.543,7.169-4.487,10.71-2.114c3.541,2.374,4.487,7.169,2.114,10.71C192.576,258.245,182.961,263.97,172.888,263.97z"/>
	<path style="fill:#656566;" d="M315.099,217.985c-3.352-2.635-3.933-7.487-1.298-10.839c13.066-16.623,32.491-27.268,54.697-29.973
		c4.228-0.52,8.08,2.496,8.596,6.729c0.516,4.232-2.497,8.081-6.729,8.597c-18.123,2.207-33.9,10.797-44.426,24.187
		C323.305,220.037,318.45,220.618,315.099,217.985z"/>
	<path style="fill:#656566;" d="M192.861,219.635c-2.287,0-4.551-1.011-6.074-2.949c-10.526-13.391-26.302-21.98-44.426-24.187
		c-4.232-0.516-7.245-4.365-6.729-8.597c0.515-4.23,4.355-7.233,8.596-6.729c22.204,2.705,41.629,13.349,54.697,29.973
		c2.635,3.351,2.054,8.204-1.298,10.839C196.212,219.096,194.531,219.635,192.861,219.635z"/>
	<path style="fill:#656566;" d="M328.999,365.165c-42.368-38.895-105.464-36.63-145.254-0.051c-3.138,2.886-8.021,2.68-10.907-0.459
		c-2.885-3.139-2.68-8.022,0.459-10.907c46.451-42.702,118.643-43.56,166.142,0.043c3.141,2.884,3.35,7.767,0.467,10.907
		C337.019,367.843,332.135,368.044,328.999,365.165z"/>
</g>
<path style="fill:#EAE9E8;" d="M430.988,406.448c-3.557-16.553-24.24-22.394-35.938-10.312c-2.092,2.161-5.644,1.848-7.37-0.615
	l-62.211-88.747c-2.02-2.882-6.512-0.651-5.436,2.7l29.724,104.781c0.934,2.909-0.997,5.961-4.028,6.34
	c-16.65,2.088-24.448,22.014-13.412,34.854c-6.862,10.746-7.964,24.788-1.559,36.961c11.445,21.751,41.35,26.569,58.915,8.472
	c17.514,7.555,37.569-2.57,41.866-21.173c24.968-2.366,40.033-28.468,30.334-51.058
	C456.242,415.534,444.068,407.505,430.988,406.448z"/>
<path style="fill:#DBDBDB;" d="M366.561,489.249c-8.675-11.041-10.16-25.342-5.251-37.395c-13.448-10.855-9.294-32.298,7.037-37.464
	c2.973-0.941,4.348-4.36,2.875-7.108l-49.163-99.714c-0.335-0.624-0.438-1.243-0.378-1.818c-1.289,0.593-2.2,2.009-1.649,3.724
	l29.724,104.781c0.934,2.909-0.997,5.961-4.028,6.34c-16.65,2.088-24.448,22.014-13.412,34.854
	c-6.863,10.746-7.964,24.788-1.558,36.961c11.064,21.027,39.378,26.225,57.12,10.198
	C379.77,500.822,372.159,496.373,366.561,489.249z"/>
<path style="fill:#EAE9E8;" d="M50.852,428.649c-9.699,22.59,5.365,48.692,30.334,51.058c4.296,18.603,24.351,28.729,41.866,21.173
	c17.565,18.098,47.47,13.28,58.915-8.472c6.405-12.174,5.304-26.216-1.559-36.961c11.037-12.84,3.239-32.766-13.412-34.854
	c-3.031-0.38-4.961-3.431-4.028-6.34l29.724-104.781c1.075-3.351-3.416-5.581-5.436-2.7l-62.211,88.747
	c-1.726,2.463-5.278,2.776-7.37,0.615c-11.698-12.081-32.38-6.24-35.938,10.312C68.658,407.505,56.483,415.534,50.852,428.649z"/>
<path style="fill:#DBDBDB;" d="M73.86,450.85c3.657-14.071,14.684-24.024,27.693-27.095c1.042-17.214,20.972-26.269,34.605-15.899
	c2.438,1.854,5.967,0.995,7.327-1.75l49.025-98.91c0.008-0.015,0.018-0.026,0.025-0.041c-0.948-1.844-3.786-2.51-5.278-0.381
	l-62.211,88.747c-1.726,2.463-5.278,2.776-7.37,0.615c-11.698-12.081-32.38-6.24-35.938,10.312
	c-13.08,1.057-25.255,9.086-30.886,22.201c-9.266,21.582,4.079,46.355,27.061,50.586C73.052,471.039,71.229,460.971,73.86,450.85z"
	/>
<g>
</g>
<g>
</g>
<g>
</g>
<g>
</g>
<g>
</g>
<g>
</g>
<g>
</g>
<g>
</g>
<g>
</g>
<g>
</g>
<g>
</g>
<g>
</g>
<g>
</g>
<g>
</g>
<g>
</g>
</svg>
