<?xml version="1.0" encoding="iso-8859-1"?>
<!-- Generator: Adobe Illustrator 19.0.0, SVG Export Plug-In . SVG Version: 6.00 Build 0)  -->
<svg version="1.1" id="Capa_1" xmlns="http://www.w3.org/2000/svg" xmlns:xlink="http://www.w3.org/1999/xlink" x="0px" y="0px"
	 viewBox="0 0 511.96 511.96" style="enable-background:new 0 0 511.96 511.96;" xml:space="preserve">
<circle style="fill:#ED694A;" cx="256" cy="255.96" r="255.96"/>
<path style="fill:#D8553A;" d="M172.398,451.935C11.246,358.894,1.46,131.055,150.506,23.523
	C103.321,44.752,62.117,80.456,34.272,128.687C-36.279,250.886,5.589,407.14,127.787,477.691
	c89.928,51.919,198.295,42.951,277.38-14.107C332.804,496.141,246.365,494.639,172.398,451.935z"/>
<path style="fill:#656566;" d="M292.023,345.052c-3.217-6.08-17.571-12.368-36.023-12.368s-32.806,6.288-36.024,12.368
	c-1.996,3.772-6.671,5.21-10.443,3.215c-3.771-1.996-5.211-6.671-3.215-10.443c14.487-27.376,84.841-27.445,99.364,0
	c1.996,3.771,0.557,8.448-3.215,10.443C298.686,350.268,294.016,348.817,292.023,345.052z"/>
<g>
	<path style="fill:#4F4F51;" d="M364.987,208.076c-16.3-3.573-33.279-0.611-47.201,8.097c-2.483,1.703-4.601,3.894-6.222,6.436
		c-1.897,7.025,6.1,12.499,11.96,8.297c10.924-7.834,24.831-10.653,38.155-7.734c4.169,0.911,8.288-1.724,9.202-5.894
		C371.794,213.109,369.156,208.99,364.987,208.076z"/>
	<path style="fill:#4F4F51;" d="M194.206,216.168c-13.921-8.704-30.896-11.663-47.193-8.092c-4.169,0.914-6.807,5.034-5.894,9.202
		c0.914,4.168,5.032,6.807,9.202,5.894c13.322-2.924,27.23-0.1,38.155,7.734c5.846,4.192,13.84-1.249,11.967-8.274
		C198.819,220.079,196.699,217.877,194.206,216.168z"/>
</g>
<circle style="fill:#656566;" cx="330.395" cy="234.588" r="22.329"/>
<path style="fill:#4F4F51;" d="M330.394,234.587c-4.131-7.156-3.846-15.646,0.002-22.326c-3.795-0.004-7.642,0.955-11.166,2.989
	c-10.68,6.166-14.338,19.822-8.173,30.501c6.166,10.68,19.822,14.338,30.501,8.173c3.523-2.034,6.277-4.887,8.171-8.175
	C342.021,245.74,334.526,241.743,330.394,234.587z"/>
<circle style="fill:#656566;" cx="181.605" cy="234.588" r="22.329"/>
<path style="fill:#4F4F51;" d="M181.606,234.587c-4.131-7.156-3.846-15.646,0.002-22.326c-3.795-0.004-7.642,0.955-11.166,2.989
	c-10.679,6.166-14.338,19.822-8.173,30.501c6.166,10.68,19.822,14.338,30.501,8.173c3.524-2.034,6.277-4.887,8.171-8.175
	C193.232,245.74,185.737,241.743,181.606,234.587z"/>
<g>
</g>
<g>
</g>
<g>
</g>
<g>
</g>
<g>
</g>
<g>
</g>
<g>
</g>
<g>
</g>
<g>
</g>
<g>
</g>
<g>
</g>
<g>
</g>
<g>
</g>
<g>
</g>
<g>
</g>
</svg>
