<?xml version="1.0" encoding="iso-8859-1"?>
<!-- Generator: Adobe Illustrator 19.0.0, SVG Export Plug-In . SVG Version: 6.00 Build 0)  -->
<svg version="1.1" id="Capa_1" xmlns="http://www.w3.org/2000/svg" xmlns:xlink="http://www.w3.org/1999/xlink" x="0px" y="0px"
	 viewBox="0 0 511.96 511.96" style="enable-background:new 0 0 511.96 511.96;" xml:space="preserve">
<circle style="fill:#F4D44E;" cx="256" cy="255.96" r="255.96"/>
<path style="fill:#E8C842;" d="M172.398,451.935C11.245,358.893,1.46,131.055,150.506,23.523
	C103.321,44.752,62.118,80.456,34.272,128.687C-36.279,250.886,5.589,407.14,127.787,477.691
	c89.928,51.919,198.295,42.951,277.38-14.107C332.804,496.141,246.365,494.639,172.398,451.935z"/>
<path style="fill:#656566;" d="M292.023,337.849c-3.217-6.08-17.571-12.368-36.023-12.368s-32.806,6.288-36.024,12.368
	c-1.997,3.771-6.671,5.21-10.443,3.215c-3.771-1.996-5.211-6.671-3.215-10.443c14.487-27.376,84.841-27.445,99.364,0
	c1.996,3.771,0.557,8.448-3.215,10.443C298.686,343.065,294.016,341.614,292.023,337.849z"/>
<g>
	<path style="fill:#4F4F51;" d="M160.885,189.669c-3.696-2.133-8.421-0.866-10.555,2.832c-2.133,3.695-0.866,8.421,2.831,10.554
		l35.462,20.463c6.048,3.491,13.298-2.258,11.24-8.96C194.934,207.555,190.47,207.458,160.885,189.669z"/>
	<path style="fill:#4F4F51;" d="M361.669,192.501c-2.133-3.697-6.859-4.965-10.555-2.832
		c-29.574,17.803-34.041,17.872-38.976,24.884c-2.066,6.71,5.199,12.451,11.238,8.965l35.462-20.463
		C362.535,200.921,363.802,196.196,361.669,192.501z"/>
</g>
<circle style="fill:#656566;" cx="330.395" cy="227.384" r="22.329"/>
<path style="fill:#4F4F51;" d="M330.394,227.383c-4.131-7.156-3.846-15.646,0.002-22.326c-3.795-0.004-7.642,0.955-11.166,2.989
	c-10.68,6.166-14.338,19.822-8.173,30.501c6.166,10.68,19.822,14.338,30.501,8.173c3.523-2.034,6.277-4.887,8.171-8.175
	C342.021,238.537,334.526,234.539,330.394,227.383z"/>
<circle style="fill:#656566;" cx="181.605" cy="227.384" r="22.329"/>
<path style="fill:#4F4F51;" d="M181.606,227.383c-4.131-7.156-3.846-15.646,0.002-22.326c-3.795-0.004-7.642,0.955-11.166,2.989
	c-10.679,6.166-14.338,19.822-8.173,30.501c6.166,10.68,19.822,14.338,30.501,8.173c3.524-2.034,6.277-4.887,8.171-8.175
	C193.232,238.537,185.737,234.539,181.606,227.383z"/>
<g>
</g>
<g>
</g>
<g>
</g>
<g>
</g>
<g>
</g>
<g>
</g>
<g>
</g>
<g>
</g>
<g>
</g>
<g>
</g>
<g>
</g>
<g>
</g>
<g>
</g>
<g>
</g>
<g>
</g>
</svg>
