<?xml version="1.0" encoding="iso-8859-1"?>
<!-- Generator: Adobe Illustrator 19.0.0, SVG Export Plug-In . SVG Version: 6.00 Build 0)  -->
<svg version="1.1" id="Capa_1" xmlns="http://www.w3.org/2000/svg" xmlns:xlink="http://www.w3.org/1999/xlink" x="0px" y="0px"
	 viewBox="0 0 512.002 512.002" style="enable-background:new 0 0 512.002 512.002;" xml:space="preserve">
<path style="fill:#F4D44E;" d="M42.806,114.171c0.008,0.012,0.014,0.026,0.022,0.038C-0.471,179.494-10.95,258.731,11.443,331.324
	c-0.03-0.011-0.06-0.02-0.09-0.031c11.216,36.397,30.887,70.569,56.955,98.649c0.006-0.031,0.013-0.062,0.019-0.093
	c51.61,55.625,125.444,86.238,203.719,81.377c0.007,0.013,0.015,0.025,0.022,0.038c188.452-12.077,298.487-216.406,207.394-380.104
	C386.583-34.961,149.267-45.705,42.806,114.171z"/>
<path style="fill:#E8C842;" d="M316.751,485.464c-0.007-0.013-0.015-0.025-0.022-0.038c-78.274,4.861-152.107-25.752-203.719-81.377
	c-0.006,0.031-0.013,0.062-0.019,0.093c-26.067-28.079-45.737-62.251-56.955-98.649c0.03,0.011,0.06,0.02,0.09,0.031
	c-22.394-72.593-11.914-151.83,31.384-217.114c-0.008-0.012-0.014-0.026-0.022-0.038c17.801-26.734,39.267-48.689,63.098-65.953
	c-41.745,18.66-79.411,49.146-107.781,91.751c0.008,0.012,0.014,0.026,0.022,0.038C-0.471,179.494-10.95,258.731,11.443,331.324
	c-0.03-0.011-0.06-0.02-0.09-0.031c11.217,36.397,30.887,70.569,56.955,98.649c0.006-0.031,0.013-0.062,0.019-0.093
	c51.61,55.625,125.444,86.238,203.719,81.377c0.007,0.013,0.015,0.025,0.022,0.038c51.044-3.271,96.331-20.653,133.43-47.505
	C378.585,475.789,348.804,483.41,316.751,485.464z"/>
<path style="fill:#656566;" d="M243.356,342.3c8.098,3.284,17.111,3.283,25.209-0.001c8.523-3.456,17.627-5.772,27.124-6.771v-2.481
	c0-21.944-17.789-39.733-39.733-39.733s-39.733,17.789-39.733,39.733v2.481C225.724,336.526,234.83,338.843,243.356,342.3z"/>
<path style="fill:#4F4F51;" d="M242.022,333.087v-0.039c0-17.427,11.224-32.222,26.833-37.58c-4.046-1.389-8.382-2.154-12.899-2.154
	c-21.944,0-39.733,17.789-39.733,39.733v2.481c9.009,0.947,17.658,3.093,25.799,6.258L242.022,333.087L242.022,333.087z"/>
<path style="fill:#E8C842;" d="M397.111,511.805h40.858c20.834,0,37.155-17.028,36.329-37.845
	c-1.201-30.308-0.523-72.388,33.578-129.89c15.292-25.786-16.112-53.841-39.992-35.717c-47.315,35.913-88.681,91.147-98.007,172.773
	C368.012,497.456,380.675,511.805,397.111,511.805z"/>
<path style="fill:#DBBC3B;" d="M424.313,511.346c-7.681-81.797,21.426-144.365,60.333-189.25c5.92-6.829,13.373-9.688,20.632-9.576
	c-8.628-10.069-24.164-14.206-37.394-4.165c-47.315,35.913-88.682,91.147-98.007,172.773c-1.865,16.329,10.797,30.679,27.232,30.679
	h27.259C424.352,511.652,424.328,511.501,424.313,511.346z"/>
<path style="fill:#E8C842;" d="M114.802,511.805H73.944c-20.834,0-37.155-17.028-36.329-37.845
	c1.201-30.308,0.523-72.388-33.578-129.89c-15.292-25.786,16.112-53.841,39.992-35.717c47.316,35.913,88.681,91.147,98.007,172.773
	C143.9,497.456,131.238,511.805,114.802,511.805z"/>
<path style="fill:#DBBC3B;" d="M83.955,475.149c-3.053-32.849-9.822-78.122-54.837-135.225c-9.925-12.59-7.754-27.387,0.381-37.265
	c-19.884-1.49-37.751,20.691-25.462,41.412c34.101,57.501,34.779,99.582,33.578,129.89c-0.825,20.817,15.496,37.845,36.329,37.845
	h40.858c2.224,0,4.375-0.27,6.434-0.765C101.894,510.104,85.821,495.224,83.955,475.149z"/>
<path style="fill:#EAE9E8;" d="M383.45,249.18c-18.19,14.446-44.647,11.412-59.094-6.778l-13.625-17.155
	c-14.446-18.19-11.412-44.647,6.778-59.094c18.19-14.446,44.647-11.412,59.094,6.778l13.625,17.155
	C404.675,208.276,401.639,234.734,383.45,249.18z"/>
<path style="fill:#DBDBDB;" d="M357.291,216.244l-13.624-17.155c-10.003-12.594-12.421-28.513-7.613-41.367
	c-6.57,1.203-12.949,3.987-18.545,8.431c-18.19,14.446-21.224,40.904-6.778,59.094l13.625,17.155
	c14.446,18.19,40.904,21.225,59.094,6.778c5.596-4.444,9.751-10.027,12.411-16.154C382.251,234.798,367.294,228.838,357.291,216.244
	z"/>
<path style="fill:#EAE9E8;" d="M128.463,249.18c18.19,14.446,44.647,11.412,59.094-6.778l13.625-17.155
	c14.446-18.19,11.412-44.647-6.778-59.094c-18.19-14.446-44.647-11.412-59.094,6.778l-13.625,17.155
	C107.238,208.276,110.273,234.734,128.463,249.18z"/>
<path style="fill:#DBDBDB;" d="M194.403,166.152c-5.763-4.576-12.357-7.394-19.134-8.535c5.118,13.211,3.015,29.179-6.855,41.606
	l-13.624,17.155c-9.87,12.427-24.946,18.092-38.973,16.097c2.646,6.344,6.883,12.127,12.646,16.705
	c18.19,14.446,44.647,11.412,59.094-6.778l13.624-17.155C215.629,207.056,212.594,180.598,194.403,166.152z"/>
<path style="fill:#ED694A;" d="M295.689,397.986v-64.899c-9.994,0.603-19.547,2.831-28.405,6.423
	c-7.276,2.951-15.374,2.951-22.65,0.001c-8.86-3.592-18.415-5.822-28.412-6.424v64.899c0,21.944,17.789,39.733,39.733,39.733
	S295.689,419.931,295.689,397.986z"/>
<path style="fill:#D8553A;" d="M242.022,397.986v-59.475c-8.117-3.001-16.776-4.881-25.799-5.424v64.899
	c0,21.944,17.789,39.733,39.733,39.733c4.517,0,8.854-0.765,12.899-2.154C253.246,430.209,242.022,415.413,242.022,397.986z"/>
<g>
</g>
<g>
</g>
<g>
</g>
<g>
</g>
<g>
</g>
<g>
</g>
<g>
</g>
<g>
</g>
<g>
</g>
<g>
</g>
<g>
</g>
<g>
</g>
<g>
</g>
<g>
</g>
<g>
</g>
</svg>
