<?xml version="1.0" encoding="iso-8859-1"?>
<!-- Generator: Adobe Illustrator 19.0.0, SVG Export Plug-In . SVG Version: 6.00 Build 0)  -->
<svg version="1.1" id="Capa_1" xmlns="http://www.w3.org/2000/svg" xmlns:xlink="http://www.w3.org/1999/xlink" x="0px" y="0px"
	 viewBox="0 0 511.961 511.961" style="enable-background:new 0 0 511.961 511.961;" xml:space="preserve">
<circle style="fill:#F4D44E;" cx="256.001" cy="255.96" r="255.96"/>
<path style="fill:#656566;" d="M302.294,384.575c10.777,0,15.259-13.701,6.629-20.157c-31.883-23.853-74.993-23.18-105.957,0.114
	c-8.534,6.421-3.897,20.042,6.783,20.042h92.545V384.575z"/>
<path style="fill:#4F4F51;" d="M227.776,364.533c10.532-10.217,22.876-16.08,35.501-17.433
	c-21.166-1.735-42.702,4.185-60.311,17.433c-8.535,6.421-3.897,20.042,6.783,20.042h23.286
	C224.754,384.575,221.157,370.954,227.776,364.533z"/>
<path style="fill:#E8C842;" d="M172.715,451.825C11.268,358.614,1.464,130.357,150.783,22.626
	C103.511,43.895,62.232,79.664,34.335,127.984c-70.681,122.422-28.736,278.964,93.687,349.644
	c90.093,52.016,198.659,43.029,277.889-14.133C333.416,496.113,246.818,494.607,172.715,451.825z"/>
<g>
	<path style="fill:#656566;" d="M373.463,192.928c-13.205-12.628-29.857-19.39-46.903-19.044c-4.282,0.067-7.81-3.307-7.897-7.581
		c-0.087-4.274,3.307-7.81,7.582-7.897c21.156-0.451,41.734,7.855,57.918,23.334c3.09,2.955,3.199,7.855,0.244,10.944
		C381.447,195.78,376.548,195.88,373.463,192.928z"/>
	<path style="fill:#656566;" d="M127.594,192.685c-2.955-3.089-2.846-7.99,0.244-10.944c16.185-15.478,36.755-23.794,57.918-23.334
		c4.274,0.087,7.669,3.622,7.582,7.897c-0.087,4.273-3.62,7.659-7.897,7.581c-17.04-0.312-33.698,6.417-46.903,19.044
		C135.452,195.881,130.551,195.778,127.594,192.685z"/>
	<ellipse style="fill:#656566;" cx="179.972" cy="258.686" rx="23.392" ry="29.824"/>
</g>
<path style="fill:#4F4F51;" d="M197.867,276.171c-12.918,0-23.392-13.352-23.392-29.824c0-6.52,1.646-12.547,4.43-17.455
	c-12.421,0.714-22.32,13.776-22.32,29.789c0,16.471,10.472,29.824,23.392,29.824c7.804,0,14.712-4.879,18.961-12.369
	C198.583,276.157,198.226,276.171,197.867,276.171z"/>
<ellipse style="fill:#656566;" cx="332.029" cy="258.686" rx="23.392" ry="29.824"/>
<path style="fill:#4F4F51;" d="M349.915,276.171c-12.918,0-23.392-13.352-23.392-29.824c0-6.52,1.646-12.547,4.43-17.455
	c-12.421,0.714-22.32,13.776-22.32,29.789c0,16.471,10.472,29.824,23.392,29.824c7.804,0,14.712-4.879,18.961-12.369
	C350.632,276.157,350.275,276.171,349.915,276.171z"/>
<g>
</g>
<g>
</g>
<g>
</g>
<g>
</g>
<g>
</g>
<g>
</g>
<g>
</g>
<g>
</g>
<g>
</g>
<g>
</g>
<g>
</g>
<g>
</g>
<g>
</g>
<g>
</g>
<g>
</g>
</svg>
