<?xml version="1.0" encoding="iso-8859-1"?>
<!-- Generator: Adobe Illustrator 19.0.0, SVG Export Plug-In . SVG Version: 6.00 Build 0)  -->
<svg version="1.1" id="Capa_1" xmlns="http://www.w3.org/2000/svg" xmlns:xlink="http://www.w3.org/1999/xlink" x="0px" y="0px"
	 viewBox="0 0 511.96 511.96" style="enable-background:new 0 0 511.96 511.96;" xml:space="preserve">
<circle style="fill:#F4D44E;" cx="256" cy="255.96" r="255.96"/>
<path style="fill:#E8C842;" d="M172.398,451.935C11.245,358.893,1.46,131.055,150.506,23.523
	C103.321,44.752,62.118,80.456,34.272,128.687C-36.279,250.886,5.589,407.14,127.787,477.691
	c89.928,51.919,198.295,42.951,277.38-14.107C332.804,496.142,246.365,494.639,172.398,451.935z"/>
<g>
	<path style="fill:#656566;" d="M368.243,215.039c-22.226-2.707-41.67-13.362-54.75-30.002c-2.637-3.356-2.055-8.213,1.3-10.85
		c3.355-2.637,8.213-2.055,10.85,1.3c10.536,13.403,26.328,22.001,44.469,24.21c4.236,0.516,7.252,4.369,6.736,8.605
		C376.336,212.502,372.523,215.555,368.243,215.039z"/>
	<path style="fill:#656566;" d="M135.152,208.304c-0.516-4.236,2.5-8.089,6.736-8.605c18.14-2.209,33.932-10.807,44.468-24.21
		c2.637-3.357,7.495-3.938,10.85-1.3c3.356,2.637,3.937,7.495,1.3,10.85c-13.08,16.639-32.524,27.294-54.75,30.002
		C139.483,215.555,135.664,212.508,135.152,208.304z"/>
	<path style="fill:#656566;" d="M347.05,297.61l-29.945-19.723c-12.183-8.168-12.2-23.169-0.052-31.312l16.062-10.768
		c3.544-2.377,8.344-1.43,10.721,2.115c2.377,3.546,1.429,8.344-2.115,10.721l-16.062,10.768c-2.944,1.975-2.956,3.622,0,5.605
		l29.893,19.687c3.564,2.348,4.55,7.139,2.203,10.703C355.409,298.965,350.62,299.961,347.05,297.61z"/>
	<path style="fill:#656566;" d="M154.358,295.571c-2.438-3.503-1.575-8.318,1.928-10.756c29.5-20.661,30.915-20.891,30.915-22.754
		c0-2.237-4.836-4.163-18.312-13.57c-3.545-2.376-4.492-7.175-2.116-10.72c2.376-3.546,7.176-4.495,10.721-2.116l16.063,10.767
		c12.132,8.133,12.108,23.108,0.062,31.235l-28.505,19.842C161.635,299.922,156.812,299.097,154.358,295.571z"/>
</g>
<path id="SVGCleanerId_0" style="fill:#ED694A;" d="M327.35,350.654c-44.703-10.654-98.059-10.638-142.701,0
	c-9.448,11.374-16.681,25.015-20.939,40.098c-1.148,4.068,2.287,8.043,6.123,6.864c52.04-15.992,120.196-16.022,172.333,0
	c3.265,1.004,6.316-1.749,6.344-5.201C348.513,391.928,341.886,368.151,327.35,350.654z"/>
<g>
	<path id="SVGCleanerId_0_1_" style="fill:#ED694A;" d="M327.35,350.654c-44.703-10.654-98.059-10.638-142.701,0
		c-9.448,11.374-16.681,25.015-20.939,40.098c-1.148,4.068,2.287,8.043,6.123,6.864c52.04-15.992,120.196-16.022,172.333,0
		c3.265,1.004,6.316-1.749,6.344-5.201C348.513,391.928,341.886,368.151,327.35,350.654z"/>
</g>
<path style="fill:#D8553A;" d="M189.467,390.752c4.258-15.083,11.489-28.724,20.939-40.098c0.013-0.003,0.026-0.006,0.039-0.009
	c1.574-1.895,3.214-3.72,4.906-5.487c-10.535,1.313-20.831,3.143-30.701,5.496c-9.448,11.374-16.681,25.015-20.939,40.098
	c-1.148,4.068,2.287,8.043,6.123,6.864c6.258-1.923,12.754-3.61,19.423-5.071C189.237,391.961,189.296,391.358,189.467,390.752z"/>
<path style="fill:#656566;" d="M329.371,353.195c-6.13-7.864-13.273-14.745-21.226-20.367l0.011-0.001
	c-0.104-0.074-0.732-0.511-0.837-0.583c-0.006,0.001-0.013,0.001-0.019,0.002c-31.308-21.626-71.28-21.633-102.599,0
	c0,0-0.013-0.001-0.02-0.002c-0.107,0.074-0.732,0.51-0.837,0.584l0.011,0.001c-7.954,5.621-15.097,12.502-21.227,20.367
	C228.341,341.906,283.593,341.888,329.371,353.195z"/>
<path style="fill:#4F4F51;" d="M229.611,332.828l-0.011-0.001c0.104-0.073,0.729-0.509,0.837-0.584
	c0.007,0.001,0.02,0.002,0.02,0.002c11.877-8.204,24.999-13.288,38.42-15.269c-21.966-3.241-44.737,1.842-64.176,15.269
	c0,0-0.013-0.001-0.02-0.002c-0.107,0.074-0.732,0.51-0.837,0.584l0.011,0.001c-7.954,5.621-15.097,12.502-21.227,20.367
	c9.801-2.421,20.043-4.318,30.535-5.702C218.132,341.973,223.643,337.045,229.611,332.828z"/>
<g>
</g>
<g>
</g>
<g>
</g>
<g>
</g>
<g>
</g>
<g>
</g>
<g>
</g>
<g>
</g>
<g>
</g>
<g>
</g>
<g>
</g>
<g>
</g>
<g>
</g>
<g>
</g>
<g>
</g>
</svg>
