<?xml version="1.0" encoding="iso-8859-1"?>
<!-- Generator: Adobe Illustrator 19.0.0, SVG Export Plug-In . SVG Version: 6.00 Build 0)  -->
<svg version="1.1" id="Capa_1" xmlns="http://www.w3.org/2000/svg" xmlns:xlink="http://www.w3.org/1999/xlink" x="0px" y="0px"
	 viewBox="0 0 511.96 511.96" style="enable-background:new 0 0 511.96 511.96;" xml:space="preserve">
<circle style="fill:#F4D44E;" cx="256" cy="255.96" r="255.96"/>
<path style="fill:#E8C842;" d="M172.397,451.935C11.245,358.893,1.461,131.055,150.506,23.522
	c-47.185,21.23-88.388,56.934-116.234,105.165C-36.279,250.886,5.589,407.14,127.786,477.691
	c89.928,51.919,198.295,42.95,277.381-14.107C332.804,496.142,246.364,494.639,172.397,451.935z"/>
<g>
	<path style="fill:#656566;" d="M301.27,245.453c-2.385-3.539-1.449-8.34,2.09-10.726c3.541-2.385,8.341-1.448,10.726,2.09
		c5.719,8.488,19.27,13.147,28.999,9.967c4.056-1.32,8.419,0.892,9.744,4.947c1.325,4.057-0.89,8.419-4.947,9.744
		C331.422,266.851,310.947,259.813,301.27,245.453z"/>
	<path style="fill:#656566;" d="M164.117,261.476c-4.057-1.325-6.271-5.687-4.947-9.744c1.325-4.057,5.687-6.267,9.744-4.947
		c9.729,3.18,23.28-1.481,28.999-9.967c2.386-3.54,7.187-4.473,10.726-2.09c3.539,2.386,4.474,7.188,2.09,10.726
		C201.068,259.788,180.606,266.858,164.117,261.476z"/>
	<path style="fill:#656566;" d="M368.244,215.039c-22.227-2.706-41.671-13.361-54.75-30.002c-2.637-3.356-2.055-8.213,1.3-10.85
		c3.355-2.637,8.213-2.055,10.85,1.3c10.536,13.404,26.328,22.002,44.468,24.21c4.236,0.516,7.252,4.369,6.736,8.604
		C376.336,212.508,372.515,215.554,368.244,215.039z"/>
	<path style="fill:#656566;" d="M135.153,208.302c-0.516-4.235,2.5-8.088,6.736-8.604c18.139-2.208,33.931-10.806,44.468-24.21
		c2.637-3.357,7.495-3.937,10.85-1.3c3.355,2.637,3.937,7.495,1.3,10.85c-13.08,16.641-32.524,27.295-54.75,30.002
		C139.491,215.554,135.665,212.516,135.153,208.302z"/>
</g>
<path id="SVGCleanerId_0" style="fill:#ED694A;" d="M327.35,351.021c-44.703-10.654-98.059-10.638-142.701,0
	c-9.448,11.374-16.681,25.015-20.939,40.098c-1.148,4.068,2.287,8.043,6.123,6.864c52.04-15.992,120.196-16.022,172.333,0
	c3.265,1.004,6.316-1.749,6.344-5.201C348.513,392.296,341.885,368.519,327.35,351.021z"/>
<g>
	<path id="SVGCleanerId_0_1_" style="fill:#ED694A;" d="M327.35,351.021c-44.703-10.654-98.059-10.638-142.701,0
		c-9.448,11.374-16.681,25.015-20.939,40.098c-1.148,4.068,2.287,8.043,6.123,6.864c52.04-15.992,120.196-16.022,172.333,0
		c3.265,1.004,6.316-1.749,6.344-5.201C348.513,392.296,341.885,368.519,327.35,351.021z"/>
</g>
<path style="fill:#D8553A;" d="M189.467,391.12c4.258-15.083,11.489-28.724,20.939-40.098c0.013-0.003,0.026-0.006,0.039-0.009
	c1.574-1.895,3.214-3.72,4.906-5.487c-10.535,1.313-20.831,3.143-30.701,5.496c-9.448,11.374-16.681,25.015-20.939,40.098
	c-1.148,4.068,2.287,8.043,6.123,6.864c6.258-1.923,12.754-3.61,19.423-5.071C189.237,392.328,189.295,391.726,189.467,391.12z"/>
<path style="fill:#656566;" d="M329.371,353.563c-6.13-7.864-13.273-14.745-21.226-20.367l0.011-0.001
	c-0.104-0.074-0.732-0.511-0.837-0.583c-0.006,0.001-0.013,0.001-0.019,0.002c-31.308-21.626-71.28-21.633-102.599,0
	c0,0-0.013-0.001-0.02-0.002c-0.107,0.074-0.732,0.51-0.837,0.584l0.011,0.001c-7.954,5.621-15.097,12.502-21.227,20.367
	C228.341,342.273,283.594,342.255,329.371,353.563z"/>
<path style="fill:#4F4F51;" d="M229.611,333.196l-0.011-0.001c0.104-0.073,0.729-0.509,0.837-0.584
	c0.007,0.001,0.02,0.002,0.02,0.002c11.877-8.204,24.999-13.288,38.42-15.269c-21.966-3.241-44.737,1.842-64.176,15.269
	c0,0-0.013-0.001-0.02-0.002c-0.107,0.074-0.732,0.51-0.837,0.584l0.011,0.001c-7.954,5.621-15.097,12.502-21.227,20.367
	c9.801-2.421,20.043-4.318,30.535-5.702C218.132,342.341,223.644,337.413,229.611,333.196z"/>
<g>
</g>
<g>
</g>
<g>
</g>
<g>
</g>
<g>
</g>
<g>
</g>
<g>
</g>
<g>
</g>
<g>
</g>
<g>
</g>
<g>
</g>
<g>
</g>
<g>
</g>
<g>
</g>
<g>
</g>
</svg>
