<?xml version="1.0" encoding="iso-8859-1"?>
<!-- Generator: Adobe Illustrator 19.0.0, SVG Export Plug-In . SVG Version: 6.00 Build 0)  -->
<svg version="1.1" id="Capa_1" xmlns="http://www.w3.org/2000/svg" xmlns:xlink="http://www.w3.org/1999/xlink" x="0px" y="0px"
	 viewBox="0 0 511.963 511.963" style="enable-background:new 0 0 511.963 511.963;" xml:space="preserve">
<circle style="fill:#F4D44E;" cx="256.001" cy="255.965" r="255.962"/>
<path style="fill:#E8C842;" d="M172.714,451.825C11.267,358.614,1.463,130.357,150.782,22.627
	c-47.271,21.269-88.55,57.038-116.448,105.358c-70.68,122.422-28.736,278.963,93.687,349.643
	c90.092,52.015,198.659,43.03,277.889-14.133C333.414,496.113,246.817,494.608,172.714,451.825z"/>
<circle style="fill:#656566;" cx="328.775" cy="203.705" r="22.325"/>
<path style="fill:#4F4F51;" d="M328.777,203.706c-4.129-7.151-3.832-15.63,0.01-22.307c-3.798-0.005-7.647,0.938-11.172,2.974
	c-10.678,6.165-14.336,19.819-8.172,30.495c6.165,10.678,19.818,14.336,30.495,8.172c3.525-2.035,6.267-4.897,8.162-8.189
	C340.396,214.84,332.906,210.858,328.777,203.706z"/>
<circle style="fill:#656566;" cx="183.228" cy="203.705" r="22.325"/>
<path style="fill:#4F4F51;" d="M183.223,203.706c-4.129-7.151-3.832-15.63,0.01-22.307c-3.798-0.005-7.647,0.938-11.172,2.974
	c-10.678,6.165-14.336,19.819-8.172,30.495c6.165,10.678,19.818,14.336,30.495,8.172c3.525-2.035,6.267-4.897,8.162-8.189
	C194.842,214.84,187.352,210.858,183.223,203.706z"/>
<path style="fill:#656566;" d="M94.001,338.06c62.088,143.839,263.99,139.792,324.04,0H94.001z"/>
<path style="fill:#EAE9E8;" d="M414.097,301.009H97.911c-8.041,0-13.826,7.698-11.628,15.433c2.374,8.356,5.401,16.614,9.082,24.714
	h321.312c3.623-8.009,6.651-16.264,9.044-24.699C427.916,308.715,422.145,301.009,414.097,301.009z"/>
<path style="fill:#4F4F51;" d="M119.805,338.06H94.001c30.146,69.839,100.635,111.679,175.099,106.2
	C203.675,439.468,146.16,399.118,119.805,338.06z"/>
<path style="fill:#DBDBDB;" d="M123.715,301.009H97.911c-8.041,0-13.826,7.698-11.628,15.433c2.374,8.356,5.401,16.614,9.082,24.714
	h25.803c-3.681-8.1-6.709-16.358-9.082-24.714C109.889,308.708,115.673,301.009,123.715,301.009z"/>
<path style="fill:#ED694A;" d="M265.513,389.776c-16.879,6.845-22.133-6.804-51.118-5.451c-23.25,1.085-43.801,12.782-57.005,30.267
	c58.762,39.556,136.523,40.815,197.217-0.008C333.39,386.494,296.765,377.105,265.513,389.776z"/>
<path style="fill:#D8553A;" d="M168.027,403.145c-3.916,3.442-7.482,7.272-10.628,11.436c32.832,22.097,72.2,32.51,111.547,29.665
	C232.175,441.52,196.679,427.321,168.027,403.145z"/>
<g>
</g>
<g>
</g>
<g>
</g>
<g>
</g>
<g>
</g>
<g>
</g>
<g>
</g>
<g>
</g>
<g>
</g>
<g>
</g>
<g>
</g>
<g>
</g>
<g>
</g>
<g>
</g>
<g>
</g>
</svg>
