<?xml version="1.0" encoding="iso-8859-1"?>
<!-- Generator: Adobe Illustrator 19.0.0, SVG Export Plug-In . SVG Version: 6.00 Build 0)  -->
<svg version="1.1" id="Capa_1" xmlns="http://www.w3.org/2000/svg" xmlns:xlink="http://www.w3.org/1999/xlink" x="0px" y="0px"
	 viewBox="0 0 511.95 511.95" style="enable-background:new 0 0 511.95 511.95;" xml:space="preserve">
<circle style="fill:#F4D44E;" cx="256.23" cy="255.72" r="255.719"/>
<g>
	<circle style="fill:#656566;" cx="328.942" cy="253.565" r="22.308"/>
	<circle style="fill:#656566;" cx="183.528" cy="253.565" r="22.308"/>
</g>
<g>
	<path style="fill:#4F4F51;" d="M328.945,253.57c-4.126-7.147-3.829-15.618,0.01-22.291c-3.795-0.005-7.641,0.937-11.164,2.972
		c-10.67,6.16-14.325,19.804-8.165,30.473c6.16,10.67,19.804,14.325,30.473,8.165c3.523-2.034,6.262-4.894,8.155-8.183
		C340.556,264.696,333.072,260.717,328.945,253.57z"/>
	<path style="fill:#4F4F51;" d="M183.524,253.57c-4.126-7.147-3.829-15.618,0.01-22.291c-3.795-0.005-7.641,0.937-11.164,2.971
		c-10.67,6.16-14.325,19.804-8.165,30.473c6.16,10.67,19.804,14.325,30.473,8.165c3.523-2.034,6.262-4.894,8.155-8.183
		C195.135,264.696,187.651,260.717,183.524,253.57z"/>
</g>
<path style="fill:#656566;" d="M302.467,384.213c10.768,0,15.245-13.689,6.623-20.138c-31.853-23.831-74.924-23.159-105.86,0.114
	c-8.527,6.415-3.894,20.024,6.776,20.024L302.467,384.213L302.467,384.213z"/>
<path style="fill:#4F4F51;" d="M228.016,364.188c10.522-10.208,22.854-16.065,35.468-17.417
	c-21.146-1.733-42.662,4.181-60.255,17.417c-8.527,6.415-3.894,20.024,6.777,20.024h23.265
	C224.996,384.213,221.404,370.603,228.016,364.188z"/>
<path style="fill:#E8C842;" d="M172.556,451.87C11.256,358.743,1.462,130.696,150.644,23.065
	C103.416,44.314,62.175,80.05,34.303,128.326c-70.616,122.31-28.709,278.707,93.601,349.323
	c90.01,51.968,198.477,42.99,277.634-14.12C333.11,496.117,246.591,494.613,172.556,451.87z"/>
<g>
	<path style="fill:#656566;" d="M339.986,187.695c-3.713-2.111-5.012-6.832-2.901-10.546c2.111-3.714,6.832-5.013,10.546-2.901
		c14.834,8.433,32.722,10.426,50.367,5.613c4.121-1.126,8.373,1.306,9.498,5.425c1.124,4.121-1.305,8.372-5.425,9.498
		C379.962,200.815,357.978,197.926,339.986,187.695z"/>
	<path style="fill:#656566;" d="M116.902,194.784c-4.121-1.125-6.549-5.376-5.425-9.498c1.124-4.121,5.375-6.55,9.498-5.425
		c17.645,4.814,35.532,2.823,50.366-5.613c3.714-2.113,8.434-0.813,10.546,2.901c2.111,3.713,0.814,8.433-2.9,10.546
		C160.975,197.936,138.985,200.81,116.902,194.784z"/>
</g>
<path style="fill:#9CD7F2;" d="M103.099,352.295L103.099,352.295c28.213,0,47.133-28.976,35.788-54.807l-28.729-55.131
	c-2.638-5.063-9.885-5.058-12.516,0.008l-29.382,56.572C57.214,324.086,75.634,352.295,103.099,352.295z"/>
<path style="fill:#71C5DB;" d="M95.41,307.411l8.401-63.192c0.293-2.203,1.509-3.913,3.127-4.964
	c-3.223-1.522-7.426-0.494-9.298,3.111l-29.382,56.572c-11.046,25.147,7.374,53.356,34.841,53.356l0,0
	c7.545,0,14.414-2.087,20.229-5.617C106.798,342.104,94.13,326.495,95.41,307.411z"/>
<g>
</g>
<g>
</g>
<g>
</g>
<g>
</g>
<g>
</g>
<g>
</g>
<g>
</g>
<g>
</g>
<g>
</g>
<g>
</g>
<g>
</g>
<g>
</g>
<g>
</g>
<g>
</g>
<g>
</g>
</svg>
