<?xml version="1.0" encoding="iso-8859-1"?>
<!-- Generator: Adobe Illustrator 19.0.0, SVG Export Plug-In . SVG Version: 6.00 Build 0)  -->
<svg version="1.1" id="Capa_1" xmlns="http://www.w3.org/2000/svg" xmlns:xlink="http://www.w3.org/1999/xlink" x="0px" y="0px"
	 viewBox="0 0 511.95 511.95" style="enable-background:new 0 0 511.95 511.95;" xml:space="preserve">
<circle style="fill:#F4D44E;" cx="255.977" cy="255.719" r="255.719"/>
<g>
	<circle style="fill:#656566;" cx="328.69" cy="253.571" r="22.307"/>
	<circle style="fill:#656566;" cx="183.265" cy="253.571" r="22.307"/>
</g>
<g>
	<path style="fill:#4F4F51;" d="M328.689,253.57c-4.126-7.146-3.829-15.617,0.01-22.29c-3.795-0.005-7.641,0.937-11.164,2.972
		c-10.67,6.16-14.326,19.803-8.165,30.473c6.16,10.67,19.803,14.325,30.473,8.165c3.523-2.034,6.262-4.893,8.155-8.182
		C340.3,264.696,332.816,260.717,328.689,253.57z"/>
	<path style="fill:#4F4F51;" d="M183.269,253.57c-4.126-7.146-3.83-15.617,0.01-22.29c-3.795-0.005-7.641,0.937-11.164,2.971
		c-10.67,6.16-14.326,19.803-8.165,30.473c6.16,10.67,19.803,14.326,30.473,8.165c3.523-2.034,6.262-4.893,8.155-8.182
		C194.879,264.696,187.395,260.717,183.269,253.57z"/>
</g>
<path style="fill:#E8C842;" d="M75.691,352.984C13.145,238.7,47.469,97.223,150.608,22.952
	C-73.567,123.898-39.252,454.548,201.569,506.223c68.981,14.899,143.391,0.73,203.493-42.544
	C284.855,517.821,140.273,471.434,75.691,352.984z"/>
<g>
	<path style="fill:#656566;" d="M200.3,388.347c-3.889-1.768-5.608-6.353-3.84-10.241c23.448-51.596,96.221-50.44,119.046,0.013
		c1.76,3.891,0.033,8.473-3.859,10.233c-3.891,1.763-8.473,0.034-10.234-3.859c-17.445-38.561-72.987-39.314-90.872,0.013
		C208.774,388.394,204.191,390.114,200.3,388.347z"/>
	<path style="fill:#656566;" d="M339.731,187.694c-3.713-2.111-5.012-6.833-2.9-10.546c2.111-3.714,6.833-5.013,10.546-2.9
		c14.834,8.434,32.721,10.427,50.368,5.613c4.123-1.126,8.373,1.305,9.497,5.425c1.125,4.121-1.305,8.372-5.425,9.497
		C379.706,200.816,357.723,197.926,339.731,187.694z"/>
	<path style="fill:#656566;" d="M116.646,194.783c-4.121-1.125-6.549-5.376-5.425-9.497c1.125-4.121,5.377-6.55,9.497-5.425
		c17.645,4.815,35.532,2.823,50.367-5.613c3.713-2.113,8.435-0.813,10.546,2.9s0.813,8.434-2.9,10.546
		C160.719,197.936,138.73,200.81,116.646,194.783z"/>
</g>
<path style="fill:#9CD7F2;" d="M102.844,352.295L102.844,352.295c28.213,0,47.133-28.976,35.788-54.807l-28.73-55.131
	c-2.638-5.064-9.885-5.059-12.517,0.009L68.003,298.94C56.958,324.086,75.378,352.295,102.844,352.295z"/>
<path style="fill:#71C5DB;" d="M95.155,307.411l8.402-63.192c0.293-2.203,1.509-3.913,3.128-4.964
	c-3.223-1.522-7.426-0.493-9.298,3.112L68.004,298.94c-11.045,25.147,7.374,53.356,34.841,53.356l0,0
	c7.545,0,14.414-2.087,20.229-5.617C106.542,342.104,93.874,326.495,95.155,307.411z"/>
<g>
</g>
<g>
</g>
<g>
</g>
<g>
</g>
<g>
</g>
<g>
</g>
<g>
</g>
<g>
</g>
<g>
</g>
<g>
</g>
<g>
</g>
<g>
</g>
<g>
</g>
<g>
</g>
<g>
</g>
</svg>
