<?xml version="1.0" encoding="iso-8859-1"?>
<!-- Generator: Adobe Illustrator 19.0.0, SVG Export Plug-In . SVG Version: 6.00 Build 0)  -->
<svg version="1.1" id="Capa_1" xmlns="http://www.w3.org/2000/svg" xmlns:xlink="http://www.w3.org/1999/xlink" x="0px" y="0px"
	 viewBox="0 0 511.964 511.964" style="enable-background:new 0 0 511.964 511.964;" xml:space="preserve">
<circle style="fill:#F4D44E;" cx="256.237" cy="255.729" r="255.727"/>
<path style="fill:#656566;" d="M302.486,384.225c10.767,0,15.245-13.688,6.623-20.138c-31.854-23.83-74.925-23.16-105.86,0.115
	c-8.526,6.415-3.893,20.024,6.777,20.024L302.486,384.225L302.486,384.225z"/>
<path style="fill:#4F4F51;" d="M228.036,364.2c10.522-10.207,22.854-16.066,35.468-17.417c-21.147-1.733-42.663,4.182-60.255,17.417
	c-8.526,6.415-3.893,20.024,6.777,20.024h23.265C225.016,384.225,221.423,370.616,228.036,364.2z"/>
<path style="fill:#E8C842;" d="M172.556,451.882C11.256,358.756,1.462,130.709,150.644,23.077
	c-47.228,21.25-88.469,56.986-116.341,105.262c-70.616,122.31-28.709,278.707,93.601,349.323
	c90.01,51.967,198.477,42.99,277.634-14.12C333.11,496.129,246.591,494.626,172.556,451.882z"/>
<g>
	<path style="fill:#656566;" d="M301.114,245.374c-2.379-3.547-1.43-8.351,2.117-10.73c3.548-2.38,8.352-1.432,10.73,2.118
		c7.899,11.782,19.194,11.891,27.165,0c2.378-3.549,7.183-4.496,10.73-2.118c3.547,2.378,4.496,7.182,2.117,10.73
		C339.964,266.277,315.223,266.422,301.114,245.374z"/>
	<path style="fill:#656566;" d="M158.495,245.528c-2.379-3.547-1.43-8.351,2.117-10.73c3.548-2.38,8.352-1.432,10.73,2.118
		c7.9,11.782,19.194,11.891,27.165,0c2.378-3.549,7.183-4.496,10.73-2.118c3.547,2.379,4.496,7.182,2.117,10.73
		C197.344,266.431,172.603,266.576,158.495,245.528z"/>
	<path style="fill:#656566;" d="M373.589,212.346c-13.192-12.617-29.83-19.343-46.859-19.027c-4.273,0.08-7.803-3.304-7.89-7.574
		c-0.087-4.271,3.305-7.804,7.575-7.89c21.143-0.444,41.695,7.848,57.865,23.313c3.087,2.952,3.197,7.848,0.244,10.934
		C381.575,215.187,376.679,215.301,373.589,212.346z"/>
	<path style="fill:#656566;" d="M127.946,212.103c-2.952-3.087-2.843-7.982,0.244-10.934c16.17-15.464,36.732-23.749,57.865-23.313
		c4.27,0.087,7.662,3.619,7.575,7.89c-0.087,4.27-3.589,7.626-7.89,7.574c-17.027-0.346-33.666,6.41-46.859,19.027
		C135.801,215.292,130.904,215.196,127.946,212.103z"/>
</g>
<path style="fill:#9CD7F2;" d="M428.565,352.942c-22.204-25.748-68.225-31.647-104.875-31.787
	c-5.715-0.022-7.897,7.535-3.181,10.931c22.153,15.955,43.674,42.31,55.431,63.544h0.001c8.043,10.829,21.815,16.347,35.33,12.88
	C434.974,402.431,444.462,372.716,428.565,352.942z"/>
<path style="fill:#71C5DB;" d="M428.139,380.878c-12.402,6.394-27.057,4.087-37.314-4.675l0,0
	c-16.198-18.076-43.055-38.966-68.209-49.578c-1.67-0.705-2.776-1.953-3.339-3.376c-1.979,2.486-1.906,6.578,1.231,8.837
	c22.153,15.955,43.674,42.31,55.432,63.544l0,0c8.043,10.829,21.815,16.347,35.33,12.88c15.792-4.05,25.26-18.594,25.129-33.697
	C434.055,377.181,431.307,379.245,428.139,380.878z"/>
<g>
</g>
<g>
</g>
<g>
</g>
<g>
</g>
<g>
</g>
<g>
</g>
<g>
</g>
<g>
</g>
<g>
</g>
<g>
</g>
<g>
</g>
<g>
</g>
<g>
</g>
<g>
</g>
<g>
</g>
</svg>
