<?xml version="1.0" encoding="iso-8859-1"?>
<!-- Generator: Adobe Illustrator 19.0.0, SVG Export Plug-In . SVG Version: 6.00 Build 0)  -->
<svg version="1.1" id="Capa_1" xmlns="http://www.w3.org/2000/svg" xmlns:xlink="http://www.w3.org/1999/xlink" x="0px" y="0px"
	 viewBox="0 0 511.96 511.96" style="enable-background:new 0 0 511.96 511.96;" xml:space="preserve">
<circle style="fill:#F4D44E;" cx="256" cy="255.98" r="255.96"/>
<path style="fill:#E8C842;" d="M172.714,451.042C11.267,357.83,1.463,129.573,150.782,21.843
	C103.51,43.112,62.231,78.881,34.335,127.201c-70.681,122.422-28.736,278.964,93.687,349.644
	c90.093,52.016,198.659,43.029,277.889-14.133C333.415,495.329,246.817,493.824,172.714,451.042z"/>
<path style="fill:#656566;" d="M93.999,337.281c42.045,97.406,159.169,135.584,250.224,83.013
	c34.238-19.767,59.327-49.283,73.816-83.013L93.999,337.281L93.999,337.281z"/>
<path style="fill:#EAE9E8;" d="M414.095,300.23H97.909c-8.041,0-13.826,7.698-11.628,15.433c2.374,8.355,5.401,16.614,9.082,24.714
	h321.312c3.623-8.009,6.651-16.264,9.044-24.699C427.915,307.936,422.142,300.23,414.095,300.23z"/>
<path style="fill:#4F4F51;" d="M119.803,337.281H93.999c30.146,69.838,100.635,111.68,175.099,106.199
	C212.776,439.356,146.157,398.339,119.803,337.281z"/>
<path style="fill:#DBDBDB;" d="M123.712,300.23H97.909c-8.041,0-13.826,7.698-11.629,15.433c2.374,8.355,5.401,16.614,9.082,24.714
	h25.803c-3.681-8.1-6.708-16.359-9.082-24.714C109.886,307.928,115.672,300.23,123.712,300.23z"/>
<path style="fill:#ED694A;" d="M246.489,388.998c-31.117-12.618-67.786-3.409-89.101,24.815
	c58.762,39.556,136.524,40.815,197.217-0.008c-13.208-17.485-33.766-29.181-57.018-30.26
	C268.753,382.207,263.31,395.818,246.489,388.998z"/>
<path style="fill:#D8553A;" d="M168.025,402.366c-3.916,3.442-7.483,7.272-10.628,11.436
	c31.934,21.493,71.112,32.589,111.547,29.665C232.173,440.742,196.677,426.542,168.025,402.366z"/>
<g>
	<path style="fill:#656566;" d="M197.118,223.726c-7.878-11.752-19.151-11.881-27.116,0c-2.381,3.552-7.19,4.5-10.74,2.12
		c-3.551-2.381-4.5-7.189-2.119-10.74c14.007-20.895,38.738-21.032,52.836,0c2.381,3.551,1.432,8.359-2.119,10.74
		C204.306,228.227,199.498,227.279,197.118,223.726z"/>
	<path style="fill:#656566;" d="M373.373,187.725c-13.204-12.628-29.847-19.351-46.903-19.044c-4.27,0.111-7.809-3.307-7.896-7.582
		s3.307-7.809,7.582-7.896c21.166-0.46,41.734,7.857,57.917,23.334c3.09,2.955,3.199,7.855,0.244,10.944
		C381.358,190.575,376.459,190.675,373.373,187.725z"/>
	<path style="fill:#656566;" d="M127.504,187.48c-2.955-3.089-2.846-7.99,0.244-10.944c16.184-15.477,36.749-23.767,57.917-23.334
		c4.274,0.087,7.669,3.621,7.582,7.896c-0.087,4.273-3.621,7.662-7.896,7.582c-17.052-0.346-33.699,6.418-46.903,19.044
		C135.362,190.676,130.462,190.573,127.504,187.48z"/>
</g>
<path style="fill:#9CD7F2;" d="M440.082,277.779l-50.742-36.036c-4.66-3.309-11.117-0.001-11.152,5.714l-0.393,63.819
	c1.622,27.449,30.901,44.191,55.38,31.668l0,0C458.321,330.081,461.972,295.628,440.082,277.779z"/>
<path style="fill:#71C5DB;" d="M405.701,307.979l-22.298-59.798c-1.103-2.959-0.108-5.921,1.931-7.742
	c-3.672-0.031-7.121,2.845-7.146,7.017l-0.393,63.819c1.622,27.449,30.9,44.191,55.38,31.668l0,0
	c6.328-3.237,11.291-7.844,14.832-13.207C431.471,333.03,413.415,325.158,405.701,307.979z"/>
<path style="fill:#9CD7F2;" d="M79.396,277.779l50.742-36.036c4.66-3.309,11.117-0.001,11.152,5.714l0.393,63.819
	c-1.622,27.449-30.901,44.191-55.38,31.668l0,0C61.158,330.081,57.507,295.628,79.396,277.779z"/>
<path style="fill:#71C5DB;" d="M97.453,296.721l35.883-50.851c1.548-2.193,3.953-3.127,6.271-2.958
	c-2.235-2.595-6.273-3.438-9.468-1.169l-50.742,36.036c-21.889,17.849-18.238,52.301,6.906,65.164l0,0
	c6.322,3.234,12.962,4.503,19.366,4.152C91.643,335.263,86.83,314.125,97.453,296.721z"/>
<path style="fill:#656566;" d="M339.658,223.726c-8.493-12.669-20.931-11.831-28.917,3.001c-0.007,0.013-0.02,0.023-0.034,0.027
	c-10.162,2.853-14.817-5.992-11.026-11.648c14.711-21.945,41.251-20.993,54.878,3.332
	C353.089,228.463,343.391,229.296,339.658,223.726z"/>
<g>
</g>
<g>
</g>
<g>
</g>
<g>
</g>
<g>
</g>
<g>
</g>
<g>
</g>
<g>
</g>
<g>
</g>
<g>
</g>
<g>
</g>
<g>
</g>
<g>
</g>
<g>
</g>
<g>
</g>
</svg>
