<?xml version="1.0" encoding="iso-8859-1"?>
<!-- Generator: Adobe Illustrator 19.0.0, SVG Export Plug-In . SVG Version: 6.00 Build 0)  -->
<svg version="1.1" id="Capa_1" xmlns="http://www.w3.org/2000/svg" xmlns:xlink="http://www.w3.org/1999/xlink" x="0px" y="0px"
	 viewBox="0 0 511.96 511.96" style="enable-background:new 0 0 511.96 511.96;" xml:space="preserve">
<circle style="fill:#F4D44E;" cx="256" cy="255.96" r="255.96"/>
<path style="fill:#E8C842;" d="M172.398,451.935C11.245,358.893,1.46,131.055,150.506,23.523
	C103.321,44.752,62.118,80.456,34.272,128.687C-36.279,250.886,5.589,407.14,127.787,477.691
	c89.928,51.919,198.295,42.951,277.38-14.107C332.804,496.142,246.365,494.639,172.398,451.935z"/>
<g>
	<path style="fill:#656566;" d="M313.976,197.359c-3.709-2.109-5.007-6.826-2.898-10.536c2.109-3.711,6.827-5.009,10.537-2.898
		c14.82,8.427,32.692,10.419,50.32,5.608c4.118-1.125,8.365,1.304,9.489,5.42c1.123,4.117-1.304,8.364-5.421,9.489
		C353.957,210.458,331.988,207.602,313.976,197.359z"/>
	<path style="fill:#656566;" d="M135.996,204.442c-4.117-1.124-6.544-5.372-5.421-9.489c1.123-4.116,5.372-6.544,9.489-5.42
		c17.629,4.811,35.5,2.82,50.32-5.608c3.709-2.111,8.426-0.812,10.537,2.898c2.109,3.709,0.813,8.427-2.898,10.536
		C180,207.608,158.025,210.455,135.996,204.442z"/>
	<path style="fill:#656566;" d="M301.391,384.62c-17.387-38.434-72.901-39.334-90.788,0.013c-1.766,3.886-6.348,5.6-10.232,3.837
		c-3.885-1.766-5.603-6.347-3.836-10.232c23.35-51.394,96.101-50.467,118.936,0.013c1.758,3.888,0.033,8.466-3.856,10.224
		C307.737,390.231,303.153,388.517,301.391,384.62z"/>
	<path style="fill:#656566;" d="M341.633,297.609l-29.945-19.723c-12.183-8.166-12.2-23.168-0.052-31.311l16.062-10.768
		c3.544-2.377,8.344-1.43,10.721,2.115c2.377,3.546,1.429,8.344-2.115,10.721c-13.377,9.339-18.312,11.333-18.312,13.57
		c0,2.35,4.777,4.012,32.143,22.489c3.564,2.348,4.55,7.139,2.203,10.703C349.992,298.964,345.202,299.961,341.633,297.609z"/>
	<path style="fill:#656566;" d="M148.941,295.571c-2.438-3.503-1.575-8.318,1.928-10.756c29.479-20.646,30.915-20.887,30.915-22.755
		c0-2.237-4.867-4.183-18.312-13.57c-3.545-2.377-4.492-7.175-2.115-10.721c2.377-3.545,7.176-4.491,10.721-2.115l16.062,10.768
		c12.132,8.132,12.107,23.109,0.06,31.235l-28.503,19.841C156.211,299.926,151.391,299.09,148.941,295.571z"/>
</g>
<g>
</g>
<g>
</g>
<g>
</g>
<g>
</g>
<g>
</g>
<g>
</g>
<g>
</g>
<g>
</g>
<g>
</g>
<g>
</g>
<g>
</g>
<g>
</g>
<g>
</g>
<g>
</g>
<g>
</g>
</svg>
