<?xml version="1.0" encoding="iso-8859-1"?>
<!-- Generator: Adobe Illustrator 19.0.0, SVG Export Plug-In . SVG Version: 6.00 Build 0)  -->
<svg version="1.1" id="Capa_1" xmlns="http://www.w3.org/2000/svg" xmlns:xlink="http://www.w3.org/1999/xlink" x="0px" y="0px"
	 viewBox="0 0 511.958 511.958" style="enable-background:new 0 0 511.958 511.958;" xml:space="preserve">
<circle style="fill:#F4D44E;" cx="255.999" cy="255.957" r="255.957"/>
<path style="fill:#E8C842;" d="M172.633,451.87C11.149,358.636,1.4,130.345,150.739,22.644
	C103.486,43.915,62.225,79.677,34.337,127.982c-70.681,122.423-28.735,278.964,93.687,349.644
	c90.078,52.007,198.625,43.033,277.852-14.105C333.371,496.158,246.752,494.662,172.633,451.87z"/>
<g>
	<path style="fill:#656566;" d="M377.441,246.449c-19.339-11.284-41.265-14.556-61.748-9.212c-4.129,1.078-6.603,5.298-5.526,9.427
		c1.078,4.129,5.297,6.605,9.427,5.526c16.495-4.304,34.274-1.603,50.057,7.607c3.686,2.149,8.417,0.908,10.568-2.78
		C382.371,253.331,381.126,248.6,377.441,246.449z"/>
	<path style="fill:#656566;" d="M201.837,246.665c1.078-4.129-1.396-8.35-5.526-9.427c-20.477-5.346-42.409-2.072-61.749,9.212
		c-3.685,2.151-4.93,6.882-2.779,10.568c2.153,3.691,6.884,4.928,10.568,2.78c15.783-9.211,33.561-11.911,50.058-7.607
		C196.535,253.269,200.758,250.793,201.837,246.665z"/>
	<path style="fill:#656566;" d="M196.537,378.237c-1.766,3.885-0.049,8.466,3.835,10.232c3.886,1.767,8.465,0.049,10.232-3.835
		c17.795-39.105,73.252-38.776,90.788-0.014c1.29,2.855,4.102,4.544,7.045,4.544c5.547,0,9.367-5.761,7.035-10.913
		C292.702,327.918,219.984,326.655,196.537,378.237z"/>
</g>
<g>
</g>
<g>
</g>
<g>
</g>
<g>
</g>
<g>
</g>
<g>
</g>
<g>
</g>
<g>
</g>
<g>
</g>
<g>
</g>
<g>
</g>
<g>
</g>
<g>
</g>
<g>
</g>
<g>
</g>
</svg>
