<?xml version="1.0" encoding="iso-8859-1"?>
<!-- Generator: Adobe Illustrator 19.0.0, SVG Export Plug-In . SVG Version: 6.00 Build 0)  -->
<svg version="1.1" id="Capa_1" xmlns="http://www.w3.org/2000/svg" xmlns:xlink="http://www.w3.org/1999/xlink" x="0px" y="0px"
	 viewBox="0 0 511.961 511.961" style="enable-background:new 0 0 511.961 511.961;" xml:space="preserve">
<circle style="fill:#F4D44E;" cx="256" cy="255.962" r="255.96"/>
<path style="fill:#E8C842;" d="M172.713,451.823C11.267,358.613,1.462,130.355,150.782,22.626
	C103.51,43.894,62.232,79.664,34.335,127.983c-70.681,122.423-28.735,278.964,93.686,349.644
	c90.093,52.015,198.659,43.03,277.89-14.132C333.415,496.113,246.817,494.607,172.713,451.823z"/>
<ellipse style="fill:#656566;" cx="337.183" cy="205.791" rx="23.391" ry="29.824"/>
<path style="fill:#4F4F51;" d="M337.185,205.788c0-11.037,4.706-20.667,11.696-25.824c-3.441-2.54-7.434-4-11.696-4
	c-12.919,0-23.391,13.353-23.391,29.824s10.473,29.824,23.391,29.824c4.262,0,8.254-1.46,11.696-4
	C341.891,226.455,337.185,216.825,337.185,205.788z"/>
<ellipse style="fill:#656566;" cx="174.818" cy="205.791" rx="23.391" ry="29.824"/>
<path style="fill:#4F4F51;" d="M174.815,205.788c0-11.037,4.706-20.667,11.696-25.824c-3.441-2.54-7.434-4-11.696-4
	c-12.919,0-23.391,13.353-23.391,29.824s10.473,29.824,23.391,29.824c4.262,0,8.254-1.46,11.696-4
	C179.521,226.455,174.815,216.825,174.815,205.788z"/>
<path style="fill:#656566;" d="M93.999,338.059c42.045,97.407,159.169,135.583,250.224,83.013
	c34.238-19.767,59.327-49.283,73.816-83.013H93.999z"/>
<path style="fill:#EAE9E8;" d="M414.095,301.008H97.909c-8.041,0-13.826,7.698-11.628,15.434c2.373,8.355,5.4,16.614,9.082,24.714
	h321.312c3.623-8.008,6.651-16.264,9.043-24.699C427.914,308.714,422.142,301.008,414.095,301.008z"/>
<path style="fill:#4F4F51;" d="M119.803,338.059H93.999c30.146,69.839,100.635,111.68,175.099,106.199
	C212.777,440.134,146.157,399.117,119.803,338.059z"/>
<path style="fill:#DBDBDB;" d="M123.713,301.008H97.909c-8.041,0-13.826,7.698-11.628,15.434c2.373,8.355,5.4,16.614,9.082,24.714
	h25.803c-3.682-8.099-6.709-16.359-9.082-24.714C109.886,308.706,115.671,301.008,123.713,301.008z"/>
<path style="fill:#ED694A;" d="M246.489,389.775c-31.117-12.618-67.786-3.409-89.101,24.816
	c58.762,39.556,136.524,40.815,197.218-0.008c-13.207-17.486-33.765-29.181-57.018-30.26
	C268.752,382.984,263.311,396.596,246.489,389.775z"/>
<path style="fill:#D8553A;" d="M168.025,403.143c-3.916,3.441-7.483,7.272-10.628,11.437
	c31.934,21.493,71.112,32.588,111.546,29.665C232.173,441.519,196.677,427.32,168.025,403.143z"/>
<g>
</g>
<g>
</g>
<g>
</g>
<g>
</g>
<g>
</g>
<g>
</g>
<g>
</g>
<g>
</g>
<g>
</g>
<g>
</g>
<g>
</g>
<g>
</g>
<g>
</g>
<g>
</g>
<g>
</g>
</svg>
