<?xml version="1.0" encoding="iso-8859-1"?>
<!-- Generator: Adobe Illustrator 19.0.0, SVG Export Plug-In . SVG Version: 6.00 Build 0)  -->
<svg version="1.1" id="Capa_1" xmlns="http://www.w3.org/2000/svg" xmlns:xlink="http://www.w3.org/1999/xlink" x="0px" y="0px"
	 viewBox="0 0 512 512" style="enable-background:new 0 0 512 512;" xml:space="preserve">
<path style="fill:#EAE9E8;" d="M512,234.131c0-35.969-26.121-65.827-60.427-71.664c-3.157-0.537-5.643-2.991-6.229-6.14
	c-7.407-39.783-46.154-66.003-86.027-57.842c-2.972,0.608-6.04-0.59-7.772-3.08c-33.663-48.374-105.203-48.591-139.066-0.141
	c-1.706,2.441-4.709,3.661-7.632,3.091c-40.05-7.81-78.106,18.779-85.404,57.973c-0.586,3.149-3.072,5.603-6.229,6.14
	c-34.306,5.837-60.427,35.696-60.427,71.664c0,35.969,26.121,65.828,60.427,71.665c3.157,0.537,5.643,2.991,6.229,6.14
	c7.293,39.169,45.327,65.79,85.404,57.973c2.924-0.57,5.927,0.649,7.632,3.091c15.314,21.911,40.721,36.246,69.481,36.246
	c28.823,0,54.282-14.395,69.585-36.387c1.732-2.49,4.8-3.688,7.772-3.08c39.806,8.147,78.608-17.994,86.027-57.842
	c0.586-3.149,3.072-5.603,6.229-6.14C485.879,299.959,512,270.101,512,234.131z"/>
<path style="fill:#DBDBDB;" d="M333.471,376.622c-28.76,0-54.167-14.335-69.481-36.246c-1.706-2.442-4.709-3.661-7.632-3.091
	c-40.078,7.816-78.111-18.804-85.404-57.973c-0.586-3.148-3.072-5.603-6.229-6.14c-34.305-5.838-60.426-35.696-60.426-71.665
	c0-15.074,4.601-29.066,12.456-40.675c-1.003,0.822-2.205,1.408-3.543,1.635c-34.305,5.837-60.426,35.696-60.426,71.664
	c0,35.969,26.121,65.828,60.426,71.665c3.157,0.537,5.643,2.991,6.229,6.14c7.293,39.169,45.327,65.789,85.404,57.973
	c2.924-0.57,5.926,0.649,7.632,3.09c15.314,21.911,40.721,36.246,69.481,36.246c27.875,0,52.603-13.465,68.042-34.245
	C344.654,376.06,339.129,376.622,333.471,376.622z"/>
<circle style="fill:#EAE9E8;" cx="109.123" cy="414.87" r="38.094"/>
<g>
	<path style="fill:#DBDBDB;" d="M109.127,414.871c-7.05-12.21-6.562-26.695,0.003-38.092c-6.476-0.007-13.039,1.628-19.051,5.099
		c-18.222,10.521-24.465,33.82-13.945,52.042c10.521,18.222,33.82,24.465,52.042,13.944c6.012-3.471,10.71-8.337,13.941-13.949
		C128.964,433.903,116.176,427.081,109.127,414.871z"/>
	<circle style="fill:#DBDBDB;" cx="19.047" cy="416.223" r="19.047"/>
</g>
<g>
</g>
<g>
</g>
<g>
</g>
<g>
</g>
<g>
</g>
<g>
</g>
<g>
</g>
<g>
</g>
<g>
</g>
<g>
</g>
<g>
</g>
<g>
</g>
<g>
</g>
<g>
</g>
<g>
</g>
</svg>
