<?xml version="1.0" encoding="iso-8859-1"?>
<!-- Generator: Adobe Illustrator 19.0.0, SVG Export Plug-In . SVG Version: 6.00 Build 0)  -->
<svg version="1.1" id="Capa_1" xmlns="http://www.w3.org/2000/svg" xmlns:xlink="http://www.w3.org/1999/xlink" x="0px" y="0px"
	 viewBox="0 0 512 512" style="enable-background:new 0 0 512 512;" xml:space="preserve">
<path style="fill:#ED694A;" d="M394.984,165.271C317.073,142.433,253.48,212.066,286.24,281.66c0,0,30.28,55.298-4.195,125.643
	c-18.91,41.626,1.474,90.536,42.326,102.509c36.616,10.733,79.844-19.472,88.481-60.647c0.033-0.104,54.181-170.476,54.207-170.579
	C478.912,231.144,446.643,180.412,394.984,165.271z"/>
<path style="fill:#D8553A;" d="M337.512,407.302c34.475-70.344,4.195-125.643,4.195-125.643
	c-24.12-51.238,3.993-102.492,51.593-116.853c-77.138-21.35-139.583,47.763-107.059,116.853c0,0,30.28,55.298-4.195,125.643
	c-26.99,59.412,26.857,126.34,86.291,97.898C335.345,488.214,320.474,444.809,337.512,407.302z"/>
<circle style="fill:#ED694A;" cx="315.484" cy="102.289" r="35.564"/>
<path style="fill:#D8553A;" d="M315.505,66.72c-34.84,0.016-48.933,45.247-20.058,64.944c16.856,11.499,40.311,6.584,50.834-11.602
	C319.201,120.074,301.724,90.534,315.505,66.72z"/>
<circle style="fill:#ED694A;" cx="395.671" cy="112.559" r="25.159"/>
<path style="fill:#D8553A;" d="M394.335,87.449c-24.03,1.299-32.581,32.425-12.837,45.894c11.568,7.891,27.475,4.861,35.248-7.057
	C396.476,127.38,383.011,104.824,394.335,87.449z"/>
<circle style="fill:#ED694A;" cx="453.624" cy="141.796" r="20.219"/>
<path style="fill:#D8553A;" d="M463.752,124.298c-17.192-9.932-36.957,8.375-28.348,26.263c5.014,10.419,17.912,14.716,28.313,8.729
	C450.36,151.572,450.22,132.089,463.752,124.298z"/>
<circle style="fill:#ED694A;" cx="488.432" cy="184.058" r="16.252"/>
<g>
	<path style="fill:#D8553A;" d="M496.57,169.999c-13.821-7.985-29.705,6.735-22.787,21.111c3.892,8.088,13.604,11.489,21.692,7.597
		c0.369-0.177,0.717-0.38,1.066-0.581C485.805,191.923,485.693,176.262,496.57,169.999z"/>
	<circle style="fill:#D8553A;" cx="501.317" cy="228.355" r="10.683"/>
</g>
<path style="fill:#ED694A;" d="M117.012,98.554c77.911-22.838,141.504,46.795,108.744,116.389c0,0-30.28,55.298,4.195,125.643
	c18.91,41.626-1.474,90.536-42.326,102.509c-36.616,10.733-79.844-19.472-88.481-60.647c-0.033-0.104-54.181-170.476-54.207-170.579
	C33.084,164.428,65.353,113.696,117.012,98.554z"/>
<path style="fill:#D8553A;" d="M150.656,368.021c-0.033-0.104-54.181-170.476-54.207-170.579
	C86.521,157.704,107.551,115.663,145,94.157c-9.011,0.179-18.39,1.584-27.989,4.398c-51.66,15.142-83.928,65.875-72.074,113.315
	c0.026,0.103,54.173,170.475,54.207,170.579c8.637,41.174,51.865,71.379,88.481,60.646c9.287-2.722,17.502-7.369,24.453-13.39
	C183.688,424.192,157.211,399.269,150.656,368.021z"/>
<circle style="fill:#ED694A;" cx="196.502" cy="35.568" r="35.564"/>
<path style="fill:#D8553A;" d="M191.849,20.45c-0.557-7.408,1.2-14.455,4.657-20.436c-0.884,0.001-1.771,0.023-2.667,0.09
	c-19.587,1.473-34.271,18.545-32.797,38.132c2.622,34.852,48.833,45.273,66.272,15.1C208.868,53.355,193.255,39.14,191.849,20.45z"
	/>
<circle style="fill:#ED694A;" cx="116.325" cy="45.847" r="25.159"/>
<path style="fill:#D8553A;" d="M116.322,20.7c-0.625,0.001-1.252,0.016-1.886,0.064c-13.853,1.042-24.239,13.116-23.196,26.97
	c1.854,24.632,34.526,32.043,46.873,10.681C118.653,58.433,106.738,37.283,116.322,20.7z"/>
<circle style="fill:#ED694A;" cx="58.372" cy="75.077" r="20.219"/>
<path style="fill:#D8553A;" d="M68.468,57.581c-10.383-5.981-23.292-1.704-28.313,8.728C31.546,84.2,51.313,102.505,68.503,92.574
	C59.414,87.341,55.111,65.297,68.468,57.581z"/>
<circle style="fill:#ED694A;" cx="23.569" cy="117.348" r="16.252"/>
<g>
	<path style="fill:#D8553A;" d="M31.682,103.283c-8.325-4.799-18.715-1.387-22.757,7.016c-6.92,14.38,8.969,29.095,22.787,21.111
		C20.836,125.148,20.946,109.486,31.682,103.283z"/>
	<circle style="fill:#D8553A;" cx="10.683" cy="161.635" r="10.683"/>
</g>
<g>
</g>
<g>
</g>
<g>
</g>
<g>
</g>
<g>
</g>
<g>
</g>
<g>
</g>
<g>
</g>
<g>
</g>
<g>
</g>
<g>
</g>
<g>
</g>
<g>
</g>
<g>
</g>
<g>
</g>
</svg>
