<?xml version="1.0" encoding="iso-8859-1"?>
<!-- Generator: Adobe Illustrator 19.0.0, SVG Export Plug-In . SVG Version: 6.00 Build 0)  -->
<svg version="1.1" id="Capa_1" xmlns="http://www.w3.org/2000/svg" xmlns:xlink="http://www.w3.org/1999/xlink" x="0px" y="0px"
	 viewBox="0 0 512 512" style="enable-background:new 0 0 512 512;" xml:space="preserve">
<path style="fill:#EAE9E8;" d="M256,26.991c-141.385,0-256,97.119-256,216.921c0,57.832,26.714,110.374,70.249,149.26
	c6.123,5.47,8.56,14.118,8.56,22.323v55.862c0,4.52,2.082,8.739,5.547,11.239c0.107,0.04,5.555,4.378,12.388,1.325
	c65.693-29.357,73.086-35.264,88.171-31.574C348.321,492.317,512,388.34,512,243.912C512,124.11,397.385,26.991,256,26.991z"/>
<path style="fill:#DBDBDB;" d="M380.358,430.049C216.072,470.236,51.513,365.698,51.513,220.494
	c0-73.162,42.521-137.904,107.76-177.467C65.845,75.361,0,153.114,0,243.912c0,57.832,26.714,110.374,70.249,149.26
	c6.123,5.47,8.56,14.119,8.56,22.323v55.862c0,9.904,9.512,16.328,17.935,12.564c65.693-29.357,73.086-35.264,88.171-31.574
	c72.885,17.829,145.824,7.018,204.268-23.246C386.191,428.941,383.433,429.297,380.358,430.049z"/>
<g>
	<circle style="fill:#656566;" cx="151.476" cy="255.279" r="23.866"/>
	<circle style="fill:#656566;" cx="256" cy="255.279" r="23.866"/>
	<circle style="fill:#656566;" cx="360.524" cy="255.279" r="23.866"/>
</g>
<g>
	<path style="fill:#545456;" d="M151.472,255.279c-4.416-7.649-4.111-16.723,0.002-23.863c-4.057-0.004-8.169,1.02-11.934,3.194
		c-11.414,6.59-15.326,21.186-8.735,32.601c6.591,11.415,21.186,15.326,32.601,8.735c3.766-2.174,6.709-5.223,8.734-8.738
		C163.899,267.2,155.888,262.928,151.472,255.279z"/>
	<path style="fill:#545456;" d="M256,255.279c-4.416-7.649-4.111-16.723,0.002-23.863c-4.057-0.004-8.169,1.02-11.934,3.194
		c-11.414,6.59-15.326,21.186-8.735,32.601c9.225,15.978,32.243,15.783,41.335-0.003C268.427,267.2,260.417,262.928,256,255.279z"/>
	<path style="fill:#545456;" d="M360.53,231.416c-18.222-0.019-29.894,19.819-20.67,35.796c6.591,11.415,21.186,15.326,32.601,8.735
		c3.766-2.174,6.709-5.223,8.734-8.738C362.821,267.19,351.364,247.329,360.53,231.416z"/>
</g>
<g>
</g>
<g>
</g>
<g>
</g>
<g>
</g>
<g>
</g>
<g>
</g>
<g>
</g>
<g>
</g>
<g>
</g>
<g>
</g>
<g>
</g>
<g>
</g>
<g>
</g>
<g>
</g>
<g>
</g>
</svg>
