<?xml version="1.0" encoding="iso-8859-1"?>
<!-- Generator: Adobe Illustrator 19.0.0, SVG Export Plug-In . SVG Version: 6.00 Build 0)  -->
<svg version="1.1" id="Capa_1" xmlns="http://www.w3.org/2000/svg" xmlns:xlink="http://www.w3.org/1999/xlink" x="0px" y="0px"
	 viewBox="0 0 512.001 512.001" style="enable-background:new 0 0 512.001 512.001;" xml:space="preserve">
<path style="fill:#607793;" d="M436.8,337.808V327.67c23.911-12.581,41.142-36.778,42.985-67.018
	c0.186-3.059,2.214-5.699,5.106-6.715c16.515-5.803,23.691-23.69,13.576-37.365c0.035-0.48,0.022-19.647,0.022-20.129
	c0-54.618-44.435-99.053-99.052-99.053c-54.619,0-99.054,44.436-99.054,99.053c0,0.482-0.012,19.65,0.022,20.129
	c-9.685,13.094-3.518,30.061,11.541,36.568c4.174,1.804,6.938,5.856,7.365,10.383c2.699,28.578,19.282,51.699,42.546,64.03v10.398
	l-15.583,10.539c-0.253,0.074-26.147,6.796-41.471,11.321c2.148,6.323,0.656,1.748,23.734,116.766
	c1.654,8.267-0.035,19.128-6.041,26.046c-5.403,6.221-13.577,9.376-24.295,9.376c7.486,0,193.914,0,188.226,0
	C500.55,512,512,500.55,512,486.424V374.883c0-4.877-2.983-9.299-7.55-11.011c-0.332-0.124-34.157-10.099-46.901-13.856
	C450.129,347.827,446.889,344.278,436.8,337.808z"/>
<path style="fill:#526B84;" d="M377.098,502.625c6.006-6.917,7.694-17.778,6.041-26.046L361.285,366.82
	c-1.831-9.171-5.505-16.281-9.904-21.784c-12.34,6.908-4.304,2.292-46.579,14.775c2.148,6.323,0.656,1.748,23.734,116.767
	c1.654,8.267-0.035,19.128-6.041,26.046c-5.403,6.221-13.577,9.376-24.295,9.376c19.071,0,37.446,0,54.603,0
	C363.522,512,371.695,508.846,377.098,502.625z"/>
<path style="fill:#768FA8;" d="M325.585,502.625c6.006-6.917,7.694-17.778,6.041-26.046L309.773,366.82
	c-4.818-24.137-22.387-34.027-32.429-37.775c-0.413-0.152-63.321-18.697-63.743-18.822l-19.718-13.334V284.37
	c29.529-15.536,50.808-45.42,53.083-82.764c0.225-3.706,2.576-7.002,6.086-8.211c20.55-7.085,29.521-29.272,16.984-46.217
	c0.043-0.593,0.028-24.262,0.028-24.858C270.062,54.873,215.189,0,147.741,0S25.42,54.873,25.42,122.321
	c0,0.595-0.015,24.266,0.028,24.859c-11.96,16.169-4.344,37.123,14.252,45.158c5.101,2.204,8.565,7.109,9.078,12.643
	c3.28,35.373,23.778,63.997,52.557,79.251v12.841L82.09,310.086c-68.192,20.158-63.324,18.576-65.675,19.53
	c-9.941,4.031-16.414,13.739-16.414,24.466v132.502C0.001,500.621,11.38,512,25.417,512c82.93,0,193.354,0,275.874,0
	C312.01,512,320.183,508.846,325.585,502.625z"/>
<g>
	<path style="fill:#6A859B;" d="M52.739,486.584V337.598c0-9.319,4.889-17.863,12.688-22.591
		c-50.704,14.969-46.873,13.739-49.013,14.608c-9.94,4.032-16.413,13.74-16.413,24.467v132.502C0.001,500.621,11.38,512,25.417,512
		c16.619,0,34.355,0,52.738,0C64.118,512,52.739,500.621,52.739,486.584z"/>
	<path style="fill:#6A859B;" d="M78.966,183.63c-9.004-10.028-10.818-24.537-2.006-36.45c-0.043-0.591-0.028-24.262-0.028-24.858
		c0-58.614,41.444-107.723,96.566-119.584C165.19,0.95,156.575,0,147.742,0C80.293,0,25.42,54.873,25.42,122.321
		c0,0.595-0.016,24.266,0.028,24.858c-11.96,16.17-4.344,37.122,14.252,45.158c5.101,2.204,8.565,7.109,9.078,12.643
		c3.28,35.374,23.778,63.997,52.557,79.251c-14.442-29.996-15.286-56.817-13.598-73.63C88.723,200.771,85.566,190.98,78.966,183.63z
		"/>
</g>
<g>
</g>
<g>
</g>
<g>
</g>
<g>
</g>
<g>
</g>
<g>
</g>
<g>
</g>
<g>
</g>
<g>
</g>
<g>
</g>
<g>
</g>
<g>
</g>
<g>
</g>
<g>
</g>
<g>
</g>
</svg>
