<?xml version="1.0" encoding="iso-8859-1"?>
<!-- Generator: Adobe Illustrator 19.0.0, SVG Export Plug-In . SVG Version: 6.00 Build 0)  -->
<svg version="1.1" id="Capa_1" xmlns="http://www.w3.org/2000/svg" xmlns:xlink="http://www.w3.org/1999/xlink" x="0px" y="0px"
	 viewBox="0 0 512 512" style="enable-background:new 0 0 512 512;" xml:space="preserve">
<path style="fill:#768FA8;" d="M440.022,476.579l-21.854-109.757c-4.818-24.137-22.387-34.027-32.429-37.775
	c-0.413-0.152-63.322-18.697-63.743-18.822l-19.717-13.334v-12.519c29.529-15.536,50.808-45.42,53.083-82.765
	c0.225-3.706,2.576-7.002,6.086-8.211c20.55-7.085,29.521-29.272,16.984-46.217c0.043-0.593,0.028-24.262,0.028-24.857
	C378.458,54.873,323.586,0,256.138,0C188.69,0,133.816,54.873,133.816,122.321c0,0.595-0.015,24.266,0.028,24.858
	c-11.96,16.17-4.344,37.122,14.252,45.158c5.101,2.204,8.565,7.109,9.078,12.643c3.28,35.373,23.778,63.997,52.557,79.251v12.841
	l-19.245,13.014c-0.468,0.138-63.759,18.793-64.215,18.962c-10.044,3.746-27.612,13.636-32.432,37.779L71.985,476.579
	C69.607,488.551,73.133,512,102.321,512c39.371,0,273.062,0,307.365,0c10.719,0,18.893-3.154,24.295-9.375
	C439.988,495.707,441.677,484.846,440.022,476.579z"/>
<g>
	<path style="fill:#6A859B;" d="M123.496,476.579l21.855-128.299c3-15.026,10.938-24.529,18.927-30.467
		c-17.644,5.204-37.75,11.139-38.007,11.234c-10.044,3.746-27.612,13.636-32.432,37.779L71.985,476.579
		C69.607,488.551,73.133,512,102.321,512c8.847,0,27.509,0,51.513,0C124.644,512,121.12,488.551,123.496,476.579z"/>
	<path style="fill:#6A859B;" d="M187.363,183.63c-9.004-10.028-10.818-24.537-2.006-36.45c-0.043-0.591-0.028-24.262-0.028-24.858
		c0-58.614,41.444-107.723,96.566-119.584C273.587,0.95,264.973,0,256.138,0C188.69,0,133.816,54.873,133.816,122.321
		c0,0.595-0.016,24.266,0.028,24.858c-11.96,16.17-4.344,37.122,14.252,45.158c5.101,2.204,8.565,7.109,9.078,12.643
		c3.28,35.374,23.778,63.997,52.557,79.251c-14.442-29.996-15.286-56.817-13.598-73.63
		C197.12,200.771,193.963,190.98,187.363,183.63z"/>
</g>
<g>
</g>
<g>
</g>
<g>
</g>
<g>
</g>
<g>
</g>
<g>
</g>
<g>
</g>
<g>
</g>
<g>
</g>
<g>
</g>
<g>
</g>
<g>
</g>
<g>
</g>
<g>
</g>
<g>
</g>
</svg>
