<?xml version="1.0" encoding="iso-8859-1"?>
<!-- Generator: Adobe Illustrator 19.0.0, SVG Export Plug-In . SVG Version: 6.00 Build 0)  -->
<svg version="1.1" id="Capa_1" xmlns="http://www.w3.org/2000/svg" xmlns:xlink="http://www.w3.org/1999/xlink" x="0px" y="0px"
	 viewBox="0 0 512.001 512.001" style="enable-background:new 0 0 512.001 512.001;" xml:space="preserve">
<circle style="fill:#70BBEF;" cx="256.542" cy="69.837" r="69.826"/>
<path style="fill:#57ADDD;" d="M212.461,69.839c0-34.165,24.542-62.58,56.953-68.626c-43.212-8.061-82.709,25.103-82.709,68.626
	c0,43.516,39.486,76.686,82.709,68.626C237.003,132.419,212.461,104.003,212.461,69.839z"/>
<path style="fill:#EAE9E8;" d="M436.57,296.721c-12.357-68.914-63.434-124.566-129.84-143.541c-0.033,0.008-0.069,0.011-0.102,0.019
	c-32.617-9.299-67.558-9.301-100.183,0c-0.034-0.008-0.069-0.011-0.102-0.019C116.089,178.97,59.787,269.563,76.503,361.497
	c12.355,68.916,63.434,124.569,129.842,143.546c0.033-0.008,0.069-0.011,0.102-0.019c32.619,9.3,67.558,9.302,100.183,0
	c0.033,0.008,0.069,0.011,0.102,0.019C394.444,479.98,453.287,391.766,436.57,296.721z M256.602,476.474
	c-81.261,0-147.373-66.104-147.387-147.362c0.014-81.258,66.125-147.362,147.387-147.362c81.261,0,147.372,66.104,147.386,147.362
	C403.973,410.369,337.862,476.474,256.602,476.474z"/>
<g>
	<path style="fill:#DBDBDB;" d="M315.467,497.473c-67.048,16.569-139.043-6.304-184.04-59.945
		c-60.23-71.441-56.448-178.038,9.021-245.304c0.033-0.01,0.065-0.025,0.098-0.035c9.67-9.923,20.462-18.67,32.072-26.129
		c-17.816,9.054-34.155,20.981-48.159,35.353c-0.033,0.01-0.065,0.025-0.098,0.034c-65.469,67.266-69.25,173.863-9.021,245.303
		c44.998,53.64,116.991,76.514,184.04,59.945c0.025-0.024,0.054-0.044,0.079-0.067c19.476-4.825,38.023-12.9,54.838-23.702
		c-12.302,6.253-25.302,11.148-38.751,14.479C315.521,497.429,315.492,497.449,315.467,497.473z"/>
	<path style="fill:#DBDBDB;" d="M256.537,129.883V37.849l-6.402,13.286c-12.706,26.37-46.163,34.838-69.885,17.691l0,0
		c-2.963-2.142-6.813,1.12-5.187,4.395l26.093,56.663H256.537z"/>
</g>
<path style="fill:#CECECE;" d="M180.25,68.825L180.25,68.825c-2.963-2.142-6.813,1.12-5.187,4.395l26.093,56.663h36.401
	l-24.172-52.493C202.139,78.751,190.318,76.104,180.25,68.825z"/>
<path style="fill:#EAE9E8;" d="M256.537,129.883V37.849l6.401,13.286c12.706,26.37,46.163,34.838,69.885,17.691l0,0
	c2.963-2.142,6.813,1.12,5.187,4.395l-26.093,56.663H256.537z"/>
<path style="fill:#CECECE;" d="M303.476,153.577h-93.879c-7.681,0-13.908-6.226-13.908-13.908c0-7.681,6.226-13.908,13.908-13.908
	h93.879c7.681,0,13.908,6.226,13.908,13.908C317.384,147.351,311.158,153.577,303.476,153.577z"/>
<path style="fill:#C1BEBC;" d="M223.284,139.669c0-7.681,6.226-13.908,13.908-13.908h-27.595c-7.681,0-13.908,6.226-13.908,13.908
	s6.226,13.908,13.908,13.908h27.595C229.511,153.577,223.284,147.351,223.284,139.669z"/>
<g>
</g>
<g>
</g>
<g>
</g>
<g>
</g>
<g>
</g>
<g>
</g>
<g>
</g>
<g>
</g>
<g>
</g>
<g>
</g>
<g>
</g>
<g>
</g>
<g>
</g>
<g>
</g>
<g>
</g>
</svg>
