<?xml version="1.0" encoding="iso-8859-1"?>
<!-- Generator: Adobe Illustrator 19.0.0, SVG Export Plug-In . SVG Version: 6.00 Build 0)  -->
<svg version="1.1" id="Capa_1" xmlns="http://www.w3.org/2000/svg" xmlns:xlink="http://www.w3.org/1999/xlink" x="0px" y="0px"
	 viewBox="0 0 512 512" style="enable-background:new 0 0 512 512;" xml:space="preserve">
<path style="fill:#ED694A;" d="M292.968,384.409c10.134-7.835,22.163-12.664,34.901-14.007
	C429.585,359.67,484.087,272.579,510.9,207.52c4.108-9.968-3.85-20.74-14.585-19.733c-41.377,3.882-95.141,15.466-124.129,48.197
	c-22.315,25.196-42.856,40.801-58.962,50.403c-0.882,0.432-11.007,8.591-47.689,21.257c-16.588,6.543-49.091,15.178-99.351,11.015
	c-42.987-3.561-89.181,24.426-121.704,49.955c-8.493,6.666-6.831,19.982,3.035,24.366
	C111.844,421.562,211.799,447.17,292.968,384.409z"/>
<path style="fill:#D8553A;" d="M314.134,343.616c-12.738,1.344-24.768,6.172-34.901,14.007
	c-75.475,58.358-174.312,50.997-239.526,26.698c1.179,3.659,3.824,6.888,7.81,8.659c64.328,28.582,164.283,54.19,245.452-8.571
	c10.134-7.835,22.163-12.664,34.901-14.007c101.716-10.732,156.217-97.823,183.03-162.882c1.446-3.508,1.392-7.114,0.253-10.273
	C479.23,259.656,407.45,333.769,314.134,343.616z"/>
<path style="fill:#ED694A;" d="M499.976,150.906c9.473-0.821,12.233-13.407,3.945-18.065
	c-79.64-44.757-187.551-76.286-265.753,12.499c-9.325,10.588-23.195,16.155-37.254,14.951
	C83.325,150.227,27.135,247.095,0.451,334.32c-2.778,9.084,7.886,16.285,15.311,10.359c36.834-29.398,85.45-60.24,134.739-68.427
	c23.994-3.986,43.917-6.563,60.083-8.239l-0.002-0.003c63.847-6.472,95.588-39.173,98.895-41.406
	c11.782-9.092,26.296-19.72,44.059-31.837C395.333,166.253,452.691,155.001,499.976,150.906z"/>
<path style="fill:#D8553A;" d="M502.762,141.877c-47.284,4.095-122.157-5.258-163.952,23.257
	c-17.763,12.119-32.277,22.745-44.06,31.837c-3.307,2.233-35.048,34.933-98.895,41.405l0.002,0.003
	c-16.168,1.675-36.09,4.253-60.083,8.239c-49.289,8.187-90.693,63.755-127.527,93.153c-2.197,1.753-4.677,2.351-7.01,2.096
	c2.72,4.731,9.395,6.906,14.525,2.811c36.835-29.398,85.45-60.24,134.739-68.427c23.994-3.986,43.917-6.563,60.084-8.239
	l-0.003-0.003c63.847-6.472,95.588-39.172,98.895-41.405c11.782-9.092,26.296-19.72,44.06-31.837
	c41.797-28.516,99.154-39.768,146.438-43.863c6.38-0.553,9.708-6.442,8.673-11.653C507.176,140.68,505.191,141.667,502.762,141.877z
	"/>
<g>
</g>
<g>
</g>
<g>
</g>
<g>
</g>
<g>
</g>
<g>
</g>
<g>
</g>
<g>
</g>
<g>
</g>
<g>
</g>
<g>
</g>
<g>
</g>
<g>
</g>
<g>
</g>
<g>
</g>
</svg>
