<?xml version="1.0" encoding="iso-8859-1"?>
<!-- Generator: Adobe Illustrator 19.0.0, SVG Export Plug-In . SVG Version: 6.00 Build 0)  -->
<svg version="1.1" id="Capa_1" xmlns="http://www.w3.org/2000/svg" xmlns:xlink="http://www.w3.org/1999/xlink" x="0px" y="0px"
	 viewBox="0 0 512 512" style="enable-background:new 0 0 512 512;" xml:space="preserve">
<path style="fill:#EAE9E8;" d="M40.945,65.794C18.368,65.794,0,84.16,0,106.738v298.523c0,22.577,18.368,40.945,40.945,40.945
	h430.109c22.577,0,40.946-18.368,40.946-40.945V106.738c0-22.577-18.369-40.945-40.946-40.945
	C471.054,65.794,40.945,65.794,40.945,65.794z"/>
<path style="fill:#DBDBDB;" d="M51.513,405.262V106.738c0-22.577,18.367-40.945,40.945-40.945H40.945
	C18.367,65.794,0,84.16,0,106.738v298.523c0,22.577,18.367,40.945,40.945,40.945h51.513
	C69.879,446.206,51.513,427.839,51.513,405.262z"/>
<path id="SVGCleanerId_0" style="fill:#FC8B75;" d="M239.066,346.889L239.066,346.889c-13.143-14.273-53.889-58.526-62.702-68.098
	c-34.715-37.703-6.967-98.655,44.257-97.109c13.268,0.415,26.099,5.368,36.19,13.809c22.646-18.945,56.32-18.615,77.92,2.084
	c11.019,10.561,17.355,24.785,17.841,40.053c0.487,15.29-4.952,29.908-15.315,41.163l-62.619,68.007
	C265.108,357.148,248.708,357.252,239.066,346.889z"/>
<g>
	<path id="SVGCleanerId_0_1_" style="fill:#FC8B75;" d="M239.066,346.889L239.066,346.889
		c-13.143-14.273-53.889-58.526-62.702-68.098c-34.715-37.703-6.967-98.655,44.257-97.109c13.268,0.415,26.099,5.368,36.19,13.809
		c22.646-18.945,56.32-18.615,77.92,2.084c11.019,10.561,17.355,24.785,17.841,40.053c0.487,15.29-4.952,29.908-15.315,41.163
		l-62.619,68.007C265.108,357.148,248.708,357.252,239.066,346.889z"/>
</g>
<path style="fill:#EA7363;" d="M264.822,333.495c-13.143-14.273-53.888-58.526-62.702-68.098
	c-23.666-25.702-18.297-62.204,3.744-82.35c-41.43,9.173-60.709,61.848-29.501,95.743c8.814,9.572,49.561,53.825,62.702,68.098
	c9.642,10.363,26.042,10.259,35.571-0.09l5.276-5.73C274.357,340.463,268.965,337.948,264.822,333.495z"/>
<path style="fill:#ED694A;" d="M196.827,259.949l53.031,57.593c3.743,4.066,10.163,4.066,13.906,0l53.031-57.593
	c11.067-12.019,10.479-30.992-1.31-42.291l0,0c-12.326-11.812-32.239-10.536-43.665,1.874c-1.256,1.006-5.582,8.246-15.009,8.246
	c-9.435,0-13.63-7.142-15.009-8.247c-5.637-6.122-13.674-9.783-22.048-10.045C192.891,208.67,178.985,240.572,196.827,259.949z"/>
<path style="fill:#D8553A;" d="M219.965,241.061c-8.47-9.198-9.775-21.213-5.948-31.217c-23.002,3.5-33.712,32.162-17.191,50.105
	l53.031,57.593c3.743,4.066,10.163,4.066,13.906,0l14.702-15.966C272.534,300.639,275.796,300.567,219.965,241.061z"/>
<path style="fill:#DBDBDB;" d="M256.811,195.491c33.517-28.04,84.695-11.303,94.33,30.98l160.644-123.941
	c-2.114-20.607-19.574-36.736-40.731-36.736H40.945c-21.156,0-38.615,16.129-40.73,36.736L162.26,227.551
	C171.289,184.13,223.209,167.384,256.811,195.491z"/>
<path style="fill:#CECECE;" d="M0.215,102.529l51.297,39.577v-35.368c0-22.577,18.367-40.945,40.945-40.945H40.945
	C20.066,65.794,2.447,81.571,0.215,102.529z"/>
<path style="fill:#DBDBDB;" d="M334.675,281.597l-60.036,65.201c-9.732,10.569-26.322,10.265-35.686-0.034
	c-2.652-2.88-49.908-54.201-60.68-65.9L1.741,417.065c5.08,16.84,20.728,29.142,39.204,29.142h430.109
	c18.475,0,34.124-12.302,39.205-29.142L334.675,281.597z"/>
<path style="fill:#CECECE;" d="M51.513,405.262v-26.597l-49.771,38.4c5.205,17.218,21.119,29.142,39.204,29.142H92.45
	C69.875,446.202,51.513,427.837,51.513,405.262z"/>
<g>
</g>
<g>
</g>
<g>
</g>
<g>
</g>
<g>
</g>
<g>
</g>
<g>
</g>
<g>
</g>
<g>
</g>
<g>
</g>
<g>
</g>
<g>
</g>
<g>
</g>
<g>
</g>
<g>
</g>
</svg>
