<?xml version="1.0" encoding="iso-8859-1"?>
<!-- Generator: Adobe Illustrator 19.0.0, SVG Export Plug-In . SVG Version: 6.00 Build 0)  -->
<svg version="1.1" id="Capa_1" xmlns="http://www.w3.org/2000/svg" xmlns:xlink="http://www.w3.org/1999/xlink" x="0px" y="0px"
	 viewBox="0 0 512.001 512.001" style="enable-background:new 0 0 512.001 512.001;" xml:space="preserve">
<path style="fill:#F99DB6;" d="M278.046,36.407c-80.689,15.916-169.077,51.466-208.415,87.127c-4.525,4.102-0.13,11.106,5.218,8.155
	c49.15-27.124,114.589-46.606,181.215-55.52C258.741,61.172,266.07,47.32,278.046,36.407z"/>
<g>
	<path style="fill:#F9B2C8;" d="M72.107,129.186c37.438-31.01,115.946-60.085,191.348-74.213
		c3.677-6.784,8.539-13.051,14.591-18.565c-80.689,15.915-169.078,51.465-208.415,87.126c-3.079,2.79-2.025,6.918,0.645,8.346
		C70.567,130.919,71.145,129.984,72.107,129.186z"/>
	<path style="fill:#F9B2C8;" d="M495.394,283.027c-50.189,39.578-121.7,70.858-198.035,90.025l-59.169,64.26
		c97.814-23.818,200.091-67.579,268.212-142.241C513.182,287.64,503.292,276.797,495.394,283.027z"/>
</g>
<path style="fill:#F99DB6;" d="M505.623,283.18c-63.544,65.302-153.922,104.98-243.076,127.677l-24.358,26.453
	c97.814-23.818,200.091-67.579,268.212-142.241C510.108,291.009,508.829,285.935,505.623,283.18z"/>
<path style="fill:#F96989;" d="M456.096,18.707c-20.442-5.661-49.29,3.076-63.818,18.854c-4.526,4.889-4.484,4.927-5.149,5.511
	c-3.294,2.889-8.161,3.119-11.7,0.622c-4.231-2.98-9.145-13.438-29.144-21.353c-8.862-3.511-18.837-5.562-28.329-5.351
	c-22.054,0.489-49.814,16.088-61.763,42.207c-7.451,16.283-8.43,34.886-2.776,51.839c6.074,18.204,14.217,24.554,46.013,59.086
	l65.242,70.855c10.073,10.939,9.833,10.91,11.595,11.891c3.755,2.094,8.573,1.42,11.598-1.866l10.613-11.524l0.001-0.002
	l78.468-85.218c15.287-16.947,26.095-25.313,32.078-45.351C519.898,72.492,500.696,31.055,456.096,18.707z"/>
<path style="fill:#ED5A81;" d="M350.94,150.55c-31.795-34.532-39.938-40.883-46.013-59.086c-5.654-16.952-4.674-35.556,2.776-51.839
	c3.985-8.711,9.734-16.244,16.437-22.444c-2.073-0.156-4.141-0.235-6.185-0.19c-22.054,0.489-49.814,16.088-61.763,42.207
	c-7.451,16.283-8.43,34.886-2.776,51.839c6.074,18.204,14.217,24.554,46.013,59.086l65.242,70.855
	c10.073,10.939,9.833,10.91,11.595,11.891c3.755,2.094,8.573,1.42,11.598-1.866l10.613-11.524l0.001-0.002l17.175-18.651
	L350.94,150.55z"/>
<path style="fill:#F96989;" d="M271.567,163.528c-21.891-3.211-52.143,7.994-67.129,24.27l-10.88,11.816
	c-5.516,5.991-14.972,5.991-20.488,0l-10.88-11.816c-14.987-16.277-45.238-27.482-67.129-24.27
	c-95.44,14-120.175,112.613-68.938,168.259c3.54,3.845,147.978,160.711,145.642,158.174c6.218,6.753,16.879,6.753,23.097,0
	c7.129-7.742,138.517-150.436,145.642-158.174C391.74,276.141,367.007,177.528,271.567,163.528z"/>
<path style="fill:#ED5A81;" d="M77.632,304.331C41.119,264.675,43.2,203.207,81.946,166.083
	C-2.557,186.798-22.682,278.782,26.122,331.787c3.484,3.783,143.434,155.775,145.642,158.175c6.218,6.752,16.879,6.752,23.097,0
	c1.873-2.034,12.328-13.389,26.846-29.157C206.192,443.952,80.926,307.908,77.632,304.331z"/>
<g>
</g>
<g>
</g>
<g>
</g>
<g>
</g>
<g>
</g>
<g>
</g>
<g>
</g>
<g>
</g>
<g>
</g>
<g>
</g>
<g>
</g>
<g>
</g>
<g>
</g>
<g>
</g>
<g>
</g>
</svg>
