<?xml version="1.0" encoding="iso-8859-1"?>
<!-- Generator: Adobe Illustrator 19.0.0, SVG Export Plug-In . SVG Version: 6.00 Build 0)  -->
<svg version="1.1" id="Capa_1" xmlns="http://www.w3.org/2000/svg" xmlns:xlink="http://www.w3.org/1999/xlink" x="0px" y="0px"
	 viewBox="0 0 512 512" style="enable-background:new 0 0 512 512;" xml:space="preserve">
<path style="fill:#F96989;" d="M469.531,66.816c-55.907-53.58-146.114-49.168-198.567,7.798l-8.028,8.718
	c-3.719,4.039-10.096,4.039-13.815,0l-8.028-8.718c-52.452-56.966-142.66-61.379-198.567-7.798
	c-54.091,51.839-56.975,137.674-5.994,193.043c6.647,7.218,186.973,203.062,195.751,212.594
	c12.785,13.884,34.704,13.884,47.489-0.001c9.128-9.912,186.687-202.75,195.75-212.593
	C526.507,204.49,523.622,118.656,469.531,66.816z"/>
<path style="fill:#ED5A81;" d="M283.794,450.785c0.343,0.372,0.323,0.351-0.002-0.002C275.014,441.25,94.687,245.407,88.04,238.188
	c-50.982-55.37-48.098-141.204,5.994-193.044c5.199-4.983,10.696-9.461,16.43-13.445C6.83,51.825-36.927,180.077,36.534,259.86
	c6.647,7.218,186.973,203.062,195.751,212.594c12.785,13.884,34.704,13.884,47.489-0.001c1.316-1.429,6.136-6.664,13.44-14.598
	C289.769,456.151,286.566,453.796,283.794,450.785z"/>
<path style="fill:#F4A32C;" d="M222.612,363.238c-43.937-9.397-78.398-43.858-87.794-87.794c-0.578-2.706-4.459-2.705-5.037,0
	c-9.396,43.937-43.857,78.397-87.793,87.794c-1.187,0.253-2.037,1.303-2.037,2.518s0.849,2.264,2.037,2.518
	c43.937,9.397,78.398,43.858,87.793,87.794c0.255,1.188,1.304,2.037,2.519,2.037c1.215,0,2.264-0.849,2.519-2.037
	c9.396-43.937,43.858-78.397,87.794-87.794C225.317,367.696,225.316,363.815,222.612,363.238z"/>
<path style="fill:#E89528;" d="M86.478,342.999c-12.963,9.706-28.065,16.726-44.492,20.239c-1.187,0.253-2.037,1.303-2.037,2.518
	s0.849,2.264,2.037,2.518c43.937,9.397,78.398,43.858,87.793,87.794c0.255,1.188,1.304,2.037,2.519,2.037
	c1.215,0,2.264-0.849,2.519-2.037c3.45-16.129,10.287-30.973,19.722-43.777C143.291,380.249,118.257,354.791,86.478,342.999z"/>
<path style="fill:#F4D44E;" d="M410.947,177.305c-21.384-8.019-38.247-24.881-46.264-46.264c-0.377-1.005-1.338-1.671-2.412-1.671
	s-2.035,0.666-2.412,1.671c-8.018,21.383-24.88,38.246-46.263,46.264c-2.223,0.835-2.222,3.989,0,4.822
	c21.383,8.018,38.246,24.88,46.263,46.263c0.834,2.222,3.99,2.222,4.822,0c8.019-21.384,24.881-38.246,46.263-46.263
	c1.006-0.378,1.671-1.338,1.671-2.412C412.616,178.641,411.952,177.682,410.947,177.305z"/>
<path style="fill:#E8C842;" d="M339.032,161.752c-7.336,6.674-15.936,11.99-25.437,15.552c-2.223,0.835-2.222,3.989,0,4.822
	c21.383,8.018,38.246,24.88,46.263,46.263c0.834,2.222,3.99,2.222,4.822,0c3.561-9.497,8.873-18.093,15.544-25.428
	C372.245,184.479,357.514,169.741,339.032,161.752z"/>
<g>
	<path style="fill:#F4D44E;" d="M153.09,201.383c-3.163,3.258-2.85,8.085,0,10.93c5.357,5.357,14.573,0.516,13.041-6.974
		C165.054,199.571,157.724,196.879,153.09,201.383z"/>
	<path style="fill:#F4D44E;" d="M221.398,246.511h-8.756v-8.756c0-4.267-3.459-7.726-7.726-7.726c-4.267,0-7.726,3.459-7.726,7.726
		v8.756h-8.756c-4.267,0-7.726,3.459-7.726,7.726c0,4.267,3.459,7.726,7.726,7.726h8.756v8.756c0,4.267,3.459,7.726,7.726,7.726
		c4.267,0,7.726-3.459,7.726-7.726v-8.756h8.756c4.267,0,7.726-3.459,7.726-7.726C229.124,249.969,225.665,246.511,221.398,246.511z
		"/>
</g>
<g>
</g>
<g>
</g>
<g>
</g>
<g>
</g>
<g>
</g>
<g>
</g>
<g>
</g>
<g>
</g>
<g>
</g>
<g>
</g>
<g>
</g>
<g>
</g>
<g>
</g>
<g>
</g>
<g>
</g>
</svg>
