<?xml version="1.0" encoding="iso-8859-1"?>
<!-- Generator: Adobe Illustrator 19.0.0, SVG Export Plug-In . SVG Version: 6.00 Build 0)  -->
<svg version="1.1" id="Capa_1" xmlns="http://www.w3.org/2000/svg" xmlns:xlink="http://www.w3.org/1999/xlink" x="0px" y="0px"
	 viewBox="0 0 512.001 512.001" style="enable-background:new 0 0 512.001 512.001;" xml:space="preserve">
<path style="fill:#F96989;" d="M339.374,211.245c-40.414-38.733-105.623-35.542-143.54,5.637l-5.803,6.302
	c-2.688,2.92-7.298,2.92-9.986,0l-5.803-6.302c-37.917-41.179-103.126-44.37-143.54-5.637
	c-39.101,37.474-41.186,99.521-4.332,139.548c6.007,6.524,147.484,160.175,141.504,153.68c9.242,10.038,25.087,10.038,34.329,0
	c6.598-7.166,134.953-146.564,141.504-153.68C380.561,310.766,378.476,248.719,339.374,211.245z"/>
<path style="fill:#ED5A81;" d="M77.881,337.399c-36.854-40.025-34.769-102.073,4.332-139.548
	c5.668-5.432,11.823-10.039,18.323-13.832c-25.15-0.357-50.368,8.57-69.835,27.225c-39.101,37.474-41.186,99.521-4.332,139.548
	c5.758,6.253,136.013,147.716,141.504,153.681c9.242,10.037,25.087,10.037,34.329,0c1.227-1.333,6.672-7.246,14.758-16.027
	C198.105,467.968,83.279,343.262,77.881,337.399z"/>
<path style="fill:#F96989;" d="M494.373,15.641c-23.205-22.239-60.646-20.408-82.417,3.236l-3.332,3.618
	c-1.544,1.676-4.19,1.676-5.734,0l-3.332-3.618c-21.772-23.644-59.213-25.476-82.417-3.236
	c-22.451,21.517-23.648,57.143-2.488,80.124c3.449,3.745,84.681,91.969,81.249,88.239c5.306,5.763,14.404,5.763,19.712,0
	c3.788-4.114,77.486-84.153,81.249-88.239C518.021,72.783,516.824,37.157,494.373,15.641z"/>
<path style="fill:#ED5A81;" d="M366.166,86.149c-21.16-22.982-19.963-58.607,2.488-80.124c1.365-1.308,2.782-2.525,4.239-3.667
	c-19.07-5.556-40.49-1.345-55.752,13.283c-22.451,21.517-23.648,57.143-2.488,80.124c3.449,3.745,84.681,91.968,81.249,88.239
	c5.306,5.763,14.404,5.763,19.712,0c1.204-1.309,9.482-10.298,20.328-22.077C414.092,138.201,368.725,88.929,366.166,86.149z"/>
<g>
</g>
<g>
</g>
<g>
</g>
<g>
</g>
<g>
</g>
<g>
</g>
<g>
</g>
<g>
</g>
<g>
</g>
<g>
</g>
<g>
</g>
<g>
</g>
<g>
</g>
<g>
</g>
<g>
</g>
</svg>
