<?xml version="1.0" encoding="iso-8859-1"?>
<!-- Generator: Adobe Illustrator 19.0.0, SVG Export Plug-In . SVG Version: 6.00 Build 0)  -->
<svg version="1.1" id="Capa_1" xmlns="http://www.w3.org/2000/svg" xmlns:xlink="http://www.w3.org/1999/xlink" x="0px" y="0px"
	 viewBox="0 0 512 512" style="enable-background:new 0 0 512 512;" xml:space="preserve">
<path style="fill:#F96989;" d="M376.305,203.399c-31.503-29.521-82.333-27.09-111.889,4.297l-4.523,4.803
	c-2.095,2.226-5.689,2.226-7.785,0l-4.523-4.803c-29.556-31.387-80.386-33.818-111.889-4.297
	c-30.479,28.562-32.104,75.853-3.377,106.36c4.682,4.972,114.964,122.081,110.302,117.132c7.205,7.651,19.556,7.651,26.76,0
	c5.143-5.461,105.195-111.708,110.302-117.132C408.41,279.252,406.784,231.96,376.305,203.399z"/>
<path style="fill:#ED5A81;" d="M182.321,299.654c-28.728-30.507-27.102-77.798,3.377-106.36c4.16-3.898,8.664-7.223,13.404-10.014
	c-22.461-2.8-45.913,3.725-63.407,20.118c-30.479,28.562-32.104,75.853-3.377,106.36c4.494,4.772,106.248,112.827,110.302,117.132
	c7.205,7.65,19.556,7.65,26.76,0c1.186-1.259,7.427-7.886,16.379-17.393C262.071,384.342,186.188,303.76,182.321,299.654z"/>
<g>
	<path style="fill:#F99DB6;" d="M429.188,206.455c-4.142,0-7.5-3.283-7.5-7.334c0-17.338-14.426-31.443-32.158-31.443
		c-4.142,0-7.5-3.283-7.5-7.334c0-4.051,3.358-7.334,7.5-7.334c26.004,0,47.159,20.685,47.159,46.111
		C436.689,203.173,433.331,206.455,429.188,206.455z"/>
	<path style="fill:#F99DB6;" d="M468.045,206.455c-4.142,0-7.5-3.283-7.5-7.334c0-38.287-31.857-69.437-71.016-69.437
		c-4.142,0-7.5-3.283-7.5-7.334c0-4.051,3.358-7.334,7.5-7.334c47.43,0,86.017,37.729,86.017,84.105
		C475.546,203.173,472.188,206.455,468.045,206.455z"/>
	<path style="fill:#F99DB6;" d="M504.5,206.455c-4.142,0-7.5-3.283-7.5-7.334c0-57.942-48.211-105.082-107.47-105.082
		c-4.142,0-7.5-3.283-7.5-7.334c0-4.051,3.358-7.334,7.5-7.334C457.06,79.372,512,133.092,512,199.121
		C512,203.173,508.642,206.455,504.5,206.455z"/>
	<path style="fill:#F99DB6;" d="M82.812,206.455c-4.142,0-7.5-3.283-7.5-7.334c0-25.426,21.156-46.111,47.158-46.111
		c4.142,0,7.5,3.283,7.5,7.334c0,4.051-3.358,7.334-7.5,7.334c-17.732,0-32.158,14.105-32.158,31.443
		C90.312,203.173,86.954,206.455,82.812,206.455z"/>
	<path style="fill:#F99DB6;" d="M43.954,206.455c-4.142,0-7.5-3.283-7.5-7.334c0-46.376,38.587-84.105,86.017-84.105
		c4.142,0,7.5,3.283,7.5,7.334s-3.358,7.334-7.5,7.334c-39.159,0-71.016,31.149-71.016,69.437
		C51.455,203.173,48.097,206.455,43.954,206.455z"/>
	<path style="fill:#F99DB6;" d="M7.5,206.455c-4.142,0-7.5-3.283-7.5-7.334c0-66.03,54.94-119.749,122.471-119.749
		c4.142,0,7.5,3.283,7.5,7.334c0,4.051-3.358,7.334-7.5,7.334c-59.259,0-107.47,47.14-107.47,105.082
		C15.001,203.173,11.643,206.455,7.5,206.455z"/>
</g>
<g>
</g>
<g>
</g>
<g>
</g>
<g>
</g>
<g>
</g>
<g>
</g>
<g>
</g>
<g>
</g>
<g>
</g>
<g>
</g>
<g>
</g>
<g>
</g>
<g>
</g>
<g>
</g>
<g>
</g>
</svg>
