<?xml version="1.0" encoding="iso-8859-1"?>
<!-- Generator: Adobe Illustrator 19.0.0, SVG Export Plug-In . SVG Version: 6.00 Build 0)  -->
<svg version="1.1" id="Capa_1" xmlns="http://www.w3.org/2000/svg" xmlns:xlink="http://www.w3.org/1999/xlink" x="0px" y="0px"
	 viewBox="0 0 512 512" style="enable-background:new 0 0 512 512;" xml:space="preserve">
<path style="fill:#F9B2C8;" d="M184.92,459.046L45.186,307.289C14.671,274.15-1.345,231.103,0.089,186.08
	C4.175,57.653,143.18-20.432,255.999,43.758c110.783-63.029,251.756,11.887,255.912,142.321
	c1.435,45.023-14.581,88.071-45.099,121.213L325.673,460.574C289.737,499.609,225.585,503.519,184.92,459.046z"/>
<path style="fill:#F99DB6;" d="M223.343,429.526L83.646,277.736c-30.507-33.148-46.512-76.198-45.067-121.221
	c1.459-45.499,19.863-84.662,48.023-113.429C37.607,70.725,2.158,122.143,0.109,186.04c-1.445,45.023,14.56,88.073,45.067,121.221
	l139.697,151.79c40.654,44.482,104.808,40.588,140.753,1.562l6.148-6.673C296.812,468.928,253.58,462.611,223.343,429.526z"/>
<path style="fill:#F96989;" d="M80.221,275.031c135.652,147.316,5.657,6.142,141.325,153.482
	c18.576,19.955,50.44,20.06,69.092-0.196l141.141-153.284c22.014-23.908,33.567-54.959,32.532-87.437
	c-3.167-99.473-114.951-151.861-194.675-96.178c-8.19,5.723-19.08,5.72-27.27,0c-20.095-14.036-43.667-21.86-68.168-22.625
	C64.697,65.297,7.181,195.704,80.221,275.031z"/>
<g>
	<path style="fill:#ED5A81;" d="M262.068,401.727c-135.668-147.34-5.673-6.166-141.325-153.482
		c-48.362-52.525-39.472-127.432,3.833-171.047C49.276,106.984,19.24,208.801,80.221,275.031
		c135.652,147.316,5.657,6.142,141.325,153.482c18.576,19.954,50.44,20.06,69.091-0.196l10.941-11.882
		C287.355,417.952,272.583,413.022,262.068,401.727z"/>
	<path style="fill:#ED5A81;" d="M115.257,242.772c4.852,5.27,98.327,106.788,130.526,141.758c5.503,5.977,14.933,5.972,20.436-0.004
		l130.522-141.753c44.463-48.289,10.295-128.462-57.454-126.378c-20.885,0.653-40.931,9.791-55.001,25.071
		c-3.254,2.659-10.845,16.154-28.287,16.154c-0.23-0.049-12.827,0.636-22.498-9.866c-2.684-2.066-21.703-30.135-60.79-31.358
		C104.666,114.295,70.938,194.634,115.257,242.772z"/>
</g>
<path style="fill:#DD4A78;" d="M284.933,356.714c-32.199-34.969-125.673-136.488-130.526-141.758
	c-26.271-28.535-25.116-68.382-5.648-95.668c-51.339,14.706-72.248,81.4-33.5,123.485c4.852,5.27,98.327,106.788,130.526,141.758
	c5.503,5.977,14.933,5.972,20.436-0.005l22.807-24.769C287.531,359.021,286.135,358.019,284.933,356.714z"/>
<g>
</g>
<g>
</g>
<g>
</g>
<g>
</g>
<g>
</g>
<g>
</g>
<g>
</g>
<g>
</g>
<g>
</g>
<g>
</g>
<g>
</g>
<g>
</g>
<g>
</g>
<g>
</g>
<g>
</g>
</svg>
