<?xml version="1.0" encoding="iso-8859-1"?>
<!-- Generator: Adobe Illustrator 19.0.0, SVG Export Plug-In . SVG Version: 6.00 Build 0)  -->
<svg version="1.1" id="Capa_1" xmlns="http://www.w3.org/2000/svg" xmlns:xlink="http://www.w3.org/1999/xlink" x="0px" y="0px"
	 viewBox="0 0 512.001 512.001" style="enable-background:new 0 0 512.001 512.001;" xml:space="preserve">
<path style="fill:#FC8B75;" d="M223.12,470.274L223.12,470.274C210.899,457.003,50.702,283.021,38.27,269.519
	C-15.013,211.65-12.419,121.673,44.56,67.066c59.536-57.06,153.974-50.753,208.075,8.005L256,78.725l3.366-3.654
	c54.112-58.769,148.546-65.055,208.074-8.004l0,0c56.559,54.205,59.961,144.163,6.29,202.453
	c-4.802,5.215-59.746,64.887-108.51,117.846l-76.106,82.653C271.434,489.219,241.038,489.428,223.12,470.274z"/>
<path style="fill:#EA7363;" d="M246.816,451.731l-0.001,0.001c-12.222-13.273-172.419-187.255-184.85-200.756
	C8.838,193.276,11.267,103.66,67.76,49.008c-8.161,5.093-15.941,11.101-23.2,18.058c-56.978,54.607-59.572,144.584-6.289,202.453
	C50.702,283.021,210.9,457.004,223.12,470.275l0.001-0.001c17.917,19.153,48.312,18.945,65.992-0.255l6.312-6.855
	C279.011,469.26,259.691,465.495,246.816,451.731z"/>
<path style="fill:#ED694A;" d="M244.328,450.279c6.271,6.807,17.03,6.854,23.345-0.003c8.454-9.181,177.181-192.426,184.616-200.5
	c42.798-46.483,40.219-118.316-5.016-161.67l0,0c-47.649-45.664-123.34-40.133-166.467,6.705l-7.572,8.223
	c-9.273,10.069-25.198,10.067-34.468-0.001c-3.48-2.655-32.413-44.519-91.191-46.356C44.312,53.413-8.339,175.867,59.711,249.777
	l71.402,77.545c50.056,54.363,108.716,118.071,113.178,122.916c0.011,0.012,0.023,0.025,0.034,0.037l0,0L244.328,450.279z"/>
<path style="fill:#D8553A;" d="M182.622,311.184l-71.401-77.546c-52.014-56.491-33.508-141.338,24.21-176.736
	C40.3,63.16-5.614,178.826,59.711,249.778l71.401,77.545c50.056,54.363,108.716,118.071,113.178,122.916
	c0.011,0.012,0.023,0.025,0.034,0.037l0.002,0.003c6.271,6.807,17.031,6.854,23.345-0.003c1.68-1.825,9.695-10.53,21.512-23.363
	C271.735,407.965,224.211,356.351,182.622,311.184z"/>
<g>
</g>
<g>
</g>
<g>
</g>
<g>
</g>
<g>
</g>
<g>
</g>
<g>
</g>
<g>
</g>
<g>
</g>
<g>
</g>
<g>
</g>
<g>
</g>
<g>
</g>
<g>
</g>
<g>
</g>
</svg>
