<?xml version="1.0" encoding="iso-8859-1"?>
<!-- Generator: Adobe Illustrator 19.0.0, SVG Export Plug-In . SVG Version: 6.00 Build 0)  -->
<svg version="1.1" id="Capa_1" xmlns="http://www.w3.org/2000/svg" xmlns:xlink="http://www.w3.org/1999/xlink" x="0px" y="0px"
	 viewBox="0 0 512.001 512.001" style="enable-background:new 0 0 512.001 512.001;" xml:space="preserve">
<path style="fill:#9CD7F2;" d="M221.339,470.183L221.339,470.183C209.227,456.84,50.457,281.928,38.136,268.354
	c-52.808-58.179-49.578-148.031,7.72-202.168c59.871-56.569,154.15-49.598,207.771,9.474l3.335,3.673l3.388-3.626
	c54.465-58.314,148.832-63.922,207.883-6.516l0,0c56.107,54.543,58.865,144.417,4.844,202.257
	c-4.833,5.175-60.136,64.385-109.218,116.934l-76.603,82.014C269.46,489.449,239.099,489.441,221.339,470.183z"/>
<path style="fill:#71C5DB;" d="M246.528,451.901l-0.001,0.001C234.32,438.645,74.309,264.865,61.893,251.379
	C8.827,193.748,11.254,104.236,67.681,49.647c-8.151,5.087-15.923,11.088-23.173,18.037
	c-56.912,54.543-59.503,144.416-6.282,202.217c12.417,13.485,172.428,187.265,184.635,200.523l0.001-0.001
	c17.896,19.13,48.256,18.923,65.915-0.255l6.304-6.847C278.686,469.41,259.389,465.649,246.528,451.901z"/>
<path style="fill:#57ADDD;" d="M244.043,450.451c6.263,6.799,17.011,6.846,23.317-0.003
	c8.443-9.171,176.975-192.201,184.401-200.266c42.747-46.429,40.171-118.178-5.01-161.48l0,0
	c-47.593-45.611-123.196-40.086-166.272,6.697l-7.563,8.213c-9.262,10.057-25.169,10.055-34.428-0.001
	c-3.475-2.652-32.376-44.468-91.085-46.301C44.262,54.047-8.328,176.36,59.642,250.183l71.319,77.455
	c49.998,54.299,108.589,117.933,113.047,122.773c0.011,0.012,0.023,0.025,0.034,0.037l0,0L244.043,450.451z"/>
<path style="fill:#399DC9;" d="M182.409,311.518l-71.318-77.455C59.139,177.636,77.623,92.888,135.273,57.532
	c-95.02,6.251-140.88,121.783-75.631,192.651l71.318,77.455c49.998,54.3,108.59,117.933,113.047,122.773
	c0.011,0.012,0.023,0.025,0.034,0.037l0.002,0.003c6.263,6.799,17.011,6.846,23.318-0.003c1.678-1.823,9.684-10.517,21.487-23.336
	C271.419,408.185,223.95,356.632,182.409,311.518z"/>
<g>
</g>
<g>
</g>
<g>
</g>
<g>
</g>
<g>
</g>
<g>
</g>
<g>
</g>
<g>
</g>
<g>
</g>
<g>
</g>
<g>
</g>
<g>
</g>
<g>
</g>
<g>
</g>
<g>
</g>
</svg>
