<?xml version="1.0" encoding="iso-8859-1"?>
<!-- Generator: Adobe Illustrator 19.0.0, SVG Export Plug-In . SVG Version: 6.00 Build 0)  -->
<svg version="1.1" id="Capa_1" xmlns="http://www.w3.org/2000/svg" xmlns:xlink="http://www.w3.org/1999/xlink" x="0px" y="0px"
	 viewBox="0 0 511.96 511.96" style="enable-background:new 0 0 511.96 511.96;" xml:space="preserve">
<circle style="fill:#F4D44E;" cx="256" cy="255.961" r="255.96"/>
<path style="fill:#E8C842;" d="M172.632,451.87C11.147,358.636,1.399,130.346,150.737,22.644
	C103.485,43.916,62.224,79.677,34.334,127.982c-70.68,122.423-28.735,278.964,93.687,349.645
	c90.078,52.007,198.625,43.033,277.852-14.105C333.369,496.159,246.75,494.662,172.632,451.87z"/>
<g>
	<path style="fill:#656566;" d="M298.717,356.808h-85.436c-4.268,0-7.727,3.46-7.727,7.727s3.459,7.727,7.727,7.727h85.436
		c4.268,0,7.727-3.46,7.727-7.727S302.986,356.808,298.717,356.808z"/>
	<path style="fill:#656566;" d="M350.428,234.896c-3.545-2.376-8.344-1.428-10.72,2.116c-7.884,11.762-19.169,11.89-27.14,0
		c-2.376-3.545-7.176-4.492-10.72-2.116c-3.545,2.377-4.492,7.176-2.116,10.721c13.996,20.884,38.718,21.028,52.811,0
		C354.919,242.072,353.971,237.272,350.428,234.896z"/>
	<path style="fill:#656566;" d="M207.939,235.05c-3.545-2.377-8.344-1.429-10.72,2.115c-7.886,11.763-19.168,11.89-27.141,0
		c-2.378-3.546-7.179-4.493-10.72-2.115c-3.546,2.376-4.492,7.176-2.116,10.721c14,20.885,38.717,21.027,52.812,0
		C212.432,242.226,211.485,237.426,207.939,235.05z"/>
	<path style="fill:#656566;" d="M371.936,189.535c-17.629,4.811-35.5,2.82-50.319-5.608c-3.712-2.11-8.428-0.813-10.537,2.897
		c-2.11,3.709-0.813,8.426,2.897,10.537c18.032,10.254,40.007,13.093,62.028,7.083c4.117-1.123,6.544-5.371,5.42-9.489
		C380.301,190.837,376.047,188.413,371.936,189.535z"/>
	<path style="fill:#656566;" d="M198.024,197.36c3.709-2.11,5.007-6.827,2.897-10.537c-2.11-3.711-6.827-5.007-10.537-2.897
		c-14.818,8.427-32.689,10.419-50.319,5.608c-4.114-1.122-8.364,1.303-9.489,5.42s1.303,8.365,5.42,9.489
		c7.645,2.087,15.343,3.119,22.915,3.119C172.734,207.562,186.139,204.12,198.024,197.36z"/>
</g>
<g>
</g>
<g>
</g>
<g>
</g>
<g>
</g>
<g>
</g>
<g>
</g>
<g>
</g>
<g>
</g>
<g>
</g>
<g>
</g>
<g>
</g>
<g>
</g>
<g>
</g>
<g>
</g>
<g>
</g>
</svg>
