<?xml version="1.0" encoding="iso-8859-1"?>
<!-- Generator: Adobe Illustrator 19.0.0, SVG Export Plug-In . SVG Version: 6.00 Build 0)  -->
<svg version="1.1" id="Capa_1" xmlns="http://www.w3.org/2000/svg" xmlns:xlink="http://www.w3.org/1999/xlink" x="0px" y="0px"
	 viewBox="0 0 512 512" style="enable-background:new 0 0 512 512;" xml:space="preserve">
<path style="fill:#656566;" d="M59.354,20.402c-26.569,26.569-26.568,69.799,0,96.368l58.982,60.012
	c9.536-4.821,18.082-13.08,23.199-23.199L82.554,93.571c-13.777-13.777-13.777-36.194,0-49.971
	c14.411-14.411,37.859-14.41,52.27,0.001c6.407,6.407,16.793,6.407,23.199,0s6.407-16.793,0-23.199
	C130.82-6.8,86.557-6.801,59.354,20.402z"/>
<path style="fill:#545456;" d="M71.375,106.467c-25.969-25.969-26.54-67.845-1.745-94.533c-3.622,2.45-7.07,5.262-10.275,8.467
	C32.785,46.97,32.786,90.2,59.355,116.769l58.982,60.012c4.641-2.347,9.038-5.517,12.928-9.31
	C59.837,94.715,73.002,108.125,71.375,106.467z"/>
<path style="fill:#F96989;" d="M204.6,78.633c-4.773,0.366-8.729,3.729-9.93,8.363c-5.162,19.913-22.558,34.708-43.596,36.149
	c-3.317,0.227-5.955,2.871-6.091,6.193c-1.091,26.607-22.714,48.725-49.819,49.859c-3.346,0.14-6.006,2.794-6.237,6.135
	c-1.531,22.088-17.781,40.162-39.249,44.251c-3.023,0.576-5.165,3.279-5.152,6.357c0.041,9.558-4.162,21.246-9.333,30.669
	c-2.15,3.919-0.588,8.842,3.391,10.878l367.711,188.125l0.496,0.496c2.003-3.493,3.596-4.244,12.105-12.999
	c8.803-8.555,9.504-10.1,12.999-12.105l-0.496-0.496L243.253,72.763c-2.026-3.96-6.928-5.517-10.826-3.375
	C223.924,74.059,213.57,77.944,204.6,78.633z"/>
<g>
	<path style="fill:#ED5A81;" d="M77.247,213.655c-6.98,8.077-16.589,13.835-27.572,15.927c-3.023,0.576-5.165,3.279-5.152,6.357
		c0.041,9.558-4.162,21.246-9.333,30.669c-2.15,3.919-0.588,8.843,3.391,10.878l367.713,188.126l0.496,0.496
		c0.976-1.702,1.861-2.758,3.491-4.403L77.247,213.655z"/>
	<path style="fill:#ED5A81;" d="M105.828,177.615c-9.794,2.501-11.704,0.483-14.761,3.274l323.185,276.766l9.188-9.188
		L146.663,125.269c-3.141,3.44-0.286,8.71-5.449,21.408C135.356,161.084,122.512,173.35,105.828,177.615z"/>
	<path style="fill:#ED5A81;" d="M430.755,439.253l-44.218-86.429L243.252,72.762c-2.026-3.96-6.928-5.516-10.826-3.375
		c-21.831,11.953-28.312,6.772-34.249,11.933L430.755,439.253z"/>
</g>
<path style="fill:#DD4A78;" d="M406.292,465.613L46.064,231.715c-2.599,3.08-0.599,4.577-2.721,13.997
	c-1.604,7.126-4.736,14.723-8.152,20.896c-2.15,3.918-0.588,8.842,3.39,10.877l113.107,57.867L406.292,465.613z"/>
<path style="fill:#656566;" d="M431.467,483.911c-1.038,1.038-2.192,1.89-3.411,2.59l21.717,20.687
	c6.407,6.406,16.793,6.406,23.199,0s6.407-16.793,0-23.199l-21.72-20.69C449.304,466.698,448.621,466.484,431.467,483.911z"/>
<path style="fill:#545456;" d="M459.561,494.826l-20.006-19.056c-8.608,8.576-8.763,9.16-11.499,10.732l21.717,20.687
	c9.475,9.475,25.563,4.133,27.759-8.852C471.567,500.85,464.422,499.685,459.561,494.826z"/>
<path style="fill:#656566;" d="M450.283,444.13l0.286,0.286c6.459,6.459,6.459,17.028,0,23.487l-16.896,16.896
	c-6.459,6.459-17.028,6.459-23.487,0l-0.286-0.286c-6.459-6.459-6.459-17.028,0-23.487l16.896-16.896
	C433.255,437.67,443.823,437.67,450.283,444.13z"/>
<path style="fill:#545456;" d="M429.091,465.607L429.091,465.607c-6.15-6.15-6.511-15.98-1.089-22.566
	c-1.178,0.968-0.107,0.033-18.102,17.985c-6.459,6.46-6.459,17.028,0,23.487l0.286,0.286c6.459,6.459,17.028,6.459,23.487,0
	c17.888-17.931,17.012-16.917,17.985-18.102C445.071,472.117,435.241,471.757,429.091,465.607z"/>
<g>
</g>
<g>
</g>
<g>
</g>
<g>
</g>
<g>
</g>
<g>
</g>
<g>
</g>
<g>
</g>
<g>
</g>
<g>
</g>
<g>
</g>
<g>
</g>
<g>
</g>
<g>
</g>
<g>
</g>
</svg>
