<?xml version="1.0" encoding="iso-8859-1"?>
<!-- Generator: Adobe Illustrator 19.0.0, SVG Export Plug-In . SVG Version: 6.00 Build 0)  -->
<svg version="1.1" id="Capa_1" xmlns="http://www.w3.org/2000/svg" xmlns:xlink="http://www.w3.org/1999/xlink" x="0px" y="0px"
	 viewBox="0 0 511.999 511.999" style="enable-background:new 0 0 511.999 511.999;" xml:space="preserve">
<path style="fill:#F96989;" d="M452.904,61.983c-43.688,0-121.194,39.616-159.805,78.192c7.365,7.335,11.941,17.47,11.941,28.624
	c-0.426,51.527,1.002,53.508-1.389,62.376c102.128,29.495,127.646,102.658,177.96,40.497
	C539.026,200.734,506.908,61.983,452.904,61.983z"/>
<path style="fill:#ED5A81;" d="M207.844,230.292c-12.731,3.701-24.268,8.086-34.817,12.802
	c-22.621,24.179-62.696,72.692-105.593,149.919c-3.419,6.153,1.815,13.527,8.748,12.31l49.368-8.673
	c7.161-1.258,14.331,2.171,17.846,8.537l22.235,40.265c3.891,7.046,14.405,5.64,16.305-2.181
	c9.642-39.698,31.752-125.416,58.548-183.221C224.684,257.348,211.946,245.575,207.844,230.292z"/>
<path style="fill:#DD4A78;" d="M99.456,397.368c39.432-83.612,77.908-137.272,100.114-164.514
	c-9.509,3.104-18.33,6.57-26.542,10.241c-22.621,24.179-62.696,72.692-105.593,149.919c-3.419,6.153,1.815,13.527,8.748,12.31
	l22.426-3.94C98.572,400.069,98.825,398.706,99.456,397.368z"/>
<path style="fill:#F96989;" d="M339.41,243.563c-10.881-5.007-22.589-9.584-35.255-13.272
	c-4.102,15.283-16.841,27.057-32.642,29.757c26.797,57.805,48.908,143.523,58.549,183.221c1.9,7.821,12.414,9.227,16.305,2.181
	l22.236-40.265c3.515-6.364,10.685-9.794,17.846-8.537l49.368,8.673c6.934,1.217,12.167-6.156,8.748-12.31
	C401.944,316.28,362.108,267.898,339.41,243.563z"/>
<path style="fill:#ED5A81;" d="M298.696,242.295c-6.127,9.208-15.858,15.819-27.182,17.755
	c26.797,57.805,48.908,143.523,58.549,183.221c1.9,7.821,12.414,9.227,16.305,2.181l22.236-40.265
	c1.775-3.216,4.487-5.679,7.656-7.17C357.957,354.51,328.696,289.364,298.696,242.295z"/>
<path style="fill:#DD4A78;" d="M286.064,254.517c-4.374,2.711-9.286,4.632-14.55,5.532c26.797,57.805,48.908,143.523,58.549,183.221
	c1.9,7.821,12.414,9.227,16.305,2.181l11.509-20.842C343.967,384.639,316.195,308.895,286.064,254.517z"/>
<path style="fill:#F96989;" d="M213.302,242.295c6.127,9.208,15.858,15.819,27.182,17.755
	c-26.797,57.805-48.908,143.523-58.549,183.221c-1.9,7.821-12.414,9.227-16.305,2.181l-22.236-40.265
	c-1.775-3.216-4.487-5.679-7.656-7.17C154.041,354.51,183.303,289.364,213.302,242.295z"/>
<path style="fill:#ED5A81;" d="M305.041,212.48c-0.185,5.849,0.642,11.163-1.389,18.694
	c103.358,29.847,142.996,119.084,191.278,19.2c2.149-4.446,4.067-9.065,5.664-13.486
	C516.695,168.565,315.828,210.198,305.041,212.48z"/>
<path style="fill:#F96989;" d="M206.958,168.798c0-11.153,4.576-21.288,11.942-28.624c-38.61-38.575-116.117-78.192-159.804-78.192
	c-54.003,0-86.122,138.752-28.707,209.688c50.312,62.16,75.83-11.002,177.959-40.497
	C205.948,222.279,207.379,219.747,206.958,168.798z"/>
<g>
	<path style="fill:#ED5A81;" d="M81.9,271.671C31.251,209.094,50.283,93.763,92.543,67.445c-12.291-3.485-23.712-5.463-33.448-5.463
		c-54.003,0-86.122,138.752-28.707,209.688c24.295,30.018,42.811,28.476,66.962,15.536C92.401,283.433,87.293,278.334,81.9,271.671z
		"/>
	<path style="fill:#ED5A81;" d="M206.958,212.48c-10.79-2.283-211.653-43.915-195.552,24.408c3.385,9.376,7.93,18.948,13.553,27.373
		c8.326,12.492,21.791,27.225,36.527,30.78c34.404,8.311,67.682-41.017,146.86-63.868
		C207.446,227.833,207.154,218.666,206.958,212.48z"/>
</g>
<path style="fill:#DD4A78;" d="M103.21,271.861c-14.737-3.556-28.2-18.289-36.527-30.78c-5.623-8.425-10.169-17.997-13.553-27.373
	c-1.261-5.351-1.19-10.028,0.015-14.102c-28.098,3.801-47.145,14.346-41.74,37.283c3.385,9.376,7.93,18.948,13.553,27.373
	c8.326,12.492,21.791,27.224,36.527,30.78c19.056,4.604,37.772-8.479,64.128-24.949C117.891,272.772,110.576,273.641,103.21,271.861
	z"/>
<path style="fill:#ED5A81;" d="M264.594,127.321h-17.19c-22.871,0-41.477,18.605-41.477,41.476v51.915
	c0,22.871,18.606,41.477,41.477,41.477h17.19c22.871,0,41.477-18.606,41.477-41.477v-51.915
	C306.072,145.926,287.465,127.321,264.594,127.321z"/>
<path style="fill:#DD4A78;" d="M256,220.714v-51.915c0-17.031,10.322-31.692,25.036-38.07c-11.8-5.115-20.23-2.835-33.631-3.406
	c-22.871,0-41.477,18.605-41.477,41.476v51.915c0,22.871,18.606,41.477,41.477,41.477h17.19c5.839,0,11.397-1.219,16.441-3.406
	C266.322,252.405,256,237.745,256,220.714z"/>
<g>
</g>
<g>
</g>
<g>
</g>
<g>
</g>
<g>
</g>
<g>
</g>
<g>
</g>
<g>
</g>
<g>
</g>
<g>
</g>
<g>
</g>
<g>
</g>
<g>
</g>
<g>
</g>
<g>
</g>
</svg>
