<?xml version="1.0" encoding="iso-8859-1"?>
<!-- Generator: Adobe Illustrator 19.0.0, SVG Export Plug-In . SVG Version: 6.00 Build 0)  -->
<svg version="1.1" id="Capa_1" xmlns="http://www.w3.org/2000/svg" xmlns:xlink="http://www.w3.org/1999/xlink" x="0px" y="0px"
	 viewBox="0 0 512 512" style="enable-background:new 0 0 512 512;" xml:space="preserve">
<g>
	<path style="fill:#656566;" d="M63.871,244.33c108.921-140.983,101.19-134.803,103.468-134.265
		c1.644,0.382,1.925,1.655,2.018,2.075c2.867,15.978,8.608,18.716,6.143,40.064c-0.952,8.247,4.76,15.681,12.759,16.604
		c8,0.923,15.256-5.013,16.208-13.26c3.216-27.862-4.018-34.978-6.662-50.263c-5.89-26.699-39.13-34.411-55.873-12.948
		L19.098,254.113C31.445,255.022,32.433,249.819,63.871,244.33z"/>
	<path style="fill:#656566;" d="M323.808,168.808c7.999-0.924,13.711-8.357,12.759-16.604c-2.465-21.349,3.276-24.086,6.142-40.064
		c0.093-0.42,0.374-1.693,2.018-2.075c2.278-0.537-5.453-6.718,103.468,134.265c31.021,5.417,32.577,10.681,44.772,9.783
		L370.134,92.337c-16.743-21.463-49.985-13.751-55.873,12.948c-2.643,15.284-9.878,22.401-6.661,50.263
		C308.552,163.795,315.808,169.731,323.808,168.808z"/>
</g>
<g>
	<path style="fill:#545456;" d="M471.737,226.153c-10.827-0.239-15.528-5.545-46.123-11.111c6.911,8.983,14.411,18.714,22.58,29.288
		c31.021,5.416,32.577,10.681,44.772,9.783L471.737,226.153z"/>
	<path style="fill:#545456;" d="M40.328,226.153c10.827-0.239,15.528-5.545,46.123-11.111c-6.91,8.983-14.411,18.714-22.581,29.288
		c-31.021,5.416-32.577,10.681-44.772,9.783L40.328,226.153z"/>
</g>
<path style="fill:#71C5DB;" d="M306.373,291.007c-7.849,9.763-13.208,21.291-17.044,32.888v9.486
	c0,54.674,44.646,99.405,99.964,98.68c53.871-0.74,97.316-44.632,97.316-98.68v-55.714
	C435.016,257.247,341.794,249.359,306.373,291.007z"/>
<g>
	<path style="fill:#9CD7F2;" d="M357.888,291.007c-5.278,6.566-9.43,13.929-12.751,21.575
		c-14.639,33.71,7.733,99.654,68.568,116.083c41.999-11.34,72.903-49.7,72.903-95.284v-55.714
		c-17.981-7.117-41.02-12.707-64.906-15.213C395.432,265.637,372.043,274.363,357.888,291.007z"/>
	<path style="fill:#9CD7F2;" d="M211.593,299.378c-31.695-51.216-132.298-43.652-185.862-21.835v55.836
		c0,54.048,43.445,97.94,97.316,98.68c54.956,0.72,99.964-43.65,99.964-98.68v-8.554
		C222.238,322.758,218.722,310.818,211.593,299.378z"/>
</g>
<path style="fill:#71C5DB;" d="M77.246,321.069v-57.219c-19.083,2.934-37.022,7.79-51.515,13.693v55.836
	c0,54.048,43.445,97.94,97.316,98.68c11.282,0.148,22.143-1.608,32.283-4.963C110.1,413.07,77.246,370.913,77.246,321.069z"/>
<path style="fill:#545456;" d="M9.364,279.978l15.315,3.145c53.289-22.146,155.012-30.144,186.914,21.407
	c4.733,7.596,8.498,16.448,11.257,24.856c0.458,2.805,3.764,2.582,5.428,0.213c3.712-5.286,6.181-10.811,7.795-17.042
	c0.567-2.187,2.671-3.756,5.139-3.756h30.548c6.167,0,2.314,6.962,12.027,20.798c1.662,2.369,4.969,2.59,5.427-0.213
	c3.845-11.711,9.233-23.369,17.159-33.227c9.16-10.771,24.685-19.417,38.448-23.311c71.24-20.073,142.215,10.225,142.564,10.275
	l15.315-3.145c5.146-1.056,8.888-5.154,9.296-10.016c-0.019-1.382-0.023-5.397,0.002-6.737c-0.381-8.154-7.664-14.219-15.593-12.649
	c-5.681,1.125-11.571,0.45-17.032-1.514c-31.022-11.151-125.726-27.917-203.885,21.505h-38.912
	c-78.16-49.422-172.864-32.656-203.885-21.505c-5.462,1.964-11.351,2.638-17.032,1.514c-8.145-1.612-15.638,4.82-15.638,13.308
	c0,0.073,0,2.863,0,5.196C0.021,274.323,3.91,278.858,9.364,279.978z"/>
<path style="fill:#656566;" d="M15.66,265.001c5.681,1.125,11.571,0.45,17.032-1.514c31.022-11.151,125.726-27.917,203.885,21.505
	h38.912c78.16-49.422,172.864-32.656,203.885-21.505c5.462,1.964,11.351,2.638,17.032,1.514c6.464-1.28,12.494,2.514,14.712,8.376
	c1.247-2.807,0.761-3.732,0.882-10.152c-0.381-8.154-7.664-14.219-15.593-12.649c-5.681,1.125-11.571,0.45-17.032-1.514
	c-31.022-11.151-125.726-27.917-203.885,21.505h-38.912c-78.16-49.422-172.864-32.656-203.885-21.505
	c-5.462,1.964-11.351,2.638-17.032,1.514c-8.145-1.612-15.638,4.82-15.638,13.308c0,5.208-0.248,6.842,0.919,9.476
	C3.168,267.51,9.202,263.723,15.66,265.001z"/>
<g>
</g>
<g>
</g>
<g>
</g>
<g>
</g>
<g>
</g>
<g>
</g>
<g>
</g>
<g>
</g>
<g>
</g>
<g>
</g>
<g>
</g>
<g>
</g>
<g>
</g>
<g>
</g>
<g>
</g>
</svg>
