<?xml version="1.0" encoding="iso-8859-1"?>
<!-- Generator: Adobe Illustrator 19.0.0, SVG Export Plug-In . SVG Version: 6.00 Build 0)  -->
<svg version="1.1" id="Capa_1" xmlns="http://www.w3.org/2000/svg" xmlns:xlink="http://www.w3.org/1999/xlink" x="0px" y="0px"
	 viewBox="0 0 511.999 511.999" style="enable-background:new 0 0 511.999 511.999;" xml:space="preserve">
<path style="fill:#F96989;" d="M452.002,165.773c-3.779,1.221-8.051,0.828-11.677-1.45c-84.412-52.999-284.241-52.999-368.651,0
	c-3.331,2.092-7.478,2.78-11.662,1.431C8.389,232.229-21.177,381.76,18.07,441.532c61.645,93.887,414.127,94.02,475.86,0
	C533.173,381.766,503.616,232.257,452.002,165.773z"/>
<path style="fill:#ED5A81;" d="M72.896,464.126c-45.343-69.058-13.059-239.349,45.348-320.577
	c-17.711,5.66-33.521,12.583-46.569,20.775c-3.331,2.092-7.478,2.78-11.662,1.431C8.39,232.229-21.176,381.76,18.071,441.532
	c14.35,21.857,44.467,38.629,83.002,50.319C89.15,483.538,79.575,474.299,72.896,464.126z"/>
<path style="fill:#EAE9E8;" d="M455.116,142.826c-31.823-19.98-77.868-33.868-131.383-40.187
	c-6.277,8.325-18.946,7.052-23.524-2.252c-29.133-2.155-59.189-2.15-88.455,0.078c-4.622,9.249-17.145,10.42-23.406,2.283
	c-43.447,5.179-94.248,16.713-131.464,40.078c-6.506,4.085-8.469,12.67-4.384,19.175c4.096,6.525,12.688,8.456,19.174,4.384
	c84.411-52.999,284.239-52.999,368.651,0c6.505,4.086,15.09,2.122,19.174-4.384C463.585,155.495,461.622,146.91,455.116,142.826z"/>
<g>
	<path style="fill:#CECECE;" d="M298.755,52.16c0,23.164,0,25.029,0,48.198c0,7.741,6.227,14.015,13.908,14.015
		s13.908-6.274,13.908-14.015c0-23.167,0-25.035,0-48.213C317.619,57.068,307.146,56.757,298.755,52.16z"/>
	<path style="fill:#CECECE;" d="M185.429,52.165c0,11.039,0,37.592,0,48.193c0,7.741,6.227,14.015,13.908,14.015
		s13.908-6.274,13.908-14.015c0-11.043,0-37.603,0-48.208C204.292,57.073,193.82,56.762,185.429,52.165z"/>
</g>
<g>
	<circle style="fill:#EAE9E8;" cx="312.66" cy="28.893" r="28.89"/>
	<circle style="fill:#EAE9E8;" cx="199.339" cy="28.895" r="28.893"/>
</g>
<g>
	<path style="fill:#DBDBDB;" d="M322.268,40.028c-13.939-8.048-18.722-26.065-10.234-40.023c-9.752,0.221-19.156,5.377-24.39,14.442
		c-7.978,13.818-3.243,31.487,10.575,39.465c13.629,7.868,30.995,3.365,39.124-10.018C332.23,44.013,327.02,42.772,322.268,40.028z"
		/>
	<path style="fill:#DBDBDB;" d="M208.939,40.033c-13.816-7.977-18.793-25.924-10.234-40.027
		c-9.752,0.222-19.156,5.378-24.391,14.443c-7.979,13.819-3.243,31.489,10.576,39.468c13.629,7.868,30.997,3.365,39.127-10.017
		C218.903,44.018,213.693,42.777,208.939,40.033z"/>
	<path style="fill:#DBDBDB;" d="M110.313,122.192c0.958-1.66,2.148-3.099,3.499-4.317c-20.463,6.235-40.087,14.378-56.927,24.951
		c-6.506,4.085-8.469,12.67-4.384,19.175c4.096,6.525,12.688,8.456,19.174,4.384c12.585-7.901,27.748-14.616,44.699-20.16
		C108.221,141.181,105.486,130.551,110.313,122.192z"/>
</g>
<g>
</g>
<g>
</g>
<g>
</g>
<g>
</g>
<g>
</g>
<g>
</g>
<g>
</g>
<g>
</g>
<g>
</g>
<g>
</g>
<g>
</g>
<g>
</g>
<g>
</g>
<g>
</g>
<g>
</g>
</svg>
