<?xml version="1.0" encoding="iso-8859-1"?>
<!-- Generator: Adobe Illustrator 19.0.0, SVG Export Plug-In . SVG Version: 6.00 Build 0)  -->
<svg version="1.1" id="Capa_1" xmlns="http://www.w3.org/2000/svg" xmlns:xlink="http://www.w3.org/1999/xlink" x="0px" y="0px"
	 viewBox="0 0 512.001 512.001" style="enable-background:new 0 0 512.001 512.001;" xml:space="preserve">
<path style="fill:#F2C29E;" d="M468.502,149.519c-3.011-17.785-11.349-33.511-23.197-45.687
	c-11.953-6.046-25.313-9.394-39.084-9.394H105.781c-13.77,0-27.131,3.349-39.083,9.394C54.85,116.007,46.511,131.734,43.5,149.519
	L6.839,367.098c-6.956,41.084,24.705,78.555,66.375,78.555h365.574c41.668,0,73.329-37.471,66.375-78.555L468.502,149.519z"/>
<path style="fill:#E5AE89;" d="M69.89,367.098l36.661-217.579c6.001-35.446,33.497-54.943,61.868-55.081
	c0.137-0.001,0.276-0.001,0.413-0.001H105.78c-13.77,0-27.131,3.349-39.083,9.395c-11.848,12.176-20.186,27.902-23.197,45.687
	L6.839,367.098c-6.956,41.084,24.706,78.555,66.375,78.555h63.051C94.596,445.653,62.934,408.182,69.89,367.098z"/>
<path style="fill:#F9D4BB;" d="M484.354,144.273c-14.476-29.649-45.145-48.805-78.134-48.805H105.781
	c-32.987,0-63.657,19.157-78.134,48.805c-3.529,7.225-12.248,10.226-19.472,6.695c-7.226-3.528-10.223-12.246-6.695-19.471
	c19.409-39.752,59.83-65.149,104.301-65.149h300.44c44.502,0,84.907,25.429,104.301,65.149c3.528,7.225,0.53,15.943-6.695,19.471
	C496.583,154.504,487.874,151.484,484.354,144.273z"/>
<path style="fill:#F2C29E;" d="M149.881,81.616c0-6.208,2.928-11.72,7.466-15.269H105.78c-44.47,0-84.892,25.399-104.301,65.149
	c-3.528,7.225-0.53,15.943,6.695,19.471c7.224,3.531,15.943,0.53,19.472-6.695c14.477-29.648,45.146-48.805,78.135-48.805h49.935
	C152.12,91.947,149.881,87.046,149.881,81.616z"/>
<g>
</g>
<g>
</g>
<g>
</g>
<g>
</g>
<g>
</g>
<g>
</g>
<g>
</g>
<g>
</g>
<g>
</g>
<g>
</g>
<g>
</g>
<g>
</g>
<g>
</g>
<g>
</g>
<g>
</g>
</svg>
