<?xml version="1.0" encoding="iso-8859-1"?>
<!-- Generator: Adobe Illustrator 19.0.0, SVG Export Plug-In . SVG Version: 6.00 Build 0)  -->
<svg version="1.1" id="Capa_1" xmlns="http://www.w3.org/2000/svg" xmlns:xlink="http://www.w3.org/1999/xlink" x="0px" y="0px"
	 viewBox="0 0 512 512" style="enable-background:new 0 0 512 512;" xml:space="preserve">
<path style="fill:#CC9D72;" d="M477.181,444.928c-33.306-201.806-31.065-189.462-32.114-194.079c-85.524,0-295.217,0-378.135,0
	c-1.048,4.617,1.212-7.845-32.114,194.079C28.88,480.007,55.913,512,91.491,512c18.753,0,312.009,0,329.019,0
	C456.087,512,483.12,480.007,477.181,444.928z"/>
<path style="fill:#C19067;" d="M86.332,444.928c33.326-201.924,31.066-189.463,32.114-194.079c-19.965,0-37.543,0-51.513,0
	c-1.048,4.616,1.212-7.845-32.114,194.079C28.88,480.007,55.913,512,91.491,512c4.405,0,23.956,0,51.513,0
	C107.426,512,80.393,480.007,86.332,444.928z"/>
<path style="fill:#F2C29E;" d="M445.067,228.184c-19.852,0-364.693,0-378.135,0c-7.682,0-13.908,6.227-13.908,13.908
	c0,7.681,6.227,13.908,13.908,13.908c17.415,0,304.329,0,323.22,0c6.377,0,47.87,0,54.914,0c7.681,0,13.908-6.227,13.908-13.908
	C458.975,234.411,452.748,228.184,445.067,228.184z"/>
<path style="fill:#E5AE89;" d="M104.039,242.092c0-7.682,6.227-13.908,13.908-13.908c-28.598,0-48.023,0-51.015,0
	c-7.682,0-13.908,6.227-13.908,13.908c0,7.681,6.227,13.908,13.908,13.908c4.146,0,23.573,0,51.015,0
	C110.266,256,104.039,249.773,104.039,242.092z"/>
<path style="fill:#F9D4BB;" d="M256,0c-73.971,0-134.153,60.181-134.153,134.153c0,49.814,0,185.624,0,234.657
	c0,7.682,6.227,13.908,13.908,13.908s13.908-6.227,13.908-13.908v-16.003c0-8.564,0-208.256,0-218.654
	c0-58.635,47.702-106.337,106.337-106.337c58.634,0,106.337,47.702,106.337,106.337c0,20.623,0,151.907,0,165.606v27.816
	c0,10.395,0,30.702,0,41.235c0,7.682,6.227,13.908,13.908,13.908c7.681,0,13.908-6.227,13.908-13.908c0-22.317,0-90.276,0-112.811
	V134.153C390.153,60.181,329.972,0,256,0z"/>
<path style="fill:#F2C29E;" d="M151.258,327.577h-31.251c-7.681,0-13.908-6.227-13.908-13.908l0,0
	c0-7.681,6.227-13.908,13.908-13.908h31.251c7.681,0,13.908,6.227,13.908,13.908l0,0C165.168,321.35,158.94,327.577,151.258,327.577
	z"/>
<path style="fill:#E5AE89;" d="M149.542,327.577c-7.681,0-13.908-6.227-13.908-13.908s6.227-13.908,13.908-13.908h1.718h-0.001
	h-31.251c-7.681,0-13.908,6.227-13.908,13.908c0,7.682,6.227,13.908,13.908,13.908h31.251c0.001,0,0.001,0,0.001,0H149.542z"/>
<path style="fill:#F2C29E;" d="M391.65,327.577h-31.251c-7.681,0-13.908-6.227-13.908-13.908l0,0
	c0-7.681,6.227-13.908,13.908-13.908h31.251c7.681,0,13.908,6.227,13.908,13.908l0,0C405.558,321.35,399.331,327.577,391.65,327.577
	z"/>
<path style="fill:#E5AE89;" d="M376.024,313.668c0-7.681,6.227-13.908,13.908-13.908h-29.534c-7.682,0-13.908,6.227-13.908,13.908
	c0,7.682,6.227,13.908,13.908,13.908h29.534C382.251,327.577,376.024,321.35,376.024,313.668z"/>
<g>
</g>
<g>
</g>
<g>
</g>
<g>
</g>
<g>
</g>
<g>
</g>
<g>
</g>
<g>
</g>
<g>
</g>
<g>
</g>
<g>
</g>
<g>
</g>
<g>
</g>
<g>
</g>
<g>
</g>
</svg>
