<?xml version="1.0" encoding="iso-8859-1"?>
<!-- Generator: Adobe Illustrator 19.0.0, SVG Export Plug-In . SVG Version: 6.00 Build 0)  -->
<svg version="1.1" id="Capa_1" xmlns="http://www.w3.org/2000/svg" xmlns:xlink="http://www.w3.org/1999/xlink" x="0px" y="0px"
	 viewBox="0 0 512 512" style="enable-background:new 0 0 512 512;" xml:space="preserve">
<g>
	<path style="fill:#967D74;" d="M356.793,24.518H148.085c-31.502,0-57.131,25.628-57.131,57.13v39.605h27.816V81.647
		c0-16.163,13.15-29.312,29.313-29.312h208.708c16.164,0,29.313,13.15,29.313,29.312v39.605h27.816V81.647
		C413.923,50.147,388.295,24.518,356.793,24.518z"/>
	<path style="fill:#967D74;" d="M480.061,487.482H31.939C14.373,487.482,0,473.109,0,455.543V148.041
		c0-17.566,14.373-31.939,31.939-31.939h448.121c17.566,0,31.939,14.373,31.939,31.939v307.502
		C512,473.109,497.627,487.482,480.061,487.482z"/>
</g>
<path style="fill:#7C6359;" d="M51.513,455.543V148.041c0-17.566,14.373-31.939,31.939-31.939H31.939
	C14.373,116.102,0,130.475,0,148.041v307.502c0,17.566,14.373,31.939,31.939,31.939h51.513
	C65.885,487.482,51.513,473.109,51.513,455.543z"/>
<path style="fill:#A58F88;" d="M480.064,116.102H31.936C14.373,116.104,0.003,130.473,0,148.036v153.738
	c46.143,15.116,105.125,26.157,171.264,31.311h3.117h163.239h3.117c66.138-5.154,125.12-16.197,171.264-31.311V148.041
	C512,130.476,497.629,116.104,480.064,116.102z"/>
<path style="fill:#967D74;" d="M51.513,148.041c0-17.566,14.373-31.939,31.939-31.939H31.939c-0.317,0-0.63,0.015-0.945,0.024
	c-0.23,0.007-0.464,0.006-0.693,0.018c-0.287,0.015-0.569,0.043-0.854,0.065c-0.254,0.02-0.51,0.033-0.763,0.059
	c-0.262,0.027-0.519,0.066-0.779,0.099c-0.272,0.034-0.545,0.063-0.815,0.104c-0.457,0.07-0.91,0.154-1.36,0.244
	c-0.069,0.014-0.139,0.023-0.208,0.037c-0.899,0.185-1.78,0.416-2.651,0.675c-0.134,0.04-0.271,0.074-0.404,0.115
	c-0.33,0.103-0.654,0.219-0.979,0.333c-0.167,0.058-0.337,0.11-0.503,0.171c-0.457,0.168-0.908,0.349-1.355,0.536
	c-0.031,0.013-0.063,0.024-0.094,0.037c-0.142,0.06-0.28,0.128-0.421,0.19C8.881,123.338,1.423,133.09,0.185,144.636
	c-0.006,0.049-0.014,0.097-0.019,0.147c-0.039,0.382-0.063,0.766-0.088,1.152c-0.01,0.155-0.028,0.31-0.036,0.465
	c-0.015,0.299-0.016,0.601-0.023,0.903C0.013,147.549,0,147.794,0,148.041v153.733c15.75,5.159,32.997,9.842,51.513,13.98V148.041z"
	/>
<path style="fill:#DBDBDB;" d="M291.255,319.177c0.045-0.628,0.076-1.259,0.076-1.9c0-14.314-11.604-25.918-25.917-25.918h-25.95
	c-14.314,0-25.918,11.604-25.918,25.918c0,0.64,0.031,1.271,0.076,1.9v27.816c-0.045,0.628-0.076,1.259-0.076,1.9
	c0,14.314,11.604,25.917,25.918,25.917h25.95c14.314,0,25.917-11.604,25.917-25.917c0-0.64-0.031-1.271-0.076-1.9V319.177z"/>
<path style="fill:#CECECE;" d="M239.303,348.893c0-0.64,0.031-1.271,0.076-1.9v-27.816c-0.045-0.628-0.076-1.259-0.076-1.9
	c0-14.314,11.604-25.918,25.917-25.918h-25.756c-14.314,0-25.918,11.604-25.918,25.918c0,0.64,0.031,1.271,0.076,1.9v27.816
	c-0.045,0.628-0.076,1.259-0.076,1.9c0,14.314,11.604,25.917,25.918,25.917h25.756C250.907,374.811,239.303,363.207,239.303,348.893
	z"/>
<path style="fill:#EAE9E8;" d="M323.711,319.177h-41.67h-52.082h-41.67c-7.681,0-13.908,6.227-13.908,13.908l0,0
	c0,7.681,6.227,13.908,13.908,13.908h41.67h52.082h41.67c7.682,0,13.908-6.227,13.908-13.908l0,0
	C337.619,325.405,331.393,319.177,323.711,319.177z"/>
<path style="fill:#DBDBDB;" d="M227.953,333.086c0-7.682,6.227-13.908,13.908-13.908h-11.902h-41.67
	c-7.681,0-13.908,6.227-13.908,13.908s6.227,13.908,13.908,13.908h41.67h11.902C234.18,346.994,227.953,340.767,227.953,333.086z"/>
<g>
</g>
<g>
</g>
<g>
</g>
<g>
</g>
<g>
</g>
<g>
</g>
<g>
</g>
<g>
</g>
<g>
</g>
<g>
</g>
<g>
</g>
<g>
</g>
<g>
</g>
<g>
</g>
<g>
</g>
</svg>
