<?xml version="1.0" encoding="iso-8859-1"?>
<!-- Generator: Adobe Illustrator 19.0.0, SVG Export Plug-In . SVG Version: 6.00 Build 0)  -->
<svg version="1.1" id="Capa_1" xmlns="http://www.w3.org/2000/svg" xmlns:xlink="http://www.w3.org/1999/xlink" x="0px" y="0px"
	 viewBox="0 0 512 512" style="enable-background:new 0 0 512 512;" xml:space="preserve">
<path style="fill:#ED5A81;" d="M209.1,3.046c-5.999-4.796-14.751-3.821-19.548,2.177c-32.048,40.08-46.701,87.246-53.33,117.382
	c26.406,0.109,25.905-0.248,28.536,0.319c6.528-26.953,19.816-66.933,46.52-100.33C216.074,16.595,215.099,7.843,209.1,3.046z"/>
<g>
	<path style="fill:#F96989;" d="M375.784,122.605c-6.629-30.136-21.283-77.302-53.33-117.382
		c-4.797-5.999-13.549-6.974-19.548-2.177c-6,4.797-6.974,13.549-2.177,19.548c26.704,33.397,39.992,73.377,46.52,100.33
		C349.862,122.361,349.175,122.715,375.784,122.605z"/>
	<path style="fill:#F96989;" d="M128.747,342.201c-7.877-1.394-13.013,8.069-7.532,13.894c18.567,19.73,35.228,40.687,49.577,60.611
		l0.001-0.001l55.099,79.539c14.552,21.007,45.609,21.007,60.161,0c37.25-52.091,61.1-93.864,104.745-140.223
		c5.462-5.801,0.344-15.23-7.503-13.84C308.544,355.422,203.621,355.451,128.747,342.201z"/>
</g>
<g>
	<path style="fill:#ED5A81;" d="M391.095,345.018c-1.755-2.121-4.54-3.414-7.8-2.837c-33.837,5.993-73.858,9.27-114.474,9.842
		C311.048,352.621,353.883,350.284,391.095,345.018z"/>
	<path style="fill:#ED5A81;" d="M251.648,496.245l-55.099-79.539l-0.001,0.001c-14.348-19.924-31.01-40.883-49.577-60.611
		c-3.21-3.412-2.775-8.067-0.286-11.063c-6.135-0.868-12.137-1.805-17.939-2.832c-7.877-1.394-13.013,8.069-7.532,13.894
		c18.567,19.73,35.228,40.687,49.577,60.611l0.001-0.001l55.099,79.539c10.066,14.53,28.025,19.003,42.959,13.433
		C262.193,507.195,256.136,502.722,251.648,496.245z"/>
</g>
<path style="fill:#DD4A78;" d="M272.982,208.278h-33.965c-0.222,1.165-1.376,23.894-17.318,45.12l0.008,0.008l15.518-8.754
	c10.391-5.861,27.214-5.856,37.6,0.014l15.466,8.74l0.012-0.004C274.359,232.176,273.206,209.445,272.982,208.278z"/>
<path style="fill:#F96989;" d="M169.671,143.866c-5.981,4.103-9.733,1.733-36.174,2.436c-2.583,0-4.994-0.716-7.067-1.944
	c-71.022,98.989,28.472,171.43,85.619,121.656c27.168-23.662,28.763-56.331,29.032-57.734
	C214.355,200.498,186.756,167.589,169.671,143.866z"/>
<path style="fill:#ED5A81;" d="M150.871,146.223c-4.387-0.075-9.995-0.118-17.373,0.078c-2.584,0-4.994-0.716-7.067-1.944
	c-59.807,83.357,1.3,147.885,56.215,136.467C137.721,271.661,102.379,215.67,150.871,146.223z"/>
<path style="fill:#F96989;" d="M385.575,144.357c-5.585,3.305-8.296,1.362-35.383,1.945c-2.909,0-5.608-0.896-7.84-2.423
	c-17.076,23.722-44.707,56.622-71.427,64.401c0.269,1.404,1.864,34.072,29.031,57.734
	C357.138,315.815,456.573,243.31,385.575,144.357z"/>
<path style="fill:#ED5A81;" d="M296.001,194.587c-8.212,6.331-16.69,11.25-25.077,13.692c0.268,1.404,1.864,34.072,29.031,57.734
	c26.542,23.116,62.184,19.878,85.664-0.121C341.053,273.525,304.554,238.344,296.001,194.587z"/>
<path style="fill:#F9B2C8;" d="M161.813,148.361h-28.315c-7.681,0-13.908-6.227-13.908-13.908s6.227-13.908,13.908-13.908h28.315
	c7.681,0,13.908,6.227,13.908,13.908S169.494,148.361,161.813,148.361z"/>
<path style="fill:#F99DB6;" d="M147.206,134.453c0-7.682,6.227-13.908,13.908-13.908h-27.616c-7.682,0-13.908,6.227-13.908,13.908
	c0,7.682,6.227,13.908,13.908,13.908h27.616C153.433,148.361,147.206,142.135,147.206,134.453z"/>
<path style="fill:#F9B2C8;" d="M378.508,148.361h-28.315c-7.681,0-13.908-6.227-13.908-13.908s6.227-13.908,13.908-13.908h28.315
	c7.681,0,13.908,6.227,13.908,13.908S386.19,148.361,378.508,148.361z"/>
<path style="fill:#F99DB6;" d="M364.35,134.453c0-7.682,6.227-13.908,13.908-13.908h-28.066c-7.682,0-13.908,6.227-13.908,13.908
	c0,7.682,6.227,13.908,13.908,13.908h28.066C370.577,148.361,364.35,142.135,364.35,134.453z"/>
<g>
</g>
<g>
</g>
<g>
</g>
<g>
</g>
<g>
</g>
<g>
</g>
<g>
</g>
<g>
</g>
<g>
</g>
<g>
</g>
<g>
</g>
<g>
</g>
<g>
</g>
<g>
</g>
<g>
</g>
</svg>
