<?xml version="1.0" encoding="iso-8859-1"?>
<!-- Generator: Adobe Illustrator 19.0.0, SVG Export Plug-In . SVG Version: 6.00 Build 0)  -->
<svg version="1.1" id="Capa_1" xmlns="http://www.w3.org/2000/svg" xmlns:xlink="http://www.w3.org/1999/xlink" x="0px" y="0px"
	 viewBox="0 0 512.001 512.001" style="enable-background:new 0 0 512.001 512.001;" xml:space="preserve">
<path style="fill:#DBDBDB;" d="M207.278,2.968l48.724,60.603h-0.001h0.001h-0.001c50.638-61.83,48.144-62.288,53.208-63.385H201.559
	C203.683,0.305,205.761,1.242,207.278,2.968z"/>
<path style="fill:#CECECE;" d="M238.177,0.187h-36.618c2.123,0.118,4.201,1.055,5.718,2.781l48.724,60.603l18.097-22.499
	L238.177,0.187z"/>
<path style="fill:#F4A32C;" d="M462.466,294.142l-24.351-181.418c-3.309-24.652-18.317-46.485-40.701-59.206L331.541,16.08
	L316.128,2.037c-3.23-2.943-8.246-2.664-11.13,0.618l-48.998,55.771L207.278,2.969c-3.035-3.454-8.312-3.747-11.712-0.651
	L180.46,16.08l-65.874,37.438c-22.383,12.721-37.391,34.553-40.7,59.206L49.535,294.142c-2.315,17.24,10.107,33.13,28.089,35.931
	l78.2,12.187c0,46.248,0,110.708,0,156.899c0,7.062,6.058,12.84,13.461,12.84c19.551,0,152.829,0,173.432,0
	c7.403,0,13.461-5.778,13.461-12.84v-91.001c0-7.996,0-57.844,0-65.899l78.2-12.187
	C452.359,327.272,464.781,311.383,462.466,294.142z"/>
<g>
	<path style="fill:#ED9015;" d="M82.466,301.377l24.351-211.261c2.26-16.838,9.98-32.357,21.778-44.559
		c-5.104,4.222-48.239,18.976-54.708,67.167L49.535,294.142c-2.314,17.24,10.108,33.13,28.089,35.932l21.506,3.352
		C87.638,327.107,80.685,314.646,82.466,301.377z"/>
	<path style="fill:#ED9015;" d="M159.577,112.111L159.577,112.111c-2.073,0-3.753,1.68-3.753,3.753V499.17
		c0.006,7.058,6.061,12.831,13.46,12.831c2.651,0,7.409,0,13.681,0V135.5C182.966,122.583,172.495,112.111,159.577,112.111z"/>
</g>
<path style="fill:#F9C85D;" d="M342.717,484.215c-21.083,0-152.301,0-173.432,0c-7.403,0-13.46-5.778-13.46-12.841v27.785
	c0,7.062,6.058,12.841,13.46,12.841c21.083,0,152.301,0,173.432,0c7.403,0,13.461-5.778,13.461-12.841v-27.785
	C356.177,478.437,350.121,484.215,342.717,484.215z"/>
<path style="fill:#F9BB4B;" d="M182.966,499.159v-14.944c-6.144,0-10.884,0-13.681,0c-7.403,0-13.46-5.778-13.46-12.841v27.785
	c0,7.062,6.058,12.841,13.46,12.841c4.588,0,14.393,0,27.142,0C189.024,512,182.966,506.222,182.966,499.159z"/>
<path style="fill:#F9C85D;" d="M155.824,314.476l-78.2-12.187c-12.523-1.952-22.342-10.253-26.373-20.936l-1.716,12.789
	c-2.315,17.24,10.107,33.129,28.089,35.931l78.2,12.187V314.476z"/>
<path style="fill:#F9BB4B;" d="M51.253,281.353c0.133,6.615-7.802,24.575,7.825,39.612c9.631,9.268,18.947,9.171,40.053,12.459
	c-11.017-6.056-17.84-17.76-16.819-30.405C81.031,302.499,59.198,302.413,51.253,281.353z"/>
<path style="fill:#F9C85D;" d="M460.75,281.353c-4.03,10.683-13.849,18.984-26.372,20.936l-78.2,12.187v27.785l78.2-12.187
	c17.982-2.802,30.403-18.691,28.089-35.931L460.75,281.353z"/>
<path style="fill:#F9BB4B;" d="M256.001,58.427L256.001,58.427L207.277,2.968c-3.035-3.453-8.311-3.747-11.71-0.652
	c-1.77,1.604,6.017-5.452-15.329,13.89l56.428,64.226L256.001,58.427L256.001,58.427z"/>
<path style="fill:#F9C85D;" d="M214.144,150.556L332.041,16.363c-0.103-0.059-0.603-0.343-0.5-0.284
	c-0.265-0.241-14.813-13.495-15.413-14.042c-3.23-2.943-8.245-2.663-11.13,0.619c-16.378,18.641-32.622,37.131-48.998,55.77l0,0
	l-80.942,92.129H214.144z"/>
<polygon style="fill:#F9BB4B;" points="182.966,150.556 182.966,141.555 175.059,150.556 "/>
<rect x="155.825" y="176.285" style="fill:#F9C85D;" width="200.351" height="61.711"/>
<rect x="155.825" y="176.285" style="fill:#F9BB4B;" width="27.143" height="61.711"/>
<g>
	<rect x="155.825" y="150.555" style="fill:#656566;" width="200.351" height="27.785"/>
	<rect x="155.825" y="235.45" style="fill:#656566;" width="200.351" height="27.785"/>
</g>
<g>
	<rect x="155.825" y="150.555" style="fill:#545456;" width="27.103" height="27.785"/>
	<rect x="155.825" y="235.45" style="fill:#545456;" width="27.103" height="27.785"/>
</g>
<g>
</g>
<g>
</g>
<g>
</g>
<g>
</g>
<g>
</g>
<g>
</g>
<g>
</g>
<g>
</g>
<g>
</g>
<g>
</g>
<g>
</g>
<g>
</g>
<g>
</g>
<g>
</g>
<g>
</g>
</svg>
