<?xml version="1.0" encoding="iso-8859-1"?>
<!-- Generator: Adobe Illustrator 19.0.0, SVG Export Plug-In . SVG Version: 6.00 Build 0)  -->
<svg version="1.1" id="Capa_1" xmlns="http://www.w3.org/2000/svg" xmlns:xlink="http://www.w3.org/1999/xlink" x="0px" y="0px"
	 viewBox="0 0 511.96 511.96" style="enable-background:new 0 0 511.96 511.96;" xml:space="preserve">
<circle style="fill:#F4D44E;" cx="256" cy="255.961" r="255.96"/>
<path style="fill:#E8C842;" d="M172.632,451.87C11.147,358.636,1.399,130.346,150.737,22.644
	C103.485,43.916,62.224,79.677,34.334,127.982c-70.68,122.423-28.735,278.964,93.687,349.645
	c90.078,52.007,198.625,43.033,277.852-14.105C333.369,496.159,246.75,494.662,172.632,451.87z"/>
<path style="fill:#EAE9E8;" d="M322.329,348.372H189.619c-17.247,0-31.228-13.981-31.228-31.228l0,0
	c0-17.247,13.981-31.228,31.228-31.228h132.709c17.247,0,31.228,13.981,31.228,31.228l0,0
	C353.557,334.391,339.575,348.372,322.329,348.372z"/>
<g>
	<path style="fill:#DBDBDB;" d="M184.73,317.144L184.73,317.144c0-17.247,13.981-31.228,31.228-31.228h-26.338
		c-17.247,0-31.229,13.981-31.229,31.228l0,0c0,17.247,13.981,31.228,31.229,31.228h26.338
		C198.711,348.372,184.73,334.391,184.73,317.144z"/>
	<path style="fill:#DBDBDB;" d="M189.619,348.372h132.709c17.247,0,31.229-13.981,31.229-31.228l0,0H158.39l0,0
		C158.39,334.391,172.372,348.372,189.619,348.372z"/>
</g>
<path style="fill:#C9C6C5;" d="M184.73,317.144L184.73,317.144h-26.338l0,0c0,17.386,14.134,31.228,31.229,31.228h26.338
	C198.711,348.372,184.73,334.391,184.73,317.144z"/>
<g>
	<path style="fill:#656566;" d="M342.857,197.212c-3.876-5.781-9.575-9.097-15.637-9.098c-0.355,0.1-9.231-0.461-15.64,9.098
		l-10.767,16.062c-2.377,3.545-1.429,8.344,2.116,10.721c3.545,2.377,8.344,1.429,10.72-2.116l10.767-16.062
		c1.978-2.949,3.627-2.952,5.605-0.001l10.768,16.063c1.491,2.224,3.935,3.426,6.425,3.426c6.073-0.002,9.888-6.844,6.411-12.031
		L342.857,197.212z"/>
	<path style="fill:#656566;" d="M200.367,197.059c-8.136-12.139-23.15-12.123-31.276-0.001l-10.768,16.062
		c-2.377,3.545-1.43,8.344,2.115,10.721c3.546,2.377,8.343,1.429,10.721-2.115c17.022-24.382,10.114-24.388,27.141,0
		c1.491,2.224,3.935,3.426,6.425,3.426c6.088-0.002,9.881-6.854,6.411-12.031L200.367,197.059z"/>
</g>
<g>
</g>
<g>
</g>
<g>
</g>
<g>
</g>
<g>
</g>
<g>
</g>
<g>
</g>
<g>
</g>
<g>
</g>
<g>
</g>
<g>
</g>
<g>
</g>
<g>
</g>
<g>
</g>
<g>
</g>
</svg>
