<?xml version="1.0" encoding="iso-8859-1"?>
<!-- Generator: Adobe Illustrator 19.0.0, SVG Export Plug-In . SVG Version: 6.00 Build 0)  -->
<svg version="1.1" id="Capa_1" xmlns="http://www.w3.org/2000/svg" xmlns:xlink="http://www.w3.org/1999/xlink" x="0px" y="0px"
	 viewBox="0 0 512 512" style="enable-background:new 0 0 512 512;" xml:space="preserve">
<g>
	<path style="fill:#70BBEF;" d="M443.276,446.3c-10.762-29.816-16.027-59.899-17.922-88.11l0.117,0.152
		c-3.079-45.552,1.835-95.431,16.653-146.22c2.235-7.658-0.434-15.908-6.75-20.782c-8.67-6.69-20.418-19.233-27.662-41.197
		c-53.767,134.841-180.103,295.683-245.963,326.817l-24.503,11.584l9.373,3.575c80.716,30.441,213.182,29.251,290.872-27.019
		C443.4,460.82,445.753,453.163,443.276,446.3z"/>
	<path style="fill:#70BBEF;" d="M116.062,294.135l0.009-0.013c2.035,21.234,2.482,43.623,1.02,65.253l0.067-0.087l0.051-0.066l0,0
		l0,0c-0.007,0.107-0.045,0.588-0.062,0.834l-0.001,0.001c-2.094,30.159-8.068,62.424-20.481,94.201
		c0.994,7.716,3.371,12.701,6.648,14.866c9.151,6.047,35.831-2.699,74.812-35.87C262.34,361.59,358.604,217.495,392.397,112.53
		c15.644-48.591,13.413-76.443,4.263-82.489c-6.449-4.26-18.705-0.233-28.283,4.204c-57.225,70.712-139.417,68.785-195.17-2.516
		l1.249,1.616c-1.125-1.401-2.125-2.692-2.989-3.841c-2.625-3.49-7.127-4.993-11.322-3.777l-18.887,5.471
		c-5.741,1.662-9.134,7.546-7.752,13.36c22.626,95.217-8.409,133.998-26.317,147.817c-6.316,4.875-8.985,13.124-6.75,20.782
		C108.426,240.532,113.531,267.7,116.062,294.135z"/>
</g>
<g>
	<path style="fill:#57ADDD;" d="M124.647,462.598c12.916-33.063,19.131-66.632,21.31-98.011l0.001-0.001
		c0.018-0.255,0.057-0.757,0.065-0.867l-0.053,0.068l-0.069,0.09c1.52-22.505,1.056-45.799-1.062-67.894l-0.009,0.014
		c-2.634-27.504-7.945-55.771-16.255-84.255c-2.326-7.969,0.452-16.551,7.024-21.622c18.631-14.378,50.923-54.727,27.381-153.796
		c-0.934-3.931,0.238-7.883,2.805-10.65c-1.811-0.485-3.755-0.491-5.639,0.054l-18.887,5.471c-5.741,1.662-9.134,7.546-7.752,13.36
		c22.626,95.217-8.409,133.998-26.317,147.817c-6.316,4.875-8.985,13.124-6.75,20.782c7.988,27.376,13.092,54.545,15.624,80.979
		l0.009-0.013c2.035,21.235,2.482,43.623,1.021,65.253l0.067-0.087l0.051-0.066c-0.007,0.107-0.045,0.589-0.062,0.834l-0.001,0.001
		c-2.094,30.159-8.068,62.424-20.481,94.201c0.994,7.716,3.371,12.701,6.648,14.866c4.08,2.695,11.653,2.441,22.237-1.598
		C125.182,466.023,124.878,464.384,124.647,462.598z"/>
	<path style="fill:#57ADDD;" d="M272.937,137.79c53.016,0,96.988-46.509,105.256-107.441c-3.361,1.081-6.727,2.465-9.816,3.896
		c-57.225,70.712-139.417,68.785-195.17-2.516l1.249,1.616c-3.225-4.016-4.033-5.822-7.29-7.202
		C173.934,89.13,218.708,137.79,272.937,137.79z"/>
</g>
<path style="fill:#399DC9;" d="M221.695,73.496c-17.366-9.096-33.841-23.033-48.489-41.766l1.249,1.616
	c-3.225-4.016-4.033-5.822-7.29-7.202c6.769,62.986,51.544,111.647,105.773,111.647c6.304,0,12.477-0.665,18.481-1.927
	C261.591,129.217,236.287,105.795,221.695,73.496z"/>
<path style="fill:#5085BA;" d="M412.428,6.437c-22.152-14.64-56.462-4.188-99.596,30.132h-0.023
	c-26.393,21.004-44.896,41.584-52.235,49.037c14.995,1.67,30.135,0.024,44.9-5c16.74-15.765,37.56-33.147,57.565-43.724
	c9.803-5.143,25.888-11.948,33.621-6.84c9.15,6.047,11.38,33.898-4.263,82.489c-33.793,104.965-130.057,249.06-214.273,320.723
	c-38.981,33.171-65.66,41.917-74.812,35.87c-7.683-5.077-7.561-22.473-6.84-31.732h-0.007c2.076-27.64,12.56-54.921,20.681-77.336
	c0.019-0.278,0.044-0.557,0.062-0.834l-0.118,0.152c1.42-21.001,1.126-42.863-1.02-65.253l-1.358,1.96
	c-19.611,39.099-44.096,96.682-46.738,141.311h-0.013c-0.074,1.251-0.203,5.021-0.206,5.189h0.012
	c-1.057,60.143,44.341,84.148,128.884,12.207C332.162,339.476,488.036,56.398,412.428,6.437z"/>
<path style="fill:#3A77AA;" d="M412.428,6.437c-1.914-1.265-3.926-2.33-6.019-3.22c60.235,61.571-90.417,331.399-221.902,443.286
	c-46.745,39.778-81.515,50.212-103.09,41.435c19.224,20.219,58.375,15.235,115.234-33.15
	C332.162,339.476,488.036,56.398,412.428,6.437z"/>
<g>
</g>
<g>
</g>
<g>
</g>
<g>
</g>
<g>
</g>
<g>
</g>
<g>
</g>
<g>
</g>
<g>
</g>
<g>
</g>
<g>
</g>
<g>
</g>
<g>
</g>
<g>
</g>
<g>
</g>
</svg>
