<?xml version="1.0" encoding="iso-8859-1"?>
<!-- Generator: Adobe Illustrator 19.0.0, SVG Export Plug-In . SVG Version: 6.00 Build 0)  -->
<svg version="1.1" id="Capa_1" xmlns="http://www.w3.org/2000/svg" xmlns:xlink="http://www.w3.org/1999/xlink" x="0px" y="0px"
	 viewBox="0 0 512 512" style="enable-background:new 0 0 512 512;" xml:space="preserve">
<path style="fill:#77B777;" d="M191.573,115.093c0,0,2.728,24.172,3.539,44.063c3.2,0.359,6.3,1.776,8.73,4.247
	c3.578,2.995,17.047,5.51,19.528,6.025c1.672,0.226,8.765,1.616,21.249,2.26c28.302,1.414,56.86-3.062,63.538-8.286
	c2.428-2.469,5.529-3.888,8.73-4.247c0.811-19.89,3.539-44.062,3.539-44.062c4.818-12.68,6.505-28.169,6.773-41.738h0.042
	c0-62.119,1.679-64.291-5.284-70.039c-7.461-6.156-18.824-3.421-22.619,5.554c-1.942,4.591-0.814,6.896-1.141,28.427
	c0,10.605-5.878,13.997-7.655,14.781c-25.859,9.587-23.961,29.333-35.669,27.777c-9.432-1.255-9.225-18.809-33.416-27.777
	c-1.776-0.784-7.655-4.176-7.655-14.781c-0.336-22.026,0.793-23.855-1.141-28.427c-4.989-11.796-21.767-11.815-26.763,0
	c-1.574,3.72-1.141,0.825-1.141,64.485h0.042C185.066,86.913,186.781,102.481,191.573,115.093z"/>
<path style="fill:#6AAA6A;" d="M223.136,123.787c-0.35-5.162-1.337-10.246-2.746-15.224c-3.177-11.216-4.405-23.911-4.626-35.208
	h-0.042c0-10.826-0.013-19.725-0.025-27.061c-1.094-2.178-1.893-5.096-1.893-8.998c-0.336-22.026,0.793-23.855-1.141-28.427
	c-4.989-11.796-21.767-11.815-26.763,0c-1.573,3.72-1.141,0.825-1.141,64.485h0.042c0.266,13.556,1.981,29.126,6.773,41.738
	c0,0,2.728,24.172,3.539,44.063c3.2,0.359,6.3,1.776,8.73,4.247c3.578,2.995,17.047,5.51,19.528,6.025
	c0.45,0.061,1.306,0.207,2.54,0.4C225.252,155.719,223.915,135.281,223.136,123.787z"/>
<path style="fill:#77B777;" d="M452.298,424.926L327.983,178.431c-1.781,1.792-4.043,3.443-6.831,4.854
	c-26.134,15.667-114.007,16.647-137.133-4.856L59.703,424.926c-3.993,7.752-1.749,17.229,5.239,22.445
	c45.788,34.178,90.572,6.546,120.725,35.994c39.25,38.322,102.328,38.336,141.577-0.899c27.832-27.832,74.384-1.184,119.815-35.096
	C454.046,442.155,456.29,432.678,452.298,424.926z"/>
<path style="fill:#6AAA6A;" d="M92.417,457.897c-7.261-5.421-9.593-15.268-5.444-23.324L210.238,190.16
	c-11.316-2.68-20.649-6.551-26.219-11.731L59.703,424.926c-3.993,7.752-1.749,17.229,5.239,22.445
	c12.28,9.167,24.488,13.884,36.361,16.452C98.347,462.076,95.385,460.113,92.417,457.897z"/>
<g>
	<path style="fill:#60A060;" d="M179.09,477.965l43.195-220.479c0.821-4.188-1.909-8.248-6.097-9.069
		c-4.183-0.814-8.248,1.911-9.068,6.097l-42.454,216.696C169.722,472.711,174.542,474.852,179.09,477.965z"/>
	<path style="fill:#60A060;" d="M295.136,248.417c-4.188,0.821-6.918,4.881-6.098,9.069l43.233,220.673
		c4.432-3.242,9.247-5.441,14.384-6.961l-42.452-216.684C303.383,250.327,299.323,247.598,295.136,248.417z"/>
</g>
<path style="fill:#6AAA6A;" d="M255.705,197.927c-20.149,0-58.665-2.816-72.672-17.353c-5.567-5.774-5.399-14.968,0.375-20.535
	c5.742-5.534,14.857-5.4,20.435,0.273c3.578,2.995,17.047,5.51,19.529,6.025c1.672,0.226,8.765,1.615,21.249,2.26
	c28.302,1.414,56.86-3.062,63.538-8.286c5.563-5.658,14.658-5.808,20.402-0.303c7.432,7.12,6.103,19.528-7.408,26.37
	C301.237,198.316,255.303,197.927,255.705,197.927z"/>
<g>
	<path style="fill:#60A060;" d="M219.778,191.219c-5.567-5.774-5.399-14.968,0.375-20.535c2.043-1.969,4.515-3.206,7.101-3.746
		c-1.981-0.291-3.284-0.522-3.882-0.602c-2.482-0.515-15.95-3.03-19.528-6.025c-5.578-5.672-14.693-5.807-20.435-0.273
		c-5.773,5.567-5.942,14.761-0.375,20.535c8.494,8.815,25.998,13.315,42.956,15.496
		C223.601,194.619,221.502,193.009,219.778,191.219z"/>
	<path style="fill:#60A060;" d="M321.958,3.316c-9.318-7.689-23.76-1.205-23.76,11.207c-0.527,19.396,1.252,25.548-1.907,31.802
		h30.951C326.88,14.402,329.23,9.32,321.958,3.316z"/>
	<path style="fill:#60A060;" d="M185.898,8.87c-1.985,4.693-0.783,5.891-1.141,37.454h30.951c-3.155-6.247-1.379-12.38-1.907-31.802
		C213.803-1.256,192.038-5.646,185.898,8.87z"/>
</g>
<g>
</g>
<g>
</g>
<g>
</g>
<g>
</g>
<g>
</g>
<g>
</g>
<g>
</g>
<g>
</g>
<g>
</g>
<g>
</g>
<g>
</g>
<g>
</g>
<g>
</g>
<g>
</g>
<g>
</g>
</svg>
