<?xml version="1.0" encoding="iso-8859-1"?>
<!-- Generator: Adobe Illustrator 19.0.0, SVG Export Plug-In . SVG Version: 6.00 Build 0)  -->
<svg version="1.1" id="Capa_1" xmlns="http://www.w3.org/2000/svg" xmlns:xlink="http://www.w3.org/1999/xlink" x="0px" y="0px"
	 viewBox="0 0 512 512" style="enable-background:new 0 0 512 512;" xml:space="preserve">
<path style="fill:#F96989;" d="M472.723,93.422c-2.805-7.73,1.807-1.968-120.626-63.166l-192.193-0.008l-0.007,0.008
	C37.337,91.519,40.489,85.868,38.688,95.592c-0.623,3.381,0.052,6.671,1.673,9.402c0.061,0.103,35.033,59.096,35.59,59.8
	c2.446,3.091,6.795,3.931,10.211,2.006c0.409-0.23,0.688-0.443,1.114-0.672c0.103-0.055,0.901-0.485,0.798-0.43
	c18.889-10.186,19.135-11.147,22.173-9.738c2.157,0.993,2.478,1.224,10.679,24.675l-0.001,0.001
	c28.079,88.509,6.106,198.263-22.066,287.116c-2.078,6.27,1.277,15.392,9.477,18.88c79.347,33.151,209.986,33.986,291.716,1.477
	c4.223-1.683,7.525-2.827,10.549-7.04c3.041-4.231,3.737-9.699,2.541-13.316c-28.662-87.047-49.663-200.128-22.067-287.116
	l-0.001-0.001c8.027-22.328,8.165-23.838,11.165-24.87c1.613-0.484,3.026-0.3,4.317,0.562l0.001,0.001
	c0.113,0.054,18.281,9.86,18.167,9.799c0.423,0.228,0.711,0.445,1.114,0.672c3.409,1.921,7.761,1.09,10.211-2.006
	c0.638-0.807,0.251-0.331,9.357-15.62c27.15-46.639,28.137-44.99,28.137-51.113C473.538,96.507,473.251,94.879,472.723,93.422z"/>
<polygon style="fill:#ED5A81;" points="249.575,30.251 214.315,30.249 255.998,74.198 273.558,55.683 "/>
<path style="fill:#DD4A78;" d="M187.195,1.655l26.276,32.901h85.055l26.41-33.043c-2.949-1.197-5.583-1.391-6.629-1.412
	C190.121,0.77,194.081-1.346,187.077,1.703l0.005,0.006C187.122,1.692,187.155,1.672,187.195,1.655z"/>
<path style="fill:#D34477;" d="M221.132,0.091c-29.572-0.184-29.735-0.269-34.057,1.613l0.005,0.006
	c0.04-0.017,0.073-0.037,0.113-0.054l26.276,32.901h40.165L221.132,0.091z"/>
<path style="fill:#ED5A81;" d="M122.771,480.631c29.475-88.853,52.463-222.304,23.086-310.813l0.001-0.001
	c-8.451-23.067-8.851-23.654-11.173-24.675c-3.179-1.409-3.437-0.448-23.198,9.738c0.07-0.036-0.795,0.386-1.653,0.9
	c2.662,1.102,2.738,1.02,11.091,24.856l-0.001,0.001c28.079,88.509,6.107,198.263-22.066,287.116
	c-2.078,6.27,1.277,15.392,9.477,18.88c5.348,2.234,10.909,4.296,16.27,6.106C122.172,488.843,121.512,484.261,122.771,480.631z"/>
<g>
	<path style="fill:#656566;" d="M255.998,114.209c-4.267,0-7.726,3.459-7.726,7.726v0.515c0,4.267,3.459,7.726,7.726,7.726
		c4.266,0,7.726-3.459,7.726-7.726v-0.515C263.723,117.668,260.264,114.209,255.998,114.209z"/>
	<path style="fill:#656566;" d="M255.998,412.845c-10.313,0-10.326,16.507,0,16.507c4.266,0,7.726-3.459,7.726-7.726v-1.055
		C263.723,416.304,260.264,412.845,255.998,412.845z"/>
	<path style="fill:#656566;" d="M255.998,370.144c-4.267,0-7.726,3.459-7.726,7.726v1.056c0,4.267,3.459,7.726,7.726,7.726
		c4.266,0,7.726-3.459,7.726-7.726v-1.056C263.723,373.603,260.264,370.144,255.998,370.144z"/>
	<path style="fill:#656566;" d="M255.998,327.444c-4.267,0-7.726,3.459-7.726,7.726v1.056c0,4.267,3.459,7.726,7.726,7.726
		c4.266,0,7.726-3.459,7.726-7.726v-1.056C263.723,330.902,260.264,327.444,255.998,327.444z"/>
	<path style="fill:#656566;" d="M255.998,284.743c-4.267,0-7.726,3.459-7.726,7.726v1.055c0,4.267,3.459,7.726,7.726,7.726
		c4.266,0,7.726-3.459,7.726-7.726v-1.055C263.723,288.202,260.264,284.743,255.998,284.743z"/>
	<path style="fill:#656566;" d="M255.998,242.042c-4.267,0-7.726,3.459-7.726,7.726v1.056c0,4.267,3.459,7.726,7.726,7.726
		c4.266,0,7.726-3.459,7.726-7.726v-1.056C263.723,245.501,260.264,242.042,255.998,242.042z"/>
	<path style="fill:#656566;" d="M255.998,199.34c-4.267,0-7.726,3.459-7.726,7.726v1.056c0,4.267,3.459,7.726,7.726,7.726
		c4.266,0,7.726-3.459,7.726-7.726v-1.056C263.723,202.799,260.264,199.34,255.998,199.34z"/>
	<path style="fill:#656566;" d="M255.998,156.64c-4.267,0-7.726,3.459-7.726,7.726v1.056c0,4.267,3.459,7.726,7.726,7.726
		c4.266,0,7.726-3.459,7.726-7.726v-1.056C263.723,160.099,260.264,156.64,255.998,156.64z"/>
</g>
<g>
	<path style="fill:#DD4A78;" d="M473.079,94.552c-2.518-8.263-8.017-8.065-21.837-15.527l-44.549,77.389
		c0.578,0.312,18.137,9.773,18.027,9.714c0.103,0.056,0.484,0.262,0.381,0.206c3.555,2.536,8.418,1.718,10.995-1.614
		c0.513-0.663-1.891,3.314,35.539-59.727C473.44,101.952,474.005,98.419,473.079,94.552z"/>
	<path style="fill:#DD4A78;" d="M179.463,7.413L179.463,7.413L179.463,7.413l-19.565,22.843l46.476,69.339
		c2.694,4.019,8.918,4.933,12.98,1.906l36.645-27.302L187.195,1.655C182.644,3.601,180.438,6.421,179.463,7.413z"/>
	<path style="fill:#DD4A78;" d="M324.939,1.511l-68.941,72.687l38,28.312c3.358,2.501,8.501,1.745,10.726-1.575l47.374-70.68
		C332.54,8.458,331.739,4.274,324.939,1.511z"/>
</g>
<path style="fill:#ED5A81;" d="M159.897,30.255C37.337,91.519,40.489,85.867,38.688,95.592c-0.623,3.38,0.052,6.671,1.673,9.402
	c0.023,0.039,4.984,8.406,11.194,18.87c0.778-10.483,12.14-12.59,125.067-68.656L159.897,30.255z"/>
<path style="fill:#DD4A78;" d="M40.361,104.995c37.88,63.796,35.236,59.909,37.164,61.302c1.58,1.146,3.683,1.761,5.874,1.437
	c1.751-0.257,1.149-0.036,21.904-11.32L60.754,79.025l-15.029,7.393C39.423,89.517,36.186,97.081,40.361,104.995z"/>
<path style="fill:#D34477;" d="M60.754,79.025c-14.402,7.435-21.213,8.756-22.196,17.519c-0.631,6.159,2.044,8.838,12.998,27.32
	c0.036-0.492,0.091-0.986,0.183-1.483c0.865-4.665,5.622-8.3,23.856-17.576L60.754,79.025z"/>
<g>
</g>
<g>
</g>
<g>
</g>
<g>
</g>
<g>
</g>
<g>
</g>
<g>
</g>
<g>
</g>
<g>
</g>
<g>
</g>
<g>
</g>
<g>
</g>
<g>
</g>
<g>
</g>
<g>
</g>
</svg>
