<?xml version="1.0" encoding="iso-8859-1"?>
<!-- Generator: Adobe Illustrator 19.0.0, SVG Export Plug-In . SVG Version: 6.00 Build 0)  -->
<svg version="1.1" id="Capa_1" xmlns="http://www.w3.org/2000/svg" xmlns:xlink="http://www.w3.org/1999/xlink" x="0px" y="0px"
	 viewBox="0 0 512.006 512.006" style="enable-background:new 0 0 512.006 512.006;" xml:space="preserve">
<path style="fill:#57ADDD;" d="M83.801,62.237c-23.381,0-40,0-46.121,0c-20.697,0-37.631,16.934-37.631,37.631
	c0,16.231,0,339.942,0,374.502C0.05,495.066,16.984,512,37.68,512h436.646c20.697,0,37.631-16.934,37.631-37.631
	c0-16.231,0-339.942,0-374.502c0-20.698-16.934-37.631-37.631-37.631c-3.718,0-20.756,0-46.121,0"/>
<g>
	<polygon style="fill:#399DC9;" points="248.599,152.807 285.951,152.807 211.861,62.237 174.371,62.237 	"/>
	<path style="fill:#399DC9;" d="M26,474.37c0-34.56,0-358.271,0-374.502C26,79.17,42.934,62.237,63.63,62.237
		c-12.734,0-21.78,0-25.949,0c-20.697,0-37.631,16.934-37.631,37.631c0,16.231,0,339.942,0,374.502
		C0.051,495.066,16.985,512,37.681,512H63.63C42.933,512,26,495.066,26,474.37z"/>
</g>
<g>
	<rect x="401.855" y="62.24" style="fill:#70BBEF;" width="15.451" height="449.766"/>
	<rect x="350.664" y="62.24" style="fill:#70BBEF;" width="15.451" height="449.766"/>
	<path style="fill:#70BBEF;" d="M468.5,62.237V512h-15.45V62.237C459.367,62.237,464.575,62.237,468.5,62.237z"/>
	<rect x="299.474" y="108.512" style="fill:#70BBEF;" width="15.451" height="403.484"/>
	<rect x="94.701" y="62.24" style="fill:#70BBEF;" width="15.451" height="449.766"/>
	<rect x="145.892" y="62.24" style="fill:#70BBEF;" width="15.451" height="449.766"/>
	<path style="fill:#70BBEF;" d="M43.516,62.237V512h15.451V62.237C52.649,62.237,47.442,62.237,43.516,62.237z"/>
	<rect x="197.092" y="108.512" style="fill:#70BBEF;" width="15.451" height="403.484"/>
</g>
<path style="fill:#F2C29E;" d="M282.851,235.555h-53.695L183.806,512c20.909,0,123.436,0,144.391,0L282.851,235.555z"/>
<path style="fill:#E5AE89;" d="M229.156,235.555L183.806,512c5.165,0,15.316,0,27.984,0l45.35-276.445H229.156z"/>
<path style="fill:#CC9D72;" d="M256.004,152.807l-48.28,41.374l21.433,41.374c17.059,0,36.635,0,53.695,0l21.433-41.374
	L256.004,152.807z"/>
<path style="fill:#C19067;" d="M272.937,167.317l-16.933-14.511l-48.28,41.374l21.433,41.374h28.028l-15.482-28.269
	c-2.868-5.236-1.676-11.766,2.858-15.651L272.937,167.317z"/>
<g>
	<path style="fill:#5085BA;" d="M83.801,62.237l83.278,142.912c4.828,8.284,15.98,10.167,23.26,3.929l65.664-56.272L133.273,3.971
		C119.611,11.056,116.661,18.506,83.801,62.237z"/>
	<path style="fill:#5085BA;" d="M379.686,2.815l-123.683,149.99l68.092,58.353c6.016,5.155,15.232,3.598,19.22-3.247l84.889-145.676
		C395.785,20.54,391.796,9.153,379.686,2.815z"/>
</g>
<g>
	<path style="fill:#3A77AA;" d="M133.253,3.982c-0.292,0.151-0.58,0.304-0.866,0.461C132.673,4.289,132.958,4.135,133.253,3.982z"/>
	<path style="fill:#3A77AA;" d="M386.424,7.575l0.005-0.006C386.193,7.357,386.158,7.33,386.424,7.575z"/>
	<path style="fill:#3A77AA;" d="M181.32,62.237h149.366l48.998-59.42c-9.107-4.772,7.672-1.829-231.464-2.724
		c-5.545,0-10.59,1.617-14.946,3.877L181.32,62.237z"/>
</g>
<path style="fill:#2B709E;" d="M161.062,0.14c-4.199-0.014-8.472-0.029-12.841-0.045c-5.545,0-10.59,1.617-14.946,3.877
	l48.047,58.267h30.54L161.062,0.14z"/>
<polygon style="fill:#967D74;" points="282.871,235.677 218.591,299.957 214.303,326.097 285.951,254.449 "/>
<polygon style="fill:#7C6359;" points="247.778,292.622 252.066,266.483 218.591,299.957 215.137,321.01 214.303,326.097 "/>
<polygon style="fill:#967D74;" points="298.442,330.6 196.908,432.133 192.62,458.273 301.521,349.372 "/>
<polygon style="fill:#7C6359;" points="230.383,398.659 196.908,432.133 192.62,458.273 226.095,424.798 "/>
<path style="fill:#967D74;" d="M306.228,378.061L186.067,498.222L183.807,512c2.426,0,5.964,0,10.333,0l115.167-115.167
	L306.228,378.061z"/>
<path style="fill:#7C6359;" d="M219.541,464.747l-33.475,33.475L183.806,512c2.426,0,5.964,0,10.333,0l21.113-21.113
	L219.541,464.747z"/>
<g>
	<path style="fill:#967D74;" d="M324.657,490.416l-3.079-18.772L281.221,512c7.817,0,15.226,0,21.852,0L324.657,490.416z"/>
	<path style="fill:#967D74;" d="M317.092,444.294l-3.079-18.772L227.534,512c7.003,0,14.384,0,21.852,0L317.092,444.294z"/>
	<polygon style="fill:#967D74;" points="293.735,301.911 290.657,283.139 207.749,366.046 203.462,392.185 	"/>
</g>
<polygon style="fill:#7C6359;" points="241.225,332.572 207.749,366.046 206.765,372.05 203.462,392.185 236.936,358.711 "/>
<path style="fill:#967D74;" d="M275.886,169.844l-53.206,53.207l6.477,12.504c0.948,0,1.906,0,2.869,0l55.626-55.627
	L275.886,169.844z"/>
<path style="fill:#7C6359;" d="M240.549,205.18l-17.871,17.871l6.477,12.504c0.948,0,1.907,0,2.869,0l16.256-16.256L240.549,205.18z
	"/>
<g>
</g>
<g>
</g>
<g>
</g>
<g>
</g>
<g>
</g>
<g>
</g>
<g>
</g>
<g>
</g>
<g>
</g>
<g>
</g>
<g>
</g>
<g>
</g>
<g>
</g>
<g>
</g>
<g>
</g>
</svg>
