<?xml version="1.0" encoding="iso-8859-1"?>
<!-- Generator: Adobe Illustrator 19.0.0, SVG Export Plug-In . SVG Version: 6.00 Build 0)  -->
<svg version="1.1" id="Capa_1" xmlns="http://www.w3.org/2000/svg" xmlns:xlink="http://www.w3.org/1999/xlink" x="0px" y="0px"
	 viewBox="0 0 511.998 511.998" style="enable-background:new 0 0 511.998 511.998;" xml:space="preserve">
<polygon style="fill:#5085BA;" points="213.242,36.98 298.756,36.98 255.999,88.832 "/>
<polygon style="fill:#2B709E;" points="273.76,67.293 248.753,36.98 213.242,36.98 255.999,88.832 "/>
<path style="fill:#70BBEF;" d="M423.006,71.404c-6.616-7.57-14.896-13.504-24.192-17.334l-46.699-19.247
	c-19.381-26.026-20.338-26.907-27.62-30.509l0,0l0,0L256,85.375l0,0L187.503,4.314l0,0l0,0c-7.743,3.83-9.874,6.678-27.621,30.509
	L113.183,54.07c-9.295,3.831-17.576,9.764-24.192,17.334c-81.078,92.831-76.3,87.145-77.035,88.316
	c-2.077,3.301-1.807,7.501,0.49,10.501c1.1,1.442,62.122,49.316,62.227,49.397c3.802,2.97,9.065,3.042,12.951,0.345
	c2.488-1.727,16.838-19.407,19.046-21.483c1.538-1.298,4.025-0.591,4.542,1.483c3.601,14.865,6.533,38.35,7.957,53.585
	c11.368,121.567-16.926,209.206-16.183,217.492c0.603,6.727,4.61,12.637,10.541,15.415c4.67,2.205,17.891,7.322,32.343,11.401l0,0
	l0,0c66.807,18.895,153.723,18.817,220.255,0l0,0l0,0c14.8-4.177,29.028-9.768,32.576-11.509c5.971-2.935,9.726-8.836,10.307-15.308
	c0.891-9.936-14.049-46.387-18.059-126.126c-2.209-43.93,0.526-105.641,9.832-144.953c0.542-2.175,3.331-2.947,4.928-1.097
	c25.618,29.716,12.934,15.003,16.601,19.256c1.938,2.248,4.857,3.717,8.058,3.793c6.1,0.146,8.468-4.104,16.46-9.781
	c52.971-41.729,54.215-41.212,54.587-46.906C501.486,164.197,502.44,163.248,423.006,71.404z"/>
<g>
	<path style="fill:#57ADDD;" d="M161.345,32.854c-0.477,0.643-0.961,1.296-1.462,1.969L113.184,54.07
		c-9.295,3.831-17.576,9.764-24.192,17.334c-81.078,92.831-76.299,87.145-77.035,88.316c-2.077,3.301-1.807,7.501,0.49,10.501
		c0.379,0.496,7.855,6.493,17.504,14.148c-0.676-2.43-0.379-5.105,1.043-7.365c0.736-1.17-4.043,4.516,77.035-88.316
		c6.616-7.57,14.896-13.504,24.192-17.334l43.799-18.051L161.345,32.854z"/>
	<path style="fill:#57ADDD;" d="M129.039,481.174c-0.743-8.466,27.551-98,16.183-222.195c-1.424-15.565-4.356-39.558-7.957-54.744
		c-8.481-35.393-30.982-5.368-30.982-5.368l-0.003,0.009c0.152-0.16,0.29-0.301,0.392-0.397c1.539-1.298,4.025-0.591,4.542,1.483
		c1.939,8.003,3.68,18.503,5.1,28.87h0.001c18.305,133.56-14.129,233.274-13.328,242.208c0.603,6.727,4.609,12.637,10.541,15.415
		c3.629,1.713,12.426,5.183,22.945,8.56C132.274,491.804,129.53,486.766,129.039,481.174z"/>
</g>
<path style="fill:#656566;" d="M187.411,2.357l26.019,37.47h83.135l28.122-37.599c-2.395-1.199-5.264-2.09-8.54-2.09
	C192.83,1.071,195.857-1.867,187.411,2.357z"/>
<path style="fill:#545456;" d="M218.321,0.09c-24.934-0.224-25.951-0.213-30.91,2.266l26.019,37.47h37.672L218.321,0.09z"/>
<path style="fill:#656566;" d="M29.747,139.19l-16.92,19.359c-3.475,3.976-2.911,10.052,1.237,13.32l60.547,47.704
	c4.604,3.627,11.247,2.988,15.075-1.452l16.598-19.254L29.747,139.19L29.747,139.19z"/>
<path style="fill:#545456;" d="M50.051,155.022L29.747,139.19c-17.446,19.977-18.757,20.57-19.151,24.492
	c-0.125,1.205,0.01,2.66,0.49,4.015c0.98,2.778,0.287,1.932,18.865,16.672c-0.676-2.43-0.379-5.105,1.043-7.365
	C31.468,176.249,29.657,178.337,50.051,155.022z"/>
<g>
	<path style="fill:#656566;" d="M482.25,139.19l16.92,19.359c3.475,3.976,2.911,10.052-1.237,13.32l-60.547,47.704
		c-4.604,3.627-11.247,2.988-15.075-1.452l-16.598-19.254L482.25,139.19L482.25,139.19z"/>
	<circle style="fill:#656566;" cx="256.002" cy="137.27" r="9.943"/>
	<circle style="fill:#656566;" cx="256.002" cy="173.09" r="9.943"/>
	<path style="fill:#656566;" d="M179.388,8.627L179.388,8.627l-19.507,26.195l51.493,71.752c3.225,4.497,8.705,5.406,12.983,2.193
		l31.641-23.393L187.503,2.31C182.416,4.826,179.388,8.627,179.388,8.627z"/>
	<path style="fill:#656566;" d="M332.609,8.627L332.609,8.627c0,0-2.937-3.934-8.009-6.446l-68.602,83.193l32.997,24.554
		c3.612,2.677,8.037,1.705,10.728-1.812l52.392-73.295L332.609,8.627z"/>
</g>
<g>
</g>
<g>
</g>
<g>
</g>
<g>
</g>
<g>
</g>
<g>
</g>
<g>
</g>
<g>
</g>
<g>
</g>
<g>
</g>
<g>
</g>
<g>
</g>
<g>
</g>
<g>
</g>
<g>
</g>
</svg>
