<?xml version="1.0" encoding="iso-8859-1"?>
<!-- Generator: Adobe Illustrator 19.0.0, SVG Export Plug-In . SVG Version: 6.00 Build 0)  -->
<svg version="1.1" id="Capa_1" xmlns="http://www.w3.org/2000/svg" xmlns:xlink="http://www.w3.org/1999/xlink" x="0px" y="0px"
	 viewBox="0 0 512 512" style="enable-background:new 0 0 512 512;" xml:space="preserve">
<path style="fill:#656566;" d="M0,131.952L41.106,290.53H41.09c2.908,10.132,4.427,20.671,4.427,31.333l7.347,150.243
	c0.374,7.65,6.686,13.661,14.345,13.661l0,0c8.269,0,15.044-6.565,15.306-14.83L88.059,295.3c0-10.576,11.82-27.614,35.912,0.835
	C78.804,209.796,0.002,131.954,0,131.952z"/>
<path style="fill:#545456;" d="M67.311,472.107c-0.535-146.691,4.283-154.343-3.533-181.577h0.016L31.471,165.836
	C13.002,144.796,0.001,131.952,0,131.951l41.106,158.578H41.09c5.3,18.465,3.106,13.956,11.774,181.577
	c0.517,10.592,11.983,17.103,21.697,11.772C70.429,481.523,67.559,477.182,67.311,472.107z"/>
<path style="fill:#ED694A;" d="M508.497,453.618c0,0-44.591-53.536-111.878-91.27c-12.858-7.211-28.698-6.388-40.907,1.875
	c-16.412,11.109-36.877,16.412-55.961,16.412c-56.62,0-81.043-64.391-81.043-64.391L96.65,44.891
	c-13.199-29.34-38.128-15.326-38.157-15.31C33.691,44.46,0,75.126,0,131.952c0,0,109.025,120.687,145.659,208.943
	c14.717,35.454,27.016,65.797,39.379,89.421l0,0c0,0,28.135,55.452,83.159,55.452h223.11
	C507.82,485.767,517.642,467.367,508.497,453.618z"/>
<path style="fill:#D8553A;" d="M214.28,429.196c-12.363-24.1-24.661-55.055-39.379-91.224
	c-26.142-64.25-89.148-145.349-123.092-186.531c-19.913-24.158-23.316-58.026-8.339-85.519c9.472-17.389,22.365-30.04,34.513-38.988
	c-10.216-2.565-19.473,2.638-19.489,2.648C33.691,44.46,0,75.126,0,131.951c0,0,109.025,120.687,145.659,208.943
	c14.717,35.454,27.016,65.797,39.379,89.421c0,0,28.135,55.452,83.159,55.452h29.241C242.414,485.767,214.28,429.196,214.28,429.196
	z"/>
<g>
</g>
<g>
</g>
<g>
</g>
<g>
</g>
<g>
</g>
<g>
</g>
<g>
</g>
<g>
</g>
<g>
</g>
<g>
</g>
<g>
</g>
<g>
</g>
<g>
</g>
<g>
</g>
<g>
</g>
</svg>
