<?xml version="1.0" encoding="iso-8859-1"?>
<!-- Generator: Adobe Illustrator 19.0.0, SVG Export Plug-In . SVG Version: 6.00 Build 0)  -->
<svg version="1.1" id="Capa_1" xmlns="http://www.w3.org/2000/svg" xmlns:xlink="http://www.w3.org/1999/xlink" x="0px" y="0px"
	 viewBox="0 0 512 512" style="enable-background:new 0 0 512 512;" xml:space="preserve">
<path style="fill:#F2C29E;" d="M383.911,352.551l28.378-81.48c4.438-12.899-1.078-27.485-12.32-32.577l-102.781-40.002
	c-11.53-5.222-24.566,1.268-29.118,14.498l-31.45,94.243C281.49,340.911,328.405,359.223,383.911,352.551z"/>
<path style="fill:#E5AE89;" d="M245.91,279.391l-9.291,27.843c44.871,33.677,91.786,51.989,147.292,45.316l9.549-27.415
	C338.036,331.164,290.938,312.853,245.91,279.391z"/>
<path style="fill:#F9D4BB;" d="M264.237,325.759c26.733,15.744,55.149,25.822,85.991,27.793l41.62-118.217l-85.31-33.202
	L264.237,325.759z"/>
<path style="fill:#F2C29E;" d="M359.995,325.813c-30.749-2.162-59.065-12.095-86.219-27.928l-9.533,27.858
	c27.007,15.876,55.099,25.803,85.991,27.793L359.995,325.813z"/>
<path style="fill:#CC9D72;" d="M153.8,269.783C75.361,189.07,20.743,153.643,0,144.732l0,0l0,0v229.353
	c0,10.865,7.677,16.582,17.146,16.582h44.982c9.87,0,17.871-6.09,17.871-17.415v-64.841c0-17.184,15.626-30.103,31.109-21.136
	c55.529,32.076,87.871,44.654,148.992,70.366l-3.447-3.975C216.251,330.961,181.515,298.302,153.8,269.783z"/>
<path style="fill:#C19067;" d="M51.513,374.085V177.469C27.402,159.214,9.866,148.97,0,144.732v229.353
	c0,10.865,7.677,16.582,17.146,16.582h44.982c1.118,0,2.208-0.089,3.269-0.243C57.489,389.243,51.513,383.67,51.513,374.085z"/>
<path style="fill:#F2C29E;" d="M510.561,319.725c-3.393-7.867-11.701-11.085-18.558-7.198
	c-133.493,75.777-218.596,39.698-319.707-64.348C101.659,175.492,54.548,138.124,22.509,122.797C11.784,117.666,0,126.707,0,139.213
	v7.579c20.743,8.911,75.361,44.337,153.799,125.052c105.958,109.031,202.897,152.954,350.489,69.174
	C511.144,337.126,513.953,327.592,510.561,319.725z"/>
<path style="fill:#E5AE89;" d="M51.513,173.727c0-12.507,11.784-21.547,22.509-16.417c0.583,0.28,1.182,0.581,1.776,0.876
	c-21.336-17.076-38.849-28.481-53.288-35.388C11.784,117.666,0,126.707,0,139.213v7.579c9.866,4.238,27.402,14.482,51.513,32.737
	V173.727z"/>
<g>
</g>
<g>
</g>
<g>
</g>
<g>
</g>
<g>
</g>
<g>
</g>
<g>
</g>
<g>
</g>
<g>
</g>
<g>
</g>
<g>
</g>
<g>
</g>
<g>
</g>
<g>
</g>
<g>
</g>
</svg>
