<?xml version="1.0" encoding="iso-8859-1"?>
<!-- Generator: Adobe Illustrator 19.0.0, SVG Export Plug-In . SVG Version: 6.00 Build 0)  -->
<svg version="1.1" id="Capa_1" xmlns="http://www.w3.org/2000/svg" xmlns:xlink="http://www.w3.org/1999/xlink" x="0px" y="0px"
	 viewBox="0 0 512 512" style="enable-background:new 0 0 512 512;" xml:space="preserve">
<path style="fill:#967D74;" d="M120.14,213.627c21.182,20.147,42.32,21.072,58.9,27.042c17.495,5.084,32.33,16.733,41.489,32.482
	c19.461,33.462,58.028,93.299,101.922,126.352c55.655,41.908,123.35,83.479,185.544,48.909
	c10.259-27.551,0.349-59.349-24.521-77.009c-31.277-22.211-83.133-62.448-83.133-85.081c0-27.454-6.532-120.281-28.648-168.124
	c-5.428-11.742-19.793-16.355-31.135-10.135c-25.657,14.07-74.407,34.887-112.334,15.923c-36.32-18.159-64.086-62.502-78.374-89.589
	c-5.54-10.503-19.79-12.373-27.81-3.618l-90.395,98.681L120.14,213.627z"/>
<path style="fill:#7C6359;" d="M149.851,34.396c-5.54-10.503-19.79-12.373-27.81-3.618l-90.395,98.681l19.481,18.529l86.742-94.693
	c5.512-6.017,13.964-7.015,20.511-3.643C155.16,44.207,152.303,39.044,149.851,34.396z"/>
<path style="fill:#656566;" d="M325.241,395.434c-43.24-32.561-81.234-91.507-100.406-124.471
	c-9.023-15.514-23.637-26.99-40.872-31.999c-15.89-5.721-37.221-6.853-58.023-26.639l-90.706-86.272l-0.446-0.02l-28.05,30.619
	c-9.34,10.196-8.918,25.96,0.954,35.642l86.983,85.31c7.507,7.362,18.613,9.682,28.44,5.939l17.952-6.838
	c9.367-3.569,19.969-2.016,27.792,4.251c8.927,7.151,20.545,19.12,30.722,38.169c17.741,33.205,41.073,63.096,69.688,87.559
	c43.757,37.407,106.78,80.097,166.511,80.097c49.167,0,68.015-21.297,74.071-44.189
	C448.082,478.498,380.611,437.129,325.241,395.434z"/>
<path style="fill:#545456;" d="M35.233,126.051l-0.446-0.02L6.737,156.652c-9.339,10.196-8.918,25.96,0.954,35.642l8.501,8.337
	c-1.221-7.499,0.865-15.448,6.374-21.463c5.493-5.996,27.317-29.821,31.9-34.824L35.233,126.051z"/>
<path style="fill:#A58F88;" d="M228.225,123.985c-36.32-18.159-64.086-62.502-78.374-89.589c-5.54-10.503-19.79-12.373-27.81-3.618
	l-9.678,10.565c0.006,0.015,53.235,124.916,161.74,89.598l0.001-0.003C258.486,132.635,242.581,131.163,228.225,123.985z"/>
<path style="fill:#967D74;" d="M149.851,34.396c-5.54-10.503-19.79-12.373-27.81-3.618l-9.678,10.565
	c0.002,0.004,4.545,10.662,13.677,24.867l11.83-12.915c5.512-6.017,13.964-7.015,20.511-3.643
	C155.16,44.207,152.303,39.044,149.851,34.396z"/>
<g>
	<path style="fill:#656566;" d="M302.317,172.046c-0.87-4.177,1.812-8.269,5.99-9.14l74.215-15.45
		c4.178-0.875,8.27,1.812,9.14,5.991c0.87,4.177-1.812,8.269-5.99,9.14l-74.215,15.45
		C307.279,178.907,303.187,176.224,302.317,172.046z"/>
	<path style="fill:#656566;" d="M312.921,206.403c-0.87-4.177,1.812-8.269,5.99-9.14l69.976-14.567
		c4.178-0.872,8.27,1.812,9.14,5.991c0.87,4.177-1.812,8.269-5.99,9.14l-69.976,14.567
		C317.882,213.264,313.79,210.58,312.921,206.403z"/>
	<path style="fill:#656566;" d="M323.524,240.76c-0.87-4.177,1.812-8.269,5.99-9.14l62.789-13.072
		c4.177-0.875,8.269,1.812,9.14,5.991c0.87,4.177-1.812,8.269-5.99,9.14l-62.789,13.072
		C328.487,247.621,324.394,244.938,323.524,240.76z"/>
	<path style="fill:#656566;" d="M334.129,275.117c-0.87-4.177,1.812-8.269,5.99-9.14L397.17,254.1
		c4.178-0.875,8.27,1.812,9.14,5.991c0.87,4.177-1.812,8.269-5.99,9.14l-57.051,11.877
		C339.09,281.979,334.998,279.296,334.129,275.117z"/>
</g>
<path style="fill:#A58F88;" d="M220.529,273.152c19.461,33.462,58.028,93.299,101.922,126.352
	c55.655,41.908,123.35,83.479,185.544,48.909c3.78-10.152,4.903-21.205,3.257-32.099c-26.47,12.078-58.888,7.246-58.888,7.246
	c-96.918-13.142-166.553-118.63-197.083-174.618c-10.84-19.879-28.751-34.812-50.099-42.359
	C129.079,179.682,61.065,97.356,61.061,97.35l-29.413,32.109l88.493,84.168c21.182,20.147,42.32,21.072,58.9,27.042
	C196.535,245.754,211.37,257.403,220.529,273.152z"/>
<path style="fill:#967D74;" d="M79.216,117.326C67.727,105.419,61.062,97.352,61.061,97.35l-29.413,32.109l19.481,18.529
	L79.216,117.326z"/>
<g>
</g>
<g>
</g>
<g>
</g>
<g>
</g>
<g>
</g>
<g>
</g>
<g>
</g>
<g>
</g>
<g>
</g>
<g>
</g>
<g>
</g>
<g>
</g>
<g>
</g>
<g>
</g>
<g>
</g>
</svg>
