<?xml version="1.0" encoding="iso-8859-1"?>
<!-- Generator: Adobe Illustrator 19.0.0, SVG Export Plug-In . SVG Version: 6.00 Build 0)  -->
<svg version="1.1" id="Capa_1" xmlns="http://www.w3.org/2000/svg" xmlns:xlink="http://www.w3.org/1999/xlink" x="0px" y="0px"
	 viewBox="0 0 512 512" style="enable-background:new 0 0 512 512;" xml:space="preserve">
<path style="fill:#EAE9E8;" d="M483.502,371.176c-31.976-22.707-84.992-63.845-84.992-86.983c0-28.068-6.677-122.97-29.288-171.883
	c-5.549-12.004-20.236-16.721-31.831-10.361c-26.231,14.385-76.071,35.667-114.845,16.28
	c-37.132-18.565-65.519-63.899-80.126-91.592c-5.664-10.737-20.233-12.651-28.433-3.699L8.012,138.63
	c-7.946,8.674-10.193,21.133-5.788,32.041c31.336,77.601,117.701,72.893,204.462,202.072
	c56.264,83.771,223.573,174.342,294.416,85.315C519.789,434.282,514.773,393.382,483.502,371.176z"/>
<path style="fill:#DBDBDB;" d="M21.579,164.879L133.761,42.414c3.821-4.172,8.949-6.112,14.004-6.01
	c-1.942-3.428-3.732-6.71-5.345-9.767c-5.664-10.737-20.233-12.651-28.433-3.699L8.012,138.63
	c-7.946,8.674-10.193,21.133-5.788,32.041c3.219,7.973,7.029,15.065,11.35,21.535C11.887,182.472,14.736,172.349,21.579,164.879z"/>
<g>
	<path style="fill:#656566;" d="M306.021,173.482c-3.584,0-6.796-2.507-7.557-6.154c-0.87-4.177,1.812-8.268,5.99-9.139
		l75.874-15.796c4.177-0.869,8.269,1.812,9.14,5.99c0.87,4.177-1.812,8.269-5.99,9.139
		C303.287,174.157,307.533,173.482,306.021,173.482z"/>
	<path style="fill:#656566;" d="M309.305,202.452c-0.87-4.177,1.812-8.268,5.99-9.139l71.54-14.893
		c4.179-0.872,8.269,1.812,9.139,5.99c0.87,4.177-1.812,8.268-5.99,9.139l-71.54,14.893
		C314.258,209.315,310.173,206.622,309.305,202.452z"/>
	<path style="fill:#656566;" d="M320.146,237.578c-0.87-4.177,1.812-8.268,5.99-9.139l64.192-13.364
		c4.177-0.87,8.269,1.813,9.14,5.99c0.87,4.177-1.812,8.268-5.99,9.139l-64.192,13.364
		C325.098,244.44,321.014,241.748,320.146,237.578z"/>
	<path style="fill:#656566;" d="M330.986,272.702c-0.87-4.177,1.813-8.268,5.99-9.139l58.327-12.142
		c4.173-0.877,8.269,1.812,9.139,5.99c0.87,4.177-1.813,8.268-5.99,9.139l-58.327,12.142
		C335.949,279.564,331.857,276.881,330.986,272.702z"/>
	<path style="fill:#656566;" d="M511.185,433.718c-4.846,1.016-11.31,6.299-27.663,8.773
		c-81.125,12.275-189.986-58.541-231.303-120.06c-50.094-74.583-93.612-103.123-161.335-149.19
		c-32.428-22.057-50.188-52.689-52.172-62.999c-0.256-1.33-0.701-2.573-1.29-3.72l-21.104,23.039
		c38.823,83.118,124.989,77.623,212.81,208.379c48.769,72.612,170.359,147.601,261.178,131.604
		C494.188,466.019,508.622,449.534,511.185,433.718z"/>
</g>
<path style="fill:#545456;" d="M31.101,154.485l19.389-21.166c-12.278-17.686-10.921-22.611-13.067-26.796l-21.104,23.039
	C20.671,138.879,25.623,147.077,31.101,154.485z"/>
<g>
</g>
<g>
</g>
<g>
</g>
<g>
</g>
<g>
</g>
<g>
</g>
<g>
</g>
<g>
</g>
<g>
</g>
<g>
</g>
<g>
</g>
<g>
</g>
<g>
</g>
<g>
</g>
<g>
</g>
</svg>
