<?xml version="1.0" encoding="iso-8859-1"?>
<!-- Generator: Adobe Illustrator 19.0.0, SVG Export Plug-In . SVG Version: 6.00 Build 0)  -->
<svg version="1.1" id="Capa_1" xmlns="http://www.w3.org/2000/svg" xmlns:xlink="http://www.w3.org/1999/xlink" x="0px" y="0px"
	 viewBox="0 0 511.96 511.96" style="enable-background:new 0 0 511.96 511.96;" xml:space="preserve">
<circle style="fill:#F4D44E;" cx="256" cy="255.961" r="255.96"/>
<path style="fill:#E8C842;" d="M172.632,451.871C11.147,358.638,1.398,130.347,150.737,22.645
	C103.484,43.916,62.223,79.678,34.334,127.982c-70.68,122.423-28.735,278.964,93.687,349.644
	c90.078,52.007,198.625,43.033,277.852-14.105C333.369,496.159,246.75,494.663,172.632,451.871z"/>
<g>
	<circle style="fill:#ED694A;" cx="403.889" cy="321.359" r="19.371"/>
	<circle style="fill:#ED694A;" cx="108.111" cy="321.359" r="19.371"/>
</g>
<g>
	<path style="fill:#D8553A;" d="M403.901,302.001c-14.77-0.021-24.284,16.052-16.785,29.042
		c7.502,12.993,26.179,12.782,33.544-0.015C413.975,331.018,396.454,314.941,403.901,302.001z"/>
	<path style="fill:#D8553A;" d="M108.117,302.001c-14.77-0.021-24.284,16.052-16.785,29.042
		c7.502,12.993,26.179,12.782,33.544-0.015C109.977,331.006,100.671,314.941,108.117,302.001z"/>
</g>
<g>
	<path style="fill:#656566;" d="M377.439,134.243c-19.341-11.285-41.271-14.556-61.749-9.212c-4.129,1.077-6.603,5.298-5.526,9.427
		c1.077,4.129,5.298,6.606,9.427,5.526c16.497-4.303,34.275-1.603,50.058,7.607c3.686,2.149,8.417,0.908,10.568-2.779
		C382.369,141.125,381.124,136.394,377.439,134.243z"/>
	<path style="fill:#656566;" d="M196.309,125.031c-20.478-5.344-42.409-2.073-61.749,9.212c-6.792,3.964-3.964,14.402,3.902,14.402
		c1.323-0.001,2.662-0.34,3.888-1.054c15.784-9.21,33.561-11.91,50.058-7.607c4.125,1.078,8.349-1.397,9.427-5.526
		C202.913,130.329,200.439,126.108,196.309,125.031z"/>
	<path style="fill:#656566;" d="M298.719,356.808h-85.436c-4.268,0-7.727,3.46-7.727,7.727s3.459,7.727,7.727,7.727h85.436
		c4.268,0,7.727-3.46,7.727-7.727S302.986,356.808,298.719,356.808z"/>
</g>
<circle style="fill:#EAE9E8;" cx="345.595" cy="236.163" r="46.18"/>
<path style="fill:#DBDBDB;" d="M327.909,246.37c-10.516-18.214-7.202-40.605,6.666-55.052c-29.928,7.367-44.31,41.363-28.972,67.93
	c15.322,26.538,51.942,31.138,73.315,8.875C359.472,272.909,338.424,264.583,327.909,246.37z"/>
<circle style="fill:#656566;" cx="345.595" cy="236.163" r="9.956"/>
<circle style="fill:#EAE9E8;" cx="167.106" cy="236.163" r="46.18"/>
<path style="fill:#DBDBDB;" d="M149.42,246.37c-10.516-18.214-7.202-40.605,6.666-55.052c-29.928,7.367-44.31,41.363-28.972,67.93
	c15.322,26.538,51.942,31.138,73.315,8.875C180.985,272.909,159.936,264.583,149.42,246.37z"/>
<circle style="fill:#656566;" cx="167.106" cy="236.163" r="9.956"/>
<g>
</g>
<g>
</g>
<g>
</g>
<g>
</g>
<g>
</g>
<g>
</g>
<g>
</g>
<g>
</g>
<g>
</g>
<g>
</g>
<g>
</g>
<g>
</g>
<g>
</g>
<g>
</g>
<g>
</g>
</svg>
