<?xml version="1.0" encoding="iso-8859-1"?>
<!-- Generator: Adobe Illustrator 19.0.0, SVG Export Plug-In . SVG Version: 6.00 Build 0)  -->
<svg version="1.1" id="Capa_1" xmlns="http://www.w3.org/2000/svg" xmlns:xlink="http://www.w3.org/1999/xlink" x="0px" y="0px"
	 viewBox="0 0 512 512" style="enable-background:new 0 0 512 512;" xml:space="preserve">
<path style="fill:#967D74;" d="M422.2,305.886c-1.572-41.105,4.921-62.429-10.124-103.44l0.004-0.001
	c-52.834-144.055-258.604-145.927-312.14,0l0.004,0.001c-6.546,17.843-10.12,37.119-10.12,57.232
	c0.011,25.588,0.003,39.034-0.001,46.208c-181.336,38.643-68.939,112.413,166.189,112.413c119.288,0,219.519-20.352,247.929-47.895
	c4.455-4.319,8.059-9.702,8.059-15.958c0-24.577-54.521-40.356-78.463-45.99l0,0C429.858,307.574,426.086,306.714,422.2,305.886"/>
<path style="fill:#7C6359;" d="M433.537,308.458L433.537,308.458c-3.679-0.884-7.453-1.743-11.338-2.571
	c-0.023,8.338,0.043,7.57-0.049,8.943l0,0c-0.452,6.75-4.911,12.588-11.294,14.82c-1.665,0.583-7.849,1.84-9.499,2.164l0,0
	c-17.201,3.416-32.333,5.538-50.222,7.514l0,0c-61.435,6.812-136.383,5.973-190.247,0l0,0c-21.691-2.396-35.929-4.677-50.222-7.514
	l0,0c-8.066-1.588-13.94-2.278-18.241-9.137c-3.774-5.998-2.245-11.046-2.601-16.791C-91.513,344.53,20.883,418.3,256.012,418.3
	c119.288,0,219.519-20.352,247.929-47.895c4.455-4.319,8.059-9.702,8.059-15.957C512,329.87,457.48,314.091,433.537,308.458z"/>
<path style="fill:#705850;" d="M147.932,337.799c-14.813-1.869-26.031-3.755-37.266-5.985l0,0
	c-8.067-1.588-13.94-2.278-18.241-9.137c-3.774-5.998-2.245-11.046-2.601-16.791c-127.761,27.226-109.712,71.886-5.668,95.901
	C57.613,380.529,73.746,355.934,147.932,337.799z"/>
<path style="fill:#967D74;" d="M412.076,202.447l0.004-0.001c-52.834-144.054-258.604-145.927-312.14,0l0.004,0.001
	c-6.545,17.843-10.119,37.119-10.119,57.232c0.025,57.827-0.05,53.67,0.049,55.153h-0.004c0.336,5.093,3.028,9.934,7.48,12.915
	c3.407,2.281,6.507,2.729,13.313,4.069l0,0c14.974,2.967,29.371,5.217,50.222,7.514l0,0c13.85,1.539,33.412,3.011,47.005,3.634l0,0
	c31.54,1.476,60.289,1.683,96.24,0l0,0c13.592-0.624,33.154-2.095,47.005-3.634l0,0c17.914-1.973,32.933-4.089,50.222-7.514l0,0
	c6.799-1.339,9.819-1.871,12.86-3.767c4.746-2.957,7.624-8.072,7.932-13.217h-0.004c0.025-0.378,0.049-0.756,0.049-1.139
	C420.623,272.586,427.121,243.458,412.076,202.447z"/>
<path style="fill:#7C6359;" d="M140.803,325.527h0.003c-0.098-1.554-0.022,2.804-0.048-57.82c0-21.085,3.574-41.295,10.119-60
	l-0.004-0.001c23.205-66.314,75.017-103.492,130.574-112.059C209.042,84.739,130.19,119.991,99.94,202.446l0.004,0.001
	c-6.545,17.843-10.119,37.119-10.119,57.232c0.025,57.827-0.05,53.67,0.049,55.153H89.87c0.336,5.093,3.028,9.934,7.48,12.915
	c3.407,2.281,6.507,2.729,13.313,4.069l0,0c11.276,2.234,22.227,4.062,35.851,5.809
	C143.128,334.496,141.092,330.113,140.803,325.527z"/>
<path style="fill:#6AAA6A;" d="M205.054,243.16c-30.09-1.616-60.896-4.501-90.731-10.225c-11.768-2.262-16.388-2.78-20.789-8.277
	c-2.105,9.814-3.351,19.947-3.639,30.32c0.629,7.02,5.45,13.303,14.004,15.18c33.053,7.271,70.788,10.892,104.353,12.54
	C204.176,270.013,203.39,255.976,205.054,243.16z"/>
<path style="fill:#60A060;" d="M143.236,237.61c-9.7-1.303-19.357-2.842-28.913-4.675c-11.768-2.262-16.388-2.78-20.789-8.277
	c-2.144,9.996-3.362,20.224-3.636,30.339c0.635,7.012,5.455,13.286,14.002,15.162c11.822,2.601,24.246,4.727,36.861,6.471
	c-0.001-2.808-0.002-5.772-0.003-8.921C140.758,257.443,141.612,247.387,143.236,237.61z"/>
<path style="fill:#77B777;" d="M368.92,287.928c-5.312-2.445-11.03-4.679-17.213-6.48c-2.003,7.462-8.223,13.211-15.937,14.528
	c13.084,28.223,23.879,72.135,28.586,91.517c0.928,3.818,6.061,4.505,7.961,1.065l10.856-19.659
	c1.716-3.107,5.216-4.782,8.713-4.168l24.104,4.234c3.386,0.594,5.941-3.006,4.271-6.01
	C399.452,325.491,380.003,299.809,368.92,287.928z"/>
<g>
	<path style="fill:#6AAA6A;" d="M348.058,288.664c-3.001,3.783-7.332,6.465-12.288,7.312c13.084,28.223,23.879,72.135,28.586,91.517
		c0.928,3.818,6.061,4.505,7.961,1.065l10.856-19.658c0.915-1.657,2.346-2.89,4.004-3.602
		C378.48,345.204,363.219,311.315,348.058,288.664z"/>
	<path style="fill:#6AAA6A;" d="M304.683,281.448c-6.216,1.807-11.849,3.948-16.999,6.25
		c-11.045,11.806-30.611,37.551-51.556,75.257c-1.669,3.004,0.886,6.605,4.271,6.01l24.104-4.234
		c3.497-0.614,6.997,1.06,8.713,4.168l10.856,19.659c1.9,3.44,7.034,2.753,7.961-1.065c4.707-19.382,15.503-63.295,28.586-91.517
		C312.905,294.658,306.686,288.91,304.683,281.448z"/>
</g>
<g>
	<path style="fill:#77B777;" d="M306.151,285.266c-14.412,24.252-28.332,57.895-37.016,80.001c1.691,0.706,3.152,1.949,4.082,3.632
		l10.856,19.658c1.9,3.44,7.034,2.753,7.961-1.065c4.707-19.382,15.502-63.295,28.586-91.517
		C314.285,294.893,308.963,290.82,306.151,285.266z"/>
	<path style="fill:#77B777;" d="M424.333,200.828c-21.331,0-59.173,19.343-78.023,38.177c3.596,3.582,5.83,8.53,5.83,13.975
		c-0.208,25.158,0.489,26.125-0.678,30.454c49.863,14.401,62.323,50.122,86.888,19.773
		C466.382,268.574,450.7,200.828,424.333,200.828z"/>
</g>
<path style="fill:#6AAA6A;" d="M447.617,286.225c7.855-33.335-90.069-13.06-95.463-11.92c0.019,3.184,0.13,6.081-0.692,9.13
	c49.863,14.401,62.323,50.122,86.888,19.773c4.083-5.045,7.233-10.795,9.564-16.934L447.617,286.225z"/>
<path style="fill:#77B777;" d="M304.251,252.981c0-5.446,2.234-10.393,5.83-13.975c-18.852-18.834-56.694-38.177-78.023-38.177
	c-26.367,0-42.049,67.745-14.016,102.379c24.565,30.349,37.023-5.371,86.888-19.773
	C303.758,279.092,304.456,277.856,304.251,252.981z"/>
<g>
	<path style="fill:#6AAA6A;" d="M267.282,210.608c-12.925-5.929-25.715-9.778-35.224-9.778c-26.367,0-42.049,67.745-14.016,102.379
		c16.868,20.84,28.028,10.527,49.51-2.644C248.348,273.694,252.751,229.982,267.282,210.608z"/>
	<path style="fill:#6AAA6A;" d="M304.251,274.309c-5.268-1.115-103.339-21.441-95.477,11.917
		c4.1,11.359,13.438,25.736,24.452,28.393c16.798,4.058,33.046-20.026,71.704-31.183
		C304.489,281.805,304.347,277.329,304.251,274.309z"/>
</g>
<path style="fill:#60A060;" d="M254.583,272.075c0.092-1.71,0.41-3.208,0.913-4.528c-25.603-1.567-50.863,1.104-46.722,18.678
	c4.1,11.359,13.438,25.736,24.452,28.393c9.444,2.281,18.716-4.333,31.892-12.544C258.563,294.645,255.183,281.908,254.583,272.075z
	"/>
<path style="fill:#6AAA6A;" d="M332.392,232.466h-8.393c-11.311,0-20.514,9.202-20.514,20.514v25.348
	c0,11.312,9.203,20.514,20.514,20.514h8.393c11.312,0,20.515-9.202,20.515-20.514V252.98
	C352.907,241.669,343.704,232.466,332.392,232.466z"/>
<path style="fill:#60A060;" d="M328.195,278.329v-25.348c0-8.412,5.094-15.651,12.355-18.812c-2.503-1.09-5.26-1.702-8.159-1.702
	h-8.393c-11.311,0-20.514,9.202-20.514,20.514v25.348c0,11.312,9.203,20.514,20.514,20.514h8.393c2.9,0,5.656-0.612,8.159-1.702
	C333.289,293.978,328.195,286.741,328.195,278.329z"/>
<g>
</g>
<g>
</g>
<g>
</g>
<g>
</g>
<g>
</g>
<g>
</g>
<g>
</g>
<g>
</g>
<g>
</g>
<g>
</g>
<g>
</g>
<g>
</g>
<g>
</g>
<g>
</g>
<g>
</g>
</svg>
