<?xml version="1.0" encoding="iso-8859-1"?>
<!-- Generator: Adobe Illustrator 19.0.0, SVG Export Plug-In . SVG Version: 6.00 Build 0)  -->
<svg version="1.1" id="Capa_1" xmlns="http://www.w3.org/2000/svg" xmlns:xlink="http://www.w3.org/1999/xlink" x="0px" y="0px"
	 viewBox="0 0 512 512" style="enable-background:new 0 0 512 512;" xml:space="preserve">
<path style="fill:#656566;" d="M256,35.228c-100.456,0-181.892,17.455-181.892,38.986c0,0.113,15.502,225.492,15.513,225.648
	c58.584,32.547,274.178,32.545,332.757,0c0.007-0.103,15.513-225.545,15.513-225.648C437.891,52.682,356.455,35.228,256,35.228z"/>
<path style="fill:#545456;" d="M105.443,64.122c0-5.322,4.263-10.431,12.072-15.182c-27.063,6.806-43.407,15.63-43.407,25.273
	c0,0.113,15.502,225.492,15.513,225.648c8.172,4.54,19.404,8.445,32.833,11.718C118.449,253.342,105.443,64.234,105.443,64.122z"/>
<path style="fill:#656566;" d="M418.005,363.473H93.995C36.624,375.184,0,392.982,0,412.916c0,35.267,114.615,63.856,256,63.856
	s256-28.589,256-63.856C512,392.982,475.376,375.184,418.005,363.473z"/>
<path style="fill:#545456;" d="M61.476,427.638c0-16.481,25.054-31.499,66.153-42.827v-21.338H93.995
	c-132.904,27.128-123.015,78.246,17.922,102.228C80.231,455.071,61.476,441.902,61.476,427.638z"/>
<path style="fill:#F4A32C;" d="M89.475,297.724l4.673,67.981c0,19.159,72.464,34.691,161.852,34.691
	c89.388,0,161.852-15.531,161.852-34.691l4.673-67.981C364.168,330.361,147.881,330.387,89.475,297.724z"/>
<path style="fill:#ED9015;" d="M123.61,328.382c-0.052-0.754-0.53-7.703-1.3-18.892c-13.448-3.286-24.683-7.207-32.837-11.767
	l4.673,67.981c0,7.952,12.489,15.276,33.481,21.127L123.61,328.382z"/>
<g>
</g>
<g>
</g>
<g>
</g>
<g>
</g>
<g>
</g>
<g>
</g>
<g>
</g>
<g>
</g>
<g>
</g>
<g>
</g>
<g>
</g>
<g>
</g>
<g>
</g>
<g>
</g>
<g>
</g>
</svg>
