<?xml version="1.0" encoding="iso-8859-1"?>
<!-- Generator: Adobe Illustrator 19.0.0, SVG Export Plug-In . SVG Version: 6.00 Build 0)  -->
<svg version="1.1" id="Capa_1" xmlns="http://www.w3.org/2000/svg" xmlns:xlink="http://www.w3.org/1999/xlink" x="0px" y="0px"
	 viewBox="0 0 512.001 512.001" style="enable-background:new 0 0 512.001 512.001;" xml:space="preserve">
<path style="fill:#CC9D72;" d="M251.15,0.153c-73.541,2.456-132.252,60.384-132.252,131.366c0,12.763-0.013,32.408-0.028,42.435
	l274.313-0.443c0.004-17.454,0.007-40.176,0.007-41.992C393.189,56.788,328.382-2.563,251.15,0.153z"/>
<path style="fill:#C19067;" d="M176.365,131.518c0-63.122,46.431-115.919,108.431-128.565
	C199.278-14.552,118.899,47.99,118.899,131.518c0,12.763-0.013,32.408-0.028,42.435l57.467-0.093
	C176.352,163.808,176.365,144.244,176.365,131.518z"/>
<g>
	<path style="fill:#E8C842;" d="M397.795,178.025c0,10.354-10.391,18.747-21.398,18.747V159.28
		C387.404,159.28,397.795,167.672,397.795,178.025z"/>
	<path style="fill:#E8C842;" d="M114.204,178.041c0,10.363,10.4,18.763,21.416,18.763V159.28
		C124.605,159.28,114.204,167.679,114.204,178.041z"/>
</g>
<g>
	<path style="fill:#DBBC3B;" d="M376.397,182.13v14.642c14.068,0,26.114-13.348,19.589-26.067
		C392.542,177.421,384.643,182.13,376.397,182.13z"/>
	<path style="fill:#DBBC3B;" d="M116.011,170.721c-1.153,2.249-1.807,4.723-1.807,7.32c0,10.363,10.4,18.763,21.416,18.763v-14.642
		C127.366,182.162,119.458,177.446,116.011,170.721z"/>
</g>
<path style="fill:#57ADDD;" d="M481.352,346.339l-43.99-57.538c-8.2-8.721-18.421-15.247-29.742-18.989l-39.172-10.613H143.552
	l-39.172,10.613c-11.321,3.742-21.542,10.268-29.742,18.989l-43.99,57.538c-21.034,22.372-21.501,57.4-0.879,80.159
	c0,0,45.353,46.125,123.416,58.246l102.809-2.934l102.82,2.934c78.063-12.121,123.416-58.246,123.416-58.246
	C502.853,403.739,502.387,368.711,481.352,346.339z"/>
<g>
	<path style="fill:#42A2CC;" d="M164.306,450.834C92.273,436.59,50.707,394.325,50.707,394.325
		c-14.705-16.229-18.678-38.694-12.127-58.362l-7.932,10.375c-21.034,22.373-21.501,57.401-0.879,80.16
		c0,0,45.353,46.125,123.416,58.246l2.06-0.059C155.301,480.329,156.071,463.728,164.306,450.834z"/>
	<path style="fill:#42A2CC;" d="M347.694,450.834c72.034-14.244,113.599-56.509,113.599-56.509
		c14.705-16.229,18.678-38.694,12.127-58.362l7.932,10.375c21.034,22.371,21.501,57.4,0.879,80.159
		c0,0-45.353,46.125-123.416,58.246l-2.06-0.059C356.7,480.329,355.929,463.728,347.694,450.834z"/>
</g>
<path style="fill:#F4D44E;" d="M376.436,159.208l-2.152-2.589c-15.429-18.558-12.304-37.048-12.674-48.798
	c-0.443-4.816-3.809-7.705-11.492-5.557c-54.903,18.017-94.628-0.676-94.628-0.676l5.048,6.961
	c2.568,3.541,2.345,7.752,0.408,10.902c-2.585,3.677-8.535,4.773-10.023,4.509c0,0-1.55,0.037-4.34-0.128l0,0
	c-10.252-0.608-37.309-3.982-66.269-22.083l-0.003,0.012c-15.83-9.629-23.57-4.302-27.148,1.047
	c-1.886,2.819-2.796,6.177-2.796,9.568c-0.596,4.581,3.404,24.94-12.65,44.247l-2.151,2.587c-0.085,66.354-0.06,50.125-0.06,58.396
	c0,63.83,53.829,114.876,119.176,115.448c0.441,0.005,0.88,0.002,1.32,0.003c0.44-0.001,0.879,0.002,1.32-0.003
	c65.127-0.57,119.176-51.357,119.176-115.579C376.487,174.682,376.507,161.814,376.436,159.208z"/>
<g>
	<path style="fill:#E8C842;" d="M161.258,217.604c0-58.336-0.818-57.34,2.211-60.982c0.381-0.669,12.65-13.704,12.65-35.002
		c0-8.494-0.923-14.376,3.76-20.113c-19.763-11.789-29.514-0.111-29.514,10.868c-0.596,4.582,3.401,24.942-12.65,44.247
		l-2.151,2.587c-0.085,66.354-0.06,50.125-0.06,58.395c0,63.83,53.829,114.876,119.176,115.448c0.441,0.005,0.88,0.002,1.32,0.003
		c0.44-0.001,0.879,0.002,1.32-0.003c3.895-0.034,7.748-0.253,11.555-0.638C208.859,326.34,161.258,277.626,161.258,217.604z"/>
	<path style="fill:#E8C842;" d="M241.857,248.337v1.715c0,7.616,5.852,14.169,13.46,14.526c8.122,0.383,14.826-6.09,14.826-14.128
		v-2.377c0-3.16-2.562-5.721-5.721-5.721H247.84C244.536,242.353,241.857,245.032,241.857,248.337z"/>
</g>
<path style="fill:#DBBC3B;" d="M256,250.052v-1.715c0-3.304,2.678-5.983,5.983-5.983h-14.144c-3.304,0-5.983,2.678-5.983,5.983
	v1.715c0,7.616,5.852,14.169,13.46,14.526c2.852,0.134,5.519-0.59,7.792-1.917C258.831,260.119,256,255.345,256,250.052z"/>
<circle style="fill:#656566;" cx="312.29" cy="226.864" r="15.49"/>
<path style="fill:#545456;" d="M312.294,226.864c-2.865-4.963-2.659-10.844,0.007-15.477c-2.635-0.004-5.305,0.65-7.752,2.063
	c-7.408,4.277-9.947,13.751-5.67,21.159c4.277,7.408,13.751,9.947,21.159,5.67c2.447-1.413,4.348-3.398,5.663-5.682
	C320.356,234.589,315.16,231.825,312.294,226.864z"/>
<g>
	<path style="fill:#656566;" d="M331.004,200.242c-10.804-9.043-26.591-9.062-37.419,0c-3.272,2.737-8.145,2.305-10.883-0.967
		c-2.738-3.272-2.306-8.145,0.966-10.883c16.563-13.861,40.713-13.842,57.253,0c3.272,2.738,3.705,7.611,0.966,10.883
		C339.148,202.549,334.274,202.977,331.004,200.242z"/>
	<path style="fill:#656566;" d="M218.416,200.242c-10.804-9.043-26.591-9.062-37.419,0c-3.272,2.737-8.145,2.305-10.883-0.967
		c-2.738-3.272-2.305-8.145,0.966-10.883c16.563-13.861,40.713-13.842,57.253,0c3.272,2.738,3.705,7.611,0.966,10.883
		C226.56,202.549,221.686,202.977,218.416,200.242z"/>
</g>
<g>
	<path style="fill:#70BBEF;" d="M178.727,439.745L178.727,439.745c-0.316-0.435-32.136-43.687-85.961-65.684
		c-3.95-1.613-5.843-6.124-4.229-10.074c1.613-3.95,6.123-5.845,10.075-4.229c58.057,23.726,91.25,69.015,92.635,70.932
		c2.499,3.459,1.721,8.288-1.737,10.787C186.062,443.97,181.233,443.207,178.727,439.745z"/>
	<path style="fill:#70BBEF;" d="M333.273,439.745L333.273,439.745c0.316-0.435,32.136-43.687,85.961-65.684
		c3.95-1.613,5.843-6.124,4.229-10.074c-1.613-3.95-6.123-5.845-10.075-4.229c-58.057,23.726-91.25,69.015-92.635,70.932
		c-2.499,3.459-1.721,8.288,1.737,10.787C325.939,443.97,330.767,443.207,333.273,439.745z"/>
</g>
<path style="fill:#E8C842;" d="M244.15,455.622c-16.855-13.028-40.673-20.877-40.673-20.877
	c-51.792-9.848-50.291,49.999-50.291,49.999s16.67,27.256,72.142,27.256C259.855,512.001,263.892,470.881,244.15,455.622z"/>
<path style="fill:#DBBC3B;" d="M239.314,479.411c-53.836,0-73.994-23.653-77.655-28.655c-8.95,14.851-8.474,33.988-8.474,33.988
	s16.67,27.256,72.142,27.256c23.53,0,32.894-19.094,30.229-36.088C251.069,478.124,245.668,479.411,239.314,479.411z"/>
<path style="fill:#E8C842;" d="M267.85,455.622c16.855-13.028,40.673-20.877,40.673-20.877
	c51.792-9.848,50.291,49.999,50.291,49.999s-16.67,27.256-72.142,27.256C252.146,512.001,248.109,470.881,267.85,455.622z"/>
<path style="fill:#DBBC3B;" d="M272.687,479.411c53.836,0,73.993-23.653,77.655-28.655c8.951,14.851,8.474,33.988,8.474,33.988
	s-16.67,27.256-72.142,27.256c-23.53,0-32.894-19.094-30.229-36.088C260.932,478.124,266.332,479.411,272.687,479.411z"/>
<circle style="fill:#656566;" cx="199.71" cy="226.864" r="15.49"/>
<path style="fill:#545456;" d="M199.706,226.864c-2.865-4.963-2.659-10.844,0.007-15.477c-2.635-0.004-5.305,0.65-7.752,2.063
	c-7.408,4.277-9.947,13.751-5.67,21.159c4.277,7.408,13.751,9.947,21.159,5.67c2.447-1.413,4.348-3.398,5.663-5.682
	C207.769,234.589,202.572,231.825,199.706,226.864z"/>
<g>
</g>
<g>
</g>
<g>
</g>
<g>
</g>
<g>
</g>
<g>
</g>
<g>
</g>
<g>
</g>
<g>
</g>
<g>
</g>
<g>
</g>
<g>
</g>
<g>
</g>
<g>
</g>
<g>
</g>
</svg>
