<?xml version="1.0" encoding="iso-8859-1"?>
<!-- Generator: Adobe Illustrator 19.0.0, SVG Export Plug-In . SVG Version: 6.00 Build 0)  -->
<svg version="1.1" id="Capa_1" xmlns="http://www.w3.org/2000/svg" xmlns:xlink="http://www.w3.org/1999/xlink" x="0px" y="0px"
	 viewBox="0 0 512 512" style="enable-background:new 0 0 512 512;" xml:space="preserve">
<path style="fill:#CC9D72;" d="M105.285,353.942l48.881-16.15c18.678,19.632,41.985,32.512,66.737,38.664
	c15.002,1.689,29.298,2.55,41.373,1.997c9.111-0.326,18.908-1.151,28.965-2.314c24.437-6.303,47.395-19.173,65.788-38.612
	l49.661,16.406c2.266-0.574,3.51-0.901,3.51-0.901c17.576-51.244,27.742-104.506,27.742-146.711C437.94,86.844,356.483,0,256,0
	S74.06,86.844,74.06,206.322c0,42.204,10.166,95.467,27.742,146.711C101.813,353.035,103.041,353.363,105.285,353.942z"/>
<path style="fill:#C19067;" d="M123.61,251.461c0-0.176,0.003-81.86,0.03-84.419c0.033-0.105,0.032-2.731,2.496-3.798
	c16.403-2.578,30.591-8.336,42.664-15.525c7.617-61.48,33.267-112.789,69.648-146.814C137.434,11.256,74.058,104.497,74.058,206.322
	c0,42.204,10.166,95.467,27.742,146.711c0,0,0.032,0.008,0.079,0.021c0.045,0.012,0.116,0.031,0.199,0.052
	c0.057,0.015,0.122,0.032,0.196,0.052c0.015,0.004,0.03,0.008,0.045,0.012c0.104,0.027,0.225,0.059,0.36,0.095
	c0.016,0.004,0.033,0.009,0.049,0.013c0.588,0.154,1.446,0.379,2.554,0.665l48.881-16.15c14.455,15.194,31.688,26.324,50.212,33.44
	C156.775,350.651,123.61,304.665,123.61,251.461z"/>
<path style="fill:#F96989;" d="M463.999,471.108l-26.47-89.717c-3.962-13.426-12.812-23.561-23.723-27.166l-56.778-18.758
	c-54.285,57.372-148.307,57.607-202.862,0.266l-55.972,18.492c-10.912,3.605-19.762,13.739-23.723,27.166l-26.47,89.717
	C41.402,490.416,52.526,512,69.076,512c15.983,0,357.866,0,373.848,0C459.474,512,470.599,490.416,463.999,471.108z"/>
<path style="fill:#ED5A81;" d="M73.757,471.108l26.47-100.02c2.808-9.519,8.081-17.367,14.796-22.423l-16.829,5.56
	c-10.912,3.605-19.762,13.739-23.723,27.166l-26.47,89.717C41.401,490.416,52.526,512,69.076,512c2.331,0,11.595,0,25.756,0
	C78.282,512,67.157,490.416,73.757,471.108z"/>
<path style="fill:#F4D44E;" d="M392.469,190.166c0-2.597-1.798-4.826-4.324-5.425c-110.346-26.116-172.452-97.346-168.652-94.351
	c-1.073-1.157-2.959-0.941-3.732,0.434c-6.911,12.293-37.297,60.294-94.773,69.328c-2.946,1.275-2.514,4.069-2.514,7.257
	c-0.003,16.726-0.013,79.66-0.013,80.96c0,72.865,62.195,132.204,138.511,131.269c74.053-0.648,135.508-58.396,135.508-131.419
	C392.478,245.415,392.473,214.479,392.469,190.166z"/>
<g>
	<path style="fill:#E8C842;" d="M169.972,248.37c0-0.964,0.005-66.885,0.009-107.769c-13.353,9.035-29.63,16.509-48.995,19.553
		c-2.946,1.275-2.514,4.068-2.514,7.257c-0.004,16.726-0.013,79.66-0.013,80.96c0,72.865,62.195,132.204,138.51,131.269
		c8.247-0.072,16.337-0.857,24.204-2.287C217.871,365.833,169.972,312.313,169.972,248.37z"/>
	<path style="fill:#E8C842;" d="M239.387,247.653v2.514c0,8.659,6.655,16.11,15.304,16.517c9.235,0.435,16.859-6.924,16.859-16.063
		v-3.417c0-3.198-2.593-5.791-5.791-5.791h-20.131C242.181,241.413,239.387,244.206,239.387,247.653z"/>
</g>
<path style="fill:#DBBC3B;" d="M255.468,250.167v-2.514c0-3.446,2.793-6.24,6.24-6.24h-16.081c-3.446,0-6.24,2.793-6.24,6.24v2.514
	c0,8.659,6.655,16.11,15.304,16.517c3.242,0.152,6.275-0.671,8.86-2.179C258.687,261.613,255.468,256.184,255.468,250.167z"/>
<circle style="fill:#656566;" cx="191.464" cy="227.074" r="17.612"/>
<path style="fill:#545456;" d="M191.459,227.072c-3.257-5.642-3.024-12.331,0.008-17.599c-2.996-0.004-6.033,0.739-8.814,2.346
	c-8.424,4.863-11.31,15.636-6.447,24.059c4.863,8.424,15.636,11.31,24.059,6.447c2.781-1.606,4.945-3.864,6.439-6.461
	C200.627,235.857,194.717,232.716,191.459,227.072z"/>
<g>
	<path style="fill:#656566;" d="M341.429,203.611c-12.724-10.65-31.249-10.593-43.904,0c-3.271,2.739-8.145,2.307-10.884-0.966
		c-2.739-3.271-2.306-8.145,0.965-10.884c18.438-15.434,45.33-15.413,63.742,0c3.272,2.738,3.704,7.612,0.965,10.884
		C349.572,205.922,344.696,206.346,341.429,203.611z"/>
	<path style="fill:#656566;" d="M213.412,203.611c-12.698-10.628-31.225-10.613-43.905,0c-3.271,2.739-8.145,2.307-10.884-0.966
		c-2.739-3.271-2.307-8.145,0.965-10.884c8.916-7.464,20.235-11.574,31.871-11.574s22.955,4.11,31.871,11.574
		c3.272,2.738,3.704,7.612,0.965,10.884C221.555,205.922,216.679,206.346,213.412,203.611z"/>
	<path style="fill:#656566;" d="M226.885,304.679c-1.563-3.971,0.389-8.458,4.359-10.021c3.97-1.564,8.458,0.388,10.021,4.359
		c1.011,2.567,6.096,6.18,14.237,6.18s13.226-3.614,14.237-6.18c1.563-3.97,6.05-5.925,10.021-4.359
		c3.971,1.563,5.923,6.05,4.359,10.021C275.752,325.928,235.259,325.949,226.885,304.679z"/>
</g>
<g>
	<path style="fill:#ED5A81;" d="M135.96,512v-65.144c0-4.268-3.46-7.727-7.727-7.727c-4.267,0-7.727,3.459-7.727,7.727V512H135.96z"
		/>
	<path style="fill:#ED5A81;" d="M390.431,512v-65.144c0-4.268-3.46-7.727-7.727-7.727s-7.727,3.459-7.727,7.727V512H390.431z"/>
</g>
<circle style="fill:#656566;" cx="319.474" cy="227.074" r="17.612"/>
<path style="fill:#545456;" d="M319.477,227.072c-3.257-5.642-3.024-12.331,0.008-17.599c-2.996-0.004-6.033,0.739-8.814,2.346
	c-8.424,4.863-11.31,15.636-6.447,24.059c4.864,8.424,15.636,11.31,24.059,6.447c2.781-1.606,4.945-3.864,6.439-6.461
	C328.644,235.857,322.734,232.716,319.477,227.072z"/>
<g>
</g>
<g>
</g>
<g>
</g>
<g>
</g>
<g>
</g>
<g>
</g>
<g>
</g>
<g>
</g>
<g>
</g>
<g>
</g>
<g>
</g>
<g>
</g>
<g>
</g>
<g>
</g>
<g>
</g>
</svg>
