<?xml version="1.0" encoding="iso-8859-1"?>
<!-- Generator: Adobe Illustrator 19.0.0, SVG Export Plug-In . SVG Version: 6.00 Build 0)  -->
<svg version="1.1" id="Capa_1" xmlns="http://www.w3.org/2000/svg" xmlns:xlink="http://www.w3.org/1999/xlink" x="0px" y="0px"
	 viewBox="0 0 512 512" style="enable-background:new 0 0 512 512;" xml:space="preserve">
<path style="fill:#9CD7F2;" d="M387.875,401.558c8.178,3.443,16.389,7.26,24.328,11.47c13.046,6.919,22.719,18.844,26.65,33.078
	l6.857,13.638c19.795-107.003,25.749-217.794-16.449-318.604c5.628,20.252,5.588,42.105,5.588,65.182
	C434.851,262.142,417.069,337.307,387.875,401.558z"/>
<path style="fill:#71C5DB;" d="M73.147,446.106c3.932-14.235,13.605-26.16,26.65-33.078c7.94-4.21,16.151-8.028,24.329-11.47
	C94.932,337.307,77.15,262.142,77.15,206.322c0-23.078-0.04-44.931,5.588-65.182C40.534,241.967,46.501,352.772,66.29,459.744
	L73.147,446.106z"/>
<path style="fill:#CC9D72;" d="M200.095,378.996c0.058-0.012,0.117-0.025,0.174-0.037c0.125-0.026,0.245-0.052,0.363-0.076
	c0.07-0.015,0.138-0.029,0.206-0.043c0.111-0.023,0.218-0.046,0.322-0.067c0.047-0.01,0.091-0.019,0.137-0.028
	c0.186-0.039,0.358-0.074,0.515-0.106c0.207-0.042,0.391-0.079,0.546-0.11c0.005-0.001,0.009-0.002,0.013-0.003
	c0.105-0.021,0.195-0.039,0.276-0.055c0.004-0.001,0.006-0.001,0.01-0.002c0.24-0.048,0.371-0.073,0.371-0.073l0,0h105.947l0,0
	c0,0,0.055,0.011,0.154,0.03c0.009,0.002,0.018,0.003,0.028,0.005c0.052,0.01,0.116,0.023,0.192,0.038c0.001,0,0.003,0,0.004,0.001
	c0.071,0.014,0.151,0.03,0.242,0.048c0.02,0.004,0.037,0.007,0.057,0.012c0.206,0.041,0.455,0.092,0.751,0.152
	c0.069,0.014,0.145,0.03,0.219,0.045c0.077,0.016,0.153,0.032,0.236,0.049c0.097,0.02,0.199,0.042,0.304,0.063
	c0.064,0.013,0.128,0.027,0.194,0.041c0.122,0.026,0.247,0.052,0.379,0.079c0.054,0.011,0.11,0.023,0.166,0.035
	c0.149,0.031,0.3,0.064,0.46,0.098c0.013,0.003,0.026,0.006,0.039,0.008c0.589,0.126,1.25,0.27,1.978,0.43
	c0.001,0,0.003,0.001,0.004,0.001c0.224,0.049,0.456,0.1,0.692,0.153c0.044,0.01,0.088,0.02,0.133,0.029
	c0.237,0.053,0.481,0.107,0.731,0.163c0.018,0.004,0.037,0.008,0.055,0.013c13.365,3.01,43.924,10.656,74.971,23.727
	c29.193-64.251,46.975-141.476,46.975-197.296C437.942,86.844,356.485,0,256.002,0S74.061,86.844,74.061,206.322
	c0,55.82,17.782,133.045,46.975,197.296C155.867,388.954,190.082,381.119,200.095,378.996z"/>
<path style="fill:#C19067;" d="M121.145,403.573c0.926-0.39,1.852-0.773,2.776-1.153c0.209-0.086,0.419-0.172,0.629-0.259
	c0.914-0.374,1.826-0.741,2.736-1.105c0.216-0.086,0.432-0.172,0.648-0.259c0.932-0.37,1.863-0.737,2.79-1.097
	c0.107-0.042,0.213-0.082,0.321-0.123c0.858-0.333,1.713-0.659,2.568-0.984c0.217-0.082,0.435-0.165,0.651-0.247
	c0.885-0.334,1.766-0.663,2.646-0.988c0.241-0.089,0.483-0.177,0.723-0.267c0.887-0.326,1.771-0.648,2.651-0.965
	c0.162-0.059,0.325-0.116,0.487-0.174c0.786-0.282,1.568-0.56,2.349-0.835c0.222-0.078,0.446-0.157,0.667-0.235
	c0.845-0.296,1.684-0.586,2.521-0.874c0.262-0.09,0.522-0.179,0.783-0.269c0.829-0.283,1.654-0.563,2.475-0.838
	c0.222-0.074,0.443-0.147,0.663-0.221c0.693-0.23,1.383-0.459,2.068-0.684c0.24-0.079,0.482-0.158,0.721-0.236
	c0.782-0.255,1.556-0.505,2.328-0.753c0.291-0.093,0.58-0.185,0.869-0.278c0.756-0.24,1.509-0.479,2.255-0.712
	c0.27-0.084,0.535-0.166,0.803-0.249c0.598-0.186,1.192-0.37,1.783-0.551c0.252-0.077,0.507-0.156,0.757-0.232
	c0.72-0.219,1.433-0.435,2.142-0.647c0.301-0.09,0.6-0.18,0.899-0.269c0.683-0.203,1.363-0.405,2.034-0.602
	c0.299-0.087,0.593-0.173,0.889-0.26c0.498-0.145,0.993-0.289,1.484-0.43c0.371-0.106,0.739-0.212,1.106-0.318
	c0.538-0.153,1.072-0.305,1.601-0.454c0.315-0.088,0.628-0.176,0.939-0.264c0.602-0.168,1.199-0.335,1.788-0.497
	c0.316-0.087,0.626-0.171,0.938-0.258c0.405-0.111,0.807-0.22,1.204-0.328c0.431-0.116,0.857-0.231,1.279-0.345
	c0.411-0.11,0.819-0.219,1.221-0.326c0.305-0.081,0.608-0.161,0.908-0.24c0.522-0.137,1.037-0.273,1.545-0.404
	c0.304-0.079,0.601-0.155,0.9-0.232c0.352-0.09,0.698-0.179,1.043-0.268c0.418-0.107,0.83-0.211,1.237-0.315
	c0.312-0.078,0.62-0.156,0.925-0.232c0.299-0.075,0.596-0.149,0.889-0.222c0.43-0.107,0.854-0.211,1.268-0.314
	c0.287-0.07,0.568-0.139,0.849-0.207c0.277-0.067,0.548-0.133,0.818-0.198c0.386-0.093,0.763-0.183,1.134-0.273
	c0.257-0.061,0.511-0.122,0.76-0.181c0.24-0.057,0.481-0.114,0.714-0.169c0.375-0.088,0.738-0.173,1.096-0.255
	c0.224-0.052,0.444-0.103,0.661-0.153c0.272-0.063,0.536-0.123,0.797-0.182c0.248-0.057,0.492-0.112,0.73-0.166
	c0.248-0.056,0.491-0.111,0.727-0.164c0.165-0.037,0.331-0.074,0.49-0.109c0.312-0.069,0.609-0.135,0.899-0.199
	c0.151-0.033,0.297-0.065,0.442-0.097c0.273-0.059,0.536-0.117,0.788-0.171c0.112-0.024,0.218-0.047,0.327-0.07
	c0.236-0.051,0.462-0.099,0.677-0.145c0.04-0.009,0.088-0.019,0.127-0.027c0.058-0.012,0.117-0.025,0.174-0.037
	c0.125-0.026,0.245-0.052,0.363-0.076c0.014-0.003,0.026-0.005,0.04-0.008c0.072-0.015,0.138-0.029,0.207-0.043
	c0.096-0.02,0.191-0.04,0.282-0.058c0.047-0.01,0.091-0.019,0.137-0.028c0.031-0.006,0.055-0.011,0.085-0.018
	c0.129-0.026,0.25-0.052,0.365-0.075c0.02-0.004,0.045-0.009,0.065-0.013c0.018-0.004,0.029-0.006,0.046-0.009
	c0.184-0.038,0.349-0.071,0.49-0.099c0.003-0.001,0.007-0.001,0.009-0.002c0.005-0.001,0.009-0.002,0.013-0.003
	c0.053-0.011,0.094-0.019,0.14-0.028c0.039-0.008,0.075-0.015,0.11-0.022c0.008-0.001,0.018-0.004,0.025-0.005
	c0.004-0.001,0.006-0.001,0.01-0.002c0.025-0.005,0.035-0.007,0.057-0.011c0.09-0.018,0.162-0.032,0.213-0.042
	c0.035-0.007,0.04-0.008,0.056-0.011c0.026-0.005,0.044-0.009,0.044-0.009h17.606c-26.158-63.701-51.105-135.393-51.105-188.78
	c0-83.52,34.825-152.118,87.019-189.608C256.366,0.007,256.185,0,256.002,0C155.518,0,74.061,86.844,74.061,206.322
	c0,3.489,0.069,7.061,0.206,10.709c2.06,54.714,19.399,126.352,46.768,186.587C121.072,403.603,121.108,403.588,121.145,403.573z"/>
<path style="fill:#EAE9E8;" d="M453.993,489.727l-12.048-43.621c-3.931-14.235-13.604-26.159-26.65-33.078
	c-48.154-25.539-106.321-36.694-106.321-36.694H203.028c-0.006,0.001-58.169,11.156-106.321,36.694
	c-13.046,6.919-22.718,18.844-26.65,33.078L58.01,489.727C54.916,500.93,63.343,512,74.964,512c10.217,0,351.87,0,362.075,0
	C448.66,512,457.087,500.93,453.993,489.727z"/>
<path style="fill:#DBDBDB;" d="M83.699,489.727l12.049-55.984c3.702-13.403,12.496-24.756,24.403-31.812
	c-7.884,3.345-15.79,7.039-23.442,11.098c-13.046,6.919-22.718,18.844-26.65,33.078l-12.048,43.621
	C54.916,500.93,63.343,512,74.964,512c1.566,0,10.932,0,25.689,0C89.032,512,80.605,500.93,83.699,489.727z"/>
<path style="fill:#E8C842;" d="M203.028,351.029v58.533c0,6.689,1.497,13.191,4.255,18.617c6.057,11.914,18.42,33.572,36.069,51.441
	c7.548,7.641,17.75,7.641,25.296,0c17.652-17.872,30.017-39.531,36.072-51.447c2.757-5.424,4.252-11.921,4.252-18.607v-58.538
	C275.475,370.879,236.697,370.978,203.028,351.029z"/>
<path style="fill:#DBBC3B;" d="M232.973,428.18c-2.758-5.427-4.255-11.929-4.255-18.618v-47.433
	c-8.77-2.486-17.385-6.181-25.689-11.101v58.533c0,6.689,1.497,13.191,4.255,18.618c6.057,11.914,18.42,33.572,36.069,51.441
	c7.548,7.641,17.75,7.641,25.296,0c0.067-0.067,0.13-0.137,0.196-0.205C251.303,461.586,239.006,440.049,232.973,428.18z"/>
<g>
	<path style="fill:#DBDBDB;" d="M131.028,512v-45.57c0-4.268-3.46-7.727-7.727-7.727c-4.267,0-7.727,3.459-7.727,7.727V512
		C120.402,512,125.565,512,131.028,512z"/>
	<path style="fill:#DBDBDB;" d="M396.431,512v-45.57c0-4.268-3.46-7.727-7.727-7.727s-7.727,3.459-7.727,7.727V512
		C386.441,512,391.604,512,396.431,512z"/>
</g>
<path style="fill:#F4D44E;" d="M388.696,190.283c-0.001-6.016-4.081-11.27-9.91-12.756c-51.34-13.086-91.014-35.861-117.983-55.52
	c-24.432-16.716-39.985-34.825-39.644-34.457c-1.039-1.12-2.866-0.912-3.615,0.42c-6.695,11.906-36.125,58.398-91.793,67.148
	c-1.458,0.631-2.402,2.063-2.418,3.651c-0.011,1.128-0.018,2.232-0.018,3.379c-0.004,19.791-0.012,77.308-0.012,77.416
	c0,70.574,60.24,128.047,134.155,127.142c71.724-0.627,131.247-56.559,131.247-127.286
	C388.704,236.932,388.7,212.393,388.696,190.283z"/>
<g>
	<path style="fill:#E8C842;" d="M174.814,239.562c0-0.082,0.005-64.708,0.009-104.497c-13.229,9.247-29.527,16.979-49.074,20.052
		c-1.458,0.631-2.402,2.063-2.418,3.651c-0.011,1.128-0.018,2.232-0.018,3.379c-0.004,19.791-0.012,77.309-0.012,77.416
		c0,70.574,60.241,128.047,134.155,127.142c8.265-0.072,16.365-0.888,24.234-2.367C220.789,352.867,174.814,301.215,174.814,239.562
		z"/>
	<path style="fill:#E8C842;" d="M240.427,245.29v2.161c0,8.387,6.446,15.603,14.823,15.998c8.944,0.421,16.328-6.706,16.328-15.558
		v-2.814c0-3.371-2.732-6.104-6.104-6.104h-18.73C243.256,238.973,240.427,241.801,240.427,245.29z"/>
</g>
<path style="fill:#DBBC3B;" d="M256.003,247.451v-2.16c0-3.49,2.829-6.318,6.318-6.318h-15.576c-3.489,0-6.317,2.829-6.317,6.318
	v2.16c0,8.387,6.446,15.603,14.823,15.998c3.14,0.147,6.078-0.65,8.582-2.111C259.12,258.538,256.003,253.281,256.003,247.451z"/>
<circle style="fill:#656566;" cx="318.002" cy="225.08" r="17.063"/>
<path style="fill:#545456;" d="M317.999,225.084c-3.155-5.465-2.929-11.943,0.008-17.045c-2.903-0.004-5.843,0.716-8.538,2.272
	c-8.159,4.71-10.954,15.144-6.244,23.303c4.71,8.159,15.144,10.954,23.302,6.244c2.694-1.555,4.789-3.742,6.236-6.257
	C326.878,233.591,321.154,230.548,317.999,225.084z"/>
<g>
	<path style="fill:#656566;" d="M344.061,199.196c-1.749,0-3.509-0.59-4.955-1.802c-5.904-4.94-13.399-7.661-21.106-7.661
		s-15.203,2.721-21.106,7.661c-3.271,2.74-8.145,2.307-10.884-0.966c-2.738-3.271-2.307-8.145,0.966-10.884
		c8.679-7.265,19.697-11.265,31.025-11.265s22.346,4,31.025,11.265C354.517,190.141,351.281,199.196,344.061,199.196z"/>
	<path style="fill:#656566;" d="M215.113,197.394c-12.187-10.199-29.998-10.222-42.212,0c-3.272,2.74-8.146,2.307-10.884-0.966
		c-2.739-3.271-2.307-8.145,0.966-10.884c17.947-15.022,44.126-15.003,62.049,0c3.272,2.738,3.705,7.612,0.966,10.884
		C223.256,199.705,218.38,200.13,215.113,197.394z"/>
	<circle style="fill:#656566;" cx="194.009" cy="225.08" r="17.063"/>
</g>
<path style="fill:#545456;" d="M194.006,225.084c-3.155-5.465-2.929-11.943,0.008-17.045c-2.903-0.004-5.843,0.716-8.538,2.272
	c-8.159,4.71-10.954,15.144-6.244,23.303c4.71,8.159,15.144,10.954,23.303,6.244c2.694-1.555,4.789-3.742,6.236-6.257
	C202.886,233.591,197.162,230.548,194.006,225.084z"/>
<path style="fill:#F9C85D;" d="M411.765,103.919c-2.553,0-5.136-0.702-7.45-2.173c-84.242-53.56-212.264-53.64-296.63,0
	c-6.482,4.12-15.077,2.207-19.198-4.275c-4.121-6.483-2.208-15.077,4.274-19.2c93.313-59.327,232.992-59.437,326.48,0
	c6.483,4.122,8.396,12.717,4.274,19.2C420.865,101.639,416.364,103.919,411.765,103.919z"/>
<path style="fill:#656566;" d="M225.218,298.076c12.737,24.512,47.534,25.152,61.346,1.647c1.624-2.763-0.36-6.246-3.565-6.246
	h-54.984C225.654,293.478,224.13,295.981,225.218,298.076z"/>
<path style="fill:#545456;" d="M250.908,298.076c-1.088-2.095,0.435-4.599,2.796-4.599h-25.689c-2.361,0-3.885,2.504-2.795,4.599
	c8.835,17.003,28.282,22.509,43.98,16.447C261.732,311.645,255.114,306.171,250.908,298.076z"/>
<path style="fill:#F9BB4B;" d="M219.358,35.714c-45.63,4.934-89.732,19.12-126.597,42.558c-6.483,4.122-8.396,12.717-4.274,19.2
	c4.121,6.483,12.718,8.394,19.198,4.275c26.914-17.111,58.271-28.746,91.23-34.932C204.946,55.634,211.792,45.235,219.358,35.714z"
	/>
<g>
</g>
<g>
</g>
<g>
</g>
<g>
</g>
<g>
</g>
<g>
</g>
<g>
</g>
<g>
</g>
<g>
</g>
<g>
</g>
<g>
</g>
<g>
</g>
<g>
</g>
<g>
</g>
<g>
</g>
</svg>
