<?xml version="1.0" encoding="iso-8859-1"?>
<!-- Generator: Adobe Illustrator 19.0.0, SVG Export Plug-In . SVG Version: 6.00 Build 0)  -->
<svg version="1.1" id="Capa_1" xmlns="http://www.w3.org/2000/svg" xmlns:xlink="http://www.w3.org/1999/xlink" x="0px" y="0px"
	 viewBox="0 0 512 512" style="enable-background:new 0 0 512 512;" xml:space="preserve">
<path style="fill:#DBDBDB;" d="M445.351,207.731c-3.811-5.684-5.848-12.611-5.371-20.026l-30.213,6.713
	c-11.22,2.493-13.293-4.13-27.757-7.718l0,0l0,0l-35.252,2.914l-42.218,13.043l2.457,37.74l76.141-18.275l0,0L445.351,207.731z"/>
<path style="fill:#CECECE;" d="M439.98,187.706l-30.213,6.713c-0.083,0.019-0.161,0.032-0.244,0.049l-30.039,6.948l0,0
	l-73.871,17.731l1.383,21.251l76.141-18.275l0,0l62.216-14.39C441.54,202.047,439.503,195.12,439.98,187.706z"/>
<path style="fill:#CC9D72;" d="M423.007,350.919c-23.387-4.924-41.953-13.359-56.69-23.758l-32.004-32.901
	c-27.237-40.908-24.351-87.197-24.351-87.197c0-188.722-192.014-261.278-299.914-152.177C3.545,61.461,0.001,70.407,0.001,79.657
	c0,11.224,0,308.96,0,318.808l78.54-23.919c0,5.272,0,16.38,0,21.749c0,0,27.934,52.466,52.186,49.422
	c24.251-3.045,52.186-46.322,52.186-46.322c0-10.407,0-6.69,0-24.849l80.773,24.849c0,0,94.846,38.943,163.661-35.009
	C431.645,359.767,429.179,352.218,423.007,350.919z"/>
<path style="fill:#C19067;" d="M113.641,4.608C75.509,8.365,39.202,25.39,10.05,54.884C-0.189,65.238,0.116,78.087,0.031,78.38
	l0.001,0.001C-0.017,79.749,0.006,206.111,0,274.882c0,63.724,0,119.417,0,123.583l51.27-15.613l27.27-8.305
	c1.819-0.606,3.045-2.309,3.045-4.225v-18.674v-9.669c0-1.778-0.602-3.504-1.708-4.897l-6.658-8.382
	c-14.213-17.893-21.949-40.071-21.949-62.922V136.563h-0.092C51.179,136.563,54.218,32.339,113.641,4.608z"/>
<path style="fill:#EAE9E8;" d="M370.916,160.111l2.998-31.585c-6.891,1.104-14.079,0.003-20.467-3.454L327.679,373.68
	c-0.484,4.676,5.704,6.769,8.157,2.758c25.08-41.007,28.495-44.27,30.564-56.38l19.149-112.059
	c0.481-12.364-3.336-24.513-10.801-34.382C371.826,169.753,370.458,164.933,370.916,160.111z"/>
<path style="fill:#DBDBDB;" d="M370.916,160.112l2.997-31.585c-6.891,1.104-14.079,0.003-20.467-3.454L327.679,373.68
	c-0.484,4.676,5.704,6.769,8.157,2.758c6.371-10.417,11.338-18.39,15.247-24.699C354.919,314.678,370.337,166.185,370.916,160.112z"
	/>
<path style="fill:#F96989;" d="M325.776,486.254l-11.868-42.973c-3.873-14.022-13.401-25.77-26.254-32.587
	c-47.439-25.159-104.74-36.149-104.74-36.149c-0.712,12.05,2.13,19.918-4.189,28.689c-5.966,8.281-18.146,23.335-35.534,35.755
	c-7.5,5.357-17.606,5.244-25.098-0.125c-17.336-12.425-29.471-27.447-35.401-35.687c-6.239-8.668-3.453-16.598-4.148-28.633
	c-0.005,0.001-38.522,7.39-78.54,23.917v90.477c0,10.634,8.621,19.255,19.255,19.255h289.818
	C320.521,508.195,328.824,497.289,325.776,486.254z"/>
<path style="fill:#ED5A81;" d="M25.375,488.94v-99.931c-8.139,2.737-16.72,5.881-25.374,9.454v90.477
	c0,10.634,8.621,19.255,19.255,19.255h25.374C33.995,508.195,25.375,499.574,25.375,488.94z"/>
<path style="fill:#CECECE;" d="M357.121,205.965c-0.495-2.425,0.343-4.854,1.955-6.455c4.838-4.974,13.485-0.51,12.061,6.455
	C369.888,212.641,358.62,213.96,357.121,205.965z"/>
<path style="fill:#E8C842;" d="M78.542,349.617v40.682c0,4.649,1.475,9.168,4.192,12.94c5.967,8.281,18.146,23.333,35.533,35.753
	c7.436,5.31,17.486,5.31,24.921,0c17.39-12.421,29.57-27.476,35.535-35.757c2.716-3.769,4.189-8.286,4.189-12.932v-40.685
	C149.869,363.431,111.661,363.462,78.542,349.617z"/>
<path style="fill:#DBBC3B;" d="M107.691,403.239c-2.716-3.771-4.191-8.291-4.191-12.94v-33.04
	c-8.522-1.727-16.891-4.269-24.958-7.641v40.682c0,4.649,1.475,9.168,4.192,12.94c5.967,8.281,18.146,23.333,35.533,35.753
	c7.436,5.31,17.486,5.31,24.921,0c0.006-0.004,0.012-0.009,0.018-0.013C125.829,426.561,113.655,411.517,107.691,403.239z"/>
<path style="fill:#F4D44E;" d="M261.45,193.628c-0.001-7.32-4.972-13.668-12.053-15.525c-49.469-12.977-87.773-35.028-113.94-54.103
	c-24.068-16.467-39.391-34.307-39.055-33.945c-1.024-1.104-2.824-0.898-3.561,0.414c-6.595,11.729-35.588,57.529-90.429,66.149
	c-1.436,0.621-2.366,2.032-2.382,3.597c-0.001,0.101-0.003,0.234-0.004,0.356c-0.009,0.973-0.014,1.982-0.014,2.973
	c-0.004,19.497-0.012,76.159-0.012,76.265c0,69.525,59.344,126.142,132.16,125.252c70.658-0.618,129.296-55.719,129.296-125.393
	C261.456,237.306,261.453,214.76,261.45,193.628z"/>
<path style="fill:#E8C842;" d="M51.17,239.808c0-0.079,0.004-63.049,0.008-103.245c-13.107,9.243-29.3,16.995-48.767,20.055
	c-1.436,0.621-2.366,2.032-2.382,3.597c-0.001,0.102-0.003,0.22-0.003,0.356c-0.01,1.067-0.014,2.004-0.014,2.972
	C0.008,183.04,0,239.701,0,239.808c0,69.525,59.344,126.142,132.159,125.252c8.218-0.072,16.27-0.89,24.09-2.373
	C96.358,351.308,51.17,300.474,51.17,239.808z"/>
<path style="fill:#ED5A81;" d="M269.068,508.195v-44.893c0-4.204-3.408-7.612-7.612-7.612c-4.203,0-7.612,3.408-7.612,7.612v44.893
	L269.068,508.195L269.068,508.195z"/>
<path style="fill:#E8C842;" d="M115.387,245.457v2.128c0,8.262,6.349,15.372,14.603,15.76c8.811,0.415,16.085-6.607,16.085-15.327
	v-2.772c0-3.32-2.692-6.013-6.013-6.013h-18.451C118.173,239.232,115.387,242.019,115.387,245.457z"/>
<path style="fill:#DBBC3B;" d="M130.731,247.585v-2.128c0-3.438,2.786-6.224,6.224-6.224h-15.344c-3.438,0-6.224,2.786-6.224,6.224
	v2.128c0,8.262,6.349,15.372,14.603,15.76c3.093,0.145,5.988-0.64,8.454-2.079C133.802,258.506,130.731,253.327,130.731,247.585z"/>
<circle style="fill:#656566;" cx="191.805" cy="225.551" r="16.805"/>
<path style="fill:#545456;" d="M191.805,225.55c-3.108-5.384-2.885-11.766,0.008-16.792c-2.859-0.004-5.756,0.706-8.41,2.238
	c-8.038,4.641-10.792,14.918-6.151,22.957s14.918,10.792,22.957,6.151c2.654-1.532,4.717-3.686,6.144-6.164
	C200.552,233.931,194.914,230.933,191.805,225.55z"/>
<g>
	<path style="fill:#656566;" d="M217.479,200.047c-1.723,0-3.457-0.582-4.882-1.775c-5.815-4.867-13.2-7.548-20.793-7.548
		s-14.977,2.681-20.793,7.548c-3.223,2.7-8.025,2.272-10.723-0.952c-2.698-3.223-2.272-8.025,0.952-10.722
		c8.55-7.157,19.405-11.098,30.564-11.098s22.013,3.941,30.564,11.098C227.78,191.126,224.592,200.047,217.479,200.047z"/>
	<path style="fill:#656566;" d="M90.449,198.272c-12.006-10.048-29.551-10.07-41.584,0c-3.223,2.7-8.025,2.272-10.723-0.952
		c-2.698-3.223-2.272-8.025,0.952-10.722c17.68-14.8,43.47-14.78,61.126,0c3.224,2.698,3.65,7.499,0.952,10.722
		C98.471,200.549,93.667,200.968,90.449,198.272z"/>
	<circle style="fill:#656566;" cx="69.656" cy="225.551" r="16.805"/>
</g>
<path style="fill:#545456;" d="M69.656,225.55c-3.108-5.384-2.885-11.766,0.008-16.792c-2.859-0.004-5.756,0.706-8.41,2.238
	c-8.038,4.641-10.792,14.918-6.151,22.957s14.918,10.792,22.957,6.151c2.654-1.532,4.717-3.686,6.144-6.164
	C78.403,233.931,72.765,230.933,69.656,225.55z"/>
<path style="fill:#656566;" d="M100.404,297.457c12.548,24.147,46.827,24.777,60.433,1.623c1.6-2.722-0.355-6.153-3.512-6.153
	h-54.167C100.833,292.927,99.332,295.393,100.404,297.457z"/>
<path style="fill:#545456;" d="M125.712,297.457c-1.072-2.064,0.429-4.53,2.754-4.53h-25.307c-2.326,0-3.826,2.467-2.754,4.53
	c8.704,16.751,27.862,22.174,43.327,16.203C136.375,310.824,129.856,305.432,125.712,297.457z"/>
<g>
	<path style="fill:#DBDBDB;" d="M368.768,136.552c-21.975,0-39.854-17.878-39.854-39.854s17.879-39.854,39.854-39.854
		c21.975,0,39.854,17.878,39.854,39.854S390.743,136.552,368.768,136.552z M368.768,72.069c-13.581,0-24.63,11.05-24.63,24.63
		s11.049,24.63,24.63,24.63c13.582,0,24.63-11.05,24.63-24.63S382.348,72.069,368.768,72.069z"/>
	<path style="fill:#DBDBDB;" d="M472.146,229.652c-21.975,0-39.854-17.878-39.854-39.854s17.879-39.854,39.854-39.854
		c21.975,0,39.854,17.878,39.854,39.854S494.121,229.652,472.146,229.652z M472.146,165.169c-13.581,0-24.63,11.05-24.63,24.63
		c0,13.581,11.049,24.63,24.63,24.63s24.63-11.05,24.63-24.63C496.777,176.218,485.727,165.169,472.146,165.169z"/>
</g>
<g>
</g>
<g>
</g>
<g>
</g>
<g>
</g>
<g>
</g>
<g>
</g>
<g>
</g>
<g>
</g>
<g>
</g>
<g>
</g>
<g>
</g>
<g>
</g>
<g>
</g>
<g>
</g>
<g>
</g>
</svg>
