<?xml version="1.0" encoding="iso-8859-1"?>
<!-- Generator: Adobe Illustrator 19.0.0, SVG Export Plug-In . SVG Version: 6.00 Build 0)  -->
<svg version="1.1" id="Capa_1" xmlns="http://www.w3.org/2000/svg" xmlns:xlink="http://www.w3.org/1999/xlink" x="0px" y="0px"
	 viewBox="0 0 512 512" style="enable-background:new 0 0 512 512;" xml:space="preserve">
<path style="fill:#F4D44E;" d="M343.729,15.819c-0.023,0.003-0.046,0.005-0.069,0.008c-91.19-33.96-193.306-12.15-262.376,54.686
	C-45.807,193.405-8.934,406.11,151.375,479.521c58.656,26.779,127.497,31.038,192.285,6.91c0.023,0.003,0.046,0.005,0.069,0.008
	c62.788-23.523,114.439-70.771,142.941-136.178C543.385,217.959,477.961,66.108,343.729,15.819z"/>
<path style="fill:#E8C842;" d="M393.654,461.106c-2.172-0.108-5.051-0.534-8.872,0.825c-66.93,23.792-143.464,19.231-209.801-19.069
	C16.547,351.39,7.044,127.771,153.072,21.988c-194.903,87.433-198.182,367.554-1.697,457.533
	c103.114,47.076,192.167,6.929,192.285,6.91c0.061,0.006,0.049,0.005,0.069,0.008C362.018,479.587,378.381,471.11,393.654,461.106z"
	/>
<g>
	<circle style="fill:#656566;" cx="184.241" cy="219.93" r="21.181"/>
	<circle style="fill:#656566;" cx="330.006" cy="219.93" r="21.181"/>
</g>
<g>
	<path style="fill:#4F4F51;" d="M184.241,219.925c-3.917-6.784-3.635-14.826,0.01-21.159c-16.147-0.023-26.547,17.547-18.349,31.747
		c8.201,14.204,28.618,13.973,36.669-0.016C195.263,230.486,188.158,226.71,184.241,219.925z"/>
	<path style="fill:#4F4F51;" d="M330.013,198.766c-3.603-0.005-7.253,0.89-10.598,2.821c-10.129,5.847-13.599,18.799-7.751,28.927
		c8.201,14.204,28.618,13.973,36.669-0.016C341.025,230.486,321.873,212.912,330.013,198.766z"/>
</g>
<path style="fill:#FC8B75;" d="M303.5,350.66c-32.155-1.492-38.224,13.686-56.982,6.08c-17.312-7.02-37.262-8.323-56.228-2.535
	v90.238c0,37.299,30.236,67.536,67.535,67.536s67.535-30.237,67.535-67.536v-89.798C318.421,352.393,311.093,351.012,303.5,350.66z"
	/>
<path style="fill:#EA7363;" d="M216.078,442.197v-91.614c-8.801-0.134-17.35,1.047-25.786,3.622v90.238
	c0,42.858,39.412,74.883,81.424,66.099C239.958,504.004,216.078,475.89,216.078,442.197z"/>
<path style="fill:#656566;" d="M376.687,301.914H133.175c-10.455,0-17.205,11.088-12.383,20.366
	c14.869,28.616,38.556,52.702,69.5,67.781v-35.856c17.873-5.456,37.851-4.917,56.228,2.535c18.818,7.63,24.669-7.58,56.982-6.08
	c7.592,0.353,14.919,1.732,21.862,3.985v36.329c28.149-13.388,51.423-34.699,67.112-61.397
	C399.666,317.338,390.881,301.914,376.687,301.914z"/>
<path style="fill:#4F4F51;" d="M146.584,322.28c-4.821-9.278,1.928-20.366,12.383-20.366h-25.793
	c-10.455,0-17.205,11.089-12.383,20.366c14.868,28.615,38.556,52.702,69.5,67.781v-15.871
	C172.419,360.632,157.435,343.161,146.584,322.28z"/>
<g>
	<path style="fill:#ED694A;" d="M203.182,351.364c0.386-0.053,0.774-0.099,1.161-0.147
		C203.956,351.264,203.568,351.311,203.182,351.364z"/>
	<path style="fill:#ED694A;" d="M198.822,352.093c0.64-0.124,1.283-0.244,1.928-0.354
		C200.103,351.849,199.462,351.97,198.822,352.093z"/>
	<path style="fill:#ED694A;" d="M195.601,352.777c0.61-0.143,1.223-0.281,1.84-0.411
		C196.825,352.496,196.212,352.634,195.601,352.777z"/>
	<path style="fill:#ED694A;" d="M206.507,350.976c0.343-0.033,0.685-0.068,1.03-0.097
		C207.192,350.908,206.849,350.943,206.507,350.976z"/>
	<path style="fill:#ED694A;" d="M190.292,354.205c1.458-0.445,2.935-0.846,4.425-1.212c-12.95,3.179-24.748,9.354-34.617,17.746
		c9.346,7.64,19.496,14.087,30.192,19.301V354.205z"/>
</g>
<path style="fill:#D8553A;" d="M160.106,370.733c9.151,7.48,19.303,14.001,30.185,19.306v-15.849
	c-5.431-4.119-10.617-8.621-15.516-13.49C169.533,363.533,164.617,366.898,160.106,370.733z"/>
<g>
	<path style="fill:#ED694A;" d="M307.937,350.997c-0.367-0.037-0.732-0.076-1.1-0.107
		C307.205,350.921,307.57,350.96,307.937,350.997z"/>
	<path style="fill:#ED694A;" d="M322.554,353.79c-0.678-0.193-1.362-0.378-2.046-0.554
		C321.192,353.414,321.875,353.596,322.554,353.79z"/>
	<path style="fill:#ED694A;" d="M319.42,352.965c-0.627-0.153-1.254-0.307-1.887-0.445
		C318.165,352.658,318.793,352.81,319.42,352.965z"/>
	<path style="fill:#ED694A;" d="M315.666,352.139c-0.716-0.14-1.435-0.272-2.157-0.394
		C314.231,351.868,314.95,351.999,315.666,352.139z"/>
	<path style="fill:#ED694A;" d="M311.428,351.416c-0.426-0.061-0.853-0.115-1.281-0.169
		C310.575,351.302,311.002,351.356,311.428,351.416z"/>
	<path style="fill:#ED694A;" d="M323.197,353.982c0.725,0.213,1.449,0.431,2.165,0.663v36.328
		c10.402-4.948,20.422-11.077,30.277-18.939C346.398,363.802,335.357,357.56,323.197,353.982z"/>
</g>
<path style="fill:#F99D91;" d="M264.86,436.283v-78.561c-5.062,1.446-10.413,1.445-15.476-0.001v78.562
	c0,4.273,3.464,7.738,7.738,7.738C261.396,444.021,264.86,440.556,264.86,436.283z"/>
<g>
</g>
<g>
</g>
<g>
</g>
<g>
</g>
<g>
</g>
<g>
</g>
<g>
</g>
<g>
</g>
<g>
</g>
<g>
</g>
<g>
</g>
<g>
</g>
<g>
</g>
<g>
</g>
<g>
</g>
</svg>
