<?xml version="1.0" encoding="iso-8859-1"?>
<!-- Generator: Adobe Illustrator 19.0.0, SVG Export Plug-In . SVG Version: 6.00 Build 0)  -->
<svg version="1.1" id="Capa_1" xmlns="http://www.w3.org/2000/svg" xmlns:xlink="http://www.w3.org/1999/xlink" x="0px" y="0px"
	 viewBox="0 0 512 512" style="enable-background:new 0 0 512 512;" xml:space="preserve">
<path style="fill:#CC9D72;" d="M246.167,425.721c0.682,11.537-2.045,19.099,4.02,27.519c5.722,7.941,17.404,22.378,34.08,34.289
	c7.131,5.094,16.771,5.094,23.901,0c16.678-11.912,28.359-26.35,34.082-34.293c6.06-8.411,3.331-15.895,4.018-27.515
	c0,0,38.329,7.353,77.467,23.832c27.583-60.706,44.383-133.67,44.383-186.409c0-112.885-76.962-194.937-171.901-194.937
	s-171.901,82.051-171.901,194.937c0,52.74,16.8,125.704,44.383,186.409C207.835,433.075,246.162,425.722,246.167,425.721z"/>
<g>
	<path style="fill:#C19067;" d="M435.016,422.369c-0.003,0.048-0.003,0.093-0.006,0.14c0.017-0.044,0.034-0.087,0.05-0.131
		C435.049,422.375,435.016,422.369,435.016,422.369z"/>
	<path style="fill:#C19067;" d="M228.206,429.86l0.212-0.053c1.925-0.489,3.731-0.937,5.389-1.336l24.739-6.104
		c-22.129-58.674-45.482-121.844-45.482-170.884c0-82.999,37.665-150.13,92.792-182.985c-3.192-0.188-6.405-0.293-9.641-0.293
		c-94.938,0-171.901,82.051-171.901,194.937c0,52.74,16.8,125.704,44.383,186.409c22.477-9.463,44.671-15.911,59.507-19.691
		L228.206,429.86z"/>
</g>
<path style="fill:#E8C842;" d="M167.668,53.98c-0.005-0.001-0.01-0.002-0.015-0.004c-0.761-0.185-1.191-0.989-0.985-1.744
	c7.104-25.953-1.294-45.421-28.073-51.438c-21.109-4.743-42.541,11.77-50.11,50.015l0,0l-4.343,24.78
	c-1.7,9.699,0.63,19.168,5.776,26.705l58.584,10.84c0.058-0.108,3.674-12.943,16.593-23.485c4.96-4.4,7.049-17.572,8.262-24.09
	C174.223,60.914,172.346,54.647,167.668,53.98z"/>
<path style="fill:#DBBC3B;" d="M112.497,56.396c5.73-28.956,18.622-46.678,33.674-53.356c-2.342-0.88-4.858-1.635-7.575-2.246
	c-21.109-4.743-42.541,11.77-50.11,50.015l-4.344,24.78c-1.7,9.699,0.63,19.168,5.776,26.705l20.133,3.725
	C103.346,89.606,109.852,78.137,112.497,56.396z"/>
<path style="fill:#E8C842;" d="M247.591,400.389v38.051c0,4.43,1.405,8.736,3.995,12.331c5.686,7.891,17.292,22.234,33.86,34.07
	c7.085,5.061,16.663,5.061,23.747,0c16.571-11.837,28.178-26.182,33.863-34.073c2.588-3.592,3.993-7.895,3.993-12.323v-38.053
	C315.6,413.536,279.198,413.601,247.591,400.389z"/>
<path style="fill:#DBBC3B;" d="M277.333,450.77c-2.589-3.594-3.995-7.9-3.995-12.331V408.05c-8.795-1.642-17.438-4.188-25.747-7.662
	v38.051c0,4.43,1.405,8.736,3.995,12.331c5.686,7.891,17.292,22.234,33.86,34.07c7.085,5.061,16.663,5.061,23.747,0
	c0.34-0.242,0.664-0.492,1-0.737C294.165,472.413,282.903,458.5,277.333,450.77z"/>
<path style="fill:#F96989;" d="M472.325,490.556c-0.317-0.627-4.012-21.304-25.468-32.681
	c-45.205-23.975-99.809-34.447-99.809-34.447c-0.677,11.46,2.033,18.975-3.993,27.338c-5.684,7.89-17.289,22.231-33.855,34.067
	c-7.153,5.11-16.792,4.999-23.936-0.123c-16.571-11.88-28.154-26.249-33.782-34.082c-5.868-8.167-3.232-15.611-3.893-27.201
	c-0.002,0.001-13.75,2.991-31.252,7.722c-19.144,5.176-39.265-4.031-47.888-21.89l-36.411-86.958
	c-4.327-10.334-5.905-21.612-4.578-32.737l21.091-176.871L89.959,102.3c-3.322-0.589-6.513,1.565-7.208,4.867L40.789,306.49
	c-3.267,15.521-1.886,31.662,3.973,46.402c51.39,129.269,48.047,120.958,48.765,122.609c4.236,9.734,11.444,17.657,20.331,22.99
	l-0.001,0.001c28.415,16.033,43.582,13.337,90.877,13.337h251.392C467.23,511.83,475.28,501.257,472.325,490.556z"/>
<path style="fill:#ED5A81;" d="M139.759,509.123c-10.027-9.554-10.159-9.978-68.301-156.229c-5.858-14.74-7.24-30.879-3.973-46.402
	c44.778-212.396,41.825-199.389,42.408-200.655l-19.932-3.535c-3.322-0.589-6.513,1.565-7.208,4.868L40.791,306.493
	c-3.267,15.521-1.886,31.662,3.973,46.402c51.39,129.27,48.047,120.958,48.765,122.609c4.236,9.734,11.444,17.658,20.331,22.99
	l-0.001,0.001C123.415,503.885,131.474,507.152,139.759,509.123z"/>
<path style="fill:#F4D44E;" d="M421.887,241.557c-0.001-7.48-5.156-13.97-12.436-15.686
	c-58.921-13.887-103.817-28.631-144.801-73.498l-0.04-0.043c-0.975-1.052-2.69-0.856-3.394,0.395
	c-6.284,11.177-33.912,54.821-86.171,63.035c-2.678,1.16-2.285,3.7-2.285,6.599c-0.004,18.762-0.011,72.571-0.011,72.675
	c0,64.739,54.399,119.254,124.573,119.358c69.799-0.104,124.573-54.166,124.573-119.493
	C421.894,292.65,421.891,264.097,421.887,241.557z"/>
<path style="fill:#E8C842;" d="M223.117,295.034c0-0.076,0.004-60.465,0.008-99.528c-12.763,9.31-28.728,17.214-48.079,20.256
	c-2.678,1.16-2.285,3.699-2.285,6.599c-0.004,18.762-0.012,72.571-0.012,72.675c0,64.739,54.4,119.254,124.573,119.358
	c8.65-0.013,17.067-0.857,25.18-2.446C264.918,400.671,223.117,351.782,223.117,295.034z"/>
<g>
	<path style="fill:#656566;" d="M379.986,257.61c-1.749,0-3.508-0.59-4.954-1.801c-11.286-9.446-27.752-9.433-39.023,0
		c-3.271,2.737-8.143,2.305-10.881-0.967c-2.738-3.271-2.306-8.143,0.966-10.881c16.994-14.222,41.818-14.256,58.853,0
		C390.453,248.571,387.19,257.61,379.986,257.61z"/>
	<path style="fill:#656566;" d="M258.634,255.81c-11.286-9.446-27.752-9.433-39.023,0c-3.271,2.737-8.144,2.305-10.881-0.967
		c-2.738-3.271-2.305-8.143,0.966-10.881c16.994-14.222,41.818-14.256,58.853,0c3.271,2.738,3.704,7.61,0.966,10.881
		C266.768,258.125,261.895,258.539,258.634,255.81z"/>
	<circle style="fill:#656566;" cx="239.118" cy="281.44" r="16.011"/>
</g>
<path style="fill:#545456;" d="M239.122,281.441c-2.962-5.129-2.748-11.21,0.007-15.999c-2.724-0.004-5.485,0.672-8.013,2.132
	c-7.658,4.422-10.282,14.214-5.86,21.872s14.214,10.282,21.872,5.86c2.529-1.46,4.495-3.512,5.853-5.872
	C247.456,289.427,242.084,286.571,239.122,281.441z"/>
<circle style="fill:#656566;" cx="355.516" cy="281.44" r="16.011"/>
<path style="fill:#545456;" d="M355.528,265.443c-12.208-0.018-20.072,13.268-13.873,24.005c4.422,7.658,14.214,10.282,21.872,5.86
	c2.529-1.46,4.495-3.512,5.853-5.872C357.063,289.417,349.374,276.137,355.528,265.443z"/>
<path style="fill:#E8C842;" d="M282.696,300.411v2.028c0,7.873,6.051,14.648,13.915,15.018c8.396,0.395,15.328-6.295,15.328-14.606
	v-2.642c0-3.164-2.565-5.73-5.73-5.73h-17.582C285.351,294.48,282.696,297.135,282.696,300.411z"/>
<path style="fill:#DBBC3B;" d="M297.317,302.439v-2.028c0-3.275,2.655-5.931,5.931-5.931h-14.622c-3.275,0-5.931,2.655-5.931,5.931
	v2.028c0,7.873,6.051,14.649,13.915,15.018c2.948,0.138,5.705-0.61,8.056-1.982C300.244,312.847,297.317,307.911,297.317,302.439z"
	/>
<path style="fill:#656566;" d="M268.423,351.517c11.957,23.011,44.622,23.611,57.588,1.547c1.524-2.594-0.338-5.863-3.347-5.863
	h-51.617C268.831,347.201,267.401,349.55,268.423,351.517z"/>
<path style="fill:#545456;" d="M292.538,351.517c-1.022-1.967,0.409-4.316,2.625-4.316h-24.116c-2.216,0-3.647,2.351-2.625,4.316
	c8.294,15.962,26.55,21.13,41.287,15.439C302.7,364.255,296.487,359.116,292.538,351.517z"/>
<g>
</g>
<g>
</g>
<g>
</g>
<g>
</g>
<g>
</g>
<g>
</g>
<g>
</g>
<g>
</g>
<g>
</g>
<g>
</g>
<g>
</g>
<g>
</g>
<g>
</g>
<g>
</g>
<g>
</g>
</svg>
