<?xml version="1.0" encoding="iso-8859-1"?>
<!-- Generator: Adobe Illustrator 19.0.0, SVG Export Plug-In . SVG Version: 6.00 Build 0)  -->
<svg version="1.1" id="Capa_1" xmlns="http://www.w3.org/2000/svg" xmlns:xlink="http://www.w3.org/1999/xlink" x="0px" y="0px"
	 viewBox="0 0 512 512" style="enable-background:new 0 0 512 512;" xml:space="preserve">
<path style="fill:#CC9D72;" d="M143.222,378.996c0.058-0.012,0.117-0.025,0.174-0.037c0.125-0.026,0.245-0.052,0.363-0.076
	c0.07-0.015,0.138-0.029,0.206-0.043c0.111-0.023,0.218-0.046,0.322-0.067c0.047-0.01,0.091-0.019,0.137-0.028
	c0.186-0.039,0.358-0.074,0.515-0.106c0.207-0.042,0.391-0.079,0.546-0.11c0.005-0.001,0.009-0.002,0.013-0.003
	c0.105-0.021,0.195-0.039,0.276-0.055c0.004-0.001,0.006-0.001,0.01-0.002c0.24-0.048,0.371-0.073,0.371-0.073l0,0h105.947l0,0
	c0,0,0.055,0.011,0.154,0.03c0.009,0.002,0.018,0.003,0.028,0.005c0.052,0.01,0.116,0.023,0.192,0.038h0.003
	c0.072,0.014,0.152,0.03,0.243,0.048c0.02,0.004,0.037,0.007,0.057,0.012c0.206,0.041,0.455,0.092,0.751,0.152
	c0.069,0.014,0.145,0.03,0.219,0.045c0.077,0.016,0.153,0.032,0.236,0.049c0.097,0.02,0.199,0.042,0.304,0.063
	c0.064,0.013,0.128,0.027,0.194,0.041c0.122,0.026,0.247,0.052,0.379,0.079c0.054,0.011,0.11,0.023,0.166,0.035
	c0.149,0.031,0.3,0.064,0.46,0.098c0.013,0.003,0.026,0.006,0.039,0.008c0.589,0.126,1.25,0.27,1.978,0.43l0.004,0.001
	c0.224,0.049,0.456,0.1,0.692,0.153c0.044,0.01,0.088,0.02,0.133,0.029c0.237,0.053,0.481,0.107,0.73,0.163
	c0.018,0.004,0.037,0.008,0.055,0.013c13.365,3.01,43.924,10.656,74.971,23.727c29.193-64.251,46.975-141.476,46.975-197.296
	C381.068,86.844,299.611,0,199.128,0S17.188,86.844,17.188,206.322c0,55.82,17.782,133.045,46.975,197.296
	C98.992,388.954,133.208,381.119,143.222,378.996z"/>
<path style="fill:#C19067;" d="M64.272,403.573c0.926-0.39,1.852-0.773,2.776-1.153c0.209-0.086,0.419-0.172,0.629-0.259
	c0.914-0.374,1.826-0.741,2.736-1.105c0.216-0.086,0.432-0.172,0.648-0.259c0.932-0.37,1.863-0.737,2.79-1.097
	c0.107-0.042,0.213-0.082,0.321-0.123c0.858-0.333,1.713-0.659,2.568-0.984c0.217-0.082,0.435-0.165,0.651-0.247
	c0.885-0.334,1.766-0.663,2.646-0.988c0.241-0.089,0.483-0.177,0.723-0.267c0.887-0.326,1.771-0.648,2.651-0.965
	c0.162-0.059,0.325-0.116,0.487-0.174c0.786-0.282,1.568-0.56,2.349-0.835c0.222-0.078,0.446-0.157,0.667-0.235
	c0.845-0.296,1.684-0.586,2.521-0.874c0.262-0.09,0.522-0.179,0.783-0.269c0.829-0.283,1.654-0.563,2.475-0.838
	c0.222-0.074,0.443-0.147,0.663-0.221c0.693-0.23,1.383-0.459,2.068-0.684c0.24-0.079,0.482-0.158,0.721-0.236
	c0.782-0.255,1.556-0.505,2.328-0.753c0.291-0.093,0.58-0.185,0.869-0.278c0.756-0.24,1.509-0.479,2.255-0.712
	c0.27-0.084,0.535-0.166,0.803-0.249c0.598-0.186,1.192-0.37,1.783-0.551c0.252-0.077,0.507-0.156,0.757-0.232
	c0.72-0.219,1.433-0.435,2.142-0.647c0.301-0.09,0.6-0.18,0.899-0.269c0.683-0.203,1.363-0.405,2.034-0.602
	c0.299-0.087,0.593-0.173,0.889-0.26c0.498-0.145,0.993-0.289,1.484-0.43c0.371-0.106,0.739-0.212,1.106-0.318
	c0.538-0.153,1.072-0.305,1.601-0.454c0.315-0.088,0.628-0.176,0.939-0.264c0.602-0.168,1.199-0.335,1.788-0.497
	c0.316-0.087,0.626-0.171,0.938-0.258c0.405-0.111,0.807-0.22,1.204-0.328c0.431-0.116,0.857-0.231,1.279-0.345
	c0.411-0.11,0.819-0.219,1.221-0.326c0.305-0.081,0.608-0.161,0.908-0.24c0.522-0.137,1.037-0.273,1.545-0.404
	c0.304-0.079,0.601-0.155,0.9-0.232c0.352-0.09,0.698-0.179,1.043-0.268c0.418-0.107,0.83-0.211,1.237-0.315
	c0.312-0.078,0.62-0.156,0.925-0.232c0.299-0.075,0.596-0.149,0.889-0.222c0.43-0.107,0.854-0.211,1.268-0.314
	c0.287-0.07,0.568-0.139,0.849-0.207c0.277-0.067,0.548-0.133,0.818-0.198c0.386-0.093,0.763-0.183,1.134-0.273
	c0.256-0.061,0.511-0.122,0.76-0.181c0.24-0.057,0.481-0.114,0.714-0.169c0.375-0.088,0.738-0.173,1.096-0.255
	c0.224-0.052,0.444-0.103,0.661-0.153c0.272-0.063,0.536-0.123,0.797-0.182c0.248-0.057,0.492-0.112,0.73-0.166
	c0.248-0.056,0.491-0.111,0.727-0.164c0.165-0.037,0.331-0.074,0.49-0.109c0.312-0.069,0.609-0.135,0.899-0.199
	c0.151-0.033,0.297-0.065,0.442-0.097c0.273-0.059,0.536-0.117,0.788-0.171c0.112-0.024,0.218-0.047,0.327-0.07
	c0.236-0.051,0.462-0.099,0.677-0.145c0.04-0.009,0.088-0.019,0.127-0.027c0.058-0.012,0.117-0.025,0.174-0.037
	c0.125-0.026,0.245-0.052,0.363-0.076c0.014-0.003,0.026-0.005,0.04-0.008c0.072-0.015,0.138-0.029,0.207-0.043
	c0.096-0.02,0.191-0.04,0.282-0.058c0.047-0.01,0.091-0.019,0.137-0.028c0.031-0.006,0.055-0.011,0.085-0.018
	c0.129-0.026,0.25-0.052,0.365-0.075c0.02-0.004,0.045-0.009,0.065-0.013c0.018-0.004,0.029-0.006,0.046-0.009
	c0.184-0.038,0.349-0.071,0.49-0.099c0.003-0.001,0.007-0.001,0.007-0.001c0.008-0.001,0.011-0.002,0.016-0.003
	c0.053-0.011,0.094-0.019,0.14-0.028c0.039-0.008,0.075-0.015,0.11-0.022c0.008-0.001,0.018-0.004,0.025-0.005
	c0.004-0.001,0.006-0.001,0.01-0.002c0.025-0.005,0.035-0.007,0.057-0.011c0.09-0.018,0.162-0.032,0.213-0.042
	c0.035-0.007,0.04-0.008,0.056-0.011c0.026-0.005,0.044-0.009,0.044-0.009h17.606c-26.158-63.701-51.105-135.393-51.105-188.78
	c0-83.52,34.825-152.118,87.019-189.608C199.493,0.007,199.311,0,199.128,0C98.645,0,17.188,86.844,17.188,206.322
	c0,3.489,0.069,7.061,0.206,10.709c2.06,54.714,19.399,126.352,46.768,186.587C64.198,403.603,64.234,403.588,64.272,403.573z"/>
<path style="fill:#F96989;" d="M397.12,489.727l-12.048-43.621c-3.931-14.235-13.604-26.159-26.65-33.078
	c-48.154-25.539-106.321-36.694-106.321-36.694H146.155c-0.006,0.001-58.169,11.156-106.321,36.694
	c-13.046,6.919-22.718,18.844-26.65,33.078L1.136,489.727C-1.958,500.93,6.47,512,18.09,512c10.217,0,351.87,0,362.075,0
	C391.786,512,400.214,500.93,397.12,489.727z"/>
<path style="fill:#ED5A81;" d="M26.825,489.727l12.049-55.984c3.702-13.403,12.496-24.756,24.403-31.812
	c-7.884,3.345-15.79,7.039-23.442,11.098c-13.046,6.919-22.718,18.844-26.65,33.078L1.136,489.727C-1.958,500.93,6.47,512,18.09,512
	c1.566,0,10.932,0,25.689,0C32.159,512,23.731,500.93,26.825,489.727z"/>
<path style="fill:#E8C842;" d="M146.154,351.029v41.297c0,4.719,1.497,9.306,4.255,13.135c6.057,8.406,18.42,23.685,36.069,36.293
	c7.548,5.391,17.75,5.391,25.296,0c17.652-12.609,30.017-27.89,36.072-36.296c2.757-3.826,4.252-8.411,4.252-13.128v-41.3
	C218.6,365.034,179.822,365.103,146.154,351.029z"/>
<path style="fill:#DBBC3B;" d="M176.099,405.46c-2.758-3.828-4.254-8.416-4.254-13.135v-33.464
	c-8.77-1.753-17.385-4.361-25.689-7.831v41.297c0,4.719,1.497,9.306,4.255,13.135c6.057,8.406,18.42,23.685,36.069,36.293
	c7.548,5.391,17.75,5.391,25.296,0c0.067-0.048,0.129-0.097,0.196-0.144C194.43,429.028,182.133,413.834,176.099,405.46z"/>
<path style="fill:#ED5A81;" d="M74.155,512v-45.57c0-4.268-3.46-7.727-7.727-7.727s-7.727,3.459-7.727,7.727V512
	C63.528,512,68.691,512,74.155,512z"/>
<path style="fill:#F4D44E;" d="M331.822,190.283c-0.001-6.016-4.081-11.27-9.91-12.756c-51.34-13.086-91.014-35.861-117.983-55.52
	c-24.432-16.716-39.985-34.825-39.644-34.457c-1.039-1.12-2.866-0.912-3.615,0.42c-6.695,11.906-36.125,58.398-91.793,67.148
	c-1.458,0.631-2.402,2.063-2.418,3.651c-0.011,1.128-0.018,2.232-0.018,3.379c-0.004,19.791-0.012,77.308-0.012,77.416
	c0,70.574,60.24,128.047,134.155,127.142c71.724-0.627,131.247-56.559,131.247-127.286
	C331.83,236.932,331.826,212.393,331.822,190.283z"/>
<g>
	<path style="fill:#E8C842;" d="M117.94,239.562c0-0.082,0.005-64.708,0.009-104.497c-13.229,9.247-29.527,16.979-49.074,20.052
		c-1.458,0.631-2.402,2.063-2.418,3.651c-0.011,1.128-0.018,2.232-0.018,3.379c-0.004,19.791-0.012,77.309-0.012,77.416
		c0,70.574,60.241,128.047,134.155,127.142c8.265-0.072,16.365-0.888,24.234-2.367C163.915,352.867,117.94,301.215,117.94,239.562z"
		/>
	<path style="fill:#E8C842;" d="M183.554,245.29v2.161c0,8.387,6.446,15.603,14.823,15.998c8.944,0.421,16.328-6.706,16.328-15.558
		v-2.814c0-3.371-2.732-6.104-6.104-6.104h-18.73C186.382,238.973,183.554,241.801,183.554,245.29z"/>
</g>
<path style="fill:#DBBC3B;" d="M199.129,247.451v-2.16c0-3.49,2.829-6.318,6.318-6.318h-15.576c-3.489,0-6.317,2.829-6.317,6.318
	v2.16c0,8.387,6.446,15.603,14.823,15.998c3.14,0.147,6.078-0.65,8.582-2.111C202.246,258.538,199.129,253.281,199.129,247.451z"/>
<circle style="fill:#656566;" cx="261.13" cy="225.08" r="17.063"/>
<path style="fill:#545456;" d="M261.125,225.084c-3.155-5.465-2.929-11.943,0.008-17.045c-2.903-0.004-5.843,0.716-8.538,2.272
	c-8.159,4.71-10.954,15.144-6.244,23.303c4.71,8.159,15.144,10.954,23.303,6.244c2.694-1.555,4.789-3.742,6.236-6.257
	C270.004,233.591,264.28,230.548,261.125,225.084z"/>
<g>
	<path style="fill:#656566;" d="M287.187,199.196c-1.749,0-3.509-0.59-4.955-1.802c-5.904-4.94-13.399-7.661-21.106-7.661
		s-15.203,2.721-21.106,7.661c-3.271,2.74-8.145,2.307-10.884-0.966c-2.738-3.271-2.307-8.145,0.966-10.884
		c8.679-7.265,19.697-11.265,31.025-11.265c11.327,0,22.346,4,31.025,11.265C297.643,190.141,294.406,199.196,287.187,199.196z"/>
	<path style="fill:#656566;" d="M158.239,197.394c-12.187-10.199-29.998-10.222-42.212,0c-3.272,2.74-8.146,2.307-10.884-0.966
		c-2.739-3.271-2.307-8.145,0.966-10.884c17.947-15.022,44.126-15.003,62.049,0c3.272,2.738,3.705,7.612,0.966,10.884
		C166.382,199.705,161.506,200.13,158.239,197.394z"/>
	<circle style="fill:#656566;" cx="137.138" cy="225.08" r="17.063"/>
</g>
<path style="fill:#545456;" d="M137.133,225.084c-3.155-5.465-2.929-11.943,0.008-17.045c-2.903-0.004-5.843,0.716-8.538,2.272
	c-8.159,4.71-10.954,15.144-6.244,23.303c4.71,8.159,15.144,10.954,23.303,6.244c2.694-1.555,4.789-3.742,6.236-6.257
	C146.012,233.591,140.288,230.548,137.133,225.084z"/>
<path style="fill:#F96989;" d="M423.069,279.558c-0.085-0.629-0.158-1.243-0.221-1.845c-0.064-0.616-0.095-1.23-0.118-1.843
	c-36.376,2.83-52.118-3.058-58.074-6.568L353.641,512h53.163c14.329,0,25.809-11.863,25.329-26.184
	C430.187,427.688,425.643,298.584,423.069,279.558z"/>
<path style="fill:#ED5A81;" d="M364.655,269.303L353.641,512h24.338l10.719-236.167
	C375.481,274.429,368.265,271.431,364.655,269.303z"/>
<path style="fill:#E8C842;" d="M510.647,188.369c-2.015-5.884-7.664-7.554-12.553-3.71l-28.168,22.138
	c-2.458,1.932-5.575,2.828-8.683,2.493l-12.962,0.043c-3.934-0.423-6.24-4.637-4.477-8.178l2.429-4.876
	c6.865-12.368,8.183-24.609,8.263-25.422c0.592-5.992-2.521-12.439-9.295-13.814c-5.591-1.134-10.269,1.325-12.321,8.073
	c-0.112,0.37-7.715,18.374-14.578,28.249c-4.099,5.177-9.762,8.889-16.145,10.582c-41.037,7.181-36.793,49.752-36.793,49.752
	l-0.8,17.61c5.893,3.508,21.642,9.483,58.308,6.611c-0.007-0.068-0.018-0.14-0.025-0.207c-1.259-12.031,5.405-23.496,16.461-28.406
	l32.121-9.27c5.052-1.458,9.608-4.272,13.174-8.135l21.861-23.686C510.868,203.444,512.75,194.513,510.647,188.369z"/>
<path style="fill:#DBBC3B;" d="M388.827,277.907l0.543-19.662c0.064-2.308,0.054-14.918,0.01-17.227
	c-0.127-6.659,0.887-25.778,15.38-37.898c-0.854,0.311-1.72,0.592-2.604,0.827c-41.037,7.181-36.793,49.752-36.793,49.752
	l-0.8,17.61C368.155,273.447,375.417,276.497,388.827,277.907z"/>
<path style="fill:#656566;" d="M168.893,299.754c12.737,24.512,47.534,25.152,61.346,1.647c1.624-2.763-0.36-6.246-3.565-6.246
	h-54.984C169.328,295.155,167.804,297.659,168.893,299.754z"/>
<path style="fill:#545456;" d="M194.582,299.754c-1.088-2.095,0.435-4.599,2.796-4.599h-25.689c-2.361,0-3.885,2.504-2.795,4.599
	c8.835,17.003,28.282,22.509,43.98,16.447C205.406,313.323,198.788,307.849,194.582,299.754z"/>
<g>
</g>
<g>
</g>
<g>
</g>
<g>
</g>
<g>
</g>
<g>
</g>
<g>
</g>
<g>
</g>
<g>
</g>
<g>
</g>
<g>
</g>
<g>
</g>
<g>
</g>
<g>
</g>
<g>
</g>
</svg>
