<?xml version="1.0" encoding="iso-8859-1"?>
<!-- Generator: Adobe Illustrator 19.0.0, SVG Export Plug-In . SVG Version: 6.00 Build 0)  -->
<svg version="1.1" id="Capa_1" xmlns="http://www.w3.org/2000/svg" xmlns:xlink="http://www.w3.org/1999/xlink" x="0px" y="0px"
	 viewBox="0 0 512 512" style="enable-background:new 0 0 512 512;" xml:space="preserve">
<path style="fill:#CC9D72;" d="M202.601,381.338c0.727,12.128-2.163,19.943,4.255,28.733c6.057,8.292,18.419,23.366,36.067,35.802
	c7.548,5.318,17.749,5.318,25.295,0c17.65-12.438,30.015-27.514,36.07-35.806c6.414-8.783,3.526-16.603,4.252-28.729
	c0,0,40.565,7.678,81.988,24.884c29.192-63.386,46.973-139.57,46.973-194.637c0-122.956-81.453-203.542-181.93-203.542
	c-100.478,0-181.931,85.673-181.931,203.542c0,55.068,17.781,131.252,46.973,194.637
	C162.033,389.017,202.596,381.339,202.601,381.338z"/>
<path style="fill:#C19067;" d="M215.137,376.927c-22.713-60.837-36.172-128.377-36.172-179.027
	c0-84.812,34.633-153.846,90.395-189.313c-4.552-0.36-9.15-0.545-13.789-0.545C155.093,8.043,73.64,88.627,73.64,211.584
	c0,55.068,17.781,131.252,46.973,194.637c32.64-13.557,64.741-21.197,76.889-23.829L215.137,376.927z"/>
<path style="fill:#E8C842;" d="M123.67,89.657l15.308-33.657c1.375-3.67,7.06-9.837,10.608-11.505l35.852-16.855
	c6.911-3.249,10.236-11.205,7.694-18.404l0,0c-2.439-6.907-9.837-10.718-16.878-8.693l-46.541,13.391
	c-6.334,1.824-12.049,5.345-16.522,10.185C83.639,56.066,77.756,61.778,74.199,72.577C125.853,90.363,122.686,89.164,123.67,89.657z
	"/>
<path style="fill:#DBBC3B;" d="M126.432,32.161c4.474-4.839,10.188-8.361,16.522-10.185l46.541-13.391
	c1.052-0.303,2.111-0.46,3.161-0.511c-2.821-6.164-9.769-9.44-16.403-7.532l-46.541,13.391c-6.334,1.824-12.049,5.345-16.522,10.185
	c-29.552,31.947-35.434,37.66-38.991,48.459c5.219,1.798,9.87,3.398,14.031,4.828C91.938,68.005,98.946,61.876,126.432,32.161z"/>
<path style="fill:#E8C842;" d="M388.331,89.657l-15.308-33.657c-1.375-3.67-7.06-9.837-10.608-11.505L326.563,27.64
	c-6.911-3.249-10.236-11.205-7.694-18.404l0,0c2.439-6.907,9.837-10.718,16.878-8.693l46.541,13.391
	c6.334,1.824,12.049,5.345,16.522,10.185c29.551,31.947,35.434,37.66,38.99,48.459C386.147,90.363,389.315,89.164,388.331,89.657z"
	/>
<path style="fill:#DBBC3B;" d="M394.398,49.304c-1.375-3.67-7.061-9.837-10.608-11.505l-47.183-22.006
	c-5.917-2.782-9.192-9.015-8.419-15.269c-4.201,1.18-7.766,4.314-9.318,8.711v0.001c-2.542,7.2,0.784,15.155,7.694,18.404
	l35.852,16.855c3.547,1.668,9.233,7.835,10.608,11.505l15.308,33.657c0.749-0.376-0.904,0.227,21.091-7.322L394.398,49.304z"/>
<path style="fill:#F96989;" d="M510.275,262.294L448.785,75.04c-0.688-3.267-3.846-5.399-7.133-4.816
	c-55.079,19.245-53.075,17.519-55.348,19.891c-1.781,1.86-2.508,4.541-1.817,7.1l40.021,148.332
	c1.313,11.008-0.247,22.168-4.53,32.394c-5.213,8.993-45.375,78.272-50.397,86.937c-7.741,13.046-21.621,23.773-36.351,19.883
	c-23.204-5.967-24.516-6.004-27.593-6.751h-99.275c-29.196,7.088-27.607,6.754-27.632,6.76
	c-15.488,3.854-28.124-6.957-36.607-20.399L92.02,277.94c-4.281-10.226-5.842-21.387-4.53-32.394
	c41.786-154.918,40.062-148.362,40.176-149.042c0.399-2.37-0.38-4.727-1.972-6.389c-2.361-2.463-1.299-1.006-55.348-19.891
	c-3.287-0.582-6.445,1.549-7.133,4.816L1.726,262.294c-3.233,15.359-1.866,31.331,3.931,45.917
	c0.071,0.118,96.956,160.256,97.022,160.365l11.687,35.166c2.374,7.141,8.514,8.125,10.918,8.231c12.486,0,252.637,0,247.47,0
	c2.507,0,8.052,0,10.558,0c1.358-0.124,11.103,1.455,14.322-8.231l11.687-35.166c0.066-0.109,96.95-160.247,97.023-160.365
	C512.141,293.626,513.508,277.654,510.275,262.294z"/>
<path style="fill:#ED5A81;" d="M140.121,503.742l-11.687-35.166c-0.066-0.109-96.95-160.247-97.022-160.365
	c-5.797-14.586-7.165-30.557-3.931-45.917l61.005-185.78c-5.229-1.8-11.231-3.879-18.137-6.292
	c-3.287-0.582-6.445,1.549-7.133,4.816L1.726,262.294c-3.233,15.359-1.866,31.331,3.931,45.917
	c0.072,0.118,96.956,160.256,97.022,160.365l11.687,35.166c2.374,7.141,8.514,8.125,10.918,8.231c2.228,0,11.712,0,25.754,0
	C148.635,511.867,142.495,510.883,140.121,503.742z"/>
<path style="fill:#E8C842;" d="M206.362,354.136v38.728c0,4.384,1.391,8.645,3.953,12.202c5.626,7.808,17.111,22.002,33.506,33.714
	c7.011,5.008,16.488,5.008,23.499,0c16.398-11.713,27.883-25.908,33.508-33.717c2.561-3.554,3.951-7.813,3.951-12.195v-38.731
	C274.379,366.845,238.375,367.518,206.362,354.136z"/>
<path style="fill:#DBBC3B;" d="M236.224,405.065c-2.562-3.557-3.953-7.818-3.953-12.202v-31.059
	c-8.795-1.612-17.491-4.149-25.909-7.668v38.728c0,4.384,1.391,8.645,3.953,12.202c5.626,7.808,17.111,22.002,33.506,33.713
	c7.011,5.008,16.489,5.008,23.499,0c0.41-0.293,0.802-0.592,1.204-0.888C252.779,426.356,241.709,412.678,236.224,405.065z"/>
<path style="fill:#F4D44E;" d="M378.836,208.569c-0.001-7.568-5.128-14.136-12.441-16.081
	c-93.265-24.815-143.535-83.016-143.192-82.742c-0.965-1.041-2.662-0.847-3.358,0.391c-6.219,11.061-33.558,54.248-85.27,62.376
	c-2.659,1.151-2.261,3.721-2.262,6.458c0,0.063-0.011,67.73-0.011,71.987c0,65.559,55.959,118.947,124.62,118.107
	c66.627-0.583,121.92-52.541,121.92-118.24C378.842,248.64,378.839,228.153,378.836,208.569z"/>
<path style="fill:#E8C842;" d="M182.144,250.956c0-2.938,0.006-62.098,0.009-98.489c-12.63,9.213-28.429,17.035-47.578,20.045
	c-2.659,1.151-2.26,3.721-2.261,6.458c0,0.063-0.011,67.73-0.011,71.987c0,74.31,71.128,130.842,148.147,115.714
	C224.362,355.65,182.144,307.898,182.144,250.956z"/>
<g>
	<path style="fill:#656566;" d="M332.416,212.207c-11.136-9.321-27.385-9.31-38.508,0c-3.273,2.737-8.145,2.305-10.884-0.967
		c-2.738-3.272-2.305-8.146,0.967-10.884c16.879-14.125,41.487-14.106,58.344,0c3.272,2.738,3.705,7.612,0.967,10.884
		C340.559,214.516,335.685,214.941,332.416,212.207z"/>
	<path style="fill:#656566;" d="M217.236,212.207c-11.121-9.305-27.363-9.326-38.51,0c-3.272,2.739-8.146,2.305-10.884-0.967
		c-2.738-3.272-2.305-8.146,0.967-10.884c16.849-14.099,41.453-14.133,58.343,0c3.272,2.738,3.706,7.612,0.967,10.884
		C225.373,214.522,220.499,214.937,217.236,212.207z"/>
	<circle style="fill:#656566;" cx="313.162" cy="237.504" r="15.844"/>
</g>
<path style="fill:#545456;" d="M313.163,237.507c-2.931-5.076-2.719-11.093,0.007-15.832c-2.695-0.004-5.427,0.665-7.93,2.11
	c-7.578,4.376-10.175,14.065-5.799,21.643s14.065,10.175,21.643,5.799c2.502-1.445,4.448-3.476,5.792-5.811
	C321.409,245.409,316.093,242.583,313.163,237.507z"/>
<circle style="fill:#656566;" cx="197.977" cy="237.504" r="15.844"/>
<path style="fill:#545456;" d="M197.982,237.507c-2.931-5.076-2.719-11.093,0.007-15.832c-2.695-0.004-5.427,0.665-7.929,2.11
	c-7.578,4.376-10.175,14.065-5.799,21.643s14.065,10.175,21.643,5.799c2.502-1.445,4.448-3.476,5.792-5.811
	C206.228,245.409,200.913,242.583,197.982,237.507z"/>
<path style="fill:#E8C842;" d="M241.531,256.278v2.007c0,7.791,5.988,14.494,13.77,14.861c8.309,0.391,15.168-6.229,15.168-14.452
	v-2.614c0-3.131-2.539-5.67-5.67-5.67h-17.399C244.159,250.409,241.531,253.036,241.531,256.278z"/>
<path style="fill:#DBBC3B;" d="M256,258.285v-2.007c0-3.241,2.627-5.868,5.869-5.868H247.4c-3.241,0-5.868,2.627-5.868,5.868v2.007
	c0,11.34,11.966,18.604,21.741,12.9C258.896,268.584,256,263.7,256,258.285z"/>
<path style="fill:#656566;" d="M227.411,306.849c11.829,22.764,44.145,23.359,56.972,1.53c1.508-2.566-0.334-5.8-3.31-5.8h-51.065
	C227.816,302.578,226.4,304.903,227.411,306.849z"/>
<path style="fill:#545456;" d="M251.269,306.849c-1.011-1.946,0.404-4.27,2.597-4.27h-23.858c-2.192,0-3.608,2.326-2.597,4.27
	c8.206,15.792,26.266,20.904,40.845,15.275C261.322,319.45,255.176,314.366,251.269,306.849z"/>
<path style="fill:#ED5A81;" d="M410.242,97.214l-1.632-6.156c-0.85-3.203-0.622-6.598,0.645-9.66l0,0
	c-21.923,7.447-21.269,6.959-22.952,8.715c-1.781,1.86-2.508,4.541-1.817,7.1l40.021,148.332c1.313,11.008-0.247,22.168-4.53,32.394
	c-5.213,8.993-45.375,78.272-50.397,86.937c-4.457,7.511-10.949,14.246-18.466,17.873c2.3,0.583,4.904,1.247,7.869,2.01
	c14.73,3.891,28.61-6.836,36.351-19.883c5.023-8.665,45.184-77.943,50.397-86.937c4.281-10.226,5.842-21.387,4.53-32.394
	L410.242,97.214z"/>
<g>
</g>
<g>
</g>
<g>
</g>
<g>
</g>
<g>
</g>
<g>
</g>
<g>
</g>
<g>
</g>
<g>
</g>
<g>
</g>
<g>
</g>
<g>
</g>
<g>
</g>
<g>
</g>
<g>
</g>
</svg>
