<?xml version="1.0" encoding="iso-8859-1"?>
<!-- Generator: Adobe Illustrator 19.0.0, SVG Export Plug-In . SVG Version: 6.00 Build 0)  -->
<svg version="1.1" id="Capa_1" xmlns="http://www.w3.org/2000/svg" xmlns:xlink="http://www.w3.org/1999/xlink" x="0px" y="0px"
	 viewBox="0 0 512 512" style="enable-background:new 0 0 512 512;" xml:space="preserve">
<path style="fill:#967D74;" d="M180.725,72.819c25.696-25.925,36.556-62.407,24.361-71.039c-9.556-6.763-29.613,6.333-44.8,29.252
	c-4.493,6.779-9.068,14.682-11.609,21.183C160.948,55.971,171.931,63.083,180.725,72.819z"/>
<path style="fill:#7C6359;" d="M176.769,41.751c10.415-15.718,23.12-26.812,33.158-30.054c-0.467-4.462-2.038-7.931-4.841-9.915
	c-9.556-6.763-29.613,6.333-44.8,29.252c-4.493,6.779-9.067,14.682-11.609,21.183c6.216,1.902,12.1,4.668,17.537,8.198
	C168.854,54.458,172.842,47.676,176.769,41.751z"/>
<path style="fill:#967D74;" d="M78.2,72.818c8.793-9.736,19.776-16.847,32.046-20.602c-2.541-6.502-7.113-14.404-11.606-21.184
	C83.453,8.114,63.396-4.983,53.84,1.78C41.53,10.493,52.69,47.083,78.2,72.818z"/>
<path style="fill:#7C6359;" d="M65.905,1.127c-4.773-1.633-8.972-1.536-12.065,0.654c-12.311,8.713-1.15,45.302,24.36,71.038
	c3.955-4.379,8.355-8.22,13.113-11.47C72.596,40.735,62.717,14.691,65.905,1.127z"/>
<path style="fill:#E8C842;" d="M238.896,277.294c-5.149-11.483-28.858-32.779-36.769-39.629
	c-19.564,20.55-18.403,19.221-19.397,20.421c2.728,4.533,15.307,23.652,27.819,27.09c0,0-25.503,15-35.973,27.575h-0.881
	c0.816,6.968,2.6,14.137,5.904,21.029c30.665-8.955,50.517-28.609,55.726-34.637C237.983,296.065,244.925,290.741,238.896,277.294z"
	/>
<path style="fill:#DBBC3B;" d="M221.268,292.358c4.846-3.14,4.87-10.137,0.131-13.437c-11.919-8.305-22.704-22.366-28.786-31.272
	c-9.656,10.119-9.09,9.48-9.882,10.436c2.728,4.533,15.307,23.652,27.819,27.09c0,0-25.503,15-35.973,27.575h-0.881
	c0.563,4.815,1.606,9.726,3.276,14.576C188.473,314.562,208.447,300.666,221.268,292.358z"/>
<path style="fill:#E8C842;" d="M83.973,312.721c-10.484-12.569-35.948-27.545-35.948-27.545
	c12.837-3.527,25.684-23.497,28.008-27.406l-20.372-19.422c-8.529,7.429-30.995,27.821-35.982,38.945
	c-4.893,10.912-0.867,17.015,1.129,19.163c0.825,0.887,1.645,1.763,2.443,2.685c5.252,6.077,25.366,26.012,56.48,34.862l4.242,0.761
	C83.973,334.766,83.973,312.721,83.973,312.721z"/>
<path style="fill:#DBBC3B;" d="M48.025,285.175c12.837-3.527,25.684-23.497,28.008-27.406l-10.672-10.174
	c-6.247,8.996-16.618,22.249-28.079,30.373c-4.994,3.54-4.947,10.935,0.186,14.27c13.796,8.964,35.322,24.034,46.506,37.441v-16.959
	C73.489,300.152,48.025,285.175,48.025,285.175z"/>
<path style="fill:#CC9D72;" d="M129.463,48.152c-40.952,0-74.15,35.393-74.15,84.086c0,21.134,6.254,49.072,16.682,73.927
	c1.438,3.427,4.809,5.64,8.526,5.64h97.884c3.716,0,7.088-2.213,8.526-5.64c10.427-24.856,16.682-52.794,16.682-73.927
	C203.612,83.545,170.414,48.152,129.463,48.152z"/>
<path style="fill:#C19067;" d="M117.325,205.945c-10.427-25.829-20.803-54.863-20.803-76.825c0-37.256,18.006-66.997,43.842-80.105
	c-3.559-0.563-7.198-0.862-10.902-0.862c-40.952,0-74.15,35.393-74.15,84.086c0,21.134,6.254,49.072,16.682,73.927
	c1.438,3.427,4.81,5.64,8.526,5.64h45.331C122.135,211.806,118.763,209.505,117.325,205.945z"/>
<path style="fill:#E8C842;" d="M118.278,486.599c5.539,0,10.458,2.734,13.515,6.906l0.295-116.058l-45.564-29.687l14,146.854
	C106.564,484.828,117.155,486.844,118.278,486.599z"/>
<path style="fill:#DBBC3B;" d="M108.764,362.253l-22.241-14.491l14,146.854c3.722-6.032,9.17-7.579,13.068-7.936L108.764,362.253z"
	/>
<path style="fill:#E8C842;" d="M267.358,460.654c-12.78-17.27-12.337-16.955-14.447-18.665c-10.316-8.36-6.323-6.842-73.572-101.01
	c-0.866,1.473,2.076-1.571-36.529,35.109l76.809,77.708c1.584,1.856,4.116,3.279,5.991,8.203c1.917,5.035,4.522,6.07,17.165,19.876
	c6.136,6.459,16.386,6.809,22.955,0.611C271.769,476.786,272.299,467.33,267.358,460.654z"/>
<path style="fill:#DBBC3B;" d="M255.115,473.128c-12.741-14.863-15.428-16.033-17.26-21.362c-1.79-5.209-4.389-6.785-5.981-8.779
	l-74.622-80.611c-4.018,3.81-8.781,8.33-14.444,13.711l76.809,77.708c1.584,1.856,4.116,3.28,5.991,8.203
	c1.917,5.035,4.522,6.07,17.165,19.876c6.136,6.459,16.386,6.809,22.955,0.611c1.168-1.102,2.125-2.348,2.882-3.684
	C263.651,479.031,258.649,477.101,255.115,473.128z"/>
<path style="fill:#967D74;" d="M111.391,202.537c-17.31,4.6-24.938,4.363-34.841,10.946l-21.663,14.401
	c-3.681,2.561-4.068,7.861-0.823,10.955l24.878,23.716c2.555,2.436,4.001,5.811,4.001,9.341v71.319c0,2.665,1.347,5.151,3.58,6.606
	l45.564,29.687c3.118,2.031,7.207,1.734,9.999-0.726l36.181-34.355c3.144-2.479,4.21-6.819,2.465-10.423
	c-12.843-26.512-3.174-57.255-1.708-64.592c0.846-4.232,2.666-8.207,5.645-11.33l20.728-21.735c2.537-2.66,2.131-6.969-0.87-9.091
	l-21.654-14.347c-2.556-1.694-5.385-2.937-8.36-3.676l-26.979-6.696"/>
<path style="fill:#7C6359;" d="M112.074,340.053c-2.368-1.543-3.795-4.177-3.795-7.003v-75.608c0-3.742-1.533-7.321-4.241-9.903
	l-26.374-25.142c-2.414-2.301-2.925-5.751-1.671-8.544l-21.105,14.029c-3.68,2.561-4.068,7.861-0.823,10.955l24.878,23.716
	c2.555,2.436,4.001,5.811,4.001,9.341v71.319c0,2.665,1.347,5.151,3.58,6.606l45.564,29.687c3.118,2.031,7.207,1.734,9.999-0.726
	l11.976-11.372L112.074,340.053z"/>
<path style="fill:#656566;" d="M116.532,484.538L116.532,484.538c-10.18,0-18.509,8.329-18.509,18.509v1.951
	c0,3.867,3.134,7.002,7.002,7.002h22.509c4.147,0,7.508-3.362,7.508-7.508v-1.444C135.041,492.868,126.711,484.538,116.532,484.538z
	"/>
<path style="fill:#545456;" d="M113.648,504.998v-1.951c0-7.388,4.398-13.784,10.696-16.746c-2.38-1.119-5.022-1.763-7.813-1.763
	l0,0c-10.18,0-18.509,8.329-18.509,18.509v1.951c0,3.867,3.134,7.002,7.002,7.002h15.626
	C116.783,512,113.648,508.865,113.648,504.998z"/>
<path style="fill:#656566;" d="M228.99,467.366l13.783,14.507c6.136,6.459,16.386,6.809,22.955,0.611
	c6.041-5.699,6.57-15.156,1.63-21.831l-11.641-15.729l-2.017,4.908C246.825,466.562,230.034,466.936,228.99,467.366z"/>
<path style="fill:#545456;" d="M255.115,473.128c-4.633-5.404-7.931-8.993-10.348-11.635c-7.169,5.308-15.068,5.582-15.777,5.872
	c0.004,0.005,0.008,0.009,0.012,0.014l3.434,3.614c2.4,2.457,5.688,5.803,10.336,10.88c6.136,6.459,16.386,6.809,22.955,0.611
	l0.003-0.003c0.337-0.318,0.65-0.651,0.953-0.991c0.112-0.126,0.217-0.258,0.326-0.387c0.179-0.215,0.352-0.434,0.518-0.656
	c0.122-0.164,0.243-0.33,0.359-0.498c0.135-0.197,0.262-0.4,0.388-0.602c0.112-0.181,0.23-0.361,0.336-0.546v-0.001
	C263.651,479.031,258.649,477.101,255.115,473.128z"/>
<path style="fill:#E8C842;" d="M111.391,190.511v20.521c0,9.98,8.091,18.071,18.071,18.071c9.98,0,18.071-8.091,18.071-18.071
	v-20.521C136.089,194.404,123.255,194.545,111.391,190.511z"/>
<path style="fill:#DBBC3B;" d="M129.463,211.032v-17.551c-6.071,0.001-12.19-0.97-18.071-2.97v20.521
	c0,9.98,8.09,18.071,18.071,18.071c3.295,0,6.375-0.897,9.036-2.438C133.102,223.54,129.463,217.717,129.463,211.032z"/>
<path style="fill:#F4D44E;" d="M183.542,134.059c-0.001-7.14-4.6-13.511-11.411-15.652c-36.51-11.469-56.977-34.663-56.87-34.575
	c-0.424-0.457-1.167-0.372-1.473,0.171c-2.728,4.852-14.723,23.799-37.41,27.365c-1.406,0.609-0.997-0.999-0.997,34.415
	c0,28.762,24.551,52.185,54.674,51.816c29.231-0.256,53.489-23.051,53.489-51.875C183.544,145.027,183.543,140.044,183.542,134.059z
	"/>
<path style="fill:#E8C842;" d="M101.137,145.786c0-18.886-0.116-35.15-0.011-46.313c-6.059,5.311-14.258,10.249-24.747,11.898
	c-1.406,0.608-0.997-0.999-0.997,34.415c0,28.762,24.551,52.185,54.674,51.816c4.203-0.037,8.298-0.554,12.239-1.474
	C118.677,190.587,101.137,170.095,101.137,145.786z"/>
<g>
	<path style="fill:#656566;" d="M112.415,161.195c7.054,13.575,26.323,13.928,33.971,0.913c0.899-1.53-0.199-3.459-1.974-3.459
		h-30.449C112.656,158.648,111.812,160.035,112.415,161.195z"/>
	<circle style="fill:#656566;" cx="150.895" cy="133.982" r="8.105"/>
	<circle style="fill:#656566;" cx="108.031" cy="133.982" r="8.105"/>
</g>
<path style="fill:#967D74;" d="M404.675,72.819c25.696-25.925,36.556-62.407,24.361-71.039c-9.556-6.763-29.613,6.333-44.801,29.252
	c-4.493,6.779-9.068,14.682-11.609,21.183C384.898,55.971,395.881,63.083,404.675,72.819z"/>
<path style="fill:#7C6359;" d="M433.877,11.696c-2.308-22.076-29.292-11.372-49.642,19.337c-4.493,6.779-9.067,14.682-11.609,21.183
	c6.216,1.902,12.1,4.668,17.537,8.198C397.759,43.277,416.104,17.435,433.877,11.696z"/>
<path style="fill:#967D74;" d="M302.149,72.818c8.793-9.736,19.776-16.847,32.046-20.602c-2.541-6.502-7.113-14.404-11.606-21.184
	C307.402,8.114,287.345-4.983,277.789,1.78C265.479,10.493,276.639,47.083,302.149,72.818z"/>
<path style="fill:#7C6359;" d="M289.854,1.127c-4.773-1.633-8.972-1.536-12.065,0.654c-12.311,8.713-1.15,45.302,24.36,71.038
	c3.955-4.379,8.355-8.22,13.113-11.47C296.545,40.735,286.668,14.691,289.854,1.127z"/>
<path style="fill:#E8C842;" d="M462.846,277.294c-5.149-11.483-28.858-32.779-36.769-39.629
	c-19.564,20.55-18.403,19.221-19.397,20.421c2.728,4.533,15.307,23.652,27.819,27.09c0,0-25.503,15-35.973,27.575h-0.881
	c0.816,6.968,2.6,14.137,5.904,21.029c30.665-8.955,50.517-28.609,55.726-34.637C461.932,296.065,468.876,290.741,462.846,277.294z"
	/>
<path style="fill:#DBBC3B;" d="M445.217,292.358c4.846-3.14,4.869-10.137,0.131-13.437c-11.919-8.305-22.704-22.366-28.786-31.272
	c-9.656,10.119-9.09,9.48-9.882,10.436c2.728,4.533,15.307,23.652,27.819,27.09c0,0-25.503,15-35.973,27.575h-0.881
	c0.563,4.815,1.606,9.726,3.276,14.576C412.423,314.562,432.396,300.666,445.217,292.358z"/>
<path style="fill:#E8C842;" d="M307.923,312.721c-10.484-12.569-35.948-27.545-35.948-27.545
	c12.837-3.527,25.684-23.497,28.008-27.406l-20.372-19.422c-8.529,7.429-30.995,27.821-35.982,38.945
	c-4.893,10.912-0.867,17.015,1.129,19.163c0.825,0.887,1.645,1.763,2.443,2.685c5.252,6.077,25.366,26.012,56.48,34.862l4.242,0.761
	L307.923,312.721L307.923,312.721z"/>
<path style="fill:#DBBC3B;" d="M271.974,285.175c12.837-3.527,25.684-23.497,28.008-27.406l-10.672-10.174
	c-6.247,8.996-16.618,22.249-28.079,30.373c-4.994,3.54-4.947,10.935,0.186,14.27c13.796,8.964,35.322,24.034,46.506,37.441v-16.959
	C297.439,300.152,271.974,285.175,271.974,285.175z"/>
<path style="fill:#CC9D72;" d="M353.412,48.152c-40.952,0-74.15,35.393-74.15,84.086c0,21.134,6.254,49.072,16.682,73.927
	c1.438,3.427,4.809,5.64,8.526,5.64h97.884c3.715,0,7.088-2.213,8.526-5.64c10.427-24.856,16.682-52.794,16.682-73.927
	C427.561,83.545,394.363,48.152,353.412,48.152z"/>
<path style="fill:#C19067;" d="M341.275,205.945c-10.427-25.829-20.803-54.863-20.803-76.825c0-37.256,18.006-66.997,43.842-80.105
	c-44.179-6.989-85.052,28.79-85.052,83.224c0,21.134,6.254,49.072,16.682,73.927c1.438,3.427,4.81,5.64,8.526,5.64H349.8
	C346.085,211.806,342.712,209.505,341.275,205.945z"/>
<path style="fill:#E8C842;" d="M342.227,486.599c5.539,0,10.458,2.734,13.515,6.906l0.295-116.058l-45.564-29.687l14,146.855
	C330.514,484.828,341.105,486.844,342.227,486.599z"/>
<path style="fill:#DBBC3B;" d="M332.715,362.253l-22.241-14.491l14,146.855c3.722-6.032,9.17-7.579,13.068-7.936L332.715,362.253z"
	/>
<path style="fill:#E8C842;" d="M491.307,460.654c-12.78-17.27-12.337-16.955-14.447-18.665c-10.316-8.36-6.323-6.842-73.572-101.01
	c-0.866,1.473,2.076-1.571-36.529,35.109l76.809,77.708c1.584,1.856,4.116,3.279,5.991,8.203c1.917,5.035,4.522,6.07,17.165,19.876
	c6.136,6.459,16.386,6.809,22.955,0.611C495.719,476.786,496.248,467.33,491.307,460.654z"/>
<path style="fill:#DBBC3B;" d="M479.065,473.128c-12.741-14.863-15.428-16.033-17.26-21.362c-1.79-5.209-4.389-6.785-5.981-8.779
	l-74.622-80.611c-4.018,3.81-8.781,8.33-14.444,13.711l76.809,77.708c1.584,1.856,4.116,3.28,5.991,8.203
	c1.917,5.035,4.522,6.07,17.165,19.876c6.136,6.459,16.386,6.809,22.955,0.611c1.168-1.102,2.125-2.348,2.882-3.684
	C487.6,479.031,482.598,477.101,479.065,473.128z"/>
<path style="fill:#967D74;" d="M335.342,202.537c-17.31,4.6-24.938,4.363-34.841,10.946l-21.663,14.401
	c-3.681,2.561-4.068,7.861-0.823,10.955l24.878,23.716c2.555,2.436,4.001,5.811,4.001,9.341v71.319c0,2.665,1.347,5.151,3.58,6.606
	l45.564,29.687c3.118,2.031,7.207,1.734,9.999-0.726l36.181-34.355c3.144-2.479,4.21-6.819,2.465-10.423
	c-12.843-26.512-3.174-57.255-1.708-64.592c0.846-4.232,2.666-8.207,5.645-11.33l20.728-21.735c2.537-2.66,2.131-6.969-0.87-9.091
	l-21.654-14.347c-2.556-1.694-5.385-2.937-8.36-3.676l-26.979-6.696"/>
<path style="fill:#7C6359;" d="M336.024,340.053c-2.368-1.543-3.795-4.177-3.795-7.003v-75.608c0-3.742-1.533-7.321-4.241-9.903
	l-26.374-25.142c-2.414-2.301-2.925-5.751-1.671-8.544l-21.105,14.03c-3.68,2.561-4.068,7.861-0.823,10.955l24.878,23.716
	c2.555,2.436,4.001,5.811,4.001,9.341v71.319c0,2.665,1.347,5.151,3.58,6.606l45.564,29.687c3.118,2.031,7.207,1.734,9.999-0.726
	l11.976-11.372L336.024,340.053z"/>
<path style="fill:#656566;" d="M340.481,484.538L340.481,484.538c-10.18,0-18.509,8.329-18.509,18.509v1.951
	c0,3.867,3.135,7.002,7.002,7.002h22.509c4.147,0,7.508-3.362,7.508-7.508v-1.444C358.99,492.868,350.661,484.538,340.481,484.538z"
	/>
<path style="fill:#545456;" d="M337.598,504.998v-1.951c0-7.388,4.398-13.784,10.696-16.746c-2.38-1.119-5.022-1.763-7.813-1.763
	l0,0c-10.18,0-18.509,8.329-18.509,18.509v1.951c0,3.867,3.134,7.002,7.002,7.002h15.626
	C340.732,512,337.598,508.865,337.598,504.998z"/>
<path style="fill:#656566;" d="M452.94,467.366l13.783,14.507c6.136,6.459,16.386,6.809,22.955,0.611
	c6.041-5.699,6.57-15.156,1.63-21.831l-11.641-15.729l-2.017,4.908C470.774,466.562,453.984,466.936,452.94,467.366z"/>
<path style="fill:#545456;" d="M479.065,473.128c-4.633-5.404-7.931-8.993-10.348-11.635c-7.169,5.308-15.068,5.582-15.777,5.872
	c0.004,0.005,0.008,0.009,0.012,0.014l3.434,3.614c2.4,2.457,5.688,5.803,10.336,10.88c6.136,6.459,16.386,6.809,22.955,0.611
	l0.003-0.003c0.337-0.318,0.65-0.651,0.953-0.991c0.112-0.126,0.217-0.258,0.326-0.387c0.179-0.215,0.352-0.434,0.518-0.656
	c0.122-0.164,0.243-0.33,0.359-0.498c0.135-0.197,0.261-0.4,0.388-0.602c0.112-0.181,0.23-0.361,0.336-0.546v-0.001
	C487.6,479.031,482.598,477.101,479.065,473.128z"/>
<path style="fill:#E8C842;" d="M335.342,190.511v20.521c0,9.98,8.091,18.071,18.071,18.071c9.98,0,18.071-8.091,18.071-18.071
	v-20.521C360.038,194.404,347.204,194.545,335.342,190.511z"/>
<path style="fill:#DBBC3B;" d="M353.412,211.032v-17.551c-6.071,0.001-12.19-0.97-18.071-2.97v20.521
	c0,9.98,8.09,18.071,18.071,18.071c3.295,0,6.375-0.897,9.036-2.438C357.052,223.54,353.412,217.717,353.412,211.032z"/>
<path style="fill:#F4D44E;" d="M407.493,134.059c-0.001-7.14-4.6-13.511-11.411-15.652c-36.51-11.469-56.977-34.663-56.87-34.575
	c-0.424-0.457-1.167-0.372-1.473,0.171c-2.728,4.852-14.723,23.799-37.41,27.365c-1.406,0.609-0.997-0.999-0.997,34.415
	c0,28.762,24.551,52.185,54.674,51.816c29.231-0.256,53.489-23.051,53.489-51.875C407.494,145.027,407.494,140.044,407.493,134.059z
	"/>
<path style="fill:#E8C842;" d="M325.087,145.786c0-18.886-0.116-35.15-0.011-46.313c-6.059,5.311-14.258,10.249-24.747,11.898
	c-1.406,0.608-0.997-0.999-0.997,34.415c0,28.762,24.551,52.185,54.674,51.816c4.203-0.037,8.298-0.554,12.239-1.474
	C342.626,190.587,325.087,170.095,325.087,145.786z"/>
<g>
	<path style="fill:#656566;" d="M336.365,161.195c7.054,13.575,26.323,13.928,33.971,0.913c0.899-1.53-0.199-3.459-1.974-3.459
		h-30.449C336.606,158.648,335.762,160.035,336.365,161.195z"/>
	<circle style="fill:#656566;" cx="374.842" cy="133.982" r="8.105"/>
	<circle style="fill:#656566;" cx="331.978" cy="133.982" r="8.105"/>
</g>
<g>
</g>
<g>
</g>
<g>
</g>
<g>
</g>
<g>
</g>
<g>
</g>
<g>
</g>
<g>
</g>
<g>
</g>
<g>
</g>
<g>
</g>
<g>
</g>
<g>
</g>
<g>
</g>
<g>
</g>
</svg>
