<?xml version="1.0" encoding="iso-8859-1"?>
<!-- Generator: Adobe Illustrator 19.0.0, SVG Export Plug-In . SVG Version: 6.00 Build 0)  -->
<svg version="1.1" id="Capa_1" xmlns="http://www.w3.org/2000/svg" xmlns:xlink="http://www.w3.org/1999/xlink" x="0px" y="0px"
	 viewBox="0 0 512.001 512.001" style="enable-background:new 0 0 512.001 512.001;" xml:space="preserve">
<path style="fill:#CC9D72;" d="M219.329,171.335c0,0-13.699-93.47-76.271-136.348C103.119,4.656,54.327-5.682,8.259,2.998
	C3.466,3.901,0,8.102,0,12.98v406.799c6.704,7.775,15.849,16.97,27.189,25.071c7.547,5.392,17.748,5.392,25.294,0
	c17.649-12.607,30.012-27.885,36.067-36.291c6.414-8.904,3.523-16.792,4.252-29.119c0,0,40.563,7.782,81.983,25.221
	C204.111,340.12,229.434,243.343,219.329,171.335z"/>
<path style="fill:#C19067;" d="M0,93.491c0.532-0.894,0.999-1.7,1.382-2.382c0.749-1.333,2.575-1.542,3.614-0.421
	c6.33,6.886,13.546,13.776,21.524,20.536l-0.742-3.731c0,0-3.438-80.721,54.586-102.543C56.667-0.88,32.1-1.495,8.258,2.997
	C3.466,3.901,0,8.102,0,12.98V93.491L0,93.491L0,93.491z"/>
<path style="fill:#CC9D72;" d="M501.014,2.68c-93.578-17.289-180.892,51.316-180.892,143.087c0,14.148-0.014,36.058-0.031,47.172
	l191.848-0.31V15.818C511.939,9.379,507.346,3.849,501.014,2.68z"/>
<path style="fill:#C19067;" d="M404.446,145.766c0-65.675,44.721-119.479,104.45-138.434c-1.943-2.364-4.69-4.063-7.882-4.652
	c-93.578-17.289-180.892,51.316-180.892,143.087c0,14.148-0.014,36.058-0.031,47.172l84.324-0.136
	C404.432,181.647,404.446,159.857,404.446,145.766z"/>
<path style="fill:#E8C842;" d="M314.92,197.378c0,11.511,11.552,20.842,23.789,20.842v-41.682
	C326.473,176.537,314.92,185.867,314.92,197.378z"/>
<path style="fill:#DBBC3B;" d="M316.986,189.137c-1.316,2.528-2.066,5.313-2.066,8.24c0,11.511,11.552,20.842,23.789,20.842v-16.482
	C329.586,201.737,320.844,196.549,316.986,189.137z"/>
<path style="fill:#F96989;" d="M237.804,489.729l-12.046-43.616c-3.931-14.233-13.602-26.156-26.647-33.073
	C150.962,387.504,92.803,376.35,92.803,376.35c-0.723,12.23,2.161,20.216-4.252,29.119c-6.055,8.404-18.418,23.683-36.066,36.291
	c-7.636,5.455-17.913,5.299-25.536-0.171c-11.229-8.06-20.292-17.18-26.948-24.9v77.343c0,9.923,8.045,17.968,17.968,17.968h202.884
	C232.472,511.999,240.898,500.931,237.804,489.729z"/>
<path style="fill:#ED5A81;" d="M26.357,494.032v-52.886C15.406,433.195,6.538,424.269,0,416.688v77.343
	c0,9.923,8.045,17.968,17.968,17.968h26.357C34.401,511.999,26.357,503.955,26.357,494.032z"/>
<path style="fill:#E8C842;" d="M46.848,361.402c-0.955,0.046-1.911,0.085-2.871,0.112c-0.51,0.015-1.02,0.022-1.53,0.031
	c-0.386,0.007-0.771,0.021-1.157,0.024c-0.231,0.003-0.463,0.002-0.694,0.002c-0.266,0.001-0.532,0.002-0.798,0.001
	c-0.472,0-0.943,0.003-1.415-0.003c-0.48-0.004-0.957-0.02-1.436-0.029c-0.089-0.003-0.177-0.004-0.267-0.006
	c-12.726-0.268-25.038-2.278-36.681-5.788v60.943c6.704,7.775,15.849,16.971,27.189,25.072c7.547,5.391,17.748,5.391,25.294,0
	c17.65-12.608,30.012-27.886,36.068-36.292c2.756-3.825,4.252-8.41,4.252-13.126v-41.294c-14.197,5.935-29.656,9.544-45.832,10.347
	C46.93,361.398,46.889,361.399,46.848,361.402z"/>
<path style="fill:#DBBC3B;" d="M37.957,429.43c-7.804-7.316-12.205-17.552-12.205-28.25v-40.326
	c-8.858-0.893-17.476-2.613-25.752-5.108v60.943c6.704,7.775,15.849,16.971,27.189,25.072c7.547,5.391,17.748,5.391,25.294,0
	c0.078-0.056,0.152-0.113,0.23-0.169C47.28,437.692,42.35,433.547,37.957,429.43z"/>
<path style="fill:#57ADDD;" d="M484.736,441.759c-7.557,5.399-17.674,5.439-25.234,0.045
	c-17.724-12.645-30.124-27.992-36.171-36.393c-6.332-8.798-3.505-16.847-4.21-29.061c-0.006,0.001-58.161,11.155-106.308,36.689
	c-13.044,6.917-22.715,18.841-26.647,33.073l-12.046,43.616c-3.094,11.201,5.332,22.269,16.952,22.269h207.596
	c7.329,0,13.272-5.942,13.272-13.272V416.67C505.233,424.449,496.084,433.652,484.736,441.759z"/>
<path style="fill:#42A2CC;" d="M299.699,489.729l12.046-57.008c3.2-11.587,10.207-21.642,19.738-28.713
	c-6.292,2.783-12.562,5.791-18.671,9.031c-13.044,6.917-22.715,18.841-26.647,33.073l-12.046,43.616
	c-3.094,11.201,5.332,22.269,16.952,22.269h25.58C305.032,511.999,296.606,500.931,299.699,489.729z"/>
<path style="fill:#E8C842;" d="M511.939,358.212c-30.043,9-63.347,7.563-92.819-4.661v38.788c0,4.718,1.497,9.305,4.254,13.133
	c6.056,8.405,18.418,23.683,36.065,36.289c7.547,5.391,17.748,5.391,25.294,0c11.35-8.108,20.499-17.311,27.205-25.09V358.212z"/>
<path style="fill:#DBBC3B;" d="M449.305,405.472c-2.758-3.827-4.254-8.415-4.254-13.133v-30.967
	c-8.844-1.739-17.543-4.341-25.931-7.82v38.788c0,4.718,1.497,9.305,4.254,13.133c6.056,8.405,18.418,23.683,36.065,36.289
	c7.547,5.391,17.748,5.391,25.294,0c0.108-0.077,0.209-0.158,0.317-0.235C467.577,428.964,455.324,413.825,449.305,405.472z"/>
<path style="fill:#F4D44E;" d="M4.997,87.598c-1.039-1.121-2.865-0.913-3.614,0.421C0.999,88.7,0.532,89.507,0,90.401v270.509
	c12.163,3.667,25.055,5.695,38.385,5.811c0.485,0.006,0.969,0.003,1.453,0.004c0.485-0.001,0.968,0.003,1.454-0.004
	c71.716-0.627,131.232-56.552,131.232-127.271c0-2.582-0.004-28.951-0.008-51.68c-0.001-4.567-3.133-8.52-7.566-9.616
	C98.52,161.72,39.01,124.596,4.997,87.598z"/>
<path style="fill:#E8C842;" d="M25.777,107.494c-7.679-6.555-14.651-13.227-20.781-19.896c-1.039-1.121-2.865-0.913-3.614,0.421
	C0.999,88.7,0.532,89.507,0,90.401v270.509c8.283,2.497,16.91,4.213,25.777,5.104V107.494z"/>
<path style="fill:#F4D44E;" d="M511.939,121.614c-25.079-1.811-40.418-9.025-40.418-9.025l5.595,7.715
	c4.24,5.847,2.827,16.282-10.46,17.108c-0.561-0.09-0.97,0.069-5.008-0.169l0,0c-11.363-0.674-41.354-4.414-73.453-24.478
	l-0.003,0.013c-17.546-10.673-26.125-4.769-30.092,1.16c-4.517,6.753-2.669,13.294-3.099,20.856
	c0,14.172-4.961,27.896-14.021,38.794l-2.385,2.867c0,0.008,0,0.015,0,0.023c-0.015,0.893-0.027,1.803-0.037,2.724
	c-0.001,0.112-0.003,0.222-0.003,0.336c-0.009,0.969-0.014,1.953-0.014,2.959c0,0.027,0,0.052,0,0.078
	c-0.019,90.084-0.012,45.926-0.012,58.606c0,88.304,89.856,147.207,173.41,122.185L511.939,121.614L511.939,121.614z"/>
<path style="fill:#E8C842;" d="M389.772,241.182c0-1.944,0-2.549,0-2.51c0,1.781-0.001,2.44-0.001,2.504
	c0-0.136,0-2.431,0.001-2.504c0.001-5.13,0.005-19.588,0.012-56.097c0-0.026,0-0.051,0-0.078c0-1.006,0.005-1.989,0.014-2.959
	c0.001-0.112,0.002-0.223,0.003-0.336c0.009-0.922,0.021-1.832,0.037-2.724c0-0.008,0-0.015,0-0.023l2.385-2.867
	c9.061-10.897,14.021-24.622,14.021-38.794c0.245-4.314-0.246-8.295,0.12-12.174c-5.901-2.745-11.995-5.996-18.17-9.855
	l-0.003,0.013c-17.546-10.673-26.125-4.769-30.092,1.16c-4.517,6.753-2.668,13.294-3.099,20.856
	c0,14.172-4.961,27.896-14.021,38.794l-2.385,2.867c0,0.008,0,0.015,0,0.023c-0.015,0.893-0.027,1.803-0.037,2.724
	c-0.001,0.112-0.003,0.222-0.003,0.336c-0.009,0.969-0.014,1.953-0.014,2.959c0,0.027,0,0.052,0,0.078
	c-0.008,36.521-0.011,50.976-0.012,56.102c0,0.08,0,0.742,0,2.504c0,83.423,80.198,140.592,159.514,125.56
	C438.77,355.552,389.772,306.387,389.772,241.182z"/>
<g>
	<path style="fill:#656566;" d="M122.93,197.432c-12.187-10.198-29.991-10.223-42.208,0c-3.272,2.738-8.145,2.305-10.883-0.967
		c-2.738-3.272-2.305-8.146,0.967-10.884c17.948-15.02,44.118-14.999,62.041,0c3.272,2.738,3.705,7.611,0.967,10.884
		C131.067,199.747,126.193,200.161,122.93,197.432z"/>
	<path style="fill:#656566;" d="M430.965,189.462c-5.952-4.981-13.506-7.724-21.275-7.724c-7.768,0-15.324,2.743-21.275,7.724
		c-3.272,2.737-8.146,2.304-10.883-0.967c-2.738-3.272-2.305-8.145,0.966-10.883c8.727-7.303,19.805-11.325,31.193-11.325
		c11.387,0,22.465,4.022,31.192,11.325c3.272,2.739,3.705,7.611,0.966,10.883C439.107,191.772,434.234,192.197,430.965,189.462z"/>
</g>
<path style="fill:#F96989;" d="M341.057,16.374C316.853-6.822,277.8-4.912,255.092,19.751l-3.476,3.774
	c-1.61,1.748-4.371,1.748-5.981,0l-3.476-3.774c-22.708-24.662-61.762-26.573-85.965-3.376
	c-23.418,22.443-24.666,59.603-2.595,83.575c3.597,3.907,88.328,95.928,84.746,92.038c5.535,6.012,15.024,6.012,20.56,0
	c3.952-4.291,80.822-87.777,84.746-92.038C365.724,75.977,364.475,38.818,341.057,16.374z"/>
<g>
	<path style="fill:#ED5A81;" d="M205.105,88.544c-22.072-23.972-20.823-61.131,2.595-83.575c1.194-1.144,2.434-2.21,3.696-3.232
		c-19.122-4.556-40.066,0.13-55.202,14.638c-23.418,22.443-24.666,59.603-2.595,83.575c3.453,3.749,81.63,88.654,84.746,92.038
		c5.535,6.012,15.025,6.012,20.56,0c1.238-1.346,9.646-10.475,20.724-22.507C257.615,145.572,207.845,91.519,205.105,88.544z"/>
	<path style="fill:#ED5A81;" d="M180.249,511.999v-45.565c0-4.267-3.459-7.726-7.726-7.726s-7.726,3.459-7.726,7.726v45.565H180.249
		z"/>
</g>
<path style="fill:#399DC9;" d="M347.129,511.999v-45.565c0-4.267-3.459-7.726-7.726-7.726c-4.267,0-7.726,3.459-7.726,7.726v45.565
	H347.129z"/>
<path style="fill:#E8C842;" d="M456.615,233.746v2.16c0,8.386,6.445,15.601,14.822,15.996c8.943,0.421,16.327-6.705,16.327-15.556
	v-2.814c0-3.371-2.732-6.103-6.103-6.103h-18.727C459.444,227.429,456.615,230.257,456.615,233.746z"/>
<path style="fill:#DBBC3B;" d="M472.19,235.907v-2.16c0-3.489,2.829-6.317,6.317-6.317h-15.574c-3.489,0-6.317,2.829-6.317,6.317
	v2.16c0,8.386,6.445,15.602,14.822,15.996c3.14,0.147,6.077-0.65,8.581-2.111C475.307,246.991,472.19,241.735,472.19,235.907z"/>
<path style="fill:#E8C842;" d="M24.26,245.321v2.161c0,8.386,6.445,15.601,14.822,15.996c8.943,0.421,16.327-6.705,16.327-15.556
	v-2.814c0-3.371-2.732-6.103-6.103-6.103H30.578C27.089,239.005,24.26,241.832,24.26,245.321z"/>
<path style="fill:#DBBC3B;" d="M39.834,247.482v-2.16c0-3.489,2.829-6.317,6.317-6.317H30.578c-3.489,0-6.317,2.829-6.317,6.317
	v2.16c0,8.386,6.445,15.602,14.822,15.996c3.14,0.147,6.077-0.65,8.581-2.111C42.951,258.567,39.834,253.311,39.834,247.482z"/>
<circle style="fill:#656566;" cx="409.688" cy="213.296" r="17.163"/>
<path style="fill:#545456;" d="M409.691,213.292c-3.175-5.5-2.947-12.018,0.008-17.152c-2.921-0.004-5.879,0.721-8.591,2.286
	c-8.21,4.74-11.023,15.239-6.283,23.45c4.74,8.21,15.239,11.023,23.45,6.283c2.711-1.565,4.818-3.765,6.275-6.296
	C418.625,221.853,412.866,218.792,409.691,213.292z"/>
<circle style="fill:#656566;" cx="101.828" cy="225.119" r="17.163"/>
<path style="fill:#545456;" d="M101.826,225.117c-3.175-5.5-2.947-12.018,0.008-17.152c-2.921-0.004-5.879,0.721-8.591,2.286
	c-8.21,4.74-11.023,15.239-6.283,23.45c4.74,8.21,15.239,11.023,23.45,6.283c2.711-1.565,4.818-3.765,6.275-6.296
	C110.761,233.679,105.002,230.617,101.826,225.117z"/>
<path style="fill:#656566;" d="M0.459,294.5c16.325,31.416,60.923,32.236,78.625,2.111c2.081-3.542-0.461-8.006-4.569-8.006H4.043
	C1.017,288.606-0.936,291.815,0.459,294.5z"/>
<path style="fill:#545456;" d="M33.384,294.5c-1.396-2.685,0.558-5.893,3.584-5.893H4.043c-3.026,0-4.979,3.208-3.584,5.893
	c11.324,21.793,36.249,28.849,56.368,21.079C47.257,311.89,38.776,304.874,33.384,294.5z"/>
<path style="fill:#656566;" d="M432.633,294.466c16.325,31.416,60.923,32.236,78.625,2.111c2.081-3.542-0.461-8.006-4.569-8.006
	h-70.472C433.191,288.572,431.238,291.781,432.633,294.466z"/>
<path style="fill:#545456;" d="M465.558,294.466c-1.396-2.685,0.558-5.893,3.584-5.893h-32.925c-3.026,0-4.979,3.208-3.584,5.893
	c11.324,21.793,36.249,28.849,56.368,21.079C479.431,311.857,470.949,304.841,465.558,294.466z"/>
<g>
</g>
<g>
</g>
<g>
</g>
<g>
</g>
<g>
</g>
<g>
</g>
<g>
</g>
<g>
</g>
<g>
</g>
<g>
</g>
<g>
</g>
<g>
</g>
<g>
</g>
<g>
</g>
<g>
</g>
</svg>
