<?xml version="1.0" encoding="iso-8859-1"?>
<!-- Generator: Adobe Illustrator 19.0.0, SVG Export Plug-In . SVG Version: 6.00 Build 0)  -->
<svg version="1.1" id="Capa_1" xmlns="http://www.w3.org/2000/svg" xmlns:xlink="http://www.w3.org/1999/xlink" x="0px" y="0px"
	 viewBox="0 0 512 512" style="enable-background:new 0 0 512 512;" xml:space="preserve">
<path style="fill:#CC9D72;" d="M153.669,70.238c-43.183-17.497-93.907-16.923-138.481,5.001C5.925,79.795,0,89.157,0,99.479v347.177
	c21.574-6.372,37.035-9.339,37.038-9.34c0.726,12.181-2.173,20.212,4.289,29.175c6.049,8.386,18.335,23.556,35.855,36.115
	c7.605,5.452,17.864,5.567,25.479,0.128c17.651-12.609,30.015-27.888,36.07-36.295c6.416-8.905,3.524-16.793,4.252-29.122
	c0,0,40.568,7.782,81.992,25.223c20.687-45.531,35.634-99.625,42.594-145.349C300.61,122.382,153.669,70.238,153.669,70.238z"/>
<g>
	<path style="fill:#C19067;" d="M25.756,407.507C16.805,402.644,8.163,396.725,0,389.635v54.986
		c10.229-2.998,19.108-5.265,25.756-6.847V407.507z"/>
	<path style="fill:#C19067;" d="M25.784,178.919c0,0-0.429-106.432,83.776-119.897c-31.455-3.629-64.312,1.432-94.372,16.218
		C5.925,79.795,0,89.157,0,99.479v101.187c4.343-2.527,8.401-5.252,12.194-8.087L25.784,178.919z"/>
</g>
<path style="fill:#CC9D72;" d="M500.504,94.416c-26.425-22.388-60.95-36.065-98.526-36.512
	c-109.489-4.175-148.256,106.644-148.256,106.644c-0.163,0.178-0.341,0.335-0.512,0.5c-3.509,12.287-5.388,25.218-5.388,38.567
	c0,14.149-0.014,36.062-0.031,47.177L512,250.365V119.569C512,109.913,507.87,100.657,500.504,94.416z"/>
<path style="fill:#C19067;" d="M331.603,203.615c0-13.346,2.133-26.524,5.641-38.808c-0.039,0.04-0.074,0.073,0.003-0.01
	c0,0,28.078-79.879,103.397-101.601c-12.354-3.296-25.316-5.133-38.667-5.292c-109.489-4.175-148.256,106.644-148.256,106.644
	c-0.163,0.178-0.341,0.335-0.512,0.5c-3.509,12.287-5.388,25.218-5.388,38.567c0,14.149-0.014,36.062-0.031,47.177l83.781-0.135
	C331.59,239.501,331.603,217.707,331.603,203.615z"/>
<path style="fill:#E8C842;" d="M242.62,255.206c0,11.498,11.54,20.818,23.762,20.818v-41.634
	C254.159,234.389,242.62,243.708,242.62,255.206z"/>
<path style="fill:#DBBC3B;" d="M244.69,246.963c-1.318,2.528-2.07,5.313-2.07,8.241c0,11.498,11.539,20.818,23.762,20.818v-16.484
	C257.273,259.539,248.545,254.361,244.69,246.963z"/>
<path style="fill:#E8C842;" d="M37.038,408.92v41.297c0,4.719,1.497,9.306,4.255,13.135c6.057,8.406,18.42,23.685,36.069,36.293
	c7.548,5.391,17.75,5.391,25.296,0c17.652-12.609,30.017-27.89,36.072-36.296c2.757-3.826,4.252-8.411,4.252-13.128v-41.3
	C109.484,422.925,70.706,422.994,37.038,408.92z"/>
<path style="fill:#DBBC3B;" d="M67.05,463.351c-2.758-3.828-4.255-8.416-4.255-13.135v-33.45
	c-8.793-1.753-17.431-4.366-25.756-7.846v41.297c0,4.719,1.497,9.306,4.255,13.135c6.057,8.406,18.42,23.685,36.069,36.293
	c7.548,5.391,17.75,5.391,25.296,0c0.078-0.056,0.152-0.113,0.229-0.169C85.365,486.899,73.08,471.72,67.05,463.351z"/>
<path style="fill:#F96989;" d="M138.732,463.348c-6.056,8.405-18.42,23.686-36.07,36.295c-7.613,5.439-17.872,5.323-25.477-0.127
	c-17.597-12.613-29.915-27.86-35.935-36.225c-6.333-8.799-3.505-16.848-4.211-29.064c-0.003,0.001-15.462,2.966-37.038,9.337v52.292
	C0,504.772,7.228,512,16.145,512h197.567c1.535-3.336,3.666-27.69,28.659-40.974c1.523-0.81,3.057-1.604,4.598-2.385
	c-47.224-23.925-103.984-34.415-103.984-34.415C142.262,446.457,145.147,454.444,138.732,463.348z"/>
<path style="fill:#ED5A81;" d="M25.756,495.856v-59.148c-6.502,1.537-15.424,3.805-25.756,6.856v52.292
	C0,504.772,7.228,512,16.145,512h25.756C32.984,512,25.756,504.772,25.756,495.856z"/>
<path style="fill:#57ADDD;" d="M512,494.56v-31.769c0-7.283-4.691-13.757-11.627-15.978c-26.911-8.619-47.595-12.587-47.595-12.587
	c-0.704,12.181,2.121,20.266-4.213,29.067c-6.041,8.393-18.42,23.713-36.11,36.349c-7.572,5.409-17.73,5.409-25.301,0
	c-17.692-12.638-30.071-27.959-36.112-36.351c-6.333-8.799-3.505-16.848-4.211-29.064c-0.006,0.001-58.224,11.167-106.39,36.73
	c-13.02,6.91-22.657,18.833-26.582,33.042L211.65,512h282.909C504.192,512,512,504.192,512,494.56z"/>
<path style="fill:#42A2CC;" d="M263.36,460.074c-7.711,3.288-15.436,6.912-22.918,10.882c-13.02,6.91-22.657,18.834-26.582,33.042
	L211.651,512h25.756l2.02-8.003C242.667,491.168,252.684,469.289,263.36,460.074z"/>
<path style="fill:#E8C842;" d="M346.831,411.425v38.792c0,4.718,1.497,9.306,4.255,13.135c6.057,8.406,18.42,23.685,36.069,36.293
	c7.548,5.391,17.75,5.391,25.296,0c17.652-12.61,30.017-27.89,36.072-36.296c2.757-3.826,4.252-8.411,4.252-13.128v-38.796
	C419.183,425.359,380.437,425.363,346.831,411.425z"/>
<path style="fill:#DBBC3B;" d="M376.976,463.351c-2.758-3.828-4.255-8.416-4.255-13.135v-30.977
	c-8.842-1.742-17.525-4.345-25.889-7.815v38.792c0,4.718,1.497,9.306,4.255,13.135c6.057,8.406,18.42,23.685,36.069,36.293
	c7.548,5.391,17.75,5.391,25.296,0c0.1-0.072,0.195-0.146,0.296-0.218C395.261,486.86,382.998,471.709,376.976,463.351z"/>
<path style="fill:#F4D44E;" d="M94.812,179.897c-24.273-16.607-39.741-34.562-39.644-34.458c-1.04-1.119-2.866-0.912-3.615,0.421
	C46.71,154.473,29.962,181.175,0,198.606v192.273c84.071,74.376,222.714,17.973,222.714-93.425c0-0.041,0-0.088,0-0.144
	c0-2.571-0.004-28.718-0.008-51.378c-0.001-4.747-3.256-8.853-7.863-9.998C162.508,222.938,122.139,199.817,94.812,179.897z"/>
<path style="fill:#E8C842;" d="M89.645,422.281c-37.192-6.985-63.861-39.932-63.861-77.774V178.919
	C18.648,185.836,10.074,192.746,0,198.606v192.273c29.948,26.495,66.821,36.382,101.885,33.112
	C97.796,423.604,93.712,423.044,89.645,422.281z"/>
<g>
	<path style="fill:#656566;" d="M142.431,257.087c-2.208,0-4.402-0.942-5.93-2.767c-2.738-3.272-2.305-8.146,0.967-10.885
		c8.68-7.264,19.698-11.264,31.025-11.264s22.344,4,31.024,11.264c3.272,2.738,3.705,7.612,0.967,10.885
		c-2.738,3.272-7.612,3.704-10.884,0.967c-5.905-4.941-13.4-7.662-21.106-7.662c-7.707,0-15.203,2.721-21.107,7.662
		C145.94,256.496,144.181,257.087,142.431,257.087z"/>
	<path style="fill:#656566;" d="M65.607,255.286c-12.189-10.2-29.996-10.224-42.213,0c-3.272,2.738-8.146,2.304-10.884-0.967
		c-2.739-3.272-2.306-8.146,0.967-10.885c17.951-15.021,44.122-15.001,62.048,0c3.272,2.738,3.705,7.612,0.967,10.885
		C73.744,257.602,68.87,258.016,65.607,255.286z"/>
	<path style="fill:#656566;" d="M129.365,345.405c-4.373-4.622-10.867-6.328-16.949-4.457c-4.079,1.255-6.366,5.58-5.111,9.659
		c1.256,4.079,5.58,6.369,9.659,5.111c0.423-0.129,0.873-0.011,1.176,0.309c0.576,0.609,0.816,2.278,0.543,2.923
		c-0.206,0.174-0.472,0.273-0.744,0.273h-4.459c-4.267,0-7.727,3.459-7.727,7.727s3.46,7.727,7.727,7.727h4.459
		c0.272,0,0.537,0.097,0.744,0.273c0.273,0.644,0.032,2.315-0.543,2.922c-0.304,0.321-0.754,0.44-1.176,0.309
		c-4.079-1.256-8.402,1.032-9.659,5.111c-1.255,4.079,1.032,8.403,5.111,9.659c1.632,0.502,3.292,0.746,4.934,0.746
		c4.478,0,8.814-1.822,12.014-5.201c5.503-5.814,6.375-15.109,2.53-21.545C135.74,360.51,134.865,351.216,129.365,345.405z"/>
</g>
<path style="fill:#F4D44E;" d="M512,170.737c-1.843-0.546-4.357-0.551-7.822,0.437c-0.014,0.004-0.027,0.007-0.041,0.011
	c-60.862,19.972-104.898-0.749-104.898-0.749l5.596,7.716c2.847,3.926,2.599,8.593,0.452,12.086
	c-2.911,4.142-9.581,5.278-11.111,4.998c0,0-1.718,0.041-4.812-0.142v-0.001c-11.365-0.674-41.358-4.414-73.461-24.48l-0.003,0.013
	c-17.793-10.823-26.365-4.601-30.258,1.409c-1.989,3.071-2.937,6.701-2.937,10.359v10.25c0,14.174-4.961,27.9-14.022,38.798
	l-2.385,2.868l0,0c-0.016,0.9-0.028,1.818-0.037,2.747c-0.001,0.112-0.003,0.222-0.003,0.336c-0.009,0.969-0.014,1.954-0.014,2.959
	c0,0.027,0,0.052,0,0.078c-0.005,22.932-0.011,54.969-0.012,58.468c0,0.055,0,0.104,0,0.145
	c0,70.847,60.353,128.824,135.037,127.978c37.228-0.326,71.08-15.432,95.196-39.643c10.012-10.05,15.536-23.724,15.536-37.91
	V170.737z"/>
<path style="fill:#E8C842;" d="M317.894,299.042c0-0.041,0-0.089,0-0.145c0.001-3.499,0.007-35.537,0.012-58.468
	c0-0.026,0-0.051,0-0.078c0-1.006,0.006-1.99,0.014-2.959c0.001-0.112,0.002-0.223,0.004-0.336c0.009-0.93,0.021-1.848,0.037-2.747
	l0,0l2.385-2.868c9.062-10.898,14.022-24.624,14.022-38.798v-10.25c0-0.586,0.034-1.17,0.082-1.752
	c-6.019-2.782-12.241-6.086-18.547-10.029l-0.003,0.013c-17.793-10.823-26.365-4.602-30.258,1.409
	c-1.989,3.071-2.937,6.701-2.937,10.359v10.25c0,14.174-4.961,27.899-14.023,38.798l-2.385,2.868l0,0
	c-0.016,0.9-0.028,1.817-0.037,2.747c-0.001,0.112-0.003,0.222-0.003,0.336c-0.009,0.969-0.014,1.954-0.014,2.959
	c0,0.027,0,0.052,0,0.078c-0.005,22.932-0.012,54.969-0.012,58.468c0,0.055,0,0.104,0,0.145
	c0,70.848,60.353,128.824,135.037,127.978c8.304-0.073,16.439-0.886,24.338-2.367C364.062,413.125,317.894,361.007,317.894,299.042z
	"/>
<g>
	<path style="fill:#656566;" d="M470.094,247.316c-12.287-10.282-30.239-10.307-42.556,0c-3.272,2.737-8.146,2.305-10.884-0.967
		c-2.738-3.272-2.306-8.145,0.967-10.885c18.05-15.106,44.368-15.084,62.392,0c3.272,2.739,3.705,7.612,0.967,10.885
		C478.231,249.632,473.357,250.045,470.094,247.316z"/>
	<path style="fill:#656566;" d="M345.285,247.316c-5.952-4.981-13.508-7.725-21.278-7.725c-7.769,0-15.326,2.743-21.278,7.725
		c-3.272,2.738-8.146,2.305-10.884-0.967c-2.738-3.272-2.307-8.145,0.966-10.885c8.728-7.304,19.807-11.327,31.196-11.327
		s22.468,4.023,31.196,11.327c3.272,2.739,3.705,7.612,0.967,10.885C353.423,249.632,348.549,250.045,345.285,247.316z"/>
	<path style="fill:#656566;" d="M373.768,378.178c-0.423,0.132-0.873,0.013-1.175-0.308c-0.576-0.609-0.817-2.278-0.544-2.923
		c0.206-0.174,0.473-0.273,0.744-0.273h4.459c4.267,0,7.727-3.459,7.727-7.727s-3.46-7.727-7.727-7.727
		c-4.346-0.086-4.639,0.203-5.203-0.273c-0.431-1.017,0.165-3.713,1.719-3.231c4.078,1.256,8.403-1.032,9.659-5.111
		c3.194-10.366-13.148-14.621-22.058-5.202c-5.503,5.812-6.376,15.105-2.531,21.544c-3.845,6.437-2.971,15.731,2.531,21.546
		c8.858,9.356,25.272,5.227,22.058-5.204C382.171,379.211,377.845,376.919,373.768,378.178z"/>
</g>
<path style="fill:#F96989;" d="M324.696,14.083c-20.894-20.024-54.605-18.375-74.207,2.914l-3,3.258c-1.39,1.51-3.772,1.51-5.163,0
	l-3-3.258c-19.601-21.289-53.313-22.938-74.206-2.914c-20.214,19.373-21.293,51.449-2.239,72.142
	c3.105,3.373,76.245,82.806,73.154,79.448c4.778,5.189,12.969,5.189,17.748,0c3.411-3.704,69.766-75.77,73.154-79.448
	C345.988,65.532,344.91,33.455,324.696,14.083z"/>
<path style="fill:#ED5A81;" d="M214.394,77.849c-19.052-20.692-17.974-52.769,2.239-72.142c0.833-0.798,1.692-1.549,2.564-2.278
	c-18.083-6.821-39.288-3.52-54.077,10.653c-20.214,19.373-21.292,51.449-2.239,72.142c2.983,3.239,70.575,76.648,73.16,79.455
	c-0.004-0.004-0.003-0.003-0.007-0.007c4.778,5.189,12.969,5.189,17.748,0c1.173-1.274,9.794-10.637,20.739-22.523
	C254.046,120.915,216.596,80.242,214.394,77.849z"/>
<path style="fill:#E8C842;" d="M370.734,303.062v2.175c0,8.442,6.488,15.707,14.921,16.103c9.004,0.424,16.436-6.75,16.436-15.661
	v-2.834c0-3.394-2.75-6.144-6.144-6.144h-18.853C373.581,296.703,370.734,299.55,370.734,303.062z"/>
<path style="fill:#DBBC3B;" d="M386.412,305.237v-2.175c0-3.512,2.848-6.359,6.359-6.359h-15.679c-3.512,0-6.359,2.848-6.359,6.359
	v2.175c0,8.442,6.488,15.707,14.921,16.103c3.16,0.148,6.118-0.654,8.638-2.125C389.55,316.396,386.412,311.105,386.412,305.237z"/>
<path style="fill:#E8C842;" d="M90.818,303.143v2.175c0,8.442,6.488,15.707,14.921,16.103c9.004,0.424,16.435-6.75,16.435-15.661
	v-2.834c0-3.394-2.75-6.144-6.144-6.144H97.178C93.666,296.784,90.818,299.63,90.818,303.143z"/>
<path style="fill:#DBBC3B;" d="M106.497,305.317v-2.175c0-3.512,2.848-6.359,6.359-6.359H97.178c-3.512,0-6.359,2.848-6.359,6.359
	v2.175c0,8.442,6.488,15.707,14.921,16.103c3.161,0.148,6.118-0.654,8.638-2.125C109.634,316.477,106.497,311.185,106.497,305.317z"
	/>
<circle style="fill:#656566;" cx="448.817" cy="271.15" r="17.174"/>
<path style="fill:#545456;" d="M448.816,271.148c-3.175-5.5-2.948-12.019,0.008-17.155c-2.921-0.004-5.88,0.721-8.592,2.286
	c-8.211,4.741-11.025,15.241-6.284,23.452c4.741,8.211,15.241,11.025,23.452,6.284c2.711-1.565,4.819-3.766,6.276-6.297
	C457.752,279.71,451.992,276.648,448.816,271.148z"/>
<circle style="fill:#656566;" cx="324.003" cy="271.15" r="17.174"/>
<path style="fill:#545456;" d="M324.008,271.148c-3.175-5.5-2.948-12.019,0.008-17.155c-2.921-0.004-5.88,0.721-8.592,2.286
	c-8.211,4.741-11.025,15.241-6.284,23.452c4.741,8.211,15.241,11.025,23.452,6.284c2.711-1.565,4.819-3.766,6.276-6.297
	C332.943,279.71,327.184,276.648,324.008,271.148z"/>
<circle style="fill:#656566;" cx="168.489" cy="282.973" r="17.174"/>
<path style="fill:#545456;" d="M168.493,282.975c-3.175-5.5-2.948-12.019,0.008-17.155c-2.921-0.004-5.88,0.721-8.592,2.286
	c-8.211,4.741-11.025,15.241-6.284,23.452c4.741,8.211,15.241,11.025,23.452,6.284c2.711-1.565,4.819-3.766,6.276-6.297
	C177.429,291.537,171.668,288.475,168.493,282.975z"/>
<circle style="fill:#656566;" cx="44.497" cy="282.973" r="17.174"/>
<path style="fill:#545456;" d="M44.5,282.975c-3.175-5.5-2.948-12.019,0.008-17.155c-2.921-0.004-5.88,0.721-8.592,2.286
	c-8.211,4.741-11.025,15.241-6.284,23.452c4.741,8.211,15.241,11.025,23.452,6.284c2.711-1.565,4.819-3.766,6.276-6.297
	C53.436,291.537,47.676,288.475,44.5,282.975z"/>
<g>
</g>
<g>
</g>
<g>
</g>
<g>
</g>
<g>
</g>
<g>
</g>
<g>
</g>
<g>
</g>
<g>
</g>
<g>
</g>
<g>
</g>
<g>
</g>
<g>
</g>
<g>
</g>
<g>
</g>
</svg>
