<?xml version="1.0" encoding="iso-8859-1"?>
<!-- Generator: Adobe Illustrator 19.0.0, SVG Export Plug-In . SVG Version: 6.00 Build 0)  -->
<svg version="1.1" id="Capa_1" xmlns="http://www.w3.org/2000/svg" xmlns:xlink="http://www.w3.org/1999/xlink" x="0px" y="0px"
	 viewBox="0 0 512 512" style="enable-background:new 0 0 512 512;" xml:space="preserve">
<path style="fill:#E8C842;" d="M14.93,294.37c1.528-2.941,2.531-6.133,3.097-9.413c1.365-7.905,13.793-40.373,37.46-71.295
	l21.692,22.482c-2.575,3.358-24.604,32.147-35.273,58.203c-1.757,4.292-2.414,8.953-2.059,13.595
	c0.488,6.399-0.219,16.308-8.469,19.801C17.223,333.736,3.133,317.075,14.93,294.37z"/>
<path style="fill:#DBBC3B;" d="M18.229,324.982c9.1-3.854,9.881-14.784,9.342-21.844c-0.391-5.12,0.333-10.262,2.271-14.997
	c10.588-25.859,31.311-54.148,37.433-62.264l9.904,10.265c-2.575,3.358-24.604,32.147-35.273,58.203
	c-1.757,4.292-2.414,8.953-2.059,13.595c0.488,6.399-0.219,16.308-8.469,19.801c-5.425,2.297-10.834,1.258-14.787-2.163
	C17.137,325.407,17.683,325.213,18.229,324.982z"/>
<path style="fill:#E8C842;" d="M277.533,294.37c-1.528-2.941-2.531-6.133-3.097-9.413c-1.365-7.905-13.793-40.373-37.46-71.295
	l-21.692,22.482c2.575,3.358,24.604,32.147,35.273,58.203c1.757,4.292,2.414,8.953,2.059,13.595
	c-0.488,6.399,0.219,16.308,8.469,19.801C275.241,333.736,289.329,317.075,277.533,294.37z"/>
<path style="fill:#DBBC3B;" d="M274.235,324.982c-9.1-3.854-9.881-14.784-9.342-21.844c0.391-5.12-0.333-10.262-2.271-14.997
	c-10.588-25.859-31.311-54.148-37.433-62.264l-9.904,10.265c2.575,3.358,24.604,32.147,35.273,58.203
	c1.757,4.292,2.414,8.953,2.059,13.595c-0.488,6.399,0.219,16.308,8.469,19.801c5.425,2.297,10.834,1.258,14.787-2.163
	C275.326,325.407,274.78,325.213,274.235,324.982z"/>
<path style="fill:#ED694A;" d="M241.809,204.485l-32.958-21.798c-8.69-5.747-14.158-4.769-42.535-11.265h-39.805
	c-28.488,6.521-33.849,5.521-42.534,11.265l-32.959,21.798c-1.732,1.777-1.729,4.659-0.006,6.446l26.167,27.119
	c1.373,1.423,3.292,1.944,5.067,1.57c2.347-0.495,3.252-2.156,3.916-2.742c1.143-1.226,3.165-0.4,3.165,1.302v45.02h114.173v-45.02
	c0-1.026,0.751-1.78,1.661-1.878c1.979-0.211,2.5,3.401,6.497,3.436c4.206,0.037,3.449-2,30.157-28.806
	C243.539,209.144,243.542,206.263,241.809,204.485z"/>
<path style="fill:#DB4E33;" d="M115.659,283.199H89.326v-45.872h11.494c8.195,0,14.838,6.643,14.838,14.837V283.199z"/>
<path style="fill:#CC9D72;" d="M143.648,0.051c-41.92,1.4-75.385,34.416-75.385,74.872c0,7.274-0.007,18.926-0.016,24.64
	l156.36-0.252c0.003-9.948,0.004-23.353,0.005-24.388C224.611,32.33,187.671-1.497,143.648,0.051z"/>
<path style="fill:#C19067;" d="M109.773,74.923c0-34.481,24.319-63.542,57.454-72.245c-7.49-1.979-15.412-2.915-23.58-2.627
	c-41.92,1.4-75.385,34.416-75.385,74.872c0,7.274-0.007,18.926-0.016,24.64l41.512-0.067
	C109.766,93.759,109.773,82.171,109.773,74.923z"/>
<path style="fill:#E8C842;" d="M92.901,373.334l-3.441,121.182c11.623-15.638,34.28-13.616,43.63,2.68h0.011l4.061-118.895
	C121.158,377.824,106.149,376.079,92.901,373.334z"/>
<path style="fill:#DBBC3B;" d="M114.699,376.74c-7.662-0.847-14.967-1.991-21.798-3.406l-3.441,121.182
	c5.701-7.671,14.057-11.083,22.196-10.654L114.699,376.74z"/>
<path style="fill:#E8C842;" d="M155.663,378.28l4.061,118.916h0.011c9.356-16.306,32.015-18.308,43.63-2.68l-3.446-121.337
	C186.695,375.969,171.688,377.763,155.663,378.28z"/>
<path style="fill:#DBBC3B;" d="M176.881,376.788c-6.817,0.741-13.904,1.255-21.218,1.491l4.061,118.916h0.011
	c4.647-8.099,12.577-12.665,20.805-13.299L176.881,376.788z"/>
<g>
	<path style="fill:#E8C842;" d="M228.529,99.884c0,9.354-9.466,16.936-19.494,16.936V82.95
		C219.062,82.95,228.529,90.531,228.529,99.884z"/>
	<path style="fill:#E8C842;" d="M64.298,99.884c0,9.354,9.518,16.936,19.598,16.936V82.95C73.815,82.95,64.298,90.531,64.298,99.884
		z"/>
</g>
<g>
	<path style="fill:#DBBC3B;" d="M209.034,102.486v14.334c10.028,0,19.494-7.582,19.494-16.936c0-2.565-0.731-4.988-1.972-7.167
		C223.274,98.483,216.311,102.486,209.034,102.486z"/>
	<path style="fill:#DBBC3B;" d="M66.28,92.718c-1.247,2.179-1.983,4.601-1.983,7.167c0,9.354,9.518,16.936,19.598,16.936v-14.334
		C76.58,102.486,69.58,98.483,66.28,92.718z"/>
</g>
<path style="fill:#E8C842;" d="M128.341,166.826v16.87c0,9.98,8.091,18.071,18.073,18.071c9.981,0,18.072-8.091,18.072-18.071
	v-16.87C152.729,170.209,140.106,170.211,128.341,166.826z"/>
<path style="fill:#DBBC3B;" d="M146.413,183.695v-14.331c-6.095,0-12.192-0.846-18.073-2.539v16.87
	c0,9.98,8.091,18.071,18.073,18.071c3.295,0,6.376-0.897,9.037-2.437C150.053,196.203,146.413,190.38,146.413,183.695z"/>
<path style="fill:#656566;" d="M109.559,478.607c-14.394,0.405-25.684,12.879-25.684,27.637v1.966c0,2.093,1.655,3.789,3.698,3.789
	h44.69c2.467,0,4.466-2.049,4.466-4.577v-1.742C136.728,490.469,124.493,478.187,109.559,478.607z"/>
<path style="fill:#545456;" d="M104.766,508.211v-1.967c0-11.241,6.554-21.15,16.035-25.417c-3.432-1.525-7.238-2.333-11.242-2.22
	c-14.394,0.405-25.684,12.879-25.684,27.637v1.967c0,2.093,1.655,3.789,3.698,3.789h20.891
	C106.421,512,104.766,510.304,104.766,508.211z"/>
<rect x="89.324" y="254.587" style="fill:#DB4E33;" width="114.173" height="28.611"/>
<rect x="89.324" y="254.587" style="fill:#CC402E;" width="26.331" height="28.61"/>
<path style="fill:#ED694A;" d="M203.499,283.199H89.326l-24.951,70.079c-2.397,6.733,1.049,14.212,7.677,16.497
	c41.927,14.463,107.897,14.291,149.242-0.442c5.916-2.108,9.02-8.746,6.873-14.777L203.499,283.199z"/>
<path style="fill:#DB4E33;" d="M97.899,375.762c-6.628-2.445-10.074-10.44-7.677-17.638l24.951-74.924H89.326l-24.951,70.079
	c-2.397,6.733,1.049,14.212,7.677,16.497c8.837,3.049,18.751,5.439,29.269,7.188C100.168,376.572,99.02,376.176,97.899,375.762z"/>
<path style="fill:#F4D44E;" d="M209.165,82.923c0.02,0.018-4.565-8.528-7.785-14.527c-1.758-3.276-5.351-5.145-9.041-4.673
	c-10.893,1.393-34,1.617-45.926-18.511l0,0l0,0l0,0l0,0c-11.925,20.129-35.032,19.904-45.926,18.511
	c-3.689-0.472-7.281,1.397-9.041,4.673c-3.22,6-7.805,14.545-7.785,14.527c0.065-0.056-0.031-2.267-0.031,30.412
	c0,33.686,28.789,60.564,63.47,60.146c33.934-0.297,62.095-26.756,62.095-60.215C209.19,80.129,209.059,82.831,209.165,82.923z"/>
<g>
	<path style="fill:#E8C842;" d="M83.667,82.911c0,0.001-0.006,0.011-0.006,0.011C83.664,82.921,83.666,82.916,83.667,82.911z"/>
	<path style="fill:#E8C842;" d="M110.228,113.335c0-23.732,0.05-41.274,0.053-49.084c-3.762,0.076-7.142-0.19-9.794-0.53
		c-3.689-0.472-7.281,1.397-9.041,4.673c-3.138,5.847-7.56,14.088-7.765,14.489c0.016,0.177-0.051,3.041-0.051,30.451
		c0,33.686,28.789,60.564,63.47,60.146c4.321-0.038,8.548-0.505,12.636-1.352C131.623,166.33,110.228,142.37,110.228,113.335z"/>
	<path style="fill:#E8C842;" d="M83.667,82.911c0.001-0.002,0.01-0.02,0.014-0.027C83.679,82.857,83.674,82.891,83.667,82.911z"/>
</g>
<g>
	<path style="fill:#656566;" d="M126.98,132.749c8.041,15.472,30.008,15.876,38.727,1.04c1.025-1.744-0.227-3.943-2.25-3.943
		h-34.711C127.255,129.847,126.293,131.428,126.98,132.749z"/>
	<circle style="fill:#656566;" cx="170.844" cy="98.212" r="9.239"/>
	<circle style="fill:#656566;" cx="121.978" cy="98.212" r="9.239"/>
	<path style="fill:#656566;" d="M181.782,478.607c-14.394,0.405-25.684,12.879-25.684,27.637v1.966c0,2.093,1.655,3.789,3.698,3.789
		h44.69c2.467,0,4.466-2.049,4.466-4.577v-1.742C208.952,490.469,196.716,478.187,181.782,478.607z"/>
</g>
<path style="fill:#545456;" d="M176.989,508.211v-1.967c0-11.241,6.554-21.15,16.035-25.417c-3.432-1.525-7.238-2.333-11.242-2.22
	c-14.394,0.405-25.684,12.879-25.684,27.637v1.967c0,2.093,1.655,3.789,3.698,3.789h20.891
	C178.644,512,176.989,510.304,176.989,508.211z"/>
<path style="fill:#E8C842;" d="M234.467,294.37c1.528-2.941,2.531-6.133,3.097-9.413c1.365-7.905,13.793-40.373,37.46-71.295
	l21.692,22.482c-2.575,3.358-24.604,32.147-35.273,58.203c-1.757,4.292-2.414,8.953-2.059,13.595
	c0.488,6.399-0.219,16.308-8.469,19.801C236.759,333.736,222.671,317.075,234.467,294.37z"/>
<path style="fill:#DBBC3B;" d="M237.765,324.982c9.1-3.854,9.881-14.784,9.342-21.844c-0.391-5.12,0.333-10.262,2.271-14.997
	c10.588-25.859,31.311-54.148,37.433-62.264l9.904,10.265c-2.575,3.358-24.604,32.147-35.273,58.203
	c-1.757,4.292-2.414,8.953-2.059,13.595c0.488,6.399-0.219,16.308-8.469,19.801c-5.425,2.297-10.834,1.258-14.787-2.163
	C236.674,325.407,237.219,325.213,237.765,324.982z"/>
<path style="fill:#E8C842;" d="M497.07,294.37c-1.528-2.941-2.531-6.133-3.097-9.413c-1.365-7.905-13.793-40.373-37.46-71.295
	l-21.692,22.482c2.575,3.358,24.604,32.147,35.273,58.203c1.757,4.292,2.414,8.953,2.059,13.595
	c-0.488,6.399,0.219,16.308,8.469,19.801C494.777,333.736,508.867,317.075,497.07,294.37z"/>
<path style="fill:#DBBC3B;" d="M493.771,324.982c-9.1-3.854-9.881-14.784-9.342-21.844c0.391-5.12-0.333-10.262-2.271-14.997
	c-10.588-25.859-31.311-54.148-37.433-62.264l-9.904,10.265c2.575,3.358,24.604,32.147,35.273,58.203
	c1.757,4.292,2.414,8.953,2.059,13.595c-0.488,6.399,0.219,16.308,8.469,19.801c5.425,2.297,10.834,1.258,14.787-2.163
	C494.863,325.407,494.317,325.213,493.771,324.982z"/>
<path style="fill:#F96989;" d="M461.346,204.485l-32.958-21.798c-8.69-5.747-14.158-4.769-42.535-11.265h-39.805
	c-28.488,6.521-33.849,5.521-42.535,11.265l-32.959,21.798c-1.732,1.777-1.729,4.659-0.006,6.446l26.167,27.119
	c1.373,1.423,3.292,1.944,5.067,1.57c2.347-0.495,3.252-2.156,3.916-2.742c1.143-1.226,3.165-0.4,3.165,1.302v45.02h114.173v-45.02
	c0-1.026,0.751-1.78,1.661-1.878c1.979-0.211,2.5,3.401,6.497,3.436c4.206,0.037,3.449-2,30.157-28.806
	C463.075,209.144,463.079,206.263,461.346,204.485z"/>
<path style="fill:#ED5A81;" d="M335.197,283.199h-26.332v-45.872h11.494c8.195,0,14.838,6.643,14.838,14.837L335.197,283.199
	L335.197,283.199z"/>
<path style="fill:#CC9D72;" d="M426.036,126.282l18.247,11.436c4.908,3.076,6.939,9.301,4.428,13.575l0,0
	c-2.767,4.711-6.759,8.458-11.637,10.921c-4.424,2.234-10.509-0.185-13.268-5.278l-6.127-11.306
	C421.566,139.799,424.433,133.274,426.036,126.282z"/>
<path style="fill:#C19067;" d="M437.768,149.48c2.875,2.778,4.096,6.74,3.479,10.132c-1.308,0.975-2.694,1.854-4.173,2.601
	c-4.424,2.234-10.509-0.185-13.268-5.278l-6.127-11.306c2.151-3.226,3.977-6.673,5.462-10.286L437.768,149.48z"/>
<path style="fill:#CC9D72;" d="M305.501,126.282l-18.247,11.436c-4.908,3.076-6.939,9.301-4.428,13.575l0,0
	c2.767,4.711,6.759,8.458,11.637,10.921c4.424,2.234,10.509-0.185,13.268-5.278l6.127-11.306
	C309.97,139.799,307.105,133.274,305.501,126.282z"/>
<path style="fill:#C19067;" d="M293.769,149.48c-2.875,2.778-4.096,6.74-3.479,10.132c1.308,0.975,2.694,1.854,4.173,2.601
	c4.424,2.234,10.509-0.185,13.268-5.278l6.127-11.306c-2.151-3.226-3.977-6.673-5.462-10.286L293.769,149.48z"/>
<path style="fill:#CC9D72;" d="M363.184,0.051c-41.919,1.4-75.385,34.416-75.385,74.872c0,7.274-0.007,18.926-0.016,24.64
	l156.36-0.252c0.003-9.948,0.004-23.353,0.005-24.388C444.148,32.33,407.207-1.497,363.184,0.051z"/>
<path style="fill:#C19067;" d="M329.311,74.923c0-34.481,24.318-63.542,57.454-72.245c-7.49-1.979-15.412-2.915-23.58-2.627
	c-41.919,1.4-75.385,34.416-75.385,74.872c0,7.274-0.007,18.926-0.016,24.64l41.512-0.067
	C329.304,93.759,329.311,82.171,329.311,74.923z"/>
<path style="fill:#E8C842;" d="M312.438,373.334l-3.441,121.182c11.623-15.638,34.28-13.616,43.63,2.68h0.011l4.061-118.895
	C340.695,377.824,325.687,376.079,312.438,373.334z"/>
<path style="fill:#DBBC3B;" d="M334.236,376.74c-7.662-0.847-14.967-1.991-21.798-3.406l-3.441,121.182
	c5.701-7.671,14.057-11.083,22.196-10.654L334.236,376.74z"/>
<path style="fill:#E8C842;" d="M375.2,378.28l4.061,118.916h0.011c9.356-16.306,32.015-18.308,43.63-2.68l-3.446-121.337
	C406.232,375.969,391.226,377.763,375.2,378.28z"/>
<path style="fill:#DBBC3B;" d="M396.419,376.788c-6.817,0.741-13.904,1.255-21.218,1.491l4.061,118.916h0.011
	c4.647-8.099,12.577-12.665,20.805-13.299L396.419,376.788z"/>
<g>
	<path style="fill:#E8C842;" d="M448.066,99.884c0,9.354-9.466,16.936-19.494,16.936V82.95
		C438.6,82.95,448.066,90.531,448.066,99.884z"/>
	<path style="fill:#E8C842;" d="M283.835,99.884c0,9.354,9.518,16.936,19.598,16.936V82.95
		C293.352,82.95,283.835,90.531,283.835,99.884z"/>
</g>
<g>
	<path style="fill:#DBBC3B;" d="M428.572,102.486v14.334c10.028,0,19.494-7.582,19.494-16.936c0-2.565-0.731-4.988-1.972-7.167
		C442.812,98.483,435.849,102.486,428.572,102.486z"/>
	<path style="fill:#DBBC3B;" d="M285.817,92.718c-1.247,2.179-1.983,4.601-1.983,7.167c0,9.354,9.518,16.936,19.598,16.936v-14.334
		C296.117,102.486,289.118,98.483,285.817,92.718z"/>
</g>
<path style="fill:#E8C842;" d="M347.877,166.826v16.87c0,9.98,8.091,18.071,18.073,18.071c9.981,0,18.073-8.091,18.073-18.071
	v-16.87C372.267,170.209,359.642,170.211,347.877,166.826z"/>
<path style="fill:#DBBC3B;" d="M365.951,183.695v-14.331c-6.095,0-12.192-0.846-18.073-2.539v16.87
	c0,9.98,8.091,18.071,18.073,18.071c3.295,0,6.376-0.897,9.037-2.437C369.59,196.203,365.951,190.38,365.951,183.695z"/>
<path style="fill:#656566;" d="M329.097,478.607c-14.394,0.405-25.684,12.879-25.684,27.637v1.966c0,2.093,1.655,3.789,3.698,3.789
	h44.69c2.467,0,4.466-2.049,4.466-4.577v-1.742C356.266,490.469,344.031,478.187,329.097,478.607z"/>
<path style="fill:#545456;" d="M324.302,508.211v-1.967c0-11.241,6.554-21.15,16.035-25.417c-3.432-1.525-7.238-2.333-11.242-2.22
	c-14.394,0.405-25.684,12.879-25.684,27.637v1.967c0,2.093,1.655,3.789,3.698,3.789h20.891
	C325.959,512,324.302,510.304,324.302,508.211z"/>
<rect x="308.863" y="254.587" style="fill:#ED5A81;" width="114.173" height="28.611"/>
<rect x="308.863" y="254.587" style="fill:#DD4A78;" width="26.331" height="28.61"/>
<path style="fill:#F96989;" d="M423.037,283.199H308.864l-24.951,70.079c-2.397,6.733,1.049,14.212,7.677,16.497
	c41.927,14.463,107.897,14.291,149.242-0.442c5.916-2.108,9.02-8.746,6.873-14.777L423.037,283.199z"/>
<path style="fill:#ED5A81;" d="M317.437,375.762c-6.628-2.445-10.074-10.44-7.677-17.638l24.951-74.924h-25.847l-24.951,70.079
	c-2.397,6.733,1.049,14.212,7.677,16.497c8.837,3.049,18.751,5.439,29.269,7.188C319.704,376.572,318.558,376.176,317.437,375.762z"
	/>
<path style="fill:#F4D44E;" d="M428.702,82.923c0.02,0.018-4.565-8.528-7.785-14.527c-1.758-3.276-5.351-5.145-9.041-4.673
	c-10.893,1.393-34,1.617-45.926-18.511l0,0l0,0l0,0l0,0c-11.925,20.129-35.032,19.904-45.926,18.511
	c-3.689-0.472-7.281,1.397-9.041,4.673c-3.22,6-7.805,14.545-7.785,14.527c0.065-0.056-0.031-2.267-0.031,30.412
	c0,33.686,28.789,60.564,63.47,60.146c33.933-0.297,62.095-26.756,62.095-60.215C428.726,80.129,428.597,82.831,428.702,82.923z"/>
<g>
	<path style="fill:#E8C842;" d="M303.205,82.911c0,0.001-0.006,0.011-0.006,0.011C303.201,82.921,303.203,82.916,303.205,82.911z"/>
	<path style="fill:#E8C842;" d="M329.765,113.335c0-23.732,0.05-41.274,0.053-49.084c-3.762,0.076-7.142-0.19-9.794-0.53
		c-3.689-0.472-7.281,1.397-9.041,4.673c-3.138,5.847-7.56,14.088-7.765,14.489c0.016,0.177-0.051,3.041-0.051,30.451
		c0,33.686,28.789,60.564,63.47,60.146c4.321-0.038,8.548-0.505,12.636-1.352C351.16,166.33,329.765,142.37,329.765,113.335z"/>
	<path style="fill:#E8C842;" d="M303.205,82.911c0.001-0.002,0.01-0.02,0.014-0.027C303.216,82.857,303.212,82.891,303.205,82.911z"
		/>
</g>
<g>
	<path style="fill:#656566;" d="M346.518,132.749c8.041,15.472,30.008,15.876,38.727,1.04c1.025-1.744-0.227-3.943-2.25-3.943
		h-34.711C346.792,129.847,345.83,131.428,346.518,132.749z"/>
	<circle style="fill:#656566;" cx="390.382" cy="98.212" r="9.239"/>
	<circle style="fill:#656566;" cx="341.517" cy="98.212" r="9.239"/>
	<path style="fill:#656566;" d="M401.32,478.607c-14.394,0.405-25.684,12.879-25.684,27.637v1.966c0,2.093,1.655,3.789,3.698,3.789
		h44.69c2.467,0,4.466-2.049,4.466-4.577v-1.742C428.489,490.469,416.254,478.187,401.32,478.607z"/>
</g>
<path style="fill:#545456;" d="M396.526,508.211v-1.967c0-11.241,6.554-21.15,16.035-25.417c-3.432-1.525-7.238-2.333-11.242-2.22
	c-14.394,0.405-25.684,12.879-25.684,27.637v1.967c0,2.093,1.655,3.789,3.698,3.789h20.891
	C398.182,512,396.526,510.304,396.526,508.211z"/>
<g>
</g>
<g>
</g>
<g>
</g>
<g>
</g>
<g>
</g>
<g>
</g>
<g>
</g>
<g>
</g>
<g>
</g>
<g>
</g>
<g>
</g>
<g>
</g>
<g>
</g>
<g>
</g>
<g>
</g>
</svg>
