<?xml version="1.0" encoding="iso-8859-1"?>
<!-- Generator: Adobe Illustrator 19.0.0, SVG Export Plug-In . SVG Version: 6.00 Build 0)  -->
<svg version="1.1" id="Capa_1" xmlns="http://www.w3.org/2000/svg" xmlns:xlink="http://www.w3.org/1999/xlink" x="0px" y="0px"
	 viewBox="0 0 512 512" style="enable-background:new 0 0 512 512;" xml:space="preserve">
<path style="fill:#E8C842;" d="M278.315,299.027c-1.524-2.877-2.525-5.999-3.09-9.209c-1.362-7.733-13.762-39.493-37.374-69.741
	l-21.642,21.992c2.569,3.284,24.548,31.446,35.192,56.934c1.753,4.199,2.408,8.759,2.055,13.299
	c-0.487,6.26,0.219,15.952,8.449,19.369C276.027,337.536,290.084,321.238,278.315,299.027z"/>
<path style="fill:#DBBC3B;" d="M275.023,328.973c-9.079-3.769-9.858-14.462-9.32-21.368c0.39-5.008-0.333-10.039-2.266-14.671
	c-10.564-25.295-31.239-52.967-37.347-60.906l-9.881,10.041c2.569,3.284,24.548,31.446,35.192,56.934
	c1.753,4.199,2.408,8.759,2.055,13.299c-0.487,6.26,0.219,15.952,8.45,19.369c5.413,2.247,10.809,1.23,14.753-2.116
	C276.112,329.388,275.568,329.198,275.023,328.973z"/>
<path style="fill:#967D74;" d="M159.557,494.47c9.391-16.046,32.014-17.826,43.54-2.622l-5.7-177.598c-27.811,0-86.041,0-102.27,0
	l-5.7,177.598c11.521-15.197,34.146-13.43,43.54,2.622h0.011l5.446-143.82c0.172-3.056,2.688-5.447,5.735-5.447
	c0.104,0,4.348,0,4.204,0c3.047,0,5.564,2.39,5.735,5.447l5.446,143.82H159.557z"/>
<g>
	<path style="fill:#7C6359;" d="M117.985,314.25c-9.961,0-18.166,0-22.859,0l-5.7,177.598c5.906-7.79,14.728-11.112,23.19-10.347
		L117.985,314.25z"/>
	<path style="fill:#7C6359;" d="M161.349,346.031c-0.314-0.064-0.626-0.123-0.94-0.178l0,0l0,0
		c-6.161-1.093-12.046-0.649-12.046-0.649c3.047,0,5.564,2.39,5.735,5.447l3.479,91.869l0.129-0.082l-0.016,3.063l1.855,48.97h0.012
		c4.957-8.47,13.6-12.96,22.352-13.081l-6.96-113.151C173.858,350.512,164.39,346.777,161.349,346.031z"/>
</g>
<g>
	<path style="fill:#656566;" d="M109.483,479.331c-14.364,0.396-25.631,12.601-25.631,27.038v1.924c0,2.048,1.652,3.707,3.69,3.707
		h44.598c2.462,0,4.457-2.005,4.457-4.478v-1.705C136.597,490.936,124.387,478.92,109.483,479.331z"/>
	<path style="fill:#656566;" d="M183.04,479.331c14.364,0.396,25.631,12.601,25.631,27.038v1.924c0,2.048-1.652,3.707-3.69,3.707
		h-44.597c-2.462,0-4.457-2.005-4.457-4.478v-1.705C155.927,490.936,168.137,478.92,183.04,479.331z"/>
</g>
<g>
	<path style="fill:#545456;" d="M107.805,508.293v-1.924c0-10.389,5.833-19.621,14.457-24.129c-3.814-1.97-8.167-3.036-12.78-2.909
		c-14.365,0.396-25.631,12.601-25.631,27.038v1.924c0,2.048,1.652,3.707,3.69,3.707h23.953
		C109.457,512,107.805,510.34,107.805,508.293z"/>
	<path style="fill:#545456;" d="M179.88,507.523v-1.705c0-10.276,5.823-19.183,14.334-23.578c-3.361-1.757-7.145-2.797-11.174-2.909
		c-14.903-0.411-27.113,11.606-27.113,26.487v1.705c0,2.473,1.995,4.478,4.457,4.478h23.953
		C181.874,512,179.88,509.995,179.88,507.523z"/>
</g>
<path style="fill:#E8C842;" d="M15.247,299.027c1.524-2.877,2.525-5.999,3.09-9.209c1.362-7.733,13.762-39.493,37.374-69.741
	l21.642,21.992c-2.569,3.284-24.548,31.446-35.192,56.934c-1.753,4.199-2.408,8.759-2.055,13.299
	c0.487,6.26-0.219,15.952-8.45,19.369C17.534,337.536,3.478,321.238,15.247,299.027z"/>
<path style="fill:#DBBC3B;" d="M18.538,328.973c9.079-3.769,9.858-14.462,9.32-21.368c-0.39-5.008,0.333-10.039,2.266-14.671
	c10.564-25.295,31.239-52.967,37.347-60.906l9.881,10.041c-2.569,3.284-24.548,31.446-35.192,56.934
	c-1.753,4.199-2.408,8.759-2.055,13.299c0.487,6.26-0.219,15.952-8.45,19.369c-5.413,2.247-10.809,1.23-14.753-2.116
	C17.449,329.388,17.993,329.198,18.538,328.973z"/>
<path style="fill:#CC9D72;" d="M143.471,0.052c-42.273,1.412-76.02,34.71-76.02,75.511c0,7.336-0.007,15.932-0.016,21.695
	l157.679-0.254c0.003-10.033,0.004-20.397,0.005-21.441C225.118,32.606,187.866-1.51,143.471,0.052z"/>
<path style="fill:#C19067;" d="M115.973,75.563c0-33.603,22.899-62.097,54.589-71.901c-8.515-2.643-17.637-3.942-27.09-3.61
	c-42.273,1.412-76.02,34.71-76.02,75.511c0,7.336-0.007,15.932-0.016,21.695l48.522-0.078
	C115.966,91.417,115.973,82.867,115.973,75.563z"/>
<g>
	<path style="fill:#E8C842;" d="M227.312,98.554c0,9.284-9.468,16.808-19.497,16.808V81.747
		C217.844,81.747,227.312,89.271,227.312,98.554z"/>
	<path style="fill:#E8C842;" d="M65.211,98.554c0,9.284,9.464,16.808,19.49,16.808V81.747
		C74.675,81.747,65.211,89.271,65.211,98.554z"/>
</g>
<g>
	<path style="fill:#DBBC3B;" d="M207.815,101.999v13.363c10.029,0,19.497-7.525,19.497-16.808c0-2.376-0.627-4.632-1.718-6.681
		C222.423,97.829,215.278,101.999,207.815,101.999z"/>
	<path style="fill:#DBBC3B;" d="M66.928,91.873c-1.09,2.049-1.717,4.305-1.717,6.681c0,9.284,9.464,16.808,19.49,16.808v-13.363
		C77.241,101.999,70.099,97.829,66.928,91.873z"/>
</g>
<path style="fill:#57ADDD;" d="M241.461,211.106l-32.007-22.742c-11.453-8.138-20.327-6.655-45.107-12.296h-36.142l-33.599,6.558
	c-8.785,2.069-11.022,6.048-43.545,28.481c-1.729,1.738-1.726,4.558-0.006,6.305l26.112,26.532c2.192,2.227,5.782,2.197,7.937-0.067
	l1.028-1.08c1.142-1.199,3.159-0.39,3.159,1.273v66.38c0,3.237,2.612,5.862,5.833,5.862c27.811,0,86.041,0,102.27,0
	c3.221,0,5.833-2.624,5.833-5.862v-66.38c0-1.662,2.017-2.474,3.159-1.273l1.028,1.08c2.154,2.264,5.744,2.294,7.937,0.067
	l26.113-26.532C243.186,215.663,243.19,212.844,241.461,211.106z"/>
<path style="fill:#42A2CC;" d="M115.335,310.449v-39.467c0-12.883-8.809-24.096-21.327-27.144l-5.66-1.379l-0.002,0.017
	c0.541,0.302,0.947,0.856,0.947,1.592v66.38c0,3.237,2.612,5.862,5.833,5.862c7.1,0,16.184,0,26.043,0
	C117.948,316.311,115.335,313.686,115.335,310.449z"/>
<path style="fill:#E8C842;" d="M128.206,163.247v24.22c0,9.98,8.09,18.071,18.071,18.071c9.98,0,18.071-8.091,18.071-18.071v-24.229
	C152.592,166.68,139.925,166.672,128.206,163.247z"/>
<path style="fill:#DBBC3B;" d="M146.034,187.468v-21.653c-6.024-0.021-12.042-0.876-17.829-2.567v24.22
	c0,9.98,8.09,18.071,18.071,18.071c3.244,0,6.282-0.867,8.914-2.364C149.727,200.066,146.034,194.203,146.034,187.468z"/>
<path style="fill:#F4D44E;" d="M208.097,81.709l-1.105-1.33c-8.553-10.288-6.087-20.907-6.495-24.33
	c0-3.637-2.383-4.584-5.895-3.583c-0.006,0.002-0.013,0.003-0.019,0.005c-28.189,9.25-48.585-0.347-48.585-0.347l2.592,3.574
	c2.086,2.877,1.122,7.553-4.845,7.924c-0.361-0.058-0.167,0.049-2.32-0.078l0,0c-5.263-0.313-19.155-2.044-34.024-11.338
	l-0.001,0.006c-8.128-4.944-12.102-2.209-13.938,0.537c-0.968,1.447-1.436,3.171-1.436,4.913v4.748
	c0,11.592-7.301,18.799-7.599,19.298c-0.008,7.479-0.03,28.294-0.031,29.914c0,32.911,27.69,59.048,61.187,59.341
	c34,0.41,62.543-25.89,62.543-59.341C208.121,81.989,208.131,83.986,208.097,81.709z"/>
<path style="fill:#E8C842;" d="M110.457,111.624c0-1.29,0.015-14.73,0.024-23.937c0.004-3.533,1.083-6.956,2.992-9.928
	c2.129-3.316,4.614-8.587,4.614-15.348v-4.624c0-0.001,0-0.003,0-0.004c-3.427-1.463-7.026-3.288-10.685-5.576l-0.001,0.006
	c-8.128-4.944-12.102-2.209-13.938,0.537c-0.968,1.447-1.436,3.171-1.436,4.913v4.748c0,11.592-7.301,18.799-7.599,19.298
	c-0.008,7.479-0.03,28.294-0.031,29.914c0,32.911,27.69,59.048,61.188,59.341c4.683,0.056,9.256-0.411,13.672-1.317
	C131.585,163.948,110.457,140.372,110.457,111.624z"/>
<g>
	<circle style="fill:#656566;" cx="170.704" cy="94.435" r="9.239"/>
	<circle style="fill:#656566;" cx="121.848" cy="94.435" r="9.239"/>
	<path style="fill:#656566;" d="M126.845,128.972c8.04,15.472,30.005,15.876,38.723,1.04c1.025-1.744-0.227-3.943-2.25-3.943
		h-34.708C127.12,126.07,126.159,127.65,126.845,128.972z"/>
</g>
<path style="fill:#E8C842;" d="M496.753,299.027c-1.524-2.877-2.525-5.999-3.09-9.209c-1.362-7.733-13.762-39.493-37.374-69.741
	l-21.642,21.992c2.569,3.284,24.548,31.446,35.192,56.934c1.753,4.199,2.408,8.759,2.055,13.299
	c-0.487,6.26,0.219,15.952,8.45,19.369C494.466,337.536,508.522,321.238,496.753,299.027z"/>
<path style="fill:#DBBC3B;" d="M493.462,328.973c-9.079-3.769-9.858-14.462-9.32-21.368c0.39-5.008-0.333-10.039-2.266-14.671
	c-10.564-25.295-31.239-52.967-37.347-60.906l-9.881,10.041c2.569,3.284,24.548,31.446,35.192,56.934
	c1.753,4.199,2.408,8.759,2.055,13.299c-0.487,6.26,0.219,15.952,8.45,19.369c5.413,2.247,10.809,1.23,14.753-2.116
	C494.551,329.388,494.007,329.198,493.462,328.973z"/>
<path style="fill:#5085BA;" d="M377.994,494.47c9.391-16.046,32.014-17.826,43.54-2.622l-5.7-177.598c-27.811,0-86.041,0-102.27,0
	l-5.7,177.598c11.521-15.197,34.146-13.43,43.54,2.622h0.011l5.446-143.82c0.172-3.056,2.688-5.447,5.735-5.447
	c0.104,0,4.348,0,4.204,0c3.047,0,5.564,2.39,5.735,5.447l5.446,143.82H377.994z"/>
<g>
	<path style="fill:#3A77AA;" d="M336.423,314.25c-9.961,0-18.166,0-22.859,0l-5.7,177.598c5.906-7.79,14.728-11.112,23.19-10.347
		L336.423,314.25z"/>
	<path style="fill:#3A77AA;" d="M379.788,346.031c-0.314-0.064-0.626-0.123-0.94-0.178l0,0l0,0
		c-6.161-1.093-12.046-0.649-12.046-0.649c3.047,0,5.564,2.39,5.735,5.447l3.479,91.869l0.129-0.082l-0.016,3.063l1.855,48.97h0.012
		c4.957-8.47,13.6-12.96,22.352-13.081l-6.96-113.151C392.296,350.512,382.829,346.777,379.788,346.031z"/>
</g>
<g>
	<path style="fill:#656566;" d="M327.922,479.331c-14.364,0.396-25.631,12.601-25.631,27.038v1.924c0,2.048,1.652,3.707,3.69,3.707
		h44.598c2.462,0,4.457-2.005,4.457-4.478v-1.705C355.035,490.936,342.825,478.92,327.922,479.331z"/>
	<path style="fill:#656566;" d="M401.478,479.331c14.364,0.396,25.631,12.601,25.631,27.038v1.924c0,2.048-1.652,3.707-3.69,3.707
		h-44.598c-2.462,0-4.457-2.005-4.457-4.478v-1.705C374.365,490.936,386.575,478.92,401.478,479.331z"/>
</g>
<g>
	<path style="fill:#545456;" d="M326.243,508.293v-1.924c0-10.389,5.833-19.621,14.457-24.129c-3.814-1.97-8.167-3.036-12.78-2.909
		c-14.365,0.396-25.631,12.601-25.631,27.038v1.924c0,2.048,1.652,3.707,3.69,3.707h23.953
		C327.896,512,326.243,510.34,326.243,508.293z"/>
	<path style="fill:#545456;" d="M398.318,507.523v-1.705c0-10.276,5.823-19.183,14.334-23.578
		c-3.361-1.757-7.145-2.797-11.174-2.909c-14.903-0.411-27.113,11.606-27.113,26.487v1.705c0,2.473,1.995,4.478,4.457,4.478h23.953
		C400.313,512,398.318,509.995,398.318,507.523z"/>
</g>
<path style="fill:#E8C842;" d="M233.686,299.027c1.524-2.877,2.525-5.999,3.09-9.209c1.362-7.733,13.762-39.493,37.374-69.741
	l21.642,21.992c-2.569,3.284-24.548,31.446-35.192,56.934c-1.753,4.199-2.408,8.759-2.055,13.299
	c0.487,6.26-0.219,15.952-8.449,19.369C235.973,337.536,221.917,321.238,233.686,299.027z"/>
<path style="fill:#DBBC3B;" d="M236.977,328.973c9.079-3.769,9.858-14.462,9.32-21.368c-0.39-5.008,0.333-10.039,2.266-14.671
	c10.564-25.295,31.239-52.967,37.347-60.906l9.881,10.041c-2.569,3.284-24.548,31.446-35.192,56.934
	c-1.753,4.199-2.408,8.759-2.055,13.299c0.487,6.26-0.219,15.952-8.449,19.369c-5.413,2.247-10.809,1.23-14.753-2.116
	C235.888,329.388,236.432,329.198,236.977,328.973z"/>
<path style="fill:#CC9D72;" d="M361.91,0.052c-42.273,1.412-76.021,34.71-76.021,75.511c0,7.336-0.007,15.932-0.016,21.695
	l157.679-0.254c0.003-10.033,0.004-20.397,0.005-21.441C443.557,32.606,406.305-1.51,361.91,0.052z"/>
<path style="fill:#C19067;" d="M334.411,75.563c0-33.603,22.899-62.097,54.589-71.901c-8.515-2.643-17.637-3.942-27.09-3.61
	c-42.273,1.412-76.021,34.71-76.021,75.511c0,7.336-0.007,15.932-0.016,21.695l48.522-0.078
	C334.404,91.417,334.411,82.867,334.411,75.563z"/>
<g>
	<path style="fill:#E8C842;" d="M445.751,98.554c0,9.284-9.469,16.808-19.497,16.808V81.747
		C436.282,81.747,445.751,89.271,445.751,98.554z"/>
	<path style="fill:#E8C842;" d="M283.649,98.554c0,9.284,9.465,16.808,19.49,16.808V81.747
		C293.114,81.747,283.649,89.271,283.649,98.554z"/>
</g>
<g>
	<path style="fill:#DBBC3B;" d="M426.254,101.999v13.363c10.029,0,19.497-7.525,19.497-16.808c0-2.376-0.627-4.632-1.718-6.681
		C440.861,97.829,433.715,101.999,426.254,101.999z"/>
	<path style="fill:#DBBC3B;" d="M285.367,91.873c-1.09,2.049-1.717,4.305-1.717,6.681c0,9.284,9.465,16.808,19.49,16.808v-13.363
		C295.68,101.999,288.537,97.829,285.367,91.873z"/>
</g>
<path style="fill:#F4A32C;" d="M459.899,211.106l-32.007-22.742c-11.453-8.138-20.327-6.655-45.107-12.296h-36.142l-33.599,6.558
	c-8.785,2.069-11.022,6.048-43.545,28.481c-1.729,1.738-1.726,4.558-0.006,6.305l26.112,26.532c2.192,2.227,5.782,2.197,7.936-0.067
	l1.028-1.08c1.142-1.199,3.159-0.39,3.159,1.273v66.38c0,3.237,2.612,5.862,5.833,5.862c27.811,0,86.041,0,102.27,0
	c3.221,0,5.833-2.624,5.833-5.862v-66.38c0-1.662,2.017-2.474,3.16-1.273l1.028,1.08c2.154,2.264,5.744,2.294,7.936,0.067
	l26.113-26.532C461.625,215.663,461.629,212.844,459.899,211.106z"/>
<path style="fill:#ED9015;" d="M333.774,310.449v-39.467c0-12.883-8.809-24.096-21.327-27.144l-5.66-1.379l-0.002,0.017
	c1.829,1.018,0.532-1.169,0.947,67.973c0,3.237,2.612,5.862,5.833,5.862c7.1,0,16.184,0,26.043,0
	C336.386,316.311,333.774,313.686,333.774,310.449z"/>
<path style="fill:#E8C842;" d="M346.644,163.247v24.22c0,9.98,8.09,18.071,18.071,18.071c9.98,0,18.071-8.091,18.071-18.071v-24.229
	C371.031,166.68,358.364,166.672,346.644,163.247z"/>
<path style="fill:#DBBC3B;" d="M364.472,187.468v-21.653c-6.024-0.021-12.042-0.876-17.829-2.567v24.22
	c0,9.98,8.09,18.071,18.071,18.071c3.244,0,6.282-0.867,8.914-2.364C368.165,200.066,364.472,194.203,364.472,187.468z"/>
<path style="fill:#F4D44E;" d="M426.535,81.709l-1.105-1.33c-8.553-10.288-6.087-20.907-6.495-24.33
	c0-3.637-2.383-4.584-5.895-3.583c-0.006,0.002-0.012,0.003-0.019,0.005c-28.189,9.25-48.585-0.347-48.585-0.347l2.592,3.574
	c2.086,2.877,1.122,7.553-4.845,7.924c-0.361-0.058-0.167,0.049-2.32-0.078l0,0c-5.263-0.313-19.155-2.044-34.024-11.338
	l-0.001,0.006c-8.128-4.944-12.102-2.209-13.938,0.537c-0.968,1.447-1.436,3.171-1.436,4.913v4.748
	c0,11.592-7.301,18.799-7.599,19.298c-0.008,7.479-0.03,28.294-0.031,29.914c0,32.911,27.69,59.048,61.188,59.341
	c34,0.41,62.543-25.89,62.543-59.341C426.559,81.989,426.569,83.986,426.535,81.709z"/>
<path style="fill:#E8C842;" d="M328.896,111.624c0-1.29,0.015-14.73,0.024-23.937c0.004-3.533,1.083-6.956,2.992-9.928
	c2.129-3.316,4.614-8.587,4.614-15.348v-4.624c0-0.001,0-0.003,0-0.004c-3.427-1.463-7.026-3.288-10.685-5.576l-0.001,0.006
	c-8.128-4.944-12.102-2.209-13.938,0.537c-0.968,1.447-1.436,3.171-1.436,4.913v4.748c0,11.592-7.301,18.799-7.599,19.298
	c-0.008,7.479-0.03,28.294-0.031,29.914c0,32.911,27.69,59.048,61.188,59.341c4.683,0.056,9.256-0.411,13.672-1.317
	C350.024,163.948,328.896,140.372,328.896,111.624z"/>
<g>
	<circle style="fill:#656566;" cx="389.14" cy="94.435" r="9.239"/>
	<circle style="fill:#656566;" cx="340.285" cy="94.435" r="9.239"/>
	<path style="fill:#656566;" d="M345.284,128.972c8.04,15.472,30.005,15.876,38.723,1.04c1.025-1.744-0.227-3.943-2.25-3.943
		h-34.708C345.558,126.07,344.596,127.65,345.284,128.972z"/>
</g>
<g>
</g>
<g>
</g>
<g>
</g>
<g>
</g>
<g>
</g>
<g>
</g>
<g>
</g>
<g>
</g>
<g>
</g>
<g>
</g>
<g>
</g>
<g>
</g>
<g>
</g>
<g>
</g>
<g>
</g>
</svg>
