<?xml version="1.0" encoding="iso-8859-1"?>
<!-- Generator: Adobe Illustrator 19.0.0, SVG Export Plug-In . SVG Version: 6.00 Build 0)  -->
<svg version="1.1" id="Capa_1" xmlns="http://www.w3.org/2000/svg" xmlns:xlink="http://www.w3.org/1999/xlink" x="0px" y="0px"
	 viewBox="0 0 512 512" style="enable-background:new 0 0 512 512;" xml:space="preserve">
<path style="fill:#57ADDD;" d="M240.044,489.423l-6.226-153.504c0,0-0.841-24.535-15.795-31.838
	c-28.993-14.158-64.045-21.605-64.045-21.605v0.003c-0.002-0.001-0.012-0.003-0.012-0.003c-0.42,7.259,1.255,11.932-2.478,17.088
	c-3.574,4.936-10.918,13.974-21.42,21.428c-2.183,1.55-3.7,2.342-6.256,2.388c-2.913,0.042-3.353-0.765-5.639-2.388
	c-10.503-7.453-17.847-16.491-21.42-21.428c-3.733-5.156-2.058-9.822-2.478-17.088c0,0-0.01,0.002-0.012,0.003v-0.003
	c0,0-36.082,7.448-65.075,21.605c-14.954,7.302-15.795,31.838-15.795,31.838L7.168,489.423c-0.499,12.31,9.412,22.561,21.813,22.561
	c25.316,0,172.383,0,189.249,0C230.632,511.984,240.543,501.733,240.044,489.423z"/>
<path style="fill:#42A2CC;" d="M32.922,489.423l6.226-164.835c0,0,0.73-21.057,12.734-29.959
	c-7.552,2.713-15.349,5.867-22.693,9.453c-14.954,7.302-15.795,31.838-15.795,31.838L7.168,489.423
	c-0.499,12.31,9.412,22.561,21.813,22.561c4.791,0,13.949,0,25.755,0C42.334,511.984,32.423,501.733,32.922,489.423z"/>
<path style="fill:#E8C842;" d="M93.188,266.91c0.669,23.146-1.644,26.955,2.506,32.715c3.566,4.949,10.846,13.945,21.237,21.368
	c4.443,3.174,10.451,3.174,14.894,0c10.394-7.424,17.673-16.421,21.239-21.37c4.156-5.769,1.845-9.95,2.504-32.728
	C135.591,274.001,113.177,274.009,93.188,266.91z"/>
<path style="fill:#DBBC3B;" d="M121.449,299.626c-3.819-5.302-2.164-8.964-2.399-27.563c-8.807-0.494-17.544-2.198-25.861-5.152
	c0.669,23.146-1.644,26.955,2.506,32.715c3.566,4.949,10.846,13.945,21.237,21.368c4.443,3.174,10.451,3.174,14.894,0
	c1.918-1.37,3.728-2.794,5.43-4.236C129.736,310.388,124.356,303.661,121.449,299.626z"/>
<path style="fill:#F96989;" d="M510.68,489.423l-6.225-153.504c0,0-0.841-24.535-15.795-31.838
	c-28.993-14.158-64.045-21.605-64.045-21.605v0.003c-0.002-0.001-0.012-0.003-0.012-0.003c-0.42,7.259,1.255,11.932-2.478,17.088
	c-3.574,4.936-10.918,13.974-21.42,21.428c-2.183,1.55-3.7,2.342-6.256,2.388c-2.913,0.042-3.353-0.765-5.639-2.388
	c-10.503-7.453-17.847-16.491-21.42-21.428c-3.733-5.156-2.058-9.822-2.478-17.088c0,0-0.01,0.002-0.012,0.003v-0.003
	c0,0-36.082,7.448-65.075,21.605c-14.954,7.302-15.795,31.838-15.795,31.838l-6.226,153.504
	c-0.499,12.31,9.412,22.561,21.813,22.561c25.316,0,172.383,0,189.249,0C501.268,511.984,511.179,501.733,510.68,489.423z"/>
<path style="fill:#ED5A81;" d="M304.587,489.423l6.226-166.896c0,0,0.596-17.262,9.614-27.136
	c-6.893,2.538-13.935,5.434-20.604,8.69c-14.954,7.302-15.795,31.838-15.795,31.838l-6.226,153.504
	c-0.499,12.31,9.412,22.561,21.813,22.561c4.928,0,14.485,0,26.785,0C313.999,511.984,304.089,501.733,304.587,489.423z"/>
<path style="fill:#E8C842;" d="M363.825,266.91c0.669,23.146-1.644,26.955,2.506,32.715c3.566,4.949,10.846,13.945,21.237,21.368
	c4.443,3.174,10.451,3.174,14.894,0c10.394-7.424,17.673-16.421,21.239-21.37c4.156-5.769,1.845-9.95,2.504-32.728
	C406.226,274.001,383.813,274.009,363.825,266.91z"/>
<path style="fill:#DBBC3B;" d="M392.084,299.626c-3.819-5.302-2.164-8.964-2.399-27.563c-8.807-0.494-17.544-2.198-25.861-5.152
	c0.669,23.146-1.644,26.955,2.506,32.715c3.566,4.949,10.846,13.945,21.237,21.368c4.443,3.174,10.451,3.174,14.894,0
	c1.918-1.37,3.728-2.794,5.43-4.236C400.371,310.388,394.992,303.661,392.084,299.626z"/>
<path style="fill:#CC9D72;" d="M253.204,247.01c-42.133,1.407-75.769,34.595-75.769,75.261c0,7.312-0.007,20.027-0.016,25.772
	l157.157-0.253c0.002-10,0.004-24.477,0.004-25.517C334.581,279.457,297.452,245.454,253.204,247.01z"/>
<path style="fill:#C19067;" d="M223.832,322.272c0-35.811,21.238-65.811,49.732-73.427c-6.529-1.43-13.354-2.081-20.36-1.834
	c-42.133,1.407-75.769,34.595-75.769,75.261c0,7.312-0.007,20.027-0.016,25.772l46.4-0.075
	C223.826,342.19,223.832,329.554,223.832,322.272z"/>
<path style="fill:#F4D44E;" d="M320.382,332.054l-1.151-1.385c-8.833-10.625-6.333-21.722-6.764-25.338
	c0-3.788-2.482-4.774-6.139-3.732c-0.007,0.002-0.013,0.003-0.02,0.005c-29.357,9.633-50.598-0.362-50.598-0.362l2.699,3.722
	c2.173,2.996,1.169,7.866-5.047,8.254c-0.376-0.06-0.174,0.051-2.416-0.082l0,0c-5.482-0.326-19.95-2.129-35.435-11.808
	l-0.001,0.006c-8.464-5.149-12.603-2.3-14.516,0.56c-1.008,1.507-1.495,3.303-1.495,5.116c-0.318,2.441,1.82,13.335-6.764,23.66
	l-1.15,1.384c-0.038,2.494-0.032,1.562-0.032,31.225c0,33.872,28.514,61.672,64.43,61.733c35.392-0.06,64.43-27.339,64.43-61.802
	C320.408,334.065,320.423,334.744,320.382,332.054z"/>
<path style="fill:#E8C842;" d="M217.013,363.279c0-22.026-0.003-27.182,0.011-29.4c0.007-1.174,0.421-2.306,1.171-3.208l0,0
	c9.171-11.03,6.105-22.712,6.868-24.039c-0.027-0.102-0.033-0.126-0.06-0.228c-3.073-1.393-6.255-3.054-9.488-5.075l-0.001,0.006
	c-8.464-5.149-12.603-2.3-14.516,0.56c-1.008,1.507-1.495,3.303-1.495,5.116c-0.318,2.441,1.82,13.335-6.764,23.66l-1.15,1.383
	c-0.038,2.494-0.032,1.562-0.032,31.225c0,33.872,28.514,61.672,64.43,61.733c4.349-0.007,8.6-0.43,12.715-1.222
	C239.011,418.088,217.013,393.03,217.013,363.279z"/>
<path style="fill:#CC9D72;" d="M510.89,126.079c-4.377-30.789-21.846-57.553-46.486-74.924
	c-77.006-54.485-186.345-1.573-186.345,90.229c0,36.404-0.103,77.801,12.368,116.542c2.546,7.908,10.564,12.711,18.728,11.172
	c11.747-2.175,18.161-2.966,30.335-4.322c8.09-0.833,105.289-0.554,106.944-0.4c2.579,0.241,4.134,0.403,4.1,0.4
	c10.281,1.079,19.915,2.364,30.294,4.315c8.416,1.559,16.274-3.409,18.77-11.164c8.602-26.722,12.397-63.259,12.363-91.045
	C511.964,165.514,512.306,136.03,510.89,126.079z"/>
<path style="fill:#C19067;" d="M346.097,257.07c-12.472-41.634-16.489-86.121-16.489-125.243c0-45.197,22.954-81.608,55.229-102.183
	c-56.427,5.074-106.777,49.445-106.777,111.739c0,36.404-0.103,77.8,12.368,116.542c2.546,7.908,10.564,12.711,18.728,11.172
	c11.747-2.175,18.161-2.966,30.335-4.322c1.372-0.141,5.313-0.25,10.911-0.334C348.477,262.458,346.964,259.965,346.097,257.07z"/>
<path style="fill:#F4D44E;" d="M484.759,153.629c-0.001-5.7-3.849-10.663-9.356-12.136c-68.491-18.32-104.145-60.306-103.984-60.178
	c-0.703-0.758-1.938-0.619-2.445,0.283c-4.527,8.051-24.436,39.508-62.1,45.427c-2.373,1.028-1.655-2.456-1.655,64.339
	c0,47.743,40.752,86.623,90.755,86.011c48.521-0.425,88.788-38.262,88.788-86.109C484.764,189.667,484.761,169.723,484.759,153.629z
	"/>
<path style="fill:#E8C842;" d="M399.363,277.278c0.674-0.03,1.347-0.067,2.017-0.112c0.228-0.015,0.457-0.03,0.685-0.047
	c0.805-0.06,1.607-0.128,2.407-0.208c0.065-0.006,0.13-0.012,0.195-0.018c0.935-0.096,1.866-0.204,2.792-0.328l0,0
	c-43.622-5.801-77.228-41.844-77.228-85.2c0-32.461-0.168-56.087-0.071-71.94l0,0c-0.817,0.417-1.648,0.823-2.491,1.216
	c-0.073,0.034-0.147,0.069-0.22,0.103c-0.784,0.364-1.578,0.716-2.384,1.058c-0.155,0.066-0.313,0.131-0.469,0.196
	c-0.742,0.31-1.492,0.611-2.253,0.901c-0.246,0.094-0.496,0.184-0.744,0.276c-0.694,0.256-1.393,0.508-2.102,0.747
	c-0.344,0.116-0.694,0.224-1.042,0.337c-0.638,0.204-1.276,0.41-1.928,0.6c-0.46,0.134-0.929,0.256-1.395,0.384
	c-0.564,0.153-1.124,0.312-1.697,0.453c-0.621,0.154-1.256,0.291-1.889,0.431c-0.443,0.098-0.88,0.205-1.329,0.296
	c-1.098,0.222-2.211,0.426-3.341,0.603c-2.373,1.028-1.655-2.456-1.655,64.339c0,47.743,40.752,86.623,90.755,86.011
	c0.889-0.008,1.774-0.032,2.658-0.065C398.877,277.301,399.119,277.288,399.363,277.278z"/>
<path style="fill:#CC9D72;" d="M118.632,0.09C57.376,2.136,8.473,50.386,8.473,109.51c0,10.631-0.01,29.402-0.023,37.753
	l228.486-0.37c0.003-14.539,0.006-35.872,0.006-37.384C236.942,47.263,182.961-2.172,118.632,0.09z"/>
<path style="fill:#C19067;" d="M62.552,109.51c0-55.238,33.128-100.979,76.249-108.423C132.23,0.2,125.49-0.152,118.632,0.09
	C57.376,2.136,8.473,50.386,8.473,109.51c0,10.631-0.01,29.402-0.023,37.753l54.084-0.087
	C62.544,138.783,62.552,120.106,62.552,109.51z"/>
<circle style="fill:#656566;" cx="436.937" cy="180.682" r="11.54"/>
<path style="fill:#545456;" d="M436.933,180.681c-2.134-3.697-1.981-8.079,0.005-11.531c-1.963-0.003-3.952,0.485-5.775,1.537
	c-5.519,3.187-7.411,10.244-4.224,15.764c3.187,5.519,10.244,7.411,15.764,4.224c1.822-1.052,3.24-2.532,4.219-4.233
	C442.939,186.436,439.067,184.378,436.933,180.681z"/>
<g>
	<path style="fill:#656566;" d="M449.607,162.73c-7.33-6.136-18.028-6.129-25.349,0c-3.272,2.737-8.144,2.303-10.884-0.967
		c-2.739-3.272-2.305-8.144,0.966-10.885c13.051-10.921,32.106-10.944,45.185,0c3.272,2.739,3.705,7.611,0.966,10.885
		C457.749,165.04,452.876,165.465,449.607,162.73z"/>
	<path style="fill:#656566;" d="M365.727,162.73c-7.33-6.136-18.028-6.129-25.349,0c-3.273,2.737-8.145,2.303-10.884-0.967
		c-2.739-3.272-2.305-8.144,0.966-10.885c13.051-10.921,32.106-10.944,45.185,0c3.272,2.739,3.705,7.611,0.966,10.885
		C373.869,165.04,368.995,165.465,365.727,162.73z"/>
	<path style="fill:#656566;" d="M234.466,380.48c8.91,17.147,33.252,17.595,42.914,1.152c1.136-1.933-0.251-4.369-2.494-4.369
		h-38.465C234.77,377.263,233.704,379.014,234.466,380.48z"/>
</g>
<path style="fill:#9CD7F2;" d="M181.139,443.574c-12.19,5.827-12.522,25.407-12.522,25.407l-1.732,43.003h178.2l-1.732-43.003
	c0,0-0.666-19.579-12.522-25.407c-22.985-11.297-49.956-17.241-49.956-17.241c-0.34,5.743,1.015,9.502-1.999,13.683
	c-2.848,3.953-8.667,11.145-16.975,17.072c-3.552,2.534-8.312,2.516-11.861-0.02c-8.326-5.947-14.148-13.161-16.981-17.099
	c-1.283-1.784-1.965-3.925-1.965-6.124v-7.513C231.094,426.334,204.245,432.529,181.139,443.574z"/>
<path style="fill:#71C5DB;" d="M202.914,434.698c-7.004,2.46-14.572,5.432-21.775,8.876c-12.19,5.827-12.522,25.407-12.522,25.407
	l-1.732,43.003h25.457l1.732-54.335C194.074,457.649,194.343,442.246,202.914,434.698z"/>
<g>
	<path style="fill:#E8C842;" d="M340.394,349.596c0,9.668-9.703,17.505-19.98,17.505v-35.008
		C330.692,332.093,340.394,339.929,340.394,349.596z"/>
	<path style="fill:#E8C842;" d="M171.574,349.596c0,9.668,9.703,17.505,19.98,17.505v-35.008
		C181.277,332.093,171.574,339.929,171.574,349.596z"/>
</g>
<g>
	<path style="fill:#DBBC3B;" d="M320.414,353.185v13.916c10.277,0,19.98-7.836,19.98-17.505c0-2.474-0.642-4.824-1.76-6.958
		C335.384,348.843,328.062,353.185,320.414,353.185z"/>
	<path style="fill:#DBBC3B;" d="M173.335,342.639c-1.118,2.133-1.76,4.483-1.76,6.958c0,9.668,9.702,17.505,19.98,17.505v-13.916
		C183.907,353.185,176.585,348.843,173.335,342.639z"/>
</g>
<path style="fill:#E8C842;" d="M231.094,420.232c0.452,11.546-1.209,15.331,1.999,19.785c2.846,3.949,8.655,11.129,16.948,17.053
	c3.547,2.532,8.34,2.532,11.887,0c8.294-5.924,14.103-13.105,16.949-17.054c1.295-1.797,1.998-3.951,1.998-6.168v-13.616
	C265.037,426.601,246.961,426.614,231.094,420.232z"/>
<path style="fill:#DBBC3B;" d="M258.35,440.017c-2.717-3.771-1.945-7.082-1.918-15.014c-8.627,0.057-17.268-1.526-25.337-4.771
	c0.452,11.546-1.209,15.331,1.999,19.785c2.846,3.949,8.655,11.129,16.948,17.053c3.547,2.532,8.34,2.532,11.887,0
	c2.452-1.751,4.68-3.612,6.685-5.467C263.835,447.184,260.355,442.8,258.35,440.017z"/>
<g>
	<circle style="fill:#656566;" cx="281.443" cy="345.303" r="9.621"/>
	<circle style="fill:#656566;" cx="230.556" cy="345.303" r="9.621"/>
</g>
<g>
	<path style="fill:#E8C842;" d="M245.527,152.476c0,10.961-11,19.845-22.651,19.845v-39.687
		C234.527,132.634,245.527,141.518,245.527,152.476z"/>
	<path style="fill:#E8C842;" d="M0,152.412c0,10.925,10.964,19.779,22.577,19.779v-39.558C10.964,132.634,0,141.488,0,152.412z"/>
</g>
<g>
	<path style="fill:#DBBC3B;" d="M222.877,155.838v16.483c15.236,0,27.9-14.609,20.468-28.085
		C239.57,151.08,231.401,155.838,222.877,155.838z"/>
	<path style="fill:#DBBC3B;" d="M2.19,144.172C0.802,146.68,0,149.47,0,152.412c0,10.925,10.964,19.779,22.577,19.779v-16.483
		C14.092,155.709,5.959,150.979,2.19,144.172z"/>
</g>
<path style="fill:#F4D44E;" d="M222.987,132.58l-1.792-2.162c-14.348-17.259-9.562-35.322-10.653-41.348
	c0,0,2.355-34.6-28.077-27.159c-25.79,6.306-58.776,7.07-59.792,7.092c-1.016-0.022-34.002-0.786-59.792-7.092
	c-16.61-4.062-28.195,3.153-28.195,29.037c0,3.111,0,7.2,0,10.317c0,18.837-11.82,30.457-12.328,31.309
	c-0.041,38.674-0.05-39.03-0.05,48.64c0,52.778,44.426,96.06,100.366,96.164c56.211-0.104,100.366-43.615,100.366-96.273
	C223.027,132.896,223.043,136.247,222.987,132.58z"/>
<path style="fill:#E8C842;" d="M48.341,181.214c0-79.83,0.007-22.541,0.039-40.855c0.008-4.661,1.467-9.192,4.096-13.042
	c3.593-5.26,8.244-14.237,8.244-26.052c0-3.118,0-7.207,0-10.317c0-14.64,3.708-23.303,9.933-27.337
	c-2.635-0.517-5.239-1.081-7.773-1.7c-16.61-4.062-28.195,3.153-28.195,29.037c0,3.111,0,7.2,0,10.317
	c0,18.837-11.82,30.457-12.328,31.309c-0.041,38.674-0.05-39.03-0.05,48.64c0,52.778,44.426,96.06,100.366,96.164
	c4.423-0.008,8.772-0.287,13.03-0.816C86.036,270.385,48.341,229.829,48.341,181.214z"/>
<g>
	<path style="fill:#656566;" d="M184.316,140.234c-8.519-7.129-20.971-7.147-29.51,0c-3.271,2.74-8.144,2.306-10.884-0.966
		c-2.739-3.271-2.306-8.144,0.965-10.884c14.248-11.926,35.063-11.956,49.346,0c3.272,2.738,3.704,7.611,0.965,10.884
		C192.458,142.545,187.583,142.969,184.316,140.234z"/>
	<path style="fill:#656566;" d="M90.536,140.234c-8.519-7.129-20.971-7.147-29.51,0c-3.271,2.74-8.144,2.306-10.884-0.966
		c-2.739-3.271-2.306-8.144,0.965-10.884c14.247-11.926,35.063-11.956,49.346,0c3.272,2.738,3.704,7.611,0.965,10.884
		C98.679,142.545,93.804,142.969,90.536,140.234z"/>
	<path style="fill:#656566;" d="M93.105,221.059c12.243,23.562,45.691,24.177,58.968,1.584c1.561-2.656-0.346-6.004-3.426-6.004
		H95.793C93.524,216.639,92.059,219.045,93.105,221.059z"/>
</g>
<path style="fill:#545456;" d="M114.739,221.059c-1.046-2.014,0.419-4.42,2.688-4.42H95.793c-2.269,0-3.734,2.407-2.688,4.42
	c8.207,15.793,25.934,21.259,40.734,16.356C126.044,234.831,119.065,229.385,114.739,221.059z"/>
<path style="fill:#E8C842;" d="M384.427,193.499v1.28c0,4.968,4.366,9.243,10.042,9.477c6.059,0.249,11.061-3.973,11.061-9.216
	v-1.667c0-1.997-1.852-3.616-4.135-3.616h-12.688C386.343,189.757,384.427,191.432,384.427,193.499z"/>
<path style="fill:#DBBC3B;" d="M394.979,194.779V193.5c0-2.067,1.917-3.743,4.28-3.743h-10.551c-2.363,0-4.28,1.675-4.28,3.743
	v1.279c0,4.968,4.366,9.243,10.042,9.477c2.127,0.087,4.117-0.385,5.813-1.25C397.09,201.346,394.979,198.232,394.979,194.779z"/>
<path style="fill:#E8C842;" d="M110.891,175.613v1.634c0,6.343,4.875,11.801,11.211,12.1c6.765,0.319,12.349-5.073,12.349-11.767
	v-2.129c0-2.55-2.067-4.617-4.617-4.617h-14.166C113.03,170.834,110.891,172.973,110.891,175.613z"/>
<path style="fill:#DBBC3B;" d="M122.671,177.247v-1.634c0-2.639,2.139-4.778,4.779-4.778h-11.781c-2.639,0-4.778,2.139-4.778,4.778
	v1.634c0,6.343,4.875,11.801,11.211,12.1c2.374,0.112,4.597-0.492,6.49-1.597C125.029,185.632,122.671,181.655,122.671,177.247z"/>
<path style="fill:#656566;" d="M369.201,229.342c10.651,20.497,39.748,21.032,51.297,1.378c1.358-2.31-0.301-5.223-2.981-5.223
	h-45.978C369.564,225.496,368.29,227.59,369.201,229.342z"/>
<path style="fill:#545456;" d="M388.02,229.342c-0.911-1.751,0.364-3.845,2.338-3.845h-18.82c-1.974,0-3.248,2.094-2.338,3.845
	c7.139,13.738,22.561,18.494,35.435,14.228C397.854,241.322,391.783,236.584,388.02,229.342z"/>
<circle style="fill:#656566;" cx="353.048" cy="180.682" r="11.54"/>
<path style="fill:#545456;" d="M353.052,180.681c-2.134-3.697-1.981-8.079,0.005-11.531c-1.963-0.003-3.952,0.485-5.775,1.537
	c-5.519,3.187-7.411,10.244-4.224,15.764c3.187,5.519,10.244,7.411,15.764,4.224c1.822-1.052,3.24-2.532,4.219-4.233
	C359.059,186.436,355.187,184.378,353.052,180.681z"/>
<circle style="fill:#656566;" cx="169.561" cy="157.929" r="12.9"/>
<path style="fill:#545456;" d="M169.561,157.932c-2.386-4.133-2.214-9.031,0.006-12.889c-2.194-0.003-4.418,0.542-6.456,1.718
	c-6.17,3.562-8.284,11.452-4.722,17.621c3.562,6.17,11.452,8.284,17.621,4.722c2.037-1.176,3.622-2.829,4.716-4.732
	C176.276,164.366,171.947,162.064,169.561,157.932z"/>
<circle style="fill:#656566;" cx="75.783" cy="157.929" r="12.9"/>
<path style="fill:#545456;" d="M75.781,157.932c-2.386-4.133-2.214-9.031,0.006-12.889c-2.194-0.003-4.418,0.542-6.456,1.718
	c-6.17,3.562-8.284,11.452-4.722,17.621c3.562,6.17,11.452,8.284,17.621,4.722c2.037-1.176,3.622-2.829,4.716-4.732
	C82.496,164.366,78.168,162.064,75.781,157.932z"/>
<g>
</g>
<g>
</g>
<g>
</g>
<g>
</g>
<g>
</g>
<g>
</g>
<g>
</g>
<g>
</g>
<g>
</g>
<g>
</g>
<g>
</g>
<g>
</g>
<g>
</g>
<g>
</g>
<g>
</g>
</svg>
