<?xml version="1.0" encoding="iso-8859-1"?>
<!-- Generator: Adobe Illustrator 19.0.0, SVG Export Plug-In . SVG Version: 6.00 Build 0)  -->
<svg version="1.1" id="Capa_1" xmlns="http://www.w3.org/2000/svg" xmlns:xlink="http://www.w3.org/1999/xlink" x="0px" y="0px"
	 viewBox="0 0 512.001 512.001" style="enable-background:new 0 0 512.001 512.001;" xml:space="preserve">
<path style="fill:#F4D44E;" d="M343.816,15.819c-0.023,0.003-0.046,0.005-0.069,0.008C252.557-18.133,150.44,3.677,81.37,70.513
	c-126.918,122.725-90.561,335.44,70.091,409.01c58.657,26.779,127.496,31.038,192.286,6.91c0.023,0.003,0.046,0.005,0.069,0.008
	c54.173-20.296,100.037-58.388,129.671-109.716C550.851,242.731,489.966,70.574,343.816,15.819z"/>
<path style="fill:#E8C842;" d="M393.741,461.108c-2.172-0.108-5.051-0.534-8.872,0.825c-66.93,23.791-143.463,19.231-209.801-19.069
	C16.633,351.39,7.13,127.772,153.159,21.988C36.367,74.381-22.389,206.277,16.961,328.297
	C61.126,465.318,210.547,536.036,343.74,486.435c0.003-0.001,0.005-0.002,0.008-0.003c0.061,0.006,0.049,0.005,0.069,0.008
	C362.105,479.588,378.468,471.11,393.741,461.108z"/>
<g>
	<path style="fill:#656566;" d="M343.748,216.513l-16.086-10.784c-2.953-1.979-2.954-3.632,0-5.612l16.085-10.783
		c3.551-2.38,4.499-7.186,2.119-10.736c-2.381-3.55-7.188-4.5-10.735-2.118l-16.085,10.783
		c-12.156,8.149-12.139,23.185-0.001,31.321c15.723,10.059,16.371,12.096,20.388,12.096c2.494,0,4.941-1.203,6.435-3.43
		C348.246,223.699,347.297,218.893,343.748,216.513z"/>
	<path style="fill:#656566;" d="M195.373,187.108l-16.085-10.784c-3.55-2.381-8.355-1.431-10.736,2.118
		c-2.38,3.55-1.432,8.356,2.118,10.736c24.422,17.049,24.423,10.129,0.001,27.179c-6.335,4.245-3.314,14.166,4.315,14.166
		c4.029,0,4.978-2.236,20.387-12.095c5.79-3.882,9.111-9.59,9.111-15.662C204.483,196.697,201.162,190.989,195.373,187.108z"/>
</g>
<path style="fill:#FC8B75;" d="M303.587,350.66c-32.155-1.492-38.224,13.686-56.981,6.08c-17.312-7.02-37.262-8.323-56.228-2.535
	v90.237c0,37.299,30.236,67.536,67.536,67.536s67.536-30.237,67.536-67.536v-89.797C318.507,352.392,311.179,351.013,303.587,350.66
	z"/>
<path style="fill:#EA7363;" d="M216.165,442.198v-91.614c-8.801-0.134-17.35,1.047-25.786,3.622v90.237
	c0,42.859,39.412,74.883,81.424,66.1C240.044,504.004,216.165,475.891,216.165,442.198z"/>
<path style="fill:#656566;" d="M376.773,301.915H133.261c-10.455,0-17.205,11.088-12.383,20.366
	c14.869,28.616,38.556,52.702,69.5,67.781v-35.856c17.873-5.456,37.851-4.917,56.228,2.535c18.818,7.63,24.669-7.58,56.981-6.08
	c7.592,0.353,14.919,1.732,21.862,3.985v36.329c28.149-13.388,51.423-34.699,67.112-61.398
	C399.752,317.339,390.968,301.915,376.773,301.915z"/>
<path style="fill:#4F4F51;" d="M146.671,322.28c-4.821-9.278,1.928-20.366,12.383-20.366h-25.793
	c-10.455,0-17.205,11.089-12.383,20.366c14.869,28.615,38.556,52.702,69.5,67.781v-15.871
	C172.505,360.632,157.52,343.16,146.671,322.28z"/>
<g>
	<path style="fill:#ED694A;" d="M203.268,351.364c0.386-0.053,0.774-0.099,1.161-0.147
		C204.042,351.265,203.654,351.31,203.268,351.364z"/>
	<path style="fill:#ED694A;" d="M198.908,352.094c0.64-0.124,1.283-0.244,1.928-0.354
		C200.189,351.848,199.548,351.97,198.908,352.094z"/>
	<path style="fill:#ED694A;" d="M195.688,352.778c0.61-0.143,1.223-0.281,1.84-0.411
		C196.911,352.497,196.299,352.635,195.688,352.778z"/>
	<path style="fill:#ED694A;" d="M206.593,350.977c0.343-0.034,0.685-0.068,1.03-0.097
		C207.278,350.908,206.936,350.942,206.593,350.977z"/>
	<path style="fill:#ED694A;" d="M190.378,354.205c1.458-0.445,2.935-0.846,4.425-1.212c-12.95,3.179-24.748,9.354-34.618,17.746
		c9.346,7.64,19.496,14.088,30.192,19.301v-35.834H190.378z"/>
</g>
<path style="fill:#D8553A;" d="M160.192,370.733c8.914,7.286,19.045,13.876,30.186,19.307v-15.849
	c-5.431-4.119-10.617-8.621-15.516-13.49C169.62,363.534,164.703,366.899,160.192,370.733z"/>
<g>
	<path style="fill:#ED694A;" d="M308.023,350.997c-0.367-0.037-0.732-0.076-1.1-0.107
		C307.291,350.921,307.656,350.96,308.023,350.997z"/>
	<path style="fill:#ED694A;" d="M322.641,353.791c-0.678-0.193-1.362-0.378-2.046-0.554
		C321.279,353.413,321.961,353.597,322.641,353.791z"/>
	<path style="fill:#ED694A;" d="M319.507,352.964c-0.627-0.153-1.254-0.307-1.887-0.445
		C318.252,352.659,318.879,352.811,319.507,352.964z"/>
	<path style="fill:#ED694A;" d="M315.752,352.14c-0.716-0.14-1.435-0.272-2.157-0.394
		C314.317,351.868,315.037,351.999,315.752,352.14z"/>
	<path style="fill:#ED694A;" d="M311.515,351.416c-0.426-0.061-0.853-0.115-1.281-0.169
		C310.662,351.302,311.089,351.355,311.515,351.416z"/>
	<path style="fill:#ED694A;" d="M323.284,353.981c0.725,0.213,1.449,0.431,2.165,0.663v36.328
		c10.402-4.948,20.422-11.077,30.277-18.939C346.485,363.803,335.443,357.56,323.284,353.981z"/>
</g>
<path style="fill:#F99D91;" d="M264.947,436.283v-78.56c-5.062,1.446-10.413,1.446-15.476-0.001v78.561
	c0,4.273,3.464,7.738,7.738,7.738C261.483,444.021,264.947,440.557,264.947,436.283z"/>
<g>
</g>
<g>
</g>
<g>
</g>
<g>
</g>
<g>
</g>
<g>
</g>
<g>
</g>
<g>
</g>
<g>
</g>
<g>
</g>
<g>
</g>
<g>
</g>
<g>
</g>
<g>
</g>
<g>
</g>
</svg>
