<?xml version="1.0" encoding="iso-8859-1"?>
<!-- Generator: Adobe Illustrator 19.0.0, SVG Export Plug-In . SVG Version: 6.00 Build 0)  -->
<svg version="1.1" id="Capa_1" xmlns="http://www.w3.org/2000/svg" xmlns:xlink="http://www.w3.org/1999/xlink" x="0px" y="0px"
	 viewBox="0 0 512 512" style="enable-background:new 0 0 512 512;" xml:space="preserve">
<path style="fill:#E8C842;" d="M495.458,299.027c-1.524-2.877-2.525-5.999-3.09-9.209c-1.362-7.733-13.762-39.493-37.374-69.741
	l-21.642,21.992c2.569,3.284,24.548,31.446,35.192,56.934c1.753,4.199,2.408,8.759,2.055,13.299
	c-0.487,6.26,0.219,15.952,8.45,19.369C493.17,337.536,507.227,321.238,495.458,299.027z"/>
<path style="fill:#DBBC3B;" d="M492.167,328.973c-9.079-3.769-9.858-14.462-9.32-21.368c0.39-5.008-0.333-10.039-2.266-14.671
	c-10.564-25.295-31.239-52.967-37.347-60.906l-9.881,10.041c2.569,3.284,24.548,31.446,35.192,56.934
	c1.753,4.199,2.408,8.759,2.055,13.299c-0.487,6.26,0.219,15.952,8.45,19.369c5.413,2.247,10.809,1.23,14.753-2.116
	C493.256,329.388,492.712,329.199,492.167,328.973z"/>
<path style="fill:#E8C842;" d="M16.456,298.698c1.495-2.877,2.476-5.999,3.03-9.209c1.335-7.733,13.491-39.493,36.641-69.741
	l21.217,21.992c-2.519,3.284-24.066,31.446-34.5,56.934c-1.718,4.199-2.361,8.759-2.014,13.299
	c0.478,6.26-0.214,15.952-8.283,19.369C18.699,337.206,4.918,320.908,16.456,298.698z"/>
<path style="fill:#DBBC3B;" d="M19.683,328.643c8.9-3.769,9.665-14.462,9.138-21.368c-0.382-5.008,0.326-10.039,2.222-14.671
	c10.356-25.295,30.626-52.967,36.614-60.906l9.687,10.041c-2.519,3.284-24.066,31.446-34.5,56.934
	c-1.718,4.199-2.361,8.759-2.014,13.299c0.478,6.26-0.214,15.952-8.283,19.369c-5.306,2.247-10.598,1.23-14.463-2.116
	C18.616,329.058,19.149,328.87,19.683,328.643z"/>
<path style="fill:#E8C842;" d="M273.311,298.698c-1.495-2.877-2.476-5.999-3.03-9.209c-1.335-7.733-13.491-39.493-36.641-69.741
	l-21.217,21.992c2.519,3.284,24.066,31.446,34.5,56.934c1.718,4.199,2.361,8.759,2.014,13.299
	c-0.478,6.26,0.214,15.952,8.283,19.369C271.069,337.206,284.85,320.908,273.311,298.698z"/>
<path style="fill:#DBBC3B;" d="M270.085,328.643c-8.9-3.769-9.665-14.462-9.138-21.368c0.382-5.008-0.326-10.039-2.222-14.671
	c-10.356-25.295-30.626-52.967-36.614-60.906l-9.687,10.041c2.519,3.284,24.066,31.446,34.5,56.934
	c1.718,4.199,2.361,8.759,2.014,13.299c-0.478,6.26,0.214,15.952,8.283,19.369c5.306,2.247,10.598,1.23,14.463-2.116
	C271.152,329.058,270.619,328.87,270.085,328.643z"/>
<path style="fill:#ED694A;" d="M238.369,210.773l-32.237-21.322c-8.5-5.622-13.848-4.665-41.604-11.02h-38.932
	c-27.863,6.379-33.109,5.401-41.603,11.02l-32.238,21.322c-1.694,1.738-1.691,4.558-0.006,6.305l25.594,26.528
	c1.343,1.392,3.22,1.902,4.956,1.536c2.295-0.484,3.18-2.109,3.83-2.683c1.118-1.199,3.096-0.391,3.096,1.273v44.038h111.674
	v-44.038c0-1.003,0.735-1.741,1.625-1.837c1.935-0.206,2.446,3.326,6.354,3.361c4.115,0.036,3.374-1.957,29.497-28.178
	C240.061,215.331,240.064,212.511,238.369,210.773z"/>
<path style="fill:#DB4E33;" d="M114.981,287.77H89.225v-44.872h11.243c8.016,0,14.513,6.498,14.513,14.513
	C114.981,257.412,114.981,287.77,114.981,287.77z"/>
<path style="fill:#CC9D72;" d="M203.831,134.273l17.847,11.187c4.8,3.009,6.786,9.099,4.331,13.278l0,0
	c-2.707,4.608-6.612,8.273-11.382,10.683c-4.327,2.186-10.279-0.181-12.977-5.163l-5.993-11.06
	C199.46,147.495,202.263,141.113,203.831,134.273z"/>
<path style="fill:#C19067;" d="M215.307,156.966c2.811,2.717,4.006,6.593,3.403,9.911c-1.278,0.954-2.635,1.814-4.082,2.544
	c-4.327,2.186-10.278-0.181-12.977-5.163l-5.993-11.06c2.104-3.156,3.89-6.527,5.342-10.062L215.307,156.966z"/>
<path style="fill:#CC9D72;" d="M85.935,134.273L68.088,145.46c-4.8,3.009-6.786,9.099-4.331,13.278l0,0
	c2.707,4.608,6.612,8.273,11.382,10.683c4.327,2.186,10.279-0.181,12.977-5.163l5.993-11.06
	C90.308,147.495,87.503,141.113,85.935,134.273z"/>
<path style="fill:#C19067;" d="M74.461,156.966c-2.811,2.717-4.006,6.593-3.403,9.911c1.278,0.954,2.635,1.814,4.082,2.544
	c4.327,2.186,10.278-0.181,12.977-5.163l5.993-11.06c-2.104-3.156-3.89-6.527-5.342-10.062L74.461,156.966z"/>
<path style="fill:#CC9D72;" d="M142.356,10.793c-41.002,1.37-73.735,33.666-73.735,73.241c0,7.116-0.007,18.513-0.016,24.103
	l152.938-0.247c0.002-9.731,0.004-22.844,0.004-23.857C221.548,42.369,185.415,9.28,142.356,10.793z"/>
<path style="fill:#C19067;" d="M109.224,84.035c0-33.73,23.785-62.157,56.197-70.671c-7.326-1.936-15.074-2.851-23.064-2.57
	c-41.002,1.37-73.735,33.666-73.735,73.241c0,7.116-0.007,18.513-0.016,24.103l40.603-0.065
	C109.218,102.46,109.224,91.124,109.224,84.035z"/>
<path style="fill:#E8C842;" d="M92.721,375.942l-3.366,118.54c11.368-15.297,33.529-13.319,42.675,2.621h0.011l3.972-116.304
	C120.359,380.333,105.68,378.626,92.721,375.942z"/>
<path style="fill:#DBBC3B;" d="M114.042,379.272c-7.494-0.829-14.64-1.947-21.321-3.332l-3.366,118.54
	c5.577-7.504,13.75-10.841,21.71-10.421L114.042,379.272z"/>
<path style="fill:#E8C842;" d="M154.109,380.779l3.973,116.324h0.011c9.152-15.951,31.314-17.909,42.675-2.621l-3.371-118.692
	C184.462,378.519,169.784,380.273,154.109,380.779z"/>
<path style="fill:#DBBC3B;" d="M174.863,379.32c-6.668,0.725-13.601,1.228-20.755,1.459l3.973,116.324h0.011
	c4.546-7.922,12.301-12.389,20.349-13.008L174.863,379.32z"/>
<g>
	<path style="fill:#E8C842;" d="M225.379,108.451c0,9.151-9.26,16.566-19.067,16.566V91.886
		C216.12,91.886,225.379,99.302,225.379,108.451z"/>
	<path style="fill:#E8C842;" d="M64.744,108.451c0,9.151,9.309,16.566,19.168,16.566V91.886
		C74.053,91.886,64.744,99.302,64.744,108.451z"/>
</g>
<g>
	<path style="fill:#DBBC3B;" d="M206.312,110.996v14.021c9.808,0,19.067-7.416,19.067-16.567c0-2.509-0.715-4.88-1.929-7.011
		C220.24,107.081,213.43,110.996,206.312,110.996z"/>
	<path style="fill:#DBBC3B;" d="M66.682,101.441c-1.219,2.131-1.939,4.501-1.939,7.011c0,9.151,9.309,16.566,19.168,16.566v-14.021
		C76.757,110.996,69.911,107.081,66.682,101.441z"/>
</g>
<path style="fill:#E8C842;" d="M127.384,173.933v16.502c0,9.763,7.914,17.678,17.678,17.678c9.763,0,17.678-7.914,17.678-17.678
	v-16.502C151.24,177.244,138.892,177.246,127.384,173.933z"/>
<path style="fill:#DBBC3B;" d="M145.062,190.435v-14.018c-5.962,0-11.924-0.828-17.678-2.484v16.502
	c0,9.763,7.914,17.678,17.678,17.678c3.223,0,6.236-0.877,8.838-2.384C148.622,202.671,145.062,196.975,145.062,190.435z"/>
<path style="fill:#656566;" d="M109.014,478.92c-14.08,0.396-25.122,12.599-25.122,27.035v1.924c0,2.047,1.619,3.707,3.617,3.707
	h43.711c2.413,0,4.369-2.005,4.369-4.477v-1.704C135.589,490.523,123.622,478.509,109.014,478.92z"/>
<path style="fill:#545456;" d="M104.326,507.878v-1.924c0-10.995,6.41-20.689,15.685-24.863c-3.357-1.492-7.08-2.281-10.996-2.172
	c-14.08,0.396-25.122,12.599-25.122,27.035v1.924c0,2.047,1.619,3.707,3.617,3.707h20.433
	C105.945,511.586,104.326,509.925,104.326,507.878z"/>
<rect x="89.225" y="259.788" style="fill:#DB4E33;" width="111.678" height="27.987"/>
<rect x="89.225" y="259.788" style="fill:#CC402E;" width="25.756" height="27.987"/>
<path style="fill:#ED694A;" d="M200.899,287.77H89.225L64.82,356.322c-2.345,6.586,1.026,13.901,7.509,16.139
	c41.009,14.148,105.534,13.979,145.975-0.432c5.786-2.062,8.822-8.556,6.723-14.454L200.899,287.77z"/>
<path style="fill:#DB4E33;" d="M97.61,378.316c-6.483-2.392-9.853-10.213-7.509-17.254l24.405-73.292H89.225L64.82,356.322
	c-2.345,6.586,1.026,13.901,7.509,16.139c8.644,2.982,18.341,5.32,28.629,7.031C99.828,379.109,98.706,378.721,97.61,378.316z"/>
<path style="fill:#F4D44E;" d="M206.439,91.859c0.02,0.017-4.465-8.341-7.615-14.211c-1.72-3.205-5.234-5.033-8.842-4.571
	c-10.655,1.363-33.256,1.582-44.921-18.108l0,0l0,0l0,0l0,0c-11.665,19.69-34.266,19.471-44.921,18.108
	c-3.608-0.461-7.122,1.366-8.842,4.571c-3.15,5.869-7.634,14.229-7.615,14.211c0.063-0.055-0.03-2.218-0.03,29.75
	c0,32.952,28.159,59.245,62.081,58.836c33.191-0.291,60.736-26.173,60.736-58.902C206.464,89.127,206.336,91.77,206.439,91.859z"/>
<g>
	<path style="fill:#E8C842;" d="M83.69,91.848c0,0.001-0.006,0.011-0.006,0.011C83.686,91.857,83.688,91.853,83.69,91.848z"/>
	<path style="fill:#E8C842;" d="M109.668,121.609c0-23.214,0.049-40.374,0.052-48.014c-3.68,0.074-6.986-0.186-9.58-0.518
		c-3.608-0.461-7.122,1.366-8.842,4.571c-3.07,5.72-7.394,13.781-7.595,14.174c0.016,0.174-0.05,2.975-0.05,29.787
		c0,32.952,28.159,59.245,62.081,58.836c4.227-0.037,8.36-0.494,12.359-1.322C130.594,173.449,109.668,150.011,109.668,121.609z"/>
	<path style="fill:#E8C842;" d="M83.69,91.848c0.001-0.002,0.01-0.019,0.014-0.027C83.701,91.795,83.697,91.828,83.69,91.848z"/>
</g>
<g>
	<path style="fill:#656566;" d="M126.054,140.6c7.864,15.136,29.35,15.53,37.879,1.017c1.003-1.706-0.222-3.857-2.201-3.857h-33.951
		C126.323,137.76,125.382,139.306,126.054,140.6z"/>
	<circle style="fill:#656566;" cx="168.96" cy="106.809" r="9.038"/>
	<circle style="fill:#656566;" cx="121.167" cy="106.809" r="9.038"/>
	<path style="fill:#656566;" d="M179.656,478.92c-14.079,0.396-25.122,12.599-25.122,27.035v1.924c0,2.047,1.619,3.707,3.617,3.707
		h43.711c2.413,0,4.369-2.005,4.369-4.477v-1.704C206.231,490.523,194.264,478.509,179.656,478.92z"/>
</g>
<path style="fill:#545456;" d="M174.968,507.878v-1.924c0-10.995,6.41-20.689,15.685-24.863c-3.357-1.492-7.08-2.281-10.996-2.172
	c-14.079,0.396-25.122,12.599-25.122,27.035v1.924c0,2.047,1.619,3.707,3.617,3.707h20.433
	C176.587,511.586,174.968,509.925,174.968,507.878z"/>
<path style="fill:#967D74;" d="M376.7,494.47c9.391-16.046,32.014-17.826,43.54-2.622l-5.7-177.598c-27.811,0-86.041,0-102.27,0
	l-5.7,177.598c11.521-15.197,34.146-13.43,43.54,2.622h0.011l5.446-143.82c0.172-3.056,2.688-5.447,5.735-5.447
	c0.104,0,4.348,0,4.204,0c3.047,0,5.564,2.39,5.735,5.447l5.446,143.82H376.7z"/>
<g>
	<path style="fill:#7C6359;" d="M335.128,314.25c-9.961,0-18.166,0-22.859,0l-5.7,177.598c5.906-7.79,14.728-11.112,23.19-10.347
		L335.128,314.25z"/>
	<path style="fill:#7C6359;" d="M378.492,346.031c-0.314-0.064-0.626-0.123-0.94-0.178l0,0l0,0
		c-6.161-1.093-12.046-0.649-12.046-0.649c3.047,0,5.564,2.39,5.735,5.447l3.479,91.869l0.129-0.082l-0.016,3.063l1.855,48.97h0.012
		c4.957-8.47,13.6-12.96,22.352-13.081l-6.96-113.151C391.001,350.512,381.533,346.777,378.492,346.031z"/>
</g>
<g>
	<path style="fill:#656566;" d="M326.626,479.331c-14.364,0.396-25.631,12.601-25.631,27.038v1.924c0,2.048,1.652,3.707,3.69,3.707
		h44.598c2.462,0,4.457-2.005,4.457-4.478v-1.705C353.74,490.936,341.53,478.92,326.626,479.331z"/>
	<path style="fill:#656566;" d="M400.183,479.331c14.364,0.396,25.631,12.601,25.631,27.038v1.924c0,2.048-1.652,3.707-3.69,3.707
		h-44.598c-2.462,0-4.457-2.005-4.457-4.478v-1.705C373.07,490.936,385.28,478.92,400.183,479.331z"/>
</g>
<g>
	<path style="fill:#545456;" d="M324.949,508.293v-1.924c0-10.389,5.833-19.621,14.457-24.129c-3.814-1.97-8.167-3.036-12.78-2.909
		c-14.365,0.396-25.631,12.601-25.631,27.038v1.924c0,2.048,1.652,3.707,3.69,3.707h23.953
		C326.601,512,324.949,510.34,324.949,508.293z"/>
	<path style="fill:#545456;" d="M397.023,507.523v-1.705c0-10.276,5.823-19.183,14.334-23.578
		c-3.361-1.757-7.145-2.797-11.174-2.909c-14.903-0.411-27.113,11.606-27.113,26.487v1.705c0,2.473,1.995,4.478,4.457,4.478h23.953
		C399.019,512,397.023,509.995,397.023,507.523z"/>
</g>
<path style="fill:#E8C842;" d="M232.39,299.027c1.524-2.877,2.525-5.999,3.09-9.209c1.362-7.733,13.762-39.493,37.374-69.741
	l21.642,21.992c-2.569,3.284-24.548,31.446-35.192,56.934c-1.753,4.199-2.408,8.759-2.055,13.299
	c0.487,6.26-0.219,15.952-8.449,19.369C234.678,337.536,220.621,321.238,232.39,299.027z"/>
<path style="fill:#DBBC3B;" d="M235.682,328.973c9.079-3.769,9.858-14.462,9.32-21.368c-0.39-5.008,0.333-10.039,2.266-14.671
	c10.564-25.295,31.239-52.967,37.347-60.906l9.881,10.041c-2.569,3.284-24.548,31.446-35.192,56.934
	c-1.753,4.199-2.408,8.759-2.055,13.299c0.487,6.26-0.219,15.952-8.449,19.369c-5.413,2.247-10.809,1.23-14.753-2.116
	C234.592,329.388,235.137,329.199,235.682,328.973z"/>
<path style="fill:#CC9D72;" d="M360.615,0.052c-42.273,1.412-76.021,34.71-76.021,75.511c0,7.336-0.007,15.932-0.016,21.695
	l157.679-0.254c0.003-10.033,0.004-20.397,0.005-21.441C442.261,32.606,405.009-1.51,360.615,0.052z"/>
<path style="fill:#C19067;" d="M333.116,75.563c0-33.603,22.899-62.097,54.589-71.901c-8.515-2.643-17.637-3.942-27.09-3.61
	c-42.273,1.412-76.021,34.71-76.021,75.511c0,7.336-0.007,15.932-0.016,21.695L333.1,97.18
	C333.109,91.418,333.116,82.867,333.116,75.563z"/>
<g>
	<path style="fill:#E8C842;" d="M444.455,98.554c0,9.284-9.469,16.808-19.497,16.808V81.747
		C434.987,81.747,444.455,89.271,444.455,98.554z"/>
	<path style="fill:#E8C842;" d="M282.354,98.554c0,9.284,9.465,16.808,19.49,16.808V81.747
		C291.818,81.747,282.354,89.271,282.354,98.554z"/>
</g>
<g>
	<path style="fill:#DBBC3B;" d="M424.958,101.999v13.363c10.029,0,19.497-7.525,19.497-16.808c0-2.376-0.627-4.632-1.718-6.681
		C439.566,97.829,432.421,101.999,424.958,101.999z"/>
	<path style="fill:#DBBC3B;" d="M284.071,91.873c-1.09,2.049-1.717,4.305-1.717,6.681c0,9.284,9.465,16.808,19.49,16.808v-13.363
		C294.384,101.999,287.242,97.829,284.071,91.873z"/>
</g>
<path style="fill:#57ADDD;" d="M458.604,211.106l-32.007-22.742c-11.453-8.138-20.327-6.655-45.107-12.296h-36.142l-33.599,6.558
	c-8.785,2.069-11.022,6.048-43.545,28.481c-1.729,1.738-1.726,4.558-0.006,6.305l26.112,26.532c2.192,2.227,5.782,2.197,7.936-0.067
	l1.028-1.08c1.142-1.199,3.159-0.39,3.159,1.273v66.38c0,3.237,2.612,5.862,5.833,5.862c27.811,0,86.041,0,102.27,0
	c3.221,0,5.833-2.624,5.833-5.862v-66.38c0-1.662,2.017-2.474,3.159-1.273l1.028,1.08c2.154,2.264,5.744,2.294,7.936,0.067
	l26.113-26.532C460.33,215.664,460.333,212.844,458.604,211.106z"/>
<path style="fill:#42A2CC;" d="M332.479,310.449v-39.467c0-12.883-8.809-24.096-21.327-27.144l-5.66-1.379l-0.002,0.017
	c0.541,0.302,0.947,0.856,0.947,1.592v66.38c0,3.237,2.612,5.862,5.833,5.862c7.1,0,16.184,0,26.043,0
	C335.091,316.311,332.479,313.686,332.479,310.449z"/>
<path style="fill:#E8C842;" d="M345.349,163.247v24.22c0,9.98,8.09,18.071,18.071,18.071c9.98,0,18.071-8.091,18.071-18.071v-24.229
	C369.735,166.68,357.07,166.673,345.349,163.247z"/>
<path style="fill:#DBBC3B;" d="M363.178,187.468v-21.653c-6.025-0.021-12.042-0.876-17.829-2.567v24.22
	c0,9.98,8.09,18.071,18.071,18.071c3.244,0,6.282-0.867,8.914-2.364C366.87,200.067,363.178,194.203,363.178,187.468z"/>
<path style="fill:#F4D44E;" d="M425.24,81.71l-1.105-1.33c-8.553-10.288-6.086-20.907-6.495-24.33c0-3.637-2.383-4.584-5.895-3.583
	c-0.006,0.002-0.013,0.003-0.019,0.005c-28.189,9.25-48.585-0.347-48.585-0.347l2.592,3.574c2.086,2.877,1.122,7.553-4.845,7.924
	c-0.361-0.058-0.167,0.049-2.32-0.078l0,0c-5.263-0.313-19.155-2.044-34.024-11.338l-0.001,0.006
	c-8.128-4.944-12.102-2.209-13.938,0.537c-0.968,1.447-1.436,3.171-1.436,4.913v4.748c0,11.592-7.301,18.799-7.599,19.298
	c-0.008,7.479-0.03,28.294-0.031,29.914c0,32.911,27.69,59.048,61.188,59.341c34,0.41,62.543-25.89,62.543-59.341
	C425.264,81.989,425.274,83.986,425.24,81.71z"/>
<path style="fill:#E8C842;" d="M327.6,111.624c0-1.29,0.015-14.73,0.024-23.937c0.004-3.533,1.083-6.956,2.992-9.928
	c2.129-3.316,4.614-8.587,4.614-15.348v-4.624c0-0.001,0-0.003,0-0.004c-3.427-1.463-7.026-3.288-10.685-5.576l-0.001,0.006
	c-8.128-4.944-12.102-2.209-13.938,0.537c-0.968,1.447-1.436,3.171-1.436,4.913v4.748c0,11.592-7.301,18.799-7.599,19.298
	c-0.008,7.479-0.03,28.294-0.031,29.914c0,32.911,27.69,59.048,61.188,59.341c4.683,0.056,9.256-0.411,13.672-1.317
	C348.728,163.948,327.6,140.372,327.6,111.624z"/>
<g>
	<circle style="fill:#656566;" cx="387.848" cy="94.435" r="9.239"/>
	<circle style="fill:#656566;" cx="338.992" cy="94.435" r="9.239"/>
	<path style="fill:#656566;" d="M343.989,128.972c8.04,15.472,30.005,15.876,38.723,1.04c1.025-1.744-0.227-3.943-2.25-3.943
		h-34.708C344.264,126.07,343.302,127.65,343.989,128.972z"/>
</g>
<g>
</g>
<g>
</g>
<g>
</g>
<g>
</g>
<g>
</g>
<g>
</g>
<g>
</g>
<g>
</g>
<g>
</g>
<g>
</g>
<g>
</g>
<g>
</g>
<g>
</g>
<g>
</g>
<g>
</g>
</svg>
