<?xml version="1.0" encoding="iso-8859-1"?>
<!-- Generator: Adobe Illustrator 19.0.0, SVG Export Plug-In . SVG Version: 6.00 Build 0)  -->
<svg version="1.1" id="Capa_1" xmlns="http://www.w3.org/2000/svg" xmlns:xlink="http://www.w3.org/1999/xlink" x="0px" y="0px"
	 viewBox="0 0 511.999 511.999" style="enable-background:new 0 0 511.999 511.999;" xml:space="preserve">
<path style="fill:#CC9D72;" d="M152.992,142.816l17.615-9.737c3.57-4.768,2.028-7.468,2.627-21.65
	c-6.336-4.913-8.562-9.452-9.628-10.939c-2.433-27.83,7.987-25.132,26.992-52.009c3.714-5.252,10.957-6.535,16.271-2.91
	c6.947,4.74,15.094,13.017,18.287,22.742c1.023-3.756,5.092-20.427,1.164-34.335c-6.196-21.947-48.671-35.332-75.579-9.217l0,0
	c-8.841,8.668-15.104,21.958-15.104,41.076C135.638,90.473,143.737,121.304,152.992,142.816z"/>
<path style="fill:#C19067;" d="M163.608,100.49c-1.622-18.557,2.477-23.547,11.019-32.777c-1.324-18.731,1.122-37.056,14.755-50.421
	l0,0c2.274-2.207,4.708-4.164,7.265-5.867c-16.113-3.341-33.413,1.214-45.905,13.338l0,0c-8.841,8.668-15.104,21.958-15.104,41.076
	c0,24.635,8.099,55.466,17.354,76.978l17.615-9.737c3.57-4.768,2.028-7.468,2.627-21.65
	C166.899,106.516,164.674,101.976,163.608,100.49z"/>
<path style="fill:#ED694A;" d="M248.943,455.526c-14.886,16.295-20.711,6.73-43.102,14.133
	c2.954,17.298,20.605,29.208,34.986,36.314c4.583,2.264,9.913-1.21,9.664-6.317l-1.007-20.603L248.943,455.526z"/>
<path style="fill:#DB4E33;" d="M228.667,466.047c-5.773,0.389-12.556,0.216-22.827,3.612c2.954,17.298,20.605,29.208,34.986,36.314
	c4.583,2.264,9.913-1.21,9.664-6.317l-0.743-15.198C241.807,479.732,233.888,473.623,228.667,466.047z"/>
<path style="fill:#F4D44E;" d="M319.167,106.366c-7.217-39.973-31.275-71.063-31.275-71.063
	c-10.29-18.176,3.516-35.254-20.358-35.254c-19.986,0-19.153,15.268-16.1,25.26c2.086,6.828,10.62,20.808,15.765,27.07
	c10.701,13.027,15.611,39.793,17.337,51.74c0.473,3.273-1.774,6.311-5.045,6.803c-21.814,3.281-49.085,9.596-60.703,12.384
	c-3.112,0.746-6.222-1.215-6.896-4.343l-1.456-10.876c-11.279,11.574-27.21,9.684-39.411,0.133l0.974,14.158
	c0.513,5.251-2.344,10.255-7.137,12.46c-13.036,5.998-39.223,19.412-57.59,37.779c0,0-13.509,8.698-13.509,20.357
	c0,10.704,14.506,38.253,35.355,53.435l0.516,0.615c3.26,3.887,1.89,9.813-2.746,11.873c-0.103,0.042-8.472,3.465-7.938,3.246
	c-7.866,3.189-6.395,14.004,1.391,15.483l6.568,1.247c10.533,2,21.24-2.497,27.187-11.417l0,0c5.426-8.138,3.574-15.875,3.706-17.78
	c-0.318-6.621-2.205-13.073-5.531-18.807c-4.83-8.33-12.397-20.67-19.452-29.2c-1.96-2.37-1.168-5.947,1.598-7.29l31.367-15.234
	c4.407-2.14,9.706-0.144,11.607,4.372l5.832,13.861l1.007-0.831c0,0,12.223-14.998,12.223-24.991
	c0-9.675,28.803-26.33,48.333-16.277c-0.379-1.021-0.77-2.038-1.194-3.043C243.592,152.238,326.384,146.339,319.167,106.366z"/>
<g>
	<path style="fill:#E8C842;" d="M267.199,52.379c10.701,13.027,15.611,39.793,17.337,51.74c0.38,2.629-0.998,5.105-3.249,6.232
		c5.126-0.951,10.213-1.825,15.033-2.549c3.27-0.492,5.518-3.531,5.045-6.803c-1.725-11.946-6.636-38.713-17.337-51.74
		c-5.145-6.263-13.679-20.242-15.765-27.07c-2.169-7.1-3.209-16.856,3.533-21.914c-17.5-2.007-25.871,7.009-20.363,25.035
		C253.521,32.138,262.054,46.117,267.199,52.379z"/>
	<path style="fill:#E8C842;" d="M190.115,128.572l-0.839-12.62c-6.329-0.613-12.68-3.37-18.252-7.732l0.974,14.158
		c0.513,5.251-2.344,10.255-7.137,12.46c-13.036,5.998-39.223,19.412-57.59,37.779c0,0-13.509,8.698-13.509,20.357
		c0,10.704,14.506,38.253,35.355,53.435l0.516,0.615c-0.059-0.395,0.262-5.683-3.391-10.863
		c-9.312-13.207-14.957-26.938-14.957-33.881c0-12.173,13.612-21.254,13.612-21.254c18.507-19.177,44.892-33.183,58.026-39.444
		C187.753,139.28,190.632,134.055,190.115,128.572z"/>
</g>
<path style="fill:#ED694A;" d="M356.991,464.058c0,0-3.126,20.023,6.867,33.156c10.779,14.166,31.742,15.294,47.928,14.648
	c5.109-0.204,8.126-5.805,5.464-10.17l-10.742-17.609"/>
<path style="fill:#DB4E33;" d="M383.862,474.925l-26.871-10.866c0,0-3.126,20.023,6.867,33.156
	c8.76,11.511,24.244,14.414,38.425,14.75C388.081,504.78,383.306,490.964,383.862,474.925z"/>
<path style="fill:#F4D44E;" d="M391.134,457.407l-49.16-87.658c-11.457,12.034-21.718-4.134-32.596,24.407l47.612,69.903
	c11.781,16.651,29.212,20.023,49.518,20.023L391.134,457.407z"/>
<path style="fill:#E8C842;" d="M324.173,376.057c-4.919,1.306-9.791,4.973-14.794,18.099l47.612,69.903
	c7.096,10.029,16.244,15.237,26.833,17.796C315.964,361.497,325.008,377.538,324.173,376.057z"/>
<g>
	<path style="fill:#DB4E33;" d="M206.11,159.823c-9.362-16.531-26.27-27.864-34.575-32.67c-1.925,6.417-6.766,7.64-12.645,10.527
		c1.24,1.037,23.624,11.601,33.893,29.965c0.87,1.555,2.198,2.688,3.721,3.335C196.888,167.55,200.605,163.374,206.11,159.823z"/>
	<path style="fill:#DB4E33;" d="M230.494,120.57c-4.695,1.071-8.719,2.021-11.705,2.737c-2.762,0.663-5.521-0.813-6.577-3.341
		c0.815,4.567,8.988,10.414,15.864,32.33c5.722-0.448,11.496,0.325,16.635,2.95c-0.001-0.052,0.002-0.104,0-0.157
		c-0.357-0.956-0.721-1.909-1.119-2.851l0,0C239.766,138.12,234.533,127.107,230.494,120.57z"/>
</g>
<path style="fill:#ED694A;" d="M340.818,246.409c-17.329,0-25.978,17.119-29.995,34.067c-0.645,2.723-3.659,4.15-6.221,3.024
	c-0.608-0.554-29.536-9.087-54.878-58.238c-3.172-6.153-4.246-13.169-3.096-19.995c3.296-19.557,4.681-34.749-3.036-53.029
	c-19.501-12.237-50.231,5.205-50.231,15.198c0,9.994-12.223,24.991-12.223,24.991c8.497,21.458,12.204,25.675,12.526,35.238
	c0.902,26.703,0.219,133.237-63.811,190.182c-13.5,12.006-14.158,32.903-1.806,46.087c8.97,9.574,20.445,17.735,33.504,17.735
	c31.587,0,37.991-14.435,65.879-14.435c27.888,0,30.109-39.973,57.868-39.973c27.759,0,17.766-51.077,45.525-51.077
	c27.759,0,21.097-61.07,52.187-69.953C414.102,297.349,369.687,246.409,340.818,246.409z"/>
<path style="fill:#DB4E33;" d="M155.679,466.176c-12.352-13.185-11.695-34.081,1.806-46.087
	c64.03-56.944,64.713-163.479,63.811-190.182c-0.239-7.093-2.342-11.245-6.877-21.672c-3.327-7.649-2.929-16.463,1.272-23.669
	c2.763-4.739,5.301-10.333,5.301-14.887c0-5.734,10.122-13.911,22.431-17.536c-19.509-12.033-50.061,5.33-50.061,15.295
	c0,9.994-12.223,24.991-12.223,24.991c8.497,21.458,12.204,25.675,12.526,35.238c0.902,26.703,0.219,133.237-63.811,190.182
	c-13.5,12.006-14.158,32.903-1.806,46.087c16.128,17.214,29.073,19.53,46.868,16.75C167.697,477.438,161.21,472.079,155.679,466.176
	z"/>
<path style="fill:#F4D44E;" d="M205.84,43.511c-5.313-3.626-12.558-2.344-16.271,2.909c-4.194,5.933-10.632,14.189-19.191,22.748
	c-8.512,8.512-9.676,20.621-8.83,30.29l0.006,0.009c8.386,15.031,32.419,27.162,48.52,11.062s15.083-42.216,15.083-42.216
	C222.834,57.162,213.461,48.711,205.84,43.511z"/>
<path style="fill:#E8C842;" d="M178.458,91.142c-5.35-7.505-5.318-17.583-3.604-26.639c-5.369,5.787-15.226,12.998-13.306,34.955
	l0.006,0.009c8.328,14.927,32.082,26.98,48.178,11.38C197.587,108.295,186.027,100.615,178.458,91.142z"/>
<g>
</g>
<g>
</g>
<g>
</g>
<g>
</g>
<g>
</g>
<g>
</g>
<g>
</g>
<g>
</g>
<g>
</g>
<g>
</g>
<g>
</g>
<g>
</g>
<g>
</g>
<g>
</g>
<g>
</g>
</svg>
