<?xml version="1.0" encoding="iso-8859-1"?>
<!-- Generator: Adobe Illustrator 19.0.0, SVG Export Plug-In . SVG Version: 6.00 Build 0)  -->
<svg version="1.1" id="Capa_1" xmlns="http://www.w3.org/2000/svg" xmlns:xlink="http://www.w3.org/1999/xlink" x="0px" y="0px"
	 viewBox="0 0 512 512" style="enable-background:new 0 0 512 512;" xml:space="preserve">
<path style="fill:#F4D44E;" d="M162.258,187.371c18.512,0.364,31.047-19.218,31.054-19.229c0.581-1.77,1.369-3.501,2.386-5.153
	c1.092-1.775,2.374-3.366,3.797-4.771l-2.226-3.096c-10.306-16.934-9.203-35.056-9.203-35.056l-0.233-3.311l-15.935-15.78
	l-1.687-11.069c-1.078-7.076-8.012-11.688-14.954-9.948l-10.543,2.641c0,0-37.667,0.457-60.586-10.709l0.048,3.301
	c-1.47,15.562,3.098,33.058,3.098,33.058l-2.953,18.627c-0.488,3.081,1.824,5.897,4.941,6.017c3.194,0.575,11.569-1.818,15.013,5.75
	c3.791,8.328,12.778,23.1,28.351,21.52c21.563-2.188,28.605,26.176,28.605,26.176l1.03,2.741v-1.709H162.258z"/>
<path style="fill:#E8C842;" d="M164.473,187.309c0.366-0.024,0.731-0.047,1.091-0.086c0.216-0.023,0.429-0.057,0.643-0.086
	c0.321-0.042,0.641-0.083,0.957-0.137c0.227-0.038,0.45-0.086,0.675-0.13c0.298-0.058,0.595-0.115,0.888-0.182
	c0.23-0.053,0.458-0.114,0.686-0.172c0.282-0.072,0.563-0.144,0.841-0.224c0.229-0.066,0.457-0.139,0.684-0.21
	c0.27-0.085,0.538-0.171,0.804-0.263c0.227-0.079,0.452-0.162,0.677-0.246c0.259-0.096,0.515-0.194,0.77-0.297
	c0.225-0.091,0.449-0.185,0.671-0.281c0.246-0.106,0.491-0.213,0.732-0.326c0.222-0.102,0.444-0.206,0.663-0.314
	c0.234-0.114,0.467-0.23,0.697-0.349c0.219-0.113,0.438-0.226,0.654-0.344c0.222-0.12,0.443-0.243,0.662-0.368
	c0.216-0.123,0.433-0.246,0.646-0.373c0.209-0.124,0.416-0.252,0.621-0.379c0.214-0.133,0.43-0.266,0.64-0.402
	c0.195-0.126,0.386-0.255,0.577-0.383c0.214-0.143,0.429-0.287,0.638-0.433c0.178-0.124,0.352-0.251,0.527-0.377
	c0.213-0.154,0.429-0.307,0.637-0.463c0.159-0.118,0.313-0.239,0.468-0.359c0.218-0.167,0.439-0.335,0.651-0.505
	c0.12-0.096,0.235-0.192,0.354-0.29c0.24-0.195,0.481-0.39,0.714-0.587h0.001l-0.257-0.683c0,0-7.571-30.497-30.755-28.145
	c-4.1,0.416-7.775-0.222-11.048-1.555h-0.001c-0.016-0.007-0.033-0.013-0.049-0.02c-28.479-11.004-33.451-55.284-34.315-69.219
	C99.205,77.538,91,75.241,84.124,71.89l0.048,3.301c-1.47,15.562,3.098,33.058,3.098,33.058l-2.953,18.627
	c-0.488,3.081,1.824,5.897,4.941,6.017c3.194,0.575,11.569-1.818,15.013,5.75c3.791,8.328,12.778,23.1,28.351,21.52
	c21.563-2.188,28.605,26.176,28.605,26.176l1.03,2.741v-1.71c0.563,0.011,1.119,0.002,1.671-0.022
	C164.113,187.341,164.292,187.321,164.473,187.309z"/>
<path style="fill:#F4D44E;" d="M163.038,209.649l-23.29,36.907c-3.118,5.024-7.668,9.001-13.064,11.417l-40.63,18.202l-2.389,0.811
	c-11.668,3.962-21.131,12.649-26.074,23.937c-1.58,3.608-1.414,7.743,0.451,11.213l1.154,2.148c2.53,4.709,8.425,6.437,13.097,3.837
	c28.558-15.716,3.261-3.811,78.43-33.1c10.328-3.953,12.479-11.619,25.536-27.591C167.677,237.134,164.331,220.298,163.038,209.649z
	"/>
<path style="fill:#E8C842;" d="M167.494,232.101l-17.903,28.371c-3.118,5.024-7.668,9.001-13.064,11.417l-40.63,18.202l-2.389,0.811
	c-16.223,5.509-26.666,20.544-27.12,28.336c1.969,0.26,4.034-0.076,5.905-1.117c28.558-15.716,3.261-3.811,78.43-33.1
	c10.328-3.953,12.479-11.619,25.536-27.591C172.347,248.179,169.532,239.657,167.494,232.101z"/>
<path style="fill:#ED694A;" d="M248.788,212.826l-18.009-8.542c-1.308,2.125-4.089,2.787-6.214,1.48l-19.85-12.212
	c-8.974-5.521-13.128-16.008-11.116-25.799l-1.319-0.642c0,0-12.536,19.592-31.054,19.229v11.958c0,0-1.121,51.034,43.101,109.997
	l69.495-38.468C272.64,267.131,280.159,284.251,248.788,212.826z"/>
<path style="fill:#DB4E33;" d="M198.836,188.475c-4.802-5.728-6.736-13.417-5.235-20.72l-1.319-0.642
	c0,0-12.536,19.592-31.054,19.229v11.958c0,0-1.121,51.034,43.101,109.997l35.499-19.65
	C207.203,244.105,200.287,204.456,198.836,188.475z"/>
<path style="fill:#5085BA;" d="M391.415,363.289l-63.548,2.826c-6.674,0.295-12.857-3.495-15.624-9.576l-20.897-45.36
	c-0.334,3.15-1.081,6.352-2.386,9.571c-4.881,12.036-22.259,27.302-40.229,40.65l-1.299,2.729l34.974,47.852
	c6.25,8.552,16.745,12.906,27.213,11.291l93.603-14.649L391.415,363.289z"/>
<path style="fill:#3A77AA;" d="M323.787,397.564c-10.468,1.615-20.963-2.739-27.213-11.291l-29.139-39.869
	c-5.782,5.087-12.201,10.167-18.702,14.995l-1.299,2.729l34.974,47.852c6.25,8.552,16.745,12.906,27.213,11.291l93.603-14.649
	l-5.879-22.572L323.787,397.564z"/>
<path style="fill:#656566;" d="M454.765,407.188l-35.789-49.109c-3.3-3.793-8.727-4.917-13.264-2.747l-16.912,8.09l10.787,45.973
	c15.988,13.462,37.908,19.462,51.015,15.103C457.984,422.043,460.241,412.714,454.765,407.188z"/>
<path style="fill:#545456;" d="M454.765,407.188l-6.866-9.421c-15.118,6.153-38.847-1.759-53.651-11.125l5.338,22.752
	c15.988,13.462,37.908,19.462,51.014,15.103C457.984,422.043,460.241,412.714,454.765,407.188z"/>
<path style="fill:#F4D44E;" d="M349.432,285.233c-14.635-19.982-6.963-7.424-41.699-74.217
	c-5.495-10.606-12.601-10.572-59.315-39.351l-20.693,33.638l43.019,20.939c5.342,2.534,9.805,6.608,12.813,11.699l22.649,38.33
	c0.584,0.797,6.628,18.953,27.787,25.503c7.348,2.274,12.179-2.676,13.097-3.095C351.485,295.634,352.539,289.584,349.432,285.233z"
	/>
<path style="fill:#E8C842;" d="M327.002,286.053l-24.651-51.867c-3.274-6.888-8.535-12.641-15.103-16.515l-48.955-29.546
	l-10.568,17.178l43.019,20.939c5.342,2.534,9.805,6.608,12.813,11.699l22.649,38.33c0.584,0.797,6.628,18.953,27.787,25.503
	c0.265,0.082,0.519,0.135,0.777,0.198C329.141,293.786,327.354,286.637,327.002,286.053z"/>
<path style="fill:#5085BA;" d="M272.972,267.896c0,0,28.13,26.443,17.007,53.872c-8.58,21.158-55.782,52.309-76.916,65.447
	c-6.848,4.257-12.625,10.021-16.902,16.856l-47.771,76.341l-44.067-29.148c69.928-109.075,46.224-75.322,99.28-143.961
	L272.972,267.896z"/>
<path style="fill:#3A77AA;" d="M286.667,286.433c-5.773-11.09-13.696-18.536-13.696-18.536l-69.369,39.406
	c-53.056,68.64-29.352,34.887-99.28,143.962l20.566,13.604c54.788-85.844,45.26-72.602,84.431-122.918
	C233.042,311.476,258.426,304.142,286.667,286.433z"/>
<path style="fill:#656566;" d="M105.807,448.991c-19.298-7.77-37.615-4.565-47.934,2.999c-5.811,4.26-4.523,13.327,2.413,16.817
	l60.842,42.174c4.346,2.521,7.675,0.085,10.701-4.235l17.259-27.443L105.807,448.991z"/>
<path style="fill:#545456;" d="M125.889,463.055l-20.082-14.064c-19.298-7.77-37.616-4.565-47.934,2.999
	c-5.811,4.26-4.523,13.328,2.413,16.817l19.131,13.261C85.379,473.903,105.37,462.084,125.889,463.055z"/>
<path style="fill:#ED694A;" d="M194.666,161.96L194.666,161.96c-7.045,11.451-3.44,26.585,8.012,33.63l19.85,12.212
	c2.125,1.308,4.907,0.644,6.214-1.48l20.693-33.638c1.745-2.838,0.861-6.554-1.977-8.3l-17.577-10.813
	C217.891,146.194,202.044,149.969,194.666,161.96z"/>
<path style="fill:#DB4E33;" d="M235.294,187.051l-19.85-12.212c-8.215-5.054-13.006-13.269-12.997-20.861
	c-15.549,10.126-14.837,32.341,0.232,41.611l19.85,12.212c2.125,1.308,4.907,0.644,6.214-1.48l12.275-19.952
	C239.981,188.052,237.419,188.358,235.294,187.051z"/>
<path style="fill:#CC9D72;" d="M159.113,5.553c0,0-55.916-24.043-87.238,27.93c-31.607,52.445,71.806,51.177,71.806,51.177
	l10.543-2.641c6.943-1.739,13.876,2.874,14.954,9.948c0.886,3.635,0.197,9.593,5.481,14.825l13.405,13.274
	C241.111,24.386,159.113,5.553,159.113,5.553z"/>
<path style="fill:#C19067;" d="M97.255,41.504c21.358-35.363,54.114-35.492,72.819-31.987c-6.337-2.899-10.961-3.963-10.961-3.963
	s-55.916-24.043-87.238,27.93c-18.538,30.761,9.37,43.039,35.621,47.937C93.042,74.051,84.985,61.819,97.255,41.504z"/>
<g>
</g>
<g>
</g>
<g>
</g>
<g>
</g>
<g>
</g>
<g>
</g>
<g>
</g>
<g>
</g>
<g>
</g>
<g>
</g>
<g>
</g>
<g>
</g>
<g>
</g>
<g>
</g>
<g>
</g>
</svg>
