<?xml version="1.0" encoding="iso-8859-1"?>
<!-- Generator: Adobe Illustrator 19.0.0, SVG Export Plug-In . SVG Version: 6.00 Build 0)  -->
<svg version="1.1" id="Capa_1" xmlns="http://www.w3.org/2000/svg" xmlns:xlink="http://www.w3.org/1999/xlink" x="0px" y="0px"
	 viewBox="0 0 512 512" style="enable-background:new 0 0 512 512;" xml:space="preserve">
<path style="fill:#F4D44E;" d="M225.496,171.649c13.963-8.891,32.31-5.881,32.31-5.881c4.137-0.36,8.135,0.311,11.748,1.786v-1.317
	c-15.995-21.398-7.92-47.155-7.92-47.155l-0.011-2.738l-10.254-16.827l0.92-9.998c0.588-6.391-4.452-11.902-10.869-11.886
	l-9.746,0.024c0,0-30.92-7.269-48.787-21.081h-0.964c-4.637,13.228-5.467,30.472-5.467,30.472l-6.59,15.575
	c-1.09,2.576,0.315,5.526,3.002,6.303c2.656,1.189,10.461,0.916,11.826,8.245c1.502,8.067,6.136,22.864,20.032,24.849
	C218.32,143.961,224.736,158.292,225.496,171.649z"/>
<path style="fill:#E8C842;" d="M246.079,165.428c-1.113-13.262-7.688-27.045-21.135-28.966
	c-17.746-2.535-31.097-29.758-21.463-68.285c-7.23-3.123-14.638-6.997-20.595-11.602h-0.964
	c-4.637,13.228-5.467,30.472-5.467,30.472l-6.59,15.575c-1.09,2.576,0.315,5.526,3.002,6.303c2.644,1.184,10.461,0.914,11.826,8.245
	c1.502,8.067,6.136,22.864,20.032,24.849c13.508,1.93,20.001,16.131,20.77,29.63C231.589,167.77,238.93,165.931,246.079,165.428z"/>
<path style="fill:#DB4E33;" d="M257.806,163.708c0,0-31.969-5.264-43.623,18.549c-10.311,21.071-20.442,76.21-11.192,117.735h58.396
	L257.806,163.708z"/>
<path style="fill:#656566;" d="M357.819,421.033l-16.977-7.685l-28.06,37.629c-0.006,20.777,9.461,41.288,21.165,48.466
	c6.592,4.043,15.133-0.211,15.83-7.912l14.443-58.652C364.991,427.94,362.372,423.095,357.819,421.033z"/>
<path style="fill:#545456;" d="M328.699,429.632l-15.917,21.346c-0.006,20.777,9.461,41.288,21.165,48.466
	c6.592,4.043,15.132-0.211,15.83-7.912l4.815-19.554C343.433,471.65,330.991,450.749,328.699,429.632z"/>
<path style="fill:#5085BA;" d="M287.24,379.323c-5.195-3.297-8.061-9.293-7.293-15.398c3.253-25.877-10.11-46.755-10.11-46.755
	l-1.596,0.973c-2.606,13.379-9.396,35.817-26.775,51.16c-3.592,3.171-5.553,7.804-5.553,12.596v24.042l66.997,43.632
	c5.438,3.548,12.72,2.034,16.292-3.388l21.639-32.837L287.24,379.323z"/>
<path style="fill:#3A77AA;" d="M312.86,429.046l-75.055-54.981c-3.149,6.149-1.4,10.033-1.893,31.874l66.997,43.632
	c5.438,3.548,12.72,2.034,16.292-3.388l9.077-13.773C323.079,433.469,317.474,432.432,312.86,429.046z"/>
<path style="fill:#5085BA;" d="M230.745,298.961h-27.977c-11.929,30.23-25.865,46.062-23.842,75.592l6.523,96.265h52.525V382.93
	c0-4.898,2.122-9.539,5.778-12.796c25.989-23.157,28.12-62.217,28.12-62.217C243.423,301.128,239.65,298.961,230.745,298.961z"/>
<path style="fill:#3A77AA;" d="M230.249,298.961h-27.481c-11.929,30.23-25.865,46.062-23.842,75.592l6.523,96.265h27.481
	l-6.523-96.265C204.385,345.018,218.302,329.234,230.249,298.961z"/>
<path style="fill:#656566;" d="M185.45,469.786c-20.143,4.678-33.23,17.734-37.318,29.775c-2.303,6.782,3.918,13.43,11.555,12.316
	l73.587-0.356c4.977-0.426,6.297-4.306,6.297-9.551l-1.596-32.185L185.45,469.786L185.45,469.786z"/>
<path style="fill:#545456;" d="M188.17,497.428c3.36-9.897,11.915-20.375,24.868-27.642H185.45
	c-20.142,4.678-33.23,17.734-37.318,29.775c-2.303,6.782,3.918,13.43,11.555,12.316l37.26-0.18
	C190.398,510.261,185.974,503.897,188.17,497.428z"/>
<path style="fill:#F4D44E;" d="M287.51,258.148c0.559-8.82,0.989-31.71-5.824-46.428l-39.11,3.404c0,0-0.379,25.384,6.032,46.293
	c1.061,3.461,0.469,7.213-1.553,10.215c-36.547,54.264-31.38,50.103-34.652,51.948l-15.514,8.752
	c-3.83,2.161-5.228,6.99-3.143,10.862l0,0c1.757,3.263-0.612,6.035-0.572,5.932c-5.542,7.094-3.288,17.477,4.695,21.635l0,0
	c9.242,4.813,20.63,1.792,26.27-6.971c10.607-16.479,11.075-17.937,14.767-20.725c8.336-6.293,33.829-27.424,43.64-57.12
	c0.9-2.723,1.886-5.417,3.072-8.029C289.374,269.657,287.052,265.369,287.51,258.148z"/>
<path style="fill:#E8C842;" d="M263.957,283.72c0.9-2.723,1.886-5.417,3.072-8.029c3.754-8.262,1.434-12.551,1.892-19.772
	c0.514-8.109,0.914-28.105-4.318-42.714l-22.027,1.917c0,0-0.379,25.384,6.032,46.293c1.061,3.461,0.468,7.213-1.553,10.215
	c-36.548,54.264-31.38,50.103-34.652,51.948l-15.514,8.751c-3.83,2.161-5.228,6.99-3.142,10.862
	c1.748,3.246-0.531,5.829-0.571,5.932c-5.035,6.445-3.619,15.588,2.666,20.329c3.871-1.489,7.312-4.165,9.71-7.891
	c10.607-16.479,11.075-17.937,14.767-20.725C228.653,334.547,254.146,313.417,263.957,283.72z"/>
<path style="fill:#ED694A;" d="M287.14,207.287l-1.778-20.437c-0.875-10.052-7.566-18.268-16.455-21.617
	c-6.261,5.211-9.993,13.49-9.217,22.418c2.565,24.438,1.236,25.459,3.672,27.725l18.324-1.595
	C284.985,213.495,287.427,210.588,287.14,207.287z"/>
<path style="fill:#DB4E33;" d="M267.723,214.997c-2.371,0.206-4.467-1.629-4.682-4.099l-2.009-23.079
	c-0.77-8.843,3.168-17.015,9.642-21.836c-17.47-8.133-36.576,5.57-34.969,24.04l2.008,23.079c0.215,2.47,2.392,4.298,4.862,4.084
	c23.064-2.007,16.007-1.393,39.11-3.404L267.723,214.997z"/>
<path style="fill:#CC9D72;" d="M261.145,13.164c0,0-43.48-32.992-81.957,5.485c-38.828,38.828,51.455,60.038,51.455,60.038
	l9.746-0.024c6.419-0.016,11.457,5.495,10.869,11.886c-0.514,5.585-1.377,9.248,1.405,13.813l8.97,14.72
	C328.451,47.251,261.145,13.164,261.145,13.164z"/>
<path style="fill:#C19067;" d="M204.944,33.845c23.964-23.965,49.867-20.204,66-13.959c-5.417-4.498-9.799-6.721-9.799-6.721
	s-43.48-32.992-81.957,5.485c-24.309,24.309,1.99,41.712,25.056,51.328C194.001,60.551,190.345,48.443,204.944,33.845z"/>
<g>
</g>
<g>
</g>
<g>
</g>
<g>
</g>
<g>
</g>
<g>
</g>
<g>
</g>
<g>
</g>
<g>
</g>
<g>
</g>
<g>
</g>
<g>
</g>
<g>
</g>
<g>
</g>
<g>
</g>
</svg>
