<?xml version="1.0" encoding="iso-8859-1"?>
<!-- Generator: Adobe Illustrator 19.0.0, SVG Export Plug-In . SVG Version: 6.00 Build 0)  -->
<svg version="1.1" id="Capa_1" xmlns="http://www.w3.org/2000/svg" xmlns:xlink="http://www.w3.org/1999/xlink" x="0px" y="0px"
	 viewBox="0 0 512.001 512.001" style="enable-background:new 0 0 512.001 512.001;" xml:space="preserve">
<path style="fill:#F4D44E;" d="M455.468,221.365h-0.027c-0.594-17.1-14.757-30.907-31.996-30.907l0,0
	c-17.239,0-31.401,13.807-31.995,30.907h-0.028v-12.277c0-17.613-14.41-32.024-32.024-32.024l0,0
	c-17.613,0-32.024,14.41-32.024,32.024V60.171c0,0.002,0,0.005,0,0.007c0-9.102,0-15.263,0-28.153
	c0-17.967-14.797-32.478-32.869-32.014c-17.474,0.45-31.179,15.254-31.179,32.734c0,8.519,0,17.53,0,27.433c0-0.004,0-0.008,0-0.012
	v148.923c0-17.613-14.41-32.024-32.024-32.024l0,0c-17.613,0-32.024,14.41-32.024,32.024c0,31.419,0,55.334,0,86.988
	c-36.889-40.881-80.304-61.165-83.199-62.487c-21.32-9.736-44.069-7.901-55.295,13.5c-10.315,19.665-1.443,26.086,20.823,42.151
	c1.221,0.882,58.153,37.631,79.686,80.051c8.613,16.967,3.32,24.28,17.386,48.831c14.643,25.559,33.606,36.71,36.976,39.703v27.132
	c0,14.934,12.107,27.042,27.042,27.042h150.529c15.046,0,27.244-12.198,27.244-27.244c0-0.232,0-9.926,0-9.497
	c0-12.407,3.823-24.581,11.259-34.513c28.355-37.872,23.125-76.029,23.74-80.227C455.468,339.917,455.468,243.159,455.468,221.365z"
	/>
<g>
	<path style="fill:#E8C842;" d="M247.592,484.958v-24.034c0-7.068-5.37-12.827-12.191-13.859
		c-10.017-1.517-31.27-5.778-48.338-16.279c17.817,23.449,28.592,21.548,28.592,34.502v19.67c0,14.934,12.107,27.042,27.042,27.042
		h31.937C259.698,512,247.592,499.893,247.592,484.958z"/>
	<path style="fill:#E8C842;" d="M199.278,209.088c0,23.387,0,69.476,0,86.988h10.957c11.587,0,20.98-9.393,20.98-20.98
		c0-24.112,0-42.425,0-66.008c0-11.807,6.481-22.166,16.055-27.719C226.12,169.103,199.278,184.495,199.278,209.088z"/>
	<path style="fill:#E8C842;" d="M294.773,0.005c-17.58,0.309-31.447,15.157-31.447,32.74v27.433c0-0.004,0-0.008,0-0.012
		c0,47.658,0,215.345,0,209.353c0,8.978,7.278,16.256,16.256,16.256l0,0c8.661,0,15.683-7.022,15.683-15.683
		c0-26.305,0-185.566,0-209.925c0,0.004,0,0.008,0,0.012c0-9.902,0-18.914,0-27.433c0-11.994,6.454-22.727,16.149-28.429
		C306.535,1.483,300.844-0.101,294.773,0.005z"/>
	<path style="fill:#E8C842;" d="M327.374,209.088v60.421c0,8.983,7.281,16.264,16.264,16.264l0,0
		c8.656,0,15.674-7.018,15.674-15.674v-61.011c0-11.807,6.481-22.166,16.055-27.719C350.83,168.648,327.374,186.816,327.374,209.088
		L327.374,209.088L327.374,209.088z"/>
	<path style="fill:#E8C842;" d="M429.031,190.967c0.002-0.002,0.003-0.005,0.005-0.008c-6.397-1.141-11.001,0.024-11.33,0.026l0,0
		c-14.54,2.66-25.73,15.222-26.257,30.379h-0.028v48.144c0,8.983,7.281,16.264,16.264,16.264l0,0
		c8.656,0,15.674-7.018,15.674-15.674l0.014-48.734l0,0c0.394-11.34,6.772-21.227,16.041-26.605
		C436.252,192.926,432.748,191.63,429.031,190.967z"/>
</g>
<g>
</g>
<g>
</g>
<g>
</g>
<g>
</g>
<g>
</g>
<g>
</g>
<g>
</g>
<g>
</g>
<g>
</g>
<g>
</g>
<g>
</g>
<g>
</g>
<g>
</g>
<g>
</g>
<g>
</g>
</svg>
