<?xml version="1.0" encoding="iso-8859-1"?>
<!-- Generator: Adobe Illustrator 19.0.0, SVG Export Plug-In . SVG Version: 6.00 Build 0)  -->
<svg version="1.1" id="Capa_1" xmlns="http://www.w3.org/2000/svg" xmlns:xlink="http://www.w3.org/1999/xlink" x="0px" y="0px"
	 viewBox="0 0 512 512" style="enable-background:new 0 0 512 512;" xml:space="preserve">
<path style="fill:#F4D44E;" d="M472.661,266.107c-33.571-2.534-66.439,8.569-91.56,31.008
	c-72.485-14.781-152.245-1.503-208.941,47.495c9.076-59.69,7.007-160.578,7.007-160.578c0.652-10.514,6.591-20.154,16.067-25.764
	c34.048-20.154,37.483-34.416,59.232-41.611c23.046-7.624,43.489-15.051,46.546-24.035c3.661-10.76-0.22-22.429-12.153-24.11
	c-6.676-0.69-14.796-0.275-23.452,0.859l1.113-2.351c9.678-19.175,17.742-26.519,17.742-41.562l0,0
	c0-31.509-50.248-24.875-119.89-24.875c-55.545,0-57.256,79.65-55.672,111.893c0.373,7.583-1.632,15.111-5.833,21.593
	c-13.567,20.946-3.17,37.193-19.946,66.229C1.782,340.745,25.882,425.62,40.969,456.873c5.315,11.012,14.405,20.13,25.947,25.46
	c40.778,18.83,80.297,9.023,80.569,8.873c0.286,1.272,125.545,41.458,322.056,6.621c1.042-0.314,16.922-5.37,16.922-22.577
	c0-18.446,0-174.938,0-194.141C486.463,273.28,480.467,266.696,472.661,266.107z"/>
<path style="fill:#E8C842;" d="M118.927,482.332c-11.543-5.329-20.631-14.448-25.947-25.46
	c-15.088-31.252-39.188-116.127,41.952-256.574c16.776-29.038,6.377-45.283,19.946-66.229c4.2-6.482,6.205-14.01,5.833-21.593
	c-1.583-32.243,0.126-111.893,55.672-111.893c7.985,0,15.711-0.087,23.139-0.194c-20.115-0.973-45.923,0.194-75.15,0.194
	c-55.545,0-57.256,79.65-55.672,111.893c0.373,7.583-1.632,15.111-5.833,21.593c-13.567,20.946-3.17,37.193-19.946,66.229
	C1.782,340.745,25.882,425.62,40.969,456.873c5.315,11.012,14.405,20.13,25.947,25.46c38.172,17.626,75.234,10.161,80.041,9.012
	C138.009,489.585,128.507,486.755,118.927,482.332z"/>
<path style="fill:#DBBC3B;" d="M189.636,51.188l-0.422,1.296c-7.803,23.948,21.04,40.885,48.181,29.094l28.146-12.226
	c-0.046,0.006-0.09,0.01-0.136,0.016l1.115-2.349c4.172-8.266,8.042-14.332,11.098-19.765L231.239,67.4
	c-6.793,2.949-14.455,3.472-21.7,0.629c-4.613-1.817-7.031-6.441-5.625-10.757l0.422-1.296c2.3-7.061,11.487-6.037,30.751-8.474
	c4.242-0.478,7.293-4.304,6.815-8.546c-0.478-4.242-4.305-7.304-8.546-6.815l-20.734,2.336
	C201.263,35.628,192.671,41.876,189.636,51.188z"/>
<g>
</g>
<g>
</g>
<g>
</g>
<g>
</g>
<g>
</g>
<g>
</g>
<g>
</g>
<g>
</g>
<g>
</g>
<g>
</g>
<g>
</g>
<g>
</g>
<g>
</g>
<g>
</g>
<g>
</g>
</svg>
