<?xml version="1.0" encoding="iso-8859-1"?>
<!-- Generator: Adobe Illustrator 19.0.0, SVG Export Plug-In . SVG Version: 6.00 Build 0)  -->
<svg version="1.1" id="Capa_1" xmlns="http://www.w3.org/2000/svg" xmlns:xlink="http://www.w3.org/1999/xlink" x="0px" y="0px"
	 viewBox="0 0 511.999 511.999" style="enable-background:new 0 0 511.999 511.999;" xml:space="preserve">
<path style="fill:#F4D44E;" d="M367.051,255.008l-0.085-221.212c-0.007-17.634-13.53-32.659-31.133-33.716
	c-19.252-1.156-35.227,14.116-35.227,33.117v161.736c0-18.272-14.95-33.222-33.222-33.222l0,0c-18.273,0-33.222,14.95-33.222,33.222
	v3.202c0-18.272-14.95-33.222-33.222-33.222h-0.001c-18.272,0-33.222,14.95-33.222,33.222v1.292
	c-2.013-16.381-16.062-29.177-32.965-29.177l0,0c-18.273,0-33.222,14.95-33.222,33.222c0,47.254,0,104.456,0,151.579
	c0.646,4.412-4.76,43.913,24.597,83.122c7.704,10.29,11.666,22.904,11.666,35.759c0,0.237,0,10.393,0,9.84
	c0,15.589,12.638,28.227,28.227,28.227h155.962c15.473,0,28.018-12.544,28.018-28.018v-14.995c0-8.086,3.647-15.72,9.885-20.864
	c12.814-10.569,33.471-31.252,40.402-65.902c8.542-42.807,9.797-68.767,10.047-70.953
	C412.392,284.086,393.574,259.964,367.051,255.008z"/>
<path style="fill:#E8C842;" d="M168.973,483.773c0-0.42,0-9.614,0-9.84c0-12.855-3.962-25.469-11.666-35.759
	c-29.357-39.21-23.951-78.711-24.597-83.122c0-47.123,0-104.325,0-151.579c0-12.645,7.162-23.694,17.627-29.303
	c-4.654-2.495-9.959-3.919-15.584-3.919c-18.272,0-33.222,14.95-33.222,33.222c0,47.254,0,104.456,0,151.579
	c0.646,4.412-4.76,43.913,24.597,83.122c12.669,16.921,11.666,33.036,11.666,45.598c0,15.589,12.638,28.227,28.227,28.227h31.18
	C181.611,512,168.973,499.363,168.973,483.773z"/>
<g>
	<path style="fill:#F4D44E;" d="M200.94,164.914L200.94,164.914c-18.273,0-33.223,14.95-33.223,33.222v87.265
		c0,18.273,14.95,33.222,33.222,33.222h0.001c18.272,0,33.222-14.95,33.222-33.222v-87.265
		C234.162,179.864,219.212,164.914,200.94,164.914z"/>
	<path style="fill:#F4D44E;" d="M134.752,170.251L134.752,170.251c-18.273,0-33.222,14.95-33.222,33.222v81.928
		c0,18.273,14.949,33.222,33.222,33.222l0,0c18.273,0,33.222-14.95,33.222-33.222v-81.928
		C167.974,185.201,153.025,170.251,134.752,170.251z"/>
	<path style="fill:#F4D44E;" d="M273.892,301.403c-21.292-11.676-33.859-31.707-23.037-54.288
		c9.546-19.917,20.282-18.479,49.752-8.166v-44.015c0-18.272-14.95-33.222-33.222-33.222s-33.222,14.95-33.222,33.222v90.468
		c0,29.038,35.143,44.275,56.268,23.862C280.796,305.127,274.892,301.952,273.892,301.403z"/>
</g>
<g>
	<path style="fill:#DBBC3B;" d="M199.139,285.401v-87.265c0-12.599,7.109-23.616,17.511-29.244
		c-21.865-11.83-48.933,4.101-48.933,29.244v87.265c0,18.272,14.95,33.222,33.222,33.222c0.806-0.105,7.735,0.337,15.711-3.978
		C206.248,309.017,199.139,297.999,199.139,285.401z"/>
	<path style="fill:#DBBC3B;" d="M132.952,285.401v-81.928c0-12.599,7.108-23.616,17.511-29.244
		c-21.975-11.889-48.933,4.201-48.933,29.244v81.928c0,24.993,26.904,41.163,48.933,29.244
		C140.059,309.017,132.952,297.999,132.952,285.401z"/>
	<path style="fill:#DBBC3B;" d="M268.01,297.809c-17.608-11.957-26.939-30.283-17.156-50.694c4.187-8.736,8.604-13.362,14.73-14.934
		v-37.247c0-12.599,7.108-23.616,17.511-29.244c-21.978-11.891-48.933,4.205-48.933,29.244v90.468
		c0,24.991,26.902,41.163,48.924,29.239C276.306,310.97,270.932,305.005,268.01,297.809z"/>
	<path style="fill:#DBBC3B;" d="M333.868,33.88c0-12.31,6.576-23.387,16.549-29.314c-21.485-12.768-49.811,2.663-49.811,28.632
		v161.736c0-0.785-0.038-1.56-0.091-2.332v46.352c9.233,3.049,20.171,6.611,33.271,9.804
		C333.785,248.649,333.868,33.775,333.868,33.88z"/>
</g>
<path style="fill:#E8C842;" d="M298.041,284.846c-23.228-12-37.264-32.289-27.22-55.306c-7.97,0.945-13.99,5.594-19.45,16.324
	c-12.234,24.048,1.973,45.381,26.043,57.815c2.355,1.217,28.684,14.547,67.237,24.021l1.615-3.116c4.809-9.276,0.254-20.72-9.539-24
	C314.159,293.026,299.753,285.73,298.041,284.846z"/>
<g>
</g>
<g>
</g>
<g>
</g>
<g>
</g>
<g>
</g>
<g>
</g>
<g>
</g>
<g>
</g>
<g>
</g>
<g>
</g>
<g>
</g>
<g>
</g>
<g>
</g>
<g>
</g>
<g>
</g>
</svg>
