<?xml version="1.0" encoding="iso-8859-1"?>
<!-- Generator: Adobe Illustrator 19.0.0, SVG Export Plug-In . SVG Version: 6.00 Build 0)  -->
<svg version="1.1" id="Capa_1" xmlns="http://www.w3.org/2000/svg" xmlns:xlink="http://www.w3.org/1999/xlink" x="0px" y="0px"
	 viewBox="0 0 512 512" style="enable-background:new 0 0 512 512;" xml:space="preserve">
<path style="fill:#E8C842;" d="M232.426,0.003L232.426,0.003c-14.438,0-26.931,10.047-30.029,24.148l-25.98,211.257l79.584-6.447
	V23.577C256,10.558,245.445,0.003,232.426,0.003z"/>
<path style="fill:#DBBC3B;" d="M228.667,24.151c2.019-9.191,8.031-16.656,15.969-20.743c-3.562-2.161-7.741-3.405-12.211-3.405l0,0
	c-14.438,0-26.931,10.047-30.029,24.148l-25.98,211.257l26.536-2.149L228.667,24.151z"/>
<path style="fill:#E8C842;" d="M309.604,24.151c-3.098-14.101-15.591-24.148-30.029-24.148C266.554,0.003,256,10.558,256,23.578
	v205.384l79.584,6.447L309.604,24.151z"/>
<path style="fill:#DBBC3B;" d="M281.74,172.447V23.577c0-8.653,4.665-16.213,11.614-20.314C274.874-6.011,256,5.646,256,23.577
	v148.87L281.74,172.447L281.74,172.447z"/>
<path style="fill:#F4D44E;" d="M206.671,428.753l30.494-42.771C249.42,368.62,256,347.891,256,326.639V100.651
	c0-13.02-10.555-23.575-23.575-23.575l0,0c-14.438,0-26.931,10.047-30.029,24.148l-30.332,156.663
	c-2.142,11.063-7.172,21.362-14.578,29.853l-44.728,51.124L206.671,428.753z"/>
<path style="fill:#E8C842;" d="M181.046,301.206c8.257-9.465,13.864-20.948,16.252-33.28l33.814-174.644
	c1.284-5.84,4.014-11.055,7.762-15.305c-14.077-3.996-32.507,5.176-36.477,23.248l-30.332,156.663
	c-2.142,11.063-7.172,21.362-14.578,29.853l-44.728,51.124l19.241,18.417L181.046,301.206z"/>
<path style="fill:#F4D44E;" d="M306.36,429.783l-31.524-43.801c-12.255-17.362-18.835-38.091-18.835-59.343V100.651
	c0-13.02,10.555-23.575,23.575-23.575l0,0c14.438,0,26.931,10.047,30.029,24.148l30.332,156.663
	c2.142,11.063,7.172,21.362,14.578,29.853l45.759,52.154L306.36,429.783z"/>
<path style="fill:#E8C842;" d="M303.078,376.078c-13.297-18.837-20.435-41.328-20.435-64.385V93.284
	c0-5.667,1.846-10.9,4.965-15.139c-17.567-4.753-31.608,7.401-31.608,22.507v225.988c0,21.251,6.58,41.981,18.835,59.343
	l31.524,43.801l20.944-20.046L303.078,376.078z"/>
<path style="fill:#57ADDD;" d="M295.045,437.047l110.384-105.654c3.821-3.657,9.914-3.414,13.431,0.537l86.503,97.17
	c4.274,4.801,6.635,11.004,6.635,17.432v50.315c0,8.368-6.784,15.152-15.152,15.152H358.944c-9.314,0-18.184-3.98-24.377-10.936
	l-40.273-45.239C289.45,450.383,289.781,442.085,295.045,437.047z"/>
<path style="fill:#42A2CC;" d="M407.573,498.934c-85.195-95.757-80.079-89.822-81.45-91.634l-31.08,29.748
	c-5.262,5.037-5.594,13.336-0.75,18.777l40.273,45.239c6.193,6.957,15.063,10.936,24.377,10.936h64.69
	C417.678,508.567,412.241,504.178,407.573,498.934z"/>
<path style="fill:#70BBEF;" d="M316.617,480.9l126.809-121.374l-24.566-27.595c-3.517-3.951-9.61-4.194-13.431-0.537
	L295.045,437.047c-5.262,5.037-5.594,13.336-0.75,18.777L316.617,480.9z"/>
<g>
	<path style="fill:#57ADDD;" d="M357.059,442.191c-30.992-34.87-29.575-33.091-30.934-34.891
		c-33.604,32.294-34.162,31.223-35.099,37.526c-0.606,4.077,0.641,8.045,3.269,10.998l22.322,25.075L357.059,442.191z"/>
	<path style="fill:#57ADDD;" d="M216.956,437.047L106.572,331.395c-3.821-3.657-9.914-3.414-13.431,0.537l-86.503,97.17
		c-4.274,4.801-6.635,11.004-6.635,17.432v50.315c0,8.368,6.783,15.152,15.152,15.152h137.903c9.314,0,18.184-3.98,24.377-10.936
		l40.273-45.239C222.551,450.383,222.219,442.085,216.956,437.047z"/>
</g>
<path style="fill:#42A2CC;" d="M51.063,458.36c0-6.428,2.362-12.632,6.635-17.432l75.134-84.398l-26.26-25.135
	c-3.821-3.657-9.914-3.414-13.431,0.537l-86.503,97.17c-4.274,4.801-6.635,11.004-6.635,17.432v50.315
	c0,8.368,6.784,15.152,15.152,15.152H51.44C50.755,508.942,51.202,511.677,51.063,458.36z"/>
<path style="fill:#70BBEF;" d="M195.384,480.9L68.575,359.526l24.566-27.595c3.517-3.951,9.61-4.194,13.431-0.537l110.384,105.654
	c5.262,5.037,5.594,13.336,0.75,18.777L195.384,480.9z"/>
<path style="fill:#57ADDD;" d="M68.575,359.526l33.255,31.829l31.003-34.826l-26.26-25.135c-3.821-3.657-9.914-3.414-13.431,0.537
	L68.575,359.526z"/>
<g>
</g>
<g>
</g>
<g>
</g>
<g>
</g>
<g>
</g>
<g>
</g>
<g>
</g>
<g>
</g>
<g>
</g>
<g>
</g>
<g>
</g>
<g>
</g>
<g>
</g>
<g>
</g>
<g>
</g>
</svg>
