<?xml version="1.0" encoding="iso-8859-1"?>
<!-- Generator: Adobe Illustrator 19.0.0, SVG Export Plug-In . SVG Version: 6.00 Build 0)  -->
<svg version="1.1" id="Capa_1" xmlns="http://www.w3.org/2000/svg" xmlns:xlink="http://www.w3.org/1999/xlink" x="0px" y="0px"
	 viewBox="0 0 512.001 512.001" style="enable-background:new 0 0 512.001 512.001;" xml:space="preserve">
<g>
	<path style="fill:#F4D44E;" d="M242.878,282.338c-6.909-13.17-20.907-14.299-34.026-8.307
		c-1.651,0.753-24.735,11.538-46.179,33.151c-1.845,1.86-5.017,0.554-5.017-2.065c0-29.655,0-137.494,0-137.388
		c0-10.249-7.667-19.107-17.874-20.027c-11.707-1.057-21.537,8.135-21.537,19.623c0-0.423,0-17.636,0-16.851
		c0-10.685-8.308-19.786-18.987-20.166c-11.211-0.399-20.425,8.571-20.425,19.693c0,10.576,0,7.209,0,17.324
		c0-11.488-9.83-20.68-21.537-19.623c-10.207,0.922-17.874,9.779-17.874,20.028v32.001c0-11.487-9.829-20.679-21.536-19.623
		c-10.206,0.92-17.873,9.777-17.873,20.026c0,7.734,0,143.604,0,152.002c0.382,2.639-2.786,25.837,14.338,49.004
		c4.63,6.264,7.198,13.81,7.198,21.601c0,8.1,0,73.613,0,70.748c0,9.259,7.506,16.765,16.765,16.765h92.627
		c9.19,0,16.64-7.45,16.64-16.64v-77.842c0-2.326,1.063-4.525,2.899-5.954c6.711-5.224,22.98-19.446,26.708-40.156
		c0.939-5.218,2.702-10.271,5.327-14.878c14.199-24.922,46.827-45.985,47.553-46.509
		C243.765,298.39,249.225,294.439,242.878,282.338z"/>
	<path style="fill:#F4D44E;" d="M494.127,180.107c-11.707-1.056-21.536,8.135-21.536,19.623v-32.001
		c0-10.248-7.667-19.107-17.874-20.028c-11.707-1.057-21.537,8.135-21.537,19.623c0-6.171,0-11.124,0-17.324
		c0-11.122-9.214-20.092-20.424-19.693c-10.678,0.38-18.987,9.481-18.987,20.166c0,9.431,0,7.372,0,16.851
		c0-11.488-9.83-20.68-21.537-19.623c-10.207,0.922-17.874,9.773-17.874,20.021c0,42.727,0,102.367,0,144.76
		c-22.7-25.156-49.415-37.638-51.196-38.452c-13.119-5.991-27.117-4.863-34.026,8.307c-6.347,12.101-0.888,16.052,12.813,25.938
		c0.725,0.523,33.354,21.587,47.552,46.508c7.065,12.4,3.277,17.577,12.508,33.365c11.851,20.27,22.426,19.098,22.426,29.472v75.993
		c0,9.19,7.45,16.64,16.64,16.64H473.7c9.259,0,16.765-7.506,16.765-16.765c0-3.313,0-73.893,0-70.748
		c0-7.789,2.568-15.336,7.198-21.6c9.011-12.19,14.338-27.269,14.338-43.592c0-5.269,0-160.066,0-157.416
		C512.001,189.885,504.334,181.028,494.127,180.107z"/>
</g>
<g>
	<path style="fill:#EAE9E8;" d="M285.303,80.267V18.568c0-10.678,9.966-18.559,20.355-16.098l0,0
		c9.611,2.276,14.603,12.905,10.216,21.756l-28.067,56.626C287.188,82.104,285.303,81.662,285.303,80.267z"/>
	<path style="fill:#EAE9E8;" d="M335.074,99.705l39.904-47.503c6.755-8.042,19.248-7.673,25.516,0.754l0,0
		c6,8.065,2.932,19.616-6.279,23.64l-57.6,25.17C335.334,102.324,334.175,100.774,335.074,99.705z"/>
	<path style="fill:#EAE9E8;" d="M226.709,80.267V17.265c0-10.012-9.344-17.401-19.087-15.094l0,0
		c-10.26,2.43-15.589,13.777-10.906,23.224l27.488,55.458C224.824,82.104,226.709,81.662,226.709,80.267z"/>
	<path style="fill:#EAE9E8;" d="M176.938,99.705l-39.785-47.362c-6.816-8.114-19.42-7.742-25.745,0.761l0,0
		c-5.943,7.99-2.904,19.431,6.22,23.418l57.77,25.244C176.677,102.324,177.837,100.774,176.938,99.705z"/>
</g>
<g>
	<path style="fill:#E8C842;" d="M232.309,272.251c-6.774-2.684-13.811-1.946-20.635,0.61c-8.681,3.253-22.331,12.089-30.491,18.233
		l0.001-0.002c-5.934,4.467-12.29,9.819-18.511,16.091c-1.845,1.86-5.017,0.554-5.017-2.065l0,0l0,0
		c0,9.876,12.1,14.643,18.836,7.421l0.052-0.056C195.378,291.609,221.291,275.819,232.309,272.251z"/>
	<path style="fill:#E8C842;" d="M137.357,147.643v-0.011c-10.607,0.315-19.111,9.007-19.113,19.689v95.355
		c0,5.609,4.547,10.155,10.155,10.155c4.947,0,8.957-4.01,8.957-8.957v-96.528c0-5.181,1.876-10.269,5.535-13.937
		c1.316-1.319,2.817-2.452,4.462-3.357l0,0c-0.566-0.316-1.149-0.603-1.748-0.863c-0.004-0.002-0.008-0.004-0.013-0.006
		c-0.561-0.242-1.138-0.454-1.726-0.643c-0.052-0.017-0.103-0.038-0.155-0.054c-0.537-0.168-1.089-0.304-1.647-0.424
		c-0.101-0.022-0.198-0.053-0.3-0.073c-0.648-0.129-1.309-0.227-1.981-0.288C138.962,147.626,138.155,147.617,137.357,147.643z"/>
	<path style="fill:#E8C842;" d="M40.434,493.489c0-2.518,0-62.987,0-70.748c0-7.789-2.568-15.336-7.198-21.601
		c-17.125-23.168-13.956-46.365-14.338-49.004c0-8.398,0-144.268,0-152.002c0-7.494,4.109-14.228,10.302-17.676
		c-13.093-7.205-29.19,2.328-29.19,17.676c0,7.734,0,143.604,0,152.002c0.382,2.639-2.786,25.837,14.338,49.004
		c4.63,6.264,7.198,13.81,7.198,21.601c0,7.762,0,68.23,0,70.748c0,9.259,7.506,16.765,16.765,16.765h18.887
		C47.94,510.254,40.434,502.749,40.434,493.489z"/>
	<path style="fill:#E8C842;" d="M88.203,266.509c5.256,0,9.517-4.261,9.517-9.517c0-21.751,0-81.863,0-106.993
		c0-7.435,4.129-13.891,10.208-17.247c-0.003-0.001-0.005-0.003-0.008-0.004c-0.578-0.324-1.176-0.614-1.789-0.879
		c-0.177-0.076-0.357-0.149-0.537-0.221c-0.364-0.145-0.733-0.279-1.107-0.401c-0.33-0.107-0.662-0.209-0.999-0.299
		c-0.196-0.053-0.394-0.104-0.593-0.151c-0.497-0.115-1.001-0.214-1.513-0.29c-0.126-0.019-0.254-0.033-0.382-0.049
		c-0.574-0.073-1.154-0.131-1.744-0.151l0,0c-11.21-0.399-20.424,8.571-20.424,19.692V257.14
		C78.833,262.314,83.028,266.509,88.203,266.509z"/>
	<path style="fill:#E8C842;" d="M48.869,272.83L48.869,272.83c5.214,0,9.441-4.226,9.441-9.441c0-9.511,0-86.152,0-95.661
		c0-7.494,4.109-14.229,10.303-17.677c-0.408-0.159-4.296-2.646-10.303-2.405v-0.011c-10.865,0.439-18.887,9.64-18.887,20.09l0,0
		c0,10.064,0,85.029,0,95.656C39.421,268.601,43.651,272.83,48.869,272.83z"/>
	<path style="fill:#E8C842;" d="M403.138,279.902c5.256,0,9.517-4.261,9.517-9.517c0-27.829,0-94.317,0-120.386
		c0-7.435,4.129-13.891,10.208-17.247c-0.195-0.101-1.055-0.599-2.333-1.104c-12.614-5.023-26.763,4.37-26.763,18.35v120.533
		C393.767,275.707,397.963,279.902,403.138,279.902z"/>
	<path style="fill:#E8C842;" d="M442.626,272.83L442.626,272.83c5.214,0,9.441-4.226,9.441-9.441c0-9.511,0-86.152,0-95.661
		c0-7.494,4.109-14.229,10.303-17.677c-0.408-0.159-4.296-2.646-10.303-2.405v-0.011c-10.865,0.439-18.887,9.64-18.887,20.09l0,0
		c0,11.856,0,81.103,0,95.656C433.179,268.601,437.408,272.83,442.626,272.83z"/>
	<path style="fill:#E8C842;" d="M482.828,279.902c4.782,0,8.659-3.878,8.659-8.66c0-34.372,0-67.407,0-71.108
		c0-7.494,4.109-14.228,10.302-17.676c-13.082-7.199-29.19,2.288-29.19,17.676v69.54
		C472.599,275.322,477.179,279.902,482.828,279.902L482.828,279.902z"/>
	<path style="fill:#E8C842;" d="M384.661,493.615c-0.038-80.687,0.087-76.017-0.095-77.406c-0.911-7.132-8.767-8.729-8.87-8.831
		l0.004-0.004c-20.785-4.316-33.693-19.225-33.693-19.225c11.851,20.27,22.426,19.098,22.426,29.472v75.993
		c0,9.19,7.45,16.64,16.64,16.64h20.229C392.111,510.254,384.661,502.804,384.661,493.615z"/>
	<path style="fill:#E8C842;" d="M354.356,167.73v105.102l0,0v39.651h3.389c9.3,0,16.84-7.54,16.84-16.84c0-45.456,0-82.302,0-127.92
		c0-7.222,3.818-13.737,9.638-17.285C371.133,142.544,354.356,152.023,354.356,167.73z"/>
</g>
<g>
</g>
<g>
</g>
<g>
</g>
<g>
</g>
<g>
</g>
<g>
</g>
<g>
</g>
<g>
</g>
<g>
</g>
<g>
</g>
<g>
</g>
<g>
</g>
<g>
</g>
<g>
</g>
<g>
</g>
</svg>
