<?xml version="1.0" encoding="iso-8859-1"?>
<!-- Generator: Adobe Illustrator 19.0.0, SVG Export Plug-In . SVG Version: 6.00 Build 0)  -->
<svg version="1.1" id="Capa_1" xmlns="http://www.w3.org/2000/svg" xmlns:xlink="http://www.w3.org/1999/xlink" x="0px" y="0px"
	 viewBox="0 0 512 512" style="enable-background:new 0 0 512 512;" xml:space="preserve">
<path style="fill:#F4D44E;" d="M303.226,425.724c15.048,0,27.247-12.199,27.247-27.247l0,0c0-15.048-12.199-27.247-27.247-27.247
	h11.101c15.048,0,27.247-12.199,27.247-27.247l0,0c0-15.048-12.199-27.247-27.247-27.247h11.101
	c15.048,0,27.247-12.199,27.247-27.247l0,0c0-15.045-12.194-27.241-27.237-27.247h159.309c15.714,0,28.321-13.304,27.174-29.262
	c-1.031-14.331-13.366-25.232-27.735-25.232c-33.939,0-160.861,0-210.724,0c34.783-31.386,52.043-68.326,53.167-70.789
	c8.284-18.139,6.723-37.496-11.486-47.048c-16.732-8.776-22.195-1.228-35.865,17.717c-0.724,1.005-29.943,46.265-64.477,65.848
	c-16.708,9.474-24.093,4.56-45.508,16.933c-21.446,12.391-30.953,28.448-33.454,31.274H23.008C10.301,221.679,0,231.979,0,244.686
	v128.077c0,12.802,10.378,23.18,23.18,23.18c2.49,0,103.544,0,97.825,0c10.775,0,21.211,3.557,29.877,9.961
	c15.822,11.692,35.163,18.895,56.141,19.734C209.235,425.804,203.193,425.688,303.226,425.724z"/>
<g>
	<path style="fill:#E8C842;" d="M303.226,399.969c-100.033-0.036-93.992,0.08-96.203-0.086
		c-20.978-0.839-40.319-8.041-56.141-19.734c-8.666-6.404-19.102-9.961-29.877-9.961c-5.014,0-95.47,0-97.825,0
		c-12.802,0-23.18-10.378-23.18-23.18v25.756c0,12.802,10.378,23.18,23.18,23.18c2.355,0,92.81,0,97.825,0
		c10.775,0,21.211,3.558,29.877,9.961c15.822,11.692,35.163,18.895,56.141,19.734c2.211,0.166-3.83,0.05,96.203,0.086
		c20.8,0,33.617-22.257,24.015-40.125C322.645,394.152,313.616,399.969,303.226,399.969z"/>
	<path style="fill:#E8C842;" d="M484.186,235.388c-1.729,0-204.737,0-197.338,0c-7.392,0-13.385,5.993-13.385,13.385l0,0
		c0,7.4,6,13.4,13.4,13.4c5.055,0,191.148,0,197.323,0c21.524,0,34.529-22.843,24.21-40.609
		C503.564,229.886,494.391,235.388,484.186,235.388z"/>
	<path style="fill:#E8C842;" d="M349.666,277.048c-4.792,7.794-13.38,13.004-23.199,13.007h-39.375
		c-7.528,0-13.63,6.102-13.63,13.63c0,7.266,5.89,13.157,13.157,13.157h30.059c-0.775-0.066-1.558-0.107-2.351-0.107h11.101
		C345.908,316.734,358.905,295.014,349.666,277.048z"/>
	<path style="fill:#E8C842;" d="M317.664,344.497h-31.213c-7.174,0-12.99,5.816-12.99,12.99l0,0c0,7.619,6.176,13.796,13.796,13.796
		h17.61c-0.544-0.032-1.09-0.053-1.642-0.053h11.101c20.488,0,33.452-21.713,24.256-39.654
		C334.171,338.765,326.527,343.752,317.664,344.497z"/>
</g>
<g>
</g>
<g>
</g>
<g>
</g>
<g>
</g>
<g>
</g>
<g>
</g>
<g>
</g>
<g>
</g>
<g>
</g>
<g>
</g>
<g>
</g>
<g>
</g>
<g>
</g>
<g>
</g>
<g>
</g>
</svg>
