<?xml version="1.0" encoding="iso-8859-1"?>
<!-- Generator: Adobe Illustrator 19.0.0, SVG Export Plug-In . SVG Version: 6.00 Build 0)  -->
<svg version="1.1" id="Capa_1" xmlns="http://www.w3.org/2000/svg" xmlns:xlink="http://www.w3.org/1999/xlink" x="0px" y="0px"
	 viewBox="0 0 512.002 512.002" style="enable-background:new 0 0 512.002 512.002;" xml:space="preserve">
<path style="fill:#F4D44E;" d="M86.273,303.23c0,15.048,12.2,27.248,27.248,27.248l0,0c15.048,0,27.248-12.2,27.248-27.248v11.101
	c0,15.048,12.199,27.248,27.248,27.248l0,0c15.048,0,27.248-12.2,27.248-27.248v11.101c0,15.048,12.199,27.248,27.248,27.248l0,0
	c15.045,0,27.242-12.194,27.247-27.237v159.312c0,15.714,13.304,28.322,29.262,27.174c14.332-1.031,25.232-13.366,25.232-27.735
	c0-33.94,0-160.863,0-210.727c31.387,34.784,68.327,52.044,70.79,53.168c18.139,8.284,37.496,6.723,47.049-11.486
	c8.776-16.732,1.228-22.195-17.717-35.865c-1.005-0.724-46.266-29.944-65.848-64.478c-9.473-16.708-4.56-24.093-16.934-45.509
	c-12.391-21.446-28.448-30.953-31.274-33.455V23.008C290.322,10.301,280.021,0,267.314,0H139.235
	c-12.802,0-23.181,10.378-23.181,23.181c0,2.49,0,103.546,0,97.826c0,10.775-3.557,21.212-9.961,29.877
	c-11.693,15.823-18.895,35.163-19.734,56.142C86.193,209.238,86.31,203.196,86.273,303.23z"/>
<g>
	<path style="fill:#E8C842;" d="M112.029,303.23c0.036-100.034-0.08-93.993,0.086-96.204c0.839-20.978,8.042-40.319,19.734-56.142
		c6.404-8.666,9.961-19.102,9.961-29.877c0-5.014,0-95.471,0-97.826C141.81,10.378,152.189,0,164.991,0h-25.756
		c-12.802,0-23.181,10.378-23.181,23.181c0,2.355,0,92.812,0,97.826c0,10.775-3.558,21.212-9.961,29.877
		c-11.693,15.823-18.895,35.163-19.734,56.142c-0.166,2.211-0.05-3.83-0.086,96.204c0,20.801,22.257,33.618,40.126,24.016
		C117.845,322.649,112.029,313.62,112.029,303.23z"/>
	<path style="fill:#E8C842;" d="M276.612,484.193c0-1.729,0-204.74,0-197.341c0-7.392-5.993-13.385-13.385-13.385l0,0
		c-7.401,0-13.401,6-13.401,13.401v25.301v172.025c0,13.914,10.223,25.913,23.874,27.6c0.086,0.01,0.171,0.02,0.257,0.029
		c0.34,0.039,0.682,0.071,1.027,0.097c0.108,0.008,0.217,0.013,0.327,0.02c0.549,0.034,1.093,0.05,1.635,0.052
		c0.137,0,0.273,0.005,0.41,0.003c0.592-0.006,1.18-0.032,1.762-0.075c0.188-0.014,0.374-0.036,0.561-0.054
		c0.385-0.037,0.767-0.082,1.146-0.135c0.253-0.035,0.506-0.069,0.756-0.112c0.271-0.045,0.537-0.103,0.806-0.156
		c2.884-0.583,5.588-1.629,8.048-3.058C282.114,503.571,276.612,494.397,276.612,484.193z"/>
	<path style="fill:#E8C842;" d="M234.951,349.671c-7.794-4.792-13.004-13.38-13.007-23.2v-39.375c0-7.528-6.102-13.63-13.63-13.63
		c-7.266,0-13.157,5.891-13.157,13.157v30.059c0.066-0.776,0.107-1.558,0.107-2.351v11.101
		C195.265,345.913,216.985,358.91,234.951,349.671z"/>
	<path style="fill:#E8C842;" d="M167.501,317.669v-31.213c0-7.174-5.816-12.99-12.99-12.99l0,0c-7.619,0-13.796,6.177-13.796,13.796
		v17.61c0.032-0.544,0.053-1.09,0.053-1.642v11.101c0,15.048,12.2,27.248,27.248,27.248c0.648-0.081,6.067,0.259,12.407-2.991
		C173.233,334.175,168.247,326.531,167.501,317.669z"/>
</g>
<g>
</g>
<g>
</g>
<g>
</g>
<g>
</g>
<g>
</g>
<g>
</g>
<g>
</g>
<g>
</g>
<g>
</g>
<g>
</g>
<g>
</g>
<g>
</g>
<g>
</g>
<g>
</g>
<g>
</g>
</svg>
