<?xml version="1.0" encoding="iso-8859-1"?>
<!-- Generator: Adobe Illustrator 19.0.0, SVG Export Plug-In . SVG Version: 6.00 Build 0)  -->
<svg version="1.1" id="Capa_1" xmlns="http://www.w3.org/2000/svg" xmlns:xlink="http://www.w3.org/1999/xlink" x="0px" y="0px"
	 viewBox="0 0 512 512" style="enable-background:new 0 0 512 512;" xml:space="preserve">
<path style="fill:#F4D44E;" d="M425.72,208.781c0-15.048-12.199-27.247-27.247-27.247l0,0c-15.048,0-27.247,12.199-27.247,27.247
	v-11.1c0-15.048-12.199-27.247-27.247-27.247l0,0c-15.048,0-27.247,12.199-27.247,27.247v-11.1
	c0-15.048-12.199-27.247-27.247-27.247l0,0c-15.045,0-27.241,12.193-27.247,27.237V27.264c0-15.714-13.303-28.321-29.261-27.173
	c-14.331,1.031-25.232,13.366-25.232,27.734c0,33.939,0,160.857,0,210.719c-31.386-34.782-68.325-52.041-70.788-53.165
	c-18.139-8.284-37.496-6.723-47.046,11.487c-8.776,16.732-1.228,22.195,17.716,35.863c1.005,0.724,46.265,29.943,65.845,64.476
	c9.474,16.707,4.56,24.092,16.933,45.507c12.391,21.445,28.447,30.953,31.273,33.454v112.827c0,12.707,10.3,23.007,23.007,23.007
	h128.075c12.802,0,23.181-10.378,23.181-23.181c0-2.49,0-103.542,0-97.822c0-10.775,3.557-21.212,9.961-29.877
	c11.692-15.822,18.895-35.162,19.733-56.139C425.8,302.77,425.684,308.811,425.72,208.781z"/>
<g>
	<path style="fill:#E8C842;" d="M248.465,488.992c0-97.091,0-103.34-0.001-103.503c-0.052-8.27-6.042-15.302-14.111-17.121
		c-27.535-6.205-43.947-25.657-43.947-25.657c12.391,21.445,28.447,30.953,31.273,33.454v112.827
		c0,12.707,10.3,23.007,23.007,23.007h26.786C258.765,512,248.465,501.699,248.465,488.992z"/>
	<path style="fill:#E8C842;" d="M207.746,27.825v172.019l0,0v38.7h7.666c10.559,0,19.119-8.56,19.119-19.119v-19.581
		c0-59.082,0-145.004,0-172.019c0-10.237,5.536-19.438,13.901-24.258C230.3-6.739,207.746,6.487,207.746,27.825z"/>
	<path style="fill:#E8C842;" d="M289.025,159.346v0.44h-4.457c-12.696,2.316-22.323,13.422-22.328,26.786v38.817
		c0,7.266,5.891,13.156,13.156,13.156l0,0c7.527,0,13.63-6.102,13.63-13.63v-38.343c0.004-10.174,5.588-19.038,13.854-23.716
		C298.716,160.501,294.011,159.263,289.025,159.346z"/>
	<path style="fill:#E8C842;" d="M411.866,185.056c-3.071-1.737-6.435-2.871-10.065-3.313c-15.854-1.942-29.603,9.967-30.521,25.395
		v17.563c0,7.645,6.197,13.842,13.842,13.842l0,0c7.148,0,12.943-5.795,12.943-12.943v-18.385
		C398.606,197.699,404.026,189.492,411.866,185.056z"/>
	<path style="fill:#E8C842;" d="M316.84,195.33v29.419c0,7.619,6.176,13.795,13.795,13.795l0,0c7.174,0,12.99-5.815,12.99-12.99
		v-30.181c0.774-9.199,6.11-17.097,13.747-21.417C340.476,164.397,318.554,175.304,316.84,195.33z"/>
</g>
<g>
</g>
<g>
</g>
<g>
</g>
<g>
</g>
<g>
</g>
<g>
</g>
<g>
</g>
<g>
</g>
<g>
</g>
<g>
</g>
<g>
</g>
<g>
</g>
<g>
</g>
<g>
</g>
<g>
</g>
</svg>
