<?xml version="1.0" encoding="iso-8859-1"?>
<!-- Generator: Adobe Illustrator 19.0.0, SVG Export Plug-In . SVG Version: 6.00 Build 0)  -->
<svg version="1.1" id="Capa_1" xmlns="http://www.w3.org/2000/svg" xmlns:xlink="http://www.w3.org/1999/xlink" x="0px" y="0px"
	 viewBox="0 0 512 512" style="enable-background:new 0 0 512 512;" xml:space="preserve">
<path style="fill:#F4D44E;" d="M451.196,247.099c-11.226-21.402-33.974-23.236-55.293-13.5
	c-2.687,1.226-40.285,18.792-75.169,53.999c-2.953,2.98-8.027,0.927-8.027-3.268c0-48.407,0-228.324,0-223.477
	c0-16.886-12.811-31.384-29.654-32.596c-18.756-1.35-34.391,13.468-34.391,31.936c0-2.146,0-28.793,0-27.432
	c0-17.479-13.704-32.283-31.178-32.733c-18.072-0.465-32.868,14.045-32.868,32.013c0,15.762,0,12.317,0,28.152
	c0-18.469-15.637-33.286-34.393-31.936c-16.843,1.212-29.653,15.71-29.653,32.596v52.003c0-18.467-15.634-33.284-34.388-31.936
	c-16.844,1.21-29.656,15.708-29.656,32.595v255.807c0,26.789,8.83,51.516,23.739,71.428c14.028,18.737,10.81,38.411,11.259,42.2
	v1.809c0,15.046,12.197,27.243,27.243,27.243h150.524c14.934,0,27.041-12.107,27.041-27.041v-17.367
	c0-5.985,2.705-11.635,7.34-15.421c12.089-9.874,35.363-32.179,40.84-63.553c1.172-6.715,3.114-13.288,6.203-19.366
	c21.549-42.4,78.439-79.123,79.66-80.004C452.639,273.184,461.51,266.763,451.196,247.099z"/>
<g>
	<path style="fill:#E8C842;" d="M121.377,482.947c-0.448-3.791,2.768-23.464-11.259-42.199
		c-14.909-19.912-23.739-44.638-23.739-71.428c0-12.186,0-245.838,0-255.807c0-12.341,6.847-23.399,17.105-28.934
		c0.221-0.119-6.68-3.72-14.844-3.745C70.8,80.78,56.525,95.74,56.525,113.58v255.74c0,26.789,8.83,51.516,23.739,71.428
		c14.027,18.735,10.811,38.408,11.259,42.199C91.526,501.816,105.187,512,118.795,512h29.826
		C134.993,512,121.378,501.799,121.377,482.947z"/>
	<path style="fill:#E8C842;" d="M184.616,32.042c0,39.785,0,145.677,0,185.663c0,18.641,29.853,18.614,29.853,0
		c0-38.196,0-143.491,0-185.663c0-12.24,6.869-22.872,16.963-28.261c0.019-0.01,0.019-0.037,0-0.047
		C210.661-7.412,184.616,7.675,184.616,32.042z"/>
	<path style="fill:#E8C842;" d="M294.292,31.251c-20.693-9.942-45.621,5.128-45.63,28.932c0,20.58,0,143.466,0,163.704
		c0,7.701,6.243,13.944,13.944,13.944h1.964c7.701,0,13.944-6.243,13.944-13.944c0-20.925,0-141.521,0-165.058
		C278.515,47.076,284.855,36.821,294.292,31.251z"/>
	<path style="fill:#E8C842;" d="M433.573,230.577c0-0.025,0-0.025,0.001-0.05c-0.751-0.245-3.758-1.613-8.747-2.249
		c-0.005-0.001-0.01-0.001-0.015-0.002c-18.186-2.311-36.455,8.066-55.548,20.304c-6.767,4.333-13.426,9.009-19.619,13.723l0,0
		c-9.308,7.089-19.214,15.508-28.91,25.295c-2.953,2.98-8.027,0.927-8.027-3.268l0,0l0,0c0,15.652,19.176,23.203,29.849,11.755
		l0.05-0.053C373.527,261.784,415.917,236.17,433.573,230.577z"/>
	<path style="fill:#E8C842;" d="M120.571,80.917v135.745c0,8.277,6.71,14.986,14.987,14.986c8.21,0,14.866-6.656,14.866-14.866
		c0-21.999,0-137.659,0-155.93c0-21.319,17.467-28.777,17.107-28.982c-21.475-11.348-46.96,4.519-46.96,28.982L120.571,80.917
		L120.571,80.917z"/>
</g>
<g>
</g>
<g>
</g>
<g>
</g>
<g>
</g>
<g>
</g>
<g>
</g>
<g>
</g>
<g>
</g>
<g>
</g>
<g>
</g>
<g>
</g>
<g>
</g>
<g>
</g>
<g>
</g>
<g>
</g>
</svg>
