<?xml version="1.0" encoding="iso-8859-1"?>
<!-- Generator: Adobe Illustrator 19.0.0, SVG Export Plug-In . SVG Version: 6.00 Build 0)  -->
<svg version="1.1" id="Capa_1" xmlns="http://www.w3.org/2000/svg" xmlns:xlink="http://www.w3.org/1999/xlink" x="0px" y="0px"
	 viewBox="0 0 512 512" style="enable-background:new 0 0 512 512;" xml:space="preserve">
<path style="fill:#F4D44E;" d="M388.419,0.706c-19.147-3.713-36.728,8.483-40.98,27.518l-45.086,182.832L257.267,28.224
	c-4.252-19.035-21.833-31.232-40.98-27.518c-16.952,3.287-29.066,19.708-25.749,36.656l27.641,125.169
	c-23.803-19.509-59.319,0.49-54.786,31.022l0.192,1.3c-4.468-16.166-20.499-26.932-37.49-24.41
	c-16.916,2.511-28.803,17.432-28.803,32.75c0,5.141,0,95.613,0,90.572c0,10.276,0,57.662,0,68.007
	c0,28.186,9.284,54.204,24.962,75.162c7.846,10.489,11.888,23.339,11.888,36.438c0,0.178,0,10.327,0,9.773
	c0,15.936,12.919,28.855,28.855,28.855h158.146c15.819,0,28.642-12.823,28.642-28.642c0.027-30.261-0.061-28.349,0.067-28.448
	c3.022-3.03,41.096-25.177,51.034-74.793c8.663-43.413,9.987-70.15,10.209-72.102c2.094-27.621-17.029-52.134-43.982-57.17h-0.086
	l47.144-213.484C417.485,20.415,405.372,3.994,388.419,0.706z"/>
<path style="fill:#E8C842;" d="M170.545,483.145c0-12.983,0.965-29.028-11.888-46.211c-15.678-20.958-24.962-46.976-24.962-75.162
	c0-6.679,0-28.789,0-46.389c-10.693-4.371-18.911-14.103-20.721-26.297l-12.226-82.352c-1.871-12.599,3.564-24.673,13.089-31.896
	c-10.12,6.06-16.545,17.096-16.545,28.355c0,4.866,0,86.146,0,90.572c0,0.104,0,0.181,0,0.198c0,10.641,0,57.523,0,67.808
	c0,28.186,9.283,54.204,24.962,75.162c12.834,17.159,11.887,33.452,11.887,46.211c0,15.936,12.919,28.855,28.855,28.855h36.404
	C183.464,512,170.545,499.081,170.545,483.145z"/>
<path style="fill:#DBBC3B;" d="M246.238,243.294c5.459-10.547,11.479-15.117,19.449-16.045c-0.022,0.049-0.04,0.098-0.061,0.148
	c0.051-0.009,0.099-0.021,0.15-0.03L223.26,32.37c0,0-5.888-22.3,8.687-31.177c-24.002-6.375-45.748,13.993-41.409,36.168
	l27.641,125.169l24.28,105.591l0.11-0.518C240.861,260.041,241.812,251.844,246.238,243.294z"/>
<path style="fill:#E8C842;" d="M292.905,281.611c-23.227-11.795-37.262-31.738-27.219-54.362
	c-7.969,0.929-13.99,5.499-19.449,16.045c-12.233,23.637,1.973,44.606,26.041,56.829c2.355,1.196,28.682,14.3,67.234,23.611
	l1.615-3.062c4.809-9.118,0.253-20.368-9.539-23.591C309.023,289.653,294.618,282.482,292.905,281.611z"/>
<path style="fill:#F4D44E;" d="M191.828,155.201L191.828,155.201c-18.367,2.726-31.164,19.985-28.438,38.352l13.022,87.717
	c2.726,18.367,19.985,31.163,38.352,28.437h0.001c18.367-2.726,31.163-19.985,28.437-38.352l-13.022-87.717
	C227.454,165.271,210.195,152.475,191.828,155.201z"/>
<g>
	<path style="fill:#DBBC3B;" d="M209.809,276.312l-13.022-87.717c-1.884-12.69,2.858-24.73,11.358-31.764
		c-23.774-8.581-48.495,11.516-44.752,36.721l13.021,87.717c2.726,18.367,19.986,31.163,38.352,28.437
		c0.789-0.224,7.78-0.808,15.14-6.3C219.726,299.145,211.692,289.001,209.809,276.312z"/>
	<path style="fill:#DBBC3B;" d="M143.278,286.189l-12.226-82.352c-1.827-12.307,3.295-24.104,12.374-31.372
		c-24.19-9.622-49.548,10.869-45.768,36.33l12.226,82.352c3.777,25.45,33.989,37.707,54.349,21.467
		C153.435,308.296,145.105,298.496,143.278,286.189z"/>
	<path style="fill:#DBBC3B;" d="M388.419,0.706c-23.859-4.627-35.638,14.992-35.741,15.079l0,0
		c-6.054,10.366-2.988,5.699-17.403,61.766c-6.764,27.878-16.985,69.777-32.922,133.505c0,0,33.303,13.818,41.425-20.689l0,0
		l38.201-162.292l0,0c0,0,0.001-0.008,0.002-0.009c4.468-14.19,14.925-17.061,28.442-11.796l0,0
		C405.813,8.456,397.871,2.539,388.419,0.706z"/>
</g>
<g>
</g>
<g>
</g>
<g>
</g>
<g>
</g>
<g>
</g>
<g>
</g>
<g>
</g>
<g>
</g>
<g>
</g>
<g>
</g>
<g>
</g>
<g>
</g>
<g>
</g>
<g>
</g>
<g>
</g>
</svg>
