<?xml version="1.0" encoding="iso-8859-1"?>
<!-- Generator: Adobe Illustrator 19.0.0, SVG Export Plug-In . SVG Version: 6.00 Build 0)  -->
<svg version="1.1" id="Capa_1" xmlns="http://www.w3.org/2000/svg" xmlns:xlink="http://www.w3.org/1999/xlink" x="0px" y="0px"
	 viewBox="0 0 512.001 512.001" style="enable-background:new 0 0 512.001 512.001;" xml:space="preserve">
<path style="fill:#F4D44E;" d="M395.441,147.015c-0.085-18.132-0.142-14.271-0.107-91.486c0-21.969-16.667-40.829-38.578-42.405
	c-24.401-1.755-44.741,17.521-44.741,41.547c0-7.617,0-5.346,0-12.943c0-22.942-18.771-41.713-41.713-41.713
	c-22.942,0-41.712,18.771-41.712,41.713v10.488c0-22.942-18.772-41.713-41.713-41.713h-0.001c-22.942,0-41.713,18.771-41.713,41.713
	c0,0.182,0,8.433,0,8.09c-0.301-1.223-1.102-13.779-12.259-24.693c-26.713-26.207-70.845-6.472-70.845,29.773
	c0,38.999,0,157.844,0,207.244c0.79,5.395-5.978,55.136,30.883,104.367c9.674,12.92,14.648,28.758,14.648,44.898
	c0,17.561,0,38.694,0,54.664c0,19.574,15.868,35.442,35.441,35.442h195.823c19.428,0,35.178-15.75,35.178-35.178v-77.606
	c3.634-3.214,29.027-18.891,47.54-50.675c9.72-16.689,12.887-28.212,15.599-41.801c10.725-53.747,12.301-86.343,12.615-89.088
	C452.371,183.525,428.743,153.237,395.441,147.015z"/>
<path style="fill:#E8C842;" d="M149.333,476.558c0-15.969,0-37.101,0-54.664c0-16.141-4.974-31.977-14.648-44.898
	c-36.861-49.231-30.094-98.973-30.883-104.367c0-49.399,0-168.245,0-207.244c0-15.364,8.416-28.829,20.84-36.066
	C96.78,13.05,62.058,33.63,62.058,65.386c0,38.999,0,157.844,0,207.244c0.79,5.395-5.978,55.136,30.883,104.367
	c9.674,12.92,14.648,28.758,14.648,44.898c0,17.561,0,38.694,0,54.664c0,19.574,15.868,35.442,35.441,35.442h41.745
	C165.2,512,149.333,496.132,149.333,476.558z"/>
<path style="fill:#F4D44E;" d="M186.875,10.504L186.875,10.504c-22.943,0-41.713,18.771-41.713,41.713v132.96
	c0,22.942,18.772,41.713,41.713,41.713h0.001c22.942,0,41.713-18.771,41.713-41.713V52.217
	C228.588,29.274,209.817,10.504,186.875,10.504z"/>
<path style="fill:#DBBC3B;" d="M186.875,185.177V52.217c0-15.356,8.415-28.833,20.857-36.073
	c-27.49-15.999-62.57,3.924-62.57,36.073v132.96c0,31.931,34.866,52.197,62.57,36.073
	C195.29,214.01,186.875,200.533,186.875,185.177z"/>
<path style="fill:#F4D44E;" d="M103.77,23.672L103.77,23.672c-22.943,0-41.713,18.771-41.713,41.713v119.791
	c0,22.942,18.771,41.713,41.713,41.713l0,0c22.943,0,41.713-18.771,41.713-41.713V65.386
	C145.484,42.444,126.713,23.672,103.77,23.672z"/>
<path style="fill:#DBBC3B;" d="M103.448,185.177V65.386c0-15.422,8.489-28.95,21.018-36.167
	C96.697,13.223,62.058,33.6,62.058,65.386v119.791c0,31.794,34.649,52.158,62.408,36.167
	C111.936,214.126,103.448,200.599,103.448,185.177z"/>
<path style="fill:#F4D44E;" d="M278.472,205.268c-26.733-14.661-42.513-39.811-28.926-68.163
	c11.985-25.007,25.465-23.202,62.468-10.254V41.729c0-22.942-18.771-41.713-41.713-41.713c-22.943,0-41.713,18.771-41.713,41.713
	v143.448c0,36.46,44.124,55.592,70.649,29.961C287.141,209.945,279.728,205.957,278.472,205.268z"/>
<path style="fill:#DBBC3B;" d="M269.754,199.823c-21.236-15.024-32.239-37.613-20.207-62.717
	c5.054-10.546,10.382-16.308,17.62-18.493V41.729c0-15.993,9.127-29.949,22.424-36.943c-27.567-14.497-61.002,5.705-61.002,36.943
	v143.448c0,32.367,34.773,51.074,61.137,36.933C280.791,217.502,273.449,209.767,269.754,199.823z"/>
<path style="fill:#F4D44E;" d="M395.334,146.998c0-0.202,0-7.642,0-7.168c0-17.737,0-66.6,0-84.301
	c0-21.969-16.667-40.829-38.578-42.405c-24.4-1.755-44.74,17.52-44.741,41.545v72.182c-12.425-4.347,33.321,13.215,80.175,19.637
	C393.247,146.634,394.295,146.806,395.334,146.998z"/>
<path style="fill:#DBBC3B;" d="M352.642,55.529c0-15.69,8.505-29.79,21.347-37.145c-27.027-15.478-61.971,4.037-61.973,36.285
	v72.182c-8.776-3.071,11.47,4.788,40.627,11.933C352.642,120.26,352.642,72.899,352.642,55.529z"/>
<path style="fill:#E8C842;" d="M353.016,245.859c0.079-7.137-4.592-13.467-11.437-15.486c-36.452-10.75-60.736-23.803-63.108-25.105
	c-26.734-14.661-42.514-39.811-28.926-68.163c5.128-10.7,10.687-16.275,17.619-18.416c0,0-10.879,26.714,12.785,38.546
	c23.664,11.832,72.69,22.464,88.313,52.472c10.739,20.629,3.949,42.238-5.567,57.25c-2.894,4.566-9.942,2.518-9.882-2.887
	L353.016,245.859z"/>
<g>
</g>
<g>
</g>
<g>
</g>
<g>
</g>
<g>
</g>
<g>
</g>
<g>
</g>
<g>
</g>
<g>
</g>
<g>
</g>
<g>
</g>
<g>
</g>
<g>
</g>
<g>
</g>
<g>
</g>
</svg>
