<?xml version="1.0" encoding="iso-8859-1"?>
<!-- Generator: Adobe Illustrator 19.0.0, SVG Export Plug-In . SVG Version: 6.00 Build 0)  -->
<svg version="1.1" id="Capa_1" xmlns="http://www.w3.org/2000/svg" xmlns:xlink="http://www.w3.org/1999/xlink" x="0px" y="0px"
	 viewBox="0 0 511.96 511.96" style="enable-background:new 0 0 511.96 511.96;" xml:space="preserve">
<circle style="fill:#F4D44E;" cx="256" cy="255.961" r="255.96"/>
<path style="fill:#E8C842;" d="M172.632,451.871C11.147,358.638,1.398,130.347,150.737,22.645
	C103.485,43.916,62.224,79.678,34.334,127.982c-70.68,122.423-28.735,278.964,93.687,349.644
	c90.078,52.007,198.625,43.033,277.852-14.105C333.369,496.159,246.75,494.663,172.632,451.871z"/>
<g>
	<path style="fill:#656566;" d="M342.857,217.252c-8.139-12.141-23.151-12.119-31.277,0l-10.767,16.062
		c-2.377,3.545-1.43,8.344,2.116,10.721c3.546,2.376,8.345,1.428,10.72-2.116l10.767-16.062c1.975-2.945,3.622-2.955,5.605,0
		l10.767,16.062c1.49,2.223,3.935,3.426,6.425,3.426c6.087-0.002,9.881-6.853,6.411-12.031L342.857,217.252z"/>
	<path style="fill:#656566;" d="M200.367,217.098c-8.14-12.141-23.153-12.118-31.276,0l-10.768,16.063
		c-3.469,5.174,0.322,12.031,6.411,12.031c2.49,0,4.935-1.201,6.425-3.426l10.769-16.063c1.969-2.938,3.619-2.961,5.604,0
		l10.768,16.063c2.378,3.545,7.176,4.492,10.721,2.116c3.545-2.376,4.492-7.176,2.116-10.721L200.367,217.098z"/>
	<path style="fill:#656566;" d="M292.99,327.364c-6.607-6.98-16.417-9.556-25.674-6.704l-24.807,7.92
		c-4.065,1.298-6.308,5.646-5.011,9.711c1.298,4.066,5.646,6.309,9.711,5.011l24.732-7.896c3.523-1.084,7.29-0.096,9.825,2.583
		c3.819,4.036,4.414,12.459,1.117,15.813c-4.264,4.336-9.384,2.407-15.581,2.878c-4.268,0-7.727,3.46-7.727,7.727
		s3.459,7.727,7.727,7.727c6.189,0.471,11.318-1.458,15.58,2.878c3.298,3.354,2.703,11.778-1.115,15.812
		c-2.536,2.68-6.302,3.669-9.751,2.607l-24.807-7.92c-4.066-1.298-8.413,0.945-9.711,5.011c-1.298,4.065,0.945,8.413,5.011,9.711
		l24.885,7.944c9.315,2.869,19.09,0.144,25.598-6.73c10.449-11.041,9.195-28.546,1.124-37.039
		C303.884,354.176,301.622,336.484,292.99,327.364z"/>
</g>
<g>
</g>
<g>
</g>
<g>
</g>
<g>
</g>
<g>
</g>
<g>
</g>
<g>
</g>
<g>
</g>
<g>
</g>
<g>
</g>
<g>
</g>
<g>
</g>
<g>
</g>
<g>
</g>
<g>
</g>
</svg>
