<?xml version="1.0" encoding="iso-8859-1"?>
<!-- Generator: Adobe Illustrator 19.0.0, SVG Export Plug-In . SVG Version: 6.00 Build 0)  -->
<svg version="1.1" id="Capa_1" xmlns="http://www.w3.org/2000/svg" xmlns:xlink="http://www.w3.org/1999/xlink" x="0px" y="0px"
	 viewBox="0 0 512 512" style="enable-background:new 0 0 512 512;" xml:space="preserve">
<path style="fill:#E8C842;" d="M508.515,325.96l-53.871-185.393h-4.62l9.951,207.674c0,32.335-27.738,58.792-61.64,58.792
	s-59.578-28.516-59.58-60.85v1.636c0,35.73-31.49,66.819-66.734,64.948c-32.804-1.74-58.231-38.404-58.231-72.064v-0.704
	c0,17.357-7.45,41.25-19.222,52.037l0.003,1.156c-5.541,42.983,28.219,75.945,61.278,73.122l30.402-2.596l120.811-0.633
	c29.754-0.156,57.491-15.069,74.031-39.804l16.106-24.087C511.604,377.652,515.746,350.845,508.515,325.96z"/>
<path style="fill:#DBBC3B;" d="M481.094,394.897c-16.539,24.734-44.276,39.647-74.031,39.804l-120.811,0.633l-30.402,2.596
	c-26.019,2.221-52.458-17.731-59.843-47.281c-0.476,0.466-0.947,0.937-1.438,1.387l0.003,1.156
	c-5.541,42.982,28.219,75.945,61.278,73.122l30.402-2.596l120.811-0.633c29.754-0.156,57.491-15.069,74.031-39.804l16.106-24.087
	c12.437-18.599,17.216-41.125,13.637-62.95C506.349,363.612,492.148,376.393,481.094,394.897z"/>
<path style="fill:#F4D44E;" d="M453.475,116.745c-2.675-54.469-79.769-72.127-106.64-25.185c-2.52,4.402-9.281,3.649-10.819-1.377
	c-7.892-25.775-31.954-44.661-60.226-44.661c-25.067,0-46.823,14.849-56.936,36.181c-3.83,8.081-15.054,9.125-21.028,2.439
	c-32.711-36.612-92.621-19.274-101.57,28.248c-1.424,7.562-10.51,12.014-16.364,6.595c-14.907-13.798-32.378-12.716-32.275-12.695
	C21.427,106.289,0,127.716,0,153.905v186.413c0,26.189,21.427,47.616,47.616,47.616l0,0c26.189,0,47.616-21.427,47.616-47.616
	v12.203c0,31.425,24.327,57.959,55.71,59.584c33.719,1.746,61.874-25.354,61.874-58.712v0.704c0,33.661,26.057,62.081,59.672,63.823
	c36.118,1.871,66.275-27.158,66.275-62.888v-1.636c0.001,32.334,28.426,58.79,63.166,58.79s63.166-26.457,63.166-58.792
	L453.475,116.745z"/>
<g>
	<path style="fill:#E8C842;" d="M60.517,108.078c-7.468-2.147-12.959-1.801-12.901-1.788C21.427,106.289,0,127.716,0,153.905
		v186.413c0,31.288,30.125,54.414,60.494,45.82c-19.982-5.654-34.738-24.092-34.738-45.82V153.905
		C25.756,132.168,40.523,113.725,60.517,108.078z"/>
	<path style="fill:#E8C842;" d="M414.807,410.943c-27.777-5.411-49.002-27.937-50.229-55.068V169.617
		c0-7.112-5.765-12.878-12.878-12.878c-7.113,0-12.878,5.765-12.878,12.878v185.942c0.526,13.332,5.895,25.552,14.487,35.21
		c-0.006,0.009-0.012,0.018-0.018,0.027c2.986,3.354,7.069,7.026,11.287,9.921V400.7
		C379.516,410.961,397.779,414.26,414.807,410.943z"/>
	<path style="fill:#E8C842;" d="M120.988,352.52v-12.203c0,0.223-0.017,0.444-0.02,0.666V169.617
		c0-7.112-5.765-12.878-12.878-12.878c-7.112,0-12.878,5.765-12.878,12.878v171.502c0.005-0.268,0.02-0.532,0.02-0.802v12.203
		c0,37.169,33.946,66.741,71.675,58.219C140.4,404.737,120.988,380.588,120.988,352.52z"/>
	<path style="fill:#E8C842;" d="M238.759,358.852V169.617c0-7.112-5.765-12.878-12.878-12.878c-7.113,0-12.878,5.765-12.878,12.878
		v189.161c0.868,11.993,5.035,23.167,11.625,32.507c-0.001,0.001-0.002,0.003-0.003,0.004c3.881,5.494,8.88,10.592,14.135,14.487
		v-0.019c14.889,11.049,33.048,14.448,49.908,10.908C261.327,410.911,240.841,387.172,238.759,358.852z"/>
	<path style="fill:#E8C842;" d="M104.138,92.018L104.138,92.018c-3.612,5.79-6.409,12.695-7.849,20.205h0.001
		c-1.095,5.704-5.997,9.276-10.684,9.134l0.004,0.014c0,0,13.025,9.155,28.521,0.215c6.724-4.198,8.092-10.894,8.302-11.232
		c5.334-23.919,23.769-39.808,44.772-44.47C143.351,60.488,117.444,70.686,104.138,92.018z"/>
	<path style="fill:#E8C842;" d="M226.952,68.891c-0.003-0.001-0.006-0.002-0.009-0.003c-2.656,3.268-5.273,7.238-7.305,11.232
		c0.006,0.005,0.011,0.011,0.017,0.017c-0.267,0.523-0.55,1.035-0.802,1.566c-2.051,4.326-6.222,6.614-10.572,6.8l0.017,0.033
		c0,0,13.37,6.26,26.188,1.209c7.836-3.626,11.468-10.708,11.468-10.708h0.012c8.668-16.241,24.23-28.3,42.722-32.178
		C265.905,42.066,242.081,50.278,226.952,68.891z"/>
	<path style="fill:#E8C842;" d="M365.214,72.513L365.214,72.513c-2.864,1.746-5.949,4.104-8.237,6.224
		c0.003,0.005,0.005,0.01,0.008,0.015c-11.02,10.2-9.251,16.213-15.706,15.666l0,0c0.107,0.015,10.884,8.473,23.282,2.419
		c7.965-3.889,11.247-10.386,12.2-11.52c8.114-10.568,19.179-16.914,31.063-19.497C393.41,62.799,377.945,64.749,365.214,72.513z"/>
</g>
<g>
</g>
<g>
</g>
<g>
</g>
<g>
</g>
<g>
</g>
<g>
</g>
<g>
</g>
<g>
</g>
<g>
</g>
<g>
</g>
<g>
</g>
<g>
</g>
<g>
</g>
<g>
</g>
<g>
</g>
</svg>
