<?xml version="1.0" encoding="iso-8859-1"?>
<!-- Generator: Adobe Illustrator 19.0.0, SVG Export Plug-In . SVG Version: 6.00 Build 0)  -->
<svg version="1.1" id="Capa_1" xmlns="http://www.w3.org/2000/svg" xmlns:xlink="http://www.w3.org/1999/xlink" x="0px" y="0px"
	 viewBox="0 0 512 512" style="enable-background:new 0 0 512 512;" xml:space="preserve">
<path style="fill:#E8C842;" d="M218.132,90.418l39.601,35.999l-0.073,0.613c26.289,17.558,57.566,62.279,63.525,74.718l0.206,0.432
	c-3.74-52.339-18.765-98.775-34.089-128.25c-44.225-38.04-23.074-19.847-29.036-24.975c-12.547-10.758-31.413-9.416-42.312,3.008
	l0,0C206.075,63.229,207.043,80.336,218.132,90.418z"/>
<path style="fill:#DBBC3B;" d="M274.096,104.169L234.53,67.863c-6.735-6.123-9.729-14.837-8.834-23.26
	c-3.61,1.711-6.938,4.166-9.738,7.358l0,0c-9.882,11.267-8.915,28.374,2.174,38.456l39.601,35.999l-0.073,0.613
	c26.289,17.558,57.566,62.279,63.525,74.718l0.206,0.432c-1.532-21.435-4.958-41.876-9.521-60.571
	C300.348,127.225,286.659,112.56,274.096,104.169z"/>
<path style="fill:#F4D44E;" d="M409.023,213.956c0,0-15.298-127.278-86.1-203.414c-11.446-12.309-30.305-14.073-43.801-4.053l0,0
	c-13.085,9.716-16.419,27.9-7.613,41.614c17.141,26.695,41.9,75.234,48.169,139.9c0.286,6.702-3.07,1.35-3.07,1.35l-0.007,0.006
	c-28.651-44.415-61.199-67.195-81.558-75.647c-4.535-1.883-9.51-2.408-14.357-1.621c-17.224,2.794-64.728,10.984-88.774,35.029
	c-30.283,30.283-1.653,57.283,19.837,57.283c14.204,0,38.517-9.627,53.372-16.155c7.643-3.359,16.583-1.203,21.874,5.255
	l27.736,33.858c3.811,4.653,5.992,10.428,6.204,16.44l2.138,60.385c0.174,4.93-1.879,9.676-5.591,12.924l-21.595,18.898
	c-8.474,8.851-22.123,10.23-32.197,3.253c-4.376-3.83-16.65-8.118-19.451-22.745c-6.044-31.55-14.779-58.399-15.659-60.426
	c-9.984-22.999-29.385-37.82-53.628-28.836c-36.142,13.393-7.081,35.138-3.096,125.224c0.581,13.138,5.731,25.049,13.89,34.197
	c17.748,19.899,31.1,39.169,59.187,76.573c2.833,3.799,5.238,7.9,7.172,12.228l0,0c3.194,7.146,2.754,13.274,2.799,13.729
	c0,12.59,10.206,22.796,22.796,22.796h132.07c11.72,0,21.221-9.501,21.221-21.221c1.224-49.917-3.383-61.637,5.681-78.686
	c5.211-9.808,9.284-20.168,12.635-30.757c3.352-10.596,7.748-21.867,12.106-34.262C426.297,276.294,409.35,217.938,409.023,213.956z
	"/>
<g>
	<path style="fill:#E8C842;" d="M226.028,489.24c-0.047-0.474,0.412-6.874-2.924-14.337l0,0c-2.02-4.519-4.532-8.801-7.491-12.769
		c-29.331-39.06-43.275-59.184-61.809-79.964c-8.52-9.553-13.899-21.992-14.505-35.712c-3.402-76.893-24.288-106.104-11.2-121.848
		c-4.19,0.108-8.583,0.954-13.147,2.645c-36.142,13.393-7.081,35.138-3.096,125.224c0.581,13.138,5.731,25.049,13.89,34.197
		c17.748,19.899,31.1,39.169,59.187,76.573c2.833,3.799,5.238,7.9,7.172,12.228l0,0c3.194,7.146,2.754,13.274,2.799,13.729
		c0,12.59,10.206,22.796,22.796,22.796h25.137C233.105,509.011,226.028,499.953,226.028,489.24z"/>
	<path style="fill:#E8C842;" d="M294.982,232.967c-0.222-6.277-2.498-12.309-6.479-17.169l-28.966-35.358
		c-5.525-6.744-14.861-8.996-22.843-5.488c-15.512,6.817-40.904,16.871-55.736,16.871c-26.363,0-54.963-34.461-13.327-66.239
		c-13.35,5.178-26.326,12.143-35.721,21.537c-30.283,30.283-1.653,57.283,19.837,57.283c14.204,0,38.517-9.627,53.372-16.155
		c7.643-3.359,16.583-1.203,21.874,5.255l27.736,33.858c3.811,4.653,5.992,10.428,6.204,16.44c2.05,62.734,3.03,62.551,0.639,67.8
		c-2.031,4.425-3.368,4.827-23.689,22.658l0,0c-2.142,1.56-7.263,8.596-18.292,9.356l-0.001,0.017c0,0,22.08,4.43,43.047-9.629
		c2.748-1.522-0.155,0.86,28.738-24.482c3.877-3.393,6.021-8.349,5.838-13.496L294.982,232.967z"/>
	<path style="fill:#E8C842;" d="M354.375,158.748c-8.714-59.574-31.89-104.514-48.351-130.15
		c-5.608-8.733-6.493-19.201-3.237-28.342c-8.139-1.005-16.63,1.009-23.664,6.232l0,0c-13.085,9.716-16.419,27.9-7.613,41.614
		c25.405,39.563,43.167,88.306,48.169,139.9c0.078,1.839-0.118,2.765-0.443,3.149C358.805,191.153,354.375,158.748,354.375,158.748z
		"/>
</g>
<g>
</g>
<g>
</g>
<g>
</g>
<g>
</g>
<g>
</g>
<g>
</g>
<g>
</g>
<g>
</g>
<g>
</g>
<g>
</g>
<g>
</g>
<g>
</g>
<g>
</g>
<g>
</g>
<g>
</g>
</svg>
