<?xml version="1.0" encoding="iso-8859-1"?>
<!-- Generator: Adobe Illustrator 19.0.0, SVG Export Plug-In . SVG Version: 6.00 Build 0)  -->
<svg version="1.1" id="Capa_1" xmlns="http://www.w3.org/2000/svg" xmlns:xlink="http://www.w3.org/1999/xlink" x="0px" y="0px"
	 viewBox="0 0 512 512" style="enable-background:new 0 0 512 512;" xml:space="preserve">
<path style="fill:#F4D44E;" d="M511.986,203.604c-0.543,19.797-17.283,35.323-37.087,35.323h-11.612
	c20.412,0,36.894,16.827,36.331,37.366c-0.543,19.797-17.283,35.323-37.087,35.323c-13.961,0-87.696,0-103.261,0
	c40.245,56.585,42.142,121.695,41.155,139.942c-2.161,40.002-46.038,55.053-65.289,19.748
	c-16.935-31.061-1.574-84.716-51.962-113.637c-8.803-5.053-17.037-8.256-24.544-10.158c-16.877-4.275-34.311-12.859-49.509-24.234
	c-8.725-6.531-15.628-15.193-20.304-25.037l0,0c-6.795-14.306-21.218-23.423-37.056-23.423H28.134C0.79,274.818,0,245.636,0,245.636
	V91.502c0-17.077,13.844-30.92,30.92-30.92c15.277,0,115.207,0,130.487,0c14.261,0,28.142-4.59,39.59-13.093
	c23.82-17.691,52.969-26.631,77.909-26.631h100.595v0.002c23.905,0,51.728,0,76.158,0c19.804,0,36.544,15.527,37.087,35.323
	c0.563,20.539-15.919,37.366-36.331,37.366h6.871c20.072,0,36.345,16.272,36.345,36.345l0,0c0,20.072-16.272,36.345-36.345,36.345
	h12.368C496.067,166.238,512.549,183.065,511.986,203.604z"/>
<path style="fill:#E8C842;" d="M25.756,91.502v154.134c0,0,0.79,29.182,28.134,29.182H28.134C0.79,274.818,0,245.636,0,245.636
	V91.502c0-17.077,13.844-30.92,30.92-30.92c3.934,0,13.486,0,25.756,0C39.599,60.581,25.756,74.424,25.756,91.502z"/>
<g>
	<path style="fill:#F4D44E;" d="M463.287,238.927c-27.137,0-81.452,0-109.777,0c-20.072,0-36.345,16.272-36.345,36.345l0,0
		c0,20.072,16.272,36.345,36.345,36.345c12.577,0,96.91,0,109.777,0c20.072,0,36.345-16.272,36.345-36.345l0,0
		C499.632,255.198,483.36,238.927,463.287,238.927z"/>
	<path style="fill:#F4D44E;" d="M475.655,166.238c-40.614,0-81.391,0-122.145,0c-20.072,0-36.345,16.272-36.345,36.345l0,0
		c0,20.072,16.272,36.345,36.345,36.345c17.381,0,105.183,0,122.145,0c20.072,0,36.345-16.272,36.345-36.345l0,0
		C512,182.509,495.728,166.238,475.655,166.238z"/>
	<path style="fill:#F4D44E;" d="M463.287,93.548c-27.137,0-81.452,0-109.777,0c-20.072,0-36.345,16.272-36.345,36.345l0,0
		c0,20.072,16.272,36.345,36.345,36.345c12.577,0,96.91,0,109.777,0c20.072,0,36.345-16.272,36.345-36.345l0,0
		C499.632,109.82,483.36,93.548,463.287,93.548z"/>
	<path style="fill:#F4D44E;" d="M317.165,57.204L317.165,57.204c0-20.072,16.272-36.345,36.345-36.345c0.288,0,58.968,0,57.793,0
		c13.112,0,31.361,0,45.113,0c20.072,0,36.345,16.272,36.345,36.345l0,0c0,20.072-16.272,36.345-36.345,36.345
		c-2.433,0-52.19,0-49.758,0c-14.919,0-36.52,0-53.148,0C333.437,93.548,317.165,77.276,317.165,57.204z"/>
</g>
<g>
	<path style="fill:#DBBC3B;" d="M463.287,278.973c-12.866,0-97.201,0-109.777,0c-14.202,0-26.492-8.15-32.471-20.023
		c-11.903,23.633,4.955,52.666,32.471,52.666c12.577,0,96.91,0,109.777,0c20.073,0,36.345-16.272,36.345-36.345
		c-0.104-0.848,0.338-7.96-3.874-16.322C489.779,270.823,477.489,278.973,463.287,278.973z"/>
	<path style="fill:#DBBC3B;" d="M475.655,206.284c-16.961,0-104.764,0-122.145,0c-14.202,0-26.492-8.15-32.471-20.023
		c-11.903,23.633,4.955,52.666,32.471,52.666c17.381,0,105.183,0,122.145,0c20.072,0,36.345-16.272,36.345-36.345
		c-0.106-0.863,0.339-7.96-3.874-16.322C502.147,198.134,489.857,206.284,475.655,206.284z"/>
	<path style="fill:#DBBC3B;" d="M463.287,133.595c-12.866,0-97.201,0-109.777,0c-14.202,0-26.492-8.15-32.471-20.023
		c-12.058,23.939,5.278,52.666,32.471,52.666c12.577,0,96.91,0,109.777,0c20.073,0,36.345-16.272,36.345-36.345l0,0
		c0-5.871-1.401-11.412-3.874-16.322C489.779,125.445,477.489,133.595,463.287,133.595z"/>
	<path style="fill:#DBBC3B;" d="M353.51,60.905h50.922c0.586,0,1.693,0,2.225,0c2.218,0,47.442,0,49.758,0
		c14.202,0,26.492-8.15,32.471-20.023c11.903,23.633-4.955,52.666-32.471,52.666c-34.227,0-68.541,0-102.906,0
		c-27.514,0-44.377-29.031-32.471-52.666C327.019,52.755,339.309,60.905,353.51,60.905z"/>
</g>
<g>
</g>
<g>
</g>
<g>
</g>
<g>
</g>
<g>
</g>
<g>
</g>
<g>
</g>
<g>
</g>
<g>
</g>
<g>
</g>
<g>
</g>
<g>
</g>
<g>
</g>
<g>
</g>
<g>
</g>
</svg>
