<?xml version="1.0" encoding="iso-8859-1"?>
<!-- Generator: Adobe Illustrator 19.0.0, SVG Export Plug-In . SVG Version: 6.00 Build 0)  -->
<svg version="1.1" id="Capa_1" xmlns="http://www.w3.org/2000/svg" xmlns:xlink="http://www.w3.org/1999/xlink" x="0px" y="0px"
	 viewBox="0 0 512 512" style="enable-background:new 0 0 512 512;" xml:space="preserve">
<path style="fill:#F4D44E;" d="M511.962,308.394c-0.543-19.796-17.283-35.322-37.085-35.322h-11.612
	c20.412,0,36.893-16.827,36.329-37.365c-0.543-19.796-17.283-35.322-37.085-35.322c-13.96,0-87.692,0-103.256,0
	c40.243-56.582,42.14-121.689,41.153-139.935c-2.159-40-46.034-55.05-65.284-19.747c-16.935,31.06-1.574,84.712-51.961,113.632
	c-8.803,5.053-17.036,8.255-24.543,10.157c-16.876,4.275-34.309,12.858-49.507,24.233c-8.725,6.53-15.627,15.193-20.303,25.036l0,0
	c-6.795,14.305-21.217,23.422-37.055,23.422H28.133C0.79,237.183,0,266.364,0,266.364v154.127c0,17.076,13.843,30.919,30.919,30.919
	c15.276,0,115.202,0,130.481,0c14.26,0,28.141,4.589,39.588,13.093c23.819,17.69,52.966,26.63,77.905,26.63h100.59v-0.002
	c23.904,0,51.726,0,76.154,0c19.803,0,36.542-15.526,37.085-35.322c0.563-20.538-15.918-37.365-36.329-37.365h6.871
	c20.071,0,36.343-16.272,36.343-36.343l0,0c0-20.071-16.272-36.343-36.343-36.343h12.367
	C496.045,345.758,512.525,328.932,511.962,308.394z"/>
<path style="fill:#E8C842;" d="M25.755,420.491V266.364c0,0,0.79-29.18,28.133-29.18H28.133C0.79,237.183,0,266.364,0,266.364
	v154.127c0,17.076,13.843,30.919,30.919,30.919c3.934,0,13.485,0,25.755,0C39.598,451.409,25.755,437.567,25.755,420.491z"/>
<g>
	<path style="fill:#F4D44E;" d="M463.266,200.386c-27.136,0-81.448,0-109.771,0c-20.072,0-36.343,16.272-36.343,36.343l0,0
		c0,20.071,16.272,36.343,36.343,36.343c12.576,0,96.906,0,109.771,0c20.072,0,36.343-16.272,36.343-36.343l0,0
		C499.609,216.658,483.338,200.386,463.266,200.386z"/>
	<path style="fill:#F4D44E;" d="M475.633,273.072c-40.612,0-81.387,0-122.14,0c-20.072,0-36.343,16.272-36.343,36.343l0,0
		c0,20.071,16.272,36.343,36.343,36.343c17.38,0,105.179,0,122.14,0c20.072,0,36.343-16.272,36.343-36.343l0,0
		C511.976,289.344,495.705,273.072,475.633,273.072z"/>
	<path style="fill:#F4D44E;" d="M463.266,345.758c-27.136,0-81.448,0-109.771,0c-20.072,0-36.343,16.272-36.343,36.343l0,0
		c0,20.071,16.272,36.343,36.343,36.343c12.576,0,96.906,0,109.771,0c20.072,0,36.343-16.272,36.343-36.343l0,0
		C499.609,362.029,483.338,345.758,463.266,345.758z"/>
	<path style="fill:#F4D44E;" d="M492.738,454.787L492.738,454.787c0-20.072-16.272-36.343-36.343-36.343c-0.288,0-58.965,0-57.791,0
		c-13.111,0-31.359,0-45.111,0c-20.072,0-36.343,16.272-36.343,36.343l0,0c0,20.071,16.272,36.343,36.343,36.343
		c2.433,0,52.187,0,49.756,0c14.918,0,36.518,0,53.146,0C476.467,491.13,492.738,474.859,492.738,454.787z"/>
</g>
<g>
	<path style="fill:#DBBC3B;" d="M463.266,240.43c-12.866,0-97.196,0-109.772,0c-14.201,0-26.491-8.15-32.47-20.022
		c-11.903,23.632,4.954,52.664,32.47,52.664c12.576,0,96.906,0,109.772,0c20.072,0,36.343-16.271,36.343-36.343l0,0
		c0-5.871-1.401-11.412-3.874-16.321C489.757,232.281,477.467,240.43,463.266,240.43z"/>
	<path style="fill:#DBBC3B;" d="M475.633,313.116c-16.96,0-104.759,0-122.14,0c-14.201,0-26.491-8.15-32.47-20.022
		c-11.903,23.632,4.954,52.664,32.47,52.664c17.38,0,105.179,0,122.14,0c27.215,0,44.517-28.745,32.47-52.664
		C502.124,304.967,489.834,313.116,475.633,313.116z"/>
	<path style="fill:#DBBC3B;" d="M463.266,385.802c-12.866,0-97.196,0-109.772,0c-14.201,0-26.491-8.15-32.47-20.022
		c-11.903,23.633,4.955,52.664,32.47,52.664c12.576,0,96.906,0,109.772,0c27.215,0,44.517-28.744,32.47-52.664
		C489.757,377.653,477.467,385.802,463.266,385.802z"/>
	<path style="fill:#DBBC3B;" d="M456.395,458.488c-7.023,0-96.104,0-102.901,0c-14.201,0-26.491-8.15-32.47-20.022
		c-12.057,23.938,5.278,52.664,32.47,52.664c6.822,0,95.936,0,102.901,0c27.513,0,44.375-29.03,32.47-52.664
		C482.885,450.339,470.596,458.488,456.395,458.488z"/>
</g>
<g>
</g>
<g>
</g>
<g>
</g>
<g>
</g>
<g>
</g>
<g>
</g>
<g>
</g>
<g>
</g>
<g>
</g>
<g>
</g>
<g>
</g>
<g>
</g>
<g>
</g>
<g>
</g>
<g>
</g>
</svg>
