<?xml version="1.0" encoding="iso-8859-1"?>
<!-- Generator: Adobe Illustrator 19.0.0, SVG Export Plug-In . SVG Version: 6.00 Build 0)  -->
<svg version="1.1" id="Capa_1" xmlns="http://www.w3.org/2000/svg" xmlns:xlink="http://www.w3.org/1999/xlink" x="0px" y="0px"
	 viewBox="0 0 512 512" style="enable-background:new 0 0 512 512;" xml:space="preserve">
<path style="fill:#656566;" d="M256.889,329.41c137.891,0,216.373-27.726,243.685-39.612c2.565-0.733,5.067-1.506,7.538-2.296
	l2.017-1.858l1.843-2.406l-0.292-1.755l-5.794-3.264c-18.057-1.519-57.075-10.739-127.574-52.738
	c-75.354-44.891-168.799-44.014-242.681,0C64.199,268.034,25.085,276.938,7.35,278.274l-7.107,3.166l-0.188,1.13l6.657,5.212
	C15.091,290.422,92.843,329.41,256.889,329.41z"/>
<path style="fill:#4F4F51;" d="M166.617,317.918c-23.419-17.294-27.551-52.105-4.983-74.67
	c31.989-31.984,67.996-49.098,104.353-50.932c-45.205-1.699-90.612,9.487-130.357,33.164c-35,20.851-62.225,33.61-82.994,41.371
	c-17.507,6.542-30.424,9.532-39.508,10.794c-0.033,0.005-0.068,0.01-0.101,0.015c-0.629,0.087-1.234,0.163-1.828,0.234
	c-0.067,0.008-0.139,0.018-0.206,0.026c-0.551,0.065-1.078,0.119-1.597,0.171c-0.096,0.01-0.2,0.022-0.296,0.031
	c-0.605,0.058-1.188,0.108-1.75,0.151l-7.107,3.166l-0.188,1.13l6.657,5.212c0.124,0.039,0.27,0.089,0.424,0.144
	c0.049,0.017,0.104,0.038,0.156,0.057c0.116,0.042,0.239,0.088,0.372,0.137c0.064,0.024,0.128,0.049,0.196,0.074
	c0.141,0.054,0.292,0.112,0.448,0.174c0.066,0.026,0.128,0.05,0.197,0.077c0.218,0.086,0.449,0.178,0.696,0.279
	c0.132,0.053,0.278,0.112,0.419,0.169c0.116,0.047,0.231,0.093,0.354,0.143c1.316,0.535,2.964,1.212,4.938,2.005
	c0.015,0.006,0.03,0.012,0.044,0.018c0.456,0.183,0.929,0.372,1.421,0.567c0.018,0.007,0.035,0.014,0.053,0.021
	c1.019,0.405,2.111,0.833,3.281,1.285c0.008,0.003,0.016,0.006,0.023,0.009c0.548,0.211,1.115,0.429,1.696,0.65
	c0.076,0.029,0.152,0.058,0.229,0.087c0.556,0.211,1.127,0.427,1.713,0.646c0.054,0.02,0.106,0.04,0.16,0.06
	c1.293,0.483,2.657,0.985,4.096,1.504c0.09,0.033,0.183,0.066,0.275,0.099c0.617,0.222,1.247,0.447,1.892,0.674
	c0.134,0.047,0.269,0.095,0.404,0.142c0.67,0.236,1.355,0.476,2.054,0.717c0.078,0.027,0.153,0.053,0.232,0.081
	c1.564,0.541,3.202,1.095,4.909,1.661c0.183,0.061,0.37,0.122,0.554,0.183c0.67,0.221,1.352,0.444,2.044,0.668
	c0.215,0.07,0.43,0.139,0.647,0.209c0.767,0.247,1.548,0.497,2.343,0.747c0.118,0.037,0.232,0.074,0.352,0.112
	c0.92,0.29,1.859,0.582,2.813,0.877c0.186,0.057,0.379,0.115,0.566,0.172c0.745,0.228,1.501,0.458,2.268,0.688
	c0.32,0.096,0.642,0.192,0.966,0.289c0.676,0.201,1.362,0.404,2.054,0.607c0.335,0.098,0.668,0.196,1.007,0.295
	c0.817,0.237,1.645,0.476,2.484,0.714c0.208,0.059,0.412,0.118,0.622,0.178c1.011,0.287,2.04,0.574,3.083,0.862
	c0.383,0.106,0.773,0.211,1.16,0.318c0.69,0.189,1.386,0.378,2.09,0.568c0.469,0.126,0.94,0.253,1.415,0.379
	c5.034,1.339,10.354,2.664,14.966,3.747c0.001-0.001,0.003-0.002,0.005-0.003c25.724,6.047,58.544,11.827,98.941,15.278
	L166.617,317.918z"/>
<path style="fill:#EAE9E8;" d="M380.891,228.012c-76.956-45.845-172.387-44.949-247.838,0c-12.225,7.282-23.517,13.596-33.94,19.073
	c101.821,4.934,213.561,4.918,315.553-0.088C404.288,241.539,393.051,235.256,380.891,228.012z"/>
<path style="fill:#DBDBDB;" d="M250.337,194.064c-40.857,1.126-81.338,12.533-117.284,33.948
	c-12.225,7.282-23.517,13.596-33.941,19.073c18.516,0.897,37.364,1.628,56.418,2.198c2.007-1.963,4.039-3.97,6.104-6.035
	C189.024,215.862,219.359,199.389,250.337,194.064z"/>
<path style="fill:#ED694A;" d="M506.356,274.906c-62.413-33.127-96.864-95.167-131.925-140.294
	c-26.326-33.884-73.505-43.392-111.071-22.655c-0.102,0.026-7.036,4.242-14.721,0l-8.467-4.673
	C208.807,89.969,168.276,96.98,145,127.558C99.13,187.842,65.411,245.714,4.075,276.697c-2.046,0.98-3.355,2.765-3.832,4.743
	c12.765,0.53,52.119-3.349,135.387-52.954c73.881-44.014,167.326-44.891,242.681,0c79.28,47.23,118.752,53.008,133.368,52.995
	C510.993,278.747,509.181,276.282,506.356,274.906z"/>
<g>
	<path style="fill:#D8553A;" d="M510.775,279.168c0.271,0.744,0.498,1.516,0.677,2.312c0.075,0,0.153,0.001,0.227,0.001
		C511.477,280.678,511.168,279.904,510.775,279.168z"/>
	<path style="fill:#D8553A;" d="M378.31,204.626c-75.354-66.024-168.799-64.733-242.681,0
		c-56.328,49.353-92.556,67.929-114.056,74.543c21.5-4.497,57.729-17.126,114.056-50.683c73.881-44.014,167.326-44.891,242.681,0
		c56.33,33.559,92.559,46.186,114.059,50.683C470.869,272.555,434.641,253.982,378.31,204.626z"/>
	<path style="fill:#D8553A;" d="M1.239,279.168c-0.463,0.699-0.802,1.468-0.995,2.272c0.069,0.003,0.144,0.005,0.215,0.007
		C0.651,280.648,0.916,279.884,1.239,279.168z"/>
</g>
<path style="fill:#ED694A;" d="M511.97,283.237c-3.68,1.255-7.487,2.437-11.397,3.555c-124.712,54.276-373.46,51.947-492.611-1.616
	c-2.698-0.836-5.341-1.7-7.907-2.605c-0.273,3.532-0.62,4.384,28.627,31.962c34.895,32.918,65.85,58.381,96.146,77.953
	c37.852,24.454,85.44,28.29,126.66,10.082l0,0c2.878-1.271,6.154-1.287,9.044-0.044l0,0c42.354,18.221,91.116,14.661,129.972-10.16
	c35.517-22.687,72.472-54.27,114.868-97.546C509.138,290.97,512.344,288.543,511.97,283.237z"/>
<path style="fill:#D8553A;" d="M505.371,290.787c-42.397,29.028-79.352,50.212-114.868,65.43
	c-38.856,16.649-87.617,19.036-129.972,6.814l0,0c-2.89-0.834-6.166-0.823-9.044,0.029l0,0c-41.221,12.214-88.808,9.64-126.66-6.762
	c-30.296-13.129-61.251-30.208-96.146-52.289C2.86,287.676,0.107,285.319,0.004,283.36c-0.096,3.036,1.708,5.742,28.677,31.172
	c34.895,32.918,65.85,58.381,96.146,77.953c37.852,24.454,85.44,28.29,126.66,10.082l0,0c2.878-1.27,6.154-1.286,9.044-0.044l0,0
	c42.354,18.221,91.116,14.661,129.972-10.16c35.517-22.687,72.472-54.27,114.868-97.546c3.628-3.707,6.726-6.103,6.616-11.015
	C511.84,286.83,508.847,288.404,505.371,290.787z"/>
<g>
</g>
<g>
</g>
<g>
</g>
<g>
</g>
<g>
</g>
<g>
</g>
<g>
</g>
<g>
</g>
<g>
</g>
<g>
</g>
<g>
</g>
<g>
</g>
<g>
</g>
<g>
</g>
<g>
</g>
</svg>
