<?xml version="1.0" encoding="iso-8859-1"?>
<!-- Generator: Adobe Illustrator 19.0.0, SVG Export Plug-In . SVG Version: 6.00 Build 0)  -->
<svg version="1.1" id="Capa_1" xmlns="http://www.w3.org/2000/svg" xmlns:xlink="http://www.w3.org/1999/xlink" x="0px" y="0px"
	 viewBox="0 0 512.001 512.001" style="enable-background:new 0 0 512.001 512.001;" xml:space="preserve">
<path style="fill:#F4D44E;" d="M368.12,256.249L368.12,256.249c-8.831,0-16.234-6.672-17.149-15.455L331.834,57.127
	c-3.383-32.465-30.747-57.126-63.388-57.126h-12.446H256h-12.446c-32.64,0-60.004,24.661-63.388,57.126l-19.137,183.667
	c-0.915,8.783-8.319,15.455-17.149,15.455l0,0c-53.119,0-96.581,43.462-96.581,96.581l0,0c0,53.119,43.462,96.581,96.581,96.581
	c1.965,0.416,18.919-2.97,27.708,12.783c16.537,29.643,48.231,49.808,84.412,49.808l0,0l0,0h0.001l0,0
	c36.248,0,67.994-20.24,84.504-49.975c4.305-7.752,12.413-12.616,21.28-12.616h6.335c53.119,0,96.581-43.462,96.581-96.581l0,0
	C464.701,299.709,421.239,256.249,368.12,256.249z"/>
<g>
	<path style="fill:#E8C842;" d="M195.394,242.855c8.831,0,16.233-6.672,17.149-15.455L231.68,43.733
		C233.543,25.841,242.703,10.33,256.004,0h-0.003l0,0h-12.447c-32.64,0-60.004,24.661-63.388,57.126l-19.137,183.667
		c-0.433,4.161-2.335,7.836-5.142,10.563C167.964,245.898,181.341,242.855,195.394,242.855z"/>
	<path style="fill:#E8C842;" d="M223.101,448.8c-8.805-15.783-25.656-12.35-27.708-12.783c-53.119,0-96.581-43.462-96.581-96.581
		l0,0c0-35.503,19.418-66.689,48.156-83.47c-1.004,0.182-2.035,0.283-3.088,0.283c-53.119,0-96.581,43.462-96.581,96.581l0,0
		c0,53.119,43.462,96.581,96.581,96.581c1.965,0.416,18.92-2.97,27.708,12.783c26.594,47.669,86.805,63.983,133.379,36.371
		C269.851,497.642,239.249,477.746,223.101,448.8z"/>
</g>
<g>
</g>
<g>
</g>
<g>
</g>
<g>
</g>
<g>
</g>
<g>
</g>
<g>
</g>
<g>
</g>
<g>
</g>
<g>
</g>
<g>
</g>
<g>
</g>
<g>
</g>
<g>
</g>
<g>
</g>
</svg>
