<?xml version="1.0" encoding="iso-8859-1"?>
<!-- Generator: Adobe Illustrator 19.0.0, SVG Export Plug-In . SVG Version: 6.00 Build 0)  -->
<svg version="1.1" id="Capa_1" xmlns="http://www.w3.org/2000/svg" xmlns:xlink="http://www.w3.org/1999/xlink" x="0px" y="0px"
	 viewBox="0 0 512.001 512.001" style="enable-background:new 0 0 512.001 512.001;" xml:space="preserve">
<path style="fill:#F4D44E;" d="M450.894,193.273C450.894,86.532,363.652,0,256.035,0C126.728,0,32.656,123.102,68.971,247.078
	l-0.084-0.024c0.034,0.106,58.288,183.688,55.111,173.675l0.034-0.011c18.918,53.682,62.064,91.236,112.336,91.236
	c61.848,0,112.848-56.829,121.245-130.628l0.138-0.026c0,0,0.204-22.631,23.768-40.485l0,0
	C423.883,305.397,450.894,252.537,450.894,193.273z"/>
<g>
	<path style="fill:#E8C842;" d="M124.119,421.11C124.124,421.126,124.124,421.124,124.119,421.11L124.119,421.11z"/>
	<path style="fill:#E8C842;" d="M123.998,420.728L123.998,420.728C124.156,421.226,124.164,421.251,123.998,420.728z"/>
	<path style="fill:#E8C842;" d="M149.997,419.65l-0.034,0.011c0.164,0.517,0.168,0.531,0,0l0,0
		c-2.883-9.088-55.078-173.574-55.111-173.675l0.084,0.024C60.629,128.887,142.7,12.564,260.907,0.061
		C259.288,0.022,257.664,0,256.035,0C126.728,0,32.657,123.102,68.971,247.078l-0.084-0.024
		c0.032,0.1,52.227,164.586,55.111,173.675l0.034-0.011c20.377,57.822,70.826,99.923,129.438,89.767
		C207.032,506.365,167.794,470.147,149.997,419.65z"/>
	<path style="fill:#E8C842;" d="M408.431,224.65c-0.089-26.906-4.41-56.999-16.29-88.634
		C350.067,23.964,165.202,5.149,112.233,151.076c0,0-10.386,30.986-2.769,77.377c7.616,46.392,35.659,49.162,50.546,40.16
		c14.887-9.002,36.378-48.469,69.241-48.469c32.864,0,62.663,23.889,48.382,73.223c0,0-8.742,22.157-24.148,37.563
		c-15.406,15.406-19.995,27.697-7.963,54.701c9.75,21.883,0.061,45.811-22.755,49.679c-6.826,1.157-9.102,9.769-3.726,14.133
		c10.781,8.751,26.905,17.146,45.87,12.007c34.94-9.467,55.092-43.159,67.164-84.475c8.682-29.711,25.535-51.037,38.756-64.095
		c17.203-16.992,29.357-38.473,34.34-62.134C408.353,235.632,408.43,224.744,408.431,224.65z"/>
</g>
<g>
	<path style="fill:#DBBC3B;" d="M135.429,228.453c-7.617-46.392,2.769-77.377,2.769-77.377
		c24.324-67.01,76.46-99.277,129.811-103.734c-61.655-5.105-127.503,25.844-155.776,103.734c0,0-10.386,30.986-2.769,77.377
		c7.347,44.754,33.703,48.91,48.921,41.066C148.4,264.272,139.29,251.969,135.429,228.453z"/>
	<path style="fill:#DBBC3B;" d="M245.007,449.444c-5.376-4.364-3.101-12.975,3.726-14.133c22.817-3.869,32.505-27.797,22.755-49.679
		c-12.033-27.004-7.444-39.295,7.963-54.701c15.406-15.406,24.148-37.563,24.148-37.563c17.284-59.708-30.93-79.799-59.864-71.591
		c26.347,6.137,46.031,29.679,33.898,71.591c0,0-8.742,22.157-24.148,37.563c-15.406,15.406-19.995,27.697-7.963,54.701
		c9.75,21.883,0.061,45.811-22.755,49.679c-6.826,1.157-9.102,9.769-3.726,14.133c13.943,11.318,29.839,16.67,47.156,11.626
		C257.889,458.589,250.702,454.067,245.007,449.444z"/>
</g>
<g>
</g>
<g>
</g>
<g>
</g>
<g>
</g>
<g>
</g>
<g>
</g>
<g>
</g>
<g>
</g>
<g>
</g>
<g>
</g>
<g>
</g>
<g>
</g>
<g>
</g>
<g>
</g>
<g>
</g>
</svg>
