<?xml version="1.0" encoding="iso-8859-1"?>
<!-- Generator: Adobe Illustrator 19.0.0, SVG Export Plug-In . SVG Version: 6.00 Build 0)  -->
<svg version="1.1" id="Capa_1" xmlns="http://www.w3.org/2000/svg" xmlns:xlink="http://www.w3.org/1999/xlink" x="0px" y="0px"
	 viewBox="0 0 511.96 511.96" style="enable-background:new 0 0 511.96 511.96;" xml:space="preserve">
<circle style="fill:#F4D44E;" cx="256" cy="255.961" r="255.96"/>
<path style="fill:#E8C842;" d="M172.714,451.824C11.266,358.611,1.463,130.355,150.783,22.624
	C103.51,43.893,62.233,79.663,34.334,127.982c-70.68,122.423-28.735,278.964,93.687,349.645
	c90.093,52.015,198.66,43.029,277.89-14.133C333.415,496.111,246.817,494.606,172.714,451.824z"/>
<g>
	<circle style="fill:#656566;" cx="328.772" cy="223.738" r="22.329"/>
	<circle style="fill:#656566;" cx="183.228" cy="223.738" r="22.329"/>
</g>
<g>
	<path style="fill:#4F4F51;" d="M328.777,223.743c-4.13-7.153-3.832-15.633,0.01-22.312c-17.025-0.024-27.992,18.502-19.347,33.475
		c6.166,10.68,19.822,14.338,30.501,8.173c3.527-2.036,6.268-4.899,8.163-8.19C340.399,234.879,332.907,230.896,328.777,223.743z"/>
	<path style="fill:#4F4F51;" d="M183.223,223.743c-4.13-7.153-3.833-15.633,0.01-22.311c-17.024-0.024-27.992,18.502-19.347,33.475
		c6.166,10.68,19.822,14.338,30.502,8.173c3.526-2.036,6.268-4.898,8.162-8.19C194.845,234.879,187.353,230.896,183.223,223.743z"/>
</g>
<path style="fill:#656566;" d="M272.022,378.385l-24.808-7.92c-4.073-1.3-8.428,0.947-9.729,5.02
	c-1.301,4.073,0.947,8.428,5.02,9.729c23.336,7.092,25.697,9.074,32.34,9.074c6.768,0,13.321-2.752,18.157-7.862
	c10.45-11.042,9.201-28.547,1.133-37.05c9.762-10.235,7.5-27.929-1.133-37.05c-6.61-6.983-16.422-9.562-25.688-6.708l-24.808,7.92
	c-4.072,1.301-6.319,5.656-5.02,9.729c1.301,4.073,5.657,6.318,9.729,5.02l24.733-7.896c3.521-1.083,7.279-0.096,9.81,2.579
	c3.815,4.031,4.409,12.443,1.116,15.794c-4.256,4.329-9.369,2.402-15.569,2.874c-4.275,0-7.741,3.466-7.741,7.741
	c0,4.275,3.466,7.741,7.741,7.741c6.197,0.471,11.314-1.456,15.569,2.874c3.293,3.35,2.699,11.763-1.116,15.793
	C279.224,378.456,275.462,379.444,272.022,378.385z"/>
<g>
</g>
<g>
</g>
<g>
</g>
<g>
</g>
<g>
</g>
<g>
</g>
<g>
</g>
<g>
</g>
<g>
</g>
<g>
</g>
<g>
</g>
<g>
</g>
<g>
</g>
<g>
</g>
<g>
</g>
</svg>
