<?xml version="1.0" encoding="iso-8859-1"?>
<!-- Generator: Adobe Illustrator 19.0.0, SVG Export Plug-In . SVG Version: 6.00 Build 0)  -->
<svg version="1.1" id="Capa_1" xmlns="http://www.w3.org/2000/svg" xmlns:xlink="http://www.w3.org/1999/xlink" x="0px" y="0px"
	 viewBox="0 0 511.958 511.958" style="enable-background:new 0 0 511.958 511.958;" xml:space="preserve">
<circle style="fill:#F4D44E;" cx="255.999" cy="255.954" r="255.954"/>
<path style="fill:#E8C842;" d="M172.719,451.822C11.271,358.609,1.467,130.353,150.787,22.624
	C103.515,43.893,62.236,79.662,34.339,127.981c-70.681,122.423-28.736,278.964,93.687,349.644
	c90.092,52.015,198.659,43.029,277.889-14.132C333.42,496.11,246.821,494.605,172.719,451.822z"/>
<path style="fill:#656566;" d="M93.981,338.057c62.088,143.84,263.99,139.792,324.04,0H93.981z"/>
<path style="fill:#EAE9E8;" d="M414.077,301.006H97.89c-8.041,0-13.826,7.698-11.628,15.434c2.374,8.356,5.4,16.614,9.082,24.714
	h321.312c3.623-8.009,6.651-16.264,9.043-24.699C427.896,308.712,422.124,301.006,414.077,301.006z"/>
<path style="fill:#4F4F51;" d="M119.784,338.057H93.981c30.145,69.838,100.635,111.68,175.099,106.2
	C212.758,440.132,146.139,399.115,119.784,338.057z"/>
<path style="fill:#DBDBDB;" d="M123.694,301.006H97.89c-8.042,0-13.826,7.698-11.628,15.434c2.374,8.356,5.4,16.614,9.082,24.714
	h25.804c-3.682-8.1-6.708-16.358-9.082-24.714C109.869,308.704,115.653,301.006,123.694,301.006z"/>
<path style="fill:#ED694A;" d="M246.471,389.773c-31.117-12.618-67.786-3.41-89.101,24.816
	c58.762,39.556,136.523,40.815,197.217-0.008c-13.208-17.486-33.766-29.181-57.019-30.26
	C268.734,382.982,263.291,396.593,246.471,389.773z"/>
<path style="fill:#D8553A;" d="M168.007,403.141c-3.916,3.442-7.482,7.272-10.628,11.436
	c32.755,22.045,72.084,32.519,111.547,29.665C232.154,441.517,196.658,427.318,168.007,403.141z"/>
<g>
	<path style="fill:#656566;" d="M302.924,224.006c3.552,2.382,8.361,1.432,10.74-2.119c17.269-24.381,9.846-24.383,27.117,0
		c2.393,3.57,7.209,4.489,10.74,2.119c3.552-2.38,4.5-7.189,2.12-10.74l-10.768-16.062c-8.145-12.149-23.17-12.125-31.3,0
		l-10.768,16.062C298.424,216.817,299.372,221.626,302.924,224.006z"/>
	<path style="fill:#656566;" d="M200.384,197.05c-8.144-12.148-23.17-12.127-31.3,0l-10.768,16.062
		c-2.381,3.551-1.432,8.36,2.119,10.74c3.551,2.381,8.36,1.432,10.74-2.119c17.261-24.371,9.84-24.392,27.117,0
		c2.384,3.558,7.195,4.496,10.74,2.119c3.551-2.38,4.5-7.189,2.119-10.74L200.384,197.05z"/>
</g>
<g>
</g>
<g>
</g>
<g>
</g>
<g>
</g>
<g>
</g>
<g>
</g>
<g>
</g>
<g>
</g>
<g>
</g>
<g>
</g>
<g>
</g>
<g>
</g>
<g>
</g>
<g>
</g>
<g>
</g>
</svg>
